<svg width="23" height="21" viewBox="0 0 23 21" fill="none" xmlns="http://www.w3.org/2000/svg">
<path d="M1 1C1 0.723858 0.776142 0.5 0.5 0.5C0.223858 0.5 0 0.723858 0 1H1ZM0 1L0 21H1L1 1H0Z" fill="#A266F4"/>
<path d="M22 21C22.2761 21 22.5 20.7761 22.5 20.5C22.5 20.2239 22.2761 20 22 20V21ZM22 20L0 20V21L22 21V20Z" fill="#A266F4"/>
<path d="M4 20V15H7V20" stroke="#A266F4"/>
<path d="M10 20V12H13V20" stroke="#A266F4"/>
<path d="M16 20V9H19V20" stroke="#A266F4"/>
<path d="M2.71441 7.58959C2.48775 7.74731 2.43186 8.05892 2.58958 8.28559C2.74731 8.51225 3.05892 8.56814 3.28559 8.41042L2.71441 7.58959ZM8.22581 4.36364L8.48583 3.93657L8.2076 3.76716L7.94022 3.95322L8.22581 4.36364ZM13.4516 7.54545L13.1916 7.97252L13.4502 8.12997L13.7095 7.97379L13.4516 7.54545ZM21.4853 3.12049C21.5518 2.85249 21.3885 2.58128 21.1205 2.51474L16.7531 1.4303C16.4851 1.36376 16.2139 1.52707 16.1474 1.79508C16.0808 2.06308 16.2441 2.33429 16.5121 2.40083L20.3942 3.36477L19.4303 7.24689C19.3638 7.51489 19.5271 7.7861 19.7951 7.85264C20.0631 7.91919 20.3343 7.75588 20.4008 7.48787L21.4853 3.12049ZM3.28559 8.41042L8.51139 4.77405L7.94022 3.95322L2.71441 7.58959L3.28559 8.41042ZM7.96578 4.7907L13.1916 7.97252L13.7116 7.11839L8.48583 3.93657L7.96578 4.7907ZM13.7095 7.97379L21.2579 3.42833L20.7421 2.57167L13.1937 7.11712L13.7095 7.97379Z" fill="#A266F4"/>
</svg>
