<svg width="20" height="22" viewBox="0 0 20 22" fill="none" xmlns="http://www.w3.org/2000/svg">
<path d="M4.8346 4.9763C4.77438 4.52467 5.30028 4.23442 5.6503 4.52611L5.78295 4.63664C6.48997 5.22583 7.55595 5.04524 8.02946 4.25605L9.57125 1.6864C9.76546 1.36273 10.2345 1.36273 10.4287 1.6864L11.9705 4.25605C12.444 5.04524 13.51 5.22583 14.2171 4.63664L14.3497 4.52611C14.6997 4.23442 15.2256 4.52467 15.1654 4.9763L14.6201 9.06608C14.587 9.31449 14.3751 9.5 14.1245 9.5H5.87552C5.62492 9.5 5.41302 9.31448 5.3799 9.06608L4.8346 4.9763Z" stroke="white"/>
<rect x="0.5" y="15.5" width="7" height="6" rx="1.5" stroke="white"/>
<rect x="12.5" y="15.5" width="7" height="6" rx="1.5" stroke="white"/>
<path d="M4 15.5556V13C4 12.4477 4.44772 12 5 12H16C16.5523 12 17 12.4477 17 13V16" stroke="white"/>
<path d="M10 9V12.5" stroke="white"/>
</svg>
