<svg width="22" height="22" viewBox="0 0 22 22" fill="none" xmlns="http://www.w3.org/2000/svg">
<path d="M0.5 2C0.5 1.17157 1.17157 0.5 2 0.5H6.02351C6.85193 0.5 7.52351 1.17157 7.52351 2V21.5H2C1.17157 21.5 0.5 20.8284 0.5 20V2Z" stroke="#A266F4"/>
<path d="M7.5 8C7.5 7.17157 8.17157 6.5 9 6.5H13C13.8284 6.5 14.5 7.17157 14.5 8V21.5H7.5V8Z" stroke="#A266F4"/>
<path d="M14.4766 13C14.4766 12.1716 15.1481 11.5 15.9766 11.5H20.0001C20.8285 11.5 21.5001 12.1716 21.5001 13V20C21.5001 20.8284 20.8285 21.5 20.0001 21.5H14.4766V13Z" stroke="#A266F4"/>
</svg>
