<svg width="30" height="30" viewBox="0 0 30 30" fill="none" xmlns="http://www.w3.org/2000/svg">
<path d="M11.1847 17.1922L8.33301 19.2464C8.71967 20.0519 9.2594 20.793 9.95217 21.4697C10.645 22.1464 11.4586 22.6861 12.393 23.0889C13.3436 23.4755 14.3666 23.6689 15.4622 23.6689C16.2516 23.6689 17.0169 23.548 17.758 23.3064C18.5152 23.0808 19.1838 22.7425 19.7638 22.2914C20.36 21.8403 20.8272 21.2844 21.1655 20.6239C21.52 19.9472 21.6972 19.1819 21.6972 18.328C21.6972 17.6191 21.5844 16.9908 21.3588 16.443C21.1333 15.8953 20.8191 15.4119 20.4163 14.993C20.0297 14.5741 19.5786 14.2197 19.063 13.9297C18.5475 13.6236 17.9916 13.3578 17.3955 13.1322C16.6061 12.8583 15.9294 12.6005 15.3655 12.3589C14.8177 12.1172 14.3908 11.8514 14.0847 11.5614C13.7947 11.2714 13.6497 10.933 13.6497 10.5464C13.6497 10.1758 13.8027 9.8697 14.1088 9.62803C14.415 9.37025 14.858 9.24136 15.438 9.24136C15.873 9.24136 16.2758 9.32997 16.6463 9.5072C17.033 9.66831 17.3794 9.90192 17.6855 10.208C18.0077 10.498 18.2897 10.8444 18.5313 11.2472L21.6488 9.5072C21.3588 8.9272 20.94 8.35525 20.3922 7.79136C19.8444 7.22747 19.1516 6.76025 18.3138 6.3897C17.4922 6.01914 16.5175 5.83386 15.3897 5.83386C14.2941 5.83386 13.2952 6.0272 12.393 6.41386C11.5069 6.78442 10.798 7.3322 10.2663 8.0572C9.75079 8.7822 9.49301 9.64414 9.49301 10.643C9.49301 11.4808 9.64606 12.1978 9.95217 12.7939C10.2583 13.3739 10.645 13.8733 11.1122 14.2922C11.5794 14.695 12.0708 15.0253 12.5863 15.283C13.118 15.5408 13.5852 15.7422 13.988 15.8872C14.8097 16.1933 15.4702 16.4672 15.9697 16.7089C16.4691 16.9505 16.8316 17.2083 17.0572 17.4822C17.2827 17.74 17.3955 18.0864 17.3955 18.5214C17.3955 19.0369 17.2022 19.4478 16.8155 19.7539C16.4288 20.0439 15.9375 20.1889 15.3413 20.1889C14.7775 20.1889 14.2377 20.068 13.7222 19.8264C13.2227 19.5847 12.7555 19.2383 12.3205 18.7872C11.9016 18.3361 11.523 17.8044 11.1847 17.1922Z" fill="#469A1F"/>
<circle cx="15" cy="15" r="13" stroke="#A266F4" stroke-width="4"/>
</svg>
