<svg width="23" height="25" viewBox="0 0 23 25" fill="none" xmlns="http://www.w3.org/2000/svg">
<path fill-rule="evenodd" clip-rule="evenodd" d="M13.8513 19.7056L14.1592 19.7763C14.453 19.8437 14.7389 19.6587 14.7979 19.3631C14.8569 19.0674 14.6666 18.7731 14.3728 18.7056L12.8591 18.3581C12.588 18.2959 12.3194 18.4487 12.2354 18.7129L11.8209 20.0166C11.7298 20.303 11.8874 20.616 12.1729 20.7157C12.4583 20.8153 12.7635 20.664 12.8546 20.3776L12.9 20.2347C13.5345 21.0904 14.3857 21.6151 15.0766 21.8564C15.9356 22.1564 17.2003 22.2471 18.4202 21.6422C19.6439 21.0354 20.3383 19.9418 20.6108 19.0847C20.7018 18.7983 20.5442 18.4854 20.2588 18.3857C19.9733 18.286 19.6681 18.4373 19.5771 18.7237C19.3736 19.3635 18.8413 20.198 17.9225 20.6536C16.9999 21.1111 16.0393 21.0404 15.4064 20.8193C14.9214 20.65 14.3201 20.2851 13.8513 19.7056ZM18.077 16.3236C17.7833 16.2561 17.5929 15.9618 17.6519 15.6661C17.7109 15.3705 17.9969 15.1855 18.2906 15.2529L18.5985 15.3236C18.1297 14.7441 17.5284 14.3792 17.0434 14.2099C16.4105 13.9888 15.4499 13.9181 14.5273 14.3756C13.6085 14.8312 13.0762 15.6657 12.8728 16.3055C12.7817 16.5919 12.4765 16.7432 12.191 16.6435C11.9056 16.5438 11.748 16.2309 11.839 15.9445C12.1116 15.0874 12.8059 13.9938 14.0296 13.387C15.2495 12.7821 16.5142 12.8728 17.3732 13.1728C18.0641 13.4141 18.9153 13.9388 19.5498 14.7945L19.5952 14.6516C19.6863 14.3652 19.9915 14.2138 20.2769 14.3135C20.5624 14.4132 20.72 14.7262 20.6289 15.0126L20.2144 16.3163C20.1304 16.5805 19.8618 16.7333 19.5907 16.6711L18.077 16.3236Z" fill="#333333"/>
<path fill-rule="evenodd" clip-rule="evenodd" d="M10.2764 1.12383C10.0878 0.958723 9.80616 0.958723 9.61761 1.12383L2.16768 7.64727C2.05926 7.74221 1.99707 7.87932 1.99707 8.02343V18.4084C1.99707 18.6845 2.22093 18.9084 2.49707 18.9084H5.96753V12.0234C5.96753 11.195 6.6391 10.5234 7.46753 10.5234H12.4263C13.2547 10.5234 13.9263 11.195 13.9263 12.0234V12.5451C13.5731 12.7058 13.2384 12.8997 12.9263 13.1228V12.0234C12.9263 11.7473 12.7024 11.5234 12.4263 11.5234H7.46753C7.19139 11.5234 6.96753 11.7473 6.96753 12.0234V18.9084H10.5254C10.5831 19.2527 10.6708 19.5869 10.7858 19.9084H2.49707C1.66864 19.9084 0.99707 19.2368 0.99707 18.4084V8.02343C0.99707 7.59108 1.18363 7.17975 1.50891 6.89493L8.95883 0.371492C9.5245 -0.12383 10.3695 -0.123831 10.9352 0.371491L18.3851 6.89493C18.7104 7.17975 18.8969 7.59108 18.8969 8.02343V12.5478C18.5778 12.4022 18.2434 12.2837 17.8969 12.1954V8.02343C17.8969 7.87932 17.8347 7.74221 17.7263 7.64727L10.2764 1.12383Z" fill="#333333"/>
</svg>
