<svg width="22" height="16" viewBox="0 0 22 16" fill="none" xmlns="http://www.w3.org/2000/svg">
<rect x="0.5" y="0.5" width="21" height="14.7143" rx="2.5" stroke="#333333"/>
<path d="M18.3096 6.19043C18.3096 5.362 18.9811 4.69043 19.8096 4.69043H21.5V11.0238H19.8096C18.9811 11.0238 18.3096 10.3522 18.3096 9.52376V6.19043Z" stroke="#333333"/>
<path d="M3.69043 6.19043C3.69043 5.362 3.01886 4.69043 2.19043 4.69043H0.499953V11.0238H2.19043C3.01886 11.0238 3.69043 10.3522 3.69043 9.52376V6.19043Z" stroke="#333333"/>
<rect x="11.5239" width="15.7143" height="1.04762" rx="0.52381" transform="rotate(90 11.5239 0)" fill="#333333"/>
<path d="M13.119 7.85708C13.119 9.0274 12.1702 9.97613 10.9999 9.97613C9.82959 9.97613 8.88086 9.0274 8.88086 7.85708C8.88086 6.68677 9.82959 5.73804 10.9999 5.73804C12.1702 5.73804 13.119 6.68677 13.119 7.85708Z" fill="#1F1F1F" stroke="#333333"/>
</svg>
