<svg width="22" height="22" viewBox="0 0 22 22" fill="none" xmlns="http://www.w3.org/2000/svg">
<circle cx="11" cy="11" r="10.5" stroke="white"/>
<path d="M13.696 8.36C13.696 8.76533 13.5733 9.16 13.328 9.544C13.0827 9.91733 12.7307 10.2267 12.272 10.472C11.8133 10.7173 11.264 10.84 10.624 10.84H10.208L10.528 13.64H11.488L11.6 11.72C12.1973 11.688 12.752 11.5227 13.264 11.224C13.776 10.9147 14.192 10.5147 14.512 10.024C14.832 9.52267 14.992 8.968 14.992 8.36C14.992 7.88 14.9013 7.43733 14.72 7.032C14.5493 6.62667 14.304 6.27467 13.984 5.976C13.6747 5.66667 13.3067 5.42667 12.88 5.256C12.464 5.08533 12.0053 5 11.504 5C10.8747 5 10.3413 5.08 9.904 5.24C9.47733 5.38933 9.11467 5.608 8.816 5.896C8.51733 6.17333 8.24533 6.49867 8 6.872L9.04 7.528C9.28533 7.12267 9.59467 6.80267 9.968 6.568C10.352 6.32267 10.8107 6.2 11.344 6.2C11.824 6.2 12.24 6.28533 12.592 6.456C12.944 6.62667 13.216 6.872 13.408 7.192C13.6 7.512 13.696 7.90133 13.696 8.36ZM10.16 15.72C10.16 15.9547 10.2453 16.1627 10.416 16.344C10.5973 16.5147 10.8053 16.6 11.04 16.6C11.2853 16.6 11.4933 16.5147 11.664 16.344C11.8347 16.1627 11.92 15.9547 11.92 15.72C11.92 15.4747 11.8347 15.2667 11.664 15.096C11.4933 14.9253 11.2853 14.84 11.04 14.84C10.8053 14.84 10.5973 14.9253 10.416 15.096C10.2453 15.2667 10.16 15.4747 10.16 15.72Z" fill="white"/>
</svg>
