<svg width="23" height="21" viewBox="0 0 23 21" fill="none" xmlns="http://www.w3.org/2000/svg">
<circle cx="9" cy="7" r="5.5" stroke="white"/>
<circle cx="9" cy="6" r="1.5" stroke="white"/>
<path d="M12 11C12 9.34315 10.6569 8 9 8C7.34315 8 6 9.34315 6 11" stroke="white" stroke-linecap="square"/>
<path d="M2.71441 17.5896C2.48775 17.7473 2.43186 18.0589 2.58958 18.2856C2.74731 18.5123 3.05892 18.5681 3.28559 18.4104L2.71441 17.5896ZM8.22581 14.3636L8.48583 13.9366L8.2076 13.7672L7.94022 13.9532L8.22581 14.3636ZM13.4516 17.5455L13.1916 17.9725L13.4502 18.13L13.7095 17.9738L13.4516 17.5455ZM21.4853 13.1205C21.5518 12.8525 21.3885 12.5813 21.1205 12.5147L16.7531 11.4303C16.4851 11.3638 16.2139 11.5271 16.1474 11.7951C16.0808 12.0631 16.2441 12.3343 16.5121 12.4008L20.3942 13.3648L19.4303 17.2469C19.3638 17.5149 19.5271 17.7861 19.7951 17.8526C20.0631 17.9192 20.3343 17.7559 20.4008 17.4879L21.4853 13.1205ZM3.28559 18.4104L8.51139 14.7741L7.94022 13.9532L2.71441 17.5896L3.28559 18.4104ZM7.96578 14.7907L13.1916 17.9725L13.7116 17.1184L8.48583 13.9366L7.96578 14.7907ZM13.7095 17.9738L21.2579 13.4283L20.7421 12.5717L13.1937 17.1171L13.7095 17.9738Z" fill="white"/>
<path d="M1 1C1 0.723858 0.776142 0.5 0.5 0.5C0.223858 0.5 0 0.723858 0 1H1ZM0 1L0 21H1L1 1H0Z" fill="white"/>
<path d="M22 21C22.2761 21 22.5 20.7761 22.5 20.5C22.5 20.2239 22.2761 20 22 20V21ZM22 20L0 20V21L22 21V20Z" fill="white"/>
</svg>