<svg width="40" height="40" viewBox="0 0 40 40" fill="none" xmlns="http://www.w3.org/2000/svg">
<path d="M14.9131 22.9228L11.1108 25.6617C11.6264 26.7357 12.346 27.7239 13.2697 28.6261C14.1934 29.5283 15.2782 30.248 16.5242 30.785C17.7916 31.3005 19.1557 31.5583 20.6164 31.5583C21.669 31.5583 22.6894 31.3972 23.6775 31.075C24.6871 30.7742 25.5786 30.3231 26.352 29.7217C27.1468 29.1202 27.7697 28.3791 28.2208 27.4983C28.6934 26.5961 28.9297 25.5757 28.9297 24.4372C28.9297 23.492 28.7794 22.6542 28.4786 21.9239C28.1779 21.1935 27.759 20.5491 27.222 19.9905C26.7064 19.432 26.1049 18.9594 25.4175 18.5728C24.7301 18.1646 23.989 17.8102 23.1942 17.5094C22.1416 17.1442 21.2394 16.8005 20.4875 16.4783C19.7571 16.1561 19.1879 15.8017 18.7797 15.415C18.3931 15.0283 18.1997 14.5772 18.1997 14.0617C18.1997 13.5676 18.4038 13.1594 18.812 12.8372C19.2201 12.4935 19.8108 12.3217 20.5842 12.3217C21.1642 12.3217 21.7012 12.4398 22.1953 12.6761C22.7108 12.8909 23.1727 13.2024 23.5808 13.6105C24.0105 13.9972 24.3864 14.4591 24.7086 14.9961L28.8653 12.6761C28.4786 11.9028 27.9201 11.1402 27.1897 10.3883C26.4594 9.63647 25.5357 9.01351 24.4186 8.51943C23.3231 8.02536 22.0234 7.77832 20.5197 7.77832C19.059 7.77832 17.7271 8.0361 16.5242 8.55165C15.3427 9.04573 14.3975 9.7761 13.6886 10.7428C13.0012 11.7094 12.6575 12.8587 12.6575 14.1905C12.6575 15.3076 12.8616 16.2635 13.2697 17.0583C13.6779 17.8317 14.1934 18.4976 14.8164 19.0561C15.4394 19.5931 16.0945 20.0335 16.782 20.3772C17.4908 20.7209 18.1138 20.9894 18.6508 21.1828C19.7464 21.5909 20.6271 21.9561 21.2931 22.2783C21.959 22.6005 22.4423 22.9442 22.7431 23.3094C23.0438 23.6531 23.1942 24.115 23.1942 24.695C23.1942 25.3824 22.9364 25.9302 22.4208 26.3383C21.9053 26.725 21.2501 26.9183 20.4553 26.9183C19.7034 26.9183 18.9838 26.7572 18.2964 26.435C17.6305 26.1128 17.0075 25.6509 16.4275 25.0494C15.869 24.448 15.3642 23.7391 14.9131 22.9228Z" fill="#469A1F"/>
<circle cx="20" cy="20" r="18" stroke="#A266F4" stroke-width="4"/>
</svg>
