<svg width="103" height="30" viewBox="0 0 103 30" fill="none" xmlns="http://www.w3.org/2000/svg">
<path d="M36.696 17.608C36.952 18.056 37.2187 18.4507 37.496 18.792C37.784 19.1333 38.104 19.4 38.456 19.592C38.808 19.784 39.208 19.88 39.656 19.88C40.2533 19.88 40.7333 19.7147 41.096 19.384C41.4587 19.0533 41.64 18.632 41.64 18.12C41.64 17.6187 41.5227 17.2187 41.288 16.92C41.0533 16.6213 40.744 16.3813 40.36 16.2C39.9867 16.008 39.5867 15.8373 39.16 15.688C38.8827 15.592 38.5733 15.4693 38.232 15.32C37.8907 15.16 37.5653 14.9627 37.256 14.728C36.9467 14.4827 36.6907 14.184 36.488 13.832C36.296 13.48 36.2 13.048 36.2 12.536C36.2 11.9813 36.3387 11.4853 36.616 11.048C36.8933 10.6107 37.2773 10.2693 37.768 10.024C38.2587 9.768 38.8187 9.64 39.448 9.64C40.056 9.64 40.584 9.75733 41.032 9.992C41.4907 10.216 41.88 10.5093 42.2 10.872C42.52 11.224 42.7707 11.5973 42.952 11.992L41.784 12.664C41.6453 12.3867 41.4693 12.1147 41.256 11.848C41.0427 11.5813 40.7813 11.3627 40.472 11.192C40.1733 11.0213 39.8053 10.936 39.368 10.936C38.76 10.936 38.3173 11.0853 38.04 11.384C37.7627 11.672 37.624 11.9973 37.624 12.36C37.624 12.6693 37.704 12.9573 37.864 13.224C38.024 13.48 38.2907 13.7253 38.664 13.96C39.048 14.184 39.5653 14.408 40.216 14.632C40.5147 14.7387 40.8293 14.8773 41.16 15.048C41.4907 15.2187 41.7947 15.4373 42.072 15.704C42.36 15.96 42.5947 16.2747 42.776 16.648C42.9573 17.0107 43.048 17.448 43.048 17.96C43.048 18.4507 42.952 18.8933 42.76 19.288C42.5787 19.6827 42.3227 20.0187 41.992 20.296C41.672 20.5733 41.304 20.7867 40.888 20.936C40.4827 21.0853 40.056 21.16 39.608 21.16C39 21.16 38.4347 21.032 37.912 20.776C37.4 20.5093 36.9467 20.1627 36.552 19.736C36.168 19.2987 35.8533 18.8347 35.608 18.344L36.696 17.608ZM46.1656 24.52H44.8856V13.64H46.1656V24.52ZM52.3256 17.32C52.3256 18.1093 52.1603 18.792 51.8296 19.368C51.499 19.944 51.0563 20.3867 50.5016 20.696C49.9576 21.0053 49.3496 21.16 48.6776 21.16C48.0696 21.16 47.531 21.0053 47.0616 20.696C46.603 20.3867 46.2403 19.944 45.9736 19.368C45.7176 18.792 45.5896 18.1093 45.5896 17.32C45.5896 16.52 45.7176 15.8373 45.9736 15.272C46.2403 14.696 46.603 14.2533 47.0616 13.944C47.531 13.6347 48.0696 13.48 48.6776 13.48C49.3496 13.48 49.9576 13.6347 50.5016 13.944C51.0563 14.2533 51.499 14.696 51.8296 15.272C52.1603 15.8373 52.3256 16.52 52.3256 17.32ZM51.0296 17.32C51.0296 16.7547 50.9123 16.2747 50.6776 15.88C50.4536 15.4853 50.1496 15.1867 49.7656 14.984C49.3923 14.7813 48.9763 14.68 48.5176 14.68C48.1443 14.68 47.7763 14.7813 47.4136 14.984C47.051 15.1867 46.7523 15.4853 46.5176 15.88C46.283 16.2747 46.1656 16.7547 46.1656 17.32C46.1656 17.8853 46.283 18.3653 46.5176 18.76C46.7523 19.1547 47.051 19.4533 47.4136 19.656C47.7763 19.8587 48.1443 19.96 48.5176 19.96C48.9763 19.96 49.3923 19.8587 49.7656 19.656C50.1496 19.4533 50.4536 19.1547 50.6776 18.76C50.9123 18.3653 51.0296 17.8853 51.0296 17.32ZM53.4506 17.32C53.4506 16.5733 53.616 15.912 53.9466 15.336C54.288 14.76 54.7466 14.3067 55.3226 13.976C55.8986 13.6453 56.544 13.48 57.2586 13.48C57.984 13.48 58.6293 13.6453 59.1946 13.976C59.7706 14.3067 60.224 14.76 60.5546 15.336C60.896 15.912 61.0666 16.5733 61.0666 17.32C61.0666 18.056 60.896 18.7173 60.5546 19.304C60.224 19.88 59.7706 20.3333 59.1946 20.664C58.6293 20.9947 57.984 21.16 57.2586 21.16C56.544 21.16 55.8986 20.9947 55.3226 20.664C54.7466 20.3333 54.288 19.88 53.9466 19.304C53.616 18.7173 53.4506 18.056 53.4506 17.32ZM54.7466 17.32C54.7466 17.832 54.8533 18.2853 55.0666 18.68C55.2906 19.0747 55.5893 19.3893 55.9626 19.624C56.3466 19.848 56.7786 19.96 57.2586 19.96C57.7386 19.96 58.1653 19.848 58.5386 19.624C58.9226 19.3893 59.2213 19.0747 59.4346 18.68C59.6586 18.2853 59.7706 17.832 59.7706 17.32C59.7706 16.808 59.6586 16.3547 59.4346 15.96C59.2213 15.5547 58.9226 15.24 58.5386 15.016C58.1653 14.792 57.7386 14.68 57.2586 14.68C56.7786 14.68 56.3466 14.792 55.9626 15.016C55.5893 15.24 55.2906 15.5547 55.0666 15.96C54.8533 16.3547 54.7466 16.808 54.7466 17.32ZM64.105 13.64V21H62.825V13.64H64.105ZM66.329 15.048C66.1583 14.92 66.0037 14.8293 65.865 14.776C65.7263 14.712 65.5503 14.68 65.337 14.68C65.017 14.68 64.7663 14.76 64.585 14.92C64.4037 15.08 64.2757 15.2987 64.201 15.576C64.137 15.8533 64.105 16.168 64.105 16.52H63.529C63.529 15.9333 63.6303 15.416 63.833 14.968C64.0463 14.5093 64.3183 14.1467 64.649 13.88C64.9797 13.6133 65.3157 13.48 65.657 13.48C65.9237 13.48 66.169 13.5173 66.393 13.592C66.6277 13.656 66.841 13.7893 67.033 13.992L66.329 15.048ZM67.1894 13.64H70.8694V14.84H67.1894V13.64ZM68.3894 11.08H69.6694V21H68.3894V11.08ZM86.998 18.04L89.91 9.8H91.43L87.03 21.56L83.67 12.856L80.31 21.56L75.91 9.8H77.43L80.406 18.04L83.67 9.24L86.998 18.04ZM92.7938 10.6C92.7938 10.3547 92.8791 10.1467 93.0498 9.976C93.2311 9.80533 93.4391 9.72 93.6738 9.72C93.9191 9.72 94.1271 9.80533 94.2978 9.976C94.4684 10.1467 94.5538 10.3547 94.5538 10.6C94.5538 10.8347 94.4684 11.0427 94.2978 11.224C94.1271 11.3947 93.9191 11.48 93.6738 11.48C93.4391 11.48 93.2311 11.3947 93.0498 11.224C92.8791 11.0427 92.7938 10.8347 92.7938 10.6ZM93.0338 13.64H94.3138V21H93.0338V13.64ZM100.87 13.64H102.31L99.798 17.208L102.47 21H101.03L99.11 18.216L97.19 21H95.75L98.422 17.208L95.91 13.64H97.35L99.11 16.2L100.87 13.64Z" fill="white"/>
<path d="M11.1847 17.1923L8.33301 19.2465C8.71967 20.052 9.2594 20.7932 9.95217 21.4698C10.645 22.1465 11.4586 22.6862 12.393 23.089C13.3436 23.4757 14.3666 23.669 15.4622 23.669C16.2516 23.669 17.0169 23.5482 17.758 23.3065C18.5152 23.0809 19.1838 22.7426 19.7638 22.2915C20.36 21.8404 20.8272 21.2845 21.1655 20.624C21.52 19.9473 21.6972 19.182 21.6972 18.3282C21.6972 17.6193 21.5844 16.9909 21.3588 16.4432C21.1333 15.8954 20.8191 15.412 20.4163 14.9932C20.0297 14.5743 19.5786 14.2198 19.063 13.9298C18.5475 13.6237 17.9916 13.3579 17.3955 13.1323C16.6061 12.8584 15.9294 12.6007 15.3655 12.359C14.8177 12.1173 14.3908 11.8515 14.0847 11.5615C13.7947 11.2715 13.6497 10.9332 13.6497 10.5465C13.6497 10.1759 13.8027 9.86982 14.1088 9.62815C14.415 9.37037 14.858 9.24148 15.438 9.24148C15.873 9.24148 16.2758 9.3301 16.6463 9.50732C17.033 9.66843 17.3794 9.90204 17.6855 10.2082C18.0077 10.4982 18.2897 10.8445 18.5313 11.2473L21.6488 9.50732C21.3588 8.92732 20.94 8.35537 20.3922 7.79148C19.8444 7.2276 19.1516 6.76037 18.3138 6.38982C17.4922 6.01926 16.5175 5.83398 15.3897 5.83398C14.2941 5.83398 13.2952 6.02732 12.393 6.41398C11.5069 6.78454 10.798 7.33232 10.2663 8.05732C9.75079 8.78232 9.49301 9.64426 9.49301 10.6432C9.49301 11.4809 9.64606 12.1979 9.95217 12.794C10.2583 13.374 10.645 13.8734 11.1122 14.2923C11.5794 14.6951 12.0708 15.0254 12.5863 15.2832C13.118 15.5409 13.5852 15.7423 13.988 15.8873C14.8097 16.1934 15.4702 16.4673 15.9697 16.709C16.4691 16.9507 16.8316 17.2084 17.0572 17.4823C17.2827 17.7401 17.3955 18.0865 17.3955 18.5215C17.3955 19.037 17.2022 19.4479 16.8155 19.754C16.4288 20.044 15.9375 20.189 15.3413 20.189C14.7775 20.189 14.2377 20.0682 13.7222 19.8265C13.2227 19.5848 12.7555 19.2384 12.3205 18.7873C11.9016 18.3362 11.523 17.8045 11.1847 17.1923Z" fill="#469A1F"/>
<circle cx="15" cy="15" r="13" stroke="#A266F4" stroke-width="4"/>
</svg>
