<svg width="16" height="17" viewBox="0 0 16 17" fill="none" xmlns="http://www.w3.org/2000/svg">
<path opacity="0.7" d="M0.77 3.9C0.77 3.24 0.909333 2.646 1.188 2.118C1.48133 1.59 1.892 1.172 2.42 0.863999C2.948 0.541333 3.55667 0.379999 4.246 0.379999C4.95 0.379999 5.55867 0.541333 6.072 0.863999C6.6 1.172 7.00333 1.59 7.282 2.118C7.57533 2.646 7.722 3.24 7.722 3.9C7.722 4.54533 7.57533 5.13933 7.282 5.682C7.00333 6.21 6.6 6.63533 6.072 6.958C5.55867 7.266 4.95 7.42 4.246 7.42C3.55667 7.42 2.948 7.266 2.42 6.958C1.892 6.63533 1.48133 6.21 1.188 5.682C0.909333 5.13933 0.77 4.54533 0.77 3.9ZM2.332 3.9C2.332 4.26667 2.40533 4.61133 2.552 4.934C2.71333 5.25667 2.93333 5.51333 3.212 5.704C3.50533 5.89467 3.85 5.99 4.246 5.99C4.65667 5.99 5.00133 5.89467 5.28 5.704C5.55867 5.51333 5.77133 5.25667 5.918 4.934C6.07933 4.61133 6.16 4.26667 6.16 3.9C6.16 3.51867 6.07933 3.174 5.918 2.866C5.77133 2.54333 5.55867 2.28667 5.28 2.096C5.00133 1.90533 4.65667 1.81 4.246 1.81C3.85 1.81 3.50533 1.90533 3.212 2.096C2.93333 2.28667 2.71333 2.54333 2.552 2.866C2.40533 3.174 2.332 3.51867 2.332 3.9ZM8.8 12.7C8.8 12.04 8.93933 11.446 9.218 10.918C9.51133 10.39 9.922 9.972 10.45 9.664C10.978 9.34133 11.5867 9.18 12.276 9.18C12.98 9.18 13.5887 9.34133 14.102 9.664C14.63 9.972 15.0333 10.39 15.312 10.918C15.6053 11.446 15.752 12.04 15.752 12.7C15.752 13.3453 15.6053 13.9393 15.312 14.482C15.0333 15.01 14.63 15.4353 14.102 15.758C13.5887 16.066 12.98 16.22 12.276 16.22C11.5867 16.22 10.978 16.066 10.45 15.758C9.922 15.4353 9.51133 15.01 9.218 14.482C8.93933 13.9393 8.8 13.3453 8.8 12.7ZM10.362 12.7C10.362 13.0667 10.4353 13.4113 10.582 13.734C10.7433 14.0567 10.9633 14.3133 11.242 14.504C11.5353 14.6947 11.88 14.79 12.276 14.79C12.6867 14.79 13.0313 14.6947 13.31 14.504C13.5887 14.3133 13.8013 14.0567 13.948 13.734C14.1093 13.4113 14.19 13.0667 14.19 12.7C14.19 12.3187 14.1093 11.974 13.948 11.666C13.8013 11.3433 13.5887 11.0867 13.31 10.896C13.0313 10.7053 12.6867 10.61 12.276 10.61C11.88 10.61 11.5353 10.7053 11.242 10.896C10.9633 11.0867 10.7433 11.3433 10.582 11.666C10.4353 11.974 10.362 12.3187 10.362 12.7ZM12.386 0.599999H14.036L4.136 16H2.486L12.386 0.599999Z" fill="#EEEEEE"/>
</svg>
