<svg width="22" height="22" viewBox="0 0 22 22" fill="none" xmlns="http://www.w3.org/2000/svg">
<path fill-rule="evenodd" clip-rule="evenodd" d="M2 1H15.8095C16.3618 1 16.8095 1.44772 16.8095 2V8.75567C17.1583 8.88212 17.4926 9.03856 17.8095 9.22187V2C17.8095 0.895431 16.9141 0 15.8095 0H2C0.89543 0 0 0.895433 0 2V16.8571C0 17.9617 0.895432 18.8571 2 18.8571H9.98149C9.7062 18.5496 9.46075 18.2147 9.2497 17.8571H2C1.44772 17.8571 1 17.4094 1 16.8571V2C1 1.44772 1.44772 1 2 1Z" fill="#333333"/>
<circle cx="15.1904" cy="15.1905" r="6.30952" stroke="#333333"/>
<rect x="14.667" y="11.5238" width="1.04762" height="7.33333" rx="0.52381" fill="#333333"/>
<rect x="18.8574" y="14.6667" width="1.04762" height="7.33333" rx="0.52381" transform="rotate(90 18.8574 14.6667)" fill="#333333"/>
<rect x="14.667" y="4.19049" width="1.04762" height="11.5238" rx="0.52381" transform="rotate(90 14.667 4.19049)" fill="#333333"/>
<rect x="8.38086" y="7.33331" width="1.04762" height="5.2381" rx="0.52381" transform="rotate(90 8.38086 7.33331)" fill="#333333"/>
</svg>