<svg width="36" height="36" viewBox="0 0 36 36" fill="none" xmlns="http://www.w3.org/2000/svg">
<rect width="36" height="36" fill="#3A5044"/>
<path d="M14.7178 19.6071V26.6429C14.7178 27.5952 14.8361 28.3333 15.0729 28.8571C15.3097 29.381 15.5819 29.7619 15.8897 30C16.1975 30.2381 16.4816 30.381 16.7421 30.4286C17.0025 30.4524 17.1682 30.4643 17.2393 30.4643V31H9V30.4643C9.07103 30.4643 9.23676 30.4524 9.4972 30.4286C9.75763 30.381 10.0417 30.2381 10.3495 30C10.6573 29.7619 10.9296 29.381 11.1664 28.8571C11.4031 28.3333 11.5215 27.5952 11.5215 26.6429V10.3571C11.5215 9.28572 11.2729 8.38095 10.7757 7.64286C10.3022 6.90476 9.71028 6.53571 9 6.53571V6H19.5477C20.7315 6 21.8324 6.19048 22.8505 6.57143C23.8922 6.92857 24.7919 7.42857 25.5495 8.07143C26.3072 8.71429 26.8991 9.47619 27.3252 10.3571C27.7751 11.2381 28 12.1905 28 13.2143C28 14.2619 27.7751 15.2619 27.3252 16.2143C26.8754 17.1667 26.2716 18.0119 25.514 18.75C24.7564 19.4881 23.8804 20.0714 22.886 20.5C21.8916 20.9286 20.8498 21.1429 19.7607 21.1429C18.1271 21.1429 16.4461 20.631 14.7178 19.6071ZM14.7178 18.8571C16.2093 19.4524 17.5115 19.75 18.6243 19.75C19.453 19.75 20.1988 19.5952 20.8617 19.2857C21.5246 18.9524 22.0928 18.5119 22.5664 17.9643C23.0399 17.3929 23.4069 16.7262 23.6673 15.9643C23.9277 15.1786 24.0579 14.3214 24.0579 13.3929C24.0579 12.3929 23.904 11.4881 23.5963 10.6786C23.3121 9.86905 22.9097 9.16667 22.3888 8.57143C21.8916 7.97619 21.2878 7.52381 20.5776 7.21429C19.891 6.88095 19.1452 6.71429 18.3402 6.71429C17.1801 6.71429 16.2804 7.03572 15.6411 7.67857C15.0255 8.32143 14.7178 9.21429 14.7178 10.3571V18.8571Z" fill="#EDF1EE"/>
</svg>
