<svg width="22" height="20" viewBox="0 0 22 20" fill="none" xmlns="http://www.w3.org/2000/svg">
<rect x="0.5" y="2.59477" width="21" height="16.6" rx="1.5" stroke="#333333"/>
<rect x="11.5239" y="7.59477" width="1.04762" height="1.04762" rx="0.52381" transform="rotate(90 11.5239 7.59477)" fill="#333333"/>
<rect x="11.5239" y="13.0426" width="1.04762" height="1.04762" rx="0.52381" transform="rotate(90 11.5239 13.0426)" fill="#333333"/>
<path fill-rule="evenodd" clip-rule="evenodd" d="M17.3619 8.11809C17.3619 7.8288 17.1274 7.59428 16.8381 7.59428C16.5488 7.59428 16.3143 7.8288 16.3143 8.11809V8.61321L14.3441 9.33337C14.0724 9.43269 13.9327 9.73347 14.032 10.0052C14.1313 10.2769 14.4321 10.4166 14.7038 10.3173L16.3143 9.72862L16.3143 13.6705C16.3143 13.9598 16.5488 14.1943 16.8381 14.1943C17.1274 14.1943 17.3619 13.9598 17.3619 13.6705L17.3619 8.11809Z" fill="#333333"/>
<rect x="7.33325" width="5.2381" height="1.04762" rx="0.52381" transform="rotate(90 7.33325 0)" fill="#333333"/>
<rect x="15.7144" width="5.2381" height="1.04762" rx="0.52381" transform="rotate(90 15.7144 0)" fill="#333333"/>
<path d="M3.5 9.47193C3.5 9.74807 3.72386 9.97193 4 9.97193C4.27614 9.97193 4.5 9.74807 4.5 9.47193H3.5ZM7.14286 8.36969L6.72814 8.64899L7.14286 8.36969ZM4 13.8809L3.70636 13.4762C3.53099 13.6035 3.45753 13.8292 3.52442 14.0353C3.59131 14.2414 3.78333 14.3809 4 14.3809V13.8809ZM8.19048 14.3809C8.46662 14.3809 8.69048 14.1571 8.69048 13.8809C8.69048 13.6048 8.46662 13.3809 8.19048 13.3809V14.3809ZM4.5 9.47193C4.5 8.86447 4.88532 8.37433 5.36514 8.18136C5.8156 8.00019 6.34469 8.07963 6.72814 8.64899L7.55758 8.09039C6.8934 7.1042 5.85107 6.90808 4.992 7.25358C4.1623 7.58727 3.5 8.42603 3.5 9.47193H4.5ZM6.72814 8.64899C6.97527 9.01595 6.99042 9.45072 6.79882 9.97471C6.60339 10.5092 6.21056 11.076 5.74329 11.6099C5.28084 12.1383 4.77073 12.6061 4.373 12.9439C4.1749 13.112 4.00647 13.2464 3.88825 13.3383C3.82918 13.3842 3.78275 13.4194 3.75155 13.4427C3.73596 13.4544 3.72418 13.4631 3.71653 13.4688C3.71271 13.4716 3.70993 13.4736 3.70822 13.4749C3.70736 13.4755 3.70678 13.4759 3.70647 13.4762C3.70631 13.4763 3.70622 13.4763 3.70621 13.4763C3.7062 13.4764 3.70624 13.4763 3.70623 13.4763C3.70629 13.4763 3.70636 13.4762 4 13.8809C4.29364 14.2856 4.29375 14.2855 4.29387 14.2855C4.29394 14.2854 4.29408 14.2853 4.29421 14.2852C4.29448 14.285 4.29481 14.2848 4.29521 14.2845C4.29601 14.2839 4.29709 14.2831 4.29844 14.2821C4.30115 14.2801 4.30495 14.2774 4.30979 14.2738C4.31949 14.2666 4.33338 14.2563 4.35115 14.243C4.38669 14.2164 4.43776 14.1777 4.50174 14.128C4.62962 14.0286 4.80949 13.8851 5.02023 13.7061C5.44016 13.3496 5.98982 12.8466 6.49579 12.2685C6.99694 11.6959 7.48117 11.0205 7.738 10.3181C7.99866 9.6053 8.04126 8.80859 7.55758 8.09039L6.72814 8.64899ZM4 14.3809H8.19048V13.3809H4V14.3809Z" fill="#333333"/>
</svg>