<svg width="22" height="24" viewBox="0 0 22 24" fill="none" xmlns="http://www.w3.org/2000/svg">
<path d="M17.6666 23H4.33325M4.67757 12.878L10.3442 17.799C10.7203 18.1256 11.2795 18.1256 11.6556 17.799L17.3223 12.878C17.541 12.688 17.6666 12.4126 17.6666 12.1229V2C17.6666 1.44772 17.2189 1 16.6666 1H5.33325C4.78097 1 4.33325 1.44771 4.33325 2V12.1229C4.33325 12.4126 4.45886 12.688 4.67757 12.878Z" stroke="#A266F4" stroke-linecap="round"/>
<path d="M8.77799 16.0527L7.11133 23.0001" stroke="#A266F4"/>
<path d="M13.2222 16.0527L14.8889 23.0001" stroke="#A266F4"/>
<path d="M4.33333 10.2631C2.49238 10.2631 1 8.96709 1 7.36837C1 5.76965 2.49238 4.47363 4.33333 4.47363" stroke="#A266F4"/>
<path d="M17.6664 10.2631C19.5074 10.2631 20.9998 8.96709 20.9998 7.36837C20.9998 5.76965 19.5074 4.47363 17.6664 4.47363" stroke="#A266F4"/>
</svg>
