<svg width="24" height="24" viewBox="0 0 24 24" fill="none" xmlns="http://www.w3.org/2000/svg">
<path fill-rule="evenodd" clip-rule="evenodd" d="M3 12.3778C3 12.2296 3.04043 12.0678 3.12129 11.9196C7.89224 3.21327 18.2563 4.88445 21.949 11.9196C22.0299 12.0678 22.0703 12.2296 22.0703 12.3778C22.0703 12.5665 22.0299 12.7282 21.949 12.8765C17.4476 20.8954 7.35315 20.5181 3.12129 12.8765C3.04043 12.7282 3 12.5261 3 12.3778ZM12.5419 9.12978C14.3344 9.12978 15.7899 10.5853 15.7899 12.3778C15.7899 14.1703 14.3344 15.6663 12.5419 15.6663C10.7494 15.6663 9.25347 14.1703 9.25347 12.3778C9.25347 11.8791 9.37474 11.4209 9.56342 11.0031C9.83296 11.3131 10.2508 11.5422 10.6686 11.5422C11.4772 11.5422 12.1241 10.8953 12.1241 10.0867C12.1241 9.73628 12.0028 9.43979 11.8141 9.21068C12.0567 9.12982 12.2859 9.12978 12.5419 9.12978ZM12.5149 7.60688C15.1834 7.60688 17.3263 9.74974 17.3263 12.3778C17.3263 15.0059 15.1834 17.1488 12.5149 17.1488C9.8734 17.1488 7.74402 15.0059 7.74402 12.3778C7.74402 9.74974 9.8734 7.60688 12.5149 7.60688Z" fill="#999999"/>
</svg>