<svg width="24" height="24" viewBox="0 0 24 24" fill="none" xmlns="http://www.w3.org/2000/svg">
<path d="M18.1305 15.3743L18.1536 15.3546C19.253 14.4171 20.1572 13.2677 20.8136 11.9733C20.8869 11.8265 20.9251 11.6643 20.9251 11.4998C20.9251 11.3354 20.8869 11.1732 20.8136 11.0264C19.038 7.52086 15.5234 5.14984 11.4999 5.14983C9.81477 5.15189 8.15697 5.58118 6.67795 6.39848L6.66362 6.4064L6.65072 6.39632L2.47633 3.13149L2.47626 3.13144C2.42439 3.09059 2.36509 3.0605 2.30175 3.04288C2.23842 3.02525 2.17228 3.02043 2.1071 3.02868C2.04193 3.03693 1.97899 3.05809 1.92188 3.09098C1.86477 3.12386 1.8146 3.16782 1.77426 3.22036C1.77426 3.22036 1.77425 3.22036 1.77425 3.22036L1.13015 4.05939L1.13014 4.0594C1.04868 4.16544 1.01215 4.29994 1.02864 4.4333C1.04514 4.56664 1.11329 4.68783 1.218 4.77024C1.21801 4.77024 1.21801 4.77025 1.21802 4.77026L20.5235 19.8685L20.5235 19.8686C20.5754 19.9094 20.6347 19.9395 20.698 19.9571C20.7614 19.9748 20.8275 19.9796 20.8927 19.9713C20.9579 19.9631 21.0208 19.9419 21.0779 19.909C21.135 19.8761 21.1852 19.8322 21.2255 19.7796L21.87 18.9406C21.9514 18.8345 21.9879 18.7 21.9713 18.5666C21.9548 18.4333 21.8866 18.3122 21.7818 18.2298L18.1305 15.3743ZM18.1305 15.3743L18.1544 15.3929L21.7818 18.2298L18.1305 15.3743ZM11.4999 16.306L11.5001 16.306C11.7843 16.3033 12.0676 16.2749 12.3467 16.221L14.0009 17.5162C13.1966 17.7229 12.363 17.8502 11.4999 17.8502C7.4764 17.8502 3.96179 15.4792 2.18623 11.9736C2.11291 11.8268 2.07471 11.6647 2.07471 11.5002C2.07471 11.3357 2.11292 11.1735 2.18625 11.0267C2.5175 10.372 2.92728 9.77236 3.37318 9.20455L6.78714 11.8744C6.97857 14.3519 9.00126 16.306 11.4999 16.306ZM15.7535 13.515L15.7649 13.5004L15.7912 13.5063C16.0751 12.8952 16.2496 12.2223 16.2496 11.5C16.25 10.8688 16.1274 10.2438 15.8888 9.66053C15.6503 9.0773 15.3005 8.54736 14.8593 8.101C14.4182 7.65464 13.8945 7.30062 13.318 7.0592C12.7416 6.81777 12.1238 6.69369 11.4999 6.69404C10.4006 6.69486 9.33651 7.086 8.49306 7.79923L8.46981 7.81889L8.49379 7.83765L10.9091 9.72656L10.9387 9.7497L10.9483 9.71338C10.9775 9.60317 10.9947 9.49008 10.9996 9.3761L10.9997 9.3761L10.9997 9.37498C10.9991 9.04438 10.8977 8.72229 10.7099 8.45245C11.1629 8.32419 11.6391 8.30246 12.1019 8.38911C12.5762 8.4779 13.0233 8.678 13.4073 8.97338C13.7914 9.26875 14.1016 9.65117 14.3131 10.0899C14.5246 10.5287 14.6315 11.0115 14.6251 11.4997C14.6207 11.8331 14.5636 12.1637 14.4558 12.4788L14.4501 12.4954L14.464 12.5063L15.7535 13.515Z" fill="#999999" stroke="#999999" stroke-width="0.049525"/>
</svg>