<svg width="60" height="60" viewBox="0 0 60 60" fill="none" xmlns="http://www.w3.org/2000/svg">
<rect width="60" height="60" rx="30" fill="white"/>
<g clip-path="url(#clip0_127_1267)">
<path d="M39.5772 28.5091C38.8772 29.0772 38.2838 29.3938 38.2838 29.3938L38.2919 31.1944C38.7922 31.7338 39.2858 32.1807 39.6554 32.995C40.3567 31.7755 40.2218 29.9827 39.5772 28.5091ZM39.008 34.4034C39.008 34.4034 38.8651 33.6608 38.2568 32.9676L36.869 33.0002C36.869 33.0002 34.9983 34.5533 33.8573 34.5898C33.8573 34.5898 34.4858 35.7194 34.8041 36.3096C35.4313 36.1767 36.5358 35.6985 36.9809 35.1982C36.9809 35.1982 37.2749 36.1142 37.2196 37.1956C37.8441 36.8464 38.7046 35.8979 39.008 34.4034ZM37.2196 31.1514L37.217 29.3573C37.217 29.3573 36.3876 29.1007 35.5028 28.4375C33.7253 28.6968 31.5727 30.4244 31.5727 30.4244C31.5727 30.4244 32.2997 31.7573 33.0954 33.1957C34.494 33.3846 36.5547 31.6778 37.2196 31.1514ZM41.9604 38.6223L40.8167 37.3988C40.4903 40.7056 38.8139 43.5134 35.7348 45.4716L35.2641 43.6879C32.6503 45.512 28.1646 46.695 24.3113 44.5895C24.7901 42.2313 25.2149 39.8418 24.3032 36.9806C22.1696 40.1727 20.2814 41.4235 20.2814 41.4235C18.8396 39.0848 18.9691 34.393 19.3993 33.012L17 33.7299C17 32.1534 18.1747 28.8088 19.8768 26.93L18.3784 26.6981H18.3769C19.3952 24.6877 20.9151 22.9549 22.775 21.6533L22.7776 21.6518C22.2192 22.5039 22.2111 24.6068 23.8471 25.4068C23.1525 24.2302 23.0689 22.7762 23.7945 22.0231C24.5201 21.2635 25.7407 21.5241 26.5202 22.113C26.2883 21.4564 25.6085 20.6303 24.5903 20.5743H24.5888C26.512 19.618 28.6956 19.0799 31.0059 19.0799C31.4375 19.0799 31.8677 19.0981 32.2885 19.1346C32.9602 19.3952 33.9461 20.3098 34.406 20.8792C34.406 20.8792 34.4383 20.2082 34.0526 19.3978C36.5545 19.9867 37.7481 20.9704 38.2484 21.4446C38.3509 22.4896 38.6746 23.1163 39.1021 24.1091C38.2916 23.2322 36.255 21.8173 35.2826 21.4785C35.2826 21.4785 35.2031 22.384 34.8686 22.8192C32.9318 21.4694 31.981 21.1293 31.981 21.1293C29.8555 21.4238 28.4879 22.2159 27.7447 22.8387L28.3921 23.3716C27.1108 23.7521 26.2787 24.8152 26.2787 24.8152C26.2881 24.8348 27.4237 24.9911 27.4237 24.9911C27.4237 24.9911 27.3078 26.2797 28.9774 27.0875C30.4084 27.7793 32.4652 26.9207 34.4019 27.6712C33.1288 26.251 32.248 25.6165 32.248 25.6165C32.248 25.6165 31.7423 25.5149 31.3862 25.5175C30.9412 25.5201 30.2776 25.6048 29.5506 25.3312C29.2027 25.1996 28.7967 24.9677 28.4784 24.7748C28.4784 24.7748 29.3726 23.8876 30.6795 23.6921C30.6795 23.6921 31.8583 24.0126 32.7916 24.6797C33.412 24.096 34.0594 24.1143 34.0594 24.1143C34.0594 24.1143 33.4174 24.6928 33.6116 25.3937C34.5435 26.1963 35.5551 27.3455 35.5551 27.3455C36.5855 26.8009 38.8257 26.9259 39.2856 27.4419C38.7029 26.711 37.8627 26.1012 37.2126 25.58C37.133 25.3064 36.4236 24.3527 36.3036 24.2641C36.3036 24.2641 36.9779 24.4648 37.5808 24.9872C37.7534 24.7488 38.0771 24.5064 38.5182 24.3996C38.9713 24.767 39.0522 25.3312 39.0401 25.425C38.8365 25.6608 38.6341 25.7572 38.6341 25.7572L39.7266 26.8999L39.8358 26.0804C42.3525 29.5526 43.7241 33.5707 41.96 38.6221M22.0856 16.6475C23.5368 17.2898 24.4687 18.1002 24.6387 18.224C24.5618 17.8618 24.2759 16.1185 24.1113 15.0358C24.957 15.6026 26.9193 16.9185 27.5654 17.3459C27.8284 16.5628 28.7401 14.0052 28.7401 14.0052C28.7401 14.0052 30.3882 16.5824 30.6701 17.0006C31.014 16.6527 32.9831 14.5355 33.4929 14C33.5779 15.2182 33.6939 16.9602 33.7235 17.2221C33.822 17.0931 34.5759 16.0716 35.8396 15.1309C35.2921 16.1732 35.0304 17.6116 34.9144 18.7673C33.6709 18.4325 32.3586 18.2527 31.0072 18.2527C28.411 18.2527 25.9725 18.9119 23.8645 20.0702C23.4815 18.9536 22.8813 17.5647 22.0856 16.6475Z" fill="#3D195B"/>
</g>
<defs>
<clipPath id="clip0_127_1267">
<rect width="26" height="32" fill="white" transform="translate(17 14)"/>
</clipPath>
</defs>
</svg>
