<svg width="18" height="21" viewBox="0 0 18 21" fill="none" xmlns="http://www.w3.org/2000/svg">
<circle cx="9" cy="14.5" r="5.5" stroke="#333333"/>
<rect x="10.0476" y="11" width="6.6" height="1.04762" rx="0.52381" transform="rotate(90 10.0476 11)" fill="#333333"/>
<rect x="10.135" y="12.8884" width="2.95515" height="1.04762" rx="0.52381" transform="rotate(159.921 10.135 12.8884)" fill="#333333"/>
<path fill-rule="evenodd" clip-rule="evenodd" d="M4.7215 1.5H13.2786L10.5319 8.82444L11.4682 9.17556L14.1543 2.01271L16.6629 5.23804C16.795 5.40792 16.8036 5.64329 16.6842 5.82236L13.0841 11.2226L13.9161 11.7774L17.5163 6.37706C17.8744 5.83985 17.8486 5.13374 17.4523 4.6241L14.695 1.07909C14.4108 0.713709 13.9739 0.5 13.511 0.5H4.48916C4.02628 0.5 3.58932 0.713709 3.30514 1.07909L0.547908 4.6241C0.15152 5.13374 0.125721 5.83985 0.483861 6.37706L4.08406 11.7774L4.91611 11.2226L1.31591 5.82236C1.19653 5.64329 1.20513 5.40792 1.33726 5.23804L3.84579 2.01278L6.53184 9.17556L7.46816 8.82444L4.7215 1.5Z" fill="#333333"/>
<path d="M6 5.5H12" stroke="#333333"/>
</svg>
