<svg width="22" height="22" viewBox="0 0 22 22" fill="none" xmlns="http://www.w3.org/2000/svg">
<path d="M6.52652 15.4736L2.10547 19.8947" stroke="#A266F4" stroke-linecap="round"/>
<path d="M11.8982 20.2929L1.70711 10.1018C1.31658 9.71132 1.31658 9.07815 1.70711 8.68763L2.59263 7.80211C4.15472 6.24001 6.68738 6.24001 8.24948 7.80211L8.73684 8.28947L11.9816 1.33639C12.2805 0.695852 13.1315 0.55918 13.616 1.07391L20.4415 8.32598C20.9246 8.83932 20.7392 9.67801 20.0847 9.93982L13.1579 12.7105L14.1979 13.7505C15.76 15.3126 15.76 17.8453 14.1979 19.4074L13.3124 20.2929C12.9218 20.6834 12.2887 20.6834 11.8982 20.2929Z" stroke="#A266F4"/>
</svg>
