<svg width="32" height="32" viewBox="0 0 32 32" fill="none" xmlns="http://www.w3.org/2000/svg">
<path fill-rule="evenodd" clip-rule="evenodd" d="M5.60629 15.6018C5.60629 9.64126 10.4381 4.81012 16.3977 4.81012C22.3581 4.80987 27.1898 9.64126 27.1898 15.6018C27.1898 21.5623 22.3581 26.3935 16.3977 26.3935C10.4381 26.3935 5.60629 21.5623 5.60629 15.6018Z" fill="white"/>
<mask id="mask0_371_27136" style="mask-type:luminance" maskUnits="userSpaceOnUse" x="4" y="3" width="25" height="26">
<path d="M28.8 3.19995H4V28.0035H28.8V3.19995Z" fill="white"/>
</mask>
<g mask="url(#mask0_371_27136)">
<path d="M3.99673 15.6016C3.99673 12.1769 5.38488 9.07656 7.62907 6.83224C9.87338 4.58786 12.9739 3.19974 16.3982 3.19974H16.3986C19.8231 3.19974 22.9234 4.5878 25.1678 6.83206C27.4082 9.07237 28.7941 12.1724 28.7941 15.6012H28.8004V15.6016C28.8004 19.0263 27.4122 22.1267 25.1678 24.371C22.9234 26.6154 19.8228 28.0034 16.3982 28.0034C12.9739 28.0034 9.87338 26.6153 7.62907 24.3709C5.38488 22.1266 3.99673 19.0262 3.99673 15.6016ZM9.90587 9.10911C8.24452 10.7705 7.21692 13.0659 7.21692 15.6016C7.21692 18.1372 8.24452 20.4327 9.90587 22.0941C11.5673 23.7555 13.8628 24.7831 16.3982 24.7831C18.934 24.7831 21.2296 23.7555 22.8911 22.0941C24.5526 20.4328 25.5802 18.1372 25.5802 15.6016V15.6012H25.5865C25.5865 13.0698 24.5564 10.7741 22.8911 9.10886C21.2296 7.44753 18.9342 6.42002 16.3986 6.42002H16.3982C13.8628 6.42002 11.5673 7.44765 9.90587 9.10911Z" fill="#EE2227"/>
</g>
<path fill-rule="evenodd" clip-rule="evenodd" d="M7.73628 15.6015C7.73628 10.8175 11.6138 6.93958 16.3977 6.93958C21.1816 6.93958 25.0592 10.8175 25.0592 15.6015C25.0592 20.3856 21.1816 24.2632 16.3977 24.2632C11.6138 24.2632 7.73628 20.3856 7.73628 15.6015Z" fill="#211E1F"/>
<path d="M7.73628 15.6015C7.73628 10.8175 11.6138 6.93958 16.3977 6.93958C21.1816 6.93958 25.0592 10.8175 25.0592 15.6015C25.0592 20.3856 21.1816 24.2632 16.3977 24.2632C11.6138 24.2632 7.73628 20.3856 7.73628 15.6015Z" stroke="#211E1F" stroke-width="0.334662" stroke-miterlimit="3.864"/>
<path fill-rule="evenodd" clip-rule="evenodd" d="M16.0104 8.66015C16.0104 8.66015 16.1187 8.66015 16.2092 8.51553C16.3167 8.34421 16.3543 8.20792 16.3543 8.20792C16.3543 8.20792 16.4289 8.40919 16.5531 8.5334C16.6773 8.65817 16.7517 8.67852 16.7517 8.67852C16.7517 8.67852 16.5932 8.69713 16.4689 8.78566C16.3447 8.87412 16.3447 8.96332 16.3447 8.96332C16.3447 8.96332 16.3447 8.90987 16.2555 8.80353C16.1671 8.69713 16.0104 8.66015 16.0104 8.66015Z" fill="white"/>
<path d="M16.0104 8.66015C16.0104 8.66015 16.1187 8.66015 16.2092 8.51553C16.3167 8.34421 16.3543 8.20792 16.3543 8.20792C16.3543 8.20792 16.4289 8.40919 16.5531 8.5334C16.6773 8.65817 16.7517 8.67852 16.7517 8.67852C16.7517 8.67852 16.5932 8.69713 16.4689 8.78566C16.3447 8.87412 16.3447 8.96332 16.3447 8.96332C16.3447 8.96332 16.3447 8.90987 16.2555 8.80353C16.1671 8.69713 16.0104 8.66015 16.0104 8.66015Z" stroke="white" stroke-width="0.166461" stroke-miterlimit="3.864"/>
<path fill-rule="evenodd" clip-rule="evenodd" d="M15.5811 11.146C15.5811 10.8129 15.8519 10.5428 16.1851 10.5428C16.5182 10.5428 16.7883 10.8129 16.7883 11.146C16.7883 11.4792 16.5182 11.7498 16.1851 11.7498C15.8519 11.7498 15.5811 11.4792 15.5811 11.146Z" fill="white"/>
<path d="M15.5811 11.146C15.5811 10.8129 15.8519 10.5428 16.1851 10.5428C16.5182 10.5428 16.7883 10.8129 16.7883 11.146C16.7883 11.4792 16.5182 11.7498 16.1851 11.7498C15.8519 11.7498 15.5811 11.4792 15.5811 11.146Z" stroke="white" stroke-width="0.166461" stroke-miterlimit="3.864"/>
<path fill-rule="evenodd" clip-rule="evenodd" d="M14.8181 9.10494C15.2087 8.76805 15.4354 8.72089 15.6882 8.75017C15.9895 8.78593 16.2851 8.94263 16.2206 9.0878C16.1493 9.24703 16.1493 9.06993 15.8653 9.05223C15.5811 9.03436 15.6347 9.01648 15.5105 9.1407C15.3862 9.26491 15.4163 9.36743 15.2621 9.49602C15.0487 9.67313 15.0487 9.56673 14.836 9.63756C14.6397 9.70308 14.5162 9.81522 14.4984 9.95731C14.4812 10.0992 14.6054 10.454 14.6054 10.454C14.6054 10.454 14.3391 10.4361 14.2678 10.2234C14.1972 10.0107 14.1053 9.98832 14.2678 9.691C14.4812 9.30048 14.4278 9.44257 14.8181 9.10494Z" fill="white"/>
<path d="M14.8181 9.10494C15.2087 8.76805 15.4354 8.72089 15.6882 8.75017C15.9895 8.78593 16.2851 8.94263 16.2206 9.0878C16.1493 9.24703 16.1493 9.06993 15.8653 9.05223C15.5811 9.03436 15.6347 9.01648 15.5105 9.1407C15.3862 9.26491 15.4163 9.36743 15.2621 9.49602C15.0487 9.67313 15.0487 9.56673 14.836 9.63756C14.6397 9.70308 14.5162 9.81522 14.4984 9.95731C14.4812 10.0992 14.6054 10.454 14.6054 10.454C14.6054 10.454 14.3391 10.4361 14.2678 10.2234C14.1972 10.0107 14.1053 9.98832 14.2678 9.691C14.4812 9.30048 14.4278 9.44257 14.8181 9.10494Z" stroke="white" stroke-width="0.166461" stroke-miterlimit="3.864"/>
<path fill-rule="evenodd" clip-rule="evenodd" d="M15.8295 9.15842C16.0608 9.22974 16.2206 9.21186 16.2027 9.63746C16.185 10.0636 16.1137 10.4189 16.1137 10.4189C16.1137 10.4189 15.9895 10.401 15.8124 10.5075C15.6347 10.6139 15.4926 10.7915 15.4926 10.7915C15.4926 10.7915 14.8538 10.6673 14.7296 10.436C14.6843 10.3521 14.6583 10.0812 14.7118 9.92146C14.7672 9.75514 15.1557 9.76223 15.315 9.65515C15.4748 9.54882 15.6347 9.15842 15.8295 9.15842Z" fill="white"/>
<path d="M15.8295 9.15842C16.0608 9.22974 16.2206 9.21186 16.2027 9.63746C16.185 10.0636 16.1137 10.4189 16.1137 10.4189C16.1137 10.4189 15.9895 10.401 15.8124 10.5075C15.6347 10.6139 15.4926 10.7915 15.4926 10.7915C15.4926 10.7915 14.8538 10.6673 14.7296 10.436C14.6843 10.3521 14.6583 10.0812 14.7118 9.92146C14.7672 9.75514 15.1557 9.76223 15.315 9.65515C15.4748 9.54882 15.6347 9.15842 15.8295 9.15842Z" stroke="white" stroke-width="0.166461" stroke-miterlimit="3.864"/>
<path fill-rule="evenodd" clip-rule="evenodd" d="M13.8213 11.8156C13.6213 11.3396 13.6462 11.1091 13.7526 10.8785C13.8793 10.6021 14.1194 10.3703 14.2379 10.476C14.3679 10.5932 14.1991 10.5384 14.094 10.8026C13.9894 11.0677 13.9889 11.0111 14.069 11.1678C14.1487 11.3245 14.2552 11.3275 14.3296 11.5142C14.4328 11.7715 14.3316 11.7385 14.3333 11.9627C14.3348 12.1696 14.4034 12.3218 14.5329 12.3823C14.6622 12.4428 15.0386 12.4347 15.0386 12.4347C15.0386 12.4347 14.9391 12.6824 14.715 12.6844C14.49 12.6856 14.4412 12.7658 14.2079 12.5194C13.903 12.1963 14.0214 12.2906 13.8213 11.8156Z" fill="white"/>
<path d="M13.8213 11.8156C13.6213 11.3396 13.6462 11.1091 13.7526 10.8785C13.8793 10.6021 14.1194 10.3703 14.2379 10.476C14.3679 10.5932 14.1991 10.5384 14.094 10.8026C13.9894 11.0677 13.9889 11.0111 14.069 11.1678C14.1487 11.3245 14.2552 11.3275 14.3296 11.5142C14.4328 11.7715 14.3333 11.7385 14.3333 11.9627C14.3333 12.1696 14.4034 12.3218 14.5329 12.3823C14.6622 12.4428 15.0386 12.4347 15.0386 12.4347C15.0386 12.4347 14.9391 12.6824 14.715 12.6844C14.49 12.6856 14.4412 12.7658 14.2079 12.5194C13.903 12.1963 14.0214 12.2906 13.8213 11.8156Z" stroke="white" stroke-width="0.166461" stroke-miterlimit="3.864"/>
<path fill-rule="evenodd" clip-rule="evenodd" d="M14.1844 10.8696C14.3232 10.6721 14.3558 10.5149 14.7556 10.6632C15.155 10.8117 15.471 10.9888 15.471 10.9888C15.471 10.9888 15.4155 11.1015 15.4621 11.3034C15.5086 11.5046 15.6334 11.6951 15.6334 11.6951C15.6334 11.6951 15.3175 12.2639 15.0602 12.311C14.966 12.3282 14.7002 12.2689 14.5646 12.169C14.4233 12.0646 14.55 11.6976 14.4984 11.5122C14.4462 11.3275 14.1245 11.0549 14.1844 10.8696Z" fill="white"/>
<path d="M14.1844 10.8696C14.3232 10.6721 14.3558 10.5149 14.7556 10.6632C15.155 10.8117 15.471 10.9888 15.471 10.9888C15.471 10.9888 15.4155 11.1015 15.4621 11.3034C15.5086 11.5046 15.6334 11.6951 15.6334 11.6951C15.6334 11.6951 15.3175 12.2639 15.0602 12.311C14.966 12.3282 14.7002 12.2689 14.5646 12.169C14.4233 12.0646 14.55 11.6976 14.4984 11.5122C14.4462 11.3275 14.1245 11.0549 14.1844 10.8696Z" stroke="white" stroke-width="0.166461" stroke-miterlimit="3.864"/>
<path fill-rule="evenodd" clip-rule="evenodd" d="M16.0907 13.6011C15.5767 13.6443 15.3651 13.5494 15.1786 13.3768C14.9551 13.1711 14.8085 12.8705 14.9461 12.7914C15.097 12.7035 14.9927 12.8476 15.2124 13.0285C15.4314 13.2099 15.378 13.1928 15.5518 13.1653C15.7251 13.1379 15.7607 13.0379 15.9613 13.0245C16.2377 13.0061 16.1754 13.0921 16.3893 13.1596C16.5868 13.2221 16.7525 13.2042 16.8499 13.0998C16.948 12.9952 17.0556 12.6347 17.0556 12.6347C17.0556 12.6347 17.2607 12.806 17.1932 13.0202C17.1256 13.2341 17.1861 13.3055 16.8805 13.4506C16.4785 13.6411 16.6048 13.5577 16.0907 13.6011Z" fill="white"/>
<path d="M16.0907 13.6011C15.5767 13.6443 15.3651 13.5494 15.1786 13.3768C14.9551 13.1711 14.8085 12.8705 14.9461 12.7914C15.097 12.7035 14.9927 12.8476 15.2124 13.0285C15.4314 13.2099 15.378 13.1928 15.5518 13.1653C15.7251 13.1379 15.7607 13.0379 15.9613 13.0245C16.2377 13.0061 16.1754 13.0921 16.3893 13.1596C16.5868 13.2221 16.7525 13.2042 16.8499 13.0998C16.948 12.9952 17.0556 12.6347 17.0556 12.6347C17.0556 12.6347 17.2607 12.806 17.1932 13.0202C17.1256 13.2341 17.1861 13.3055 16.8805 13.4506C16.4785 13.6411 16.6048 13.5577 16.0907 13.6011Z" stroke="white" stroke-width="0.166461" stroke-miterlimit="3.864"/>
<path fill-rule="evenodd" clip-rule="evenodd" d="M15.3035 12.9634C15.1588 12.7704 15.0188 12.6908 15.2838 12.3564C15.5486 12.0221 15.8144 11.7767 15.8144 11.7767C15.8144 11.7767 15.9049 11.8641 16.1112 11.8825C16.3169 11.9004 16.5361 11.8404 16.5361 11.8404C16.5361 11.8404 16.9799 12.3162 16.9448 12.5762C16.9322 12.671 16.7939 12.9055 16.657 13.0028C16.5137 13.1054 16.2042 12.8717 16.0125 12.864C15.82 12.8557 15.4615 13.0781 15.3035 12.9634Z" fill="white"/>
<path d="M15.3035 12.9634C15.1588 12.7704 15.0188 12.6908 15.2838 12.3564C15.5486 12.0221 15.8144 11.7767 15.8144 11.7767C15.8144 11.7767 15.9049 11.8641 16.1112 11.8825C16.3169 11.9004 16.5361 11.8404 16.5361 11.8404C16.5361 11.8404 16.9799 12.3162 16.9448 12.5762C16.9322 12.671 16.7939 12.9055 16.657 13.0028C16.5137 13.1054 16.2042 12.8717 16.0125 12.864C15.82 12.8557 15.4615 13.0781 15.3035 12.9634Z" stroke="white" stroke-width="0.166461" stroke-miterlimit="3.864"/>
<path fill-rule="evenodd" clip-rule="evenodd" d="M18.4901 11.9946C18.3729 12.4966 18.2167 12.6685 17.9952 12.7926C17.7302 12.9418 17.3996 12.9882 17.3666 12.8328C17.3303 12.6621 17.4341 12.8055 17.6742 12.6533C17.9143 12.5004 17.8818 12.5462 17.9092 12.3723C17.9373 12.199 17.8524 12.1342 17.9016 11.9392C17.9698 11.6704 18.0321 11.7565 18.1633 11.5743C18.2838 11.4055 18.3175 11.2424 18.248 11.1175C18.1792 10.992 17.8698 10.7781 17.8698 10.7781C17.8698 10.7781 18.0958 10.636 18.278 10.7665C18.4609 10.8972 18.5474 10.861 18.5914 11.1971C18.6486 11.6378 18.6078 11.4922 18.4901 11.9946Z" fill="white"/>
<path d="M18.4901 11.9946C18.3729 12.4966 18.2167 12.6685 17.9952 12.7926C17.7302 12.9418 17.3996 12.9882 17.3666 12.8328C17.3303 12.6621 17.4341 12.8055 17.6742 12.6533C17.9143 12.5004 17.8818 12.5462 17.9092 12.3723C17.9373 12.199 17.8524 12.1342 17.9016 11.9392C17.9698 11.6704 18.0321 11.7565 18.1633 11.5743C18.2838 11.4055 18.3175 11.2424 18.248 11.1175C18.1792 10.992 17.8698 10.7781 17.8698 10.7781C17.8698 10.7781 18.0958 10.636 18.278 10.7665C18.4609 10.8972 18.5474 10.861 18.5914 11.1971C18.6486 11.6378 18.6078 11.4922 18.4901 11.9946Z" stroke="white" stroke-width="0.166461" stroke-miterlimit="3.864"/>
<path fill-rule="evenodd" clip-rule="evenodd" d="M17.6404 12.546C17.4124 12.6237 17.2932 12.732 17.0576 12.3772C16.8213 12.0219 16.6703 11.6931 16.6703 11.6931C16.6703 11.6931 16.7812 11.6346 16.8621 11.4441C16.943 11.2536 16.9538 11.0263 16.9538 11.0263C16.9538 11.0263 17.5434 10.7512 17.7797 10.8651C17.8657 10.9065 18.0453 11.1103 18.0964 11.2708C18.1498 11.4383 17.8314 11.6613 17.7645 11.841C17.6983 12.0212 17.7983 12.4306 17.6404 12.546Z" fill="white"/>
<path d="M17.6404 12.546C17.4124 12.6237 17.2932 12.732 17.0576 12.3772C16.8213 12.0219 16.6703 11.6931 16.6703 11.6931C16.6703 11.6931 16.7812 11.6346 16.8621 11.4441C16.943 11.2536 16.9538 11.0263 16.9538 11.0263C16.9538 11.0263 17.5434 10.7512 17.7797 10.8651C17.8657 10.9065 18.0453 11.1103 18.0964 11.2708C18.1498 11.4383 17.8314 11.6613 17.7645 11.841C17.6983 12.0212 17.7983 12.4306 17.6404 12.546Z" stroke="white" stroke-width="0.166461" stroke-miterlimit="3.864"/>
<path fill-rule="evenodd" clip-rule="evenodd" d="M17.7039 9.21568C18.1454 9.48322 18.2608 9.68387 18.3104 9.93354C18.3696 10.2309 18.3117 10.5602 18.1537 10.5438C17.9798 10.5259 18.1486 10.4712 18.078 10.1953C18.0073 9.91948 18.0404 9.96479 17.8836 9.88514C17.7277 9.8055 17.6398 9.86548 17.4697 9.7584C17.2353 9.61051 17.3366 9.57821 17.2028 9.39728C17.0799 9.23103 16.9352 9.14818 16.7951 9.17561C16.6545 9.2023 16.3552 9.43033 16.3552 9.43033C16.3552 9.43033 16.2895 9.17105 16.4703 9.03802C16.6512 8.90499 16.6437 8.81128 16.9768 8.87373C17.4142 8.9551 17.2627 8.94881 17.7039 9.21568Z" fill="white"/>
<path d="M17.7039 9.21568C18.1454 9.48322 18.2608 9.68387 18.3104 9.93354C18.3696 10.2309 18.3117 10.5602 18.1537 10.5438C17.9798 10.5259 18.1486 10.4712 18.078 10.1953C18.0073 9.91948 18.0404 9.96479 17.8836 9.88514C17.7277 9.8055 17.6398 9.86548 17.4697 9.7584C17.2353 9.61051 17.3366 9.57821 17.2028 9.39728C17.0799 9.23103 16.9352 9.14818 16.7951 9.17561C16.6545 9.2023 16.3552 9.43033 16.3552 9.43033C16.3552 9.43033 16.2895 9.17105 16.4703 9.03802C16.6512 8.90499 16.6437 8.81128 16.9768 8.87373C17.4142 8.9551 17.2627 8.94881 17.7039 9.21568Z" stroke="white" stroke-width="0.166461" stroke-miterlimit="3.864"/>
<path fill-rule="evenodd" clip-rule="evenodd" d="M17.9657 10.1944C17.9696 10.4358 18.0358 10.5824 17.625 10.6971C17.2149 10.8117 16.855 10.8538 16.855 10.8538C16.855 10.8538 16.8333 10.7301 16.6773 10.5946C16.5212 10.4582 16.3085 10.3779 16.3085 10.3779C16.3085 10.3779 16.2296 9.73202 16.4103 9.54302C16.4766 9.47348 16.7257 9.36517 16.8945 9.3664C17.0703 9.3677 17.1836 9.73911 17.334 9.85827C17.4849 9.97719 17.9052 10.0084 17.9657 10.1944Z" fill="white"/>
<path d="M17.9657 10.1944C17.9657 10.4358 18.0358 10.5824 17.625 10.6971C17.2149 10.8117 16.855 10.8538 16.855 10.8538C16.855 10.8538 16.8333 10.7301 16.6773 10.5946C16.5212 10.4582 16.3085 10.3779 16.3085 10.3779C16.3085 10.3779 16.2296 9.73202 16.4103 9.54302C16.4766 9.47348 16.7257 9.36517 16.8945 9.3664C17.0703 9.3677 17.1836 9.73911 17.334 9.85827C17.4849 9.97719 17.9052 10.0084 17.9657 10.1944Z" stroke="white" stroke-width="0.166461" stroke-miterlimit="3.864"/>
<path fill-rule="evenodd" clip-rule="evenodd" d="M18.3258 10.6321C18.3258 10.6321 18.3945 10.5925 18.5065 10.4237C18.6334 10.2339 18.581 10.1526 18.581 10.1526C18.581 10.1526 18.6345 10.2589 18.7588 10.3831C18.883 10.5073 19.0403 10.5232 19.0403 10.5232C19.0403 10.5232 18.9008 10.5958 18.7761 10.685C18.6518 10.7734 18.7232 11.0041 18.7232 11.0041C18.7232 11.0041 18.6403 10.8652 18.5519 10.7588C18.4633 10.6518 18.3258 10.6321 18.3258 10.6321Z" fill="white"/>
<path d="M18.3258 10.6321C18.3258 10.6321 18.3945 10.5925 18.5065 10.4237C18.6334 10.2339 18.581 10.1526 18.581 10.1526C18.581 10.1526 18.6345 10.2589 18.7588 10.3831C18.883 10.5073 19.0403 10.5232 19.0403 10.5232C19.0403 10.5232 18.9008 10.5958 18.7761 10.685C18.6518 10.7734 18.7232 11.0041 18.7232 11.0041C18.7232 11.0041 18.6403 10.8652 18.5519 10.7588C18.4633 10.6518 18.3258 10.6321 18.3258 10.6321Z" stroke="white" stroke-width="0.166461" stroke-miterlimit="3.864"/>
<path fill-rule="evenodd" clip-rule="evenodd" d="M17.3264 13.0277C17.3264 13.0277 17.4091 13.122 17.6117 13.1252C17.783 13.1283 17.9065 13.064 17.9065 13.064C17.9065 13.064 17.8282 13.0448 17.8218 13.2207C17.8155 13.3966 17.8556 13.6347 17.8556 13.6347C17.8556 13.6347 17.7339 13.5201 17.5843 13.4901C17.4346 13.4596 17.204 13.5622 17.204 13.5622C17.204 13.5622 17.3129 13.4717 17.392 13.3061C17.4512 13.1812 17.3262 13.0277 17.3264 13.0277Z" fill="white"/>
<path d="M17.3264 13.0277C17.3264 13.0277 17.4091 13.122 17.6117 13.1252C17.783 13.1283 17.9065 13.064 17.9065 13.064C17.9065 13.064 17.8218 13.0448 17.8218 13.2207C17.8218 13.3966 17.8556 13.6347 17.8556 13.6347C17.8556 13.6347 17.7339 13.5201 17.5843 13.4901C17.4346 13.4596 17.204 13.5622 17.204 13.5622C17.204 13.5622 17.3129 13.4717 17.392 13.3061C17.4512 13.1812 17.3264 13.0277 17.3264 13.0277Z" stroke="white" stroke-width="0.166461" stroke-miterlimit="3.864"/>
<path fill-rule="evenodd" clip-rule="evenodd" d="M14.2907 12.7959C14.2907 12.7959 14.3736 12.8952 14.5761 12.894C14.7263 12.8935 14.8181 12.7615 14.8181 12.7615C14.8181 12.7615 14.7175 12.8698 14.7118 13.0457C14.7054 13.2213 14.8181 13.3297 14.8181 13.3297C14.8181 13.3297 14.7079 13.2551 14.5818 13.2551C14.429 13.2551 14.2499 13.4004 14.2499 13.4004C14.2499 13.4004 14.3468 13.2475 14.3645 13.11C14.3818 12.9724 14.2907 12.7959 14.2907 12.7959Z" fill="white"/>
<path d="M14.2907 12.7959C14.2907 12.7959 14.3736 12.8952 14.5761 12.894C14.7263 12.8935 14.8181 12.7615 14.8181 12.7615C14.8181 12.7615 14.7118 12.8698 14.7118 13.0457C14.7118 13.2213 14.8181 13.3297 14.8181 13.3297C14.8181 13.3297 14.7079 13.2551 14.5818 13.2551C14.429 13.2551 14.2499 13.4004 14.2499 13.4004C14.2499 13.4004 14.3468 13.2475 14.3645 13.11C14.3818 12.9724 14.2907 12.7959 14.2907 12.7959Z" stroke="white" stroke-width="0.166461" stroke-miterlimit="3.864"/>
<path fill-rule="evenodd" clip-rule="evenodd" d="M14.0543 9.8049C14.0543 9.8049 14.0206 9.84639 14.0168 10.049C14.013 10.2514 14.1569 10.2992 14.1569 10.2992C14.1569 10.2992 14.1111 10.2521 13.9301 10.361C13.7799 10.4514 13.7316 10.5782 13.7316 10.5782C13.7316 10.5782 13.7679 10.361 13.713 10.2521C13.6449 10.1158 13.5507 9.99915 13.5507 9.99915C13.5507 9.99915 13.6875 9.91956 13.8263 9.91777C13.9647 9.91574 14.0543 9.8049 14.0543 9.8049Z" fill="white"/>
<path d="M14.0543 9.8049C14.0543 9.8049 14.0168 9.84639 14.0168 10.049C14.0168 10.2514 14.1569 10.2992 14.1569 10.2992C14.1569 10.2992 14.1111 10.2521 13.9301 10.361C13.7799 10.4514 13.7316 10.5782 13.7316 10.5782C13.7316 10.5782 13.7679 10.361 13.713 10.2521C13.6449 10.1158 13.5507 9.99915 13.5507 9.99915C13.5507 9.99915 13.6875 9.91956 13.8263 9.91777C13.9647 9.91574 14.0543 9.8049 14.0543 9.8049Z" stroke="white" stroke-width="0.166461" stroke-miterlimit="3.864"/>
<path fill-rule="evenodd" clip-rule="evenodd" d="M18.7761 19.4176C19.06 19.4353 19.22 19.6132 19.1314 20.0571C19.0422 20.5004 18.8116 20.6425 18.7411 21.1399C18.6697 21.6366 18.6735 21.5297 18.581 21.8671C18.4747 22.2577 18.6339 22.7831 18.2613 22.808C17.9952 22.8259 17.9065 22.471 17.9243 22.1335C17.9441 21.7609 17.9422 21.7253 18.1021 21.3171C18.3129 20.7775 18.5097 20.7138 18.4568 20.1812C18.4034 19.6487 18.5455 19.4176 18.7761 19.4176Z" fill="white"/>
<path fill-rule="evenodd" clip-rule="evenodd" d="M18.9894 21.1397C19.0423 21.3525 19.0423 21.5124 19.0423 21.5124C19.0423 21.5124 18.9539 21.6009 18.883 21.4232C18.8117 21.2461 18.9359 20.9264 18.9894 21.1397Z" fill="#FCEE23"/>
<path d="M18.9894 21.1397C19.0423 21.3525 19.0423 21.5124 19.0423 21.5124C19.0423 21.5124 18.9539 21.6009 18.883 21.4232C18.8117 21.2461 18.9359 20.9264 18.9894 21.1397Z" stroke="#FCEE23" stroke-width="0.341622" stroke-miterlimit="3.864"/>
<path fill-rule="evenodd" clip-rule="evenodd" d="M19.1135 20.9621C19.1493 21.1398 19.2377 21.2282 19.2556 21.4058C19.2735 21.583 19.4683 21.7786 19.4862 21.583C19.504 21.3883 19.4683 21.2811 19.3798 21.1398C19.2914 20.9977 19.0779 20.7842 19.1135 20.9621Z" fill="#FCEE23"/>
<path d="M19.1135 20.9621C19.1493 21.1398 19.2377 21.2282 19.2556 21.4058C19.2735 21.583 19.4683 21.7786 19.4862 21.583C19.504 21.3883 19.4683 21.2811 19.3798 21.1398C19.2914 20.9977 19.0779 20.7842 19.1135 20.9621Z" stroke="#FCEE23" stroke-width="0.341622" stroke-miterlimit="3.864"/>
<path fill-rule="evenodd" clip-rule="evenodd" d="M19.5575 20.9086C19.5575 21.0327 19.5398 20.9621 19.5575 21.1219C19.5748 21.2811 19.5888 21.2531 19.6638 21.4409C19.7346 21.6188 20.1078 21.8315 19.9659 21.5652C19.8239 21.299 19.5575 20.7842 19.5575 20.9086Z" fill="#FCEE23"/>
<path d="M19.5575 20.9086C19.5575 21.0327 19.5398 20.9621 19.5575 21.1219C19.5748 21.2811 19.5888 21.2531 19.6638 21.4409C19.7346 21.6188 20.1078 21.8315 19.9659 21.5652C19.8239 21.299 19.5575 20.7842 19.5575 20.9086Z" stroke="#FCEE23" stroke-width="0.341622" stroke-miterlimit="3.864"/>
<path fill-rule="evenodd" clip-rule="evenodd" d="M19.9479 20.9084C20.1784 21.0683 20.1963 21.2102 20.2491 21.3524C20.3026 21.4944 20.374 21.6186 20.3026 21.6363C20.2319 21.6542 20.1784 21.6542 20.0721 21.423C19.9658 21.1925 19.7524 20.8555 19.9479 20.9084Z" fill="#FCEE23"/>
<path d="M19.9479 20.9084C20.1784 21.0683 20.1963 21.2102 20.2491 21.3524C20.3026 21.4944 20.374 21.6186 20.3026 21.6363C20.2319 21.6542 20.1784 21.6542 20.0721 21.423C19.9658 21.1925 19.7524 20.8555 19.9479 20.9084Z" stroke="#FCEE23" stroke-width="0.341622" stroke-miterlimit="3.864"/>
<path fill-rule="evenodd" clip-rule="evenodd" d="M20.2848 20.9442C20.2848 20.9442 20.3912 20.9977 20.4982 21.1397C20.6046 21.281 20.7255 21.4906 20.6403 21.565C20.4982 21.6893 20.5511 21.5829 20.4091 21.3345C20.2669 21.0861 20.2141 21.0147 20.2141 20.9442C20.2141 20.8403 20.2848 20.9442 20.2848 20.9442Z" fill="#FCEE23"/>
<path d="M20.2848 20.9442C20.2848 20.9442 20.3912 20.9977 20.4982 21.1397C20.6046 21.281 20.7255 21.4906 20.6403 21.565C20.4982 21.6893 20.5511 21.5829 20.4091 21.3345C20.2669 21.0861 20.2141 21.0147 20.2141 20.9442C20.2141 20.8403 20.2848 20.9442 20.2848 20.9442Z" stroke="#FCEE23" stroke-width="0.341622" stroke-miterlimit="3.864"/>
<path fill-rule="evenodd" clip-rule="evenodd" d="M20.6224 20.9263C20.5332 20.9797 20.7109 21.1569 20.7993 21.3168C20.8885 21.4765 20.8885 21.6186 20.9592 21.5301C21.0306 21.4408 21.0835 21.3345 20.9414 21.1926C20.7995 21.0505 20.6752 20.7841 20.6224 20.9263Z" fill="#FCEE23"/>
<path d="M20.6224 20.9263C20.5332 20.9797 20.7109 21.1569 20.7993 21.3168C20.8885 21.4765 20.8885 21.6186 20.9592 21.5301C21.0306 21.4408 21.0835 21.3345 20.9414 21.1926C20.7995 21.0505 20.6752 20.7841 20.6224 20.9263Z" stroke="#FCEE23" stroke-width="0.341622" stroke-miterlimit="3.864"/>
<path fill-rule="evenodd" clip-rule="evenodd" d="M21.1015 20.9264C21.1015 20.9264 20.9236 20.8378 21.0658 21.0505C21.2079 21.2639 21.3497 21.2639 21.3497 21.2639C21.3497 21.2639 21.4389 21.2461 21.3497 21.104C21.2613 20.9621 21.1015 20.9264 21.1015 20.9264Z" fill="#FCEE23"/>
<path d="M21.1015 20.9264C21.1015 20.9264 20.9236 20.8378 21.0658 21.0505C21.2079 21.2639 21.3497 21.2639 21.3497 21.2639C21.3497 21.2639 21.4389 21.2461 21.3497 21.104C21.2613 20.9621 21.1015 20.9264 21.1015 20.9264Z" stroke="#FCEE23" stroke-width="0.341622" stroke-miterlimit="3.864"/>
<path fill-rule="evenodd" clip-rule="evenodd" d="M14.055 19.4531C13.7708 19.4709 13.611 19.6486 13.6995 20.092C13.7887 20.5358 14.0192 20.6779 14.09 21.1748C14.1613 21.6721 14.1581 21.5651 14.2498 21.9027C14.3561 22.2932 14.1971 22.8186 14.5695 22.8436C14.8359 22.8613 14.9243 22.506 14.9064 22.1692C14.8875 21.7964 14.8893 21.7608 14.7295 21.3525C14.5181 20.813 14.3211 20.7488 14.374 20.216C14.4277 19.6836 14.2855 19.4531 14.055 19.4531Z" fill="white"/>
<path fill-rule="evenodd" clip-rule="evenodd" d="M22.2548 12.655L20.0186 13.8619C20.0186 13.8619 19.7595 16.0123 18.741 17.2346C17.4983 18.7256 17.2856 18.9027 16.5754 19.3996C15.8652 19.8969 14.6225 20.6778 14.6225 20.6778L14.9065 21.3882C14.9065 21.3882 18.6422 19.4823 19.9829 18.1218C22.4327 15.6371 22.2548 12.655 22.2548 12.655Z" fill="white"/>
<path fill-rule="evenodd" clip-rule="evenodd" d="M13.8417 21.175C13.7888 21.3884 13.7888 21.5477 13.7888 21.5477C13.7888 21.5477 13.8775 21.6366 13.9488 21.459C14.0194 21.2813 13.8952 20.9623 13.8417 21.175Z" fill="#FCEE23"/>
<path d="M13.8417 21.175C13.7888 21.3884 13.7888 21.5477 13.7888 21.5477C13.7888 21.5477 13.8775 21.6366 13.9488 21.459C14.0194 21.2813 13.8952 20.9623 13.8417 21.175Z" stroke="#FCEE23" stroke-width="0.341622" stroke-miterlimit="3.864"/>
<path fill-rule="evenodd" clip-rule="evenodd" d="M13.7174 20.9979C13.6824 21.175 13.5932 21.2641 13.5753 21.441C13.5577 21.6189 13.3627 21.8137 13.3448 21.6189C13.3271 21.4233 13.3627 21.317 13.4511 21.175C13.5403 21.0329 13.7532 20.8201 13.7174 20.9979Z" fill="#FCEE23"/>
<path d="M13.7174 20.9979C13.6824 21.175 13.5932 21.2641 13.5753 21.441C13.5577 21.6189 13.3627 21.8137 13.3448 21.6189C13.3271 21.4233 13.3627 21.317 13.4511 21.175C13.5403 21.0329 13.7532 20.8201 13.7174 20.9979Z" stroke="#FCEE23" stroke-width="0.341622" stroke-miterlimit="3.864"/>
<path fill-rule="evenodd" clip-rule="evenodd" d="M13.2742 20.9443C13.2742 21.0684 13.2913 20.9977 13.2742 21.1569C13.2563 21.3167 13.2422 21.2887 13.1671 21.4766C13.0965 21.6544 12.7238 21.867 12.8658 21.6009C13.0078 21.3346 13.2742 20.8199 13.2742 20.9443Z" fill="#FCEE23"/>
<path d="M13.2742 20.9443C13.2742 21.0684 13.2913 20.9977 13.2742 21.1569C13.2563 21.3167 13.2422 21.2887 13.1671 21.4766C13.0965 21.6544 12.7238 21.867 12.8658 21.6009C13.0078 21.3346 13.2742 20.8199 13.2742 20.9443Z" stroke="#FCEE23" stroke-width="0.341622" stroke-miterlimit="3.864"/>
<path fill-rule="evenodd" clip-rule="evenodd" d="M12.8838 20.9445C12.6527 21.1042 12.6348 21.2463 12.5818 21.3884C12.5284 21.5304 12.4577 21.6545 12.5284 21.6723C12.5997 21.6895 12.6527 21.6895 12.7589 21.4589C12.8659 21.2284 13.0787 20.8908 12.8838 20.9445Z" fill="#FCEE23"/>
<path d="M12.8838 20.9445C12.6527 21.1042 12.6348 21.2463 12.5818 21.3884C12.5284 21.5304 12.4577 21.6545 12.5284 21.6723C12.5997 21.6895 12.6527 21.6895 12.7589 21.4589C12.8659 21.2284 13.0787 20.8908 12.8838 20.9445Z" stroke="#FCEE23" stroke-width="0.341622" stroke-miterlimit="3.864"/>
<path fill-rule="evenodd" clip-rule="evenodd" d="M12.5461 20.9799C12.5461 20.9799 12.4398 21.0327 12.3334 21.1749C12.2266 21.3169 12.1054 21.5264 12.1913 21.601C12.3334 21.7253 12.2799 21.6188 12.4221 21.3705C12.5639 21.122 12.6169 21.0507 12.6169 20.9799C12.6169 20.8761 12.5461 20.9799 12.5461 20.9799Z" fill="#FCEE23"/>
<path d="M12.5461 20.9799C12.5461 20.9799 12.4398 21.0327 12.3334 21.1749C12.2266 21.3169 12.1054 21.5264 12.1913 21.601C12.3334 21.7253 12.2799 21.6188 12.4221 21.3705C12.5639 21.122 12.6169 21.0507 12.6169 20.9799C12.6169 20.8761 12.5461 20.9799 12.5461 20.9799Z" stroke="#FCEE23" stroke-width="0.341622" stroke-miterlimit="3.864"/>
<path fill-rule="evenodd" clip-rule="evenodd" d="M12.2092 20.9622C12.2978 21.0149 12.12 21.1928 12.0316 21.3526C11.9431 21.5125 11.9431 21.6544 11.8717 21.5652C11.801 21.4767 11.7475 21.3705 11.8894 21.2283C12.0316 21.0862 12.1557 20.8201 12.2092 20.9622Z" fill="#FCEE23"/>
<path d="M12.2092 20.9622C12.2978 21.0149 12.12 21.1928 12.0316 21.3526C11.9431 21.5125 11.9431 21.6544 11.8717 21.5652C11.801 21.4767 11.7475 21.3705 11.8894 21.2283C12.0316 21.0862 12.1557 20.8201 12.2092 20.9622Z" stroke="#FCEE23" stroke-width="0.341622" stroke-miterlimit="3.864"/>
<path fill-rule="evenodd" clip-rule="evenodd" d="M11.7296 20.9621C11.7296 20.9621 11.9073 20.8729 11.7652 21.0861C11.6233 21.299 11.4812 21.299 11.4812 21.299C11.4812 21.299 11.3927 21.2811 11.4812 21.1397C11.5696 20.9977 11.7296 20.9621 11.7296 20.9621Z" fill="#FCEE23"/>
<path d="M11.7296 20.9621C11.7296 20.9621 11.9073 20.8729 11.7652 21.0861C11.6233 21.299 11.4812 21.299 11.4812 21.299C11.4812 21.299 11.3927 21.2811 11.4812 21.1397C11.5696 20.9977 11.7296 20.9621 11.7296 20.9621Z" stroke="#FCEE23" stroke-width="0.341622" stroke-miterlimit="3.864"/>
<path fill-rule="evenodd" clip-rule="evenodd" d="M13.6037 25.5755L13.6629 25.2991C13.7922 25.3208 13.8832 25.3316 13.9374 25.3311C14.0228 25.3303 14.0966 25.3082 14.1596 25.2648C14.2024 25.2354 14.2399 25.1915 14.2712 25.1336C14.2889 25.099 14.3004 25.0724 14.3042 25.0547L14.6418 25.1265L14.2024 27.1915L13.7871 27.103L14.0895 25.6788L13.6037 25.5755Z" fill="white"/>
<path fill-rule="evenodd" clip-rule="evenodd" d="M15.1461 26.9491C15.1965 27.0095 15.2691 27.0433 15.3641 27.0504C15.4589 27.0567 15.5347 27.0338 15.5921 26.9804C15.6506 26.9268 15.6831 26.8483 15.6901 26.7445C15.6977 26.6369 15.6761 26.5543 15.6246 26.4951C15.5743 26.4351 15.5029 26.4021 15.4099 26.395C15.317 26.3885 15.2411 26.4114 15.1819 26.4638C15.1232 26.5153 15.0907 26.5949 15.0831 26.7019C15.0761 26.8058 15.0972 26.888 15.1461 26.9491ZM14.7538 26.3842C14.8143 26.2925 14.8985 26.2255 15.0055 26.1848C14.9086 26.1096 14.8475 26.032 14.8221 25.951C14.7979 25.8695 14.7876 25.7951 14.7927 25.7263C14.803 25.5727 14.8698 25.4466 14.9927 25.3473C15.1156 25.2473 15.2819 25.204 15.4921 25.2187C15.7022 25.2332 15.8608 25.2987 15.9686 25.4154C16.0762 25.5313 16.1251 25.6657 16.1142 25.8185C16.1092 25.8873 16.0888 25.9599 16.0519 26.037C16.0169 26.1133 15.9461 26.1771 15.8405 26.2281C15.9399 26.2938 16.0124 26.3759 16.0583 26.476C16.1036 26.5752 16.122 26.6842 16.1142 26.802C16.1016 26.9791 16.0252 27.1256 15.8851 27.2415C15.7456 27.3562 15.5583 27.4052 15.3227 27.3887C15.0877 27.3728 14.9138 27.2982 14.8009 27.1657C14.6888 27.0326 14.6392 26.8772 14.6513 26.7003C14.6596 26.5815 14.694 26.4764 14.7538 26.3842ZM15.2411 25.9924C15.285 26.044 15.3488 26.0727 15.4322 26.0784C15.5163 26.0842 15.5825 26.065 15.6315 26.0199C15.6813 25.9746 15.7093 25.9135 15.7144 25.837C15.7201 25.7536 15.7017 25.6873 15.6583 25.6376C15.6163 25.5868 15.5533 25.5588 15.4684 25.553C15.3857 25.5472 15.3182 25.5663 15.2679 25.6102C15.2182 25.6535 15.1902 25.7168 15.1844 25.8002C15.1786 25.8764 15.1978 25.9407 15.2411 25.9924Z" fill="white"/>
<path fill-rule="evenodd" clip-rule="evenodd" d="M16.8393 26.993C16.8972 27.0465 16.9737 27.07 17.0686 27.0629C17.1636 27.0566 17.2354 27.0229 17.2851 26.9616C17.3348 26.9012 17.3564 26.8185 17.3496 26.7151C17.3418 26.6076 17.3087 26.528 17.2495 26.4771C17.1916 26.4249 17.1157 26.402 17.0228 26.4083C16.9298 26.4146 16.8577 26.4478 16.8068 26.5076C16.7559 26.5668 16.7348 26.6502 16.7426 26.7573C16.7494 26.8611 16.7818 26.9395 16.8393 26.993ZM16.3716 26.4885C16.4188 26.3892 16.4928 26.3115 16.5934 26.2554C16.487 26.1949 16.4158 26.1268 16.3788 26.0504C16.3432 25.9732 16.3234 25.9001 16.3183 25.8313C16.3075 25.6784 16.3565 25.544 16.4642 25.4287C16.5718 25.312 16.7305 25.2465 16.9406 25.2318C17.1508 25.2172 17.317 25.2598 17.4399 25.3599C17.5628 25.4599 17.629 25.586 17.6399 25.7388C17.6451 25.8076 17.6348 25.8827 17.6094 25.9643C17.5845 26.0444 17.5234 26.1177 17.4259 26.1828C17.5335 26.2337 17.617 26.305 17.6762 26.3975C17.7348 26.4898 17.7686 26.5948 17.7769 26.7127C17.789 26.8904 17.7341 27.0457 17.6112 27.1795C17.4891 27.3126 17.31 27.3879 17.075 27.4043C16.84 27.4202 16.6572 27.3713 16.5272 27.2554C16.398 27.1394 16.3266 26.9922 16.3146 26.8151C16.3061 26.6974 16.3252 26.5885 16.3716 26.4885ZM16.7998 26.0324C16.8501 26.0777 16.9176 26.0974 17.0003 26.0917C17.085 26.0852 17.1482 26.0566 17.1903 26.0051C17.2334 25.9535 17.252 25.8897 17.2469 25.8127C17.2411 25.7299 17.2132 25.6662 17.1634 25.6229C17.1144 25.579 17.0482 25.56 16.9641 25.5656C16.8806 25.5712 16.8169 25.6 16.7731 25.6503C16.7297 25.7 16.7106 25.7668 16.7171 25.8503C16.7221 25.9268 16.7494 25.9872 16.7998 26.0324Z" fill="white"/>
<path fill-rule="evenodd" clip-rule="evenodd" d="M17.9175 25.3703C18.0169 25.2055 18.1679 25.1009 18.3722 25.0576C18.6862 24.9908 18.9314 25.0844 19.1073 25.3373C19.2073 25.4812 19.2849 25.6812 19.3398 25.9385C19.3927 26.1883 19.4053 26.4034 19.3766 26.5845C19.3232 26.9283 19.134 27.1348 18.8092 27.2036C18.6544 27.2367 18.5053 27.2206 18.3627 27.1559C18.2194 27.0896 18.1207 26.9712 18.0654 26.7991L18.4698 26.7132C18.492 26.7716 18.5283 26.8158 18.5782 26.845C18.6278 26.8742 18.6875 26.8812 18.7571 26.8666C18.8908 26.8379 18.9692 26.7438 18.9914 26.5845C19.0035 26.4965 18.9964 26.3738 18.971 26.2151C18.9438 26.2698 18.9118 26.3138 18.8755 26.3469C18.8092 26.4088 18.7207 26.4514 18.6092 26.4749C18.4456 26.5099 18.2877 26.4845 18.136 26.3985C17.985 26.3119 17.8862 26.1616 17.8412 25.9475C17.794 25.7263 17.8194 25.5341 17.9175 25.3703ZM18.7754 26.0436C18.855 25.9652 18.8792 25.8531 18.8487 25.708C18.8238 25.5913 18.7761 25.5049 18.7066 25.4482C18.6378 25.3914 18.5564 25.3728 18.4614 25.3928C18.392 25.4079 18.3367 25.4399 18.2958 25.4895C18.2308 25.5666 18.2136 25.6781 18.2447 25.8233C18.2709 25.9456 18.315 26.0323 18.3772 26.0838C18.4403 26.1341 18.5238 26.1475 18.6276 26.1258C18.6837 26.1137 18.7328 26.0862 18.7754 26.0436Z" fill="white"/>
<path fill-rule="evenodd" clip-rule="evenodd" d="M15.9882 11.1765C15.9882 11.0343 16.085 10.9197 16.2047 10.9197C16.3244 10.9197 16.4213 11.0343 16.4213 11.1765C16.4213 11.3184 16.3244 11.4337 16.2047 11.4337C16.085 11.4337 15.9882 11.3184 15.9882 11.1765Z" fill="white"/>
<path d="M15.9882 11.1765C15.9882 11.0343 16.085 10.9197 16.2047 10.9197C16.3244 10.9197 16.4213 11.0343 16.4213 11.1765C16.4213 11.3184 16.3244 11.4337 16.2047 11.4337C16.085 11.4337 15.9882 11.3184 15.9882 11.1765Z" stroke="#E8E7E7" stroke-width="0.508083" stroke-miterlimit="3.864"/>
<path d="M16.1239 11.3117C16.1239 11.1696 16.2206 11.0544 16.3403 11.0544C16.4595 11.0544 16.557 11.1696 16.557 11.3117C16.557 11.4538 16.4595 11.569 16.3403 11.569C16.2206 11.569 16.1239 11.4538 16.1239 11.3117Z" stroke="#211E1F" stroke-width="1.01732" stroke-miterlimit="3.864"/>
<path d="M15.8258 11.2841C15.8258 11.1422 15.9226 11.0275 16.0425 11.0275C16.1622 11.0275 16.2589 11.1422 16.2589 11.2841C16.2589 11.4262 16.1622 11.5415 16.0425 11.5415C15.9226 11.5415 15.8258 11.4262 15.8258 11.2841Z" stroke="#211E1F" stroke-width="1.01732" stroke-miterlimit="3.864"/>
<path d="M15.8532 11.0138C15.8532 10.8717 15.95 10.7571 16.0697 10.7571C16.1888 10.7571 16.2863 10.8717 16.2863 11.0138C16.2863 11.1559 16.1888 11.2711 16.0697 11.2711C15.95 11.2711 15.8532 11.1559 15.8532 11.0138Z" stroke="#211E1F" stroke-width="1.01732" stroke-miterlimit="3.864"/>
<path d="M16.1239 10.987C16.1239 10.845 16.2206 10.7297 16.3403 10.7297C16.4595 10.7297 16.557 10.845 16.557 10.987C16.557 11.1291 16.4595 11.2444 16.3403 11.2444C16.2206 11.2444 16.1239 11.1291 16.1239 10.987Z" stroke="#211E1F" stroke-width="1.01732" stroke-miterlimit="3.864"/>
<path fill-rule="evenodd" clip-rule="evenodd" d="M10.5762 12.6195L12.8124 13.8264C12.8124 13.8264 13.0717 15.9769 14.0901 17.199C15.3328 18.6901 15.546 18.8672 16.2556 19.3647C16.9658 19.8616 18.2084 20.6424 18.2084 20.6424L17.9244 21.3526C17.9244 21.3526 14.189 19.4469 12.8482 18.0864C10.3985 15.6016 10.5762 12.6195 10.5762 12.6195Z" fill="white"/>
<path d="M10.5762 12.6195L12.8124 13.8264C12.8124 13.8264 13.0717 15.9769 14.0901 17.199C15.3328 18.6901 15.546 18.8672 16.2556 19.3647C16.9658 19.8616 18.2084 20.6424 18.2084 20.6424L17.9244 21.3526C17.9244 21.3526 14.189 19.4469 12.8482 18.0864C10.3985 15.6016 10.5762 12.6195 10.5762 12.6195Z" stroke="#211E1F" stroke-width="0.508083" stroke-miterlimit="3.864"/>
<path fill-rule="evenodd" clip-rule="evenodd" d="M6.16921 17.0859C6.26611 17.0637 6.33675 17.0306 6.38132 16.9866C6.46294 16.9064 6.49598 16.7784 6.48063 16.6026C6.47126 16.4975 6.45264 16.4128 6.42342 16.3491C6.36801 16.2281 6.28004 16.1727 6.1591 16.1835C6.08833 16.1898 6.03686 16.2254 6.00308 16.2904C5.97115 16.356 5.94643 16.4561 5.92855 16.591L5.89797 16.8216C5.86678 17.0484 5.82598 17.2071 5.77438 17.2975C5.68839 17.4497 5.54001 17.5356 5.33036 17.5541C5.13865 17.5706 4.97382 17.5147 4.83493 17.3866C4.69618 17.2585 4.61524 17.0598 4.59101 16.7897C4.57116 16.5642 4.6145 16.3674 4.72083 16.1981C4.82593 16.028 4.99163 15.9292 5.21768 15.9017L5.25528 16.3311C5.1278 16.3502 5.04132 16.414 4.99601 16.5233C4.96679 16.5962 4.95594 16.6839 4.9655 16.7877C4.97505 16.903 5.0063 16.9928 5.05901 17.0573C5.11141 17.1215 5.17946 17.1502 5.26231 17.1432C5.33868 17.1362 5.39281 17.0979 5.42462 17.0266C5.44576 16.9807 5.4674 16.8852 5.48835 16.7405L5.54507 16.3641C5.56923 16.1993 5.61059 16.073 5.66798 15.9852C5.75774 15.849 5.8973 15.7719 6.08777 15.7553C6.28331 15.7382 6.45215 15.7991 6.59473 15.9375C6.73682 16.0756 6.81954 16.2806 6.84321 16.5533C6.86738 16.8318 6.8233 17.056 6.71068 17.2266C6.59726 17.3974 6.42916 17.4929 6.20693 17.512L6.16921 17.0859Z" fill="white"/>
<path fill-rule="evenodd" clip-rule="evenodd" d="M6.7033 15.3958L4.57266 15.1348L4.62685 14.6941L5.43894 14.7933L5.54151 13.9608L4.72942 13.8616L4.78354 13.4188L6.91345 13.6806L6.85932 14.1226L5.90835 14.0062L5.80658 14.8385L6.75675 14.9551L6.7033 15.3958Z" fill="white"/>
<path fill-rule="evenodd" clip-rule="evenodd" d="M5.8064 11.2301L5.4554 12.3097L5.88851 12.4505L6.21078 11.4595L6.56486 11.5747L6.24327 12.5657L6.76816 12.7366L7.13482 11.6065L7.50172 11.7256L6.99926 13.2723L4.95856 12.6091L5.44455 11.1123L5.8064 11.2301Z" fill="white"/>
<path fill-rule="evenodd" clip-rule="evenodd" d="M5.7865 10.3998L6.524 9.06863L6.8541 9.25154L6.33229 10.1929L6.76416 10.4323L7.22094 9.60809L7.54697 9.78902L7.09044 10.6127L7.87689 11.0489L7.66095 11.4387L5.7865 10.3998Z" fill="white"/>
<path fill-rule="evenodd" clip-rule="evenodd" d="M6.93799 8.51678L7.91584 7.35114L8.20488 7.59383L7.51318 8.41803L7.89149 8.73526L8.49664 8.01357L8.78267 8.25319L8.1769 8.97487L8.86607 9.5531L8.58004 9.89462L6.93799 8.51678Z" fill="white"/>
<path fill-rule="evenodd" clip-rule="evenodd" d="M10.0933 8.2844L9.76217 8.58246L8.32649 6.98745L8.65758 6.68939L10.0933 8.2844Z" fill="white"/>
<path fill-rule="evenodd" clip-rule="evenodd" d="M10.7508 5.66145L9.79862 6.28006L10.0464 6.66213L10.9209 6.09463L11.124 6.40735L10.2494 6.9748L10.5501 7.43788L11.5463 6.79079L11.7565 7.11436L10.3928 8.00033L9.22417 6.20041L10.5438 5.34299L10.7508 5.66145Z" fill="white"/>
<path fill-rule="evenodd" clip-rule="evenodd" d="M11.2373 4.96543L11.6533 4.798L12.3125 6.42988L13.2978 6.03177L13.4423 6.38962L12.0412 6.95528L11.2373 4.96543Z" fill="white"/>
<path fill-rule="evenodd" clip-rule="evenodd" d="M13.8016 4.46625L14.069 5.84082L14.4749 5.76247C14.6825 5.72166 14.8073 5.59109 14.8493 5.37009C14.8723 5.24896 14.869 5.11081 14.8385 4.95541C14.7972 4.74125 14.7309 4.58344 14.641 4.48216C14.5518 4.38013 14.4074 4.34839 14.2073 4.38722L13.8016 4.46625ZM14.5455 3.98906C14.7029 4.00891 14.8392 4.07524 14.9564 4.18657C15.0499 4.27706 15.122 4.38087 15.1721 4.49732C15.2225 4.61469 15.2588 4.72806 15.28 4.83871C15.3346 5.11914 15.3245 5.36689 15.25 5.58332C15.148 5.87509 14.9385 6.05152 14.6201 6.11329L13.7124 6.28984L13.3028 4.1833L14.2106 4.00693C14.3416 3.98345 14.4532 3.97771 14.5455 3.98906Z" fill="white"/>
<path fill-rule="evenodd" clip-rule="evenodd" d="M16.8888 3.78964L17.3411 3.84506L17.1806 5.15465C17.162 5.30106 17.1665 5.41011 17.1932 5.48193C17.2321 5.60818 17.3424 5.68203 17.5238 5.7044C17.704 5.7266 17.8282 5.68147 17.897 5.56811C17.9398 5.50486 17.9703 5.40056 17.9881 5.2539L18.1487 3.94437L18.6015 3.99979L18.4405 5.30932C18.413 5.53556 18.3556 5.70743 18.2704 5.82535C18.1104 6.04056 17.8468 6.12526 17.4774 6.08013C17.1086 6.03476 16.8723 5.88835 16.7685 5.64122C16.7137 5.50615 16.7004 5.32541 16.7284 5.09917L16.8888 3.78964Z" fill="white"/>
<path fill-rule="evenodd" clip-rule="evenodd" d="M19.4308 4.16467L19.8755 4.31755L20.1958 6.01243L20.683 4.59582L21.0786 4.73156L20.3799 6.7608L19.9556 6.61489L19.6233 4.88814L19.127 6.32965L18.7321 6.19336L19.4308 4.16467Z" fill="white"/>
<path fill-rule="evenodd" clip-rule="evenodd" d="M21.0829 7.16911L20.6893 6.96019L21.6969 5.06528L22.0899 5.27419L21.0829 7.16911Z" fill="white"/>
<path fill-rule="evenodd" clip-rule="evenodd" d="M24.0153 6.56016L23.7918 6.86783L23.2727 6.49013L22.2346 7.91938L21.869 7.65381L22.9071 6.22506L22.3855 5.84612L22.609 5.53845L24.0153 6.56016Z" fill="white"/>
<path fill-rule="evenodd" clip-rule="evenodd" d="M25.3415 8.46269L24.5669 7.63214L24.2338 7.94308L24.9446 8.70532L24.672 8.95955L23.9611 8.19712L23.5574 8.57352L24.3683 9.44235L24.0854 9.70613L22.9765 8.51632L24.546 7.05255L25.6198 8.20359L25.3415 8.46269Z" fill="white"/>
<path fill-rule="evenodd" clip-rule="evenodd" d="M26.0192 9.43226L24.8185 10.1539L25.0311 10.508C25.1401 10.6894 25.3055 10.7622 25.5273 10.7264C25.6491 10.706 25.7778 10.6558 25.9133 10.5742C26.1005 10.4615 26.2268 10.3456 26.2911 10.227C26.3566 10.108 26.3369 9.96142 26.2318 9.78629L26.0192 9.43226ZM26.7217 9.96795C26.7567 10.1227 26.7413 10.2736 26.6763 10.4213C26.6235 10.5405 26.5503 10.6437 26.4579 10.7309C26.3657 10.8181 26.2714 10.8907 26.1744 10.9487C25.9299 11.0958 25.6928 11.1716 25.4643 11.1755C25.1554 11.1792 24.9178 11.0429 24.751 10.7647L24.2745 9.97227L26.1139 8.86734L26.5904 9.65954C26.6572 9.77414 26.7013 9.87746 26.7217 9.96795Z" fill="white"/>
<path fill-rule="evenodd" clip-rule="evenodd" d="M27.6731 12.0801L28.0412 13.5565L27.6751 13.6475L27.4145 12.6036L26.9364 12.7228L27.1637 13.6369L26.8025 13.7272L26.5745 12.8132L25.7012 13.0304L25.5936 12.5985L27.6731 12.0801Z" fill="white"/>
<path fill-rule="evenodd" clip-rule="evenodd" d="M26.3407 13.9375L26.4019 14.3744L25.972 14.4349L25.9108 13.998L26.3407 13.9375Z" fill="white"/>
<path fill-rule="evenodd" clip-rule="evenodd" d="M27.9675 15.0798C28.1413 15.2577 28.2255 15.4812 28.2209 15.7513C28.2146 16.1124 28.0917 16.3741 27.8522 16.5367C27.7172 16.6264 27.5835 16.6735 27.4489 16.6786L27.4567 16.2303C27.5605 16.2029 27.6389 16.1666 27.6916 16.1219C27.7866 16.0423 27.8349 15.9219 27.8382 15.7621C27.8407 15.5991 27.777 15.4691 27.6465 15.3728C27.5172 15.276 27.3325 15.2257 27.0917 15.2219C26.851 15.2174 26.6694 15.264 26.5472 15.3607C26.4262 15.4589 26.3644 15.5844 26.3619 15.7372C26.3592 15.8947 26.4083 16.0155 26.5096 16.0996C26.5643 16.1462 26.6464 16.1856 26.7568 16.2174L26.749 16.6613C26.5159 16.6189 26.3274 16.5162 26.1835 16.3532C26.0396 16.1912 25.9701 15.9863 25.9746 15.7366C25.9796 15.4276 26.0828 15.1868 26.2841 15.0137C26.4859 14.8403 26.7605 14.7569 27.107 14.7633C27.4814 14.7696 27.7682 14.8754 27.9675 15.0798Z" fill="white"/>
<path fill-rule="evenodd" clip-rule="evenodd" d="M26.3841 16.9957L26.3152 17.4314L25.8866 17.3634L25.9554 16.9277L26.3841 16.9957Z" fill="white"/>
</svg>
