<svg width="32" height="32" viewBox="0 0 32 32" fill="none" xmlns="http://www.w3.org/2000/svg">
<mask id="mask0_371_27133" style="mask-type:luminance" maskUnits="userSpaceOnUse" x="5" y="4" width="21" height="26">
<path d="M5.77907 4.83533V11.9335C7.29262 24.2904 15.6545 29.1033 15.6545 29.1033C15.6545 29.1033 24.7744 22.8995 25.4128 11.9335V4.83533H5.77907Z" fill="white"/>
</mask>
<g mask="url(#mask0_371_27133)">
<path d="M22.8768 35.671L-2.38162 25.9688L8.31499 -1.73221L33.5735 7.96993L22.8768 35.671Z" fill="url(#paint0_linear_371_27133)"/>
</g>
<mask id="mask1_371_27133" style="mask-type:luminance" maskUnits="userSpaceOnUse" x="4" y="1" width="23" height="29">
<path d="M26.4 1.60001H4.8V29.8462H26.4V1.60001Z" fill="white"/>
</mask>
<g mask="url(#mask1_371_27133)">
<path d="M17.6275 14.9225C17.7655 14.935 17.9052 14.9425 18.0461 14.9442C17.9052 14.9425 17.7655 14.935 17.6275 14.9225Z" fill="white"/>
</g>
<mask id="mask2_371_27133" style="mask-type:luminance" maskUnits="userSpaceOnUse" x="4" y="1" width="23" height="29">
<path d="M26.4 1.60001H4.8V29.8462H26.4V1.60001Z" fill="white"/>
</mask>
<g mask="url(#mask2_371_27133)">
<path d="M17.3165 14.8876V14.8909L17.3184 14.8876H17.3165Z" fill="white"/>
</g>
<mask id="mask3_371_27133" style="mask-type:luminance" maskUnits="userSpaceOnUse" x="4" y="1" width="23" height="29">
<path d="M26.4 1.60001H4.8V29.8462H26.4V1.60001Z" fill="white"/>
</mask>
<g mask="url(#mask3_371_27133)">
<path d="M13.3857 14.0893L11.1803 14.031L11.1407 14.9042C11.1407 14.9042 10.8167 14.8855 10.475 14.9042C10.133 14.9247 10.1137 15.398 10.1137 15.398C10.1137 15.398 9.84699 15.3792 9.56229 15.4546C9.27731 15.5308 9.31534 15.9676 9.31534 15.9676C9.31534 15.9676 8.57295 15.9869 8.32582 16.2711C8.07842 16.5568 8.04103 17.1434 8.28879 17.4853C8.53529 17.8271 9.94249 19.8371 10.304 20.6341C10.6654 21.4319 10.7231 24.1262 10.7231 24.1262L10.7444 24.1905L10.7454 24.1912C12.0068 25.744 13.5958 27.2393 15.6025 28.5813C16.2822 28.1274 16.914 27.6534 17.5007 27.1666L13.8424 22.9552L14.0665 22.7615L14.1375 22.7576C14.1613 22.7561 14.1845 22.755 14.209 22.755C14.3408 22.7563 14.4696 22.7715 14.6171 22.7709C14.8519 22.7709 15.1286 22.7378 15.4863 22.5497C15.6332 22.4708 15.7294 22.3611 15.7939 22.2274C15.8589 22.0929 15.8884 21.937 15.8867 21.7865C15.8884 21.625 15.8501 21.47 15.8069 21.3859C15.738 21.2453 15.5816 21.1352 15.4093 21.0665C15.2382 20.9963 15.0644 20.9685 15.002 20.9615C14.9838 20.9583 14.9777 20.9583 14.9777 20.9583H14.9667L14.7587 20.9214L14.0717 20.158L14.3973 19.8776L14.9801 20.524L15.0252 20.5317C15.0697 20.5366 15.2339 20.5561 15.4309 20.6197L14.6201 19.6853L14.9456 19.4033L19.7866 24.9779C19.8442 24.9137 19.8998 24.85 19.9555 24.786L15.1373 19.2391L15.4624 18.958L20.2395 24.4564C20.2941 24.3912 20.3489 24.3243 20.4025 24.2596L15.6537 18.7929L15.7664 18.6956C15.7664 18.6956 15.9308 18.7422 16.1889 18.7518L20.6763 23.9185C20.7292 23.8504 20.7828 23.7831 20.8351 23.7146L16.5186 18.7455C16.6693 18.7341 16.8354 18.7064 17.0105 18.6557L21.0992 23.3625C21.1498 23.2922 21.1999 23.223 21.2506 23.1519L17.2652 18.5646C17.4096 18.4918 17.5126 18.3912 17.5847 18.2769L21.5044 22.7889C21.5531 22.7172 21.6032 22.6432 21.6503 22.5709L17.6975 18.0203C17.7703 17.7657 17.7488 17.5096 17.7351 17.4076L21.8932 22.1945C21.9404 22.1199 21.9873 22.045 22.0334 21.9699L17.5237 16.7785V16.1229L22.2662 21.5824C22.3174 21.4939 22.3688 21.4058 22.4185 21.3165L16.759 14.7761C16.7016 14.7614 16.6458 14.7442 16.5893 14.7283C16.3593 14.6609 16.1358 14.5786 15.9188 14.4832C15.8776 14.4648 15.837 14.444 15.7964 14.4239C15.6589 14.3586 15.5241 14.2885 15.3926 14.212C15.3468 14.1853 15.3016 14.1575 15.2565 14.1293C15.1292 14.0499 15.0063 13.9662 14.8864 13.8765C14.8489 13.8489 14.8111 13.8217 14.774 13.7922C14.6321 13.6808 14.4963 13.5629 14.3665 13.4384C14.359 13.4315 14.3505 13.4255 14.3432 13.4182C13.8194 13.5037 13.3857 14.0893 13.3857 14.0893Z" fill="white"/>
</g>
<mask id="mask4_371_27133" style="mask-type:luminance" maskUnits="userSpaceOnUse" x="4" y="1" width="23" height="29">
<path d="M26.4 1.60001H4.8V29.8462H26.4V1.60001Z" fill="white"/>
</mask>
<g mask="url(#mask4_371_27133)">
<path d="M6.35049 14.6066C6.58238 15.8269 6.9399 17.1829 7.49218 18.5958C7.5345 18.7027 7.58131 18.8109 7.62516 18.9186C7.58131 18.8109 7.53441 18.7027 7.49218 18.5951C6.9399 17.1828 6.58238 15.8268 6.35049 14.6066Z" fill="white"/>
</g>
<mask id="mask5_371_27133" style="mask-type:luminance" maskUnits="userSpaceOnUse" x="4" y="1" width="23" height="29">
<path d="M26.4 1.60001H4.8V29.8462H26.4V1.60001Z" fill="white"/>
</mask>
<g mask="url(#mask5_371_27133)">
<path d="M4.80359 3.13275V6.10753H4.8L4.8061 10.2195C4.80431 10.3125 4.80359 10.4109 4.80359 10.5151C4.80359 10.6163 4.80502 10.7256 4.80682 10.8369V10.8543H4.80718C4.81426 11.2701 4.83524 11.7518 4.87873 12.2914C5.02319 14.0628 5.42043 16.4446 6.42358 19.0118C7.81715 22.5815 10.3962 26.5145 15.0698 29.604L15.5961 29.9388L16.1317 29.6051C16.5703 29.3148 16.9904 29.0179 17.3922 28.7159C21.0071 25.9863 23.1947 22.7419 24.4995 19.698L24.505 19.685L24.5155 19.6584C24.6084 19.4421 24.6965 19.2262 24.7812 19.011C24.8691 18.7833 24.9533 18.5582 25.0325 18.3339C26.2027 15.0372 26.3996 12.12 26.4004 10.5149C26.4004 10.4546 26.3995 10.4002 26.3989 10.3438L26.4004 10.3431V6.77024V6.10761V3.13284C19.3472 1.08908 11.8564 1.08908 4.80359 3.13275ZM22.4176 20.7131L20.8513 18.9655V13.7996C21.6469 12.9458 22.0312 11.7848 22.0122 10.5098C21.9952 9.3185 21.6424 8.19448 20.8513 7.3131V5.60097C21.3035 5.66295 21.9687 5.78055 22.4191 5.85827L22.4177 20.7131H22.4176ZM19.2107 17.0627L19.0671 16.9122L17.6188 15.238C17.6799 15.2371 17.7411 15.2371 17.8019 15.2342C18.2449 15.2094 18.8123 15.0311 19.2107 14.8886V17.0627ZM17.8306 26.8898L14.6249 23.2003C14.7211 23.2003 14.8282 23.1938 14.9433 23.1763L18.0202 26.7229C17.9573 26.7769 17.8936 26.8339 17.8306 26.8898ZM18.3405 26.435L15.4072 23.0569C15.4861 23.0266 15.5662 22.9906 15.6494 22.949L18.5259 26.2644C18.4653 26.3215 18.4031 26.378 18.3405 26.435ZM18.8369 25.966L15.9952 22.6912C16.0538 22.6254 16.103 22.5557 16.1456 22.4819L19.0167 25.7878C18.9565 25.8471 18.8979 25.9056 18.8369 25.966ZM19.3187 25.4794L16.3018 22.0069C16.3121 21.9323 16.3174 21.8597 16.3174 21.7861C16.3174 21.7339 16.3146 21.6811 16.3094 21.6296L19.4942 25.295C19.4367 25.3572 19.3771 25.4193 19.3187 25.4794ZM22.2661 21.5822L17.5235 16.1228V16.7784L22.0332 21.9697C21.9869 22.0449 21.9403 22.1198 21.8931 22.1944L17.7348 17.4075C17.7487 17.5095 17.7701 17.7656 17.6973 18.0202L21.6502 22.5707C21.6032 22.6431 21.5531 22.7171 21.5043 22.7888L17.5845 18.2768C17.5124 18.3909 17.4096 18.4915 17.265 18.5644L21.2504 23.1518C21.1999 23.2229 21.1499 23.292 21.099 23.3623L17.0103 18.6556C16.8351 18.7063 16.6689 18.734 16.5184 18.7454L20.835 23.7145C20.7829 23.7831 20.7291 23.8505 20.6762 23.9184L16.1888 18.7517C15.9306 18.7421 15.7662 18.6955 15.7662 18.6955L15.6535 18.7928L20.4027 24.2592C20.3487 24.3241 20.2941 24.3909 20.2396 24.456L15.4624 18.9576L15.1373 19.2387L19.9557 24.7856C19.8998 24.8496 19.8441 24.9133 19.7865 24.9775L14.9456 19.4029L14.6202 19.6849L15.4309 20.6193C15.234 20.5557 15.0697 20.5359 15.0252 20.5313L14.9801 20.5236L14.3973 19.8772L14.0717 20.1576L14.7587 20.921L14.9667 20.9578H14.9776C14.9776 20.9578 14.9837 20.9578 15.0019 20.9611C15.0643 20.9681 15.2382 20.9959 15.4093 21.0661C15.5815 21.135 15.7379 21.2448 15.8068 21.3856C15.8498 21.4696 15.8882 21.6247 15.8865 21.7861C15.8884 21.9367 15.8585 22.0925 15.7939 22.227C15.7292 22.3606 15.6331 22.4705 15.4861 22.5493C15.1285 22.7374 14.852 22.7705 14.617 22.7705C14.4695 22.7711 14.3408 22.7559 14.2089 22.7546C14.1846 22.7546 14.1612 22.7559 14.1374 22.7572L14.0664 22.7611L13.8423 22.9548L17.5006 27.1663C16.9139 27.6531 16.2819 28.127 15.6023 28.5809C13.5954 27.2391 12.0066 25.7438 10.7452 24.1913L10.7443 24.1903C9.33186 22.4546 8.33544 20.6501 7.62498 18.9185C7.58131 18.8109 7.53432 18.7026 7.49218 18.5958C6.93981 17.1828 6.58229 15.8269 6.35041 14.6067C6.09153 13.2413 5.99271 12.052 5.9633 11.1465V6.45659C10.2536 5.35618 14.8286 5.02572 19.2105 5.41843V6.1204C18.6743 5.90549 17.9582 5.69872 17.369 5.69469C14.7884 5.67234 12.7833 7.83889 12.8222 10.449C12.8602 12.9454 14.7392 15.0095 17.1415 15.2188L22.4184 21.3165C22.3683 21.4058 22.3172 21.4937 22.2661 21.5822ZM23.9887 17.8438C23.9887 17.8443 24.012 17.8447 24.0118 17.8451V6.15814C24.4292 6.25044 24.8217 6.34918 25.2367 6.45543V11.1466L25.2412 11.1435C25.1906 12.7126 24.9305 15.1472 23.9887 17.8438Z" fill="black"/>
</g>
<mask id="mask6_371_27133" style="mask-type:luminance" maskUnits="userSpaceOnUse" x="4" y="1" width="23" height="29">
<path d="M26.4 1.60001H4.8V29.8462H26.4V1.60001Z" fill="white"/>
</mask>
<g mask="url(#mask6_371_27133)">
<path d="M13.9075 12.6032L15.5622 13.0779L16.554 14.5677C16.8521 14.6389 17.1612 14.6795 17.4777 14.6823C17.7901 14.6839 18.0927 14.6486 18.3836 14.584L19.3052 13.1349L20.9802 12.6637C21.2836 12.1396 21.4745 11.539 21.5222 10.8939L20.4405 9.52193L20.4853 7.74182C20.4206 7.66625 20.3537 7.59184 20.2843 7.52172C19.9136 7.14726 19.4774 6.84211 18.9943 6.62809L17.4008 7.2265L15.7516 6.59232C15.2623 6.8015 14.8245 7.10648 14.4569 7.48416C14.3943 7.54936 14.3345 7.61688 14.2745 7.68637L14.3784 9.429L13.3182 10.8243C13.3839 11.4679 13.5898 12.0728 13.9075 12.6032ZM17.4235 8.70333L19.2043 10.0225L18.5634 12.1294L16.3848 12.1152L15.6834 9.9987L17.4235 8.70333Z" fill="white"/>
</g>
<mask id="mask7_371_27133" style="mask-type:luminance" maskUnits="userSpaceOnUse" x="4" y="1" width="23" height="29">
<path d="M26.4 1.60001H4.8V29.8462H26.4V1.60001Z" fill="white"/>
</mask>
<g mask="url(#mask7_371_27133)">
<path d="M19.2043 9.99882L17.4235 8.67966L15.6835 9.97494L16.3848 12.0914L18.5634 12.1056L19.2043 9.99882Z" fill="black"/>
</g>
<mask id="mask8_371_27133" style="mask-type:luminance" maskUnits="userSpaceOnUse" x="4" y="1" width="23" height="29">
<path d="M26.4 1.60001H4.8V29.8462H26.4V1.60001Z" fill="white"/>
</mask>
<g mask="url(#mask8_371_27133)">
<path d="M14.625 23.2004L17.8307 26.8899C17.8936 26.834 17.9573 26.7769 18.0202 26.7231L14.9434 23.1765C14.8283 23.1939 14.7211 23.2004 14.625 23.2004Z" fill="white"/>
</g>
<mask id="mask9_371_27133" style="mask-type:luminance" maskUnits="userSpaceOnUse" x="4" y="1" width="23" height="29">
<path d="M26.4 1.60001H4.8V29.8462H26.4V1.60001Z" fill="white"/>
</mask>
<g mask="url(#mask9_371_27133)">
<path d="M15.4071 23.057L18.3404 26.4351C18.4029 26.3781 18.4654 26.3215 18.5257 26.2645L15.6492 22.949C15.5661 22.9906 15.486 23.0266 15.4071 23.057Z" fill="white"/>
</g>
<mask id="mask10_371_27133" style="mask-type:luminance" maskUnits="userSpaceOnUse" x="4" y="1" width="23" height="29">
<path d="M26.4 1.60001H4.8V29.8462H26.4V1.60001Z" fill="white"/>
</mask>
<g mask="url(#mask10_371_27133)">
<path d="M15.9951 22.6913L18.8369 25.966C18.898 25.9058 18.9565 25.8471 19.0166 25.7878L16.1454 22.4819C16.1029 22.5558 16.0538 22.6254 15.9951 22.6913Z" fill="white"/>
</g>
<mask id="mask11_371_27133" style="mask-type:luminance" maskUnits="userSpaceOnUse" x="4" y="1" width="23" height="29">
<path d="M26.4 1.60001H4.8V29.8462H26.4V1.60001Z" fill="white"/>
</mask>
<g mask="url(#mask11_371_27133)">
<path d="M16.3094 21.6299C16.3148 21.6814 16.3175 21.7342 16.3175 21.7864C16.3175 21.8597 16.3121 21.9326 16.3018 22.0071L19.3189 25.4797C19.3771 25.4195 19.4368 25.3575 19.4944 25.2954L16.3094 21.6299Z" fill="white"/>
</g>
<mask id="mask12_371_27133" style="mask-type:luminance" maskUnits="userSpaceOnUse" x="5" y="3" width="3" height="3">
<path d="M6.57045 3.98639C6.57485 3.96546 6.58059 3.95401 6.59816 3.9499C6.61663 3.94614 6.62031 3.95508 6.62435 3.97467C6.6647 4.15023 6.70505 4.32534 6.74576 4.50108C6.64703 4.52264 6.54831 4.54526 6.44967 4.56691C6.49011 4.37373 6.53019 4.18046 6.57045 3.98639ZM6.59816 3.66549C6.46097 3.69581 6.31445 3.75976 6.26862 3.96269C6.17026 4.40011 6.07171 4.83789 5.97325 5.27568C5.97379 5.28006 5.97047 5.28498 5.97119 5.28668C5.97047 5.30635 5.98562 5.31539 6.00508 5.31082C6.09771 5.28882 6.19007 5.26655 6.28279 5.24563C6.3027 5.24071 6.31812 5.22076 6.32261 5.19984C6.34646 5.085 6.36986 4.96945 6.39398 4.85453C6.52983 4.82314 6.6655 4.79273 6.80154 4.76357C6.82521 4.86803 6.84915 4.97267 6.87291 5.07668C6.87704 5.096 6.89264 5.10861 6.91317 5.10414C7.00563 5.08429 7.09861 5.06515 7.19178 5.04565C7.21169 5.04145 7.22523 5.02651 7.22523 5.00657C7.22559 5.00496 7.22343 5.0012 7.22343 4.99682C7.12435 4.6025 7.02544 4.20917 6.92725 3.8161C6.89488 3.68732 6.81247 3.64993 6.71859 3.64993C6.67958 3.64993 6.63842 3.65646 6.59816 3.66549Z" fill="white"/>
</mask>
<g mask="url(#mask12_371_27133)">
<path d="M5.1696 4.71839L6.4205 3.0498L8.02632 4.24725L6.77551 5.91592L5.1696 4.71839Z" fill="url(#paint1_linear_371_27133)"/>
</g>
<mask id="mask13_371_27133" style="mask-type:luminance" maskUnits="userSpaceOnUse" x="7" y="3" width="2" height="2">
<path d="M8.2686 3.35715C8.1983 3.35983 8.09831 3.36153 7.8823 3.40231C7.62468 3.45123 7.39548 3.5624 7.39548 3.92711V4.96366C7.39548 4.98611 7.41359 5.00033 7.43574 4.99595C7.52191 4.97877 7.60844 4.96142 7.69489 4.94425C7.71677 4.93996 7.73506 4.91885 7.73506 4.89676V4.31114C7.90705 4.27796 8.07966 4.2455 8.25228 4.21438C8.27362 4.21053 8.29254 4.18907 8.292 4.16733V3.97657C8.292 3.95421 8.27452 3.93936 8.25228 3.94366C8.07966 3.97433 7.90705 4.00725 7.73506 4.04043V3.85995C7.73506 3.75522 7.76886 3.71649 7.86266 3.69879C7.99806 3.67321 8.13293 3.64826 8.26851 3.62357C8.29048 3.61999 8.3085 3.59826 8.3085 3.5768V3.39006C8.30877 3.36564 8.29747 3.35706 8.27299 3.35706C8.27156 3.35706 8.27012 3.35706 8.2686 3.35715Z" fill="white"/>
</mask>
<g mask="url(#mask13_371_27133)">
<path d="M6.60527 4.4111L7.72301 2.92014L9.09892 3.94622L7.98126 5.43719L6.60527 4.4111Z" fill="url(#paint2_linear_371_27133)"/>
</g>
<mask id="mask14_371_27133" style="mask-type:luminance" maskUnits="userSpaceOnUse" x="8" y="3" width="2" height="2">
<path d="M9.12093 3.18455C8.81596 3.23248 8.52758 3.44131 8.52776 3.91907V4.17164C8.52758 4.64904 8.81641 4.75869 9.12093 4.71057C9.26117 4.68803 9.37765 4.65047 9.41971 4.62999C9.44822 4.61836 9.46418 4.60593 9.46418 4.5774V4.38297C9.46418 4.35945 9.45154 4.34425 9.42572 4.34791C9.42392 4.34854 9.42132 4.34917 9.41971 4.34917C9.34313 4.36696 9.23328 4.39451 9.12263 4.41159C8.98436 4.43404 8.87379 4.37922 8.87379 4.11288V3.86049C8.87379 3.59326 8.98436 3.5032 9.12263 3.48102C9.23319 3.46385 9.34313 3.45634 9.41971 3.45115C9.42132 3.45062 9.42437 3.44999 9.42572 3.44954C9.4519 3.44623 9.46418 3.42853 9.46418 3.40438V3.20977C9.46329 3.18124 9.44822 3.17614 9.41971 3.17256C9.40231 3.16916 9.37191 3.16684 9.33219 3.16684C9.27668 3.16684 9.20297 3.17158 9.12093 3.18455Z" fill="white"/>
</mask>
<g mask="url(#mask14_371_27133)">
<path d="M7.76219 4.18804L8.86352 2.71881L10.23 3.73774L9.12859 5.20697L7.76219 4.18804Z" fill="url(#paint3_linear_371_27133)"/>
</g>
<mask id="mask15_371_27133" style="mask-type:luminance" maskUnits="userSpaceOnUse" x="10" y="2" width="2" height="3">
<path d="M10.548 3.85177C10.6231 3.84256 10.6986 3.83362 10.7737 3.82432C10.9349 3.80589 10.9872 3.88245 10.9872 3.97877V4.00068C10.9872 4.11337 10.9204 4.18465 10.7128 4.20898C10.6848 4.21211 10.5799 4.22248 10.548 4.22677C10.548 4.10156 10.548 3.97716 10.548 3.85177ZM10.548 3.26687C10.576 3.26097 10.6685 3.24925 10.7006 3.2455C10.9082 3.22063 10.9792 3.26365 10.9792 3.37366V3.40388C10.9792 3.49037 10.9323 3.56755 10.7736 3.58597C10.6985 3.59492 10.623 3.60413 10.5479 3.61343C10.5479 3.49734 10.5479 3.38188 10.548 3.26687ZM10.6747 2.96825C10.546 2.98318 10.3829 3.0161 10.3143 3.03506C10.2357 3.05733 10.2078 3.08916 10.2078 3.17887V4.39831C10.2078 4.48882 10.2383 4.51091 10.3185 4.51457C10.3967 4.51842 10.5542 4.50885 10.6867 4.49257C11.0351 4.45134 11.3221 4.32551 11.3217 3.97269V3.94264C11.3217 3.80482 11.2492 3.70501 11.1424 3.66503C11.2488 3.60082 11.3111 3.48277 11.3116 3.35165V3.31552C11.3116 3.05259 11.1364 2.95609 10.8611 2.95609C10.8032 2.95609 10.7408 2.96038 10.6747 2.96825Z" fill="white"/>
</mask>
<g mask="url(#mask15_371_27133)">
<path d="M9.45663 3.95837L10.6074 2.42331L12.0732 3.51647L10.9225 5.05153L9.45663 3.95837Z" fill="url(#paint4_linear_371_27133)"/>
</g>
<mask id="mask16_371_27133" style="mask-type:luminance" maskUnits="userSpaceOnUse" x="11" y="2" width="2" height="3">
<path d="M11.869 3.72505V3.48591C11.869 3.24542 11.9477 3.13586 12.1174 3.1211C12.2875 3.10733 12.3673 3.2032 12.3677 3.44396V3.68239C12.3677 3.92342 12.287 4.0319 12.1174 4.04577C12.1064 4.04675 12.0957 4.04729 12.0854 4.04729C11.9377 4.04711 11.869 3.94989 11.869 3.72505ZM12.1173 2.82033C11.7844 2.84833 11.52 3.05402 11.52 3.51882V3.75797C11.52 4.22347 11.7839 4.3748 12.1173 4.34627C12.4506 4.31836 12.7151 4.12187 12.7155 3.6569V3.41785C12.7155 2.98605 12.4875 2.81729 12.1885 2.81729C12.1652 2.81729 12.1415 2.81828 12.1173 2.82033Z" fill="white"/>
</mask>
<g mask="url(#mask16_371_27133)">
<path d="M10.7712 3.81631L11.9488 2.24539L13.4646 3.37576L12.287 4.94659L10.7712 3.81631Z" fill="url(#paint5_linear_371_27133)"/>
</g>
<mask id="mask17_371_27133" style="mask-type:luminance" maskUnits="userSpaceOnUse" x="12" y="2" width="3" height="3">
<path d="M14.0816 2.71954C13.9938 2.72285 13.9061 2.72607 13.8182 2.73019C13.796 2.73072 13.7776 2.74807 13.7778 2.76954V3.66236C13.7778 3.86708 13.7216 3.95526 13.5391 3.96403C13.3574 3.97324 13.3027 3.89114 13.3027 3.6858V2.79377C13.3027 2.77177 13.2846 2.75675 13.2619 2.75764C13.1737 2.76265 13.0854 2.76793 12.9969 2.77392C12.9746 2.77499 12.9565 2.7927 12.9565 2.8139V3.70672C12.9564 4.16454 13.2176 4.26712 13.5391 4.25102C13.8606 4.23528 14.1244 4.10587 14.1241 3.64886V2.75621C14.1241 2.7343 14.104 2.71954 14.0826 2.71954C14.0826 2.71954 14.0817 2.71954 14.0816 2.71954Z" fill="white"/>
</mask>
<g mask="url(#mask17_371_27133)">
<path d="M12.2122 3.71219L13.3752 2.16095L14.8685 3.2745L13.7055 4.82575L12.2122 3.71219Z" fill="url(#paint6_linear_371_27133)"/>
</g>
<mask id="mask18_371_27133" style="mask-type:luminance" maskUnits="userSpaceOnUse" x="14" y="2" width="2" height="3">
<path d="M14.7439 3.36465V2.97963C14.768 2.97641 14.8733 2.97096 14.9018 2.96979C15.0718 2.96702 15.1667 3.0231 15.1667 3.145V3.17156C15.1667 3.30705 15.1001 3.36197 14.8871 3.36581C14.8794 3.36599 14.8623 3.36608 14.8425 3.36608C14.8053 3.36608 14.7582 3.36572 14.7439 3.36465ZM14.9018 2.67895C14.756 2.68128 14.5838 2.698 14.4907 2.71464C14.4288 2.726 14.3994 2.74478 14.3995 2.81337V4.15919C14.3995 4.1811 14.4183 4.19827 14.44 4.19764C14.5277 4.19541 14.6156 4.19335 14.703 4.1912C14.7254 4.19049 14.7434 4.17269 14.7439 4.15033V3.64145C14.7644 3.64082 14.7919 3.64136 14.8197 3.64181C14.8435 3.64234 14.8674 3.6427 14.8871 3.64234C14.8946 3.64145 14.9023 3.64082 14.9096 3.6402C15.0001 3.80717 15.0906 3.9754 15.1815 4.14362C15.1914 4.16402 15.1987 4.18324 15.2211 4.18324C15.3246 4.18217 15.4281 4.18217 15.5318 4.18163C15.554 4.18163 15.5621 4.17162 15.5621 4.15758C15.5621 4.15149 15.5597 4.14362 15.556 4.13549C15.4535 3.94678 15.3517 3.75915 15.25 3.57124C15.3978 3.51177 15.5116 3.38128 15.5112 3.1687V3.14294C15.5112 2.79567 15.2575 2.67886 14.9234 2.67886C14.9162 2.67886 14.909 2.67895 14.9018 2.67895Z" fill="white"/>
</mask>
<g mask="url(#mask18_371_27133)">
<path d="M13.6689 3.65341L14.8164 2.12265L16.2928 3.22359L15.1453 4.75427L13.6689 3.65341Z" fill="url(#paint7_linear_371_27133)"/>
</g>
<mask id="mask19_371_27133" style="mask-type:luminance" maskUnits="userSpaceOnUse" x="15" y="2" width="2" height="3">
<path d="M15.8512 2.69205C15.8097 2.69205 15.7756 2.72639 15.7756 2.76789V4.14143C15.7756 4.16405 15.7937 4.18221 15.8162 4.18221C15.8957 4.18274 15.9753 4.18328 16.055 4.18391C16.0771 4.18409 16.096 4.16674 16.0957 4.14465V3.33249C16.0957 3.31988 16.0995 3.31603 16.1054 3.31603C16.1113 3.31603 16.1159 3.31988 16.1235 3.33249C16.2778 3.59748 16.4316 3.86418 16.5852 4.13114C16.6176 4.18578 16.6483 4.195 16.6904 4.19616C16.7562 4.19768 16.8228 4.19938 16.8886 4.20153C16.9312 4.20322 16.9674 4.17058 16.9679 4.12783C16.9679 3.66939 16.9679 3.21032 16.9679 2.75242C16.9679 2.73015 16.9494 2.71297 16.9275 2.71253C16.8478 2.71029 16.7682 2.70761 16.6885 2.706C16.6666 2.70484 16.648 2.72067 16.648 2.74267V3.59087C16.649 3.60526 16.6419 3.60857 16.6378 3.60857C16.6322 3.60857 16.6293 3.60473 16.6221 3.59221C16.4618 3.31308 16.3018 3.03503 16.142 2.75733C16.1177 2.71467 16.0978 2.69428 16.057 2.69428C15.9887 2.69321 15.9204 2.69258 15.8523 2.69205C15.8522 2.69205 15.8514 2.69205 15.8512 2.69205Z" fill="white"/>
</mask>
<g mask="url(#mask19_371_27133)">
<path d="M15.0491 3.66141L16.2032 2.1218L17.6947 3.23401L16.5405 4.77362L15.0491 3.66141Z" fill="url(#paint8_linear_371_27133)"/>
</g>
<mask id="mask20_371_27133" style="mask-type:luminance" maskUnits="userSpaceOnUse" x="17" y="2" width="2" height="3">
<path d="M17.2435 3.13532V3.80089C17.2435 4.16614 17.4738 4.24118 17.7354 4.25477C17.9539 4.26532 18.057 4.25638 18.1279 4.2503C18.1562 4.24824 18.1675 4.23724 18.1675 4.21041V4.02421C18.1675 4.0023 18.15 3.98271 18.1279 3.98155C17.9908 3.97377 17.8542 3.96554 17.7172 3.95847C17.6216 3.95409 17.5873 3.92073 17.5881 3.81547V3.6036C17.7624 3.61173 17.9373 3.6213 18.1117 3.63159C18.1338 3.6332 18.152 3.61656 18.152 3.59429V3.4038C18.152 3.3818 18.1338 3.36248 18.1117 3.36087C17.9373 3.34996 17.7624 3.34102 17.5881 3.33288V3.15025C17.5881 3.04624 17.6222 3.01538 17.7172 3.0203C17.8542 3.02737 17.9908 3.03497 18.1279 3.04347C18.1496 3.04454 18.1682 3.02799 18.1675 3.00599V2.81872C18.1675 2.79314 18.1562 2.7825 18.1279 2.7765C18.0575 2.76184 17.9556 2.73984 17.7375 2.72875C17.7143 2.72749 17.6915 2.72687 17.6689 2.72687C17.437 2.72687 17.2435 2.80235 17.2435 3.13532Z" fill="white"/>
</mask>
<g mask="url(#mask20_371_27133)">
<path d="M16.5038 3.71377L17.5752 2.28461L18.9081 3.27858L17.8367 4.70775L16.5038 3.71377Z" fill="url(#paint9_linear_371_27133)"/>
</g>
<mask id="mask21_371_27133" style="mask-type:luminance" maskUnits="userSpaceOnUse" x="18" y="2" width="2" height="3">
<path d="M18.4219 2.85601V4.24994C18.421 4.2714 18.4406 4.279 18.4564 4.27999C18.5453 4.28616 18.6339 4.29278 18.7231 4.29939C18.7411 4.30109 18.7554 4.28392 18.7554 4.26112V3.42535C18.7554 3.41149 18.7615 3.40988 18.7652 3.40988C18.7711 3.4105 18.776 3.41533 18.7816 3.42535C18.8422 3.54027 18.9028 3.65591 18.9632 3.77075C18.9777 3.79543 18.9976 3.80723 19.024 3.80992C19.0777 3.81421 19.1316 3.81832 19.1855 3.82324C19.212 3.82593 19.2322 3.81716 19.2467 3.79498C19.3067 3.68945 19.3672 3.5849 19.4278 3.48026C19.434 3.47096 19.4383 3.4672 19.4439 3.4672C19.4485 3.46783 19.4544 3.47096 19.4544 3.48429V4.32059C19.4544 4.34348 19.4684 4.36218 19.4864 4.36441C19.5755 4.37228 19.6639 4.38087 19.7525 4.39017C19.7689 4.39178 19.7876 4.38802 19.787 4.3654V2.97361C19.7879 2.93158 19.7567 2.90055 19.7148 2.89643C19.6514 2.8899 19.5879 2.88337 19.5248 2.87747C19.4819 2.87372 19.4545 2.89107 19.4359 2.92398C19.3331 3.10473 19.2299 3.28592 19.1268 3.4672C19.1191 3.48277 19.1131 3.49251 19.1053 3.49144C19.0974 3.49144 19.0911 3.48026 19.0832 3.4639C18.9797 3.26472 18.8772 3.06582 18.7741 2.86746C18.7557 2.83123 18.7274 2.80977 18.6848 2.80655C18.6217 2.8019 18.5584 2.79698 18.495 2.79269C18.4927 2.79251 18.4901 2.79242 18.4876 2.79242C18.4487 2.79242 18.4215 2.81648 18.4219 2.85601Z" fill="white"/>
</mask>
<g mask="url(#mask21_371_27133)">
<path d="M17.6523 3.81826L18.9112 2.13895L20.5564 3.36581L19.2975 5.04513L17.6523 3.81826Z" fill="url(#paint10_linear_371_27133)"/>
</g>
<mask id="mask22_371_27133" style="mask-type:luminance" maskUnits="userSpaceOnUse" x="20" y="2" width="2" height="3">
<path d="M20.6298 4.20521C20.4604 4.18419 20.3815 4.07311 20.3815 3.83307V3.59401C20.3824 3.35343 20.4605 3.25988 20.6298 3.28117C20.7988 3.30147 20.8792 3.41434 20.8792 3.65483V3.89397C20.8792 4.11264 20.8123 4.20798 20.6733 4.20798C20.6597 4.20798 20.645 4.207 20.6298 4.20521ZM20.0332 3.55502V3.7939C20.0332 4.25923 20.2976 4.46519 20.6296 4.50624C20.9614 4.54712 21.2253 4.40518 21.2253 3.93985V3.70106C21.2253 3.23582 20.9619 3.02047 20.6296 2.98004C20.5952 2.97584 20.5617 2.9736 20.5291 2.9736C20.2455 2.9736 20.0332 3.13789 20.0332 3.55502Z" fill="white"/>
</mask>
<g mask="url(#mask22_371_27133)">
<path d="M19.2762 3.98288L20.4604 2.40311L21.9819 3.53776L20.7978 5.11745L19.2762 3.98288Z" fill="url(#paint11_linear_371_27133)"/>
</g>
<mask id="mask23_371_27133" style="mask-type:luminance" maskUnits="userSpaceOnUse" x="21" y="3" width="2" height="2">
<path d="M21.4649 3.14674V4.0393C21.4658 4.49703 21.7249 4.65327 22.0433 4.70371C22.362 4.75433 22.6227 4.67912 22.6227 4.22193V3.32919C22.6227 3.3071 22.6023 3.28778 22.5804 3.2843C22.4939 3.26909 22.407 3.25469 22.3205 3.24056C22.2981 3.23618 22.2802 3.24977 22.2802 3.27186V4.16451C22.2802 4.36923 22.2243 4.44578 22.0434 4.41699C21.863 4.38855 21.8089 4.29455 21.8089 4.08983V3.19763C21.8089 3.17554 21.7909 3.15694 21.7687 3.15309C21.6812 3.14031 21.593 3.12725 21.5053 3.11446C21.5032 3.1141 21.5009 3.11392 21.4989 3.11392C21.4797 3.11392 21.4649 3.12716 21.4649 3.14674Z" fill="white"/>
</mask>
<g mask="url(#mask23_371_27133)">
<path d="M20.6761 4.16604L21.88 2.56006L23.4115 3.70205L22.2075 5.30803L20.6761 4.16604Z" fill="url(#paint12_linear_371_27133)"/>
</g>
<mask id="mask24_371_27133" style="mask-type:luminance" maskUnits="userSpaceOnUse" x="22" y="3" width="2" height="2">
<path d="M22.805 3.36086V3.56745C22.8059 3.58972 22.8228 3.60904 22.8458 3.61279C22.9541 3.63265 23.0626 3.65197 23.1714 3.67263V4.83903C23.1714 4.86157 23.1894 4.8825 23.2115 4.88679C23.2989 4.90352 23.3859 4.92033 23.4728 4.93679C23.495 4.9409 23.5132 4.92686 23.5127 4.90396V3.73729C23.6202 3.75839 23.7284 3.77995 23.8361 3.80141C23.8578 3.80633 23.8784 3.79444 23.8778 3.7719V3.56468C23.8778 3.54339 23.8581 3.52309 23.8361 3.5188C23.5068 3.45154 23.1764 3.38939 22.8456 3.33018C22.8426 3.32964 22.8398 3.32938 22.8371 3.32938C22.8191 3.32938 22.8057 3.34172 22.805 3.36086Z" fill="white"/>
</mask>
<g mask="url(#mask24_371_27133)">
<path d="M22.0302 4.36317L23.1899 2.81604L24.6534 3.90732L23.4937 5.45445L22.0302 4.36317Z" fill="url(#paint13_linear_371_27133)"/>
</g>
<mask id="mask25_371_27133" style="mask-type:luminance" maskUnits="userSpaceOnUse" x="24" y="3" width="2" height="3">
<path d="M24.0664 3.60413V5.01639C24.0664 5.03857 24.0838 5.06004 24.1059 5.06478C24.1932 5.08284 24.2801 5.10172 24.3666 5.12059C24.3881 5.1247 24.4065 5.11084 24.4065 5.08884V4.50939C24.5705 4.54481 24.7336 4.58121 24.8975 4.61895V5.19839C24.8975 5.22093 24.9157 5.24293 24.937 5.24839C25.0237 5.26824 25.1104 5.2889 25.1971 5.30929C25.2184 5.31448 25.2363 5.30062 25.2363 5.27862V3.86644C25.2363 3.84471 25.2184 3.82432 25.1971 3.81886C25.1103 3.79874 25.0235 3.77844 24.937 3.7585C24.915 3.75322 24.8971 3.76538 24.8975 3.78694V4.32006C24.7337 4.28285 24.5705 4.24609 24.4065 4.2105V3.67675C24.4065 3.65475 24.389 3.6349 24.3666 3.63007C24.2801 3.61129 24.193 3.59224 24.1059 3.57453C24.1025 3.57381 24.0996 3.57346 24.0965 3.57346C24.0791 3.57346 24.0664 3.58535 24.0664 3.60413Z" fill="white"/>
</mask>
<g mask="url(#mask25_371_27133)">
<path d="M23.2292 4.69028L24.486 3.01373L26.074 4.19776L24.817 5.8743L23.2292 4.69028Z" fill="url(#paint14_linear_371_27133)"/>
</g>
<defs>
<linearGradient id="paint0_linear_371_27133" x1="11.5475" y1="27.5239" x2="20.9217" y2="3.11945" gradientUnits="userSpaceOnUse">
<stop stop-color="#8B0304"/>
<stop offset="1" stop-color="#ED1C24"/>
</linearGradient>
<linearGradient id="paint1_linear_371_27133" x1="7.08911" y1="4.8535" x2="17.8198" y2="12.8976" gradientUnits="userSpaceOnUse">
<stop stop-color="#A8996E"/>
<stop offset="0.4417" stop-color="#FFE5C7"/>
<stop offset="1" stop-color="#A8996E"/>
</linearGradient>
<linearGradient id="paint2_linear_371_27133" x1="7.69498" y1="4.05143" x2="18.4242" y2="12.0944" gradientUnits="userSpaceOnUse">
<stop stop-color="#A8996E"/>
<stop offset="0.4417" stop-color="#FFE5C7"/>
<stop offset="1" stop-color="#A8996E"/>
</linearGradient>
<linearGradient id="paint3_linear_371_27133" x1="8.20656" y1="3.36408" x2="18.9737" y2="11.4354" gradientUnits="userSpaceOnUse">
<stop stop-color="#A8996E"/>
<stop offset="0.4417" stop-color="#FFE5C7"/>
<stop offset="1" stop-color="#A8996E"/>
</linearGradient>
<linearGradient id="paint4_linear_371_27133" x1="8.95214" y1="2.38005" x2="19.6439" y2="10.3949" gradientUnits="userSpaceOnUse">
<stop stop-color="#A8996E"/>
<stop offset="0.4417" stop-color="#FFE5C7"/>
<stop offset="1" stop-color="#A8996E"/>
</linearGradient>
<linearGradient id="paint5_linear_371_27133" x1="9.49467" y1="1.64117" x2="20.222" y2="9.68277" gradientUnits="userSpaceOnUse">
<stop stop-color="#A8996E"/>
<stop offset="0.4417" stop-color="#FFE5C7"/>
<stop offset="1" stop-color="#A8996E"/>
</linearGradient>
<linearGradient id="paint6_linear_371_27133" x1="10.0743" y1="0.900205" x2="20.7604" y2="8.91079" gradientUnits="userSpaceOnUse">
<stop stop-color="#A8996E"/>
<stop offset="0.4417" stop-color="#FFE5C7"/>
<stop offset="1" stop-color="#A8996E"/>
</linearGradient>
<linearGradient id="paint7_linear_371_27133" x1="10.5994" y1="0.166062" x2="21.324" y2="8.20554" gradientUnits="userSpaceOnUse">
<stop stop-color="#A8996E"/>
<stop offset="0.4417" stop-color="#FFE5C7"/>
<stop offset="1" stop-color="#A8996E"/>
</linearGradient>
<linearGradient id="paint8_linear_371_27133" x1="11.076" y1="-0.503858" x2="21.8443" y2="7.56834" gradientUnits="userSpaceOnUse">
<stop stop-color="#A8996E"/>
<stop offset="0.4417" stop-color="#FFE5C7"/>
<stop offset="1" stop-color="#A8996E"/>
</linearGradient>
<linearGradient id="paint9_linear_371_27133" x1="11.5508" y1="-1.09135" x2="22.2773" y2="6.94959" gradientUnits="userSpaceOnUse">
<stop stop-color="#A8996E"/>
<stop offset="0.4417" stop-color="#FFE5C7"/>
<stop offset="1" stop-color="#A8996E"/>
</linearGradient>
<linearGradient id="paint10_linear_371_27133" x1="11.9788" y1="-1.72572" x2="22.744" y2="6.34427" gradientUnits="userSpaceOnUse">
<stop stop-color="#A8996E"/>
<stop offset="0.4417" stop-color="#FFE5C7"/>
<stop offset="1" stop-color="#A8996E"/>
</linearGradient>
<linearGradient id="paint11_linear_371_27133" x1="12.4684" y1="-2.32387" x2="23.1969" y2="5.71851" gradientUnits="userSpaceOnUse">
<stop stop-color="#A8996E"/>
<stop offset="0.4417" stop-color="#FFE5C7"/>
<stop offset="1" stop-color="#A8996E"/>
</linearGradient>
<linearGradient id="paint12_linear_371_27133" x1="12.8675" y1="-2.91522" x2="23.6312" y2="5.1536" gradientUnits="userSpaceOnUse">
<stop stop-color="#A8996E"/>
<stop offset="0.4417" stop-color="#FFE5C7"/>
<stop offset="1" stop-color="#A8996E"/>
</linearGradient>
<linearGradient id="paint13_linear_371_27133" x1="13.2882" y1="-3.35892" x2="23.9791" y2="4.65541" gradientUnits="userSpaceOnUse">
<stop stop-color="#A8996E"/>
<stop offset="0.4417" stop-color="#FFE5C7"/>
<stop offset="1" stop-color="#A8996E"/>
</linearGradient>
<linearGradient id="paint14_linear_371_27133" x1="13.6237" y1="-3.78618" x2="24.3148" y2="4.2282" gradientUnits="userSpaceOnUse">
<stop stop-color="#A8996E"/>
<stop offset="0.4417" stop-color="#FFE5C7"/>
<stop offset="1" stop-color="#A8996E"/>
</linearGradient>
</defs>
</svg>
