<svg width="32" height="32" viewBox="0 0 32 32" fill="none" xmlns="http://www.w3.org/2000/svg">
<g opacity="0.8">
<path d="M16.0143 29.5246C23.4812 29.5246 29.5343 23.4737 29.5343 16.0094C29.5343 8.54517 23.4812 2.4942 16.0143 2.4942C8.54746 2.4942 2.49437 8.54517 2.49437 16.0094C2.49437 23.4737 8.54746 29.5246 16.0143 29.5246Z" fill="white"/>
<path d="M18.3653 13.5178L23.2368 11.5452L22.3962 12.895L18.3745 13.8293L18.3653 13.5178ZM18.3653 14.0476V14.2649H24.2376L22.34 13.2267L18.3653 14.0476ZM24.804 12.0186C24.7758 11.9808 24.7192 11.9525 24.5214 11.896L23.5111 11.6318C23.5111 11.6222 22.6329 13.0663 22.6329 13.0663L24.2853 13.9441L24.7479 12.3192C24.8231 12.1115 24.8419 12.0645 24.804 12.0172V12.0186ZM7.2341 12.3192L7.69667 13.9441L9.34903 13.0663C9.34903 13.0663 8.4709 11.6198 8.4709 11.6304L7.46061 11.8946C7.26237 11.9511 7.20583 11.9794 7.17792 12.0172C7.15848 12.0645 7.17721 12.1115 7.2341 12.3192ZM9.66035 13.2157L7.76275 14.2444H13.6351V14.0367L9.66035 13.2157ZM18.3653 14.4811L18.3557 14.6888L20.8011 15.0851L22.3305 14.4715H18.3653V14.4811ZM18.3653 14.8869V15.1042C18.3653 15.1137 20.2063 16.1046 20.2063 16.1046C20.2063 16.1046 20.4802 16.2554 20.5746 16.284C20.6932 16.3017 20.8133 16.3079 20.9332 16.3028L21.6601 16.265C21.6601 16.265 20.6594 15.3493 20.6781 15.3589C20.6972 15.3582 18.3653 14.8862 18.3653 14.8862V14.8869ZM23.0386 14.7637L22.7177 14.6033L21.0569 15.3017L21.9442 16.1494L23.0397 15.0639C23.1153 14.9791 23.1718 14.9318 23.1623 14.8845C23.152 14.8484 23.1234 14.811 23.0386 14.7637ZM8.85784 14.8771C8.85784 14.9244 8.90519 14.9714 8.98046 15.0565L10.0759 16.142L10.9632 15.2942L9.30238 14.5959L8.98152 14.7562C8.89742 14.811 8.85784 14.8484 8.85784 14.8771ZM13.6541 13.5181L8.78222 11.5452L9.62254 12.895L13.6446 13.8293L13.6541 13.5181ZM9.68862 14.4811L11.218 15.0947L13.6633 14.6983L13.6538 14.4906H9.68862V14.4811ZM11.3495 15.3493C11.3777 15.3398 10.3674 16.2554 10.3674 16.2554L11.0943 16.2932C11.0943 16.2932 11.3116 16.3119 11.453 16.2745C11.5378 16.2558 11.8212 16.095 11.8212 16.095C11.8212 16.095 13.6623 15.1042 13.6623 15.0947V14.8774C13.6541 14.8862 11.3219 15.3582 11.3505 15.3486L11.3495 15.3493ZM18.3077 13.1786L19.8653 11.4986L20.8661 10.281L20.9226 9.95067L20.8187 9.85636L20.6961 10.234L18.0812 12.6028C18.0907 12.6216 18.3077 13.1786 18.3077 13.1786ZM20.3113 18.7748C20.283 18.737 19.4332 16.4907 19.4332 16.4907C19.2918 16.1321 19.1688 16.0668 18.9141 15.9255L18.3289 15.5574L18.3006 15.5952L18.972 16.5013V17.8224L21.1435 20.5777C21.4361 20.9458 21.4552 21.0684 21.8799 21.0684L22.1418 20.9455L21.6414 20.8607C21.6509 20.8702 20.348 18.8119 20.3102 18.7765M11.7187 18.7765C11.6905 18.8143 10.3876 20.8716 10.3876 20.8716L9.88686 20.955L10.1512 21.0776C10.5855 21.0776 10.595 20.955 10.8876 20.5869L13.0591 17.8316L13.0686 16.5105L13.74 15.6044L13.7117 15.5666L13.1266 15.9347C12.8718 16.076 12.7488 16.1424 12.6075 16.4999C12.5979 16.4903 11.7594 18.7366 11.7201 18.7744M12.164 11.4884L13.7216 13.1684C13.7216 13.1684 13.939 12.6117 13.9481 12.5926L11.3424 10.2333L11.2198 9.85565L11.1159 9.94997L11.1724 10.2803L12.164 11.4884ZM18.6391 16.6228V19.3693L17.7317 20.9077L16.4949 21.8516L16.0228 22.4556L15.5408 21.8516L14.2944 20.9077L13.3881 19.3693V16.6228L14.2008 15.4808L13.9269 15.3013V13.4997L14.3157 12.3672L14.6365 12.1786C14.6365 12.1786 14.6552 11.6487 14.7687 11.5074C14.8535 11.394 15.269 11.2619 15.269 11.2619L15.4768 10.9793L14.7404 9.92241L14.0135 9.52607L13.7768 9.25301L14.1354 9.3664L14.9001 9.80054L15.6366 10.8483L16.0143 10.754L16.3825 10.8483L17.1285 9.80054L17.8932 9.3664L18.2518 9.25301L18.0144 9.52572L17.2875 9.92206L16.562 10.9885L16.7603 11.2623C16.7603 11.2623 17.1758 11.4036 17.2606 11.5078C17.3645 11.6491 17.3928 12.179 17.3928 12.179L17.7137 12.3676L18.1024 13.5001V15.3017L17.8458 15.4702L18.6391 16.6228ZM17.0136 14.2914V15.1692L17.514 14.0462L16.0048 13.386L14.5697 13.8862L14.5793 13.9335L16.0048 13.7732L17.0136 14.2914ZM16.6468 11.867L17.1377 12.0652L16.749 11.3587L16.6468 11.867ZM14.88 12.0747L15.3804 11.8861L15.2669 11.3672L14.88 12.0747ZM14.1909 13.4619L15.2228 12.9137H16.809L17.8377 13.4612L17.7232 13.1387L16.9868 12.5251L17.6476 12.7516L17.572 12.5251C17.572 12.5251 16.8652 12.1758 16.8543 12.1475H15.1835C15.174 12.1758 14.4658 12.5251 14.4658 12.5251L14.3902 12.7516L15.051 12.5251L14.3149 13.1387L14.1909 13.4619ZM18.0914 19.7656L16.8642 20.1998H15.1553L13.9467 19.7656L14.3708 20.5113L15.3811 20.8794L14.6743 20.8607L15.6373 21.5969H16.3832L17.3462 20.8607L16.6394 20.8794L17.6497 20.5113L18.0914 19.7656ZM15.0701 19.2004H16.949L17.8271 18.5293L17.8176 18.501L16.8546 18.8504H15.174L14.2111 18.501L14.2015 18.5293L15.0701 19.2004ZM18.3367 16.6995L16.8921 16.8694L17.9875 16.2653L17.555 15.6602L16.932 16.0756H15.0984L14.4941 15.6697L14.0602 16.2643L15.1365 16.8683L13.692 16.6889V17.4628L14.6266 17.8122H17.4023L18.337 17.4628V16.6984L18.3367 16.6995ZM29.6003 16C29.6003 8.50625 23.5012 2.40002 15.9956 2.40002C8.48998 2.40002 2.39999 8.50625 2.39999 16C2.39999 23.4938 8.49917 29.6 16.0048 29.6C23.5104 29.6 29.6003 23.4938 29.6003 16ZM29.2795 16C29.2795 23.3144 23.322 29.2697 16.0051 29.2697C8.68822 29.2697 2.72121 23.3144 2.72121 16C2.72121 8.6857 8.67868 2.73031 16.0048 2.73031C23.3308 2.73031 29.2791 8.6857 29.2791 16H29.2795ZM9.27341 11.4509C10.0189 10.351 11.0235 9.45116 12.1988 8.83069C13.374 8.21023 14.6839 7.88815 16.013 7.89283C17.342 7.89751 18.6496 8.22879 19.8204 8.85751C20.9913 9.48623 21.9895 10.3931 22.7273 11.4982L23.039 11.3661C21.5279 9.09158 18.9127 7.56273 15.986 7.56273C13.0594 7.56273 10.4819 9.05378 8.96173 11.3283L9.27341 11.4509ZM7.68713 14.4811C7.59542 14.9821 7.55105 15.4907 7.55461 16C7.55461 20.653 11.3406 24.4373 15.9949 24.4373C20.6491 24.4373 24.4358 20.653 24.4358 16C24.4369 15.4871 24.3896 14.9752 24.2945 14.4712H23.9641C24.0592 14.9752 24.1065 15.4871 24.1054 16C24.1054 20.4735 20.4611 24.107 15.9956 24.107C11.53 24.107 7.86805 20.4735 7.86805 16C7.86698 15.4904 7.91431 14.9818 8.0094 14.4811H7.68713Z" fill="#0F0F0F"/>
<path d="M14.304 13.1495L15.0404 12.5359L14.3796 12.7624L14.4553 12.5359C14.4553 12.5359 15.162 12.1866 15.173 12.1583H16.8441C16.8536 12.1866 17.5617 12.5359 17.5617 12.5359L17.6374 12.7624L16.9766 12.5359L17.713 13.1495L17.8264 13.4703L16.7974 12.9228H15.2118L14.1828 13.4703L14.304 13.1495ZM18.0915 19.7655L16.8642 20.1996H15.1553L13.9468 19.7655L14.3708 20.5112L15.3811 20.8793L14.6744 20.8606L15.6373 21.5967H16.3833L17.3462 20.8606L16.6395 20.8793L17.6497 20.5112L18.0915 19.7655ZM18.337 16.6983L16.8925 16.8682L17.9879 16.2641L17.555 15.6601L16.932 16.0755H15.0984L14.4941 15.6696L14.0602 16.2641L15.1366 16.8682L13.692 16.6887V17.4627L14.6267 17.812H17.4024L18.337 17.4627V16.6983Z" fill="#FFB400"/>
<path d="M19.5643 10.9886V8.89347L19.7152 8.97825V10.8469L19.5643 10.9886ZM19.5643 18.9257V23.0233L19.7152 22.9386V19.1712L19.5643 18.9257ZM19.7152 12.7251V11.9702L19.5643 12.1497V12.7915L19.7152 12.7251ZM19.7152 16.5851V16.0661L19.5643 15.9718V16.2827L19.7152 16.5851ZM17.3264 9.44948V8.23254L17.1755 8.20428V9.53567L17.3264 9.44948ZM17.1755 21.681V23.7952L17.3264 23.7669V21.5496L17.1755 21.681ZM17.1755 10.4312V11.1959L17.3264 11.2715V10.2068L17.1755 10.4312ZM22.1227 11.7523V10.9603L21.9721 10.8282V11.8191L22.1227 11.7523ZM21.9623 16.4152V20.6629L22.1131 20.6912V16.406L21.9623 16.4152ZM12.5117 10.9886V8.89347L12.3608 8.97825V10.8469L12.5117 10.9886ZM12.3605 19.1712V22.9368L12.5114 23.0216V18.9239L12.3605 19.1712ZM12.5114 12.7912V12.1497L12.3605 11.9702V12.7251L12.5114 12.7912ZM12.5114 16.283V15.9718L12.3605 16.0661V16.5851L12.5114 16.283ZM14.9001 9.53603V8.20428L14.7493 8.23254V9.45019L14.9001 9.53603ZM14.7588 21.5598V23.7779L14.9097 23.8061V21.6912L14.7588 21.5598ZM14.7588 10.2061V11.2726L14.9097 11.197V10.4319L14.7588 10.2061ZM10.1042 11.8095V10.8187L9.95331 10.9508V11.7435L10.1042 11.8095ZM9.97204 16.4056V20.6905L10.1229 20.6622V16.4155L9.97204 16.4056Z" fill="#E5E5E5"/>
<path d="M8.26129 9.11989C8.12913 9.0065 7.97859 9.06337 7.86481 9.19549L7.66833 9.42969L8.07436 9.76952L8.26306 9.54308C8.37649 9.40284 8.39522 9.23329 8.26129 9.11989Z" fill="#D20000"/>
<path d="M14.8058 27.0235L15.1549 27.0613L15.0323 26.5707L14.8058 27.0235Z" fill="#D20000"/>
<path d="M13.4464 26.1646L13.2291 26.108L13.1348 26.4383L13.3425 26.4948C13.4464 26.5231 13.5503 26.4761 13.5786 26.3723C13.6069 26.2493 13.5312 26.1833 13.4464 26.1646Z" fill="#D20000"/>
<path d="M7.24328 8.69524L7.05458 8.92167L7.40406 9.21416L7.58358 8.99691C7.67793 8.88352 7.67793 8.74222 7.56485 8.64755C7.45106 8.54405 7.3189 8.61011 7.24328 8.69524Z" fill="#D20000"/>
<path d="M5.49684 15.8017C5.54192 15.8017 5.58515 15.7838 5.61703 15.752C5.6489 15.7201 5.66681 15.6769 5.66681 15.6318C5.66681 15.5868 5.6489 15.5435 5.61703 15.5117C5.58515 15.4798 5.54192 15.4619 5.49684 15.4619C5.45365 15.4647 5.41315 15.4838 5.38355 15.5154C5.35395 15.5469 5.33748 15.5886 5.33748 15.6318C5.33748 15.6751 5.35395 15.7167 5.38355 15.7483C5.41315 15.7798 5.45365 15.799 5.49684 15.8017Z" fill="#D20000"/>
<path d="M10.1985 24.6827C9.98122 24.5414 9.68863 24.598 9.52714 24.8622C9.35717 25.1264 9.43279 25.4002 9.64976 25.5418C9.86673 25.6835 10.1597 25.6266 10.3212 25.3719C10.4911 25.1073 10.4251 24.8244 10.1985 24.6827Z" fill="#D20000"/>
<path d="M13.2951 26.7388L13.0672 26.6745L12.9633 27.0521L13.1806 27.1086C13.3128 27.1464 13.4354 27.0991 13.4732 26.9765C13.5029 26.8631 13.4181 26.778 13.2951 26.7388Z" fill="#D20000"/>
<path d="M5.49689 16C5.44685 16.0018 5.39844 16.0182 5.3577 16.0474C5.31696 16.0765 5.2857 16.1169 5.2678 16.1637C5.2499 16.2104 5.24616 16.2614 5.25705 16.3103C5.26793 16.3591 5.29296 16.4037 5.32902 16.4385C5.36507 16.4732 5.41056 16.4966 5.45981 16.5056C5.50905 16.5147 5.55988 16.5091 5.60596 16.4895C5.65204 16.4699 5.69134 16.4372 5.71894 16.3954C5.74655 16.3537 5.76125 16.3047 5.76121 16.2546C5.76109 16.2204 5.7541 16.1866 5.74065 16.1551C5.7272 16.1236 5.70757 16.0952 5.68293 16.0714C5.65828 16.0477 5.62911 16.0291 5.59716 16.0168C5.5652 16.0046 5.53111 15.9988 5.49689 16Z" fill="#D20000"/>
<path d="M9.39603 7.01519C9.30168 6.90179 9.15044 6.88307 9.01828 6.98693L8.79141 7.17556L9.12181 7.58144L9.33914 7.41153C9.47165 7.29814 9.49038 7.13776 9.39603 7.01519Z" fill="#D20000"/>
<path d="M24.5872 9.44063C24.842 9.19512 24.9176 8.82704 24.625 8.54409L24.4077 8.32684L23.4635 9.25306L23.6712 9.46077C23.9638 9.75219 24.332 9.68614 24.5872 9.44063Z" fill="#D20000"/>
<path d="M26.2013 15.7923C26.2464 15.7923 26.2896 15.7744 26.3215 15.7425C26.3533 15.7106 26.3712 15.6674 26.3712 15.6224C26.3712 15.5773 26.3533 15.5341 26.3215 15.5022C26.2896 15.4704 26.2464 15.4525 26.2013 15.4525C26.1794 15.4526 26.1578 15.4571 26.1378 15.4658C26.1177 15.4745 26.0997 15.4872 26.0847 15.5031C26.0697 15.519 26.0581 15.5377 26.0505 15.5582C26.043 15.5787 26.0397 15.6006 26.0408 15.6224C26.0408 15.7262 26.1066 15.7923 26.2013 15.7923Z" fill="#D20000"/>
<path d="M26.2013 16C26.1512 16.0018 26.1028 16.0183 26.0621 16.0474C26.0213 16.0765 25.9901 16.117 25.9722 16.1637C25.9543 16.2105 25.9505 16.2615 25.9614 16.3103C25.9723 16.3592 25.9973 16.4038 26.0334 16.4385C26.0694 16.4733 26.1149 16.4966 26.1642 16.5057C26.2134 16.5148 26.2642 16.5092 26.3103 16.4896C26.3564 16.47 26.3957 16.4373 26.4233 16.3955C26.4509 16.3537 26.4656 16.3048 26.4656 16.2547C26.4662 16.2203 26.4597 16.1861 26.4465 16.1543C26.4334 16.1224 26.4138 16.0937 26.389 16.0698C26.3641 16.0459 26.3347 16.0273 26.3024 16.0153C26.2701 16.0033 26.2357 15.9981 26.2013 16Z" fill="#D20000"/>
<path d="M27.5137 15.4619C27.3533 15.4619 27.2589 15.5845 27.2589 15.7261C27.2578 15.7603 27.2635 15.7944 27.2758 15.8264C27.2881 15.8583 27.3067 15.8875 27.3304 15.9121C27.3542 15.9368 27.3826 15.9564 27.4141 15.9698C27.4456 15.9833 27.4795 15.9902 27.5137 15.9904C27.6741 15.9904 27.7685 15.8678 27.7685 15.7261C27.7674 15.576 27.6649 15.4619 27.5137 15.4619Z" fill="#D20000"/>
<path d="M22.8403 7.25102C22.9251 7.13763 22.9159 6.9868 22.7742 6.88294L22.5375 6.70349L22.2258 7.12739L22.4523 7.2973C22.4801 7.3214 22.5126 7.33943 22.5478 7.35022C22.583 7.36102 22.62 7.36434 22.6565 7.35999C22.6931 7.35563 22.7283 7.34369 22.7599 7.32492C22.7916 7.30616 22.819 7.28098 22.8403 7.25102Z" fill="#D20000"/>
<path d="M19.9608 6.78885C20.2817 6.92097 20.6407 6.78885 20.8011 6.41123C20.9616 6.03361 20.8011 5.67507 20.4803 5.54295C20.1594 5.41084 19.8004 5.54295 19.64 5.93152C19.4792 6.29784 19.64 6.65674 19.9608 6.78885Z" fill="#D20000"/>
<path d="M16.0142 3.06067C8.87614 3.06067 3.08086 8.86487 3.08086 15.9895C3.08086 23.1251 8.88709 28.9183 16.0142 28.9183C23.1523 28.9183 28.9476 23.1141 28.9476 15.9895C28.9476 8.86487 23.1424 3.06067 16.0142 3.06067ZM24.8697 8.29932C25.3323 8.77126 25.2379 9.36577 24.8792 9.71513C24.5297 10.0645 23.9068 10.1871 23.3968 9.67733L22.9262 9.20469L24.3612 7.78888L24.8697 8.29932ZM23.0191 6.63906C23.3399 6.88457 23.3686 7.23357 23.1795 7.48685C23.11 7.58168 23.0127 7.65258 22.9011 7.68979C22.7895 7.72699 22.6691 7.72866 22.5565 7.69456L22.4339 8.71368L22.0452 8.42119L22.1774 7.52465L22.0265 7.41126L21.548 8.04392L21.2271 7.79841L22.4357 6.19397L23.0191 6.63906ZM19.2716 5.76937C19.5076 5.21265 20.0928 4.96714 20.631 5.19357C21.1692 5.42 21.4148 6.00604 21.1787 6.56205C20.9427 7.11806 20.3575 7.35474 19.8193 7.12725C19.2808 6.91141 19.0355 6.32644 19.2716 5.76937ZM17.78 4.38217L18.979 4.6086L18.9129 4.94842L18.1104 4.79758L18.0143 5.27871L18.6578 5.40269L18.5917 5.74252L17.9496 5.61994L17.7892 6.43241L17.3927 6.35681L17.78 4.38217ZM15.1838 4.25959L16.8446 4.26913V4.61849H16.2121L16.2026 6.27875H15.7973L15.8068 4.61849H15.1743L15.1838 4.25959ZM13.0123 4.65593L14.2205 5.68529L13.9378 4.43939L14.3336 4.34295L14.7866 6.30595L14.4188 6.39179L13.2198 5.37267L13.5025 6.60903L13.106 6.70335L12.653 4.74036L13.0123 4.65593ZM11.5123 5.13705L11.6632 5.44862L10.9267 5.79798L11.1345 6.24166L11.7197 5.95906L11.8706 6.27062L11.2854 6.55322L11.4932 6.98736L12.2484 6.62881L12.3992 6.94038L11.2759 7.47837L10.4073 5.66622L11.5123 5.13705ZM8.84045 6.69416C9.15212 6.43947 9.50125 6.49599 9.69949 6.75068C9.77467 6.84242 9.81959 6.95517 9.82807 7.07346C9.83655 7.19174 9.80817 7.30975 9.74684 7.41126L10.7009 7.77934L10.3232 8.0909L9.48287 7.74154L9.34152 7.85493L9.8419 8.47771L9.53022 8.7324L8.25562 7.15621L8.84045 6.69416ZM7.00892 8.44945C7.27325 8.13788 7.57432 8.10962 7.78316 8.27954C7.85798 8.34285 7.911 8.42808 7.93471 8.52317C7.95843 8.61825 7.95165 8.71839 7.91532 8.80941C8.09483 8.66811 8.33088 8.64903 8.52912 8.80941C8.75564 8.99804 8.85953 9.3852 8.56694 9.72502L8.08458 10.2998L6.53541 9.00581L7.00892 8.44945ZM4.53392 16.7066H4.30705V15.396L4.53356 15.2547L4.53392 16.7066ZM5.49685 16.7253C5.22299 16.7253 5.00602 16.5271 5.00602 16.2629C5.00451 16.1865 5.02384 16.1111 5.06194 16.0448C5.10004 15.9785 5.15547 15.9239 5.22228 15.8867C5.18784 15.8541 5.16076 15.8145 5.14284 15.7706C5.12493 15.7266 5.11659 15.6794 5.11839 15.632C5.12139 15.5339 5.16249 15.4408 5.23297 15.3725C5.30345 15.3042 5.39778 15.2659 5.49597 15.2659C5.59415 15.2659 5.68848 15.3042 5.75896 15.3725C5.82945 15.4408 5.87054 15.5339 5.87354 15.632C5.87441 15.6793 5.86565 15.7262 5.84779 15.77C5.82993 15.8138 5.80334 15.8535 5.76965 15.8867C5.83607 15.9248 5.89119 15.9798 5.92937 16.0462C5.96755 16.1125 5.98743 16.1878 5.98698 16.2643C5.98768 16.53 5.7799 16.7267 5.49685 16.7267V16.7253ZM7.56442 22.7937L7.35664 22.9446L7.06405 22.5482L6.56509 22.9181L6.38558 22.6726L7.60365 21.776L8.15137 22.5122L7.94324 22.6634L7.57502 22.1727L7.28243 22.39L7.56442 22.7937ZM7.80189 24.4282C7.49976 24.1166 7.49976 23.6355 7.83016 23.3144C8.16056 22.9933 8.63266 23.0029 8.94433 23.324C9.24647 23.6355 9.24647 24.1166 8.91607 24.4377C8.58566 24.7588 8.10261 24.749 7.80189 24.4282ZM10.5872 25.5325C10.3416 25.9101 9.88041 26.0139 9.50125 25.778C9.13304 25.542 9.02914 25.0715 9.2652 24.6924C9.51079 24.3039 9.98289 24.2018 10.3511 24.4377C10.7179 24.6829 10.831 25.1548 10.5854 25.5325H10.5872ZM12.3339 25.8345L11.8996 25.6363L11.3805 26.7784L11.1066 26.6558L11.6257 25.5137L11.1914 25.3156L11.2953 25.0796L12.4378 25.5985L12.3339 25.8345ZM13.8915 26.3912C13.8711 26.4617 13.8293 26.5241 13.7718 26.5698C13.7143 26.6154 13.644 26.642 13.5707 26.6459C13.7216 26.7307 13.8163 26.8819 13.7594 27.0613C13.7028 27.2786 13.4668 27.4672 13.1456 27.3729L12.5978 27.222L13.0039 25.7684L13.5339 25.9193C13.8332 26.0044 13.9467 26.2026 13.8901 26.3912H13.8915ZM15.3251 27.7032L15.2308 27.3538L14.6739 27.2973L14.5135 27.6276L14.1831 27.5898L14.9195 26.1457L15.2121 26.174L15.6467 27.741L15.3251 27.7032ZM15.9966 24.768C11.1628 24.768 7.22554 20.8325 7.22554 16.0001C7.22695 15.481 7.27425 14.963 7.36689 14.4522C7.39516 14.3109 7.44251 14.1501 7.44251 14.1501L6.9326 12.4136C6.82871 12.0455 6.78171 11.9416 6.83825 11.8484C6.85698 11.8106 6.90433 11.7445 7.0743 11.7071L8.57542 11.3295L8.60369 11.2729C9.39396 10.0377 10.4818 9.02062 11.7675 8.31486C13.0531 7.60911 14.4955 7.23731 15.9622 7.23354C17.429 7.22978 18.8732 7.59418 20.1624 8.29333C21.4517 8.99248 22.5448 10.004 23.3414 11.2352L23.3887 11.3199L24.8898 11.6976C25.0598 11.7449 25.1072 11.8014 25.1259 11.8389C25.1824 11.9332 25.1446 12.037 25.0315 12.404L24.5312 14.1406C24.5312 14.1406 24.5785 14.3105 24.6068 14.4614C24.6985 14.969 24.7424 15.4842 24.7379 16.0001C24.7662 20.8322 20.8293 24.768 15.9955 24.768H15.9966ZM16.3535 27.7219L16.2686 26.2118L16.5708 26.193L16.6464 27.4481L17.251 27.41L17.2697 27.6647L16.3535 27.7219ZM17.9592 27.5513L17.6666 26.0694L17.9687 26.0129L18.2143 27.2397L18.809 27.1171L18.8564 27.3718L17.9592 27.5513ZM20.9049 26.6265C20.5367 26.7868 20.1024 26.6643 19.9041 26.211C19.6868 25.7296 19.9419 25.3145 20.3006 25.1541C20.4047 25.106 20.5186 25.0826 20.6332 25.0859C20.7479 25.0891 20.8602 25.1189 20.9614 25.1729L20.848 25.4466C20.7839 25.4056 20.7104 25.3815 20.6345 25.3765C20.5585 25.3716 20.4826 25.386 20.4137 25.4184C20.1776 25.5222 20.0455 25.7582 20.1872 26.0697C20.3193 26.3622 20.5759 26.4583 20.8102 26.3523C20.9897 26.2768 21.0929 26.1068 21.084 25.8804L21.3667 25.8991C21.3579 26.2495 21.1787 26.5138 20.9049 26.6272V26.6265ZM22.189 25.9281L21.3487 24.673L21.6035 24.5031L22.3021 25.5413L22.8025 25.2015L22.9438 25.4187L22.189 25.9281ZM23.9559 24.6539C23.7294 24.8521 23.3707 24.9086 23.1156 24.6257L22.4735 23.8895L22.7 23.6913L23.323 24.3978C23.4739 24.5677 23.6347 24.5487 23.7668 24.4356C23.8894 24.3222 23.9368 24.1619 23.7856 23.992L23.1626 23.2855L23.3891 23.0873L24.0311 23.8235C24.2941 24.1071 24.1902 24.4565 23.9545 24.6546L23.9559 24.6539ZM25.3436 23.1438L24.9549 23.5592L23.8502 22.521L24.228 22.1247C24.4358 21.8983 24.6718 21.8983 24.8132 22.0304C24.8679 22.0808 24.9049 22.1476 24.9185 22.2207C24.9322 22.2939 24.9217 22.3695 24.8888 22.4363C25.0301 22.3419 25.2096 22.3324 25.3513 22.4645C25.5121 22.6058 25.5687 22.8994 25.3421 23.1445L25.3436 23.1438ZM26.2026 16.726C25.9287 16.726 25.7118 16.5278 25.7118 16.2636C25.7101 16.1869 25.7295 16.1111 25.7678 16.0445C25.8061 15.978 25.8619 15.9232 25.9291 15.886C25.8947 15.8534 25.8676 15.8138 25.8497 15.7699C25.8317 15.7259 25.8234 15.6787 25.8252 15.6313C25.8282 15.5332 25.8693 15.4401 25.9398 15.3718C26.0103 15.3035 26.1046 15.2652 26.2028 15.2652C26.301 15.2652 26.3953 15.3035 26.4658 15.3718C26.5363 15.4401 26.5774 15.5332 26.5804 15.6313C26.5812 15.6786 26.5725 15.7255 26.5546 15.7693C26.5367 15.8131 26.5102 15.8528 26.4765 15.886C26.5429 15.9241 26.598 15.9791 26.6362 16.0454C26.6744 16.1118 26.6942 16.1871 26.6938 16.2636C26.6924 16.519 26.4846 16.7267 26.2012 16.7267L26.2026 16.726ZM27.4959 16.7073H27.2503L27.5525 16.1884C27.5338 16.1884 27.5147 16.1979 27.4959 16.1979C27.4039 16.1925 27.3154 16.1602 27.2415 16.1051C27.1675 16.05 27.1113 15.9744 27.0798 15.8878C27.0483 15.8011 27.0429 15.7071 27.0642 15.6174C27.0854 15.5277 27.1325 15.4462 27.1996 15.3829C27.2667 15.3197 27.3509 15.2774 27.4417 15.2614C27.5325 15.2453 27.6261 15.2562 27.7108 15.2927C27.7955 15.3292 27.8676 15.3896 27.9184 15.4666C27.9691 15.5436 27.9962 15.6338 27.9963 15.726C27.992 15.8235 27.9617 15.9181 27.9087 16.0001L27.4959 16.7073Z" fill="#D20000"/>
<path d="M24.6436 22.2951C24.5588 22.2104 24.4549 22.2574 24.3981 22.3234L24.2472 22.4838L24.5019 22.7198L24.6433 22.5594C24.7097 22.4742 24.7193 22.3704 24.6436 22.2951Z" fill="#D20000"/>
<path d="M8.03662 23.5407C7.81929 23.7579 7.81929 24.0504 7.99881 24.239C8.17832 24.4277 8.47091 24.4372 8.69742 24.2295C8.92393 24.0122 8.91474 23.7198 8.73523 23.5311C8.55572 23.3333 8.26136 23.3238 8.03662 23.5407Z" fill="#D20000"/>
<path d="M24.8418 22.7198L24.6814 22.8883L24.974 23.162L25.1249 23.0017C25.2192 22.9073 25.2383 22.7657 25.1436 22.6809C25.0401 22.5877 24.9267 22.6254 24.8418 22.7198Z" fill="#D20000"/>
</g>
</svg>
