<svg width="32" height="32" viewBox="0 0 32 32" fill="none" xmlns="http://www.w3.org/2000/svg">
<g clip-path="url(#clip0_371_27134)">
<mask id="mask0_371_27134" style="mask-type:luminance" maskUnits="userSpaceOnUse" x="0" y="-3" width="39" height="37">
<path d="M38.6957 -2.40002H0.800003V33.0146H38.6957V-2.40002Z" fill="white"/>
</mask>
<g mask="url(#mask0_371_27134)">
<path d="M29.8085 16.183C29.8085 23.9513 23.4727 30.2497 15.6594 30.2497C7.84492 30.2497 1.51016 23.9513 1.51016 16.183C1.51016 8.41418 7.84492 2.11584 15.6594 2.11584C23.4727 2.11584 29.8085 8.41418 29.8085 16.183Z" fill="white"/>
</g>
<mask id="mask1_371_27134" style="mask-type:luminance" maskUnits="userSpaceOnUse" x="0" y="-3" width="39" height="37">
<path d="M38.6957 -2.40002H0.800003V33.0146H38.6957V-2.40002Z" fill="white"/>
</mask>
<g mask="url(#mask1_371_27134)">
<path d="M12.9807 26.6599L12.6299 26.5754L12.2181 28.2884L12.2278 28.291L13.3427 28.5558L13.4181 28.2416L12.6454 28.0587L12.9807 26.6599ZM19.6203 26.257L19.9748 27.2389L18.9812 26.4834L18.6802 26.5914L19.2748 28.2485L19.616 28.1273L19.262 27.1421L20.2545 27.9008L20.2604 27.8981L20.5572 27.7923L19.9615 26.1357L19.6203 26.257ZM10.1476 27.5217L10.4962 27.6637L10.7117 27.4175L11.2743 27.6472L11.2529 27.971L11.2599 27.9742L11.6032 28.114L11.6748 26.2399L11.416 26.1352L10.1476 27.5217ZM11.3016 27.3287L10.923 27.1746L11.3417 26.7035L11.3016 27.3287ZM18.2684 27.1528C18.231 27.0587 18.1673 26.9795 18.0743 26.9178C18 26.8646 17.9203 26.8301 17.8379 26.8115C17.7946 26.8014 17.7513 26.7971 17.7042 26.7971C17.6604 26.7971 17.6155 26.8014 17.5684 26.8099C17.4716 26.8263 17.3882 26.8577 17.3155 26.9034C17.2438 26.9492 17.1802 27.0087 17.1288 27.0831C17.0663 27.1719 17.0342 27.2676 17.032 27.3702V27.3888C17.032 27.4882 17.047 27.6275 17.0796 27.8046C17.1123 27.9933 17.1476 28.1336 17.1845 28.2277C17.2208 28.3218 17.285 28.4016 17.3738 28.4649C17.4481 28.517 17.5288 28.552 17.6123 28.5712C17.655 28.5797 17.6994 28.5845 17.7454 28.5845C17.7893 28.5845 17.8353 28.5802 17.8812 28.5723C17.9786 28.5547 18.062 28.5239 18.1342 28.4787C18.2048 28.4335 18.2679 28.3724 18.3192 28.299C18.3839 28.207 18.4187 28.1092 18.4203 28.0087C18.4197 28.0039 18.4203 28.0002 18.4203 27.9944C18.4203 27.8965 18.4026 27.7567 18.3716 27.577C18.3379 27.3872 18.3037 27.2463 18.2684 27.1528ZM18.0588 27.9768C18.0588 28.0103 18.0556 28.038 18.0481 28.0619C18.0422 28.0853 18.0331 28.1081 18.0187 28.1289C17.9775 28.1974 17.9133 28.2384 17.8256 28.2549C17.8048 28.2575 17.7855 28.2596 17.7663 28.2596C17.7438 28.2596 17.7224 28.2575 17.701 28.2527C17.6615 28.2437 17.6272 28.2277 17.6 28.2038C17.5786 28.1884 17.5625 28.1709 17.5497 28.1517C17.5358 28.1331 17.523 28.106 17.5107 28.0736C17.4989 28.0401 17.4861 27.9986 17.4748 27.9481C17.4636 27.8976 17.4497 27.829 17.4353 27.7424C17.4203 27.6552 17.408 27.5861 17.401 27.5334C17.3946 27.4835 17.3919 27.4436 17.3919 27.4106V27.4037C17.393 27.3697 17.3962 27.3399 17.4021 27.3165C17.4085 27.2942 17.4176 27.2719 17.4304 27.2538C17.4492 27.2203 17.4754 27.1937 17.509 27.1714C17.5427 27.1491 17.5807 27.1352 17.6251 27.1262C17.6465 27.1235 17.6663 27.1209 17.6861 27.1209C17.7475 27.1219 17.8021 27.1405 17.8492 27.1783C17.87 27.1937 17.8877 27.2123 17.9026 27.2325C17.916 27.2522 17.9288 27.2772 17.9401 27.308C17.9534 27.3394 17.9657 27.3808 17.9775 27.4335C17.9887 27.4856 18.0021 27.5547 18.0171 27.6392C18.032 27.7232 18.0433 27.7918 18.0502 27.8466C18.0572 27.8955 18.0599 27.9364 18.0599 27.9688V27.9768H18.0588ZM16.0128 26.9858L16.0973 28.744L16.1074 28.7434L16.4582 28.7259L16.3732 26.9688L16.0128 26.9858ZM14.8871 26.964L14.1775 26.9066L14.0363 28.6621L14.7775 28.72C14.8 28.7222 14.8213 28.7227 14.8422 28.7227H14.8433C14.9759 28.7227 15.0903 28.6876 15.1823 28.6169C15.2898 28.5356 15.3497 28.4133 15.362 28.2543C15.3636 28.2357 15.3641 28.2203 15.3641 28.2038C15.3641 28.1209 15.3465 28.0507 15.309 27.9917C15.2705 27.9306 15.2213 27.8817 15.1641 27.8455C15.216 27.8221 15.2636 27.7833 15.309 27.7291C15.3615 27.6679 15.3903 27.593 15.3967 27.5037C15.3978 27.485 15.3984 27.4675 15.3984 27.4494C15.3984 27.3229 15.3604 27.215 15.2812 27.1288C15.1914 27.0321 15.0599 26.9768 14.8871 26.964ZM15.0037 28.2091C14.9984 28.2692 14.9759 28.3155 14.9358 28.3516C14.901 28.3814 14.8556 28.3973 14.7957 28.3973C14.7871 28.3973 14.7786 28.3973 14.7684 28.3968L14.4219 28.3686L14.455 27.9619L14.8016 27.989C14.8738 27.9944 14.9251 28.0178 14.9593 28.0582C14.9898 28.0943 15.0048 28.1368 15.0048 28.1884C15.0048 28.1943 15.0042 28.2022 15.0037 28.2091ZM15.0363 27.4898C15.032 27.5473 15.0101 27.5914 14.97 27.6238C14.9353 27.6504 14.8914 27.6647 14.8342 27.6647C14.8246 27.6647 14.8155 27.6642 14.8058 27.6637L14.4818 27.6376L14.5117 27.257L14.8363 27.282C14.9058 27.2883 14.9572 27.3096 14.9919 27.3468C15.0224 27.3803 15.0374 27.4197 15.0374 27.4696C15.0374 27.476 15.0374 27.4829 15.0363 27.4898ZM15.6593 2.29437C7.94381 2.29437 1.68927 8.51243 1.68927 16.1824C1.68927 23.8524 7.94381 30.0715 15.6593 30.0715C23.3743 30.0715 29.6288 23.8524 29.6288 16.1824C29.6288 8.5119 23.3738 2.29437 15.6593 2.29437ZM15.6593 29.5366C8.24007 29.5366 2.2267 23.5578 2.2267 16.1819C2.2267 8.80696 8.24007 2.82761 15.6593 2.82761C23.0786 2.82761 29.0919 8.80696 29.0919 16.1819C29.0919 23.5578 23.0786 29.5366 15.6593 29.5366ZM18.662 5.82605C18.7385 5.8521 18.8069 5.86539 18.8668 5.86699C18.8855 5.86752 18.9021 5.86699 18.9197 5.8654C18.9898 5.85795 19.0609 5.84041 19.1331 5.81542L19.1358 5.81383L19.2064 5.98714L19.6149 6.12271L19.4262 5.67241C19.5 5.62828 19.5631 5.57033 19.6181 5.49963C19.6732 5.42573 19.7208 5.33535 19.7631 5.22743L19.7668 5.21839L19.4652 5.1195L19.4615 5.12801C19.4192 5.24231 19.3631 5.32365 19.2967 5.37257L19.1342 4.98075C19.154 4.97543 19.1775 4.96852 19.2026 4.96001C19.2315 4.95098 19.254 4.94353 19.2705 4.93822C19.3385 4.91642 19.3946 4.88718 19.4395 4.85103C19.4855 4.81541 19.5176 4.7665 19.5385 4.70589C19.5524 4.66283 19.5604 4.61923 19.5609 4.5783C19.562 4.51184 19.5475 4.44804 19.5128 4.38691C19.4588 4.28749 19.3652 4.21731 19.2358 4.17478C19.1711 4.15405 19.1107 4.14235 19.0524 4.14182C18.9887 4.13969 18.9278 4.15033 18.8716 4.17478C18.7689 4.21944 18.6962 4.29972 18.6593 4.41402C18.6459 4.45389 18.6395 4.49377 18.6379 4.53257C18.6374 4.56075 18.6395 4.5884 18.6459 4.61604C18.6582 4.67612 18.6796 4.73991 18.7074 4.80637C18.6042 4.83401 18.5144 4.87389 18.4379 4.92386C18.3588 4.97649 18.3037 5.05146 18.2705 5.14662C18.2497 5.21201 18.2379 5.27315 18.2369 5.3311C18.2353 5.41456 18.2529 5.49059 18.2914 5.5613C18.3566 5.67932 18.4807 5.76811 18.662 5.82605ZM18.9796 4.5262C18.9914 4.48898 19.0123 4.46293 19.0427 4.44804C19.0582 4.43901 19.0764 4.43528 19.0973 4.43582C19.1128 4.43582 19.1299 4.43901 19.1476 4.44485C19.1871 4.45815 19.2139 4.47888 19.2288 4.51025C19.2385 4.52885 19.2427 4.54799 19.2422 4.56766C19.2422 4.58095 19.2395 4.59531 19.2347 4.60913C19.2262 4.63359 19.2117 4.65219 19.1882 4.66867C19.1652 4.68516 19.1358 4.69845 19.1016 4.70748C19.0909 4.71227 19.0786 4.71599 19.0609 4.72024C19.0481 4.7245 19.0369 4.72662 19.0262 4.72875C19.0032 4.67612 18.9882 4.63571 18.9796 4.60647C18.9748 4.58946 18.9732 4.57404 18.9732 4.56022C18.9738 4.54799 18.9759 4.5363 18.9796 4.5262ZM18.5828 5.24338C18.6 5.19234 18.6272 5.153 18.6647 5.12695C18.701 5.1009 18.7524 5.07804 18.8176 5.0589L19.0144 5.52887C18.9684 5.54801 18.9262 5.55704 18.8861 5.5597H18.8615C18.8272 5.55864 18.7909 5.55226 18.7529 5.54003C18.6839 5.5177 18.6331 5.47889 18.601 5.42307C18.5802 5.38745 18.57 5.35077 18.5716 5.31143C18.5721 5.28963 18.5759 5.26677 18.5828 5.24338ZM15.6647 4.37042L16.3379 5.39224H16.655V3.67291H16.2973V4.69153L15.624 3.67291H15.3069V5.39224H15.6647V4.37042ZM24.4294 9.79049L25.0636 10.749L25.3288 10.5763L24.886 9.90692L25.2171 9.69054L25.5935 10.2605L25.8582 10.0877L25.4818 9.51776L25.801 9.30936L26.2433 9.97816L26.508 9.80484L25.8695 8.83832L24.4246 9.78198L24.4294 9.79049ZM22.5331 7.24819C22.4914 7.32209 22.4705 7.40502 22.4705 7.49434C22.4705 7.50816 22.4711 7.52358 22.4732 7.53953C22.4802 7.62831 22.5032 7.71072 22.5427 7.78515C22.5812 7.85958 22.6385 7.92869 22.7123 7.99036C22.7866 8.05415 22.8615 8.09828 22.9427 8.12486C23.0058 8.14507 23.0732 8.15623 23.1438 8.15623C23.162 8.15623 23.1786 8.1557 23.1967 8.1541C23.3074 8.14666 23.4026 8.1121 23.4796 8.0515C23.5566 7.98983 23.6556 7.88935 23.7775 7.7474C23.901 7.60439 23.9866 7.48955 24.0347 7.40555C24.0738 7.33431 24.0946 7.25563 24.0946 7.16951C24.0946 7.15143 24.093 7.13229 24.0909 7.11315C24.0834 7.02437 24.0598 6.94197 24.0213 6.86807C23.9839 6.79311 23.9267 6.72452 23.854 6.66232C23.7791 6.59959 23.7032 6.55493 23.6229 6.52835C23.5577 6.50602 23.4898 6.49592 23.4176 6.49592C23.4005 6.49592 23.3844 6.49645 23.3668 6.49858C23.2604 6.50496 23.1673 6.54058 23.0882 6.60172C23.0101 6.66285 22.9101 6.76493 22.7877 6.90688C22.6663 7.04882 22.5812 7.1626 22.5331 7.24819ZM22.8139 7.53687C22.8139 7.51614 22.816 7.49593 22.8219 7.47786C22.8283 7.45606 22.839 7.43054 22.8566 7.39971C22.8732 7.371 22.8978 7.33591 22.9288 7.29604C22.9615 7.2551 23.0048 7.203 23.0604 7.13761C23.1165 7.07275 23.1625 7.02012 23.1973 6.98343C23.2331 6.94569 23.2636 6.91698 23.2914 6.89624C23.3171 6.87498 23.3406 6.85956 23.3631 6.84999C23.3855 6.84042 23.4069 6.83404 23.4299 6.83138C23.4406 6.82926 23.4529 6.82819 23.4641 6.82819C23.4887 6.82819 23.5144 6.83245 23.5411 6.84042C23.5786 6.85318 23.6144 6.87338 23.6481 6.90156C23.7155 6.95951 23.7497 7.0265 23.7508 7.10358V7.11528C23.7508 7.13655 23.7481 7.15675 23.7427 7.17642C23.7363 7.19875 23.7256 7.2248 23.709 7.25351C23.6935 7.28221 23.6689 7.31677 23.6369 7.35771C23.6042 7.39918 23.5609 7.45234 23.5058 7.51667C23.4518 7.57834 23.4064 7.63044 23.37 7.66818C23.3331 7.70753 23.3026 7.73677 23.277 7.75697C23.2508 7.77717 23.2262 7.79152 23.2048 7.80216C23.1834 7.81173 23.1604 7.81758 23.1347 7.8213C23.1224 7.82289 23.1085 7.82342 23.0967 7.82342C23.0342 7.82342 22.9743 7.80056 22.9176 7.75218C22.8834 7.72294 22.8582 7.69105 22.8395 7.65596C22.8229 7.61981 22.8139 7.58472 22.8139 7.5491V7.53687ZM21.4962 6.2418L21.9802 6.53898L21.6058 7.14452L21.6133 7.14984L21.9096 7.33113L22.8155 5.86752L22.5117 5.68145L22.1449 6.27263L21.6598 5.97598L22.0278 5.38426L21.723 5.19766L20.8165 6.66073L21.1213 6.8484L21.4962 6.2418ZM23.8962 9.14348L23.9032 9.14029L25.578 8.44066L25.332 8.16208L24.2861 8.62567L24.8791 7.65224L24.6336 7.37525L23.7203 8.94359L23.8962 9.14348ZM13.5695 5.11685C13.6016 5.21095 13.6599 5.29069 13.7449 5.35768C13.8155 5.41244 13.8925 5.44965 13.9748 5.47198C14.0278 5.48634 14.0828 5.49325 14.1427 5.49325C14.1743 5.49325 14.2074 5.49059 14.2411 5.4874C14.339 5.47517 14.4224 5.44912 14.4967 5.40818C14.57 5.36725 14.6342 5.31143 14.6898 5.24125C14.7577 5.15512 14.7962 5.06209 14.8037 4.96373C14.8048 4.94141 14.8064 4.91801 14.8064 4.89143C14.8064 4.80105 14.7962 4.68409 14.7796 4.54002C14.7556 4.35341 14.7283 4.21465 14.6989 4.12109C14.6673 4.02699 14.608 3.94777 14.5197 3.88132C14.4486 3.82656 14.3716 3.78881 14.2914 3.76648C14.2379 3.75266 14.1823 3.74522 14.124 3.74522C14.0914 3.74522 14.0582 3.74787 14.0246 3.75213C13.9267 3.76382 13.8427 3.78987 13.7684 3.83134C13.6951 3.87228 13.6299 3.92757 13.5743 3.99828C13.508 4.08068 13.4716 4.17319 13.4636 4.2726C13.4609 4.29706 13.4604 4.32364 13.4604 4.35288C13.4604 4.44326 13.4695 4.55809 13.4877 4.69951C13.5101 4.88452 13.5379 5.02275 13.5695 5.11685ZM13.8176 4.32364C13.8203 4.28962 13.8246 4.26197 13.832 4.23964C13.8395 4.21731 13.8502 4.19658 13.8636 4.17797C13.8828 4.1482 13.9112 4.12268 13.9454 4.10354C13.9796 4.08334 14.0197 4.07058 14.0641 4.06526C14.078 4.0642 14.093 4.06261 14.108 4.06261C14.1764 4.06261 14.2336 4.08334 14.2823 4.12587C14.3021 4.14288 14.3181 4.16096 14.3304 4.18116C14.3438 4.20136 14.3556 4.22635 14.3657 4.25772C14.3754 4.28855 14.3855 4.32949 14.3935 4.38106C14.4032 4.43316 14.4133 4.50068 14.424 4.58414C14.4342 4.66655 14.4406 4.73407 14.4449 4.78723C14.4481 4.82019 14.4492 4.8505 14.4492 4.87601C14.4492 4.89037 14.4492 4.90366 14.4481 4.91536C14.4454 4.94832 14.4406 4.9749 14.4336 4.99829C14.4262 5.02062 14.4149 5.04189 14.4 5.06209C14.3556 5.12642 14.2909 5.16416 14.2026 5.1748C14.1882 5.17639 14.1727 5.17745 14.1599 5.17745C14.131 5.17745 14.1042 5.17373 14.0786 5.16682C14.0401 5.15566 14.008 5.13811 13.9807 5.11366C13.9609 5.09771 13.9459 5.08016 13.9342 5.06102C13.923 5.04189 13.9112 5.01584 13.9005 4.98287C13.8893 4.95044 13.8796 4.90898 13.8711 4.85847C13.862 4.80903 13.8529 4.74098 13.8417 4.65645C13.8304 4.57032 13.824 4.50227 13.8197 4.4507C13.8171 4.41827 13.8155 4.38956 13.8155 4.36351C13.816 4.34916 13.8165 4.33534 13.8176 4.32364ZM7.51601 9.07703L7.01333 8.61876L7.16681 8.45129L7.89836 8.66076L7.90264 8.65597L8.17804 8.35772L7.36788 8.14453C7.39141 8.08552 7.40317 8.02438 7.40317 7.96059C7.40317 7.93188 7.4005 7.90317 7.39568 7.87393C7.37964 7.77611 7.32777 7.68732 7.24221 7.61024C7.18873 7.56133 7.1283 7.52358 7.06413 7.49965C7.00852 7.47786 6.94916 7.46776 6.88873 7.46776C6.87964 7.46776 6.87162 7.46776 6.862 7.46829C6.79301 7.47201 6.72296 7.49115 6.65344 7.52464C6.58552 7.55867 6.52242 7.60864 6.46253 7.67244L5.99782 8.17803L7.27483 9.33913L7.51601 9.07703ZM6.79355 8.41833L6.47322 8.12752L6.68285 7.90051C6.73044 7.84894 6.78339 7.8213 6.84221 7.81492C6.84863 7.81492 6.85558 7.81439 6.86146 7.81439C6.9128 7.81439 6.95825 7.83299 7.0021 7.8734C7.05023 7.91699 7.07376 7.96643 7.07376 8.02545C7.07376 8.08446 7.05023 8.13975 7.0021 8.19185L6.79355 8.41833ZM6.64542 10.1685C6.71761 10.0584 6.75397 9.95051 6.75397 9.84206C6.75397 9.8176 6.75237 9.79421 6.74863 9.76976C6.72831 9.63897 6.65183 9.53105 6.52028 9.44492C6.4406 9.39389 6.3652 9.36784 6.29141 9.36784C6.28285 9.36784 6.27643 9.36784 6.26895 9.3689C6.19675 9.37422 6.13151 9.39335 6.07376 9.42578C6.07429 9.41834 6.0743 9.4109 6.0743 9.40292C6.0743 9.35455 6.06253 9.30085 6.04114 9.24609C6.01387 9.17379 5.96307 9.11318 5.88766 9.0648C5.79889 9.00579 5.70798 8.97708 5.61654 8.97708C5.58232 8.97708 5.54542 8.98187 5.50959 8.9909C5.38232 9.02333 5.27323 9.11212 5.17964 9.25353L4.79408 9.84153L6.24381 10.782L6.64542 10.1685ZM5.74595 9.65173L5.57002 9.91968L5.25611 9.71659L5.43151 9.44758C5.46948 9.38963 5.51333 9.35561 5.562 9.34391C5.5759 9.33966 5.58927 9.33806 5.60317 9.33806C5.63686 9.33806 5.67162 9.3487 5.70478 9.37103C5.75344 9.40239 5.78125 9.44227 5.78873 9.49118C5.79087 9.49968 5.79194 9.50925 5.79194 9.51882C5.79248 9.55976 5.77697 9.60388 5.74595 9.65173ZM5.83686 10.0941L6.02617 9.80697C6.06413 9.74743 6.10905 9.7134 6.16039 9.70277C6.17269 9.70064 6.18659 9.69852 6.19996 9.69852C6.2374 9.69852 6.27536 9.71074 6.31173 9.73467C6.36146 9.76603 6.39034 9.8075 6.40264 9.8596C6.40584 9.8713 6.40692 9.88459 6.40692 9.89629C6.40692 9.93669 6.39301 9.97975 6.36253 10.0244L6.17429 10.312L5.83686 10.0941ZM8.48713 8.08978L8.7513 7.86489L7.6267 6.55812L7.35451 6.78885L8.47964 8.09669L8.48713 8.08978ZM12.2492 4.46027L12.6251 5.81383L12.9695 5.72079L12.5941 4.3667L13.0315 4.24655L12.9459 3.94352L11.7283 4.27686L11.8117 4.58042L12.2492 4.46027ZM8.66467 6.83404C8.76734 6.98928 8.85504 7.10199 8.9251 7.17163C8.99675 7.24128 9.08445 7.28753 9.1898 7.30933C9.23365 7.31783 9.2775 7.32209 9.31975 7.32209C9.44916 7.32209 9.57376 7.28275 9.69034 7.20566C9.85504 7.0972 9.95451 6.951 9.98873 6.76971C9.99622 6.73622 9.99943 6.70273 9.99943 6.66977C9.99943 6.61926 9.99141 6.56875 9.9759 6.51984C9.95076 6.43797 9.9021 6.34547 9.83205 6.23914L9.69034 6.02967L9.13686 6.39544L9.30264 6.64212L9.55825 6.47306L9.58713 6.51506C9.61173 6.55121 9.62884 6.58949 9.64221 6.62936C9.64969 6.65594 9.65397 6.68253 9.65397 6.70804C9.65397 6.71974 9.65237 6.73197 9.65076 6.74313C9.63739 6.8266 9.59301 6.89252 9.51547 6.94356C9.46199 6.97865 9.40905 6.99566 9.35718 6.99566C9.33579 6.99566 9.3144 6.99353 9.29301 6.98822C9.26841 6.98184 9.24702 6.9728 9.22723 6.9611C9.20905 6.94994 9.18659 6.9308 9.16253 6.90528C9.13739 6.87976 9.11012 6.84733 9.08071 6.80693C9.04916 6.76546 9.01066 6.70911 8.96306 6.63734C8.9144 6.56663 8.8775 6.50708 8.85023 6.46349C8.82296 6.4199 8.80424 6.38215 8.79141 6.35078C8.77857 6.32048 8.77002 6.29336 8.76681 6.26944C8.76467 6.25881 8.76413 6.24658 8.76413 6.23595C8.76413 6.22425 8.7652 6.21256 8.76681 6.20086C8.77804 6.12324 8.81921 6.06104 8.89247 6.01213C8.94488 5.9781 8.99301 5.9595 9.039 5.95471C9.04916 5.95258 9.06199 5.95258 9.07536 5.95258C9.11493 5.95258 9.16306 5.9579 9.21868 5.9696L9.22723 5.97066L9.29729 5.63839L9.2882 5.63679C9.22296 5.62403 9.16253 5.61712 9.10584 5.61712C9.06627 5.61712 9.02723 5.62031 8.99194 5.62722C8.90691 5.6437 8.8144 5.68464 8.716 5.7495C8.55932 5.85264 8.46306 5.99299 8.4267 6.16896C8.41814 6.20564 8.41494 6.24339 8.41494 6.27954C8.41494 6.34334 8.4267 6.40448 8.4513 6.46349C8.48927 6.55493 8.55879 6.6788 8.66467 6.83404ZM10.9625 6.46296L10.6684 5.81383L11.1866 5.58203L11.4823 6.23116L11.4914 6.22744L11.808 6.08496L11.0962 4.51716L10.7695 4.66336L11.0582 5.29654L10.5395 5.5294L10.2513 4.89568L9.92563 5.04189L10.6379 6.61022L10.9625 6.46296ZM21.423 17.0522C21.5663 17.0522 21.6812 16.8873 21.6812 16.8873C21.6812 16.8873 21.5657 16.7236 21.423 16.7236C21.2802 16.7236 21.1652 16.8873 21.1652 16.8873C21.1652 16.8873 21.2802 17.0522 21.423 17.0522ZM28.1727 14.5577C28.001 14.4663 27.7374 14.345 27.3593 14.1871C26.97 14.0255 26.1657 13.7703 25.332 13.5492C24.1695 9.31946 20.2807 6.21096 15.6593 6.21096C10.4823 6.21096 6.22296 10.1111 5.6882 15.1159C5.17804 15.1914 4.69087 15.2504 4.26788 15.2946C3.43045 15.3812 2.84916 15.412 2.84809 15.4126C2.81654 15.4142 2.79248 15.4381 2.7882 15.4684C2.78767 15.4711 2.78767 15.4742 2.78767 15.479C2.78553 15.5248 2.81815 15.7156 3.13526 15.8762C3.45184 16.0399 4.0513 16.1882 5.2128 16.1893C5.34381 16.1893 5.48339 16.1856 5.62937 16.1824C5.62937 21.6891 10.1192 26.1533 15.6593 26.1533C21.1978 26.1533 25.6887 21.6891 25.6887 16.1824C25.6887 15.5567 25.6272 14.9442 25.5171 14.3504C26.5481 14.5768 27.8454 14.8698 28.2636 14.8708C28.308 14.8698 28.3433 14.8682 28.3737 14.8581C28.401 14.8522 28.4411 14.8294 28.4427 14.7826C28.4262 14.6922 28.3422 14.6566 28.1727 14.5577ZM28.2631 14.7757C27.608 14.7767 24.5967 14 24.1689 13.9984C23.5005 14.0027 21.9962 14.8235 21.2149 15.328C20.9877 15.4758 20.7561 15.6093 20.5299 15.7268C20.5871 15.73 20.6459 15.7348 20.7016 15.7422C21.177 15.7985 21.5984 15.9814 21.939 16.2297C22.378 16.5551 22.832 16.9538 23.1048 17.007C23.1176 17.008 23.1326 17.0091 23.1481 17.0112H23.1492C23.5374 17.0474 24.6481 17.3206 24.6133 17.974C24.6133 17.974 23.8401 17.7417 22.9128 17.8996C22.5475 17.9772 22.0149 18.0261 21.2085 18.2813C20.4449 18.5205 18.4529 19.2712 16.8957 19.2717C15.7107 19.2707 13.3165 18.5928 11.9347 18.4764C11.8524 18.4695 11.7705 18.4653 11.6887 18.4653C10.6369 18.4642 9.73365 19.0139 9.28178 19.0198C8.87429 19.0198 8.15985 18.9506 7.46039 18.4349C6.9283 18.0394 6.53526 17.4615 6.52991 17.0335C6.52884 16.8905 6.58018 16.7576 6.69248 16.6699C6.77162 16.6098 6.88285 16.5976 7.02937 16.596C7.57162 16.5965 8.64488 16.8305 9.91814 16.8299C10.6754 16.8299 11.4994 16.7481 12.3171 16.486C12.5069 16.4254 13.078 16.293 13.4459 16.201C13.5433 16.2669 13.6459 16.3382 13.7604 16.4168C13.7716 16.4248 13.7834 16.4285 13.7951 16.4285C13.816 16.4285 13.8353 16.4184 13.8481 16.402C13.8684 16.3727 13.8604 16.3339 13.8331 16.3137C13.1251 15.8235 12.7887 15.5513 11.6042 15.5545C10.8497 15.5545 9.74595 15.6587 7.95879 15.8719C6.79889 16.0096 5.90317 16.0633 5.2128 16.0633C4.062 16.0638 3.47911 15.9139 3.19408 15.7651C3.01815 15.6731 2.95344 15.5864 2.93045 15.5343C3.34435 15.5088 5.41226 15.3647 7.239 14.9628C9.31226 14.5045 12.5588 13.2148 14.0711 13.2174C14.6347 13.2137 15.6117 13.7916 16.5796 14.4397C17.554 15.0856 18.5262 15.7975 19.1465 16.0559C19.1786 16.0686 19.2155 16.0543 19.2283 16.0224C19.2422 15.9905 19.2267 15.9538 19.1946 15.94C18.8395 15.7922 18.3459 15.4774 17.7984 15.1101C18.5497 14.7565 21.1561 13.201 23.0219 13.202C23.909 13.2004 26.5336 13.9431 27.3229 14.2738C27.6989 14.4312 27.962 14.5508 28.1288 14.6406C28.2117 14.6848 28.2721 14.7209 28.3074 14.7486C28.3187 14.7565 28.3278 14.765 28.3336 14.7714C28.3171 14.7741 28.2935 14.7757 28.2631 14.7757Z" fill="#005DAA"/>
</g>
<mask id="mask2_371_27134" style="mask-type:luminance" maskUnits="userSpaceOnUse" x="0" y="-3" width="39" height="37">
<path d="M38.6957 -2.40002H0.800003V33.0146H38.6957V-2.40002Z" fill="white"/>
</mask>
<g mask="url(#mask2_371_27134)">
<path d="M22.9128 17.8996C23.8396 17.7417 24.6134 17.974 24.6134 17.974C24.6497 17.293 23.4433 17.025 23.1048 17.007C23.1048 17.007 23.2797 17.3685 22.3369 17.4397C22.3369 17.4397 21.8968 17.4296 21.7166 17.5902C21.7166 17.5902 22.5839 17.5242 22.8888 17.8613L22.9128 17.8996Z" fill="#FDB913"/>
</g>
</g>
<defs>
<clipPath id="clip0_371_27134">
<rect width="32" height="32" fill="white"/>
</clipPath>
</defs>
</svg>
