<svg width="32" height="32" viewBox="0 0 32 32" fill="none" xmlns="http://www.w3.org/2000/svg">
<mask id="mask0_371_27122" style="mask-type:luminance" maskUnits="userSpaceOnUse" x="4" y="4" width="23" height="25">
<path d="M26.4 4H4.8V28.4541H26.4V4Z" fill="white"/>
</mask>
<g mask="url(#mask0_371_27122)">
<path d="M15.4234 27.6975C12.7879 27.2111 10.3153 25.8601 8.46794 23.9145C6.59321 21.9284 5.53351 19.4829 5.51999 17.0512V4.70264H25.6801V17.0512C25.6529 19.4966 24.6068 21.9286 22.7321 23.9145C20.8846 25.86 18.4256 27.2111 15.7767 27.6975L15.6001 27.7245L15.4234 27.6975Z" fill="#5F0041"/>
</g>
<mask id="mask1_371_27122" style="mask-type:luminance" maskUnits="userSpaceOnUse" x="4" y="2" width="25" height="28">
<path d="M28.1867 2.40002H4V29.7826H28.1867V2.40002Z" fill="white"/>
</mask>
<g mask="url(#mask1_371_27122)">
<path d="M5.50613 3.88257V17.0142C5.53656 19.5709 6.64704 22.1276 8.62457 24.2306C10.5869 26.3032 13.2185 27.7405 16.0327 28.2698L16.0935 28.2849L16.1544 28.2698C18.9686 27.7403 21.6002 26.3182 23.5625 24.2306C25.5401 22.1277 26.6507 19.5709 26.681 16.9991V3.88257H5.50613ZM25.9814 16.9991C25.9357 21.8855 21.5851 26.5148 16.0936 27.574C10.5869 26.5301 6.25146 21.8858 6.20576 17.0142V4.57863H25.9962V16.9991H25.9814Z" fill="white"/>
</g>
<mask id="mask2_371_27122" style="mask-type:luminance" maskUnits="userSpaceOnUse" x="4" y="2" width="25" height="28">
<path d="M28.1867 2.40002H4V29.7826H28.1867V2.40002Z" fill="white"/>
</mask>
<g mask="url(#mask2_371_27122)">
<path d="M9.90208 21.3408C9.97815 21.3256 10.0238 21.3105 10.0542 21.2348C10.0846 21.1592 10.0846 21.023 9.88688 20.9474L9.46094 20.781L9.15669 21.5525L9.59786 21.719C9.73476 21.7795 9.90208 21.7492 9.96293 21.5979C10.0086 21.4618 9.96293 21.3861 9.90208 21.3408ZM9.73476 21.4618C9.70433 21.5223 9.65871 21.5223 9.61306 21.492L9.47616 21.4315L9.53701 21.2954L9.68911 21.3559C9.73476 21.3861 9.74996 21.4164 9.73476 21.4618ZM9.8108 21.1743C9.79561 21.2197 9.74996 21.2197 9.70433 21.2046L9.58263 21.1592L9.62829 21.0382L9.74995 21.0836C9.8108 21.1138 9.82603 21.1441 9.8108 21.1743Z" fill="white"/>
</g>
<mask id="mask3_371_27122" style="mask-type:luminance" maskUnits="userSpaceOnUse" x="4" y="2" width="25" height="28">
<path d="M28.1867 2.40002H4V29.7826H28.1867V2.40002Z" fill="white"/>
</mask>
<g mask="url(#mask3_371_27122)">
<path d="M10.4802 21.1746L10.2521 21.0687L10.0391 21.5226C9.94783 21.7344 10.0087 21.8857 10.2369 21.9915C10.465 22.0975 10.6324 22.0521 10.7236 21.8403L10.9366 21.3864L10.7084 21.2805L10.5107 21.689C10.4802 21.7646 10.4346 21.8554 10.3129 21.81C10.2064 21.7646 10.2521 21.6587 10.2825 21.5831L10.4802 21.1746Z" fill="white"/>
</g>
<mask id="mask4_371_27122" style="mask-type:luminance" maskUnits="userSpaceOnUse" x="4" y="2" width="25" height="28">
<path d="M28.1867 2.40002H4V29.7826H28.1867V2.40002Z" fill="white"/>
</mask>
<g mask="url(#mask4_371_27122)">
<path d="M10.8454 22.2942L10.9975 22.037L11.1192 22.0975C11.2105 22.1429 11.1649 22.2186 11.1345 22.2942C11.1192 22.3396 11.104 22.3698 11.0888 22.4152L11.317 22.5363C11.317 22.4909 11.3626 22.4001 11.3779 22.3698C11.4235 22.2791 11.4235 22.1883 11.3779 22.1278C11.4691 22.1429 11.5452 22.0824 11.5908 22.0068C11.6669 21.8706 11.606 21.7345 11.4691 21.6739L11.0432 21.4319L10.6325 22.1429L10.8454 22.2942ZM11.1649 21.7496L11.2714 21.8101C11.3626 21.8555 11.3626 21.9009 11.3322 21.9462C11.3018 22.0068 11.2409 21.9916 11.1953 21.9614L11.0736 21.9009L11.1649 21.7496Z" fill="white"/>
</g>
<mask id="mask5_371_27122" style="mask-type:luminance" maskUnits="userSpaceOnUse" x="4" y="2" width="25" height="28">
<path d="M28.1867 2.40002H4V29.7826H28.1867V2.40002Z" fill="white"/>
</mask>
<g mask="url(#mask5_371_27122)">
<path d="M11.5146 22.7177L11.8037 22.3697L11.7124 22.869L11.9102 23.0354L12.4273 22.3849L12.2448 22.2336L11.9558 22.5815L12.0471 22.0823L11.8493 21.9159L11.3169 22.5664L11.5146 22.7177Z" fill="white"/>
</g>
<mask id="mask6_371_27122" style="mask-type:luminance" maskUnits="userSpaceOnUse" x="4" y="2" width="25" height="28">
<path d="M28.1867 2.40002H4V29.7826H28.1867V2.40002Z" fill="white"/>
</mask>
<g mask="url(#mask6_371_27122)">
<path d="M12.4728 23.4741L12.6097 23.3076L12.3207 23.0958L12.701 22.5966L12.488 22.4453L11.986 23.0958L12.4728 23.4741Z" fill="white"/>
</g>
<mask id="mask7_371_27122" style="mask-type:luminance" maskUnits="userSpaceOnUse" x="4" y="2" width="25" height="28">
<path d="M28.1867 2.40002H4V29.7826H28.1867V2.40002Z" fill="white"/>
</mask>
<g mask="url(#mask7_371_27122)">
<path d="M13.127 23.928L13.2487 23.7465L12.8685 23.5044L12.9293 23.4136L13.264 23.6254L13.3704 23.4742L13.051 23.2472L13.0966 23.1716L13.4617 23.3985L13.5378 23.3077V23.807L13.3857 24.0642L13.5986 24.2003L13.7507 23.928L14.268 23.6103L14.0246 23.4742L13.7507 23.6708L13.7812 23.338L13.5834 23.2321L13.0054 22.8539L12.549 23.5347L13.127 23.928Z" fill="white"/>
</g>
<mask id="mask8_371_27122" style="mask-type:luminance" maskUnits="userSpaceOnUse" x="4" y="2" width="25" height="28">
<path d="M28.1867 2.40002H4V29.7826H28.1867V2.40002Z" fill="white"/>
</mask>
<g mask="url(#mask8_371_27122)">
<path d="M14.4657 24.5784L14.5722 24.2758L14.8916 24.3817L14.9525 24.2002L14.633 24.0943L14.6787 23.9884L15.0438 24.1245L15.1046 23.9279L14.5113 23.7161L14.2223 24.4876L14.4657 24.5784Z" fill="white"/>
</g>
<mask id="mask9_371_27122" style="mask-type:luminance" maskUnits="userSpaceOnUse" x="4" y="2" width="25" height="28">
<path d="M28.1867 2.40002H4V29.7826H28.1867V2.40002Z" fill="white"/>
</mask>
<g mask="url(#mask9_371_27122)">
<path d="M14.9982 24.3211C14.9526 24.5631 15.0743 24.7749 15.3328 24.8203C15.5762 24.8657 15.774 24.7296 15.8348 24.4723C15.8805 24.2303 15.7588 24.0185 15.5002 23.9731C15.2416 23.9277 15.0438 24.079 14.9982 24.3211ZM15.2416 24.3816C15.272 24.2001 15.3785 24.1849 15.4545 24.1849C15.5154 24.2001 15.6067 24.2606 15.5762 24.4421C15.5458 24.6236 15.4393 24.6388 15.3633 24.6388C15.3024 24.6236 15.2111 24.5631 15.2416 24.3816Z" fill="white"/>
</g>
<mask id="mask10_371_27122" style="mask-type:luminance" maskUnits="userSpaceOnUse" x="4" y="2" width="25" height="28">
<path d="M28.1867 2.40002H4V29.7826H28.1867V2.40002Z" fill="white"/>
</mask>
<g mask="url(#mask10_371_27122)">
<path d="M16.276 24.9417C16.5347 24.9417 16.702 24.7753 16.702 24.5181C16.702 24.2609 16.5347 24.0793 16.2913 24.0793C16.0327 24.0793 15.8653 24.2458 15.8653 24.503C15.8501 24.745 16.0174 24.9266 16.276 24.9417ZM16.2913 24.276C16.3521 24.276 16.4586 24.3214 16.4586 24.503C16.4586 24.6845 16.3521 24.7299 16.2913 24.7299C16.2304 24.7299 16.1239 24.6845 16.1239 24.503C16.1239 24.3214 16.2152 24.276 16.2913 24.276Z" fill="white"/>
</g>
<mask id="mask11_371_27122" style="mask-type:luminance" maskUnits="userSpaceOnUse" x="4" y="2" width="25" height="28">
<path d="M28.1867 2.40002H4V29.7826H28.1867V2.40002Z" fill="white"/>
</mask>
<g mask="url(#mask11_371_27122)">
<path d="M16.9299 24.2607L17.0364 24.881L17.2798 24.8356L17.1885 24.2304L17.4167 24.1851L17.3863 23.9733L16.6713 24.0943L16.7017 24.3061L16.9299 24.2607Z" fill="white"/>
</g>
<mask id="mask12_371_27122" style="mask-type:luminance" maskUnits="userSpaceOnUse" x="4" y="2" width="25" height="28">
<path d="M28.1867 2.40002H4V29.7826H28.1867V2.40002Z" fill="white"/>
</mask>
<g mask="url(#mask12_371_27122)">
<path d="M18.1319 24.5938C18.2688 24.5484 18.3753 24.4123 18.3145 24.261C18.2688 24.14 18.1928 24.1097 18.1015 24.1097C18.1472 24.0643 18.1776 24.0038 18.1472 23.9282C18.1167 23.8525 18.0407 23.7467 17.8277 23.8223L17.4018 23.9736L17.6756 24.7451L18.1319 24.5938ZM18.0711 24.3215C18.0863 24.382 18.0559 24.4123 18.0102 24.4274L17.8733 24.4728L17.8277 24.3215L17.9798 24.261C18.0102 24.261 18.0559 24.2761 18.0711 24.3215ZM17.8429 24.0189C17.8885 24.0038 17.9342 24.0038 17.9494 24.0492C17.9646 24.0946 17.9342 24.1249 17.8885 24.14L17.7668 24.1854L17.7212 24.0643L17.8429 24.0189Z" fill="white"/>
</g>
<mask id="mask13_371_27122" style="mask-type:luminance" maskUnits="userSpaceOnUse" x="4" y="2" width="25" height="28">
<path d="M28.1867 2.40002H4V29.7826H28.1867V2.40002Z" fill="white"/>
</mask>
<g mask="url(#mask13_371_27122)">
<path d="M18.6338 24.382L18.6186 24.2609L18.8468 24.1399L18.938 24.2307L19.1662 24.1096L18.5121 23.5197L18.2839 23.6407L18.4056 24.5181L18.6338 24.382ZM18.5273 23.8071L18.7099 24.0037L18.5729 24.0794L18.5273 23.8071Z" fill="white"/>
</g>
<mask id="mask14_371_27122" style="mask-type:luminance" maskUnits="userSpaceOnUse" x="4" y="2" width="25" height="28">
<path d="M28.1867 2.40002H4V29.7826H28.1867V2.40002Z" fill="white"/>
</mask>
<g mask="url(#mask14_371_27122)">
<path d="M19.7139 23.716L19.6074 23.5496L19.288 23.7463L18.9533 23.2319L18.7404 23.3681L19.1967 24.064L19.7139 23.716Z" fill="white"/>
</g>
<mask id="mask15_371_27122" style="mask-type:luminance" maskUnits="userSpaceOnUse" x="4" y="2" width="25" height="28">
<path d="M28.1867 2.40002H4V29.7826H28.1867V2.40002Z" fill="white"/>
</mask>
<g mask="url(#mask15_371_27122)">
<path d="M20.2767 23.3077L20.155 23.1262L19.866 23.3531L19.4857 22.8539L19.2879 23.0052L19.7899 23.6708L20.2767 23.3077Z" fill="white"/>
</g>
<mask id="mask16_371_27122" style="mask-type:luminance" maskUnits="userSpaceOnUse" x="4" y="2" width="25" height="28">
<path d="M28.1867 2.40002H4V29.7826H28.1867V2.40002Z" fill="white"/>
</mask>
<g mask="url(#mask16_371_27122)">
<path d="M20.9003 22.8388C21.0828 22.6875 21.0828 22.4606 20.9764 22.3396L20.7786 22.4909C20.809 22.5665 20.8242 22.627 20.7634 22.6875C20.6721 22.7632 20.5656 22.6875 20.5048 22.6119C20.4287 22.5211 20.3983 22.4152 20.4896 22.3396C20.5656 22.2791 20.6417 22.3245 20.6721 22.3547L20.8699 22.2034C20.7177 22.0521 20.5504 22.037 20.3679 22.1732C20.1701 22.3245 20.1397 22.5665 20.307 22.7783C20.4592 22.9447 20.7025 23.0052 20.9003 22.8388Z" fill="white"/>
</g>
<mask id="mask17_371_27122" style="mask-type:luminance" maskUnits="userSpaceOnUse" x="4" y="2" width="25" height="28">
<path d="M28.1867 2.40002H4V29.7826H28.1867V2.40002Z" fill="white"/>
</mask>
<g mask="url(#mask17_371_27122)">
<path d="M21.722 22.1731L21.585 22.0067L21.296 22.2336L20.9309 21.7344L20.718 21.8857L21.22 22.5513L21.722 22.1731Z" fill="white"/>
</g>
<mask id="mask18_371_27122" style="mask-type:luminance" maskUnits="userSpaceOnUse" x="4" y="2" width="25" height="28">
<path d="M28.1867 2.40002H4V29.7826H28.1867V2.40002Z" fill="white"/>
</mask>
<g mask="url(#mask18_371_27122)">
<path d="M22.0715 21.9764C22.2844 21.8403 22.3453 21.689 22.2236 21.4923L21.965 21.0536L21.752 21.1897L21.9802 21.5831C22.0258 21.6587 22.0715 21.7495 21.9802 21.81C21.8737 21.8705 21.8129 21.7797 21.7824 21.7041L21.5543 21.3108L21.3413 21.4469L21.5999 21.8857C21.6912 22.0672 21.8585 22.0974 22.0715 21.9764Z" fill="white"/>
</g>
<mask id="mask19_371_27122" style="mask-type:luminance" maskUnits="userSpaceOnUse" x="4" y="2" width="25" height="28">
<path d="M28.1867 2.40002H4V29.7826H28.1867V2.40002Z" fill="white"/>
</mask>
<g mask="url(#mask19_371_27122)">
<path d="M22.8626 21.598C22.9995 21.5526 23.106 21.4165 23.0451 21.2652C22.9995 21.1441 22.9234 21.1139 22.8322 21.1139C22.8778 21.0685 22.9082 21.008 22.8778 20.9323C22.8474 20.8567 22.7561 20.7508 22.5583 20.8264L22.1324 20.9777L22.4062 21.7493L22.8626 21.598ZM22.8017 21.3257C22.8169 21.3862 22.7865 21.4165 22.7409 21.4316L22.604 21.477L22.5583 21.3257L22.7105 21.2652C22.7561 21.2652 22.7865 21.2803 22.8017 21.3257ZM22.5735 21.0231C22.6192 21.008 22.6648 21.008 22.68 21.0534C22.6952 21.0988 22.6648 21.129 22.6192 21.1441L22.4975 21.1895L22.4518 21.0685L22.5735 21.0231Z" fill="white"/>
</g>
<mask id="mask20_371_27122" style="mask-type:luminance" maskUnits="userSpaceOnUse" x="4" y="2" width="25" height="28">
<path d="M28.1867 2.40002H4V29.7826H28.1867V2.40002Z" fill="white"/>
</mask>
<g mask="url(#mask20_371_27122)">
<path d="M24.1254 19.7676L24.0798 19.7222H24.0646C24.5209 18.9355 24.384 18.1942 24.384 18.1488C24.3688 18.0883 24.3384 17.9522 24.2015 17.8311C24.0342 17.6799 23.7603 17.6193 23.3953 17.6647C22.9998 17.7101 22.7107 17.8463 22.6042 18.0581L22.589 18.0732C22.5586 18.1337 22.513 18.2547 22.5282 18.4212C22.5434 18.5422 22.589 18.6935 22.6195 18.8145C22.3913 18.8447 22.1783 18.875 21.9805 18.9507C21.7828 19.0263 21.6763 19.1171 21.6459 19.2381C21.6307 19.2683 21.6307 19.3137 21.6459 19.344C21.6459 19.344 21.6003 19.9945 21.6763 20.5997C20.718 21.0232 20.1704 21.5376 20.1704 21.5376C18.0711 23.4741 16.3977 23.5346 16.2 23.5346H16.1848C16.1696 23.5346 14.4203 23.5648 12.2145 21.5376C12.2145 21.5376 11.6821 21.0838 10.7694 20.6753C10.8606 20.0399 10.815 19.2683 10.7998 19.2229C10.7694 19.1019 10.6629 18.996 10.4651 18.9355C10.2674 18.8599 10.0544 18.8296 9.82624 18.7994C9.87187 18.6783 9.90229 18.527 9.91752 18.406C9.93272 18.2396 9.90229 18.1337 9.85667 18.0581C9.85667 18.043 9.84144 18.043 9.84144 18.0278C9.71977 17.816 9.44595 17.6647 9.05043 17.6345C8.68534 17.6042 8.41155 17.6496 8.2442 17.8009C8.1073 17.9219 8.07688 18.0581 8.06168 18.1186C8.06168 18.1488 7.92476 18.8447 8.44197 19.6466C8.44197 19.6466 8.42675 19.6466 8.41155 19.6617C8.41155 19.6617 8.39632 19.6768 8.38112 19.6768C8.3507 19.692 8.33547 19.7071 8.32028 19.7373C8.27462 19.7827 8.21378 19.8735 8.16815 19.9794C8.06168 20.2215 8.00083 20.7358 8.4724 21.8099L8.4876 21.8402L8.51802 21.8553C8.53325 21.8553 9.84144 22.2184 11.2409 23.3077C12.2297 24.0792 13.4162 24.9113 14.6788 25.2744L14.7852 25.3046C14.9526 25.35 15.1351 25.3954 15.3176 25.4105L15.4393 25.4257C15.4546 25.4257 15.485 25.4257 15.5154 25.4408H15.5763C15.774 25.4559 15.9718 25.471 16.1695 25.471C16.276 25.471 16.3673 25.471 16.4737 25.4559C16.7324 25.4408 17.0062 25.4105 17.28 25.35C17.4778 25.3046 17.6147 25.2744 17.6755 25.2441C18.8316 24.9113 20.0486 24.2002 21.0982 23.2774C22.4825 22.052 23.7907 21.8402 23.8059 21.8402H23.8515L23.8668 21.7948C24.247 20.7812 24.2927 20.2668 24.247 20.0097C24.2622 19.934 24.171 19.8281 24.1254 19.7676ZM22.7412 18.1035C22.8476 17.937 23.0758 17.8311 23.4105 17.8009C23.4713 17.8009 23.5322 17.7857 23.593 17.7857C23.8212 17.7857 23.9885 17.8311 24.095 17.937C24.2015 18.0278 24.2167 18.1337 24.2319 18.164V18.2245V18.2396C24.1863 18.5119 23.9733 18.633 23.6082 18.6935L23.5017 18.2094L23.4257 18.2245C22.8781 18.3758 22.7564 18.285 22.7259 18.2547C22.6803 18.2094 22.7412 18.1035 22.7412 18.1035ZM22.7259 18.4363C22.8629 18.4968 23.091 18.4817 23.3953 18.406L23.4713 18.7389C23.3496 18.754 23.2127 18.7691 23.0606 18.7842H23.0454C23.0149 18.7842 22.9846 18.7842 22.9541 18.7994C22.9237 18.7994 22.8781 18.7994 22.8476 18.8145H22.7868C22.7868 18.7994 22.7716 18.7691 22.7564 18.7389C22.7412 18.6935 22.7259 18.633 22.7107 18.5724C22.6955 18.527 22.6803 18.4665 22.6803 18.4212C22.6955 18.4212 22.7107 18.4363 22.7259 18.4363ZM21.798 19.2835C21.8132 19.2078 21.9045 19.1473 22.0414 19.0868C22.2392 19.0112 22.4521 18.9809 22.6803 18.9507C22.7107 18.9507 22.7259 18.9507 22.7564 18.9355C22.8476 18.9204 22.9237 18.9204 23.0149 18.9053H23.0302H23.0606H23.1214C23.1519 18.9053 23.1823 18.9053 23.2127 18.8901C23.3648 18.875 23.517 18.8599 23.6539 18.8296C23.7756 18.8145 23.882 18.7842 23.9885 18.7389C24.0646 18.7086 24.1254 18.6783 24.1863 18.633C24.2167 18.6027 24.2623 18.5724 24.2927 18.5422V18.633C24.2775 18.9053 24.2015 19.2683 23.9885 19.6314C23.9429 19.6012 23.882 19.586 23.806 19.5709C23.593 19.5104 23.2127 19.4953 22.8476 19.4802C22.589 19.465 22.3152 19.465 22.1175 19.4348C21.9349 19.4045 21.8741 19.3742 21.8589 19.3591C21.798 19.344 21.798 19.3137 21.798 19.2835ZM21.7828 19.5407V19.5104C21.8893 19.5558 22.0718 19.586 22.3 19.6012C22.4065 19.6012 22.513 19.6163 22.6347 19.6163H22.7868C23.1366 19.6314 23.5017 19.6466 23.7147 19.692C23.7756 19.7071 23.8212 19.7222 23.8668 19.7373C23.8973 19.7525 23.9125 19.7525 23.9277 19.7676C24.0037 19.813 24.0037 19.8432 24.0037 19.8432C24.0037 19.8735 23.9733 19.9189 23.882 19.9643C23.8364 19.9945 23.7756 20.0097 23.6995 20.0399C23.5778 20.0853 23.4105 20.1155 23.1823 20.1458C22.6651 20.2215 22.2087 20.3727 21.8132 20.524C21.7828 20.1609 21.7828 19.7676 21.7828 19.5407ZM9.79585 18.406C9.79585 18.4514 9.78062 18.4968 9.76542 18.5573C9.75022 18.6178 9.735 18.6632 9.7198 18.7237C9.70457 18.754 9.70457 18.7691 9.68938 18.7994H9.62853C9.5981 18.7994 9.55245 18.7994 9.52203 18.7842C9.4916 18.7842 9.46118 18.7842 9.43075 18.7691H9.41556C9.26343 18.754 9.12654 18.7389 9.00484 18.7237L9.08089 18.3909C9.40033 18.4665 9.6133 18.4817 9.75022 18.4212C9.78062 18.4212 9.79585 18.4212 9.79585 18.406ZM8.36593 17.9219C8.50285 17.8009 8.74622 17.7555 9.06569 17.7857C9.40033 17.816 9.64372 17.9219 9.735 18.0883C9.7502 18.1034 9.78062 18.2094 9.75022 18.2547C9.7198 18.285 9.5981 18.3758 9.05046 18.2245L8.97441 18.2094L8.86792 18.6935C8.50285 18.633 8.27465 18.5119 8.24423 18.2396V18.2245V18.164C8.24423 18.1337 8.25945 18.0127 8.36593 17.9219ZM8.24423 18.6481C8.24423 18.6178 8.22903 18.5876 8.22903 18.5573C8.25945 18.5876 8.28988 18.6178 8.3203 18.633C8.38115 18.6783 8.442 18.7086 8.51805 18.7389C8.60932 18.7842 8.73102 18.8145 8.83749 18.8296C8.97441 18.8599 9.12654 18.875 9.27863 18.8901C9.30906 18.8901 9.33948 18.8901 9.3699 18.9053H9.43075H9.46118H9.4764C9.56768 18.9053 9.64372 18.9204 9.735 18.9355C9.76542 18.9355 9.78062 18.9355 9.81105 18.9507C10.0392 18.9809 10.2522 19.0112 10.45 19.0868C10.5869 19.1473 10.6781 19.2078 10.6934 19.2835C10.7086 19.3137 10.6934 19.344 10.6781 19.3742C10.6629 19.3894 10.5869 19.4196 10.4195 19.4499C10.2218 19.4802 9.94797 19.4802 9.68938 19.4953C9.32428 19.5104 8.94399 19.5255 8.73102 19.586C8.68537 19.6012 8.65494 19.6163 8.60932 19.6314C8.38115 19.2532 8.27465 18.9053 8.24423 18.6481ZM8.47242 19.8735V19.8432C8.48762 19.8281 8.51805 19.7978 8.54847 19.7827C8.5637 19.7676 8.59412 19.7676 8.60932 19.7524C8.62455 19.7373 8.65494 19.7373 8.68537 19.7222C8.70059 19.7222 8.73102 19.7071 8.76144 19.7071C8.95919 19.6466 9.32428 19.6314 9.68938 19.6314C9.76542 19.6314 9.84147 19.6314 9.91754 19.6163C10.0392 19.6163 10.1457 19.6012 10.237 19.6012C10.4347 19.586 10.6021 19.5558 10.6934 19.5104V19.5407C10.6934 19.7827 10.7086 20.2215 10.6477 20.6299C10.237 20.4484 9.76542 20.282 9.21778 20.1761C9.06569 20.1458 8.94399 20.1155 8.85272 20.0853C8.82229 20.0702 8.79187 20.0702 8.76144 20.055C8.47243 19.9491 8.47242 19.8886 8.47242 19.8735ZM23.7755 21.7494C23.5321 21.7948 22.3304 22.0822 21.0374 23.2169C20.003 24.1246 18.8012 24.8205 17.6604 25.1533C17.5995 25.1685 17.4626 25.2139 17.2801 25.2441C17.0215 25.3046 16.7629 25.3349 16.5043 25.35C16.2153 25.3651 15.911 25.3651 15.622 25.3197H15.5612C15.546 25.3197 15.5155 25.3197 15.5003 25.3046L15.3786 25.2895C15.2417 25.2744 15.1048 25.2441 14.9679 25.1987L14.8766 25.1685C13.5988 24.8205 12.3971 23.9733 11.3931 23.2017C10.1001 22.2033 8.86792 21.8099 8.65494 21.7343C8.19861 20.645 8.28988 20.1912 8.38115 20.0248C8.38115 20.0097 8.39635 20.0097 8.39635 19.9945C8.42677 20.0248 8.4572 20.055 8.51805 20.0853C8.54847 20.1004 8.59412 20.1307 8.63975 20.1458C8.76144 20.1912 8.95919 20.2517 9.21778 20.3122C9.55245 20.3879 9.8567 20.4786 10.1305 20.5694C10.237 20.6148 10.3435 20.645 10.45 20.6904C10.5412 20.7207 10.6325 20.7661 10.7238 20.8115C11.6365 21.2199 12.1537 21.6587 12.1537 21.6587C14.3898 23.7161 16.1391 23.701 16.2151 23.701H16.2304C16.4281 23.701 18.147 23.6405 20.2918 21.6738C20.2918 21.6738 20.809 21.1745 21.7217 20.7661C21.737 20.751 21.7674 20.751 21.7978 20.7358C21.8739 20.7056 21.9499 20.6753 22.0412 20.645C22.3911 20.5089 22.7866 20.403 23.2429 20.3273C23.5471 20.282 23.7601 20.2215 23.897 20.1609C23.9427 20.1458 23.9883 20.1155 24.0187 20.1004C24.0796 20.0702 24.11 20.0399 24.1404 20.0097C24.1404 20.0248 24.1556 20.0399 24.1556 20.055C24.1708 20.2366 24.1558 20.7207 23.7755 21.7494Z" fill="white"/>
</g>
<mask id="mask21_371_27122" style="mask-type:luminance" maskUnits="userSpaceOnUse" x="4" y="2" width="25" height="28">
<path d="M28.1867 2.40002H4V29.7826H28.1867V2.40002Z" fill="white"/>
</mask>
<g mask="url(#mask21_371_27122)">
<path d="M16.0781 20.0097C16.1694 19.8433 16.0173 19.692 16.0173 19.7223C16.0325 19.7677 15.9412 19.7828 15.9412 19.7828C15.8499 19.7979 15.6522 19.7374 15.6522 19.7374C14.9829 19.6164 15.1958 20.4485 15.2415 20.63C15.2719 20.7359 15.1958 20.978 14.8155 20.9477C14.5265 20.9174 14.5113 21.0687 14.5113 21.0687C14.6482 20.9628 14.7395 21.0385 14.7395 21.0385C14.5874 21.0536 14.5417 21.22 14.5417 21.22C14.6938 21.0838 14.8308 21.1746 14.8308 21.1746C14.7091 21.2049 14.7091 21.3713 14.7091 21.3713C14.8003 21.2503 14.8916 21.3108 14.8916 21.3108C14.8916 21.3108 15.0741 21.3864 15.1198 21.1898C15.135 21.1292 15.2415 21.22 15.2415 21.22C15.2262 21.1444 15.2567 21.0687 15.2719 21.0385C15.2871 21.0082 15.4088 21.1292 15.4088 21.1292C15.4696 21.0687 15.4392 20.9931 15.4392 20.978C15.4392 20.9477 15.3936 20.8418 15.424 20.7813C15.5153 20.6603 15.637 20.872 15.637 20.872C15.6674 20.7056 15.5001 20.3879 15.4849 20.3728C15.4088 20.282 15.3784 20.0702 15.713 20.3274C15.8347 20.4333 15.9869 20.3728 15.9869 20.3728C15.9412 20.2064 16.0781 20.0097 16.0781 20.0097Z" fill="white"/>
</g>
<mask id="mask22_371_27122" style="mask-type:luminance" maskUnits="userSpaceOnUse" x="4" y="2" width="25" height="28">
<path d="M28.1867 2.40002H4V29.7826H28.1867V2.40002Z" fill="white"/>
</mask>
<g mask="url(#mask22_371_27122)">
<path d="M15.6521 18.1641C15.6521 18.1641 15.713 18.2398 15.6521 18.3456C15.6521 18.3456 15.8347 18.391 15.9259 18.3003C15.9259 18.3003 15.8803 18.4213 15.9564 18.5574C15.9564 18.5574 16.0933 18.4818 16.1237 18.391C16.1237 18.391 16.1845 18.4062 16.2302 18.5121C16.2758 18.618 16.3215 18.6331 16.3215 18.6331C16.3215 18.6331 16.3215 18.4818 16.4279 18.4516C16.4279 18.4516 16.5496 18.6028 16.7169 18.5423C16.7169 18.5423 16.4431 18.391 16.7169 18.3305C16.7169 18.3305 16.5192 18.27 16.5344 18.1792C16.5344 18.1792 16.4279 18.3456 16.1998 18.3003C16.1998 18.3003 16.2606 18.2246 16.2302 18.1339C16.2302 18.1339 16.0476 18.2398 15.8955 18.1641C15.8955 18.1641 15.8955 17.9977 16.002 17.9372C16.002 17.9372 15.7586 17.9069 15.6825 17.9826C15.6825 17.9826 15.6369 17.8767 15.713 17.7859C15.713 17.7859 15.4848 17.8615 15.4239 18.2246C15.4087 18.2398 15.5761 18.2549 15.6521 18.1641Z" fill="white"/>
</g>
<mask id="mask23_371_27122" style="mask-type:luminance" maskUnits="userSpaceOnUse" x="4" y="2" width="25" height="28">
<path d="M28.1867 2.40002H4V29.7826H28.1867V2.40002Z" fill="white"/>
</mask>
<g mask="url(#mask23_371_27122)">
<path d="M14.1464 19.0718C14.1464 19.0718 13.9334 19.2382 14.1008 19.4197C14.1008 19.4197 14.116 19.1928 14.2529 19.2533C14.2529 19.2533 14.0247 19.4197 14.2529 19.5559C14.2529 19.5559 14.2377 19.3289 14.4202 19.3743C14.5267 19.4046 14.6027 19.2684 14.6027 19.2684C14.6027 19.2684 14.7244 19.1928 14.8005 19.2987C14.8766 19.4197 14.9831 19.4348 14.9983 19.45C14.9983 19.45 14.9222 19.3441 14.9983 19.2987C14.9983 19.2987 15.12 19.4197 15.2112 19.4197C15.2112 19.4197 15.1047 19.2987 15.2112 19.2835C15.2112 19.2835 15.2721 19.2835 15.2873 19.3441C15.3025 19.4197 15.4851 19.45 15.5003 19.45C15.5003 19.45 15.3938 19.3592 15.4546 19.2684V19.2533C15.5155 19.1625 15.5763 19.1928 15.5763 19.1928C15.8045 19.1323 15.7893 18.8902 15.7893 18.8297C15.8045 18.8297 15.8197 18.8448 15.8197 18.86C15.8501 18.9356 15.8653 19.1171 15.6067 19.2684C15.6067 19.2684 15.622 19.4802 15.9718 19.6315C15.9718 19.6315 15.9262 19.3592 16.1391 19.7525C16.1391 19.7525 16.2152 19.9038 16.1239 20.0551C16.0479 20.2064 15.9566 20.4636 16.2456 20.63C16.5347 20.8115 16.7172 21.0082 16.5803 21.5226C16.5803 21.5226 16.489 21.7041 16.3065 21.6587C16.1239 21.6133 16.0479 21.5377 15.8958 21.7344C15.8958 21.7344 16.0783 21.6436 16.1848 21.7646C16.1848 21.7646 15.9718 21.7041 15.8958 21.9764C15.8958 21.9764 16.1087 21.8554 16.2 21.9462C16.2 21.9462 16.0783 21.9764 16.0783 22.1277C16.0783 22.1277 16.2 22.0369 16.2913 22.0823C16.4434 22.1428 16.4738 22.0521 16.5195 21.9764C16.5651 21.9008 16.6716 22.0067 16.8237 21.9764C16.8237 21.9764 16.6107 21.81 16.7324 21.7344C16.8085 21.689 16.9454 21.7798 17.0062 21.7041C17.0062 21.7041 16.7324 21.5982 16.8693 21.4167C16.9302 21.341 17.0366 21.4318 17.0975 21.3864C17.0975 21.3864 16.915 21.3259 16.9454 21.1595C16.9606 21.0536 17.0062 21.0687 17.0366 21.0838C17.0671 21.099 17.1431 21.1141 17.1888 21.0838C17.1888 21.0838 17.1127 21.0687 17.0975 20.978C17.0823 20.8872 17.0975 20.7661 16.991 20.6905C16.9302 20.6451 16.8845 20.6451 16.8845 20.4938C16.8845 20.3123 16.9606 20.2972 17.0062 20.282C17.0519 20.282 17.1583 20.2669 17.2192 20.2215C17.2192 20.2215 17.6147 19.9795 17.4017 19.4802C17.1888 18.981 17.0823 18.9507 17.1127 18.5574C17.1431 18.164 17.2344 17.9825 17.3257 17.8463C17.3865 17.7405 17.5234 17.6648 17.6147 17.6497C17.6147 17.6497 17.8429 17.6043 17.8125 17.8766C17.8125 17.8766 17.8125 17.9523 17.6756 18.0581C17.5386 18.1792 17.493 18.3002 17.493 18.3002C17.493 18.3002 17.6451 18.1943 17.6756 18.2246C17.706 18.2548 17.6908 18.3002 17.6299 18.3758C17.5691 18.4364 17.493 18.5876 17.5082 18.7087C17.5082 18.7087 17.5539 18.633 17.6147 18.633C17.6147 18.633 17.5843 18.8751 17.7364 18.9659C17.7364 18.9659 17.6908 18.6935 17.7972 18.5423C17.8733 18.4364 18.0559 18.0884 17.9494 17.8463C17.9494 17.8463 17.9494 17.5286 17.7516 17.4984C17.7516 17.4984 17.782 17.5589 17.7668 17.5438C17.7516 17.5286 17.1431 17.4833 17.0214 18.4364C17.0214 18.4818 16.991 18.6179 16.991 18.6179C16.991 18.6179 16.9758 18.86 16.8237 18.6784C16.8237 18.6784 16.8085 18.8751 17.0062 18.9961C17.204 19.1323 16.8237 19.1171 16.7476 18.981C16.7476 18.981 16.7476 19.1323 16.9454 19.223C17.1431 19.2987 17.1127 19.4046 16.7933 19.3289C16.7933 19.3289 16.8845 19.4651 17.1431 19.4651C17.4017 19.4651 17.4169 19.8584 17.3257 19.9492C17.1888 20.0702 17.1127 20.0551 17.0519 20.04C16.9758 20.0248 16.9454 20.04 16.9454 20.04C16.9454 20.04 16.7933 19.8887 16.7628 19.7525C16.7476 19.6466 16.5347 19.4651 16.5347 19.4651C16.5347 19.4651 16.413 19.3138 16.4586 19.0113C16.5042 18.7087 16.5195 18.6179 16.5042 18.5725C16.5042 18.5725 16.4282 18.5574 16.3978 18.512C16.3978 18.512 16.3521 18.633 16.3521 18.7087C16.3521 18.7087 16.2 18.6784 16.1391 18.5574C16.0935 18.4364 16.0479 18.4666 16.0479 18.4666C16.0479 18.4666 15.9566 18.5876 15.8501 18.6179C15.8501 18.6179 15.8045 18.6028 15.8045 18.4818V18.4061V18.3607C15.8045 18.3607 15.6372 18.4061 15.5307 18.3607C15.5307 18.3607 15.5611 18.2851 15.5307 18.2397C15.5307 18.2397 15.4546 18.2851 15.3025 18.2548C15.3025 18.2548 15.2721 18.1187 15.409 17.9069C15.409 17.9069 15.4242 17.8463 15.3481 17.7102C15.2721 17.5892 15.1504 17.3168 15.2569 17.1353C15.3329 17.0143 15.3025 16.8479 15.196 16.7873C15.1047 16.7268 15.0439 16.7268 14.907 16.7722C14.907 16.7722 15.0895 16.7571 15.0895 16.9084C15.0895 16.9084 14.8918 16.7117 14.7244 16.9084C14.7244 16.9084 14.9526 16.8781 14.907 17.0597C14.907 17.0597 14.7397 16.8327 14.5723 17.105C14.5723 17.105 14.8005 17.0748 14.8005 17.2715C14.7853 17.4076 14.9678 17.453 14.9678 17.453C14.9678 17.453 15.0135 17.8463 14.7853 17.8312C14.7853 17.8312 14.9222 17.922 14.983 17.9069C14.983 17.9069 14.9983 18.0581 14.8614 18.0733C14.8614 18.0733 14.9374 18.1489 15.0439 18.1489C15.0439 18.1489 15.0591 18.1943 14.9983 18.2246C14.9222 18.27 14.9222 18.391 14.9222 18.4061C14.9222 18.4061 14.9983 18.3456 15.12 18.4061C15.2417 18.4666 15.3938 18.4212 15.4242 18.4061C15.4242 18.4061 15.4546 18.391 15.4851 18.391C15.4698 18.4061 15.4546 18.4364 15.4242 18.4818C15.3786 18.5423 15.3177 18.6179 15.2569 18.6935C15.0895 18.86 14.8005 19.0264 14.3746 18.8297C14.2681 18.7843 14.0856 18.7692 14.0095 18.8448C13.9334 18.9205 13.903 19.0113 13.9791 19.1171C14.0095 19.2079 14.0095 19.0415 14.1464 19.0718Z" fill="white"/>
</g>
<mask id="mask24_371_27122" style="mask-type:luminance" maskUnits="userSpaceOnUse" x="4" y="2" width="25" height="28">
<path d="M28.1867 2.40002H4V29.7826H28.1867V2.40002Z" fill="white"/>
</mask>
<g mask="url(#mask24_371_27122)">
<path d="M16.139 17.9069C16.0021 17.9674 16.0173 18.1035 16.0173 18.1035C16.2302 18.0884 16.2759 17.9976 16.2759 17.9976C16.3976 18.0279 16.3215 18.1943 16.3063 18.2094H16.3367C16.3824 18.2094 16.4736 18.164 16.5649 18.043C16.5649 18.0733 16.5953 18.27 16.8996 18.2548C16.8996 18.2548 16.7018 18.164 16.7474 18.043V18.0279C16.8691 18.1489 17.0365 17.9976 17.0365 17.9976C16.8691 17.9976 16.8539 17.9069 16.8539 17.8615C17.0517 17.9825 17.1582 17.7858 17.1277 17.7556C17.1277 17.7556 16.7779 17.8917 17.0669 17.2715C17.0973 17.1958 17.2038 17.0748 17.0973 16.9689C16.9908 16.863 16.9452 16.6815 17.0669 16.5907C17.0669 16.5907 16.93 16.5302 16.7474 16.6512C16.6562 16.7117 16.5801 16.6815 16.5801 16.6815C16.5801 16.6815 16.428 16.6058 16.2911 16.6663C16.1846 16.7117 16.1542 16.7722 16.139 16.8025C16.0629 16.7722 15.926 16.863 15.9108 16.863C15.8956 16.863 15.9108 16.9235 15.8956 16.9538C15.8804 16.984 15.8652 17.0899 16.0021 17.0899C16.139 17.0748 16.2302 17.0445 16.2302 17.0445C16.2302 17.0445 16.2607 17.0748 16.2759 17.1504C16.2911 17.2412 16.3367 17.3774 16.1542 17.3925L16.1998 17.4379C16.2455 17.4681 16.3976 17.4681 16.4128 17.3774C16.4432 17.3017 16.4889 17.2866 16.4889 17.2866C16.4889 17.2866 16.5649 17.4984 16.2607 17.5287C15.9564 17.5589 15.7739 17.6648 15.713 17.8917C16.0781 17.801 16.139 17.9069 16.139 17.9069ZM16.428 16.863C16.3672 16.9084 16.3063 16.8932 16.2302 16.8176C16.3063 16.7268 16.4128 16.6966 16.5649 16.8025C16.5649 16.8025 16.4889 16.8176 16.428 16.863Z" fill="white"/>
</g>
<mask id="mask25_371_27122" style="mask-type:luminance" maskUnits="userSpaceOnUse" x="4" y="2" width="25" height="28">
<path d="M28.1867 2.40002H4V29.7826H28.1867V2.40002Z" fill="white"/>
</mask>
<g mask="url(#mask25_371_27122)">
<path d="M13.1727 14.7905L12.6859 13.9735L12.1839 14.8056L12.6859 15.7435L13.1727 14.7905Z" fill="white"/>
</g>
<mask id="mask26_371_27122" style="mask-type:luminance" maskUnits="userSpaceOnUse" x="4" y="2" width="25" height="28">
<path d="M28.1867 2.40002H4V29.7826H28.1867V2.40002Z" fill="white"/>
</mask>
<g mask="url(#mask26_371_27122)">
<path d="M20.2309 14.7905L19.7289 13.9735L19.227 14.8056L19.7442 15.7435L20.2309 14.7905Z" fill="white"/>
</g>
<mask id="mask27_371_27122" style="mask-type:luminance" maskUnits="userSpaceOnUse" x="4" y="2" width="25" height="28">
<path d="M28.1867 2.40002H4V29.7826H28.1867V2.40002Z" fill="white"/>
</mask>
<g mask="url(#mask27_371_27122)">
<path d="M16.1087 22.9448H16.1695C19.0294 22.3851 21.296 19.8284 21.3263 17.1203V10.4184H18.9076C19.0597 10.3579 19.1814 10.2066 19.1814 10.025C19.1814 9.7981 18.9989 9.60144 18.7555 9.60144H18.1622C17.9188 9.57118 17.8732 9.32912 17.8732 9.32912C17.5842 9.6317 17.2951 9.16272 17.2951 9.16272L16.7931 9.32912L16.6714 9.1022C16.7323 8.98117 16.8084 8.86014 16.8844 8.79962C17.0213 8.67859 17.067 8.66348 17.067 8.66348C17.0061 8.5273 16.9757 8.40627 16.9757 8.3609C16.9909 8.34576 17.0974 8.30038 17.2039 8.25498C17.2495 8.23987 17.2951 8.22473 17.3408 8.20961H17.4168L17.356 8.14909C17.3712 8.14909 17.4016 8.17935 17.4168 8.17935C17.4473 8.19447 17.4777 8.20961 17.5081 8.20961C17.5385 8.20961 17.5842 8.20961 17.5689 8.17935C17.5842 8.17935 17.6146 8.19447 17.6298 8.19447H17.6906C17.7058 8.17935 17.7211 8.17935 17.7363 8.16424C17.7515 8.14909 17.7667 8.1491 17.7819 8.13398C17.7819 8.11884 17.7971 8.11884 17.7971 8.10372C17.7971 8.08858 17.7971 8.07346 17.7819 8.07346C17.7515 8.04321 17.7211 8.04321 17.6906 8.02806L17.5842 7.99781C17.5537 7.98269 17.5385 7.98269 17.5081 7.96755C17.4321 7.93729 17.5081 7.96755 17.5385 7.96755H17.6146C17.645 7.96755 17.6602 7.95243 17.6906 7.95243L17.7667 7.92218C17.7667 7.92218 17.6906 7.95243 17.5233 7.8314C17.4625 7.786 17.4321 7.72549 17.3864 7.68011C17.2951 7.57422 17.2039 7.46831 17.0974 7.37754C16.9909 7.28676 16.8844 7.19599 16.7627 7.13547C16.6562 7.07499 16.5345 7.02958 16.3976 7.02958H16.3824C16.3824 7.01447 16.352 6.77241 16.4889 6.46983C16.565 6.30343 16.5802 6.13699 16.5041 6.00085C16.4433 5.89496 16.352 5.83444 16.2455 5.80419C16.2303 5.80419 16.0478 5.77393 15.8348 5.92522C15.774 5.95548 15.7131 5.98573 15.6523 6.01596C15.8348 5.80419 16.2303 5.59238 16.3064 5.57724V5.56212C16.2911 5.56212 16.0326 5.57724 15.8652 5.68316C15.8957 5.62264 15.9261 5.51672 15.8957 5.35032V5.33521H15.8804C15.8804 5.33521 15.4849 5.42598 15.4849 5.97059C15.4849 5.97059 15.4849 6.04622 15.4545 6.13699C15.4089 6.16725 15.3937 6.19751 15.3937 6.19751C15.4089 6.1824 15.4241 6.18239 15.4393 6.18239C15.4241 6.21265 15.4089 6.25803 15.3784 6.28828C15.2872 6.40931 15.2111 6.62112 15.2111 6.80267V6.81778L15.2263 6.80267C15.2263 6.80267 15.3784 6.69675 15.4089 6.5606C15.4241 6.50009 15.4697 6.45471 15.4849 6.42446C15.5001 6.48497 15.5153 6.62112 15.5153 6.65138V6.66649H15.5306C15.561 6.63623 15.6827 6.46983 15.561 6.24291C15.5458 6.21265 15.5458 6.16725 15.5458 6.12188C15.7435 6.07648 15.8804 6.15214 15.9413 6.18239C15.9717 6.21265 16.0021 6.24291 16.0173 6.28828C16.0478 6.37906 16.0326 6.48497 15.9717 6.59086C15.9261 6.69675 15.8652 6.77241 15.8196 6.84804C15.6979 7.04473 15.6066 7.18087 15.637 7.48345C15.6827 7.8314 15.9109 7.99781 16.0478 8.05832C16.1238 8.13398 16.1695 8.25498 16.1999 8.3155C16.2455 8.40627 16.1999 8.39116 16.1999 8.39116C15.9413 8.40627 15.85 8.27013 15.6675 8.19447C15.6218 8.17935 15.5762 8.16424 15.5306 8.16424C15.4241 8.11884 15.272 8.11884 15.135 8.16424C14.8765 8.23987 14.7091 8.45167 14.77 8.63322C14.7852 8.69373 14.8308 8.75422 14.9069 8.78448C14.9677 8.81474 15.0438 8.82988 15.135 8.82988C15.1959 8.82988 15.272 8.81474 15.348 8.79962C15.561 8.72399 15.7131 8.5727 15.7283 8.42141C15.8196 8.45167 16.0782 8.64833 16.276 8.72399C16.4889 8.81474 16.565 8.5727 16.565 8.5727C16.6258 8.67859 16.4737 9.02654 16.3824 9.22323L16.2912 9.28375L16.2455 9.0568L16.0326 9.34424C15.9565 9.31398 15.7283 9.04169 15.7283 9.04169C15.6979 9.32912 15.6066 9.40475 15.5762 9.41989L15.0742 9.08706C15.0742 9.31398 14.846 9.45015 14.7243 9.45015L14.3897 9.28375C14.4201 9.52578 14.2223 9.57118 14.1615 9.57118H13.5835C13.3553 9.57118 13.1575 9.75273 13.1575 9.99476C13.1575 10.1763 13.264 10.3276 13.4313 10.3881H10.9518V17.09C10.9822 19.8283 13.2489 22.3851 16.1087 22.9448ZM18.4057 9.7831H18.4209C18.6947 9.72258 18.8773 9.81335 18.8773 9.81335C18.9685 9.85873 18.999 9.91924 18.9837 9.97976C18.9685 10.1008 18.8012 10.2369 18.786 10.1613C18.7556 9.99487 18.573 9.91924 18.573 9.91924C18.573 9.91924 18.3296 9.79821 18.4057 9.7831ZM18.8164 11.5682C18.8164 11.5531 18.8316 11.5228 18.8316 11.5077C18.7404 11.3413 18.6643 11.2052 18.6339 11.1598C18.6187 11.1446 18.6187 11.1446 18.6034 11.1295C18.5578 11.069 18.5274 11.0388 18.5578 11.0236C18.573 11.0085 18.6034 11.0236 18.6339 11.0236C18.6339 11.0236 18.7403 11.0841 18.862 11.2959C18.8773 11.3111 18.8773 11.3262 18.8925 11.3564C18.9685 11.19 19.0598 11.0841 19.1663 11.0841C19.2728 11.0841 19.364 11.19 19.4401 11.3564C19.4553 11.3262 19.4705 11.2959 19.4857 11.2808C19.6074 11.069 19.7139 11.0085 19.7139 11.0085C19.7291 10.9934 19.7595 10.9782 19.79 11.0085C19.8052 11.0388 19.79 11.0539 19.7443 11.1144L19.7139 11.1446C19.6683 11.19 19.5922 11.3262 19.5009 11.5077C19.5161 11.5228 19.5161 11.5228 19.5314 11.5531C20.0181 11.4624 20.3984 11.4775 20.4288 11.5985C20.4593 11.6893 20.1855 11.8254 19.9421 11.9616C20.1855 12.0977 20.4593 12.2339 20.4288 12.3247C20.3832 12.4608 20.0334 12.476 19.5466 12.3852L19.5314 12.4911V12.5214L19.5618 12.5667C19.5618 12.5667 19.6987 12.8088 19.79 12.8996C19.8204 12.9298 19.8052 12.9449 19.8052 12.9449C19.8052 12.9601 19.79 12.9601 19.7748 12.9601C19.7595 12.9601 19.7291 12.9449 19.6835 12.9298C19.6531 12.9147 19.5922 12.8239 19.5009 12.6726C19.4857 12.7029 19.4857 12.7483 19.4705 12.7785C19.3944 12.9752 19.3032 13.0811 19.1815 13.0811C19.0598 13.0811 18.9381 12.9298 18.8773 12.6878C18.8012 12.8239 18.7403 12.9147 18.7099 12.9298C18.6643 12.9601 18.6339 12.9601 18.6187 12.9601C18.6034 12.9601 18.6034 12.9601 18.5882 12.9449C18.5882 12.9449 18.573 12.9147 18.6034 12.8996C18.6947 12.7936 18.8316 12.5667 18.8316 12.5516C18.8316 12.5516 18.8468 12.5365 18.8468 12.5062C18.8468 12.5062 18.8316 12.4003 18.8316 12.3701C18.36 12.4608 17.995 12.4457 17.9645 12.3096C17.9341 12.2188 18.1775 12.0675 18.4361 11.9313C18.36 11.9011 18.2992 11.8557 18.2383 11.8254C18.071 11.7347 17.9493 11.6439 17.9645 11.5834C17.9493 11.4926 18.3144 11.4775 18.8164 11.5682ZM16.0328 5.95564C16.0328 5.95564 16.0936 5.86487 16.2609 5.95564C16.2609 5.95564 16.2001 6.07664 16.0328 5.95564ZM16.124 7.18104C16.124 7.74079 16.6412 7.93745 16.6565 7.9526C16.6412 7.93745 16.626 7.9072 16.626 7.89208C16.6869 7.92234 16.7477 7.9526 16.8086 7.96771C16.839 7.98286 16.8694 7.98286 16.8999 7.99797H16.9151C16.8999 7.98286 16.8846 7.9526 16.8846 7.93745C16.9303 7.96771 16.9759 7.98286 17.0216 7.98286C17.0368 7.98286 17.0672 7.98286 17.0824 7.96771L17.1128 7.9526C17.128 7.9526 17.1432 7.93745 17.1585 7.93745C17.1585 7.9526 17.1432 7.96771 17.1432 7.98286L17.1128 8.01311C17.0824 8.02823 17.052 8.04337 17.0216 8.04337C17.0063 8.04337 16.9911 8.04337 16.9759 8.02823C16.9607 8.04337 16.9303 8.04337 16.8999 8.04337C16.8694 8.04337 16.8238 8.04337 16.7934 8.02823C16.7629 8.01311 16.7477 8.01311 16.7173 7.99797C16.5652 8.01311 15.9719 7.80131 16.124 7.18104ZM16.3674 9.61672C16.8238 9.45032 17.3866 9.69238 17.3866 9.69238C17.5692 9.76801 17.6756 9.84364 17.7669 9.9193C17.7973 9.94955 17.8126 9.96467 17.8278 9.97981C17.8886 10.0403 17.9951 10.1311 18.0864 10.1462C18.1624 10.1614 18.0255 10.3126 17.8126 10.2067C17.7973 10.1916 17.7669 10.1765 17.7365 10.1462C17.5235 9.97981 17.341 9.97981 17.341 9.97981C17.1432 9.96467 17.1889 10.0857 17.1889 10.0857C17.2953 10.2975 17.0216 10.237 16.8846 10.0857C16.6717 9.85878 16.4739 9.78315 16.3522 9.72264C16.2153 9.67724 16.3066 9.63186 16.3674 9.61672ZM16.4435 12.7936C16.4587 12.8088 16.5043 12.8996 16.4283 13.0811C16.4283 13.0811 16.1849 13.2173 15.835 13.0962C15.835 13.0811 15.835 12.839 15.8198 12.7936C15.8046 12.7483 15.6677 12.6575 15.6677 12.6575C15.6677 12.6424 15.5308 11.8103 15.6373 11.4775C15.6373 11.4775 15.6373 11.2052 15.7285 11.1749C15.7894 11.1598 15.7742 11.4624 15.7742 11.4624V11.8103C15.6525 11.9011 15.7438 11.9162 15.7438 11.9162C16.124 11.8557 16.3218 11.8406 16.4131 11.8557H16.4435C16.5043 11.8708 16.5043 11.9011 16.5043 11.9011C16.5043 11.9011 16.5196 11.9767 16.2457 12.0221C16.2457 12.0221 16.0936 12.0523 16.0632 12.1129C16.0328 12.1734 16.0176 12.3701 16.0936 12.4911C16.0936 12.4911 16.1392 12.476 16.124 12.4154C16.1088 12.3549 16.124 12.2036 16.1697 12.1734C16.2153 12.128 16.6108 12.0826 16.6108 11.9767C16.6108 11.9767 16.5652 11.7952 16.6565 11.5985C16.7325 11.4624 16.8238 11.6439 16.8086 11.8859C16.8086 11.8859 16.7934 12.2642 16.7934 12.3398C16.7934 12.4154 16.7477 12.6575 16.4891 12.7029C16.4891 12.7029 16.3979 12.7331 16.3826 12.7785C16.3674 12.7785 16.4283 12.7785 16.4435 12.7936ZM16.0328 11.6136C16.0328 11.6893 16.0328 11.7347 16.0175 11.7649C15.9567 11.7649 15.9111 11.7801 15.8655 11.7801C15.835 11.6439 15.835 11.4775 15.835 11.4775L15.8502 11.19C15.8502 11.1749 15.8502 11.0085 15.9415 11.0085C16.0175 11.0085 16.0175 11.2052 16.0175 11.2052C16.0175 11.2052 16.0176 11.417 16.0328 11.6136ZM16.3826 11.3564C16.3826 11.2203 16.3826 11.0388 16.4739 11.0388C16.5348 11.0388 16.5348 11.1598 16.5348 11.2354V11.5531C16.5043 11.5985 16.4891 11.7347 16.4891 11.7649C16.4587 11.7498 16.4283 11.7498 16.3826 11.7498C16.3674 11.7195 16.3826 11.4926 16.3826 11.3564ZM16.1849 10.9026H16.2001C16.3218 10.9328 16.3066 11.6439 16.2762 11.7347C16.2305 11.7347 16.1849 11.7347 16.1392 11.7498C16.124 11.7195 16.124 11.6893 16.124 11.6439C16.124 11.5682 16.124 11.0993 16.1392 10.9934C16.124 10.9177 16.1697 10.9026 16.1849 10.9026ZM14.7246 9.67718C15.1353 9.52589 15.6373 9.75284 15.6373 9.75284C16.048 9.93436 16.1088 10.131 16.1088 10.131C16.1088 10.131 16.1697 10.3429 15.9415 10.1764C15.759 10.0403 15.6221 10.0705 15.6221 10.0705C15.4851 10.0705 15.4547 10.4033 15.1657 10.1159C14.9679 9.91924 14.7854 9.84361 14.6789 9.7831C14.5724 9.72258 14.6637 9.70744 14.7246 9.67718ZM13.5685 9.81335C13.751 9.69232 13.9792 9.76795 14.0704 9.9041C14.2682 10.1916 14.5268 10.2369 14.4051 10.2521C14.3291 10.2672 14.1009 10.1916 13.9944 10.1008C13.8575 9.97976 13.6445 10.0705 13.7966 10.1916C13.8118 10.2067 13.7814 10.2218 13.751 10.2218C13.462 10.2218 13.3707 9.9495 13.5685 9.81335ZM12.0016 11.6288C12.0473 11.4926 12.4124 11.4775 12.9143 11.5834C12.9143 11.5682 12.9296 11.538 12.9296 11.5228C12.8383 11.3564 12.7622 11.2203 12.7318 11.1749L12.7014 11.1446C12.6557 11.0841 12.6253 11.0539 12.6557 11.0388C12.671 11.0236 12.7014 11.0388 12.7318 11.0388C12.7318 11.0388 12.8383 11.0993 12.96 11.3111C12.9752 11.3262 12.9752 11.3413 12.9904 11.3716C13.0665 11.2052 13.1577 11.0993 13.2642 11.0993C13.3707 11.0993 13.462 11.2052 13.538 11.3716C13.5533 11.3413 13.5685 11.3111 13.5837 11.2959C13.7054 11.0841 13.8118 11.0236 13.8118 11.0236C13.827 11.0085 13.8575 10.9934 13.8879 11.0236C13.9031 11.0539 13.8879 11.069 13.8423 11.1295C13.827 11.1446 13.827 11.1446 13.8118 11.1598C13.7662 11.2052 13.6901 11.3413 13.5989 11.5228C13.6141 11.538 13.6141 11.538 13.6293 11.5682C14.1161 11.4775 14.4964 11.4926 14.5268 11.6136C14.5572 11.7044 14.2834 11.8406 14.04 11.9767C14.2834 12.1129 14.5572 12.249 14.5268 12.3398C14.4812 12.476 14.1313 12.4911 13.6445 12.4003L13.6293 12.5062V12.5365L13.6597 12.5819C13.6597 12.5819 13.7966 12.8239 13.8879 12.9147C13.9183 12.9449 13.9031 12.9601 13.9031 12.9601C13.9031 12.9752 13.8879 12.9752 13.8727 12.9752C13.8575 12.9752 13.827 12.9601 13.7814 12.9449C13.751 12.9298 13.6901 12.839 13.5989 12.6878C13.5837 12.718 13.5837 12.7634 13.5685 12.7936C13.4924 12.9903 13.4011 13.0962 13.2794 13.0962C13.1577 13.0962 13.036 12.9449 12.9752 12.7029C12.8991 12.839 12.8383 12.9298 12.8079 12.9449C12.7622 12.9752 12.7318 12.9752 12.7166 12.9752C12.7014 12.9752 12.7014 12.9752 12.6862 12.9601C12.6862 12.9601 12.671 12.9298 12.7014 12.9147C12.7926 12.8088 12.9296 12.5818 12.9296 12.5667C12.9296 12.5667 12.9448 12.5516 12.9448 12.5214C12.9448 12.5214 12.9296 12.4154 12.9296 12.3852C12.458 12.476 12.0929 12.4608 12.0625 12.3247C12.0321 12.2339 12.2755 12.0826 12.534 11.9465C12.458 11.9162 12.3972 11.8708 12.3363 11.8406C12.1081 11.7801 11.9712 11.6893 12.0016 11.6288ZM11.4236 18.013C11.4084 17.9676 11.4084 17.9071 11.3932 17.8617C11.3932 17.8315 11.3932 17.8164 11.3779 17.7861C11.3627 17.7256 11.3627 17.6651 11.3475 17.6045V17.5591C11.3475 17.4986 11.3323 17.423 11.3323 17.3625V17.3474C11.3323 17.2717 11.3323 17.1961 11.3171 17.1204V13.5199H20.9615V17.3775C20.9615 17.4381 20.9463 17.4986 20.9463 17.5591C20.9463 17.5893 20.9463 17.6045 20.9311 17.6347C20.9311 17.6801 20.9159 17.7255 20.9159 17.7558C20.9159 17.8011 20.9007 17.8465 20.8855 17.907C20.8855 17.9373 20.8703 17.9524 20.8703 17.9827C20.855 18.0583 20.8398 18.1491 20.8094 18.2247H20.5508V17.4834H19.8663V16.8783H19.2122V16.1673H18.6189V15.5319H17.98V14.9872H17.3107L17.2955 14.2762H16.6261L16.2154 13.7316L15.8656 14.2762H15.1202V14.9418H14.3292V15.5773H13.6446V16.1824H12.9753V16.8632H12.2908V17.4532H11.804V18.0735H11.4693C11.4389 18.0583 11.4388 18.0433 11.4236 18.013ZM12.3819 20.1159C12.3667 20.1007 12.3667 20.0856 12.3515 20.0705C12.3211 20.0251 12.2907 19.9797 12.2602 19.9495C12.2602 19.9495 12.2602 19.9343 12.245 19.9343C12.1538 19.7982 12.0625 19.6469 11.9864 19.5107C11.9864 19.4956 11.9712 19.4956 11.9712 19.4805C11.8952 19.3292 11.8191 19.1779 11.743 19.0115H12.3667V18.3459H13.0056V17.6651H13.7358V16.9843H14.4051V16.3186H15.1201V15.6379H15.8046V15.0024H16.5652V15.6681H17.1737V16.3338H17.8278V16.9994H18.4971V17.6499H19.1512V18.3459H19.9878V19.1174H20.5203C20.4898 19.1628 20.4746 19.2233 20.4442 19.2687V19.2838C20.3682 19.4351 20.2921 19.5864 20.2008 19.7225C20.2008 19.7225 20.2008 19.7377 20.1856 19.7377C20.1552 19.7831 20.1248 19.8284 20.0943 19.8738C20.0031 20.01 19.8966 20.1613 19.8053 20.2823C19.7901 20.2974 19.7901 20.2974 19.7749 20.3126L19.4707 20.6756C19.4554 20.6908 19.4554 20.7059 19.4402 20.7059C19.4098 20.7362 19.3794 20.7815 19.349 20.8118C19.3337 20.8269 19.3185 20.842 19.3033 20.8572C19.1968 20.9631 19.0904 21.0539 18.9839 21.1597C18.9534 21.1749 18.9382 21.2051 18.9078 21.2203C18.8774 21.2505 18.847 21.2657 18.8165 21.2959C18.7861 21.311 18.7557 21.3413 18.7405 21.3564C18.6948 21.3867 18.6644 21.4169 18.6188 21.4472C18.5731 21.4774 18.5427 21.5077 18.4971 21.538C18.4667 21.5531 18.4363 21.5834 18.421 21.5985C18.3906 21.6287 18.345 21.6439 18.3146 21.6741C18.2841 21.6892 18.2537 21.7044 18.2385 21.7195C18.1929 21.7498 18.132 21.78 18.0864 21.8103C18.056 21.8254 18.0407 21.8405 18.0103 21.8557C17.9647 21.8859 17.919 21.9162 17.8582 21.9313C17.8278 21.9464 17.8126 21.9616 17.7821 21.9767C17.7365 22.0069 17.6909 22.0221 17.6452 22.0523C17.63 22.0674 17.5996 22.0674 17.5844 22.0826C17.5235 22.1128 17.4475 22.1431 17.3866 22.1734C17.3714 22.1885 17.3562 22.1885 17.341 22.1885C17.2953 22.2036 17.2345 22.2339 17.1889 22.249C17.1737 22.2641 17.1432 22.2641 17.128 22.2793C17.0672 22.2944 17.0216 22.3247 16.9607 22.3398C16.9455 22.3398 16.9303 22.3549 16.9151 22.3549C16.839 22.3852 16.7782 22.4003 16.7021 22.4305C16.6869 22.4305 16.6565 22.4457 16.6412 22.4457C16.5804 22.4608 16.5348 22.4759 16.4739 22.4911C16.4587 22.4911 16.4283 22.5062 16.4131 22.5062C16.337 22.5213 16.2609 22.5364 16.1849 22.5516C16.1088 22.5364 16.0328 22.5213 15.9567 22.5062C15.9415 22.5062 15.9111 22.4911 15.8959 22.4911C15.835 22.4759 15.7894 22.4608 15.7285 22.4457C15.7133 22.4457 15.6829 22.4305 15.6677 22.4305C15.5916 22.4154 15.5308 22.3852 15.4547 22.3549C15.4395 22.3549 15.4395 22.3549 15.4243 22.3398C15.3635 22.3247 15.3026 22.2944 15.2418 22.2641C15.2265 22.249 15.1961 22.249 15.1809 22.2339C15.1353 22.2187 15.0744 22.1885 15.0288 22.1734C15.0136 22.1582 14.9831 22.1582 14.9679 22.1431C14.9071 22.1128 14.8311 22.0826 14.7702 22.0523C14.755 22.0372 14.7398 22.0372 14.7246 22.0221C14.6789 21.9918 14.6181 21.9767 14.5724 21.9464C14.542 21.9313 14.5268 21.9162 14.4964 21.901C14.4507 21.8708 14.4051 21.8556 14.3747 21.8254C14.3443 21.8103 14.3291 21.7952 14.2986 21.78C14.2378 21.7498 14.1769 21.7044 14.1161 21.6741C14.0857 21.659 14.0704 21.6439 14.04 21.6287C14.0096 21.5985 13.964 21.5834 13.9335 21.5531C13.8469 21.4807 13.7579 21.4297 13.675 21.3564C13.2368 20.9548 12.6972 20.5535 12.3819 20.1159Z" fill="white"/>
</g>
<mask id="mask28_371_27122" style="mask-type:luminance" maskUnits="userSpaceOnUse" x="4" y="2" width="25" height="28">
<path d="M28.1867 2.40002H4V29.7826H28.1867V2.40002Z" fill="white"/>
</mask>
<g mask="url(#mask28_371_27122)">
<path d="M13.4922 12.4604C13.4922 12.4301 13.5074 12.3847 13.5074 12.3847C13.4161 12.3696 13.3401 12.3394 13.2488 12.3242C13.1576 12.3545 13.0663 12.3696 12.975 12.3847C12.975 12.3847 12.975 12.4301 12.9902 12.4604C13.0206 12.4755 13.2184 12.536 13.4922 12.4604Z" fill="white"/>
</g>
<mask id="mask29_371_27122" style="mask-type:luminance" maskUnits="userSpaceOnUse" x="4" y="2" width="25" height="28">
<path d="M28.1867 2.40002H4V29.7826H28.1867V2.40002Z" fill="white"/>
</mask>
<g mask="url(#mask29_371_27122)">
<path d="M13.4313 11.4923C13.4313 11.4772 13.4313 11.462 13.4161 11.462C13.3705 11.3108 13.2944 11.2502 13.2336 11.2502C13.1727 11.2502 13.0966 11.3108 13.051 11.462C13.051 11.4772 13.0358 11.4923 13.0358 11.5074C13.2031 11.4318 13.34 11.462 13.4313 11.4923Z" fill="white"/>
</g>
<mask id="mask30_371_27122" style="mask-type:luminance" maskUnits="userSpaceOnUse" x="4" y="2" width="25" height="28">
<path d="M28.1867 2.40002H4V29.7826H28.1867V2.40002Z" fill="white"/>
</mask>
<g mask="url(#mask30_371_27122)">
<path d="M12.9902 12.5364C13.0054 12.6272 13.0054 12.6272 13.0358 12.6725C13.0663 12.6877 13.2184 12.733 13.4466 12.6725C13.4618 12.6423 13.477 12.5817 13.477 12.5364C13.3857 12.5666 13.2944 12.5666 13.2184 12.5666C13.1119 12.5666 13.0358 12.5515 12.9902 12.5364Z" fill="white"/>
</g>
<mask id="mask31_371_27122" style="mask-type:luminance" maskUnits="userSpaceOnUse" x="4" y="2" width="25" height="28">
<path d="M28.1867 2.40002H4V29.7826H28.1867V2.40002Z" fill="white"/>
</mask>
<g mask="url(#mask31_371_27122)">
<path d="M18.9685 12.7629C18.9838 12.8083 19.0142 12.8537 19.0294 12.8688C19.1359 12.8991 19.1511 12.8991 19.2728 12.8688C19.3032 12.8386 19.3032 12.8083 19.3336 12.7478C19.2576 12.7629 19.2119 12.7629 19.1511 12.7629C19.075 12.7781 18.999 12.7781 18.9685 12.7629Z" fill="white"/>
</g>
<mask id="mask32_371_27122" style="mask-type:luminance" maskUnits="userSpaceOnUse" x="4" y="2" width="25" height="28">
<path d="M28.1867 2.40002H4V29.7826H28.1867V2.40002Z" fill="white"/>
</mask>
<g mask="url(#mask32_371_27122)">
<path d="M13.0663 12.7629C13.0815 12.8083 13.1119 12.8537 13.1271 12.8688C13.2336 12.8991 13.2488 12.8991 13.3705 12.8688C13.4009 12.8386 13.4009 12.8083 13.4313 12.7478C13.3553 12.7629 13.3096 12.7629 13.2488 12.7629C13.1728 12.7781 13.0967 12.7781 13.0663 12.7629Z" fill="white"/>
</g>
<mask id="mask33_371_27122" style="mask-type:luminance" maskUnits="userSpaceOnUse" x="4" y="2" width="25" height="28">
<path d="M28.1867 2.40002H4V29.7826H28.1867V2.40002Z" fill="white"/>
</mask>
<g mask="url(#mask33_371_27122)">
<path d="M19.3944 12.4604C19.3944 12.4301 19.4096 12.3847 19.4096 12.3847C19.3183 12.3696 19.2423 12.3394 19.151 12.3242C19.0597 12.3545 18.9685 12.3696 18.8772 12.3847C18.8772 12.3847 18.8772 12.4301 18.8924 12.4604C18.9228 12.4755 19.1206 12.536 19.3944 12.4604Z" fill="white"/>
</g>
<mask id="mask34_371_27122" style="mask-type:luminance" maskUnits="userSpaceOnUse" x="4" y="2" width="25" height="28">
<path d="M28.1867 2.40002H4V29.7826H28.1867V2.40002Z" fill="white"/>
</mask>
<g mask="url(#mask34_371_27122)">
<path d="M18.8923 12.5364C18.9075 12.6272 18.9075 12.6272 18.9379 12.6725C18.9684 12.6877 19.1205 12.733 19.3487 12.6725C19.3639 12.6423 19.3791 12.5817 19.3791 12.5364C19.2878 12.5666 19.1966 12.5666 19.1205 12.5666C19.0292 12.5666 18.9532 12.5515 18.8923 12.5364Z" fill="white"/>
</g>
<mask id="mask35_371_27122" style="mask-type:luminance" maskUnits="userSpaceOnUse" x="4" y="2" width="25" height="28">
<path d="M28.1867 2.40002H4V29.7826H28.1867V2.40002Z" fill="white"/>
</mask>
<g mask="url(#mask35_371_27122)">
<path d="M19.3337 11.4923C19.3337 11.4772 19.3337 11.462 19.3185 11.462C19.2728 11.3108 19.1968 11.2502 19.1359 11.2502C19.0751 11.2502 18.999 11.3108 18.9534 11.462C18.9534 11.4772 18.9382 11.4923 18.9382 11.5074C19.1055 11.4318 19.2576 11.462 19.3337 11.4923Z" fill="white"/>
</g>
</svg>
