<svg width="32" height="32" viewBox="0 0 32 32" fill="none" xmlns="http://www.w3.org/2000/svg">
<path d="M28.8 15.6C28.8 22.8907 22.8899 28.8 15.6 28.8C8.30967 28.8 2.39999 22.8907 2.39999 15.6C2.39999 8.31003 8.30967 2.40002 15.6 2.40002C22.8899 2.40002 28.8 8.31003 28.8 15.6Z" fill="#DBA111"/>
<path d="M28.3596 15.6C28.3596 22.6472 22.6471 28.3597 15.5999 28.3597C8.55263 28.3597 2.84006 22.6472 2.84006 15.6C2.84006 8.55278 8.55263 2.84021 15.5999 2.84021C22.647 2.84021 28.3596 8.55278 28.3596 15.6Z" fill="#034694"/>
<path d="M24.6929 15.6C24.6929 20.622 20.6219 24.6924 15.5999 24.6924C10.5778 24.6924 6.50656 20.622 6.50656 15.6C6.50656 10.5776 10.5778 6.50665 15.5999 6.50665C20.622 6.5066 24.6929 10.5776 24.6929 15.6Z" fill="#DBA111"/>
<path d="M24.4178 15.6C24.4178 20.47 20.4693 24.4178 15.6 24.4178C10.7299 24.4178 6.78209 20.4699 6.78209 15.6C6.78209 10.73 10.7299 6.78204 15.6 6.78204C20.4694 6.78204 24.4178 10.73 24.4178 15.6Z" fill="white"/>
<path d="M8.04438 23.2073C8.14196 23.3005 8.382 23.5291 8.382 23.5291L8.61209 23.2868L7.92576 22.6324L7.83745 22.7251L6.91591 23.6912L7.2658 24.0242C7.2658 24.0242 7.56132 23.7143 7.66945 23.6014C7.75981 23.6872 7.97663 23.8939 7.97663 23.8939L8.20689 23.6521C8.20689 23.6521 7.9904 23.4456 7.90015 23.3592C7.95741 23.2988 7.98651 23.2682 8.04438 23.2073Z" fill="#DBA111"/>
<path d="M9.6996 24.3107C9.66856 24.1254 9.56453 23.9617 9.40714 23.8499C9.25047 23.7386 9.06242 23.6946 8.87714 23.725C8.67759 23.7589 8.49832 23.8752 8.37202 24.052C8.24618 24.2299 8.19536 24.4372 8.22924 24.6375C8.26039 24.8222 8.36369 24.9848 8.52059 25.0967C8.67759 25.2083 8.86703 25.253 9.05203 25.2219C9.25147 25.1883 9.43085 25.0718 9.5567 24.8945C9.65745 24.7539 9.70999 24.5929 9.70999 24.432C9.71004 24.3919 9.70666 24.3506 9.6996 24.3107ZM8.71403 24.8238C8.55363 24.7104 8.68604 24.4732 8.77945 24.3428C8.87264 24.2113 9.05331 24.008 9.2137 24.1214C9.38109 24.2411 9.22469 24.4998 9.14961 24.6048C9.0743 24.711 8.88175 24.9435 8.71403 24.8238Z" fill="#DBA111"/>
<path d="M10.7784 24.677C10.409 24.4901 9.98184 24.6433 9.78562 25.0322C9.68732 25.2265 9.66811 25.4399 9.73142 25.6319C9.7899 25.8104 9.91669 25.9559 10.0886 26.0424C10.2605 26.1299 10.4539 26.1451 10.6327 26.0864C10.8246 26.0239 10.9846 25.8821 11.0823 25.6878C11.2794 25.2982 11.1484 24.8639 10.7784 24.677ZM10.3699 25.7577C10.3266 25.7719 10.2855 25.7675 10.2388 25.7443C10.1656 25.707 10.1398 25.6402 10.1398 25.5657C10.1398 25.4626 10.1894 25.3411 10.2314 25.2582C10.3043 25.1141 10.4522 24.8866 10.6278 24.9752C10.6741 24.9988 10.7018 25.0296 10.7159 25.0724C10.7453 25.161 10.7158 25.3066 10.6366 25.4624C10.5578 25.6183 10.4582 25.7285 10.3699 25.7577Z" fill="#DBA111"/>
<path d="M11.5411 25.2117L11.4731 25.4065C11.4731 25.4065 11.647 25.4675 11.6997 25.4849C11.6332 25.6752 11.3265 26.5506 11.3265 26.5506L11.7819 26.7103C11.7819 26.7103 12.089 25.8356 12.1554 25.6454C12.2085 25.6639 12.3824 25.7243 12.3824 25.7243L12.4927 25.4099L11.5834 25.0909L11.5411 25.2117Z" fill="#DBA111"/>
<path d="M13.4317 25.6342L12.8164 25.5042L12.7901 25.6294L12.515 26.9354L13.1413 27.0682C13.3414 27.1095 13.4732 27.0604 13.5484 27.0118C13.6438 26.9495 13.7107 26.8475 13.7364 26.7254C13.7434 26.6922 13.7468 26.66 13.7468 26.6285C13.7468 26.5403 13.7189 26.4607 13.6683 26.3924C13.7389 26.3364 13.7892 26.2574 13.8101 26.1587C13.8155 26.1332 13.8186 26.1044 13.8186 26.0744C13.8186 25.9072 13.7231 25.6949 13.4317 25.6342ZM13.2624 26.6312C13.2558 26.6611 13.2438 26.7006 13.2212 26.7153C13.2003 26.7289 13.1602 26.7306 13.1082 26.7193C13.1082 26.7193 13.0845 26.7141 13.0565 26.7086C13.0765 26.6143 13.0899 26.5516 13.1094 26.4573C13.1362 26.4636 13.1704 26.4703 13.1704 26.4703C13.2511 26.4873 13.2666 26.5471 13.2666 26.5905C13.2667 26.6079 13.2645 26.6227 13.2624 26.6312ZM13.2203 25.9322C13.2743 25.9445 13.3141 25.9643 13.3293 25.9874C13.3363 25.9981 13.3398 26.0129 13.3398 26.0305C13.3398 26.0411 13.3383 26.0534 13.3355 26.0681C13.3273 26.1064 13.316 26.1595 13.2096 26.1377C13.2096 26.1377 13.1963 26.1342 13.178 26.1303C13.195 26.0513 13.2031 26.0118 13.2203 25.9322Z" fill="#DBA111"/>
<path d="M14.5677 25.8469L13.8993 27.2157L14.281 27.2449C14.281 27.2449 14.3843 27.0269 14.4256 26.94C14.5064 26.9468 14.5873 26.9524 14.6664 26.9588C14.696 27.0502 14.7706 27.2823 14.7706 27.2823L15.2784 27.3218L14.711 25.5629L14.5677 25.8469Z" fill="#DBA111"/>
<path d="M16.0749 26.9395C16.0664 26.7395 16.028 25.8289 16.028 25.8289L15.5457 25.8491L15.6067 27.3106L16.5732 27.2704L16.5587 26.9197C16.5587 26.9198 16.2135 26.9345 16.0749 26.9395Z" fill="#DBA111"/>
<path d="M17.3978 26.7995C17.3667 26.6017 17.2256 25.7014 17.2256 25.7014L17.0992 25.7217L16.7483 25.7763L16.9748 27.2218L17.9309 27.0717L17.8761 26.7249C17.8761 26.7249 17.5351 26.7787 17.3978 26.7995Z" fill="#DBA111"/>
<path d="M20.1656 25.8272C20.1617 25.9525 20.0878 26.0604 19.9726 26.106C19.9087 26.1314 19.8477 26.1314 19.7866 26.1055C19.6929 26.0654 19.606 25.9638 19.5539 25.8334C19.4925 25.6795 19.48 25.5487 19.5203 25.4569C19.5479 25.3926 19.6022 25.3445 19.685 25.3113C19.7748 25.2756 19.8601 25.3085 19.9769 25.3773L20.0841 25.4406L20.2621 25.1598L20.1565 25.0904C19.9623 24.9628 19.722 24.9368 19.514 25.0199C19.321 25.0968 19.1714 25.2407 19.0923 25.4248C19.0121 25.6114 19.0121 25.825 19.0935 26.0276C19.2471 26.4116 19.6812 26.6008 20.0607 26.4488C20.335 26.3393 20.4902 26.1309 20.51 25.8463L20.519 25.7192L20.1696 25.6933L20.1656 25.8272Z" fill="#DBA111"/>
<path d="M21.2914 25.428C21.1926 25.2524 20.7488 24.4562 20.7488 24.4562L20.6376 24.5189L20.327 24.6923L21.0408 25.9694L21.8847 25.498L21.7138 25.1914C21.7139 25.1914 21.4118 25.3598 21.2914 25.428Z" fill="#DBA111"/>
<path d="M22.2301 23.4584L22.1266 23.5341L21.9453 23.6674L22.5377 24.4748C22.5648 24.5113 22.5648 24.5358 22.5624 24.55C22.5567 24.5916 22.5134 24.6368 22.475 24.6644C22.4569 24.6773 22.415 24.6949 22.3721 24.6882C22.3415 24.6838 22.3174 24.6672 22.2959 24.6381L21.7105 23.8398L21.3203 24.1254L21.9029 24.9197C21.9894 25.0373 22.0967 25.1069 22.222 25.126C22.3626 25.1479 22.5224 25.1 22.6709 24.9903C22.9763 24.767 22.9713 24.4704 22.838 24.2887L22.2301 23.4584Z" fill="#DBA111"/>
<path d="M24.0074 23.165C23.9176 23.0718 23.8069 23.0299 23.6906 23.0362C23.6838 22.9459 23.6487 22.8595 23.5789 22.7872C23.4568 22.6612 23.184 22.5631 22.9329 22.8076L22.4811 23.2445L23.4991 24.2955L23.9587 23.85C24.1056 23.7077 24.1379 23.5699 24.1393 23.4808C24.1417 23.3665 24.0947 23.2547 24.0074 23.165ZM23.2384 23.1295C23.2535 23.1457 23.2721 23.1646 23.2721 23.1908C23.2721 23.2124 23.2603 23.239 23.2251 23.2727C23.2251 23.2727 23.2155 23.2824 23.2026 23.2953C23.1456 23.2362 23.1186 23.2084 23.0607 23.149C23.1627 23.0555 23.205 23.0954 23.2384 23.1295ZM23.4794 23.4914C23.5619 23.4117 23.6413 23.4817 23.664 23.5055C23.6859 23.5275 23.7109 23.5585 23.7109 23.5854C23.7109 23.5854 23.7109 23.5854 23.7109 23.5863C23.7104 23.6111 23.6894 23.6455 23.6516 23.6822C23.6516 23.6822 23.634 23.6992 23.6132 23.7188C23.5466 23.65 23.5015 23.6038 23.4348 23.5353C23.4546 23.5157 23.4794 23.4914 23.4794 23.4914Z" fill="#DBA111"/>
<path d="M8.04121 23.0717C8.08103 23.1101 8.37827 23.3936 8.37827 23.3936L8.47629 23.2902L7.92863 22.7679L7.90658 22.791L7.05174 23.6878L7.26234 23.8888C7.26234 23.8888 7.62656 23.507 7.66577 23.4653C7.70559 23.5032 7.97356 23.7584 7.97356 23.7584L8.07175 23.6553C8.07175 23.6553 7.80378 23.4003 7.76396 23.3624C7.79951 23.3252 8.00599 23.1086 8.04121 23.0717Z" fill="white"/>
<path d="M9.35119 23.9278C9.21545 23.8311 9.053 23.7925 8.89355 23.8192C8.7185 23.8492 8.56149 23.9514 8.45036 24.1078C8.3389 24.2647 8.29419 24.4466 8.3239 24.621C8.35061 24.7809 8.44047 24.922 8.57632 25.0183C8.71289 25.1155 8.876 25.1535 9.03617 25.1267C9.21029 25.0974 9.36751 24.9948 9.47848 24.8394C9.56717 24.7141 9.61405 24.5722 9.61405 24.4317C9.61405 24.3966 9.611 24.3611 9.60527 24.3262C9.57812 24.1665 9.48809 24.025 9.35119 23.9278ZM9.22762 24.6607C9.13576 24.7892 8.89667 25.0715 8.65869 24.9022C8.42154 24.7339 8.60981 24.4156 8.70128 24.2863C8.79303 24.157 9.03224 23.8752 9.26905 24.0435C9.50708 24.2134 9.31937 24.5318 9.22762 24.6607Z" fill="white"/>
<path d="M10.735 24.763C10.4146 24.601 10.0433 24.7358 9.87115 25.0763C9.78446 25.2475 9.76735 25.4338 9.82239 25.6026C9.87293 25.756 9.98278 25.8815 10.1318 25.9565C10.2811 26.0328 10.4486 26.0464 10.6028 25.9956C10.7706 25.9402 10.9107 25.8159 10.9973 25.6449C11.169 25.3044 11.0564 24.925 10.735 24.763ZM10.1956 25.8294C9.93608 25.6989 10.0741 25.3556 10.1458 25.2146C10.2173 25.0729 10.4115 24.7583 10.6706 24.8899C10.7396 24.9244 10.7856 24.9757 10.8076 25.0429C10.8585 25.1983 10.7759 25.3992 10.722 25.506C10.6685 25.6119 10.5553 25.7978 10.3997 25.8487C10.3331 25.8713 10.2642 25.8645 10.1956 25.8294Z" fill="white"/>
<path d="M11.6321 25.2432L11.5953 25.3472C11.5953 25.3472 11.7766 25.411 11.822 25.427C11.8019 25.4839 11.4485 26.4918 11.4485 26.4918L11.7232 26.5883C11.7232 26.5883 12.0769 25.5805 12.0967 25.5234C12.1421 25.5392 12.3234 25.6026 12.3234 25.6026L12.3708 25.4688L11.6422 25.213L11.6321 25.2432Z" fill="white"/>
<path d="M13.4123 25.7277L12.8908 25.6176L12.8838 25.6493L12.6289 26.8621L13.161 26.9738C13.2963 27.0022 13.4089 26.9881 13.496 26.931C13.5713 26.8819 13.6218 26.8035 13.6425 26.7058C13.6478 26.6792 13.6509 26.6537 13.6509 26.6289C13.6509 26.5228 13.5983 26.433 13.5044 26.3687C13.6132 26.3374 13.691 26.2574 13.7161 26.1386C13.7204 26.12 13.7229 26.0981 13.7229 26.0732C13.7229 25.9519 13.659 25.7797 13.4123 25.7277ZM13.23 25.835C13.3177 25.8536 13.3784 25.8871 13.4093 25.9348C13.4271 25.9619 13.4358 25.9937 13.4358 26.0305C13.4358 26.0485 13.4335 26.0672 13.4293 26.0875C13.3954 26.249 13.265 26.2472 13.1899 26.2309C13.1899 26.2309 13.1105 26.2145 13.0645 26.2048C13.0752 26.1551 13.1357 25.8671 13.1462 25.8176C13.1795 25.8243 13.23 25.835 13.23 25.835ZM13.1899 26.3764C13.3381 26.4076 13.3615 26.5245 13.3615 26.5955C13.3615 26.626 13.3567 26.6478 13.3561 26.6514C13.3412 26.7215 13.3144 26.7689 13.2734 26.7954C13.23 26.8243 13.1675 26.8298 13.0885 26.8135C13.0885 26.8135 12.9937 26.7932 12.9428 26.7831C12.9538 26.7309 13.0247 26.395 13.0354 26.3438C13.0788 26.3528 13.1899 26.3764 13.1899 26.3764Z" fill="white"/>
<path d="M14.6542 25.889L14.0476 27.1307L14.2223 27.1437C14.2223 27.1437 14.3507 26.8739 14.3677 26.8394C14.4046 26.8422 14.7016 26.8653 14.738 26.8683C14.7496 26.9039 14.8423 27.1917 14.8423 27.1917L15.1432 27.2149L14.6926 25.8181L14.6542 25.889ZM14.5876 26.3883C14.617 26.4821 14.6734 26.6629 14.692 26.7219C14.6321 26.7175 14.4941 26.7068 14.4348 26.7023C14.462 26.6465 14.5447 26.4765 14.5876 26.3883Z" fill="white"/>
<path d="M15.9827 27.0396C15.9803 26.9791 15.9357 25.929 15.9357 25.929L15.9047 25.9301L15.645 25.9407L15.6984 27.2111L16.4734 27.1783L16.4666 27.0197C16.4667 27.0197 16.0387 27.0378 15.9827 27.0396Z" fill="white"/>
<path d="M17.3181 26.9102C17.3085 26.8504 17.1454 25.8109 17.1454 25.8109L17.1143 25.8159L16.858 25.8564L17.055 27.1123L17.8213 26.9913L17.7966 26.8344C17.7965 26.8345 17.3729 26.901 17.3181 26.9102Z" fill="white"/>
<path d="M20.261 25.8293C20.2565 25.9947 20.1594 26.1349 20.008 26.1959C19.92 26.2309 19.833 26.2297 19.7489 26.1936C19.6304 26.1435 19.527 26.0248 19.4643 25.869C19.3937 25.6911 19.3823 25.5353 19.4316 25.4189C19.47 25.3308 19.5429 25.2649 19.6495 25.2225C19.7891 25.1667 19.9171 25.2304 20.0255 25.2947L20.0526 25.3105L20.1306 25.1881L20.1045 25.1704C19.9363 25.0603 19.7285 25.0373 19.5497 25.1089C19.3802 25.1768 19.2487 25.3021 19.1804 25.4625C19.1103 25.625 19.1109 25.8136 19.1826 25.9914C19.3164 26.3269 19.694 26.4916 20.0256 26.3595C20.2661 26.263 20.3966 26.0885 20.414 25.8395L20.4163 25.8074L20.2628 25.7968L20.261 25.8293Z" fill="white"/>
<path d="M21.2542 25.5585C21.2243 25.506 20.7115 24.5873 20.7115 24.5873L20.6833 24.6031L20.4575 24.7295L21.0769 25.8387L21.7539 25.4606L21.6769 25.3218C21.677 25.3219 21.3021 25.5307 21.2542 25.5585Z" fill="white"/>
<path d="M22.2091 23.5923L22.1829 23.6116L22.0792 23.6878L22.615 24.4179C22.6509 24.467 22.665 24.5161 22.6573 24.5641C22.6445 24.6511 22.5653 24.7178 22.5321 24.7415C22.4941 24.7702 22.4246 24.7939 22.358 24.7831C22.3015 24.7748 22.2551 24.7449 22.218 24.6951L21.689 23.9736L21.4547 24.1463L21.9802 24.8628C22.0509 24.9594 22.1373 25.0164 22.2365 25.0311C22.393 25.0548 22.5399 24.9676 22.6138 24.9138C22.8674 24.7273 22.8708 24.4941 22.7612 24.3457L22.2091 23.5923Z" fill="white"/>
<path d="M23.9385 23.2317C23.8402 23.1299 23.7143 23.1067 23.5838 23.1569C23.5941 23.1265 23.6003 23.0954 23.6003 23.0644C23.6003 22.9889 23.5702 22.9153 23.5098 22.8531C23.428 22.769 23.2162 22.665 22.9995 22.8757L22.6166 23.2467L23.5007 24.1593L23.8921 23.7798C23.9908 23.685 24.0424 23.5828 24.0436 23.4794C24.0451 23.3892 24.0085 23.3038 23.9385 23.2317ZM23.3676 23.192C23.3676 23.2559 23.326 23.3084 23.2924 23.3412C23.2924 23.3412 23.2337 23.3982 23.2006 23.4309C23.1649 23.3942 22.96 23.1831 22.925 23.1457C22.9487 23.1227 22.9862 23.087 22.9862 23.087C23.1058 22.9705 23.2108 22.9628 23.3072 23.0627C23.3514 23.1086 23.3676 23.1519 23.3676 23.192ZM23.6111 23.8543C23.5749 23.817 23.336 23.5698 23.2994 23.5325C23.3309 23.5021 23.4127 23.4225 23.4127 23.4225C23.5688 23.2721 23.7269 23.4315 23.7336 23.4389C23.7827 23.4896 23.8069 23.5377 23.8069 23.5854C23.8069 23.5863 23.8069 23.5868 23.8069 23.5873C23.8063 23.6397 23.7759 23.6947 23.7181 23.7517C23.7183 23.7517 23.6421 23.825 23.6111 23.8543Z" fill="white"/>
<path d="M9.73546 6.9043L9.20191 7.0482L9.26317 7.2393C9.33687 7.47101 9.27016 7.7136 9.08956 7.87199C8.98909 7.96007 8.87307 8.0005 8.74511 7.99173C8.55067 7.97868 8.33119 7.85283 8.15824 7.65489C7.95442 7.42141 7.85273 7.19665 7.86567 7.00615C7.87467 6.86725 7.9422 6.74524 8.07177 6.63172C8.21489 6.50637 8.39639 6.51126 8.64259 6.56007L8.8252 6.59617L8.94327 6.08517L8.75944 6.04035C8.36418 5.94255 7.95197 6.03862 7.6579 6.29605C7.08197 6.8 7.03499 7.62301 7.54866 8.21044C8.02601 8.75615 8.85424 8.81563 9.39407 8.34345C9.78289 8.00384 9.91835 7.56931 9.78628 7.08818L9.73546 6.9043Z" fill="#DBA111"/>
<path d="M11.1843 4.22811L10.6393 4.48475C10.6393 4.48475 10.9436 5.12949 11.0482 5.3517C10.8927 5.42479 10.7421 5.49593 10.5865 5.56941C10.4816 5.34737 10.1772 4.70235 10.1772 4.70235L9.45955 5.04113L10.5524 7.35929L11.2706 7.02067C11.2706 7.02067 10.932 6.30368 10.8231 6.0712C10.9787 5.99838 11.1291 5.9273 11.285 5.85388C11.3943 6.08569 11.7324 6.8028 11.7324 6.8028L12.4505 6.46396L11.3579 4.14636L11.1843 4.22811Z" fill="#DBA111"/>
<path d="M13.6141 5.66414C13.5791 5.49152 13.5436 5.31591 13.509 5.14352C13.7307 5.09893 14.3199 4.97996 14.3199 4.97996L14.2163 4.46507C14.2163 4.46507 13.6268 4.5842 13.405 4.62902C13.373 4.47118 13.3466 4.33861 13.3144 4.181C13.5447 4.13457 14.1752 4.00716 14.1752 4.00716L14.0712 3.49249L13.8826 3.53037L12.4324 3.82366L12.9394 6.33603L14.5915 6.00203L14.4877 5.48764C14.4877 5.48764 13.8459 5.61698 13.6141 5.66414Z" fill="#DBA111"/>
<path d="M15.9575 3.43288L15.1629 3.41638L15.159 3.60799L15.1093 5.97868L16.7771 6.01367L16.7891 5.45857C16.7891 5.45857 16.1488 5.44479 15.9148 5.44002C15.9215 5.12623 15.9575 3.43288 15.9575 3.43288Z" fill="#DBA111"/>
<path d="M18.5321 4.72544C18.326 4.57404 18.2657 4.51334 18.2865 4.43064C18.2967 4.38777 18.3434 4.25086 18.4915 4.28752C18.5806 4.3104 18.6692 4.35733 18.7087 4.54905L18.7521 4.76187L19.2767 4.58459L19.244 4.41942C19.1795 4.09503 18.9051 3.81889 18.5607 3.73286C18.3141 3.6716 18.0668 3.70437 17.8639 3.82628C17.6776 3.93785 17.5466 4.11396 17.4948 4.3224C17.3631 4.84779 17.7173 5.10076 17.9514 5.26837C18.1915 5.44004 18.2525 5.50724 18.2159 5.65064C18.2044 5.69546 18.178 5.73084 18.1367 5.75589C18.0887 5.78416 18.0283 5.79437 17.9793 5.7816C17.8532 5.75055 17.7986 5.69096 17.7454 5.52785L17.681 5.3323L17.1546 5.54756L17.2056 5.71468C17.3043 6.03941 17.5399 6.24406 17.9254 6.34064C18.3587 6.44905 18.8844 6.24978 19.0154 5.72951C19.152 5.18129 18.7789 4.9066 18.5321 4.72544Z" fill="#DBA111"/>
<path d="M20.4276 6.09233C20.6298 6.19452 21.1657 6.46554 21.1657 6.46554L21.4028 5.99692C21.4028 5.99692 20.8664 5.72589 20.6648 5.62403C20.737 5.4803 20.7981 5.35945 20.8702 5.216C21.0793 5.32163 21.6542 5.61215 21.6542 5.61215L21.8906 5.14352L20.3988 4.38965L20.3125 4.56043L19.2424 6.67692L20.7467 7.43668L20.9839 6.96833C20.9839 6.96833 20.3994 6.67303 20.1882 6.56668C20.2672 6.4094 20.3485 6.24967 20.4276 6.09233Z" fill="#DBA111"/>
<path d="M23.3986 6.33173L21.0082 7.56861L21.4655 7.96632C21.4655 7.96632 21.86 7.75655 22.0034 7.68124C22.11 7.7741 22.2672 7.91084 22.3721 8.00198C22.3207 8.15448 22.1746 8.58329 22.1746 8.58329L22.8046 9.13145L23.8266 6.1178L23.3986 6.33173Z" fill="#DBA111"/>
<path d="M9.64588 7.06012L9.36414 7.13671L9.3848 7.20046C9.47433 7.48171 9.39357 7.77589 9.17337 7.96844C9.04691 8.07941 8.89945 8.13022 8.73656 8.11973C8.50564 8.10423 8.26005 7.96561 8.06183 7.7389C7.83518 7.47943 7.72283 7.2229 7.73771 6.99697C7.74938 6.82542 7.83346 6.67002 7.98763 6.53517C8.19007 6.35818 8.44493 6.39055 8.66747 6.4346L8.72862 6.44643L8.79027 6.17935L8.72901 6.16408C8.37379 6.07688 8.00518 6.16213 7.74205 6.3925C7.22143 6.84847 7.17961 7.59318 7.64513 8.1259C8.07599 8.61852 8.82276 8.6725 9.31027 8.24675C9.66377 7.93673 9.78256 7.55874 9.66282 7.12205L9.64588 7.06012Z" fill="white"/>
<path d="M11.2388 4.34322L10.81 4.54594C10.81 4.54594 11.1709 5.31186 11.2184 5.41255C11.1267 5.45604 10.6174 5.69635 10.525 5.7395C10.4776 5.63865 10.1169 4.87278 10.1169 4.87278L9.62955 5.10237L10.6134 7.18865L11.1004 6.95939C11.1004 6.95939 10.701 6.11272 10.6529 6.01025C10.7452 5.96676 11.2539 5.72706 11.3463 5.68341C11.3943 5.7856 11.7938 6.63277 11.7938 6.63277L12.2802 6.40296L11.2964 4.31635L11.2388 4.34322Z" fill="white"/>
<path d="M13.5137 5.81487C13.4937 5.71462 13.3784 5.1438 13.3584 5.04356C13.4651 5.02212 14.1692 4.87983 14.1692 4.87983L14.1159 4.61625C14.1159 4.61625 13.4121 4.75793 13.3048 4.77964C13.2853 4.68134 13.1837 4.17911 13.1642 4.08092C13.2718 4.05887 14.0245 3.90731 14.0245 3.90731L13.9711 3.64362L12.5832 3.92369L13.0397 6.18497L14.4409 5.90212L14.3876 5.63843C14.3875 5.63848 13.6221 5.79293 13.5137 5.81487Z" fill="white"/>
<path d="M15.8267 3.55841L15.2887 3.54675L15.2875 3.61029L15.2399 5.8533L16.6524 5.88323L16.6586 5.58383C16.6586 5.58383 15.894 5.56767 15.7845 5.56533C15.7872 5.44565 15.8267 3.55841 15.8267 3.55841Z" fill="white"/>
<path d="M18.5226 4.16376C18.6936 4.20658 18.7924 4.32088 18.8343 4.52331L18.8488 4.59407L19.1295 4.49921L19.1189 4.44384C19.0634 4.16743 18.827 3.93128 18.5299 3.85658C18.3164 3.80332 18.1037 3.83126 17.9302 3.93539C17.7734 4.02969 17.6627 4.17826 17.6191 4.35348C17.5086 4.79417 17.7958 4.99944 18.0262 5.16411C18.2594 5.33089 18.4 5.44474 18.3401 5.68128C18.3163 5.77975 18.252 5.83601 18.2024 5.86561C18.1256 5.91165 18.0313 5.92603 17.9484 5.90571C17.7783 5.86305 17.6907 5.77158 17.6243 5.56754L17.6026 5.50234L17.3114 5.62113L17.3283 5.67706C17.413 5.95536 17.6187 6.1318 17.9573 6.21655C18.3293 6.30947 18.7801 6.14113 18.8912 5.698C19.007 5.23353 18.7021 5.00877 18.4553 4.82838C18.2459 4.67377 18.1194 4.57041 18.1624 4.39957C18.2001 4.24685 18.3266 4.11467 18.5226 4.16376Z" fill="white"/>
<path d="M20.8138 5.04447C20.912 5.09384 21.597 5.44001 21.597 5.44001L21.7189 5.1997L20.4554 4.5614L20.4265 4.61838L19.4147 6.62058L20.6901 7.2651L20.8116 7.0249C20.8116 7.0249 20.1153 6.67284 20.0167 6.6228C20.0626 6.53139 20.3254 6.01227 20.371 5.9208C20.4682 5.9699 21.109 6.29368 21.109 6.29368L21.2311 6.05337C21.2311 6.05337 20.5897 5.72986 20.4925 5.68049C20.5377 5.5913 20.7687 5.13366 20.8138 5.04447Z" fill="white"/>
<path d="M23.4574 6.44554L21.2345 7.59595L21.4829 7.81194C21.4829 7.81194 21.9543 7.56202 22.021 7.52669C22.0763 7.57501 22.467 7.9149 22.5212 7.96205C22.4977 8.03231 22.323 8.54281 22.323 8.54281L22.7449 8.90959L23.6038 6.37689L23.4574 6.44554ZM22.2784 7.39435C22.3835 7.33998 22.6522 7.20041 22.816 7.11516C22.755 7.28932 22.6545 7.57612 22.6159 7.68775C22.5307 7.61311 22.3637 7.46805 22.2784 7.39435Z" fill="white"/>
<path d="M21.9063 15.2536C21.7239 14.7707 21.0962 14.5609 20.5028 14.7849C20.2553 14.878 20.0527 15.0336 19.9145 15.2173C20.3063 14.099 21.9024 13.8617 21.9024 12.8213C21.9024 11.0775 19.4259 11.566 19.7863 12.8216C19.7863 12.2519 20.693 12.1475 20.693 12.8216C20.693 13.4958 19.112 13.9379 19.112 15.077C19.112 16.3326 20.3679 16.4488 20.2407 17.5972C20.2191 17.7952 20.0062 18.0554 19.698 18.0554C17.7744 18.0554 18.4611 15.6875 17.789 14.967L17.8241 14.4804C18.2126 14.7187 19.2435 14.1605 18.5649 13.3097C18.5649 13.7281 17.6936 13.705 17.6936 12.9144C17.6936 11.8448 18.6936 12.4029 18.7422 12.6391C18.6943 12.2496 18.6762 12.0024 18.7405 11.7779C18.2014 11.9517 18.1509 11.6401 18.2191 11.5196C18.2972 11.3801 18.4017 11.2172 18.6117 11.2172C18.7253 11.2172 18.7934 11.233 18.8336 11.2607C18.9007 11.3066 18.9498 11.2017 18.9402 11.2993C18.9979 11.2115 18.9748 11.3211 19.0304 11.233C19.0871 11.1456 19.1635 11.0466 19.2977 10.9149L19.2919 10.7175L19.449 10.7751L19.5998 10.5313C19.437 10.1939 19.2162 10.3564 19.0536 9.93805C18.9176 9.90273 16.7993 10.1331 16.8607 9.28809C16.688 9.28809 16.2789 9.38273 16.5321 9.72679C16.3352 9.7505 16.1933 9.52691 15.8965 10.1317C16.2683 10.062 16.0758 10.4775 16.0758 10.5958C16.0758 11.362 15.0558 11.3491 15.0558 10.9902C14.81 11.229 14.9495 11.7514 15.3212 11.88C15.3212 11.88 15.1798 12.4388 14.8308 12.793C14.3128 12.7723 13.4817 12.6823 13.0035 12.2303C12.7973 12.0356 12.6336 11.9294 12.4941 11.8749V11.6216C12.6983 11.5217 12.9222 11.3449 13.1548 11.0494C13.3363 10.8277 13.4346 10.5435 13.4081 10.2416C13.4047 10.2056 13.3993 10.17 13.393 10.1353C13.3911 10.1242 13.3884 10.1135 13.3858 10.1025C13.3807 10.0782 13.3748 10.0549 13.3677 10.0308C13.3644 10.0192 13.3612 10.0073 13.3575 9.99581C13.3496 9.97171 13.341 9.94866 13.3316 9.92578C13.3276 9.91618 13.3249 9.90595 13.3203 9.89696C13.3073 9.86613 13.2929 9.83714 13.2773 9.80793C13.2706 9.7961 13.2636 9.78505 13.2571 9.77416C13.2463 9.75661 13.2362 9.73884 13.2249 9.7219C13.2158 9.70846 13.2062 9.69485 13.1966 9.6813C13.1867 9.66836 13.1763 9.65509 13.1661 9.64209C13.1549 9.62821 13.1438 9.61349 13.1317 9.59972C13.1237 9.59061 13.115 9.58184 13.1066 9.57345C13.0764 9.54007 13.0436 9.50903 13.0094 9.47937C13.0066 9.47692 13.0032 9.47376 12.9999 9.4712C12.9808 9.45487 12.9604 9.43927 12.9403 9.42438C12.9352 9.4205 12.9299 9.41672 12.9242 9.41272C12.9027 9.39762 12.8808 9.38285 12.8579 9.36874C12.8565 9.36786 12.8552 9.3673 12.8542 9.36629C12.6365 9.233 12.3734 9.16325 12.0956 9.1853C11.4266 9.23856 10.9293 9.79755 10.9852 10.4339C11.0286 10.9297 11.3943 11.3257 11.8697 11.452C11.7029 11.545 11.562 11.5988 11.5302 11.5988C11.5355 11.6021 11.5424 11.6061 11.5499 11.6109C11.5518 11.6118 11.5541 11.6132 11.5564 11.6144C11.5629 11.6185 11.5705 11.6228 11.5784 11.627C11.5803 11.6281 11.5827 11.6292 11.5846 11.6304C11.5953 11.6358 11.6064 11.6414 11.6188 11.6473C11.6207 11.6482 11.6231 11.649 11.625 11.6499C11.636 11.655 11.6472 11.6604 11.6591 11.6649C11.6625 11.6664 11.6662 11.6678 11.6698 11.6691C11.6989 11.6812 11.7317 11.6922 11.7675 11.7024C11.7726 11.7038 11.778 11.7049 11.7824 11.7063C11.7969 11.71 11.8116 11.7134 11.8268 11.717C11.8318 11.7179 11.837 11.719 11.8423 11.7201C11.8616 11.7235 11.8817 11.7269 11.9018 11.7294C11.9035 11.7294 11.9053 11.7303 11.9069 11.7303V11.8743C11.8994 11.8759 11.8925 11.8767 11.8855 11.8778C11.6679 11.9136 11.5265 11.9806 11.4626 12.1743C11.399 12.3688 11.4643 12.439 11.5662 12.5754C11.4801 12.7293 11.2545 12.7869 11.5489 13.1269C11.5275 13.2553 11.5547 13.4598 11.7415 13.5218C11.8025 13.5425 11.8533 13.5535 11.9069 13.5627L11.9067 16.1117C11.7203 16.2104 11.6283 16.3336 11.5774 16.4484C11.5774 16.4484 11.4278 16.1163 11.4377 16.7743C11.6077 16.6424 11.5408 16.927 11.5408 16.927C11.3093 17.2269 11.6033 17.2106 11.6033 17.2106C11.8027 17.0115 11.7621 17.3009 11.7621 17.3009C11.7621 17.6538 11.9054 17.7919 11.9066 17.7925V19.7344L11.7373 19.7349L11.7389 20.2707L12.035 20.2702C11.8689 20.3392 11.7592 20.5033 11.7752 20.6847C11.7953 20.9133 12.0065 21.0832 12.2471 21.0647C12.4874 21.0454 12.666 20.8449 12.6455 20.6157C12.6319 20.4575 12.5271 20.3285 12.3846 20.2692L12.6578 20.2684L12.6567 19.7326L12.4937 19.7333L12.494 18.0104C12.5276 18.0289 12.5639 18.0416 12.6033 18.0502C12.6191 18.0532 12.6347 18.0554 12.6507 18.0564C12.6578 18.0575 12.6651 18.0575 12.6722 18.0577C12.6283 17.8313 12.7636 17.6811 12.7636 17.6811C12.8331 17.5766 12.9336 17.495 13.0479 17.4375C13.3899 17.2659 13.8565 17.3093 13.996 17.5886C14.8796 17.3557 15.639 16.4675 15.639 16.4675L16.074 17.2078C15.1518 17.5161 13.1431 19.2624 14.5374 19.8672C14.5369 20.0432 14.5133 21.3498 13.6755 21.246C12.4688 21.0974 12.1679 21.5966 12.3996 22.1578C12.2907 22.6311 12.6552 22.7954 12.6552 22.7954C12.6005 22.522 12.7319 22.2955 13.2306 22.2984C13.228 22.7971 13.5501 22.887 13.5501 22.887C13.5524 22.46 13.8491 22.3018 14.1128 22.303C14.1108 22.6548 14.5196 22.7886 14.5196 22.7886C14.5196 22.7886 14.416 22.383 14.8781 22.303C16.048 22.0991 14.9493 20.896 16.7283 20.5644C16.7283 20.5644 15.8424 20.4308 15.8424 19.9465C15.8424 19.5057 16.6443 19.2043 16.9204 19.2043C17.4866 20.2861 18.1018 20.2947 18.263 20.3024C18.5137 20.5825 18.4297 21.5265 18.0677 21.508C16.7425 21.4368 16.791 22.2429 16.9395 22.4078C16.9226 22.7207 17.166 22.9014 17.166 22.9014C17.166 22.566 17.4851 22.4717 17.8944 22.4939C17.8729 22.9036 18.1339 22.9648 18.1339 22.9648C18.1411 22.5525 18.4461 22.4826 18.6628 22.4939C18.647 22.7829 18.9338 22.8679 18.9338 22.8679C18.9338 22.8679 18.9056 22.5012 19.2917 22.5012C20.0241 22.5007 18.9604 20.931 20.3899 19.3786C19.1342 19.9599 18.4661 18.5069 18.4661 18.228C19.1115 18.9833 21.2041 19.1341 21.2041 17.8439C21.2041 16.6114 19.8494 16.1522 20.4832 15.6808C20.8518 15.4067 21.5767 15.9604 21.162 16.5324C21.7567 16.312 22.0882 15.7361 21.9063 15.2536ZM13.8798 15.2924C13.4064 15.5708 13.089 15.9229 12.6574 16.077C12.5919 16.1 12.5396 16.1065 12.4942 16.1036V13.6979C12.6085 13.7086 12.9053 13.7492 13.2522 13.8927C13.5958 14.0802 13.5958 14.4677 13.1622 14.5596C13.4363 15.0844 14.3857 14.8274 14.5926 14.4C14.694 14.391 14.7835 14.572 14.8678 14.743C14.7346 14.8122 14.4619 14.9497 13.8798 15.2924ZM19.1786 11.3044C19.1265 11.375 19.0752 11.4453 19.0302 11.5055C19.1503 11.705 19.3761 11.8298 19.6236 11.8069C19.9656 11.7745 20.2174 11.471 20.1859 11.1286C20.1841 11.1162 20.1824 11.105 20.1807 11.0928C20.1441 11.2701 19.9351 11.4202 19.6694 11.4447C19.4682 11.4636 19.286 11.4059 19.1786 11.3044Z" fill="#D1D3D4"/>
<path d="M18.6473 11.1224C18.7664 11.3219 18.9929 11.4467 19.2403 11.4236C19.5829 11.3916 19.8339 11.0879 19.8026 10.7452C19.8013 10.7331 19.7991 10.7214 19.7975 10.7093C19.7612 10.8863 19.5513 11.0369 19.2861 11.0615C19.0843 11.0803 18.9024 11.0225 18.795 10.9211C18.7432 10.992 18.6913 11.0622 18.6473 11.1224Z" fill="#ED1C24"/>
<path d="M16.8145 8.50842C16.8046 8.50842 16.7947 8.51225 16.783 8.5163C16.568 8.56168 15.908 9.01588 16.1489 9.34336C15.9511 9.36674 15.492 9.23124 15.1958 9.83566C15.5679 9.76563 15.6921 10.0953 15.6921 10.2137C15.6921 10.6623 15.3436 10.8422 15.054 10.8439C14.8602 10.8444 14.694 10.7654 14.6759 10.6312C14.6768 10.6273 14.675 10.6234 14.6759 10.6194C14.6757 10.619 14.672 10.6199 14.672 10.6194H14.6641C14.4332 10.863 14.5735 11.3709 14.9398 11.4977C14.9398 11.4977 14.7965 12.0571 14.4475 12.4114C14.1001 12.3979 13.615 12.3506 13.1872 12.1869C13.0675 12.1413 12.9542 12.0842 12.8485 12.0175C12.767 11.967 12.6888 11.9129 12.6201 11.8482C12.414 11.6534 12.2513 11.5476 12.1121 11.4937V11.2377C12.3162 11.1376 12.5411 10.9622 12.7737 10.6667C12.9555 10.4452 13.0523 10.1614 13.0258 9.85929C13.0229 9.82319 13.0172 9.78827 13.01 9.75295C13.0084 9.74195 13.0045 9.73244 13.0021 9.72145C12.9968 9.69712 12.9934 9.67 12.9864 9.64662C12.9832 9.63468 12.9787 9.623 12.9746 9.61117C12.9669 9.58707 12.956 9.5671 12.947 9.54422C12.943 9.5345 12.9431 9.52232 12.9391 9.51271C12.9258 9.4825 12.9111 9.45456 12.8958 9.42607C12.8897 9.4139 12.8825 9.40223 12.8761 9.39062C12.8654 9.37318 12.8518 9.35636 12.8407 9.33942C12.8314 9.32587 12.823 9.31353 12.8131 9.30004C12.8033 9.2871 12.7921 9.27309 12.7816 9.26065C12.7704 9.24594 12.7622 9.2311 12.7501 9.21733C12.7422 9.20822 12.731 9.19843 12.7225 9.18976C12.692 9.15672 12.6621 9.12434 12.628 9.09524C12.6245 9.09247 12.6196 9.08981 12.6162 9.08737C12.597 9.07126 12.5777 9.05477 12.5571 9.0401C12.5517 9.03655 12.5467 9.03196 12.5413 9.02829C12.5196 9.0128 12.4974 8.99924 12.4744 8.98497C12.4731 8.98434 12.4717 8.98546 12.4705 8.98497C12.2529 8.85101 11.992 8.78209 11.7143 8.8038C11.6545 8.80858 11.594 8.81921 11.5371 8.83137C10.9588 8.9595 10.5526 9.47301 10.6037 10.0523C10.6469 10.5429 11.0023 10.934 11.4701 11.0644C11.4749 11.0658 11.4809 11.0672 11.4859 11.0684C11.3187 11.1615 11.1791 11.2141 11.1472 11.2141C11.1526 11.2175 11.1592 11.2247 11.1668 11.2298C11.1688 11.2307 11.1725 11.2286 11.1747 11.2298C11.1814 11.2337 11.186 11.2411 11.1944 11.2456C11.1965 11.2467 11.2 11.2448 11.2023 11.2456C11.2123 11.2509 11.2217 11.2593 11.2338 11.2653C11.236 11.2659 11.24 11.268 11.2417 11.2692C11.2523 11.2742 11.2647 11.2759 11.2771 11.281C11.2805 11.2825 11.2813 11.2836 11.285 11.285C11.3147 11.2967 11.3472 11.3103 11.3835 11.3204C11.3885 11.3216 11.3941 11.3229 11.3992 11.3244C11.4133 11.328 11.4273 11.3291 11.4425 11.3322C11.4476 11.3336 11.4529 11.335 11.4583 11.3362C11.4774 11.3399 11.4966 11.3455 11.5174 11.348C11.5188 11.348 11.5238 11.347 11.5252 11.348V11.4898C11.5185 11.4908 11.5089 11.4923 11.5016 11.4937C11.2845 11.5293 11.144 11.599 11.0802 11.793C11.0167 11.9875 11.0807 12.0583 11.1826 12.1948C11.0959 12.3481 10.873 12.4059 11.1668 12.7461C11.146 12.8743 11.1732 13.0778 11.3598 13.14C11.421 13.1606 11.4719 13.1698 11.5252 13.1793V15.7275C11.3386 15.8264 11.2449 15.9513 11.1944 16.0662C11.1944 16.0662 10.8377 16.0183 10.8478 16.6766C11.0177 16.5441 11.159 16.5427 11.159 16.5427C10.9278 16.8424 11.092 17.1177 11.092 17.1177C11.2913 16.9181 11.3795 16.9169 11.3795 16.9169C11.3795 17.2713 11.5252 17.4092 11.5252 17.4092V19.3508H11.3559V19.5989V19.8864H11.6513C11.6151 19.9015 11.5825 19.9218 11.5528 19.9455C11.4505 20.0234 11.3876 20.1436 11.3913 20.2763V20.2999C11.4117 20.5292 11.6231 20.7017 11.8639 20.682C12.104 20.6632 12.2815 20.4616 12.2617 20.233C12.2477 20.0755 12.1443 19.9457 12.0018 19.8864H12.2735V19.3508H12.1121V17.6258C12.1459 17.6433 12.1798 17.6576 12.2184 17.6652C12.2349 17.6689 12.2535 17.6712 12.2696 17.673C12.2767 17.6732 12.2822 17.6728 12.2893 17.673C12.2455 17.4467 12.3799 17.2989 12.3799 17.2989C12.4499 17.1941 12.5496 17.1124 12.6634 17.0547C13.0058 16.8831 13.4731 16.9252 13.6126 17.2044C14.4963 16.9718 15.2549 16.0859 15.2549 16.0859L15.6921 16.8224C14.7696 17.1311 12.7618 18.8794 14.1561 19.4847C14.1555 19.6602 14.131 20.9658 13.2936 20.8631C12.0872 20.7139 11.786 21.2117 12.0175 21.7729C11.9082 22.2467 12.2735 22.4109 12.2735 22.4109C12.2191 22.1379 12.35 21.9123 12.8485 21.9147C12.8459 22.4133 13.1675 22.5054 13.1675 22.5054C13.1693 22.0779 13.4668 21.9171 13.7307 21.9186C13.729 22.2705 14.1364 22.407 14.1364 22.407C14.1364 22.407 14.0322 21.9987 14.4948 21.9186C15.6642 21.7148 14.5667 20.5139 16.3458 20.1818C16.3458 20.1818 15.4597 20.0483 15.4597 19.5635C15.4597 19.1234 16.2592 18.8231 16.5349 18.8231C16.5351 18.8237 16.5385 18.8224 16.5388 18.8231C17.105 19.9001 17.721 19.9097 17.8818 19.9179C18.1324 20.1974 18.0469 21.1421 17.6849 21.1231C16.3597 21.0525 16.4061 21.8601 16.5546 22.025C16.5381 22.3384 16.783 22.5173 16.783 22.5173C16.783 22.1816 17.1023 22.09 17.5116 22.1116C17.4896 22.5209 17.7518 22.5803 17.7518 22.5803C17.7579 22.1679 18.0625 22.1002 18.2796 22.1116C18.2644 22.4012 18.5513 22.4858 18.5513 22.4858C18.5513 22.4858 18.5238 22.1199 18.9097 22.1195C19.6424 22.1195 18.5782 20.5487 20.0085 18.9963C18.7529 19.5779 18.0826 18.1252 18.0826 17.8463C18.7282 18.6019 20.8238 18.7502 20.8238 17.4604C20.8238 16.4197 19.8576 15.9296 19.9376 15.5187C19.9523 15.4433 20.0009 15.3716 20.0991 15.2982C20.4682 15.0238 21.1931 15.5778 20.7804 16.1489C21.3746 15.9285 21.7061 15.3514 21.5248 14.8689C21.3419 14.3861 20.7118 14.1764 20.1188 14.4002C19.8704 14.494 19.67 14.6494 19.532 14.8335C19.9231 13.7152 21.5209 13.4798 21.5209 12.4389C21.5209 10.6951 19.0417 11.1833 19.402 12.4389C19.402 12.42 19.4036 12.402 19.4059 12.3838C19.4094 12.3512 19.4163 12.3222 19.4256 12.2932C19.5649 11.858 20.3118 11.8273 20.3118 12.4389C20.3118 13.1132 18.7285 13.5561 18.7285 14.6956C18.7285 15.9513 19.9859 16.0643 19.8588 17.2123C19.8374 17.411 19.6236 17.673 19.3154 17.673C18.6544 17.673 18.2999 17.3921 18.0945 16.9956C17.7025 16.2385 17.8465 15.0579 17.4052 14.5854L17.4407 14.097C17.8294 14.3355 18.8624 13.7781 18.185 12.9273C18.185 13.3462 17.3107 13.3197 17.3107 12.5295C17.3107 11.4599 18.3097 12.0218 18.3583 12.2578C18.3103 11.8684 18.2926 11.6189 18.3583 11.3953C17.8187 11.5686 17.7674 11.2562 17.8345 11.1353C17.9135 10.9956 18.0187 10.8321 18.2284 10.8321C18.5314 10.8321 18.5121 10.9432 18.4962 11.0999C18.6119 10.9248 18.6443 10.7962 18.9136 10.5328L18.9097 10.3358L19.0672 10.391L19.2169 10.1468C19.0544 9.8094 18.8328 9.97468 18.6695 9.55603C18.5341 9.52049 16.7528 9.35371 16.8145 8.50842ZM11.7891 9.66631C11.9551 9.65303 12.1018 9.77156 12.116 9.93018C12.1298 10.088 12.0066 10.2282 11.8403 10.2413C11.6737 10.2547 11.5267 10.1359 11.5134 9.97744C11.5098 9.9354 11.515 9.89672 11.5292 9.85929C11.5292 9.85841 11.5288 9.85568 11.5292 9.85535C11.5308 9.84969 11.5352 9.84516 11.5371 9.8396C11.5806 9.74646 11.6748 9.67555 11.7891 9.66631ZM14.6641 10.8242C14.6745 10.8854 14.6969 10.9398 14.7271 10.9896C14.6969 10.9397 14.6744 10.8855 14.6641 10.8242ZM19.7446 11.8994C19.6728 11.9379 19.6052 11.9889 19.5517 12.049C19.6056 11.9879 19.6718 11.9383 19.7446 11.8994ZM12.1121 13.3133C12.2264 13.3243 12.5218 13.3673 12.8682 13.5102C12.8722 13.5121 12.8766 13.5118 12.88 13.5141C13.2132 13.7041 13.2065 14.0857 12.7776 14.1758C13.0512 14.701 14.0043 14.4456 14.2112 14.0182C14.3121 14.0092 14.3985 14.1901 14.483 14.3609C14.35 14.4302 14.0802 14.5656 13.4984 14.9083C13.0249 15.187 12.7052 15.5383 12.2735 15.692C12.2078 15.7159 12.1572 15.7221 12.1121 15.7196V13.3133ZM11.348 16.0938C11.3359 16.1025 11.3252 16.1153 11.3165 16.1253C11.3261 16.1136 11.3338 16.1037 11.348 16.0938ZM11.0014 16.3734C10.9578 16.4225 10.9183 16.4738 10.8912 16.527C10.9178 16.4746 10.9587 16.4219 11.0014 16.3734ZM20.3118 17.1571C20.3139 17.1902 20.3157 17.2249 20.3157 17.2595C20.3157 17.2766 20.3114 17.3012 20.3078 17.3304C20.3114 17.3012 20.3118 17.2766 20.3118 17.2595C20.3118 17.2236 20.314 17.1914 20.3118 17.1571ZM20.1779 17.673C20.1626 17.6943 20.1454 17.7156 20.1267 17.7361C20.1447 17.7163 20.1632 17.6936 20.1779 17.673ZM11.6473 19.9258C11.6659 19.9258 11.685 19.9301 11.7025 19.9337C11.685 19.9301 11.6659 19.9297 11.6473 19.9297C11.6307 19.9297 11.6157 19.9306 11.6001 19.9337C11.6157 19.9306 11.6308 19.9258 11.6473 19.9258Z" fill="#034694"/>
<path d="M17.8156 9.96741L18.0307 9.97874L17.923 10.1264C17.923 10.1264 17.7794 10.1718 17.8156 9.96741ZM17.3025 9.96741H17.6124C17.6124 9.96741 17.6012 10.2175 17.8275 10.2399L17.7794 10.3195C17.7794 10.3195 17.1713 10.1606 17.3025 9.96741Z" fill="white"/>
<path d="M11.9799 12.104C11.9906 12.0636 11.6147 11.8437 11.4102 11.7902C11.324 11.7678 11.2577 11.8714 11.247 11.9119C11.2365 11.9525 11.2436 12.0753 11.3294 12.0978C11.5341 12.1514 11.9694 12.1444 11.9799 12.104ZM11.9491 12.4792C11.9522 12.4411 11.5773 12.3062 11.3839 12.2917C11.3029 12.2858 11.2602 12.3905 11.2577 12.4283C11.2549 12.4668 11.2817 12.5763 11.3627 12.582C11.5559 12.5964 11.9466 12.5179 11.9491 12.4792ZM11.5234 11.3478V11.4915C11.5783 11.5465 11.7788 11.6111 11.8017 11.6111V11.3265C11.8018 11.3265 11.651 11.3581 11.5234 11.3478ZM11.4449 12.7499C11.3862 12.7523 11.3641 12.8301 11.3656 12.8581C11.3661 12.8858 11.3941 12.9622 11.4528 12.96C11.5925 12.955 11.8664 12.8671 11.8653 12.8397C11.8641 12.8122 11.5846 12.7451 11.4449 12.7499ZM11.1572 16.5442C10.926 16.8438 11.0925 17.1171 11.0925 17.1171C11.0925 16.9085 11.3305 16.6399 11.3836 16.5875C11.3836 16.5875 11.3021 16.5442 11.1572 16.5442ZM11.8949 17.1799C11.8593 17.3647 11.9513 17.5447 12.1105 17.6275C12.1444 17.645 12.1812 17.6589 12.2198 17.6665C12.2363 17.6703 12.2518 17.6723 12.2678 17.6741C12.2749 17.6743 12.282 17.6744 12.2891 17.6746C12.2891 17.6746 12.0549 17.4554 12.1491 17.2482C12.088 17.2063 11.9968 17.1799 11.8949 17.1799ZM11.4717 11.0646C11.1211 10.8935 10.8718 10.4646 10.8718 9.96186C10.8718 9.42831 11.1521 8.9774 11.5372 8.82978C10.959 8.95791 10.5511 9.4718 10.6021 10.0511C10.6454 10.5417 11.0039 10.9341 11.4717 11.0646ZM15.1941 9.83391C15.5662 9.76387 15.6924 10.0947 15.6924 10.2131C15.6924 10.6616 15.3431 10.8424 15.0535 10.8441V10.8443C16.3968 10.8443 15.9234 9.10475 15.1941 9.83391ZM14.2963 13.694C14.9382 13.694 14.8951 12.8556 14.7562 12.7166C14.9622 12.5108 15.3861 11.5665 15.3861 11.392C15.3861 11.392 14.5388 11.2093 14.6741 10.6213C14.6738 10.6209 14.6738 10.6207 14.6738 10.6202L14.6625 10.6181C14.4316 10.8618 14.572 11.37 14.9383 11.4967C14.9383 11.4967 14.7969 12.0555 14.4479 12.4097C14.1005 12.3962 13.6134 12.3505 13.1857 12.1868C13.8469 12.5377 14.5278 13.0681 14.2963 13.694ZM11.7884 9.66824C11.9544 9.65496 12.1006 9.77265 12.1148 9.93126C12.1286 10.0891 12.0049 10.2286 11.8387 10.2418C11.672 10.2552 11.5256 10.1375 11.5123 9.97903C11.5123 10.2246 11.7117 10.4242 11.9578 10.4242C11.9614 10.4242 11.9651 10.424 11.9688 10.424C11.9909 10.5329 11.9984 10.6486 11.9629 10.7334C12.2032 10.5244 12.4031 10.263 12.4031 9.979C12.4031 9.7328 12.2032 9.53325 11.9578 9.53325C11.7529 9.53325 11.5812 9.67126 11.5288 9.85876C11.5677 9.75568 11.6662 9.67812 11.7884 9.66824ZM16.5193 9.34412C16.229 9.05332 16.6581 8.50983 16.8157 8.50983C16.6433 8.50983 15.8958 8.99923 16.1496 9.34412C16.2896 9.34412 16.5193 9.34412 16.5193 9.34412ZM12.7791 14.1762C13.0094 14.2469 13.2409 14.1607 13.2949 13.9838C13.3488 13.8065 13.2051 13.6063 12.9744 13.5353C12.9426 13.5258 12.9104 13.519 12.8788 13.5151C13.2119 13.7051 13.208 14.0861 12.7791 14.1762ZM12.1111 11.7294C12.1111 11.7294 12.4411 11.8338 12.8471 12.0193C12.7656 11.9688 12.6891 11.9118 12.6204 11.8471C12.4143 11.6523 12.2504 11.5462 12.1111 11.4923V11.7294ZM12.2363 15.974C12.9263 15.974 15.3118 14.4509 15.3118 14.4509C14.7226 14.4509 14.4846 14.3598 14.4846 14.3598C14.3516 14.4291 14.0786 14.5661 13.4967 14.9088C13.0233 15.1875 12.7059 15.5399 12.2742 15.6937C12.2085 15.7175 12.1562 15.723 12.1111 15.7205C12.0118 15.712 11.9025 15.6985 11.8017 15.6925V13.502C11.8017 13.2723 11.634 13.18 11.5234 13.18V15.7291C11.3368 15.828 11.245 15.9509 11.1945 16.0658C11.1945 16.0658 10.8387 16.0184 10.8489 16.6767C10.8489 16.5021 11.108 16.1968 11.2877 16.1968C11.2877 15.974 11.9415 15.974 12.2363 15.974ZM18.1867 19.5004C18.012 19.5004 17.2102 19.5343 17.1381 18.8359C16.9609 18.7978 16.754 18.7902 16.5368 18.821C17.1036 19.9029 17.719 19.9116 17.88 19.9199C18.1306 20.1994 18.0466 21.1433 17.6846 21.1243C16.3594 21.0537 16.408 21.86 16.5565 22.0249C16.5565 21.4169 16.9697 21.2728 18.0137 21.2728C18.0137 21.2728 18.867 20.1807 18.1867 19.5004ZM18.4593 22.1108H18.2799C18.2647 22.4005 18.5514 22.4857 18.5514 22.4857C18.4593 22.3936 18.3921 22.1786 18.4593 22.1108ZM16.7824 22.5186C16.7061 22.4422 16.6433 22.1362 16.754 22.0249H16.5565C16.54 22.3383 16.7824 22.5186 16.7824 22.5186ZM20.7382 12.4533C20.7382 11.5278 19.4689 11.6732 19.4062 12.3839C19.4622 11.863 20.3102 11.7861 20.3102 12.4386C20.3102 13.1128 18.7287 13.5545 18.7287 14.694C18.7287 15.9497 19.9842 16.0659 19.8572 17.2138C19.8357 17.4126 19.6228 17.6722 19.3146 17.6722C18.6536 17.6722 18.2998 17.3917 18.0944 16.9953C18.3045 17.5565 18.6743 17.9867 19.4438 17.9867C20.2411 17.9867 20.3135 17.3973 20.3135 17.2604C20.3135 16.1111 19.1131 15.8378 19.1131 14.7455C19.1132 13.6819 20.7382 13.2438 20.7382 12.4533ZM11.3788 16.9184C11.3788 17.2728 11.5234 17.4102 11.5234 17.4102C11.5234 17.1966 11.6112 17.016 11.6614 16.9661C11.5872 16.8914 11.3788 16.9184 11.3788 16.9184ZM20.5501 14.9596C20.2279 14.9596 19.9641 15.2061 19.9363 15.5207C19.951 15.4452 20.0013 15.3718 20.0995 15.2984C20.4686 15.024 21.1921 15.5766 20.7794 16.1477C21.0062 16.0566 21.1656 15.8353 21.1656 15.576C21.1657 15.2359 20.8901 14.9596 20.5501 14.9596ZM17.7265 22.1108H17.5113C17.4893 22.5202 17.7512 22.5817 17.7512 22.5817C17.6401 22.4709 17.6215 22.2157 17.7265 22.1108ZM11.647 19.9278C11.6137 19.9278 11.5827 19.9346 11.5531 19.9459C11.4508 20.0238 11.3884 20.1447 11.3921 20.2774C11.4262 20.3866 11.5268 20.4654 11.647 20.4654C11.7955 20.4654 11.9157 20.3451 11.9157 20.1967C11.9157 20.0481 11.7955 19.9278 11.647 19.9278ZM13.1588 21.9155H12.8477C12.845 22.414 13.1675 22.5044 13.1675 22.5044C13.0766 22.4129 12.9612 22.1129 13.1588 21.9155ZM14.1234 18.7626C14.1234 17.6223 16.8546 17.4884 16.8546 16.5489C16.8546 16.1663 16.5243 15.9936 16.2895 15.9936C16.3559 16.0602 16.7112 16.824 15.6911 16.824C14.7687 17.1328 12.76 18.8788 14.1542 19.4841C14.1536 19.6596 14.13 20.9663 13.2926 20.8636C12.0862 20.7143 11.7853 21.213 12.0168 21.7742C12.0168 20.9227 12.6148 21.0809 13.3957 21.0809C13.8841 21.0809 14.598 20.4633 14.598 19.4235C14.598 19.4235 14.1234 19.2414 14.1234 18.7626ZM11.8018 19.4615V17.1717C11.647 17.1717 11.5234 17.4102 11.5234 17.4102L11.5234 19.3639V19.3514L11.3543 19.3519L11.3557 19.5986C11.4858 19.5985 11.8018 19.5314 11.8018 19.4615ZM12.2718 22.4121C12.2718 22.4121 12.0304 22.0328 12.2891 21.7742H12.0168C11.9075 22.248 12.2718 22.4121 12.2718 22.4121ZM13.9555 21.9204C13.9555 21.9204 13.8255 21.9204 13.7297 21.9204C13.728 22.2723 14.1368 22.4055 14.1368 22.4055C13.9927 22.2621 13.8941 21.9809 13.9555 21.9204Z" fill="#6A7AB5"/>
<path d="M6.36117 18.1188L6.34611 18.0726L6.33967 18.0245C6.31763 17.8599 6.2778 17.5531 6.04099 17.4983C5.97768 17.4835 5.91225 17.4911 5.84244 17.5198C5.86144 17.4469 5.85922 17.381 5.83633 17.3205C5.74903 17.0934 5.43996 17.0963 5.2739 17.0985H5.22508L5.17699 17.0896C5.01387 17.0596 4.70958 17.0027 4.58473 17.2111C4.55118 17.2668 4.53786 17.3312 4.54358 17.4062C4.48037 17.3655 4.41667 17.3472 4.35242 17.3503C4.10938 17.3632 4.01647 17.6581 3.96676 17.8169L3.9516 17.863L3.92905 17.9058C3.84941 18.052 3.70173 18.3231 3.86124 18.5067C3.90384 18.5558 3.96115 18.5886 4.03435 18.606C3.97648 18.6539 3.9391 18.7087 3.92277 18.7714C3.85929 19.0059 4.11132 19.1852 4.24628 19.2813L4.28588 19.3105L4.31998 19.345C4.43433 19.466 4.64682 19.6899 4.87058 19.5951C4.92979 19.5697 4.97888 19.5255 5.0182 19.4614C5.04619 19.5313 5.08646 19.5832 5.14072 19.619C5.34454 19.751 5.59274 19.567 5.72626 19.4688L5.76574 19.4399L5.80956 19.4184C5.95952 19.3466 6.23887 19.214 6.21777 18.9718C6.21216 18.9069 6.185 18.8472 6.1364 18.7901C6.21121 18.7856 6.27308 18.763 6.32329 18.7223C6.51256 18.5694 6.41404 18.2764 6.36117 18.1188Z" fill="white"/>
<path d="M5.29652 18.3153C6.6562 19.119 6.23745 18.2352 6.20757 18.1046C6.17747 17.9743 6.16603 16.9968 5.29652 18.3153Z" fill="#ED1C24"/>
<path d="M5.21103 18.5164C4.86692 20.0572 5.57797 19.3864 5.69266 19.3181C5.80729 19.2492 6.73344 18.9359 5.21103 18.5164Z" fill="#ED1C24"/>
<path d="M4.99273 18.4977C3.42034 18.6461 4.27857 19.1153 4.37937 19.203C4.48045 19.2903 5.06399 20.0748 4.99273 18.4977Z" fill="#ED1C24"/>
<path d="M4.94343 18.2837C4.31585 16.8344 4.13485 17.7954 4.08259 17.9189C4.03033 18.0413 3.46457 18.8392 4.94343 18.2837Z" fill="#ED1C24"/>
<path d="M27.4025 17.9059L27.38 17.8631L27.3647 17.817C27.3149 17.6582 27.222 17.3634 26.9797 17.3504C26.9147 17.3473 26.8513 17.3654 26.7881 17.4058C26.7939 17.3313 26.7798 17.2668 26.7471 17.2112C26.6217 17.0027 26.3179 17.0596 26.1548 17.0896L26.1062 17.0985H26.0576C25.8921 17.0963 25.5828 17.0935 25.4958 17.3205C25.4721 17.381 25.4704 17.447 25.489 17.5198C25.4202 17.4912 25.3547 17.4837 25.2909 17.4983C25.0543 17.5531 25.0137 17.8599 24.9927 18.0245L24.9855 18.0727L24.9708 18.1189C24.9177 18.2764 24.8195 18.5694 25.0087 18.7224C25.0589 18.7631 25.1203 18.7858 25.1956 18.7902C25.147 18.8474 25.1199 18.9071 25.1142 18.972C25.0933 19.2142 25.3722 19.3468 25.5224 19.4186L25.5658 19.4401L25.6053 19.469C25.7392 19.5673 25.9877 19.7512 26.1908 19.6191C26.2458 19.5834 26.2857 19.5315 26.3134 19.4615C26.353 19.5257 26.4016 19.5698 26.4613 19.5954C26.685 19.6901 26.8977 19.4662 27.0119 19.3452L27.0463 19.3107L27.0854 19.2815C27.2208 19.1855 27.4726 19.0061 27.4094 18.7716C27.3924 18.7088 27.3558 18.6541 27.2975 18.6061C27.3704 18.5888 27.4279 18.5559 27.4703 18.5069C27.6301 18.3232 27.4826 18.0522 27.4025 17.9059Z" fill="white"/>
<path d="M26.2004 18.1714C25.0164 17.1268 25.9859 17.2515 26.1192 17.2398C26.2519 17.2286 27.1856 16.937 26.2004 18.1714Z" fill="#ED1C24"/>
<path d="M26.0356 18.3153C24.6759 19.119 25.0938 18.2352 25.1243 18.1046C25.1542 17.9743 25.1654 16.9968 26.0356 18.3153Z" fill="#ED1C24"/>
<path d="M26.1208 18.5164C26.465 20.0572 25.7539 19.3864 25.639 19.3181C25.5245 19.2492 24.5987 18.9359 26.1208 18.5164Z" fill="#ED1C24"/>
<path d="M26.3388 18.4977C27.9113 18.6461 27.0536 19.1153 26.9524 19.203C26.852 19.2903 26.2676 20.0748 26.3388 18.4977Z" fill="#ED1C24"/>
<path d="M26.3878 18.2837C27.0157 16.8344 27.1963 17.7954 27.2488 17.9189C27.3008 18.0413 27.8666 18.8392 26.3878 18.2837Z" fill="#ED1C24"/>
<path d="M26.6933 18.329C26.6918 18.3164 26.6877 18.3051 26.686 18.2929C26.8122 18.2001 26.9486 18.1008 26.9486 18.1008L26.9355 18.0714C26.9355 18.0714 26.7764 18.0992 26.6238 18.1258C26.5472 18.0002 26.4166 17.9151 26.2671 17.9006C26.2196 17.7578 26.1722 17.6124 26.1722 17.6124L26.1402 17.6151C26.1402 17.6151 26.1187 17.7667 26.0971 17.9151C26.0052 17.9399 25.9227 17.9919 25.86 18.0663C25.8266 18.1064 25.8024 18.1518 25.7832 18.1991C25.6295 18.1991 25.467 18.1996 25.467 18.1996L25.4602 18.2313C25.4602 18.2313 25.6117 18.3051 25.7516 18.3736C25.7521 18.3864 25.7504 18.399 25.7516 18.4118C25.7623 18.5351 25.82 18.6457 25.9131 18.7264C25.8639 18.88 25.8086 19.0517 25.8086 19.0517L25.8357 19.0681C25.8357 19.0681 25.9633 18.936 26.0768 18.8193C26.1362 18.8388 26.1993 18.8465 26.2631 18.8408C26.3274 18.8359 26.3884 18.8167 26.4437 18.7879C26.5754 18.8828 26.7239 18.9902 26.7239 18.9902L26.7482 18.9692C26.7482 18.9692 26.664 18.8101 26.589 18.6677C26.6668 18.5716 26.7035 18.4519 26.6933 18.329Z" fill="white"/>
<path d="M26.1981 18.0924C26.1235 18.0982 26.0564 18.1334 26.0084 18.191C25.9605 18.2481 25.9373 18.3202 25.9441 18.3944C25.9571 18.5479 26.0931 18.662 26.2462 18.6484C26.3212 18.6416 26.3878 18.6066 26.4364 18.5497C26.4839 18.4921 26.507 18.4204 26.5007 18.3458C26.4874 18.1922 26.3512 18.0785 26.1981 18.0924Z" fill="#ED1C24"/>
<path d="M5.13133 18.1714C6.31579 17.1268 5.3457 17.2515 5.2128 17.2398C5.07946 17.2286 4.14586 16.937 5.13133 18.1714Z" fill="#ED1C24"/>
<path d="M5.57975 18.3736C5.72065 18.3052 5.87138 18.2312 5.87138 18.2312L5.86433 18.1996C5.86433 18.1996 5.70221 18.1991 5.54809 18.1991C5.52943 18.1518 5.50516 18.1063 5.47156 18.0663C5.40891 17.9919 5.3265 17.9399 5.23441 17.915C5.21331 17.7665 5.19182 17.6151 5.19182 17.6151L5.15927 17.6124C5.15927 17.6124 5.11212 17.7577 5.06536 17.9006C4.9149 17.9151 4.78417 18.0002 4.70769 18.1258C4.55569 18.0992 4.39563 18.0714 4.39563 18.0714L4.3833 18.1008C4.3833 18.1008 4.51937 18.2001 4.64555 18.2929C4.6435 18.3052 4.63983 18.3164 4.63849 18.3289C4.62806 18.4525 4.66554 18.5716 4.74324 18.6676C4.6676 18.81 4.5834 18.9692 4.5834 18.9692L4.60834 18.9902C4.60834 18.9902 4.75657 18.8827 4.88814 18.7879C4.94345 18.8168 5.00438 18.8354 5.06852 18.8408C5.13284 18.8466 5.19582 18.8388 5.25513 18.8193C5.36837 18.936 5.49578 19.0681 5.49578 19.0681L5.52371 19.0517C5.52371 19.0517 5.46829 18.8799 5.41886 18.7269C5.51177 18.6456 5.56942 18.535 5.58036 18.4117C5.5817 18.399 5.57975 18.3864 5.57975 18.3736Z" fill="white"/>
<path d="M5.32346 18.191C5.27536 18.1334 5.20855 18.0981 5.13369 18.0924C4.98068 18.0785 4.84456 18.1922 4.83123 18.3458C4.8249 18.4205 4.84795 18.4922 4.89543 18.5498C4.94342 18.6066 5.01089 18.6417 5.08537 18.6485C5.23838 18.662 5.37444 18.5479 5.38772 18.3944C5.394 18.3202 5.37111 18.2481 5.32346 18.191Z" fill="#ED1C24"/>
<path d="M5.30451 11.6003C4.64255 11.4834 4.0087 11.9278 3.89173 12.5897C3.77494 13.2521 4.2188 13.8859 4.88081 14.0028C5.54337 14.1197 6.17751 13.6756 6.29408 13.0133C6.41127 12.3512 5.96713 11.7174 5.30451 11.6003Z" fill="white"/>
<path d="M5.58062 12.5231C5.56991 12.5165 5.55125 12.5044 5.52864 12.4895C5.42862 12.4232 5.23251 12.2935 5.22713 12.2896C5.19997 12.2709 5.17353 12.2532 5.14748 12.2356C5.06029 12.1772 4.98232 12.1264 4.909 12.084C4.88074 12.068 4.85341 12.053 4.82592 12.0396C4.70935 11.9807 4.5976 11.9452 4.4657 11.9336C4.36401 12.007 4.27576 12.0979 4.20428 12.203C4.50758 12.3125 4.80371 12.4879 5.42029 12.8709C5.45555 12.7894 5.57357 12.5383 5.58062 12.5231Z" fill="#ED1C24"/>
<path d="M5.2963 13.1767C5.30862 13.146 5.36283 13.0088 5.38499 12.956C4.75313 12.5635 4.45973 12.3899 4.15577 12.2824C4.10862 12.3671 4.0733 12.4594 4.05025 12.5577C4.22375 12.7959 4.68871 13.03 5.2963 13.1767Z" fill="#ED1C24"/>
<path d="M5.22792 12.1793C5.46451 12.0394 5.73331 12.0775 5.9408 12.1483C5.86344 12.0484 5.76975 11.9611 5.66078 11.8931C5.46479 11.8541 5.19409 11.848 4.97861 12.0193C5.05697 12.0653 5.13789 12.119 5.22792 12.1793Z" fill="#ED1C24"/>
<path d="M4.28386 13.3099C4.31552 13.3316 4.34795 13.3522 4.38244 13.3716C4.45209 13.4101 4.52751 13.4434 4.60543 13.4719C4.63847 13.4844 4.67207 13.496 4.70595 13.5069C4.82447 13.5459 5.09644 13.6165 5.11671 13.6213C5.12088 13.6108 5.22279 13.3588 5.26144 13.263C4.79037 13.1462 4.27453 12.9417 4.02944 12.6758C4.01473 12.7986 4.02044 12.92 4.04638 13.0352C4.09809 13.1479 4.18112 13.2376 4.28386 13.3099Z" fill="#ED1C24"/>
<path d="M5.13254 13.7196L5.03424 13.6943C4.94311 13.6711 4.8443 13.6452 4.74384 13.6144C4.79282 13.7188 4.86991 13.8002 4.9521 13.8631C5.06223 13.8777 5.17092 13.875 5.27539 13.8569C5.19991 13.7982 5.13254 13.7196 5.13254 13.7196Z" fill="#ED1C24"/>
<path d="M6.11782 12.4906C6.09544 12.4175 6.06606 12.3466 6.02913 12.2806C5.84341 12.1977 5.56056 12.1168 5.31352 12.2377L5.65425 12.4627C5.72528 12.4563 5.79065 12.4544 5.85046 12.4558C5.88312 12.4563 5.91344 12.4581 5.94243 12.4609C6.00913 12.4668 6.06606 12.4775 6.11782 12.4906Z" fill="#ED1C24"/>
<path d="M5.94334 12.553C5.93339 13.1129 5.66942 13.5448 5.44194 13.815C5.79799 13.6912 6.07879 13.3844 6.14883 12.988C6.17282 12.8526 6.1686 12.7193 6.1435 12.5925C6.08818 12.5753 6.02203 12.5609 5.94334 12.553Z" fill="#ED1C24"/>
<path d="M4.8935 11.9719C5.05295 11.8313 5.24128 11.7839 5.41495 11.78C5.37085 11.7659 5.32592 11.7537 5.2791 11.7458C5.03146 11.7021 4.7892 11.7481 4.58344 11.8596C4.69301 11.881 4.79203 11.9194 4.8935 11.9719Z" fill="#ED1C24"/>
<path d="M5.66721 12.5536C5.58618 12.7223 5.53853 12.8257 5.49899 12.9197C5.48683 12.9482 5.475 12.9759 5.46306 13.0046C5.44417 13.0518 5.38597 13.1984 5.38597 13.1984L5.35126 13.2844L5.20081 13.6571C5.24229 13.7121 5.29255 13.757 5.34198 13.7921C5.56552 13.5371 5.84371 13.1086 5.85221 12.5476C5.79595 12.5456 5.73408 12.5477 5.66721 12.5536Z" fill="#ED1C24"/>
<path d="M4.63115 13.5774C4.55612 13.5516 4.4812 13.5222 4.41045 13.4877C4.43688 13.5693 4.47498 13.6418 4.51336 13.704C4.59361 13.7555 4.68169 13.7961 4.77572 13.8251C4.71479 13.7564 4.6622 13.6752 4.63115 13.5774Z" fill="#ED1C24"/>
<path d="M4.29997 13.4273C4.2491 13.3968 4.20178 13.3628 4.15796 13.3256C4.20755 13.4143 4.27003 13.4956 4.34251 13.5669C4.3253 13.5224 4.31019 13.4763 4.29997 13.4273Z" fill="#ED1C24"/>
<path d="M24.9055 13.0135C25.0225 13.6757 25.6562 14.1199 26.3184 14.003C26.9807 13.8862 27.4244 13.2523 27.3082 12.5899C27.1912 11.928 26.5573 11.4836 25.8949 11.6005C25.2326 11.7175 24.7888 12.3513 24.9055 13.0135Z" fill="white"/>
<path d="M25.6188 12.5231C25.6293 12.5165 25.6481 12.5044 25.6712 12.4895C25.7713 12.4232 25.9671 12.2935 25.9721 12.2896C25.9999 12.2709 26.0264 12.2532 26.0524 12.2356C26.1386 12.1772 26.2173 12.1264 26.2907 12.084C26.3189 12.068 26.3465 12.053 26.3735 12.0396C26.4898 11.9807 26.6022 11.9452 26.7339 11.9336C26.8355 12.007 26.9241 12.0979 26.9946 12.203C26.6915 12.3125 26.3963 12.4879 25.779 12.8709C25.7436 12.7894 25.6261 12.5383 25.6188 12.5231Z" fill="#ED1C24"/>
<path d="M25.9033 13.1767C25.8908 13.146 25.8362 13.0088 25.8153 12.956C26.4459 12.5635 26.7402 12.3899 27.0439 12.2824C27.0908 12.3671 27.1263 12.4594 27.1494 12.5577C26.9757 12.7959 26.5108 13.03 25.9033 13.1767Z" fill="#ED1C24"/>
<path d="M25.9718 12.1793C25.735 12.0394 25.4664 12.0775 25.2585 12.1483C25.336 12.0484 25.4303 11.9611 25.5392 11.8931C25.735 11.8541 26.0055 11.848 26.2207 12.0193C26.1429 12.0653 26.0615 12.119 25.9718 12.1793Z" fill="#ED1C24"/>
<path d="M26.9152 13.3099C26.8843 13.3316 26.8519 13.3522 26.8168 13.3716C26.7475 13.4101 26.6722 13.4434 26.5945 13.4719C26.5611 13.4844 26.5273 13.496 26.4935 13.5069C26.3756 13.5459 26.1033 13.6165 26.0829 13.6213C26.0784 13.6108 25.9762 13.3588 25.9383 13.263C26.4092 13.1462 26.9246 12.9417 27.1704 12.6758C27.1851 12.7986 27.1788 12.92 27.1533 13.0352C27.1014 13.1479 27.0185 13.2376 26.9152 13.3099Z" fill="#ED1C24"/>
<path d="M26.0672 13.7196L26.1649 13.6943C26.2563 13.6711 26.3557 13.6452 26.4562 13.6144C26.4065 13.7188 26.3298 13.8002 26.2477 13.8631C26.1378 13.8777 26.0287 13.875 25.9248 13.8569C25.9994 13.7982 26.0672 13.7196 26.0672 13.7196Z" fill="#ED1C24"/>
<path d="M25.0818 12.4906C25.1043 12.4175 25.1332 12.3466 25.171 12.2806C25.3562 12.1977 25.6384 12.1168 25.8856 12.2377L25.5452 12.4627C25.4741 12.4563 25.4088 12.4544 25.3488 12.4558C25.3166 12.4563 25.2861 12.4581 25.2567 12.4609C25.1901 12.4668 25.1338 12.4775 25.0818 12.4906Z" fill="#ED1C24"/>
<path d="M25.2563 12.553C25.2659 13.1129 25.5306 13.5448 25.7583 13.815C25.4013 13.6912 25.1201 13.3844 25.0508 12.988C25.027 12.8526 25.0304 12.7193 25.0564 12.5925C25.1112 12.5753 25.1778 12.5609 25.2563 12.553Z" fill="#ED1C24"/>
<path d="M26.3065 11.9719C26.1469 11.8313 25.9582 11.7839 25.7848 11.78C25.8287 11.7659 25.8734 11.7537 25.9207 11.7458C26.1681 11.7021 26.4103 11.7481 26.616 11.8596C26.5069 11.881 26.4077 11.9194 26.3065 11.9719Z" fill="#ED1C24"/>
<path d="M25.5325 12.5536C25.6137 12.7223 25.6605 12.8257 25.7013 12.9197C25.7131 12.9482 25.7243 12.9759 25.7363 13.0046C25.7555 13.0518 25.8136 13.1984 25.8136 13.1984L25.8481 13.2844L25.9989 13.6571C25.9571 13.7121 25.9073 13.757 25.8577 13.7921C25.6343 13.5371 25.3556 13.1086 25.3477 12.5476C25.4037 12.5456 25.4659 12.5477 25.5325 12.5536Z" fill="#ED1C24"/>
<path d="M26.5686 13.5774C26.6437 13.5516 26.7181 13.5222 26.7895 13.4877C26.7623 13.5693 26.725 13.6418 26.686 13.704C26.6059 13.7555 26.5178 13.7961 26.4242 13.8251C26.485 13.7564 26.5375 13.6752 26.5686 13.5774Z" fill="#ED1C24"/>
<path d="M26.9 13.4273C26.9502 13.3968 26.9976 13.3628 27.0416 13.3256C26.9919 13.4143 26.9299 13.4956 26.8571 13.5669C26.874 13.5224 26.8892 13.4763 26.9 13.4273Z" fill="#ED1C24"/>
</svg>
