<svg width="32" height="32" viewBox="0 0 32 32" fill="none" xmlns="http://www.w3.org/2000/svg">
<path d="M24.395 5.15509C24.3664 5.14815 20.3445 4.00179 15.6411 4C15.6274 4 15.6138 4.00054 15.5999 4.00054C15.5861 4.00054 15.5726 4 15.5588 4C10.8554 4.00179 6.83361 5.14815 6.80495 5.15509C6.56548 5.22303 6.39999 5.44236 6.39999 5.69224V18.5581L6.41022 18.6619C6.42125 18.7465 7.66062 25.0944 15.3751 28.4866C15.4462 28.5176 15.5227 28.5333 15.5992 28.5333C15.5995 28.5333 15.5997 28.533 15.6 28.533C15.6003 28.533 15.6005 28.5333 15.6008 28.5333C15.6773 28.5333 15.7537 28.5176 15.8249 28.4866C23.5394 25.0944 24.7787 18.7465 24.7898 18.6619L24.8 18.5581V5.69224C24.7999 5.44236 24.6345 5.22303 24.395 5.15509Z" fill="white"/>
<path d="M24.3058 5.46616C24.2938 5.46307 20.2355 4.33161 15.6 4.32391C10.9644 4.33161 6.90625 5.46313 6.89425 5.46616C6.79269 5.49412 6.72308 5.58612 6.72308 5.69172V18.558L6.72692 18.6019C6.73152 18.6368 7.92589 24.8586 15.5059 28.1903C15.5358 28.2034 15.568 28.21 15.6 28.21C15.632 28.21 15.6642 28.2034 15.6942 28.1903C23.2741 24.8586 24.4685 18.6368 24.4731 18.6019L24.4769 18.558V5.69172C24.4769 5.58612 24.4073 5.49412 24.3058 5.46616Z" fill="black"/>
<path d="M15.6 4.79343C13.6912 4.7957 11.8826 4.99308 10.4193 5.22119V24.1407C11.6462 25.4214 13.3205 26.702 15.6 27.7188C17.8795 26.702 19.5538 25.4214 20.7807 24.1407V5.22113C19.3174 4.99303 17.5088 4.7957 15.6 4.79343Z" fill="white"/>
<path d="M13.0655 22.3073C12.3512 21.5923 12.0231 20.7417 12.0235 19.8898C12.0235 18.8739 12.4868 17.8584 13.2936 17.0507C13.9263 16.4171 14.6845 15.9957 15.4718 15.8423L14.3711 14.7399C14.0764 15.0349 12.9398 16.171 12.5162 16.5955H12.5213L12.3484 16.7667L12.2875 16.8259C12.2471 16.8603 12.1852 16.892 12.1146 16.891C12.0348 16.8961 11.9506 16.8528 11.8967 16.791L11.2935 16.1801C11.2336 16.1275 11.1876 16.0455 11.1926 15.9632C11.1913 15.892 11.2238 15.83 11.2648 15.7821L15.4437 11.5972L14.5233 10.6763C14.2292 10.9708 13.0921 12.1074 12.6682 12.5324H12.6723L12.5004 12.7028L12.439 12.7625C12.3996 12.7956 12.3382 12.8294 12.2658 12.8281C12.1857 12.8333 12.1031 12.7895 12.0486 12.7279L11.4446 12.1167C11.386 12.0641 11.3395 11.9832 11.3441 11.9001C11.3428 11.8286 11.3753 11.7666 11.4167 11.7187L16.086 7.043C16.1817 6.9438 16.3165 6.8823 16.4646 6.8823C16.6114 6.88154 16.7427 6.94201 16.8355 7.03888L19.9426 10.152C19.9769 10.193 20.0089 10.255 20.0076 10.3258C20.0127 10.4052 19.9701 10.4895 19.9092 10.5437L19.8797 10.5729H19.8785C19.8608 10.5893 19.8368 10.6134 19.8079 10.6418C19.7488 10.7005 19.6702 10.7786 19.5917 10.8573C19.4347 11.0139 19.2786 11.1702 19.2781 11.1702L19.207 11.2404L16.5836 8.61139L15.3913 9.80695L19.7902 14.2145C19.825 14.2558 19.857 14.3183 19.8557 14.3885C19.8608 14.4682 19.8181 14.552 19.7567 14.6069L19.0563 15.3042L16.4322 12.6752L15.2393 13.8698L17.4052 16.0397C17.8058 16.2114 18.1898 16.4698 18.5405 16.822C19.2166 17.5072 19.6001 18.3323 19.6006 19.1541C19.6006 19.7495 19.398 20.3403 18.9685 20.8636L18.8984 20.9492L17.8747 19.9227L17.9141 19.8561C18.1052 19.5317 18.2168 19.1987 18.2162 18.8696C18.2157 18.4762 18.0614 18.0818 17.6726 17.6912C17.2543 17.2732 16.7993 17.1051 16.3355 17.1041C15.6325 17.1028 14.9019 17.5059 14.3261 18.0841C13.749 18.6605 13.3471 19.3932 13.3484 20.0978C13.3489 20.5625 13.5173 21.0186 13.9339 21.4366C14.2872 21.79 14.6799 21.9405 15.0818 21.941C15.5392 21.941 16.0122 21.7411 16.4317 21.3944L16.5015 21.3375L17.5099 22.3477L17.4309 22.4182C16.7868 22.9908 16.0373 23.2845 15.289 23.2845C14.4995 23.2846 13.7146 22.9578 13.0655 22.3073Z" fill="black"/>
<path d="M15.8927 15.9803L15.6929 16.0072C14.8861 16.1182 14.092 16.5329 13.4349 17.1918C12.6593 17.9678 12.2226 18.9353 12.2226 19.8897C12.2234 20.6903 12.5272 21.4843 13.206 22.1658C13.8234 22.7832 14.5543 23.0843 15.289 23.0848C15.9547 23.0848 16.6259 22.836 17.2189 22.338L16.4878 21.605C16.058 21.94 15.571 22.1401 15.0819 22.1407C14.6288 22.1412 14.1781 21.9651 13.7933 21.5779C13.3426 21.1281 13.1481 20.6122 13.1492 20.0979C13.1502 19.3162 13.5841 18.5455 14.1855 17.9432C14.7869 17.3407 15.5558 16.9058 16.3356 16.9045C16.8487 16.904 17.3639 17.0985 17.8134 17.5499C18.2322 17.9684 18.4166 18.4213 18.4156 18.8697C18.4156 19.2201 18.3051 19.5635 18.1244 19.89L18.8832 20.6504C19.2377 20.1827 19.4012 19.6717 19.4012 19.1542C19.4017 18.3956 19.0459 17.6183 18.3995 16.9627C18.0611 16.6228 17.6922 16.3771 17.3098 16.2153L17.2906 16.2072L14.9573 13.8698L16.4323 12.3931L19.0564 15.0218L19.6164 14.4654C19.664 14.4101 19.6514 14.4324 19.6565 14.3886C19.6555 14.3686 19.6545 14.3658 19.643 14.3491L15.1092 9.80694L16.5837 8.3292L19.2081 10.9589C19.36 10.807 19.7094 10.4571 19.7688 10.4018C19.8159 10.3477 19.8036 10.3695 19.8085 10.3257C19.8074 10.3057 19.8069 10.3029 19.7949 10.2851L16.6935 7.17845C16.6331 7.11695 16.5579 7.08233 16.4648 7.08157C16.3719 7.08157 16.2888 7.11977 16.2284 7.18251L11.5642 11.8526C11.5455 11.8772 11.5445 11.881 11.5432 11.9C11.5478 11.9402 11.5363 11.9192 11.5859 11.9756L12.1904 12.5874C12.2448 12.6358 12.2239 12.6235 12.2658 12.6286C12.2843 12.6273 12.2894 12.6263 12.307 12.6137L12.3526 12.5686L12.3559 12.5645L12.3587 12.5611L12.3643 12.5555C12.3689 12.5509 12.3746 12.5447 12.3825 12.5365C12.3981 12.5212 12.4209 12.4983 12.4493 12.4699C12.5066 12.4122 12.5882 12.3297 12.6865 12.2316C12.8829 12.035 13.1446 11.7726 13.4065 11.5109C13.9294 10.9876 14.4531 10.4648 14.4531 10.4648L14.5229 10.3948L15.7255 11.597L11.4125 15.9152C11.3948 15.9393 11.3931 15.9439 11.3918 15.9631C11.3969 16.0041 11.3844 15.9826 11.4345 16.0395L12.0385 16.6507C12.0925 16.6981 12.0715 16.6867 12.1148 16.6913C12.1339 16.6902 12.138 16.689 12.1552 16.6772L12.2043 16.6283L12.2068 16.6252L12.2124 16.619C12.217 16.6149 12.2227 16.6088 12.2306 16.6006C12.2462 16.5852 12.269 16.5624 12.2973 16.5334C12.3547 16.4758 12.4362 16.3938 12.5345 16.2951C12.731 16.0985 12.9927 15.8366 13.2546 15.5744C13.7775 15.0511 14.3011 14.5278 14.3011 14.5278L14.371 14.4575L15.75 15.8379L15.8927 15.9803Z" fill="#E53138"/>
</svg>
