<svg width="32" height="32" viewBox="0 0 32 32" fill="none" xmlns="http://www.w3.org/2000/svg">
<g opacity="0.8">
<path d="M16 2.40002C13.3102 2.40002 10.6808 3.19765 8.44424 4.69204C6.20774 6.18642 4.46459 8.31046 3.43524 10.7955C2.40589 13.2806 2.13656 16.0151 2.66132 18.6533C3.18608 21.2914 4.48135 23.7147 6.38334 25.6167C8.28534 27.5187 10.7086 28.814 13.3468 29.3387C15.9849 29.8635 18.7194 29.5941 21.2045 28.5648C23.6896 27.5354 25.8136 25.7923 27.308 23.5558C28.8024 21.3193 29.6 18.6899 29.6 16C29.596 12.3943 28.1619 8.93739 25.6123 6.38775C23.0626 3.83812 19.6057 2.40399 16 2.40002Z" fill="#00285D"/>
<path d="M28.1853 16C28.1853 13.59 27.4706 11.2341 26.1317 9.23021C24.7928 7.22635 22.8897 5.66453 20.6631 4.74225C18.4365 3.81998 15.9865 3.57867 13.6228 4.04884C11.2591 4.51901 9.08784 5.67955 7.3837 7.3837C5.67955 9.08784 4.51901 11.2591 4.04884 13.6228C3.57867 15.9865 3.81998 18.4365 4.74225 20.6631C5.66453 22.8897 7.22635 24.7928 9.23021 26.1317C11.2341 27.4706 13.59 28.1853 16 28.1853C19.2316 28.1849 22.3308 26.901 24.6159 24.6159C26.901 22.3308 28.1849 19.2316 28.1853 16Z" fill="white"/>
<path d="M23.7569 16C23.7569 14.4659 23.302 12.9662 22.4496 11.6906C21.5973 10.4149 20.3858 9.42072 18.9685 8.83362C17.5511 8.24652 15.9914 8.09291 14.4867 8.39221C12.9821 8.69151 11.5999 9.43028 10.5151 10.5151C9.43028 11.5999 8.69151 12.9821 8.39221 14.4867C8.09291 15.9914 8.24652 17.5511 8.83362 18.9685C9.42072 20.3858 10.4149 21.5973 11.6906 22.4496C12.9662 23.302 14.4659 23.7569 16 23.7569C18.0569 23.7557 20.0292 22.9381 21.4837 21.4837C22.9381 20.0292 23.7557 18.0569 23.7569 16Z" fill="#6CADDE"/>
<path d="M16 24.3727C14.344 24.3727 12.7252 23.8817 11.3483 22.9617C9.9714 22.0417 8.89823 20.734 8.26451 19.2041C7.63079 17.6741 7.46499 15.9907 7.78805 14.3665C8.11112 12.7423 8.90855 11.2504 10.0795 10.0795C11.2505 8.90852 12.7424 8.11109 14.3665 7.78802C15.9907 7.46495 17.6742 7.63076 19.2041 8.26448C20.734 8.8982 22.0417 9.97136 22.9617 11.3483C23.8817 12.7252 24.3728 14.344 24.3728 15.9999C24.3704 18.2198 23.4875 20.3481 21.9178 21.9178C20.3481 23.4875 18.2199 24.3704 16 24.3727ZM16 8.09621C14.4368 8.09621 12.9087 8.55975 11.6089 9.42823C10.3091 10.2967 9.29609 11.5311 8.69788 12.9753C8.09966 14.4195 7.94314 16.0087 8.24811 17.5419C8.55307 19.0751 9.30583 20.4834 10.4112 21.5887C11.5165 22.6941 12.9249 23.4468 14.458 23.7518C15.9912 24.0568 17.5804 23.9003 19.0246 23.302C20.4688 22.7038 21.7032 21.6908 22.5717 20.391C23.4402 19.0913 23.9037 17.5632 23.9037 15.9999C23.9009 13.9046 23.0673 11.8959 21.5857 10.4142C20.1041 8.93259 18.0953 8.09899 16 8.09621Z" fill="#00285D"/>
<path d="M16 29.038C13.4213 29.038 10.9005 28.2733 8.75645 26.8407C6.61235 25.4081 4.94124 23.3718 3.95442 20.9894C2.96761 18.607 2.70941 15.9855 3.21249 13.4564C3.71556 10.9273 4.95731 8.60413 6.78071 6.78073C8.60411 4.95733 10.9273 3.71558 13.4564 3.2125C15.9855 2.70943 18.607 2.96762 20.9894 3.95444C23.3718 4.94125 25.4081 6.61237 26.8407 8.75646C28.2733 10.9006 29.038 13.4213 29.038 16C29.0317 19.4559 27.656 22.7685 25.2122 25.2123C22.7685 27.656 19.4559 29.0317 16 29.038ZM16 3.23023C13.4762 3.23024 11.009 3.97854 8.91042 5.38054C6.81184 6.78255 5.17607 8.7753 4.2099 11.1069C3.24373 13.4384 2.99056 16.0041 3.48239 18.4795C3.97422 20.955 5.18896 23.229 6.97305 25.0141C8.75713 26.7993 11.0304 28.0154 13.5056 28.5086C15.9807 29.0019 18.5466 28.7502 20.8787 27.7854C23.2108 26.8207 25.2045 25.186 26.6078 23.0883C28.011 20.9905 28.7608 18.5238 28.7622 16C28.7587 12.6163 27.4129 9.37227 25.0203 6.97965C22.6277 4.58704 19.3836 3.2413 16 3.23773" fill="#6CADDE"/>
<path d="M5.11403 15.7003L4.89074 15.7542L4.8308 15.5264L5.19496 15.417H5.38529V16.6894H5.11403V15.7003ZM5.71348 16.3477C5.70992 16.2806 5.72813 16.2142 5.7654 16.1583C5.80267 16.1024 5.85699 16.06 5.92029 16.0375C5.86952 16.0116 5.82719 15.9717 5.79826 15.9226C5.76933 15.8735 5.75499 15.8172 5.75694 15.7602C5.75694 15.5639 5.93678 15.4126 6.20653 15.4126C6.47628 15.4126 6.65612 15.5624 6.65612 15.7602C6.60346 15.7899 6.56024 15.8338 6.53145 15.8869C6.50266 15.94 6.48946 16.0002 6.49337 16.0605C6.49729 16.1208 6.51816 16.1788 6.55358 16.2277C6.589 16.2767 6.63753 16.3146 6.69358 16.3372C6.69358 16.571 6.48677 16.7074 6.20353 16.7074C5.92029 16.7074 5.70749 16.5665 5.70749 16.3477H5.71348ZM6.42083 16.3252C6.42083 16.2218 6.32792 16.1679 6.20353 16.1679C6.07915 16.1679 5.98623 16.2278 5.98623 16.3252C5.98623 16.4121 6.06716 16.4826 6.20353 16.4826C6.33991 16.4826 6.40884 16.4136 6.40884 16.3267L6.42083 16.3252ZM6.38337 15.7917C6.37565 15.7496 6.35344 15.7116 6.32058 15.6842C6.28772 15.6568 6.24631 15.6418 6.20353 15.6418C6.16076 15.6418 6.11934 15.6568 6.08649 15.6842C6.05363 15.7116 6.03141 15.7496 6.0237 15.7917C6.0244 15.8141 6.02971 15.8361 6.0393 15.8564C6.04888 15.8767 6.06253 15.8947 6.0794 15.9095C6.09627 15.9242 6.116 15.9354 6.13735 15.9422C6.15871 15.949 6.18124 15.9513 6.20353 15.9491C6.24707 15.9507 6.28955 15.9354 6.32199 15.9063C6.35443 15.8772 6.37429 15.8367 6.37737 15.7932L6.38337 15.7917ZM25.7666 16.1724C25.6946 16.2316 25.6035 16.2625 25.5103 16.2593C25.2375 16.2593 25.0607 16.1094 25.0607 15.8517C25.0618 15.7904 25.0753 15.7299 25.1006 15.6741C25.1258 15.6182 25.1623 15.5681 25.2076 15.5268C25.2529 15.4856 25.3062 15.454 25.3642 15.4341C25.4222 15.4142 25.4836 15.4063 25.5448 15.4111C25.6117 15.4066 25.6787 15.4165 25.7415 15.44C25.8043 15.4635 25.8614 15.5001 25.9089 15.5474C25.9655 15.6125 26.0079 15.6886 26.0337 15.7708C26.0595 15.8531 26.068 15.9398 26.0588 16.0255C26.0588 16.4331 25.8685 16.7164 25.5088 16.7164C25.3566 16.7225 25.2081 16.6687 25.0952 16.5665L25.245 16.3537C25.3198 16.4246 25.4192 16.4638 25.5223 16.4631C25.7066 16.4631 25.7621 16.2833 25.7726 16.1754L25.7666 16.1724ZM25.7666 15.8412C25.7668 15.8129 25.761 15.785 25.7495 15.7592C25.738 15.7335 25.7211 15.7105 25.6999 15.6919C25.6787 15.6732 25.6537 15.6594 25.6267 15.6513C25.5997 15.6432 25.5712 15.641 25.5433 15.6448C25.5162 15.6415 25.4887 15.6438 25.4626 15.6518C25.4365 15.6598 25.4124 15.6733 25.3919 15.6912C25.3714 15.7092 25.3549 15.7313 25.3435 15.7561C25.3322 15.781 25.3262 15.8079 25.326 15.8352C25.326 15.9491 25.4069 16.0255 25.5492 16.0255C25.5756 16.0286 25.6023 16.0263 25.6277 16.0186C25.6531 16.011 25.6767 15.9982 25.6969 15.981C25.7172 15.9639 25.7337 15.9427 25.7454 15.9189C25.7571 15.8951 25.7638 15.8692 25.7651 15.8427L25.7666 15.8412ZM26.9355 16.4181H26.3151L26.2716 16.2218L26.9625 15.417H27.1962V16.1888H27.3656V16.4121H27.1962V16.6834H26.94L26.9355 16.4181ZM26.9355 16.1948V15.8037L26.5983 16.1948H26.9355Z" fill="#6CADDE"/>
<path d="M16 23.9037C14.4368 23.9037 12.9087 23.4402 11.6089 22.5717C10.3091 21.7032 9.29609 20.4688 8.69788 19.0246C8.09966 17.5804 7.94314 15.9912 8.24811 14.4581C8.55308 12.9249 9.30583 11.5166 10.4112 10.4112C11.5165 9.30585 12.9249 8.55309 14.458 8.24812C15.9912 7.94316 17.5804 8.09968 19.0246 8.69789C20.4688 9.29611 21.7032 10.3091 22.5717 11.6089C23.4402 12.9087 23.9037 14.4368 23.9037 16C23.9009 18.0953 23.0673 20.1041 21.5857 21.5857C20.1041 23.0673 18.0953 23.901 16 23.9037ZM16 8.38849C14.4952 8.38967 13.0245 8.83696 11.7739 9.67381C10.5232 10.5107 9.54877 11.6995 8.97367 13.0901C8.39856 14.4806 8.24862 16.0105 8.54281 17.4862C8.837 18.962 9.56211 20.3174 10.6265 21.3812C11.6908 22.4449 13.0467 23.1692 14.5226 23.4625C15.9986 23.7558 17.5283 23.605 18.9185 23.0291C20.3088 22.4531 21.497 21.478 22.3331 20.2269C23.1693 18.9757 23.6157 17.5048 23.616 16C23.6128 13.9816 22.8092 12.0469 21.3814 10.6203C19.9537 9.19366 18.0183 8.39157 16 8.38999" fill="white"/>
<path d="M15.8501 9.19476C11.9537 9.19476 9.70578 9.70579 9.70578 9.70579C9.13813 12.2655 9.00741 14.9028 9.31914 17.5061C9.53194 19.3449 11.0276 23.2998 15.9835 24.6486C20.9395 23.2998 22.4276 19.3449 22.6479 17.5061C22.9577 14.9025 22.8255 12.2653 22.2567 9.70579C22.2567 9.70579 20.0088 9.19476 16.1034 9.19476H15.8501Z" fill="#00285D"/>
<path d="M21.9616 16.484C21.9181 17.8118 21.7113 21.7876 15.9776 23.9696C10.2828 21.8476 9.99356 17.7354 9.99356 16.484H21.9616Z" fill="#96C1E7"/>
<path d="M21.7877 16.2667C21.8783 14.2708 21.7436 12.271 21.3861 10.3052C21.3861 10.3052 19.2475 9.89758 15.991 9.89758C12.7345 9.89758 10.551 10.3472 10.551 10.3472C10.1711 12.2955 10.0267 14.2824 10.1209 16.2652H21.7952L21.7877 16.2667Z" fill="white"/>
<path d="M16.1573 23.8558L10.1074 16.5441C9.88561 18.0517 11.11 22.4906 16.1573 23.8558Z" fill="#6CADDF"/>
<path d="M11.9088 16.4946L17.5061 23.2384C17.9987 23.009 18.4625 22.7223 18.8879 22.3842L13.9979 16.4946H11.9088ZM15.8052 16.4946L19.9399 21.4835C20.3174 21.0815 20.651 20.6404 20.935 20.1677L17.8943 16.4961H15.7992L15.8052 16.4946ZM21.8656 16.4946H19.799L21.5344 18.5926C21.8267 17.9482 21.8596 16.8602 21.8596 16.5006L21.8656 16.4946Z" fill="#6CADDE"/>
<path d="M18.4203 19.237C18.4123 19.2129 18.3987 19.191 18.3808 19.1731C18.3628 19.1551 18.341 19.1416 18.3169 19.1336L17.9737 19.0137C17.9437 19.0027 17.9108 19.0027 17.8808 19.0137C17.8535 18.8934 17.7838 18.787 17.6845 18.714C17.674 18.7035 17.6575 18.6975 17.647 18.687C17.6232 18.6713 17.5975 18.6587 17.5706 18.6495L17.4402 18.6001C17.3225 18.5683 17.2117 18.5149 17.1135 18.4427C17.0233 18.3791 16.9473 18.2974 16.8902 18.203L16.8527 18.149C16.8194 18.0948 16.775 18.0484 16.7223 18.0126C16.6358 17.9482 16.5305 17.914 16.4226 17.9152C16.3988 17.9161 16.3752 17.9196 16.3522 17.9257C16.3577 17.8838 16.3481 17.8413 16.3252 17.8058L16.1124 17.5181C16.0981 17.4969 16.0786 17.4797 16.0558 17.4682C16.033 17.4566 16.0076 17.4511 15.982 17.4522C15.9573 17.4523 15.9328 17.4577 15.9104 17.468C15.8879 17.4784 15.8679 17.4934 15.8516 17.5121L15.6298 17.7983C15.6035 17.8341 15.5917 17.8786 15.5969 17.9227C15.5804 17.9227 15.5594 17.9227 15.5429 17.9227C15.4359 17.9225 15.3313 17.9549 15.2432 18.0156C15.2327 18.0261 15.2207 18.0321 15.2102 18.0426C15.1876 18.0598 15.1674 18.0799 15.1503 18.1026C15.1173 18.14 15.0903 18.179 15.0634 18.212C14.9948 18.312 14.9103 18.4001 14.8131 18.4727C14.7233 18.5387 14.6215 18.5866 14.5134 18.6136L14.4534 18.6301C14.3623 18.6548 14.2799 18.7046 14.2156 18.7737C14.1512 18.8428 14.1075 18.9285 14.0893 19.0212C14.0536 19.0102 14.0155 19.0102 13.9799 19.0212L13.6367 19.1351C13.6129 19.143 13.5914 19.1563 13.5737 19.1739C13.556 19.1916 13.5427 19.2132 13.5348 19.2369C13.527 19.2606 13.5248 19.2859 13.5284 19.3106C13.532 19.3354 13.5414 19.3589 13.5558 19.3794L13.7626 19.6791C13.7865 19.7116 13.8209 19.7349 13.86 19.745C13.8051 19.8607 13.7954 19.9928 13.833 20.1152C13.833 20.1317 13.8435 20.1422 13.8495 20.1587C13.8598 20.1852 13.8723 20.2107 13.8869 20.2351C13.9139 20.2786 13.9409 20.3115 13.9679 20.349C14.0445 20.443 14.1034 20.5501 14.1417 20.6652C14.1757 20.7685 14.1884 20.8776 14.1792 20.9859V21.0518C14.1756 21.1141 14.1833 21.1766 14.2017 21.2362C14.241 21.3534 14.322 21.4521 14.4294 21.5134C14.4162 21.5368 14.4085 21.563 14.407 21.5898V21.9495C14.4082 21.9747 14.4147 21.9992 14.4261 22.0217C14.4375 22.0442 14.4534 22.064 14.4729 22.0799C14.4931 22.0942 14.5163 22.1036 14.5407 22.1075C14.5652 22.1114 14.5901 22.1096 14.6138 22.1024L14.9615 21.999C14.9909 21.9875 15.0172 21.9689 15.0379 21.945C15.0902 21.9934 15.152 22.0305 15.2193 22.054C15.2865 22.0774 15.358 22.0868 15.429 22.0814C15.4582 22.0802 15.4873 22.0767 15.5159 22.0709C15.5654 22.0604 15.6089 22.0439 15.6523 22.0334C15.7675 21.9908 15.8892 21.9684 16.012 21.9675C16.1216 21.9685 16.2301 21.9888 16.3327 22.0274C16.3552 22.0274 16.3702 22.0439 16.3926 22.0499C16.4515 22.0727 16.5139 22.0853 16.577 22.0874C16.7068 22.0874 16.8315 22.0369 16.9247 21.9465C16.9443 21.969 16.9683 21.9873 16.9951 22.0005L17.3383 22.1099C17.3619 22.1171 17.3869 22.1189 17.4113 22.115C17.4357 22.1111 17.4589 22.1016 17.4791 22.0874C17.4995 22.0736 17.5161 22.0551 17.5276 22.0334C17.5391 22.0117 17.5451 21.9875 17.5451 21.963L17.5556 21.6033C17.5532 21.5752 17.5455 21.5478 17.5331 21.5224C17.6405 21.4611 17.7216 21.3624 17.7609 21.2452C17.7669 21.2314 17.7705 21.2167 17.7714 21.2017L17.7984 21.0953C17.801 21.0484 17.801 21.0013 17.7984 20.9544C17.7933 20.8326 17.81 20.7107 17.8478 20.5948C17.8814 20.4911 17.9349 20.3949 18.0052 20.3115C18.0193 20.2964 18.0319 20.2798 18.0426 20.2621C18.1063 20.188 18.1462 20.0964 18.1569 19.9994C18.1676 19.9023 18.1486 19.8042 18.1026 19.7181C18.1338 19.71 18.161 19.6908 18.179 19.6641L18.3858 19.3644C18.404 19.3464 18.4167 19.3236 18.4225 19.2987C18.4283 19.2738 18.4271 19.2477 18.4188 19.2235L18.4203 19.237Z" fill="#00285D"/>
<path d="M15.7872 20.0088C15.7879 19.9558 15.8094 19.9052 15.8468 19.8677C15.8843 19.8302 15.935 19.8088 15.988 19.808C16.0412 19.808 16.0923 19.8291 16.13 19.8668C16.1676 19.9045 16.1888 19.9555 16.1888 20.0088C16.188 20.0618 16.1666 20.1125 16.1291 20.1499C16.0916 20.1874 16.041 20.2088 15.988 20.2096C15.9347 20.2096 15.8836 20.1885 15.846 20.1508C15.8083 20.1131 15.7872 20.0621 15.7872 20.0088Z" fill="#FFC758"/>
<path d="M15.9895 18.2959C15.9749 18.2363 15.9485 18.1801 15.912 18.1307C15.8754 18.0813 15.8295 18.0397 15.7767 18.0082L15.9895 17.7369L16.1904 18.0082C16.0921 18.0779 16.0211 18.1796 15.9895 18.2959ZM14.3635 19.4873C14.2609 19.4232 14.184 19.3251 14.1462 19.2101L13.8255 19.3195L14.0219 19.6027C14.0687 19.562 14.1231 19.5309 14.182 19.5114C14.2409 19.4918 14.3031 19.4842 14.365 19.4888M14.996 21.3651C14.8999 21.4412 14.7813 21.4834 14.6588 21.485V21.8222L14.99 21.7248C14.9435 21.6094 14.9435 21.4805 14.99 21.3651M16.9816 21.3651C17.0257 21.4783 17.0294 21.6032 16.9921 21.7188L17.3128 21.8222L17.3233 21.479C17.1994 21.4806 17.0785 21.4404 16.9801 21.3651M17.5946 19.4828C17.7168 19.4747 17.838 19.5091 17.9378 19.5802L18.1341 19.3075L17.8074 19.1936C17.7928 19.2533 17.7664 19.3095 17.7299 19.3589C17.6934 19.4083 17.6474 19.4499 17.5946 19.4813M15.5714 21.3696C15.4994 21.3692 15.4304 21.3403 15.3795 21.2892C15.3287 21.2381 15.3002 21.1689 15.3002 21.0968C15.3007 21.0928 15.3 21.0887 15.2981 21.0851C15.2962 21.0816 15.2932 21.0786 15.2896 21.0768C15.286 21.075 15.2818 21.0744 15.2778 21.075C15.2738 21.0756 15.2701 21.0775 15.2672 21.0804C15.1698 21.1751 15.1066 21.2995 15.0874 21.434C15.0866 21.4793 15.0949 21.5243 15.1118 21.5663C15.1288 21.6083 15.154 21.6465 15.1861 21.6785C15.2181 21.7105 15.2563 21.7358 15.2983 21.7528C15.3403 21.7697 15.3853 21.778 15.4306 21.7772H15.468C15.4879 21.7797 15.5081 21.7797 15.528 21.7772C15.6812 21.7199 15.8425 21.687 16.006 21.6798C16.1404 21.6811 16.2733 21.7086 16.3972 21.7607C16.4383 21.7785 16.4827 21.7877 16.5276 21.7877C16.5728 21.7885 16.6178 21.7802 16.6598 21.7632C16.7018 21.7463 16.74 21.721 16.772 21.689C16.8041 21.657 16.8293 21.6188 16.8463 21.5768C16.8632 21.5348 16.8715 21.4898 16.8707 21.4445C16.854 21.3092 16.7904 21.1841 16.6909 21.0908C16.6804 21.0804 16.6639 21.0909 16.6639 21.1073C16.6631 21.1794 16.6342 21.2484 16.5832 21.2993C16.5322 21.3503 16.4633 21.3793 16.3912 21.3801C16.2773 21.3801 16.1304 21.2827 15.988 21.2827C15.8457 21.2827 15.6883 21.3756 15.5684 21.3756L15.5714 21.3696ZM15.3916 20.9949C15.392 21.0552 15.4161 21.1129 15.4587 21.1556C15.5014 21.1982 15.5591 21.2223 15.6194 21.2227C15.6338 21.2251 15.6485 21.2251 15.6628 21.2227C15.6628 21.2227 15.6733 21.2227 15.6793 21.2227H15.7003C15.792 21.1863 15.8894 21.166 15.988 21.1628C16.0854 21.1651 16.1814 21.1854 16.2713 21.2227C16.297 21.2333 16.3244 21.2389 16.3522 21.2392C16.4125 21.2388 16.4702 21.2147 16.5129 21.1721C16.5555 21.1294 16.5796 21.0717 16.58 21.0114C16.5811 20.979 16.5733 20.9469 16.5575 20.9185L16.541 20.8855C16.541 20.8855 16.1544 20.364 16.1439 20.3475C16.1364 20.3396 16.1265 20.3343 16.1157 20.3324C16.1049 20.3305 16.0937 20.3321 16.084 20.337C16.0523 20.3465 16.0196 20.352 15.9865 20.3535C15.9534 20.3538 15.9204 20.3482 15.8891 20.337C15.8622 20.3266 15.8457 20.3206 15.8292 20.3475C15.8127 20.3745 15.5295 20.7447 15.4485 20.8646C15.4178 20.9053 15.4006 20.9545 15.3991 21.0054L15.3916 20.9949ZM17.1705 20.8211C17.1596 20.8552 17.1421 20.8868 17.1189 20.9141C17.0956 20.9414 17.0672 20.9638 17.0353 20.98C17.0034 20.9961 16.9685 21.0058 16.9328 21.0084C16.8971 21.0109 16.8612 21.0064 16.8273 20.9949C16.8048 20.9949 16.7943 20.9949 16.8048 21.0174C16.8668 21.138 16.9662 21.2353 17.088 21.2947C17.1745 21.3232 17.2687 21.3163 17.3501 21.2756C17.4316 21.2349 17.4936 21.1636 17.5226 21.0774C17.5226 21.0669 17.5226 21.0549 17.5331 21.0444C17.5397 21.0271 17.5432 21.0089 17.5436 20.9904C17.5358 20.8272 17.554 20.6639 17.5976 20.5064C17.6436 20.3796 17.7115 20.2619 17.7984 20.1587C17.8266 20.1247 17.8489 20.0862 17.8643 20.0448C17.8789 20.0019 17.8846 19.9566 17.8812 19.9114C17.8778 19.8663 17.8653 19.8223 17.8444 19.7821C17.8235 19.742 17.7948 19.7064 17.7598 19.6776C17.7249 19.6489 17.6845 19.6275 17.641 19.6147C17.5057 19.5903 17.366 19.6114 17.2439 19.6747C17.2274 19.6747 17.2334 19.6971 17.2439 19.7016C17.313 19.7237 17.3706 19.7721 17.4042 19.8363C17.4379 19.9006 17.4449 19.9755 17.4237 20.0448C17.3863 20.1542 17.2499 20.2621 17.2064 20.3985C17.163 20.5349 17.1959 20.7192 17.163 20.8226L17.1705 20.8211ZM16.7508 20.881C16.7796 20.8901 16.8098 20.8934 16.8398 20.8908C16.8698 20.8882 16.899 20.8797 16.9258 20.8657C16.9525 20.8518 16.9762 20.8328 16.9956 20.8097C17.0149 20.7866 17.0295 20.7599 17.0386 20.7312C17.0452 20.7177 17.0488 20.7028 17.0491 20.6877V20.6607C17.0404 20.56 17.0495 20.4586 17.076 20.361C17.1096 20.2688 17.1605 20.1839 17.2259 20.1108C17.2415 20.089 17.2541 20.0654 17.2634 20.0403C17.2809 19.9823 17.275 19.9197 17.247 19.866C17.219 19.8122 17.1711 19.7715 17.1135 19.7526C17.0833 19.744 17.0519 19.7404 17.0206 19.7421C17.0101 19.7421 16.9936 19.7421 16.9831 19.7421C16.9726 19.7421 16.3627 19.9429 16.3417 19.9489C16.3321 19.9538 16.3242 19.9618 16.3194 19.9715C16.3145 19.9812 16.3129 19.9922 16.3147 20.0029C16.313 20.0355 16.3096 20.068 16.3043 20.1003C16.2943 20.1307 16.2774 20.1584 16.2548 20.1812C16.2383 20.2037 16.2218 20.2187 16.2443 20.2411C16.2668 20.2636 16.532 20.6383 16.625 20.7582C16.6488 20.8148 16.6932 20.8604 16.7493 20.8855L16.7508 20.881ZM17.1255 19.1396C17.1552 19.1601 17.1805 19.1863 17.1997 19.2168C17.219 19.2473 17.2318 19.2814 17.2374 19.3171C17.243 19.3527 17.2413 19.3891 17.2324 19.424C17.2234 19.459 17.2075 19.4917 17.1854 19.5203C17.1749 19.5368 17.1854 19.5533 17.2019 19.5473C17.3378 19.5292 17.463 19.464 17.5556 19.3629C17.5821 19.3266 17.6011 19.2853 17.6115 19.2416C17.622 19.1978 17.6238 19.1525 17.6167 19.108C17.6096 19.0636 17.5938 19.021 17.5702 18.9828C17.5466 18.9445 17.5157 18.9112 17.4792 18.8849C17.4669 18.8794 17.4558 18.8718 17.4462 18.8624C17.4304 18.8522 17.4139 18.8432 17.3968 18.8354C17.237 18.7934 17.0851 18.7255 16.9472 18.6346C16.8394 18.5515 16.747 18.45 16.6744 18.3349C16.6549 18.3016 16.6296 18.2721 16.5995 18.248C16.5256 18.1957 16.4342 18.1744 16.3449 18.1887C16.2555 18.203 16.1753 18.2517 16.1214 18.3244C16.0543 18.443 16.0309 18.5815 16.0555 18.7155C16.0555 18.732 16.072 18.732 16.0825 18.7155C16.1255 18.6578 16.1894 18.6192 16.2606 18.608C16.3317 18.5968 16.4044 18.6139 16.4631 18.6556C16.556 18.7215 16.613 18.8834 16.7344 18.9718C16.8558 19.0602 17.0446 19.0752 17.1375 19.1411L17.1255 19.1396ZM17.0491 19.5518C17.0674 19.5281 17.0807 19.5009 17.0881 19.4719C17.0956 19.4428 17.097 19.4126 17.0924 19.383C17.0878 19.3534 17.0772 19.3251 17.0612 19.2997C17.0453 19.2744 17.0243 19.2525 16.9996 19.2356C16.9892 19.2251 16.9763 19.2173 16.9621 19.2131C16.9621 19.2131 16.9517 19.2131 16.9457 19.2131C16.9397 19.2131 16.9457 19.2131 16.9352 19.2131C16.8375 19.1906 16.745 19.1499 16.6624 19.0932C16.5849 19.0344 16.5184 18.9624 16.4661 18.8804C16.4511 18.8579 16.4329 18.8378 16.4122 18.8204C16.3628 18.7852 16.3017 18.7706 16.2417 18.7799C16.1818 18.7891 16.1279 18.8214 16.0914 18.8699C16.0714 18.895 16.0584 18.925 16.054 18.9568C16.0514 18.9692 16.0514 18.9819 16.054 18.9943C16.054 18.9943 16.054 19.6417 16.054 19.6627C16.054 19.6836 16.081 19.7001 16.0974 19.7061C16.1289 19.715 16.1584 19.7298 16.1844 19.7496C16.2118 19.7673 16.2344 19.7915 16.2503 19.82C16.2608 19.8425 16.2773 19.8575 16.3043 19.847C16.3312 19.8365 16.7718 19.6971 16.9187 19.6507C16.9711 19.6347 17.0169 19.6021 17.0491 19.5578V19.5518ZM15.504 18.6646C15.5627 18.6229 15.6354 18.6058 15.7065 18.617C15.7777 18.6282 15.8416 18.6668 15.8846 18.7245C15.8951 18.741 15.9176 18.735 15.9176 18.7245C15.9368 18.5905 15.9137 18.4538 15.8517 18.3334C15.7978 18.2607 15.7176 18.212 15.6282 18.1977C15.5389 18.1834 15.4475 18.2047 15.3736 18.257C15.3636 18.2631 15.3545 18.2706 15.3466 18.2794C15.3361 18.2899 15.3197 18.3019 15.3032 18.3169C15.2136 18.4544 15.1016 18.5759 14.972 18.6766C14.86 18.7538 14.7344 18.8093 14.6018 18.8399C14.5469 18.8527 14.4961 18.879 14.4538 18.9163C14.4116 18.9536 14.3793 19.0008 14.3598 19.0537C14.3403 19.1066 14.3343 19.1636 14.3423 19.2194C14.3503 19.2752 14.372 19.3281 14.4055 19.3734C14.5012 19.4704 14.6249 19.5349 14.7592 19.5578C14.7757 19.5578 14.7817 19.5473 14.7697 19.5308C14.728 19.4721 14.7109 19.3994 14.7221 19.3283C14.7333 19.2571 14.7719 19.1932 14.8296 19.1501C14.9225 19.0842 15.0964 19.0797 15.2163 18.9928C15.3361 18.9059 15.4126 18.7365 15.504 18.6721V18.6646ZM15.8742 18.8609C15.8565 18.8364 15.8341 18.8157 15.8084 18.7999C15.7826 18.7842 15.754 18.7737 15.7241 18.7691C15.6943 18.7645 15.6638 18.7658 15.6345 18.7731C15.6052 18.7804 15.5777 18.7934 15.5534 18.8114C15.5412 18.8188 15.5301 18.8279 15.5205 18.8384C15.5205 18.8384 15.5205 18.8489 15.51 18.8549C15.4592 18.9393 15.3925 19.0131 15.3137 19.0722C15.2314 19.1255 15.1414 19.1659 15.0469 19.1921C15.0196 19.1984 14.9937 19.2095 14.9705 19.2251C14.946 19.2422 14.9252 19.2641 14.9093 19.2894C14.8935 19.3148 14.883 19.3431 14.8783 19.3726C14.8737 19.4022 14.8751 19.4323 14.8825 19.4613C14.8898 19.4903 14.9029 19.5175 14.921 19.5413C14.9403 19.5674 14.9642 19.5897 14.9915 19.6072L15.0244 19.6237L15.6658 19.8305C15.6988 19.841 15.7093 19.814 15.7198 19.8035C15.7402 19.7786 15.7622 19.7551 15.7857 19.7331C15.8136 19.7165 15.8426 19.7019 15.8726 19.6896C15.8996 19.6896 15.9221 19.6792 15.9161 19.6462V19.0093C15.9213 18.9565 15.9081 18.9035 15.8786 18.8594L15.8742 18.8609ZM14.5524 20.0463C14.5301 19.9777 14.5359 19.9032 14.5685 19.8389C14.6011 19.7745 14.6578 19.7258 14.7262 19.7031C14.7487 19.7031 14.7487 19.6762 14.7262 19.6702C14.6041 19.6069 14.4644 19.5858 14.3291 19.6102C14.2855 19.6235 14.245 19.6456 14.2102 19.675C14.1754 19.7045 14.147 19.7407 14.1267 19.7815C14.1063 19.8224 14.0945 19.8669 14.092 19.9124C14.0894 19.9579 14.0961 20.0035 14.1118 20.0463C14.1118 20.0568 14.1118 20.0688 14.1223 20.0793C14.1274 20.0967 14.135 20.1134 14.1447 20.1287C14.2472 20.2569 14.3296 20.3999 14.389 20.5528C14.4294 20.6811 14.4442 20.816 14.4325 20.95C14.4272 20.9941 14.4329 21.0389 14.449 21.0804C14.4628 21.1234 14.4852 21.1633 14.5146 21.1976C14.5441 21.232 14.5801 21.2601 14.6206 21.2803C14.6611 21.3005 14.7052 21.3125 14.7503 21.3155C14.7955 21.3185 14.8408 21.3124 14.8836 21.2977C15.0076 21.2414 15.1079 21.1432 15.1668 21.0204C15.1773 21.0099 15.1668 20.9979 15.1443 21.0039C15.1104 21.0154 15.0745 21.0199 15.0388 21.0174C15.0031 21.0148 14.9682 21.0051 14.9363 20.9889C14.9044 20.9728 14.8759 20.9504 14.8527 20.9231C14.8295 20.8958 14.812 20.8642 14.8011 20.8301C14.7637 20.7207 14.8116 20.5528 14.7682 20.4165C14.7247 20.2801 14.5883 20.1602 14.5509 20.0523L14.5524 20.0463ZM14.8521 19.7586C14.8233 19.7676 14.7967 19.7822 14.7736 19.8016C14.7505 19.8209 14.7314 19.8447 14.7175 19.8714C14.7036 19.8981 14.6951 19.9273 14.6925 19.9573C14.6898 19.9873 14.6932 20.0176 14.7022 20.0463C14.7062 20.0613 14.7117 20.0759 14.7187 20.0898C14.7187 20.0898 14.7187 20.1003 14.7292 20.1063C14.7953 20.1811 14.8462 20.2682 14.8791 20.3625C14.9063 20.4559 14.9174 20.5532 14.912 20.6503C14.9102 20.6777 14.9138 20.7051 14.9225 20.7312C14.9316 20.7599 14.9462 20.7866 14.9655 20.8097C14.9849 20.8328 15.0086 20.8518 15.0353 20.8657C15.0621 20.8797 15.0913 20.8882 15.1213 20.8908C15.1513 20.8934 15.1815 20.8901 15.2103 20.881C15.2407 20.8711 15.2684 20.8542 15.2912 20.8316C15.3026 20.8255 15.312 20.8161 15.3182 20.8046C15.3182 20.8046 15.6988 20.2831 15.7093 20.2606C15.7198 20.2381 15.7093 20.2172 15.6988 20.2007C15.6789 20.1738 15.6623 20.1446 15.6494 20.1138C15.6379 20.0826 15.6343 20.0492 15.6389 20.0163C15.6389 19.9894 15.6389 19.9669 15.6119 19.9624C15.5849 19.9579 15.1443 19.8125 14.9975 19.7661C14.948 19.7437 14.8921 19.74 14.8401 19.7556L14.8521 19.7586Z" fill="#ED3024"/>
<path d="M17.9047 12.9863L19.3029 12.5022C19.2348 12.8425 19.2057 13.1894 19.216 13.5362C19.2523 13.906 19.3834 14.2601 19.5967 14.5643L17.8717 15.1638L17.9047 12.9863Z" fill="#FFC758"/>
<path d="M19.5967 14.5688C19.4084 14.2819 19.2856 13.957 19.2371 13.6172C19.2081 13.2443 19.2302 12.8691 19.303 12.5022C19.1423 13.1401 18.8267 13.7284 18.3843 14.2152C18.195 14.4128 18.0535 14.6512 17.9707 14.912L17.9437 11.6151C17.9437 11.6151 17.6125 11.7349 17.5796 11.7394C17.5662 11.742 17.5538 11.7479 17.5433 11.7565C17.5328 11.7651 17.5247 11.7763 17.5196 11.7889C17.5196 11.8114 17.5032 11.8219 17.4822 11.8264C17.4612 11.8309 17.2649 11.9028 17.1285 11.9463C17.106 11.9567 17.112 11.9792 17.1285 11.9792C17.2859 11.9792 17.5151 11.9567 17.5361 11.9522C17.5481 11.9517 17.5595 11.9471 17.5685 11.9392C17.5775 11.9313 17.5835 11.9206 17.5856 11.9088C17.5877 11.8962 17.5944 11.8849 17.6044 11.8769C17.6143 11.8689 17.6268 11.8648 17.6395 11.8653C17.656 11.8653 17.7804 11.8488 17.8568 11.8428L17.8239 15.3946H17.9812V15.1383L19.5967 14.5688Z" fill="#D4A11E"/>
<path d="M13.3834 15.2507C13.2134 15.1087 13.0966 14.9132 13.0522 14.6962C13.0284 14.5958 13.0262 14.4915 13.0459 14.3902C13.0655 14.2889 13.1065 14.193 13.1661 14.1088L14.864 13.5273C14.8044 13.7629 14.8044 14.0096 14.864 14.2451C14.9385 14.5381 15.0699 14.8136 15.2507 15.0559C14.8462 14.9882 14.4346 14.9736 14.0263 15.0124C13.4493 15.0934 13.3894 15.2522 13.3894 15.2522L13.3834 15.2507ZM11.4352 14.8266C11.6316 14.3739 11.914 13.9637 12.2669 13.6187C12.49 13.3703 12.7529 13.1606 13.0447 12.9983C12.849 13.3142 12.7177 13.6656 12.658 14.0323C12.6174 14.3307 12.6174 14.6332 12.658 14.9315C12.658 14.9315 12.3418 14.8656 11.9732 14.8281C11.7923 14.8101 11.6101 14.8101 11.4292 14.8281L11.4352 14.8266Z" fill="#FFC758"/>
<path d="M13.0402 13.0027C12.848 13.3197 12.7188 13.6708 12.6595 14.0368C12.6189 14.3351 12.6189 14.6376 12.6595 14.936C12.6595 14.936 12.5786 14.9195 12.3988 14.876C11.642 14.7112 13.0402 13.0027 13.0402 13.0027ZM14.0353 13.4703L14.0188 11.9417C13.9813 11.9522 13.6876 12.0556 13.6546 12.0661C13.6413 12.0686 13.6288 12.0745 13.6183 12.0831C13.6079 12.0918 13.5997 12.1029 13.5947 12.1155C13.5947 12.138 13.5782 12.1485 13.5512 12.153C13.5243 12.1575 13.3339 12.2294 13.1975 12.2729C13.1751 12.2834 13.1811 12.3059 13.1975 12.3059C13.3549 12.2954 13.5782 12.2789 13.6052 12.2789C13.6322 12.2789 13.6546 12.2564 13.6546 12.2354C13.6568 12.2229 13.6635 12.2115 13.6734 12.2035C13.6833 12.1955 13.6958 12.1914 13.7086 12.192C13.7251 12.192 13.845 12.1755 13.9214 12.1695L13.9109 13.4748H14.0353V13.4703ZM16.015 12.0946H16.1349V10.6259L15.7707 10.7503C15.7272 10.7608 15.7107 10.7878 15.7107 10.7998C15.7107 10.8117 15.6943 10.8327 15.6733 10.8372C15.6523 10.8417 15.456 10.9136 15.3196 10.9571C15.2926 10.9676 15.3031 10.9901 15.3196 10.9901C15.477 10.9901 15.7062 10.9631 15.7272 10.9631C15.7392 10.9626 15.7506 10.958 15.7596 10.9501C15.7686 10.9422 15.7746 10.9314 15.7767 10.9196C15.7789 10.9071 15.7855 10.8957 15.7955 10.8877C15.8054 10.8797 15.8179 10.8756 15.8306 10.8762C15.8471 10.8762 15.961 10.8597 16.0374 10.8537L16.015 12.0991V12.0946Z" fill="#D4A11E"/>
<path d="M15.7168 10.9676C15.7287 10.9671 15.7402 10.9625 15.7492 10.9546C15.7582 10.9467 15.7642 10.9359 15.7662 10.9241C15.7685 10.9158 15.7727 10.9081 15.7784 10.9016C15.7841 10.8951 15.7912 10.89 15.7992 10.8867L15.7557 10.7563C15.7431 10.7588 15.7313 10.7647 15.7218 10.7735C15.7123 10.7822 15.7054 10.7933 15.7018 10.8057C15.7018 10.8217 15.6908 10.8327 15.6688 10.8387L15.7168 10.9676ZM13.6022 12.2849C13.6142 12.2844 13.6256 12.2798 13.6346 12.2719C13.6436 12.264 13.6496 12.2532 13.6517 12.2414C13.654 12.2331 13.6581 12.2254 13.6638 12.2189C13.6695 12.2124 13.6767 12.2073 13.6846 12.204L13.6412 12.0736C13.6285 12.0761 13.6168 12.082 13.6073 12.0907C13.5978 12.0995 13.5908 12.1106 13.5872 12.123C13.5872 12.139 13.5762 12.15 13.5543 12.156L13.6022 12.2849ZM17.5226 11.9537C17.5346 11.9532 17.546 11.9486 17.555 11.9407C17.564 11.9328 17.57 11.922 17.5721 11.9102C17.5744 11.9019 17.5785 11.8942 17.5842 11.8877C17.5899 11.8812 17.5971 11.8761 17.605 11.8728L17.5616 11.7424C17.5489 11.7449 17.5372 11.7508 17.5277 11.7595C17.5182 11.7683 17.5112 11.7794 17.5076 11.7918C17.5076 11.8083 17.4971 11.8188 17.4747 11.8293L17.5181 11.9597L17.5226 11.9537Z" fill="#FFC758"/>
<path d="M15.2507 15.0649C15.0831 14.8119 14.9548 14.535 14.87 14.2436C14.8158 14.0089 14.8158 13.765 14.87 13.5303C14.87 13.5303 14.6857 14.1552 14.2556 14.4939C13.9558 14.7337 13.2215 14.9435 13.3909 15.2552C13.4133 15.2117 13.4883 15.1353 13.794 15.0649C13.8314 15.0548 13.8695 15.0473 13.9079 15.0424V15.5504H14.0518V15.0229C14.4517 14.9934 14.8537 15.0075 15.2507 15.0649Z" fill="#D4A11E"/>
<path d="M13.2096 14.0143C13.2096 14.0143 13.0133 13.8944 13.0358 13.5078C13.0372 13.2925 13.1183 13.0853 13.2635 12.9263L14.5853 12.4767C14.5227 12.6343 14.5132 12.8079 14.5584 12.9713C14.6055 13.1872 14.7155 13.3844 14.8746 13.5378C14.4463 13.552 14.0219 13.6236 13.6127 13.7506C13.4526 13.7925 13.3108 13.8863 13.2096 14.0173V14.0143Z" fill="#FFC758"/>
<path d="M13.9934 13.1766C14.2302 12.9758 14.4291 12.7342 14.5808 12.4633C14.5499 12.6208 14.5463 12.7825 14.5703 12.9413C14.6069 13.1635 14.7116 13.3688 14.8701 13.5288C14.4914 13.5447 14.1156 13.6015 13.7491 13.6981C13.3684 13.8075 13.2426 13.9589 13.2111 14.0083C13.0837 13.7266 13.6022 13.4973 13.9934 13.1766Z" fill="#D4A11E"/>
<path d="M15.4995 15.3586C15.2632 15.1574 15.1043 14.8803 15.0499 14.5748C15.0318 14.4511 15.0404 14.3249 15.075 14.2047C15.1097 14.0845 15.1696 13.9731 15.2507 13.878L17.3173 13.1646C17.2503 13.4602 17.2467 13.7667 17.3068 14.0638C17.4267 14.5583 17.8778 15.1683 17.8778 15.1683C17.3572 15.0275 16.8164 14.9768 16.2788 15.0184C15.5654 15.1113 15.501 15.3661 15.501 15.3661L15.4995 15.3586ZM15.0754 12.0841C15.0742 11.8716 15.1516 11.6661 15.2927 11.5071L16.7778 10.9901C16.7064 11.1597 16.6864 11.3466 16.7202 11.5275C16.754 11.7084 16.8403 11.8753 16.9681 12.0077C16.5366 12.0009 16.1073 12.0709 15.7003 12.2145C15.3197 12.3449 15.2807 12.5307 15.2807 12.5307C15.2807 12.5307 15.0964 12.4708 15.0739 12.0811L15.0754 12.0841Z" fill="#FFC758"/>
<path d="M16.2503 11.681C16.4547 11.4754 16.6302 11.243 16.7718 10.9901C16.7004 11.1597 16.6804 11.3466 16.7142 11.5275C16.748 11.7084 16.8343 11.8753 16.9621 12.0077C16.5424 12.0136 16.126 12.0833 15.7273 12.2145C15.4665 12.3074 15.3032 12.4483 15.2777 12.5307C15.1848 12.231 15.8771 12.0092 16.2458 11.6825L16.2503 11.681Z" fill="#D4A11E"/>
<path d="M15.2867 13.791C15.1455 13.6102 15.0568 13.394 15.0304 13.1661C14.987 12.769 15.2267 12.6056 15.2432 12.5996L16.9562 12.0002C16.9221 12.1562 16.9221 12.3177 16.9562 12.4737C17.0192 12.7201 17.128 12.9524 17.2769 13.1586C17.2769 13.1586 16.3627 13.1811 15.7977 13.4029C15.5944 13.4759 15.4179 13.6086 15.2912 13.7835L15.2867 13.791Z" fill="#FFC758"/>
<path d="M16.4241 12.802C16.6615 12.5815 16.8454 12.3099 16.9621 12.0077C16.9347 12.1679 16.9347 12.3316 16.9621 12.4917C17.0294 12.7416 17.1478 12.9748 17.3098 13.1766C16.8442 13.186 16.3818 13.2555 15.9341 13.3834C15.6836 13.4576 15.4592 13.6009 15.2867 13.797C15.2117 13.4763 16.054 13.1167 16.4241 12.802Z" fill="#D4A11E"/>
<path d="M17.9093 15.1953C17.9093 15.1953 17.4417 14.5958 17.3098 14.0578C17.2493 13.7611 17.2493 13.4553 17.3098 13.1586C17.1896 13.6176 16.949 14.0361 16.613 14.371C16.1784 14.7741 15.3122 14.9705 15.498 15.3496C15.531 15.2837 15.6284 15.1428 15.9821 15.0499V15.5399H16.1454V15.0184C16.9127 14.9045 17.9138 15.1818 17.9138 15.1818L17.9093 15.1953Z" fill="#D4A11E"/>
<path d="M18.6975 16.3312C18.8069 16.3087 18.9148 16.2877 19.0722 16.2443C19.0619 16.2385 19.0527 16.2309 19.0452 16.2218C18.8713 16.0255 18.9043 15.8246 19.0077 15.7212C19.3944 15.3571 19.3884 15.0963 19.3884 15.0963C18.6719 15.2325 17.9468 15.3182 17.2184 15.3526C17.1374 15.3526 16.8482 15.483 16.7688 15.483C16.5994 15.483 16.4256 15.4934 16.2473 15.4934C13.9184 15.5099 13.2665 15.3526 12.5007 15.2057C12.1193 15.1463 11.7455 15.0458 11.3857 14.906L11.3587 14.9869C11.3587 14.9869 11.9687 15.2207 12.4078 15.4365C12.5007 15.48 12.8574 16.0359 12.9847 16.2143H10.2168C10.1286 14.2787 10.2841 12.3398 10.6799 10.4431C10.6799 10.4431 12.8019 9.9935 15.9835 9.9935V9.65631C12.5996 9.65631 10.3472 10.1344 10.3472 10.1344C9.73469 12.6167 9.57779 15.1896 9.8841 17.7279C10.1014 19.4468 11.5326 22.6733 15.9655 24.1585L16.1618 23.8872L15.9655 23.6145C11.7829 22.2103 10.5705 19.3824 10.3517 17.7609C10.3022 17.4012 10.2707 17.0475 10.2423 16.6953H15.982V16.2113H13.0357C13.1016 15.9985 13.307 15.9445 13.5632 16.0105C13.8176 16.0867 14.0814 16.127 14.347 16.1304C14.9779 16.0974 14.885 15.9295 14.9464 15.934C15.5939 15.9715 15.8456 16.1304 16.4091 16.1244C16.6667 16.1281 16.9221 16.077 17.1584 15.9745C17.7893 15.9745 18.0291 16.2577 18.657 16.3117C18.6677 16.3228 18.6821 16.3297 18.6975 16.3312Z" fill="#FFC758"/>
<path d="M21.6033 10.1554C21.6033 10.1554 19.3554 9.67731 15.979 9.67731V10.0055C19.1666 10.0055 21.2781 10.4551 21.2781 10.4551C21.6738 12.3518 21.8294 14.2908 21.7412 16.2263H18.9597C18.8846 16.1537 18.8404 16.0549 18.8362 15.9505C18.832 15.8462 18.8682 15.7442 18.9373 15.6658C19.264 15.3661 19.264 15.1758 19.264 15.1758C18.6105 15.3147 17.946 15.3949 17.2783 15.4155C17.1974 15.4155 16.8542 15.5729 16.7673 15.5789C16.5979 15.5789 16.3536 15.5894 16.1678 15.5894C14.5583 15.5894 13.77 15.5564 12.3763 15.2582L12.4422 15.3391C12.4422 15.3496 13.0522 15.5084 13.0627 15.5189C13.1583 15.6417 13.2815 15.7403 13.4223 15.8067C13.681 15.9407 13.9637 16.0222 14.2541 16.0465C14.885 16.0839 14.7651 15.8501 14.825 15.8501C15.4725 15.8396 15.8861 16.0734 16.4511 16.0629C16.9681 16.0524 16.9846 15.8936 17.0325 15.8891C17.5435 15.8621 18.0606 16.0854 18.5072 16.2263H15.9595V16.7103H21.6947C21.6678 17.058 21.6348 17.4177 21.5853 17.7759C21.3725 19.3974 20.1496 22.2253 15.9655 23.6295V24.1735C20.4104 22.6824 21.8356 19.4618 22.0529 17.7429C22.3623 15.2033 22.21 12.6288 21.6033 10.1434V10.1554Z" fill="#D4A11E"/>
<path d="M5.59805 11.642L5.83184 11.2014L6.88087 11.125L6.34736 10.2168L6.58115 9.77622L8.44993 10.7548L8.23713 11.1624L7.01875 10.521L7.54027 11.4622V11.4727L6.47475 11.5821L7.68713 12.219L7.47433 12.6221L5.59805 11.642ZM7.73659 8.32855L8.03631 8.01833L10.2018 8.8186L9.87063 9.17228L9.39257 8.98794L8.78263 9.63535L8.99543 10.0984L8.65674 10.4401L7.73659 8.32855ZM8.97745 8.82309L8.28658 8.55634L8.58631 9.23072L8.97745 8.82309ZM9.40605 6.78947L9.77621 6.57216L11.2943 7.17161L10.6199 6.06113L11.0111 5.82735L12.1051 7.6257L11.7679 7.83251L10.2018 7.21207L10.8927 8.36002L10.506 8.5998L9.40605 6.78947ZM12.2399 6.4253C12.1976 6.28757 12.1836 6.14271 12.1986 5.99941C12.2136 5.85611 12.2574 5.71732 12.3274 5.59136C12.3974 5.46541 12.4921 5.35489 12.6058 5.26642C12.7195 5.17796 12.85 5.11337 12.9893 5.07654C13.1345 5.02676 13.2886 5.00823 13.4415 5.02218C13.5944 5.03612 13.7426 5.08223 13.8764 5.15746L13.6861 5.56509C13.5099 5.46425 13.3017 5.43527 13.1047 5.48416C13.0263 5.50947 12.9537 5.55001 12.8911 5.60345C12.8285 5.65689 12.777 5.72218 12.7397 5.79557C12.7024 5.86896 12.6799 5.949 12.6736 6.0311C12.6673 6.11319 12.6773 6.19572 12.703 6.27394C12.7218 6.35601 12.7568 6.43348 12.8061 6.50174C12.8553 6.56999 12.9178 6.62765 12.9898 6.67127C13.0618 6.71489 13.1419 6.74358 13.2252 6.75565C13.3085 6.76772 13.3934 6.76291 13.4748 6.74151C13.5752 6.71268 13.6684 6.66292 13.7482 6.59551C13.828 6.52809 13.8927 6.44455 13.9379 6.35037L14.3021 6.55718C14.2338 6.7056 14.1328 6.83663 14.0067 6.94045C13.8805 7.04427 13.7325 7.11817 13.5737 7.15663C13.4383 7.19842 13.2958 7.21256 13.1547 7.19821C13.0137 7.18386 12.877 7.14131 12.7527 7.07309C12.6284 7.00488 12.5191 6.91238 12.4313 6.8011C12.3435 6.68982 12.2789 6.56202 12.2414 6.4253H12.2399ZM14.7696 4.73336L15.2327 4.72286L15.2552 5.5546L16.1094 5.53212L16.0929 4.70039L16.556 4.6839L16.6099 6.79396L16.1424 6.80445L16.1199 5.95923L15.2657 5.98171L15.2881 6.82543L14.8251 6.83592L14.7696 4.73336ZM19.285 7.08319L19.6716 6.89886C19.7589 7.11572 19.924 7.29212 20.1347 7.39341C20.3085 7.47434 20.4449 7.45335 20.4944 7.33946C20.5438 7.23006 20.5049 7.14914 20.2216 6.91535C19.8844 6.6381 19.6836 6.41481 19.8574 6.03416C20.0208 5.68648 20.4014 5.58457 20.7926 5.7674C21.0526 5.88246 21.2645 6.0843 21.392 6.33838L21.0279 6.55568C20.9358 6.37704 20.7915 6.23067 20.6142 6.13606C20.4569 6.05963 20.337 6.0986 20.2936 6.19002C20.2336 6.3144 20.2936 6.39683 20.5933 6.63061C20.9365 6.91385 21.0878 7.15213 20.9365 7.48482C20.7626 7.86547 20.37 7.9479 19.9579 7.75158C19.6578 7.62249 19.4186 7.38329 19.2895 7.08319H19.285ZM22.3646 7.20308L21.8536 6.81644L22.1099 6.47325L23.5021 7.53428L23.2413 7.87746L22.7303 7.48632L21.7127 8.82459L21.3426 8.54136L22.3646 7.20308ZM25.6991 10.2003L26.1337 11.0605C26.2468 11.2565 26.278 11.4891 26.2206 11.7079C26.1579 11.8748 26.0334 12.0111 25.8729 12.0886C25.7476 12.159 25.6027 12.1864 25.4604 12.1666C25.318 12.1468 25.1861 12.081 25.0846 11.9792L24.644 12.7795L24.3923 12.2954L24.7954 11.5881L24.6321 11.2614L24.0326 11.5611L23.8258 11.1475L25.6991 10.2003ZM25.2045 11.4951C25.3079 11.696 25.4713 11.7559 25.6286 11.6795C25.8085 11.5926 25.8355 11.4187 25.732 11.2164L25.5252 10.8028L24.9917 11.077L25.2045 11.4966V11.4951ZM17.8763 6.14806L18.6541 6.3174L18.8714 5.94275L17.9632 5.74642L18.0561 5.32681L19.1606 5.56659L19.2475 5.15896L17.6919 4.82177L17.2423 6.88838L18.8084 7.22557L18.9013 6.82244L17.7804 6.57816L17.8763 6.14806ZM24.1375 8.1607L22.516 9.50947L23.5501 10.7443L23.8663 10.4776L23.1319 9.60238L23.4751 9.31465L23.9921 9.93507L24.4118 9.7942L23.7928 9.05838L24.1195 8.78113L24.8419 9.64584L25.1581 9.37909L24.1375 8.1607ZM12.4198 26.1442C12.4173 25.9968 12.4447 25.8504 12.5003 25.7139C12.5559 25.5773 12.6385 25.4534 12.7433 25.3497C12.848 25.2459 12.9726 25.1644 13.1097 25.1101C13.2467 25.0558 13.3934 25.0298 13.5408 25.0337C13.6974 25.0265 13.8539 25.0522 14 25.1093C14.1461 25.1663 14.2786 25.2534 14.389 25.3649L14.0892 25.7126C14.0184 25.6374 13.9333 25.577 13.8388 25.5351C13.7444 25.4931 13.6426 25.4704 13.5393 25.4683C13.4539 25.4698 13.3697 25.4884 13.2917 25.5231C13.2138 25.5578 13.1435 25.6078 13.0852 25.6701C13.0269 25.7325 12.9818 25.8059 12.9524 25.886C12.923 25.9662 12.9101 26.0514 12.9143 26.1367C12.9093 26.2224 12.9216 26.3083 12.9506 26.3891C12.9796 26.47 13.0246 26.5442 13.083 26.6072C13.1413 26.6702 13.2119 26.7207 13.2903 26.7557C13.3687 26.7908 13.4534 26.8096 13.5393 26.8111C13.6457 26.8101 13.7509 26.7874 13.8483 26.7444C13.9457 26.7013 14.0333 26.6389 14.1057 26.5608L14.4055 26.8605C14.2969 26.9868 14.1614 27.0872 14.0089 27.1541C13.8563 27.221 13.6907 27.2528 13.5243 27.2472C13.3789 27.2492 13.2346 27.2221 13.0999 27.1675C12.9652 27.1129 12.8428 27.0318 12.7399 26.9292C12.6369 26.8266 12.5556 26.7044 12.5006 26.5698C12.4457 26.4352 12.4182 26.291 12.4198 26.1457V26.1442ZM14.8625 25.0667H15.3361V27.2157H14.8625V25.0667ZM16.4346 25.5013H15.7812V25.0667H17.5601V25.5013H16.9067V27.2142H16.4346V25.5013ZM18.5836 26.366L17.7564 25.0652H18.3064L18.8174 25.9254L19.3389 25.0652H19.8769L19.0497 26.354V27.2082H18.5761V26.3645L18.5836 26.366Z" fill="#00285D"/>
</g>
</svg>
