<svg width="32" height="32" viewBox="0 0 32 32" fill="none" xmlns="http://www.w3.org/2000/svg">
<path d="M16.918 28.4932C16.8105 28.8123 16.4681 29.5946 15.6393 29.5946C14.6965 29.5946 14.3696 28.5648 14.3538 28.5214L14.3259 28.424C14.3259 28.424 15.1377 28.4921 15.585 28.4921C16.031 28.4921 16.7954 28.4476 16.9191 28.424L16.918 28.4932Z" fill="black"/>
<path d="M19.3916 27.9856L19.5851 28.0103C19.3543 28.6191 18.9399 29.3013 18.1276 29.3013C17.3354 29.3013 16.9447 28.8384 16.7811 28.5289L16.6427 28.4436C16.6427 28.4436 18.0074 28.399 19.3916 27.9856Z" fill="black"/>
<path d="M11.9155 27.9856L11.722 28.0103C11.9517 28.6191 12.368 29.3013 13.1829 29.3013C13.9706 29.3013 14.3952 28.814 14.5702 28.5289L14.6641 28.4436C14.6641 28.4436 13.3016 28.399 11.9155 27.9856Z" fill="black"/>
<path d="M16.3006 28.558C16.172 28.7438 16.0857 28.7343 15.9337 28.7343C15.8549 28.7343 15.7418 28.7982 15.7429 28.9162C15.7463 29.0091 15.8213 29.0845 15.9446 29.0845C16.2252 29.0845 16.4398 28.692 16.4967 28.5249C16.4967 28.5249 16.6611 28.518 16.709 28.5131C16.709 28.5131 16.4149 29.4009 15.6494 29.4009C14.8828 29.4009 14.5702 28.5237 14.5702 28.5237C14.5702 28.5237 15.2165 28.5633 15.5849 28.5633C15.9545 28.5633 16.1898 28.5599 16.3006 28.558Z" fill="url(#paint0_radial_371_27126)"/>
<path d="M12.0195 28.167C12.5176 28.3002 12.8736 28.4129 13.7126 28.5157C13.7126 28.5157 13.6858 28.6014 13.5033 28.5945C13.4336 28.5899 13.4241 28.5724 13.4 28.5683C13.3461 28.5584 13.268 28.6136 13.2759 28.7053C13.2842 28.77 13.3378 28.8504 13.5241 28.8504C13.7104 28.8504 13.9272 28.6973 14.0369 28.5542C14.0369 28.5542 14.1482 28.5804 14.2639 28.5861C14.2639 28.5861 13.9053 29.0917 13.2009 29.0917C12.4275 29.0917 12.1394 28.3908 12.0195 28.167Z" fill="url(#paint1_radial_371_27126)"/>
<path d="M15.5755 24.0057C18.2468 24.0057 21.2062 22.3505 23.284 19.9642C23.5102 19.7061 23.8892 19.2158 24.7916 19.2158C25.6955 19.2158 26.8969 20.0476 26.7562 21.5613C26.6514 22.6638 25.0906 25.1513 22.4182 26.6813C19.7465 28.2174 17.2853 28.546 15.5755 28.546C13.8643 28.546 11.4053 28.2174 8.73212 26.6813C6.06007 25.1513 4.49967 22.6638 4.39559 21.5613C4.25494 20.0476 5.45672 19.2158 6.35872 19.2158C7.26336 19.2158 7.64384 19.7061 7.86934 19.9642C9.94408 22.3505 12.905 24.0057 15.5755 24.0057Z" fill="#FFE500" stroke="black" stroke-width="1.29438" stroke-miterlimit="3.863"/>
<path d="M15.5529 24.3728C12.865 24.3728 9.8064 22.7716 7.55367 20.1813C7.3244 19.9182 7.03253 19.5798 6.33793 19.5798C5.93219 19.5798 5.47214 19.7991 5.16707 20.1383C4.93743 20.3903 4.67987 20.8346 4.74171 21.5156C4.83109 22.4461 6.29155 24.854 8.8946 26.3494C10.9927 27.5543 13.233 28.1631 15.5529 28.1631C17.875 28.1631 20.1153 27.5543 22.2134 26.3494C24.8157 24.854 26.2784 22.4461 26.3644 21.5156C26.4289 20.8346 26.1694 20.3903 25.9428 20.1383C25.6362 19.7991 25.175 19.5798 24.7712 19.5798C24.0736 19.5798 23.7821 19.9182 23.5549 20.1813C21.3035 22.7716 18.2411 24.3728 15.5529 24.3728Z" fill="#DA020E"/>
<path d="M27.1156 10.8645L27.125 10.2355C27.3169 10.3836 27.6778 10.3859 27.889 10.1586C27.9851 10.0551 28.0398 9.8948 28.0319 9.72996C28.0228 9.5438 27.9391 9.3504 27.8015 9.21411C27.0217 8.44471 26.3289 7.67646 26.3289 7.67646C26.2573 7.56225 26.1453 7.47964 26.0804 7.45146C25.985 7.4054 25.6457 7.24893 25.387 7.64562C25.1536 8.005 25.1882 8.51172 25.2331 8.69674L25.9643 9.70293C26.2147 10.0235 26.9202 10.7053 27.1156 10.8645Z" fill="black"/>
<path d="M11.4871 4.34264C12.4076 4.03046 13.2492 3.77235 14.3835 3.67108L14.5555 3.57362C13.9223 3.06919 13.2934 2.72504 12.667 2.72504C12.2737 2.72504 11.4735 2.99495 11.2952 4.4203L11.4871 4.34264Z" fill="black"/>
<path d="M19.6658 4.34264C18.7449 4.03046 17.904 3.77235 16.7709 3.67108L16.5966 3.57362C17.2324 3.06919 17.8599 2.72504 18.487 2.72504C18.8807 2.72504 19.6775 2.99495 19.8596 4.4203L19.6658 4.34264Z" fill="black"/>
<path d="M14.5355 3.62398C14.9985 2.72515 15.422 2.40002 15.6588 2.40002C15.9514 2.40002 16.2961 2.86981 16.5668 3.47779L16.6238 3.6156L16.3858 3.59695C16.2297 3.56725 15.7851 3.56154 15.6154 3.56154C15.4412 3.56154 15.0657 3.56155 14.8394 3.58286L14.5355 3.62398Z" fill="black"/>
<path d="M10.8842 23.8799L10.2137 25.1034C10.0112 25.4712 9.80267 25.7046 9.46066 25.5066C9.12391 25.3143 9.20197 25.0357 9.40862 24.6557L10.081 23.4306L9.53871 23.1268L8.82828 24.4216C8.43724 25.1343 8.92934 25.5763 9.31472 25.7906C9.72613 26.0205 10.3249 26.1915 10.7126 25.4841L11.4279 24.1837L10.8842 23.8799ZM19.5059 26.4007L19.2801 25.6987L19.9528 25.4794L19.8596 25.1874L19.1862 25.4078L18.9946 24.8079L19.6832 24.5798L19.5904 24.2909L18.3298 24.7047L19.0304 26.8793L20.42 26.4243L20.3284 26.1342L19.5059 26.4007ZM20.946 23.5866L20.1787 24.0331L21.3148 26.0223L22.0792 25.5761C22.8692 25.1162 22.9442 24.4195 22.6331 23.8607C22.2587 23.1975 21.6406 23.1823 20.946 23.5866ZM22.1056 24.1919C22.3933 24.7009 22.3348 25.0721 21.8918 25.3283L21.6806 25.4524L20.8465 23.9973L21.0735 23.8645C21.6056 23.5557 21.9076 23.8306 22.1056 24.1919ZM15.9669 25.124L16.0081 25.422L16.6423 25.3314L16.9165 27.2974L17.5062 27.2148L17.2328 25.25L17.8577 25.1624L17.8147 24.8601L15.9669 25.124ZM15.43 25.1426L14.8361 25.1098L14.7173 27.394L15.3116 27.426L15.43 25.1426ZM13.6267 24.8633L13.2131 26.4242L12.4389 24.5416L11.9574 24.4111L11.3706 26.621L11.8951 26.7615L12.3122 25.1877L13.0981 27.0862L13.569 27.2145L14.1535 25.0038L13.6267 24.8633Z" fill="#FFE500"/>
<path d="M10.5014 10.4416V21.1553L15.5755 24.4468L20.6492 21.1553L20.6568 10.458C20.4943 10.3133 20.1568 9.99619 19.8924 9.8302H11.2352C11.0161 9.98553 10.5772 10.3594 10.5014 10.4416Z" fill="#FFE500"/>
<mask id="mask0_371_27126" style="mask-type:luminance" maskUnits="userSpaceOnUse" x="10" y="9" width="11" height="16">
<path d="M10.5014 10.4416V21.1553L15.5755 24.4468L20.6492 21.1553L20.6568 10.458C20.4943 10.3133 20.1568 9.99619 19.8924 9.8302H11.2352C11.0161 9.98553 10.5772 10.3594 10.5014 10.4416Z" fill="white"/>
</mask>
<g mask="url(#mask0_371_27126)">
<g filter="url(#filter0_f_371_27126)">
<path d="M10.5014 6.08978L10.5014 10.4415V21.1552L15.5755 24.4467L20.6493 21.1552L20.6568 6.10615" stroke="#B54005" stroke-width="6.1697" stroke-miterlimit="3.863"/>
</g>
</g>
<path d="M17.6035 18.1283V17.7301C17.6035 17.7301 17.4987 17.5664 17.2389 17.5664C16.9798 17.5664 16.8248 17.6452 16.8248 17.7111C16.8248 17.8188 17.0567 18.1283 17.6035 18.1283ZM15.5574 14.6034L15.9496 13.912L16.2569 14.6034H16.766C16.4598 14.8935 16.3346 15.3324 16.3346 15.6252V15.9442C16.3346 16.0797 16.2671 16.304 16.2671 16.304C16.2671 16.304 16.709 16.6439 16.7769 16.703C16.8052 16.7254 16.8361 16.7391 16.8158 16.7981C16.7807 16.8975 16.4805 17.0342 16.45 17.0601C16.3821 17.121 16.3644 17.1575 16.3821 17.2177C16.4036 17.2755 16.4598 17.2862 16.5748 17.2451C16.6909 17.2074 16.9315 17.0798 17.1333 16.9927C17.3343 16.9043 17.6035 16.9268 17.6035 16.9268V16.5366H16.8433V15.2966L16.709 15.0781L17.0443 14.4751L17.3814 15.0819L17.2487 15.2966V15.9442H17.6359V15.2966L17.5024 15.0819L17.8388 14.4797L18.1737 15.0819L18.0413 15.2966V15.9442H18.4312V15.2966L18.2932 15.0819L18.6307 14.4797L18.967 15.0819L18.8328 15.2966L18.8392 16.5347H18.073V17.1073C18.2468 17.2721 18.4108 17.6452 18.4108 17.8649C18.4108 18.0898 18.2657 18.185 18.2657 18.185C18.3143 18.3617 18.3049 18.4351 18.2841 18.595C18.2657 18.7576 18.0647 19.0111 18.0647 19.0111V21.9703C18.0647 22.1714 17.6035 22.1516 17.6035 21.9799V19.0778C17.3425 18.7896 16.6321 18.5631 16.6321 18.5631C16.3715 18.8261 16.2113 19.283 16.2113 19.283C16.3244 19.3629 16.5005 19.283 16.5669 19.2053C16.6321 19.1276 16.766 19.1075 16.8433 19.1566C16.9191 19.2053 16.9379 19.224 16.9119 19.3382C16.8821 19.4585 16.8346 19.6507 16.8346 19.7851C16.8346 19.9229 16.9881 19.8921 17.1027 19.9024C17.3342 19.9229 17.3723 20.1841 17.3531 20.3299C17.3343 20.4765 17.2664 20.7875 17.2664 20.9809C17.2664 21.1724 17.2766 21.3658 17.2954 21.4754C17.3154 21.5813 17.3531 21.6981 17.3425 21.8348C17.3309 22.0187 17.2189 22.048 17.1027 21.93C16.9881 21.8139 15.3828 20.0862 15.3828 20.0862C15.2761 20.4376 15.7203 21.0369 15.8636 21.2219C16.008 21.4069 15.9986 21.5428 15.8723 21.6696C15.7486 21.7948 15.5076 21.8618 15.4605 21.9799C15.4115 22.0941 15.5755 22.4458 15.913 22.8821C16.2494 23.3176 15.5269 23.61 15.0959 23.6972C14.6618 23.7832 14.6618 23.4825 14.692 23.3176C14.7206 23.1543 14.7206 23.055 14.7101 22.9114C14.7007 22.7652 14.5679 22.5627 14.3835 22.3202C14.2014 22.0766 14.2014 21.855 14.2772 21.2904C14.3537 20.7273 14.3356 20.368 14.3356 20.368C14.3356 20.368 14.1433 20.376 13.8643 20.368C13.5867 20.3573 13.3563 20.1947 13.3367 19.5148C13.3175 18.8368 13.3017 17.2177 13.256 17.0479C13.2115 16.88 13.0317 16.8491 12.9559 16.8267C12.8771 16.8069 12.8733 16.6923 12.9495 16.6512C13.1501 16.5526 13.3907 16.304 13.3017 16.1494C13.2115 15.9945 12.8582 16.0264 12.6218 16.1433C12.3846 16.2591 12.1346 16.5134 12.0701 16.5827C12.0079 16.6512 11.9539 16.6512 11.9607 16.5773C11.9687 16.4981 11.917 16.1277 11.8864 15.9994C11.8525 15.87 11.7379 15.6252 11.699 15.5605C11.6609 15.4954 11.699 15.4702 11.7639 15.4954C11.8261 15.5213 11.9687 15.581 12.1025 15.6168C12.2375 15.6579 12.3661 15.5909 12.4276 15.4638C12.4917 15.3324 12.6169 15.0557 12.681 14.9319C12.7439 14.8097 12.8458 14.8371 12.9295 14.8558C13.0124 14.8756 13.0894 14.9274 13.1659 14.9582C13.2421 14.9902 13.3058 14.9841 13.333 14.9449C13.359 14.9076 13.3907 14.8935 13.4367 14.7968C13.4815 14.7001 13.5373 14.7462 13.5445 14.7846C13.7738 16.1764 14.3711 16.2404 14.3711 16.2404C14.2813 16.4723 14.0709 16.8419 14.0211 16.9352C13.9672 17.0224 13.9472 17.1465 13.934 17.2428C13.9239 17.3387 13.9672 18.2581 14.031 18.595C14.0958 18.9323 14.2998 18.801 14.3662 18.6978C14.4277 18.595 14.6279 18.1671 14.6279 18.1671C14.6279 18.1671 14.6773 18.0506 14.6773 17.9539C14.6773 17.8565 14.5114 17.6452 14.4733 17.5793C14.4337 17.5123 14.2938 17.384 14.2938 17.0601C14.2938 16.7372 14.5819 16.5134 14.6856 16.4285C14.7881 16.3436 14.7881 16.2259 14.7742 16.1551C14.7293 15.9054 14.4665 15.38 14.3402 15.1786C14.2108 14.978 13.9612 14.5969 13.9612 14.5969H14.4801L14.8142 13.8964L15.1777 14.6L15.5574 14.6034ZM15.4733 16.7254C15.6426 16.4429 15.7135 16.1494 15.7135 16.1494H15.2241C15.2241 16.1494 15.3025 16.4498 15.4733 16.7254ZM14.9635 15.3012C14.9831 15.4459 15.0898 15.5011 15.1709 15.4588C15.2516 15.4139 15.2376 15.2966 15.1777 15.203C15.1204 15.1112 15.0012 15.0088 14.9646 15.0241C14.9273 15.0397 14.9507 15.2159 14.9635 15.3012ZM15.9337 15.0241C15.8987 15.0088 15.7731 15.1112 15.7135 15.203C15.6562 15.2966 15.6415 15.4139 15.723 15.4588C15.8025 15.5011 15.9051 15.4447 15.9307 15.3012C15.9447 15.2159 15.9722 15.0397 15.9337 15.0241Z" fill="url(#paint2_linear_371_27126)"/>
<path d="M10.8995 13.1125V13.7574H20.261V13.1125H19.5706V13.2166H11.5898V13.1125H10.8995Z" fill="#DA020E"/>
<path d="M10.9 10.2142H20.2597V12.7839H10.9V10.2142Z" fill="#DA020E"/>
<path d="M12.5083 12.038L13.2251 12.2158L13.612 11.1274V10.8518L12.5083 12.038ZM18.4161 12.6796V12.3444H17.7396V12.0627H18.2924V10.8201H17.783L17.6088 10.4782L17.4387 10.8201H16.9277V12.0627H17.4828V12.3444H16.1521V12.0627H16.7056V10.8201H16.1954L16.0231 10.4782L15.8489 10.8201H15.3402V12.0627H15.8964V12.3444H14.5381V12.0627H15.0928V10.8201H14.5819L14.411 10.4782L14.2357 10.8201H13.7266V12.0627H14.2832V12.3444L13.2085 12.3478L12.1395 12.0958L12.3537 12.6796L18.4161 12.6796Z" fill="#FFE500"/>
<path d="M11.5403 4.24151C12.4438 3.93618 13.1267 3.69824 14.2395 3.5985C13.7266 3.23912 13.2715 2.93494 12.7481 2.93494C12.4728 2.93494 12.2375 3.04115 12.1832 3.23531C12.1327 3.41196 12.2707 3.48886 12.3197 3.47706C12.371 3.46373 12.4076 3.4485 12.3951 3.40054C12.3819 3.3499 12.4208 3.22122 12.5957 3.22122C12.7737 3.22122 12.8408 3.38759 12.8408 3.5018C12.8408 3.61601 12.6614 3.80674 12.3314 3.80674C12.0079 3.80674 11.8419 3.58898 11.8544 3.38759C11.6983 3.6183 11.6074 3.85167 11.5403 4.24151Z" fill="url(#paint3_radial_371_27126)"/>
<path d="M5.24436 9.70293L5.97817 8.69674C6.02041 8.51172 6.05397 8.00538 5.81942 7.646C5.563 7.24893 5.22513 7.40578 5.12595 7.45184C5.06336 7.48002 4.94948 7.56225 4.87934 7.67684C4.87934 7.67684 4.1738 8.46108 3.39738 9.23277C3.28764 9.34279 3.16698 9.5438 3.15679 9.72996C3.14737 9.89519 3.21336 10.0612 3.30838 10.1647C3.52068 10.3931 3.89174 10.384 4.08142 10.2355L4.09461 10.8645C4.28995 10.7057 4.99435 10.0235 5.24436 9.70293Z" fill="black"/>
<path d="M15.5755 8.23872C19.7536 8.23872 22.1308 12.198 22.6497 12.8932C23.5713 14.135 24.6995 15.1431 26.0069 14.81C27.9274 14.3139 27.8275 11.4419 27.8275 11.4419C27.364 11.105 26.5744 10.6809 25.1347 8.62056C23.7247 6.60094 20.5342 3.60901 15.5755 3.60901C10.6156 3.60901 7.42582 6.60094 6.01928 8.62056C4.57805 10.6809 3.78578 11.105 3.32687 11.4419C3.32687 11.4419 3.22317 14.3139 5.14519 14.81C6.4518 15.1431 7.5793 14.135 8.50241 12.8932C9.0194 12.198 11.3981 8.23872 15.5755 8.23872Z" fill="#FFE500" stroke="black" stroke-width="1.29438" stroke-miterlimit="3.863"/>
<path d="M15.5755 7.86259C19.6036 7.86259 21.9992 11.3121 22.8656 12.5568C24.0121 14.1019 24.9827 14.6851 25.9153 14.4457C27.263 14.0992 27.4304 12.2266 27.4485 11.6597V11.6372L27.4334 11.6254C26.9583 11.2931 26.1634 10.7422 24.8315 8.83604C24.037 7.69774 21.0207 3.98096 15.5755 3.98096C10.1322 3.98096 7.11324 7.69774 6.31909 8.83604C4.99814 10.73 4.16742 11.3076 3.72245 11.6159L3.7036 11.6315L3.70586 11.6513C3.72396 12.2193 3.89177 14.1019 5.23609 14.4457C6.16976 14.6851 7.14228 14.1019 8.2858 12.5568C9.15141 11.3121 11.5493 7.86259 15.5755 7.86259Z" fill="#DA020E"/>
<path d="M13.3872 4.98106C12.6481 5.13906 12.1613 5.68917 12.3208 6.43496C12.4136 6.83775 12.7695 7.57897 13.8955 7.33722C14.2081 7.27707 14.3771 7.15144 14.5407 6.99345L14.3356 6.75551C14.2583 6.84231 14.1429 6.9687 13.8838 7.02314C13.339 7.13926 13.015 6.69422 12.9343 6.31009C12.8144 5.74094 13.1429 5.34882 13.5139 5.26773C13.779 5.20872 13.9397 5.28144 14.0415 5.32141H14.0449L14.1139 5.02979C13.9351 4.95746 13.7206 4.90949 13.3872 4.98106ZM19.5685 8.2621C19.9912 8.51907 20.4524 8.47529 20.6681 8.11477C20.8249 7.86274 20.8264 7.65336 20.6379 7.27837C20.5892 7.17215 20.5255 7.09601 20.4829 6.99931C20.3996 6.84246 20.3226 6.71417 20.3943 6.59272C20.4735 6.461 20.6567 6.45034 20.8227 6.55275C20.9965 6.65897 21.0685 6.83447 21.1051 6.95439L21.3777 6.83561C21.294 6.60947 21.17 6.40656 20.8864 6.23715C20.4018 5.94249 20.0078 6.02015 19.8437 6.29616C19.6774 6.57369 19.7246 6.80477 19.8498 7.04157C19.8498 7.04157 19.9274 7.17596 19.9723 7.26771C20.0821 7.45273 20.2099 7.6861 20.1201 7.83191C20.0115 8.01579 19.8245 8.05576 19.6424 7.94155C19.409 7.79308 19.3543 7.62024 19.3056 7.45159L19.0058 7.58102C19.0718 7.81325 19.2268 8.05386 19.5685 8.2621ZM16.3413 4.86103L16.3244 5.79298L15.4367 5.78004L15.4499 4.84466L14.8548 4.83362L14.8153 7.12049L15.4114 7.13343L15.4303 6.08498L16.3195 6.10135L16.3025 7.1479L16.8979 7.15704L16.9368 4.87016L16.3413 4.86103ZM24.8662 12.1228C24.8703 12.1285 25.2154 12.3006 25.5989 11.953C25.9194 11.6621 25.8119 11.2635 25.4771 10.8893L24.8598 10.1968L23.1768 11.728L23.5747 12.1734L24.2447 11.5666L24.4382 11.787L24.014 12.7532L24.5219 13.1629L24.8662 12.1228ZM25.1667 10.9963C25.3243 11.1729 25.327 11.3827 25.1437 11.5457C24.9654 11.7116 24.7376 11.6736 24.5645 11.4817L24.4638 11.3679L25.0336 10.8482L25.1667 10.9963ZM22.5403 10.4121L23.104 9.93962L23.5562 10.4829L23.79 10.2861L23.3352 9.74052L23.8122 9.33507L24.2779 9.89508L24.5091 9.70054L23.6584 8.67683L21.9241 10.1471L22.8608 11.2759L23.0946 11.0798L22.5403 10.4121ZM21.8902 6.97567L21.6881 7.19953L22.1632 7.63314L20.8464 9.10798L21.2906 9.51114L22.6055 8.03592L23.0746 8.46231L23.276 8.23846L21.8902 6.97567ZM18.0126 7.12064L18.2524 6.4232L18.9195 6.65543L19.0187 6.36533L18.3505 6.13348L18.5537 5.53616L19.2411 5.7741L19.3377 5.48553L18.0854 5.05039L17.3493 7.2162L18.7294 7.69322L18.8275 7.40465L18.0126 7.12064ZM10.8407 6.0002L11.6915 7.3692L9.79733 6.65539L9.37575 6.92264L10.5768 8.86536L11.0342 8.5745L10.1778 7.19141L12.0915 7.90866L12.5048 7.64711L11.3015 5.70554L10.8407 6.0002ZM8.19131 8.06889L7.80404 8.48843L8.88968 10.6679L9.15477 10.3817L8.85989 9.80185L9.38404 9.2327L9.97833 9.48701L10.415 9.01494L8.19131 8.06889ZM9.10688 9.10668L8.71358 9.53307L8.30934 8.74883L9.10688 9.10668ZM6.91185 9.45194L6.49026 9.95866L7.278 11.6033L5.58864 11.0448L5.22513 11.4796L6.96087 12.951L7.22445 12.635L5.99778 11.5926L7.64189 12.1332L7.81498 11.9261L7.03101 10.3401L8.26296 11.3829L8.64759 10.9234L6.91185 9.45194Z" fill="#FFE500"/>
<path d="M4.26019 10.6171L4.2583 10.1127C5.1109 9.32235 5.51288 8.52821 5.51288 8.52821C5.51288 8.52821 5.19952 8.40905 5.05924 8.22898C4.98985 8.12885 4.96308 7.99218 4.97477 7.90043C5.00192 7.72836 5.13465 7.64118 5.17991 7.62138C5.27795 7.57874 5.46008 7.48204 5.66296 7.76376C5.87903 8.0687 5.82209 8.64737 5.7923 8.78061C5.7923 8.78061 5.39485 9.4792 4.26019 10.6171Z" fill="url(#paint4_radial_371_27126)"/>
<path d="M5.2036 8.62034C5.08859 8.82287 4.7986 9.31169 4.06517 10.0057C3.94336 10.1211 3.63943 10.2189 3.4671 10.0236C3.40262 9.94784 3.36001 9.84162 3.36642 9.71828C3.37472 9.57551 3.45956 9.40953 3.54478 9.33643C3.6926 9.21042 4.32272 8.56818 4.7707 8.06299C4.78314 8.15512 4.86158 8.3093 4.86158 8.3093C4.92342 8.39534 4.99884 8.51907 5.2036 8.62034Z" fill="url(#paint5_linear_371_27126)"/>
<path d="M15.5529 24.3728C12.865 24.3728 9.8064 22.7716 7.55367 20.1813C7.3244 19.9182 7.03253 19.5798 6.33793 19.5798C5.93219 19.5798 5.47214 19.7991 5.16707 20.1383C4.93743 20.3903 4.67987 20.8346 4.74171 21.5156C4.83109 22.4461 6.29155 24.854 8.8946 26.3494C10.9927 27.5543 13.233 28.1631 15.5529 28.1631" fill="url(#paint6_linear_371_27126)"/>
<path d="M15.5528 24.3728C18.2407 24.3728 21.2993 22.7716 23.552 20.1813C23.7813 19.9182 24.0731 19.5798 24.7677 19.5798C25.1735 19.5798 25.6335 19.7991 25.9386 20.1383C26.1683 20.3903 26.4258 20.8346 26.364 21.5156C26.2746 22.4461 24.8141 24.854 22.2111 26.3494C20.113 27.5543 17.8727 28.1631 15.5528 28.1631" fill="url(#paint7_linear_371_27126)"/>
<path d="M22.8656 12.557C24.0121 14.102 24.9828 14.6853 25.9153 14.4458C27.263 14.0994 27.4304 12.2267 27.4485 11.6598V11.6374L27.4335 11.6256C26.9583 11.2932 26.1634 10.7424 24.8315 8.83618" fill="url(#paint8_linear_371_27126)"/>
<path d="M8.28911 12.557C7.14257 14.102 6.17194 14.6853 5.2394 14.4458C3.89169 14.0994 3.72426 12.2267 3.70616 11.6598V11.6374L3.72124 11.6256C4.19638 11.2932 4.99128 10.7424 6.32316 8.83618" fill="url(#paint9_linear_371_27126)"/>
<path d="M19.6145 4.24151C18.711 3.93618 18.0281 3.69824 16.9153 3.5985C17.4281 3.23912 17.8833 2.93494 18.4067 2.93494C18.6819 2.93494 18.9172 3.04115 18.9715 3.23531C19.0221 3.41196 18.8841 3.48886 18.835 3.47706C18.7837 3.46373 18.7472 3.4485 18.7596 3.40054C18.7728 3.3499 18.734 3.22122 18.559 3.22122C18.381 3.22122 18.3139 3.38759 18.3139 3.5018C18.3139 3.61601 18.4934 3.80674 18.8233 3.80674C19.1469 3.80674 19.3128 3.58898 19.3004 3.38759C19.4565 3.6183 19.5473 3.85167 19.6145 4.24151Z" fill="url(#paint10_radial_371_27126)"/>
<path d="M15.6179 3.04411C15.5896 3.21848 15.3909 3.3856 15.1899 3.3856C14.9885 3.3856 14.9282 3.35287 14.9282 3.35287C14.8977 3.40083 14.8709 3.43776 14.8392 3.48954C15.0217 3.4823 15.4452 3.4705 15.6149 3.4705C15.7842 3.4705 16.2537 3.49525 16.3547 3.50248C16.1915 3.11607 15.8766 2.58118 15.659 2.58118C15.6515 2.58118 15.642 2.58044 15.6303 2.58044C15.5794 2.58044 15.4031 2.7348 15.3086 2.87034C15.1845 3.0484 15.6179 3.04411 15.6179 3.04411Z" fill="url(#paint11_radial_371_27126)"/>
<path d="M26.8946 10.6171L26.8965 10.1127C26.0439 9.32235 25.6419 8.52821 25.6419 8.52821C25.6419 8.52821 25.9553 8.40905 26.0955 8.22898C26.1649 8.12885 26.1917 7.99218 26.18 7.90043C26.1529 7.72836 26.0201 7.64118 25.9749 7.62138C25.8768 7.57874 25.6947 7.48204 25.4918 7.76376C25.2758 8.0687 25.3327 8.64737 25.3625 8.78061C25.3625 8.78061 25.7599 9.4792 26.8946 10.6171Z" fill="url(#paint12_radial_371_27126)"/>
<path d="M25.951 8.62034C26.0661 8.82287 26.356 9.31169 27.0895 10.0057C27.2113 10.1211 27.5152 10.2189 27.6875 10.0236C27.752 9.94784 27.7946 9.84162 27.7882 9.71828C27.7799 9.57551 27.6951 9.40953 27.6099 9.33643C27.462 9.21042 26.8319 8.56818 26.384 8.06299C26.3715 8.15512 26.2931 8.3093 26.2931 8.3093C26.2312 8.39534 26.1558 8.51907 25.951 8.62034Z" fill="url(#paint13_linear_371_27126)"/>
<path d="M10.5014 10.4416V21.1553L15.5755 24.4468L20.6492 21.1553L20.6568 10.458C20.4943 10.3133 20.1568 9.99619 19.8924 9.8302H11.2352C11.0161 9.98553 10.5772 10.3594 10.5014 10.4416Z" stroke="black" stroke-width="1.29438" stroke-miterlimit="3.863"/>
<path d="M19.2956 28.167C18.7975 28.3002 18.4415 28.4129 17.6025 28.5157C17.6025 28.5157 17.6293 28.6014 17.8118 28.5945C17.8815 28.5899 17.891 28.5724 17.9151 28.5683C17.969 28.5584 18.0471 28.6136 18.0392 28.7053C18.0309 28.77 17.9773 28.8504 17.791 28.8504C17.6047 28.8504 17.3879 28.6973 17.2782 28.5542C17.2782 28.5542 17.1669 28.5804 17.0512 28.5861C17.0512 28.5861 17.4098 29.0917 18.1142 29.0917C18.8876 29.0917 19.1757 28.3908 19.2956 28.167Z" fill="url(#paint14_radial_371_27126)"/>
<path d="M2.39999 17.1696C2.39999 15.8772 3.43887 14.826 4.7206 14.826C6.0027 14.826 7.04083 15.8772 7.04083 17.1696C7.04083 18.4644 6.0027 19.5132 4.7206 19.5132C3.43887 19.5132 2.39999 18.4644 2.39999 17.1696Z" fill="#FFE500" stroke="black" stroke-width="1.29438" stroke-miterlimit="3.863"/>
<path d="M2.93124 17.0825C2.93124 16.1025 3.73228 15.3056 4.72057 15.3056C5.70915 15.3056 6.50961 16.1025 6.50961 17.0825C6.50961 18.0641 5.70915 18.8593 4.72057 18.8593C3.73228 18.8593 2.93124 18.0641 2.93124 17.0825Z" fill="url(#paint15_radial_371_27126)"/>
<path d="M5.21344 18.7802C5.11162 18.813 5.0675 18.741 5.02112 18.6893C4.8405 18.4795 4.79411 17.921 4.79411 17.8471C4.79411 17.7729 4.82126 17.6914 4.87293 17.6895C5.30846 17.6812 5.61956 17.5536 5.90502 17.3142C6.1901 17.0789 6.31378 16.809 6.33905 16.761C6.36393 16.7077 6.42314 16.7172 6.43407 16.7911C6.44614 16.8528 6.46914 16.9635 6.46914 17.0835C6.46914 17.8883 5.93179 18.5457 5.21344 18.7802ZM4.75376 18.853C4.74132 18.853 4.72737 18.8545 4.71568 18.8545C4.39478 18.8545 4.04144 18.7308 3.83216 18.6105C3.61533 18.4913 3.53388 17.9294 3.53388 17.6454C3.53388 16.7207 3.90946 16.1702 3.97055 16.062C4.03013 15.9524 4.16438 15.941 4.2628 15.9676C4.36461 15.9973 4.40081 16.0152 4.51808 16.0502C4.57917 16.0704 4.70323 16.0959 4.79638 16.1127C4.88952 16.1351 4.98982 16.1549 4.92949 16.3304C4.86991 16.5063 4.66704 16.9289 4.64667 17.4299C4.62706 17.8833 4.68664 18.3337 4.78808 18.6105C4.85483 18.7894 4.85482 18.8564 4.75376 18.853ZM3.42792 16.742C3.34232 16.6963 3.23938 16.4732 3.20468 16.4081C3.1813 16.3613 3.1813 16.2273 3.21487 16.1702C3.35816 15.917 3.56141 15.6825 3.82311 15.5603C3.85516 15.5462 3.90003 15.5435 3.90003 15.6212C3.90003 15.6627 3.92228 15.7274 3.92304 15.7685C3.92304 15.81 3.94039 15.8949 3.88835 15.9619C3.83367 16.0293 3.5995 16.4485 3.53954 16.6833C3.52974 16.7359 3.5139 16.7911 3.42792 16.742ZM3.37965 18.2259C3.13681 17.9838 2.96372 17.5453 2.96372 17.0835C2.96372 16.9042 2.99012 16.7325 3.03726 16.5695C3.03726 16.5695 3.08062 16.4964 3.11833 16.5585C3.14737 16.6042 3.18734 16.6502 3.21977 16.7111C3.25597 16.772 3.44376 16.9163 3.42792 17.034C3.36231 17.4661 3.42114 18.0402 3.44149 18.1369C3.45959 18.2324 3.43358 18.2732 3.37965 18.2259ZM4.14627 15.4095C4.32614 15.3494 4.51808 15.3155 4.71568 15.3155C5.01622 15.3155 5.30809 15.3707 5.55169 15.5275C5.61428 15.5687 5.63201 15.6166 5.63201 15.6878C5.63201 15.9197 5.27302 15.9973 5.03545 15.9973C4.79638 15.9973 4.50225 15.9018 4.29409 15.8351C4.08669 15.7697 4.04144 15.6486 4.04144 15.5934C4.04144 15.5405 4.08179 15.4308 4.14627 15.4095ZM5.767 15.6673C5.79906 15.6935 5.8839 15.7628 5.8839 15.7628C6.05133 15.917 6.20254 16.0929 6.2904 16.3038C6.40014 16.5695 6.05962 16.9719 5.9597 17.0648C5.5087 17.4923 5.22626 17.4843 5.06637 17.5076C4.90649 17.5312 4.80279 17.4299 4.80693 17.3085C4.81711 16.9529 5.06788 16.34 5.1399 16.2246C5.18591 16.1504 5.26585 16.1043 5.26585 16.1043C5.43328 16.0575 5.5958 15.987 5.6799 15.8903C5.7621 15.7921 5.767 15.6673 5.767 15.6673ZM4.73302 15.2001C3.65493 15.2001 2.78197 16.0818 2.78197 17.1695C2.78197 18.2579 3.65493 19.1392 4.73302 19.1392C5.81037 19.1392 6.68521 18.2579 6.68521 17.1695C6.68521 16.0818 5.81037 15.2001 4.73302 15.2001Z" fill="#DA020E"/>
<path d="M24.1588 17.1651C24.1588 15.8726 25.1976 14.8253 26.4794 14.8253C27.7618 14.8253 28.8 15.8726 28.8 17.1651C28.8 18.4599 27.7618 19.5091 26.4794 19.5091C25.1976 19.5091 24.1588 18.4599 24.1588 17.1651Z" fill="#FFE500" stroke="black" stroke-width="1.29438" stroke-miterlimit="3.863"/>
<path d="M27.8384 18.218C27.7875 18.2686 27.7589 18.2244 27.7804 18.1296C27.7981 18.0356 27.8573 17.4596 27.7913 17.0275C27.7751 16.9102 27.964 16.7663 27.9987 16.7047C28.0334 16.6441 28.073 16.5969 28.1009 16.5528C28.1397 16.4888 28.1808 16.5604 28.1808 16.5604C28.2306 16.7252 28.2548 16.8977 28.2548 17.0762C28.2548 17.5395 28.0794 17.9766 27.8384 18.218ZM27.6812 16.6773C27.6209 16.4431 27.3852 16.0221 27.332 15.9551C27.2785 15.8903 27.2954 15.8043 27.2962 15.7628C27.2962 15.7217 27.3196 15.6558 27.3196 15.6132C27.3196 15.539 27.3641 15.5405 27.3957 15.5546C27.659 15.6768 27.8611 15.9079 28.0059 16.1633C28.0379 16.2216 28.0387 16.3548 28.0149 16.4001C27.981 16.4656 27.8788 16.6887 27.7913 16.7359C27.7038 16.7842 27.691 16.7279 27.6812 16.6773ZM27.3882 18.604C27.1785 18.7224 26.8252 18.8473 26.5028 18.8473H26.4655C26.3663 18.8499 26.364 18.7803 26.4319 18.6021C26.5303 18.3276 26.5918 17.8753 26.5714 17.4231C26.5511 16.9198 26.3508 16.5018 26.2886 16.3247C26.2283 16.1492 26.329 16.1279 26.4232 16.1081C26.5167 16.0895 26.6404 16.062 26.7019 16.0422C26.8173 16.0068 26.8546 15.989 26.9564 15.9596C27.0556 15.9337 27.1891 15.9467 27.2498 16.0537C27.3094 16.1633 27.6857 16.7172 27.6857 17.6397C27.6857 17.9222 27.6035 18.4833 27.3882 18.604ZM26.0069 18.773C25.2867 18.5374 24.7505 17.8803 24.7505 17.0762C24.7505 16.9578 24.7735 16.8482 24.7829 16.7842C24.7968 16.7104 24.8519 16.6982 24.8794 16.7526C24.9047 16.8021 25.0299 17.0717 25.3135 17.3077C25.6008 17.5453 25.9089 17.6751 26.3471 17.6842C26.4002 17.6869 26.4251 17.7657 26.4251 17.8414C26.4251 17.9164 26.3802 18.4738 26.2004 18.682C26.1525 18.7353 26.1065 18.8084 26.0069 18.773ZM24.9307 16.2977C25.0163 16.0868 25.1683 15.9079 25.3357 15.7571C25.3357 15.7571 25.4187 15.6863 25.4507 15.6615C25.4507 15.6615 25.4575 15.7876 25.5408 15.882C25.6238 15.9772 25.7848 16.0518 25.9522 16.0963C25.9522 16.0963 26.0311 16.1447 26.0782 16.2189C26.1525 16.3308 26.4014 16.943 26.4123 17.3012C26.4153 17.4231 26.3127 17.5243 26.1525 17.5011C25.9918 17.4794 25.7102 17.4843 25.2595 17.0591C25.16 16.9658 24.8195 16.5642 24.9307 16.2977ZM25.6668 15.5211C25.9138 15.3635 26.2019 15.3083 26.5028 15.3083C26.7019 15.3083 26.8912 15.3425 27.0726 15.4027C27.1393 15.4236 27.1785 15.5321 27.1785 15.5866C27.1785 15.6402 27.1344 15.7628 26.9255 15.8287C26.7174 15.8934 26.4244 15.9901 26.1857 15.9901C25.9455 15.9901 25.5876 15.9113 25.5876 15.6806C25.5876 15.6109 25.6049 15.5603 25.6668 15.5211ZM26.4843 15.1952C25.4073 15.1952 24.534 16.0773 24.534 17.1623C24.534 18.2534 25.4073 19.132 26.4843 19.132C27.5632 19.132 28.4365 18.2534 28.4365 17.1623C28.4365 16.0773 27.5632 15.1952 26.4843 15.1952Z" fill="#DA020E"/>
<path d="M24.7166 17.0738C24.7166 16.0939 25.5176 15.2969 26.5059 15.2969C27.4945 15.2969 28.2949 16.0939 28.2949 17.0738C28.2949 18.0555 27.4945 18.8507 26.5059 18.8507C25.5176 18.8507 24.7166 18.0555 24.7166 17.0738Z" fill="url(#paint16_radial_371_27126)"/>
<defs>
<filter id="filter0_f_371_27126" x="3.60196" y="2.27516" width="23.9543" height="29.6633" filterUnits="userSpaceOnUse" color-interpolation-filters="sRGB">
<feFlood flood-opacity="0" result="BackgroundImageFix"/>
<feBlend mode="normal" in="SourceGraphic" in2="BackgroundImageFix" result="shape"/>
<feGaussianBlur stdDeviation="1.90731" result="effect1_foregroundBlur_371_27126"/>
</filter>
<radialGradient id="paint0_radial_371_27126" cx="0" cy="0" r="1" gradientUnits="userSpaceOnUse" gradientTransform="translate(15.6396 28.9454) scale(0.909295 0.68242)">
<stop stop-color="#FFE500"/>
<stop offset="0.5" stop-color="#FFE500"/>
<stop offset="1" stop-color="#E15007"/>
</radialGradient>
<radialGradient id="paint1_radial_371_27126" cx="0" cy="0" r="1" gradientUnits="userSpaceOnUse" gradientTransform="translate(13.1417 28.6294) scale(0.961502 0.8728)">
<stop stop-color="#FFE500"/>
<stop offset="0.5" stop-color="#FFE500"/>
<stop offset="1" stop-color="#E15007"/>
</radialGradient>
<linearGradient id="paint2_linear_371_27126" x1="15.3137" y1="13.8637" x2="15.3137" y2="18.9599" gradientUnits="userSpaceOnUse">
<stop stop-color="#8F0904"/>
<stop offset="0.249601" stop-color="#B40509"/>
<stop offset="1" stop-color="#DA020E"/>
</linearGradient>
<radialGradient id="paint3_radial_371_27126" cx="0" cy="0" r="1" gradientUnits="userSpaceOnUse" gradientTransform="translate(12.6873 3.64548) scale(1.09928 1.0567)">
<stop stop-color="#FFE500"/>
<stop offset="0.5" stop-color="#FFE500"/>
<stop offset="1" stop-color="#E15007"/>
</radialGradient>
<radialGradient id="paint4_radial_371_27126" cx="0" cy="0" r="1" gradientUnits="userSpaceOnUse" gradientTransform="translate(4.69638 9.27881) rotate(-60.5076) scale(1.72774 1.51246)">
<stop stop-color="#FFE500"/>
<stop offset="0.5" stop-color="#FFE500"/>
<stop offset="1" stop-color="#E15007"/>
</radialGradient>
<linearGradient id="paint5_linear_371_27126" x1="4.46579" y1="8.58999" x2="4.88712" y2="9.04872" gradientUnits="userSpaceOnUse">
<stop stop-color="#FFE500"/>
<stop offset="0.5" stop-color="#FFE500"/>
<stop offset="1" stop-color="#E15007"/>
</linearGradient>
<linearGradient id="paint6_linear_371_27126" x1="5.41299" y1="20.0759" x2="8.32444" y2="23.3858" gradientUnits="userSpaceOnUse">
<stop stop-color="#740703"/>
<stop offset="1" stop-color="#DA020E" stop-opacity="0"/>
</linearGradient>
<linearGradient id="paint7_linear_371_27126" x1="25.6927" y1="20.0759" x2="22.7812" y2="23.3858" gradientUnits="userSpaceOnUse">
<stop stop-color="#740703"/>
<stop offset="1" stop-color="#DA020E" stop-opacity="0"/>
</linearGradient>
<linearGradient id="paint8_linear_371_27126" x1="26.7614" y1="13.9343" x2="25.1887" y2="12.4685" gradientUnits="userSpaceOnUse">
<stop stop-color="#740703"/>
<stop offset="1" stop-color="#DA020E" stop-opacity="0"/>
</linearGradient>
<linearGradient id="paint9_linear_371_27126" x1="4.39326" y1="13.9343" x2="6.06026" y2="12.1918" gradientUnits="userSpaceOnUse">
<stop stop-color="#740703"/>
<stop offset="1" stop-color="#DA020E" stop-opacity="0"/>
</linearGradient>
<radialGradient id="paint10_radial_371_27126" cx="0" cy="0" r="1" gradientUnits="userSpaceOnUse" gradientTransform="translate(18.4674 3.64548) rotate(180) scale(1.09928 1.0567)">
<stop stop-color="#FFE500"/>
<stop offset="0.5" stop-color="#FFE500"/>
<stop offset="1" stop-color="#E15007"/>
</radialGradient>
<radialGradient id="paint11_radial_371_27126" cx="0" cy="0" r="1" gradientUnits="userSpaceOnUse" gradientTransform="translate(15.5774 3.13144) scale(0.830496 0.801413)">
<stop stop-color="#FFE500"/>
<stop offset="0.5" stop-color="#FFE500"/>
<stop offset="1" stop-color="#E15007"/>
</radialGradient>
<radialGradient id="paint12_radial_371_27126" cx="0" cy="0" r="1" gradientUnits="userSpaceOnUse" gradientTransform="translate(26.4584 9.27881) rotate(-119.492) scale(1.72774 1.51246)">
<stop stop-color="#FFE500"/>
<stop offset="0.5" stop-color="#FFE500"/>
<stop offset="1" stop-color="#E15007"/>
</radialGradient>
<linearGradient id="paint13_linear_371_27126" x1="26.6889" y1="8.58999" x2="26.2675" y2="9.04872" gradientUnits="userSpaceOnUse">
<stop stop-color="#FFE500"/>
<stop offset="0.5" stop-color="#FFE500"/>
<stop offset="1" stop-color="#E15007"/>
</linearGradient>
<radialGradient id="paint14_radial_371_27126" cx="0" cy="0" r="1" gradientUnits="userSpaceOnUse" gradientTransform="translate(18.1734 28.6294) rotate(180) scale(0.961503 0.8728)">
<stop stop-color="#FFE500"/>
<stop offset="0.5" stop-color="#FFE500"/>
<stop offset="1" stop-color="#E15007"/>
</radialGradient>
<radialGradient id="paint15_radial_371_27126" cx="0" cy="0" r="1" gradientUnits="userSpaceOnUse" gradientTransform="translate(4.72043 17.0825) scale(1.78918 1.77686)">
<stop stop-color="#DA030E" stop-opacity="0"/>
<stop offset="0.875" stop-color="#DA020E" stop-opacity="0"/>
<stop offset="1" stop-color="#DA020E"/>
</radialGradient>
<radialGradient id="paint16_radial_371_27126" cx="0" cy="0" r="1" gradientUnits="userSpaceOnUse" gradientTransform="translate(26.5057 17.0738) scale(1.78918 1.77686)">
<stop stop-color="#DA030E" stop-opacity="0"/>
<stop offset="0.875" stop-color="#DA020E" stop-opacity="0"/>
<stop offset="1" stop-color="#DA020E"/>
</radialGradient>
</defs>
</svg>
