<svg width="32" height="32" viewBox="0 0 32 32" fill="none" xmlns="http://www.w3.org/2000/svg">
<path d="M23.9996 20.384C23.9996 20.384 23.9996 20.395 23.9996 20.4037C23.9996 20.399 23.9996 20.3927 23.9996 20.384Z" fill="white" stroke="white" stroke-width="8.81471" stroke-miterlimit="3.864"/>
<path d="M23.9996 20.4048C23.9996 20.4175 24.0004 20.4264 23.9996 20.4048V20.4048Z" fill="white" stroke="white" stroke-width="8.81471" stroke-miterlimit="3.864"/>
<path d="M23.9996 20.4048C23.9996 20.4175 24.0004 20.4264 23.9996 20.4048V20.4048Z" fill="#231F20"/>
<path fill-rule="evenodd" clip-rule="evenodd" d="M29.127 21.8322C28.8675 21.3629 28.9144 20.6224 28.2549 20.4837C27.5686 20.4639 26.8301 20.7283 26.2167 21.0985C25.9772 21.3362 26.3035 21.5412 26.3165 21.7728C26.3902 22.1027 26.5568 22.3937 26.5898 22.7373C26.437 22.7899 26.2835 22.863 26.1238 22.9027C25.9903 22.9491 25.8774 22.8829 25.7906 22.8036C25.3976 22.6253 25.0046 22.8303 24.6783 22.9948C24.5386 23.2196 24.2722 23.0284 24.0726 23.1076C23.4999 23.1404 22.7875 23.1274 22.3077 23.564C21.9814 23.8809 22.3276 24.2512 22.2938 24.6078C21.3956 24.8462 20.509 25.1167 19.5639 25.2424C19.3045 25.2889 19.0312 25.3216 18.7648 25.3613C17.9326 25.487 17.0797 25.5791 16.2813 25.599L16.2544 25.5731C16.2614 25.5395 16.2944 25.5136 16.2813 25.474C16.8532 24.7662 17.6662 24.2245 18.4585 23.8344C18.5721 23.775 18.678 23.6828 18.8047 23.6432C18.9045 23.5106 19.058 23.5236 19.1647 23.3986C19.8441 22.9819 20.5896 22.4928 20.9358 21.7461C21.0425 21.5877 21.0686 21.4025 21.1361 21.2235C21.1891 21.065 21.1891 20.9263 21.2421 20.7679C21.4087 21.1709 21.4356 21.673 21.8685 21.9115C22.4074 22.3145 23.1076 22.4196 23.7662 22.1888C24.6184 21.8581 25.0851 20.9462 25.165 20.0807C25.2049 19.9679 25.3377 19.9481 25.3715 19.8361C25.2517 19.7302 25.1911 19.5649 25.2517 19.4193C25.2978 19.2677 25.5181 19.2944 25.5381 19.1352C25.4974 19.0955 25.4444 19.0826 25.3976 19.0498C25.2379 18.9371 25.1512 18.7588 25.1911 18.5668C25.2049 18.4152 25.4045 18.3558 25.4306 18.2102C25.3108 18.1706 25.1711 18.1508 25.0982 18.0449C25.0982 17.9916 25.165 17.9657 25.2049 17.9527C25.611 17.8796 26.2835 17.7409 26.5767 18.1965C27.0097 18.726 26.4701 19.3203 26.51 19.8887C26.5568 20.0144 26.5169 20.2064 26.6497 20.2719C26.6497 19.8094 27.1164 19.6845 27.369 19.3538L27.4358 19.4529C27.5955 19.2152 27.402 18.8578 27.6024 18.6262C27.6623 18.5866 27.7221 18.6658 27.782 18.6262V18.5538C27.6154 18.4022 27.6223 18.1836 27.5886 17.9786C27.6085 17.8796 27.7283 17.9459 27.7689 17.8666C27.6492 17.7874 27.5556 17.6548 27.4957 17.523C27.4558 17.2785 27.2162 17.1261 27.0358 17.0011L27.1625 16.8488C27.2093 16.7162 27.303 16.5973 27.356 16.4655C27.2093 16.4259 27.0297 16.3863 26.8961 16.2865C27.1295 15.9299 27.1026 15.4408 27.1164 15.0774L27.0497 15.117C27.0159 14.8724 27.0097 14.602 26.8961 14.4031C26.8431 14.4168 26.8831 14.5022 26.8163 14.4824C26.6896 14.218 26.5898 13.9277 26.3564 13.7159C26.2436 13.6892 26.3434 13.8149 26.2773 13.8348C26.0708 13.6892 25.9703 13.4782 25.9442 13.2466C25.8843 13.2466 25.8705 13.306 25.8574 13.3456C25.7645 14.0397 26.0908 14.7338 25.8973 15.408C25.8037 15.5932 25.8037 15.8179 25.6509 15.9833C25.4974 16.4061 25.1051 16.6834 24.7389 16.9211C24.712 16.915 24.6783 16.928 24.6652 16.9082C24.6184 16.7101 24.7988 16.5509 24.7919 16.3665C24.6452 16.3398 24.5124 16.221 24.4318 16.109C24.3988 15.9299 24.4587 15.7646 24.6253 15.6526C24.6783 15.5269 24.4986 15.5863 24.4456 15.5269C24.2921 15.408 24.1923 15.2099 24.1923 14.9913C24.1792 14.8328 24.3589 14.7338 24.3589 14.5951C24.1862 14.5951 24.0526 14.4298 23.9728 14.2911C23.886 14.0466 23.8791 13.709 24.0127 13.4652C24.1724 12.7773 25.1381 12.7841 25.1512 12.0375C25.1911 11.892 25.4183 12.0436 25.5112 11.8988C25.5711 11.8325 25.4644 11.8523 25.4444 11.8325C25.2441 11.7266 25.284 11.4889 25.2648 11.3236C25.3577 11.2901 25.4106 11.3891 25.4974 11.3365C25.5381 11.3038 25.631 11.2901 25.598 11.2238C25.4713 11.2375 25.4383 11.0988 25.3576 11.0326C25.4106 10.9929 25.4644 11.0524 25.525 11.0326C25.5642 11.0196 25.6371 11.0067 25.611 10.9335C25.4912 10.8543 25.4183 10.7156 25.4183 10.5899H25.5112C25.6908 10.5305 25.4713 10.4314 25.4843 10.3324C25.4974 10.3057 25.525 10.2989 25.5511 10.3057C25.5772 10.2859 25.598 10.2532 25.5841 10.2333C25.3247 10.1671 25.4244 9.85621 25.178 9.77012C25.3645 9.6246 25.0713 9.57812 25.0851 9.43946C25.0583 9.36708 24.9853 9.36023 24.9316 9.34042C24.9247 9.3008 24.9385 9.26804 24.9715 9.24137C25.0513 9.11566 24.8986 9.10271 24.8188 9.07605C24.8188 8.99681 24.8387 8.81167 24.6652 8.8711C24.752 8.64634 24.4725 8.72634 24.3727 8.70577C24.3789 8.61358 24.4257 8.52749 24.3927 8.4353C24.286 8.40864 24.2261 8.48178 24.1393 8.47492L24.1263 8.29664C24.0326 8.26998 23.9858 8.34236 23.906 8.33626C23.6734 8.56711 23.7064 8.13741 23.5129 8.0917C23.4669 8.06503 23.387 8.01855 23.3333 8.07798C23.3602 8.19759 23.4669 8.30959 23.407 8.44825C23.3671 8.50159 23.3002 8.59377 23.2266 8.55416C23.1398 8.4414 23.0469 8.3294 22.9333 8.2235C22.8811 8.16407 22.8742 8.04522 22.7675 8.03227C22.7007 8.19074 22.7206 8.38197 22.7007 8.55416C22.6009 8.53435 22.5011 8.42845 22.4075 8.48787C22.3345 8.72634 22.4405 8.95033 22.614 9.12252C22.4873 9.23528 22.3944 9.36023 22.2808 9.47908C22.1142 9.80288 21.7687 9.99487 21.5223 10.2791C21.249 10.4909 21.229 10.8345 21.1891 11.1316C21.2889 11.2969 21.4617 11.2444 21.6152 11.3236C21.6352 11.3762 21.5684 11.396 21.5484 11.4295C21.4755 11.4554 21.4617 11.3434 21.3956 11.3632C21.3089 11.3762 21.2958 11.4691 21.269 11.5285C21.302 11.5872 21.2889 11.6672 21.3688 11.7068C21.5223 11.7929 21.695 11.7068 21.8286 11.5941C21.9415 11.6207 22.0812 11.5483 22.2009 11.6078V11.5811C22.4404 11.5087 22.541 11.2177 22.7805 11.1118C22.8742 11.1453 22.9602 11.0524 23.0201 11.1583C22.8274 11.4295 22.4673 11.5087 22.2278 11.7198C21.7948 11.9712 21.3956 12.394 21.1891 12.8367C21.1093 12.9494 21.1293 13.1209 21.0095 13.207C20.7761 12.8367 20.6894 12.4009 20.4099 12.0634C20.2433 11.9247 19.99 11.9179 19.7904 11.9979C19.3904 12.282 18.8984 12.3278 18.5114 12.6256L18.4853 12.599C18.4784 12.4801 18.4255 12.3811 18.3449 12.282C18.219 12.2226 18.0923 12.183 17.9457 12.1761C17.7261 12.1563 17.5127 12.3278 17.3062 12.1891C17.2601 12.0969 17.2332 12.004 17.2263 11.8988C17.1872 11.8059 17.2532 11.5872 17.1135 11.5544C17.0068 11.383 17.0267 11.1583 17.0137 10.9465C16.9999 10.9007 16.94 10.9465 16.92 10.9068C16.8271 10.583 16.8801 10.193 16.8532 9.88897C16.8939 9.75031 16.7534 9.57812 16.92 9.49279C16.9469 9.45318 16.9669 9.37394 16.907 9.35413C16.887 9.33432 16.887 9.28785 16.92 9.27489C17.1933 9.24823 17.1396 8.8452 17.4328 8.88482C17.4728 8.85129 17.4659 8.79186 17.4858 8.75224C17.4728 8.60063 17.5334 8.45511 17.4728 8.29664L17.0467 8.30959L17.0137 8.28293C16.9599 8.06503 16.9868 7.80066 17.1534 7.64904C17.2931 7.60866 17.4067 7.52333 17.5465 7.59571C17.6463 7.65514 17.6992 7.76104 17.713 7.86694C17.6793 7.93322 17.6125 7.97284 17.5465 7.95303C17.4129 7.8997 17.4398 7.71456 17.3192 7.71456C17.2862 7.91341 17.353 8.1115 17.5265 8.2235C17.6125 8.26997 17.753 8.26997 17.8328 8.2235C17.9595 8.14426 18.0324 8.03227 18.0593 7.87989C17.9595 7.63533 18.2857 7.80065 18.3717 7.68866C18.612 7.59571 18.5383 7.3641 18.5514 7.16601C18.5514 7.04106 18.7379 6.95497 18.7379 6.84907C18.6581 6.81554 18.5721 6.80259 18.4853 6.80945C18.2858 6.80945 18.2919 7.03421 18.179 7.14011L18.166 6.90849C18.1192 6.8224 18.0324 6.73022 17.9457 6.68374C17.8789 6.6906 17.8059 6.62432 17.753 6.68374C17.7392 6.76983 17.8328 6.76298 17.8589 6.8224C17.8328 7.05401 17.5664 7.00754 17.4068 7.07382C17.1933 7.10658 17.1734 7.3641 16.9738 7.40448C16.6674 7.58886 16.6605 7.97894 16.7005 8.29664C16.5339 8.33626 16.6736 8.50768 16.5738 8.60063C16.4471 8.56711 16.4203 8.41549 16.3811 8.30959C16.3074 8.09779 16.3404 7.82732 16.3543 7.59571C16.4003 7.27191 16.7603 7.08068 16.9469 6.8224C16.8333 6.59765 17.1396 6.54507 17.1534 6.35308C17.0935 6.30661 17.0267 6.39956 16.9738 6.32642C16.9738 6.30051 16.9738 6.26699 16.9868 6.24794C17.3599 6.18166 17.0935 5.84415 17.2532 5.62625C17.2402 5.52035 17.1803 5.48759 17.1135 5.40835C17.0405 5.43425 16.9738 5.37482 16.96 5.29559C16.8801 5.16988 16.7273 5.12417 16.5868 5.14398C16.527 5.11731 16.461 5.06474 16.3942 5.10436C16.2545 5.27578 16.041 5.33521 15.9213 5.54701L15.8683 5.50054C15.7877 5.60644 15.6887 5.72529 15.6887 5.87767C15.7547 6.04909 15.5221 6.043 15.4484 6.14814C15.3286 6.27385 15.3555 6.46584 15.2158 6.56488C15.0553 6.30661 14.7889 6.1748 14.663 5.90357C14.6692 5.55387 14.2032 5.36187 14.3966 4.9657C15.2887 4.42324 16.3074 4.89256 17.2801 4.93903C18.6849 5.13712 20.4629 5.15693 21.3818 3.89449C21.3887 3.80916 21.4954 3.72307 21.4486 3.64993C21.0026 3.92116 20.423 3.92116 19.8971 3.96078C19.5371 3.94782 19.1248 3.95392 18.8316 3.85487C18.0992 3.76269 17.4328 3.49832 16.7934 3.19432C16.2276 2.93605 15.575 2.837 14.9225 2.9429C14.8557 2.94976 14.7759 2.99547 14.7291 2.95585C14.7628 2.82405 14.6891 2.69148 14.6162 2.57263C14.5233 2.52006 14.4296 2.4073 14.3298 2.4073C14.1295 2.37454 13.9368 2.45378 13.804 2.5993C13.6835 2.74482 13.6704 2.99547 13.7571 3.15394C13.8301 3.27966 13.9498 3.36575 14.0496 3.43889C14.0834 4.25182 14.0497 4.94589 14.0765 5.68567C14.0497 5.80453 13.9568 5.95004 14.0496 6.0689C14.0696 6.57784 14.0696 7.2323 14.0496 7.77399L14.0097 7.82732C13.9767 7.87989 14.0036 7.93932 14.0366 7.97894L14.0496 12.1761C13.9637 12.2622 13.857 12.3079 13.804 12.4207C13.784 12.5197 13.804 12.6386 13.857 12.7247C14.1233 13.0813 14.5095 12.9693 14.8956 12.9296L14.9225 12.9555C14.8557 13.1079 14.8695 13.3327 14.9693 13.4652C15.0085 13.597 14.8757 13.6961 14.7828 13.7685C14.2899 14.0336 13.6973 14.1128 13.1645 13.9871C12.8782 13.9475 13.1776 13.7159 13.1238 13.5506C13.0716 13.3197 12.9442 13.0614 12.6778 13.0157C12.4452 12.9555 12.1719 13.0287 12.0253 13.2199C12.0191 13.0287 12.0452 12.791 12.2517 12.698C12.4452 12.7308 12.6317 12.7841 12.7914 12.9167C12.9112 13.0614 12.9979 13.1742 13.1906 13.1803C13.2843 13.3456 13.2513 13.5437 13.2175 13.7289L13.2643 13.7685C13.4977 13.8149 13.7572 13.7951 13.9967 13.8348C14.1364 13.6169 14.3767 13.8881 14.5095 13.6298C14.5563 13.5833 14.6761 13.6496 14.6761 13.5506C14.4496 13.194 14.0366 13.0287 13.7303 12.7773C13.3772 12.3079 12.7446 12.3079 12.2916 11.9841C11.4526 11.7792 11.4933 12.7971 11.1263 13.2199L11.0733 13.1475C10.84 12.3544 10.0608 11.7464 9.35525 11.4028C9.26851 11.3434 9.14182 11.284 9.11495 11.1712C9.49496 10.98 9.6416 11.5941 10.0208 11.6078C10.301 11.5087 10.4208 11.8196 10.7263 11.7464C10.787 11.7266 10.8269 11.687 10.8469 11.6207C10.8799 11.5415 10.8599 11.4295 10.7801 11.3891C10.6933 11.3236 10.6603 11.4623 10.5736 11.4295C10.5467 11.4028 10.5006 11.3693 10.5206 11.3365C10.6672 11.2771 10.8868 11.3038 10.9597 11.1118C10.9935 10.6097 10.5935 10.2394 10.2273 9.93545C9.89493 9.73736 9.82124 9.34727 9.50803 9.12252C9.61474 9.02348 9.69456 8.91758 9.74139 8.79186C9.72143 8.66692 9.78745 8.55415 9.68765 8.4612C9.59476 8.48787 9.52108 8.52749 9.4351 8.56711C9.38136 8.48178 9.42204 8.34921 9.40822 8.24331C9.38826 8.17093 9.40131 8.0056 9.2946 8.04522C9.22858 8.28293 8.99521 8.36902 8.88236 8.58692H8.84244C8.58219 8.48787 8.76259 8.21741 8.76874 8.06503C8.54918 8.05208 8.4563 8.27683 8.3565 8.42159C8.24902 8.35607 8.13615 8.31645 8.00948 8.29664C7.90968 8.34235 8.02331 8.42159 7.97034 8.48787C7.88973 8.48178 7.82372 8.4353 7.74388 8.4353C7.6364 8.51454 7.77688 8.64025 7.71624 8.75224C7.65022 8.71948 7.5435 8.71948 7.47057 8.73244C7.47057 8.84519 7.42376 8.93739 7.304 8.91758C7.25717 8.977 7.32396 9.04328 7.304 9.09585C7.24412 9.11566 7.1635 9.09586 7.12358 9.16214C7.13049 9.23528 7.15736 9.29394 7.17732 9.35413C6.96391 9.34042 7.08444 9.60479 6.88408 9.63146C6.83802 9.69088 6.91093 9.7305 6.93089 9.78383C6.67832 9.86916 6.78426 10.18 6.52479 10.2463C6.49101 10.3385 6.59081 10.3187 6.62459 10.3583C6.61768 10.4444 6.51788 10.4771 6.52479 10.5632C6.53784 10.676 6.66451 10.5762 6.70443 10.6493C6.63764 10.7484 6.62458 10.8939 6.49791 10.9465C6.4841 11.1316 6.67833 11.0067 6.75126 11.0592C6.69138 11.1583 6.61076 11.2444 6.49791 11.2642C6.5647 11.4028 6.73129 11.3564 6.85795 11.3632C6.89096 11.4752 6.79733 11.5285 6.83111 11.6405C6.77737 11.7464 6.73744 11.892 6.58467 11.8851C6.63764 12.0375 6.8242 11.9781 6.95701 12.0108C6.95087 12.2622 7.05066 12.5197 7.29018 12.6851C7.75002 12.8969 8.17608 13.3456 8.22982 13.8546C8.1899 14.0991 8.2229 14.3704 7.99643 14.5418C7.9235 14.5951 7.84291 14.6279 7.75693 14.6477C7.78994 14.7604 7.90278 14.8267 7.9235 14.9387C7.96342 15.1635 7.88973 15.3882 7.71624 15.5467C7.65022 15.5863 7.55655 15.5795 7.49667 15.6389C7.61643 15.7715 7.72315 15.9299 7.71624 16.1212C7.66327 16.2073 7.59033 16.3063 7.51049 16.3398C7.04451 16.4389 7.66326 16.736 7.4437 16.9745C7.01072 16.7695 6.5908 16.3665 6.40502 15.9299C6.12482 15.3951 6.13865 14.8267 6.20467 14.2248C6.29832 14.0138 6.25841 13.789 6.27837 13.5772C6.29142 13.4782 6.25841 13.3456 6.17857 13.2862C6.12483 13.511 6.03193 13.7426 5.83233 13.8812C5.80546 13.8683 5.82544 13.8416 5.81853 13.8218C5.81239 13.802 5.81853 13.7426 5.77861 13.7555C5.49226 13.9338 5.42547 14.2713 5.27884 14.5418C5.25274 14.509 5.24583 14.4564 5.19286 14.4427C5.14603 14.5684 5.13298 14.7071 5.09997 14.8397C5.05928 14.9387 5.11916 15.0903 5.04623 15.1566C5.02627 15.1368 4.9994 15.1307 4.9733 15.1307V15.1703C4.99326 15.5932 5.02627 16.0031 5.21282 16.3528C5.13989 16.4122 5.04623 16.4061 4.9733 16.4655C4.91265 16.525 4.75375 16.4587 4.76603 16.5775C4.91266 16.7299 4.91956 16.9341 5.08615 17.0865C4.64012 17.2122 4.71304 17.6944 4.35377 17.9261C4.35991 18.0251 4.48658 17.9527 4.53341 18.032C4.51345 18.2628 4.47353 18.4746 4.33381 18.6529C4.33995 18.7717 4.44052 18.6658 4.5004 18.6925C4.58024 18.7588 4.57334 18.8578 4.61325 18.9439C4.67313 19.1352 4.54647 19.3538 4.66623 19.5184C4.73992 19.5717 4.70613 19.4597 4.75373 19.4331C4.95947 19.6906 5.33257 19.8429 5.45924 20.1667C5.49225 20.2193 5.44619 20.3115 5.49916 20.345C5.57209 20.2986 5.59896 20.2193 5.58591 20.153C5.79856 19.6174 5.24582 19.0955 5.41932 18.5272C5.5053 18.2628 5.75173 17.9984 6.05189 17.9527C6.40503 17.9329 6.74434 17.9131 7.0376 18.0716C6.98386 18.1965 6.84415 18.2369 6.71748 18.2499C6.67833 18.3093 6.73744 18.3558 6.77736 18.3885C6.91094 18.4609 6.96392 18.6133 6.95701 18.7588C6.924 18.95 6.7643 19.1154 6.59772 19.2014C6.60463 19.3203 6.7313 19.3134 6.80423 19.3668C6.88407 19.4597 6.9378 19.5519 6.91784 19.6845C6.89788 19.7569 6.83801 19.8163 6.77736 19.8757C6.78427 19.9816 6.89099 20.041 6.95701 20.1066C7.04452 20.7747 7.27022 21.3888 7.77689 21.8848C8.36264 22.4333 9.29461 22.4798 10.007 22.156C10.6273 21.9579 10.7601 21.3294 10.9336 20.8143C10.9797 20.8867 10.9597 21.0124 10.9996 21.0985C11.1662 22.3541 12.4982 23.1472 13.4839 23.7156C14.3828 24.1582 15.2687 24.6938 15.9481 25.5266V25.5731C15.1152 25.6393 14.2899 25.474 13.457 25.3879C12.4314 25.2622 11.4794 25.0702 10.5006 24.8127C10.2611 24.7137 9.99473 24.6809 9.75444 24.5811C9.79436 24.2245 10.0477 23.7491 9.6746 23.4642C9.08195 23.0215 8.26283 23.1076 7.55041 23.0809C7.19037 22.8303 6.73745 22.6451 6.29142 22.764C6.18548 22.7899 6.12482 22.9354 5.9851 22.8897C5.79855 22.8234 5.59895 22.8036 5.43237 22.6977C5.56594 22.2421 5.70566 21.7789 5.90526 21.3492C5.95823 21.1907 5.83848 21.065 5.73869 20.9728H5.6788C5.21896 20.6955 4.68696 20.5766 4.16723 20.4372C3.86093 20.3846 3.48168 20.457 3.29513 20.7679C3.13468 21.1252 3.00187 21.4878 2.88135 21.8581C2.72243 22.46 2.33553 23.0086 2.40923 23.6691C2.72244 24.482 3.58761 24.9849 4.31998 25.3613C4.46047 25.4405 4.60019 25.4999 4.75373 25.5395C4.87963 25.6591 5.05314 25.6523 5.17981 25.7513C5.05314 26.1018 4.92645 26.5711 5.23967 26.8751C5.63196 27.1852 6.09795 27.3246 6.52479 27.5494C7.6364 28.0644 8.85549 28.3151 10.0339 28.6655C10.2742 28.7189 10.5467 28.7844 10.767 28.8179C12.6248 29.227 14.5962 29.3398 16.4878 29.2933C18.4454 29.2804 20.3301 29.0625 22.1411 28.6396C22.8473 28.3882 23.5997 28.2556 24.3059 28.005C24.4456 27.9456 24.5984 27.9059 24.7389 27.8397C25.4383 27.6019 26.1238 27.2911 26.7426 26.8881C27.0757 26.597 26.9368 26.1216 26.8163 25.7772L26.8692 25.7186C27.1164 25.6652 27.3229 25.5068 27.5625 25.4336C28.3278 25.0176 29.2805 24.5156 29.5999 23.6432C29.6068 22.9888 29.2806 22.4333 29.127 21.8322ZM22.974 19.0361C22.974 19.0361 23.681 19.7302 23.7685 19.8841C23.8553 20.0372 23.9981 20.3092 23.9996 20.3846C23.9996 20.3846 23.8937 20.8242 23.3233 20.8532C22.7529 20.8822 22.2601 20.4311 22.2793 19.9031C22.2985 19.3752 22.6723 19.2159 22.974 19.0361ZM20.684 16.9539C20.6901 16.7741 20.7162 16.576 20.8836 16.4991C21.051 16.4229 21.0579 16.4419 21.0579 16.4419C21.0579 16.4419 21.3665 16.96 21.464 17.0941C21.5607 17.2289 22.0305 17.8301 22.2892 18.2399C22.2892 18.2399 21.2767 19.11 21.2314 20.1591C21.2314 20.1591 21.2183 19.8841 21.1799 19.7431C21.1408 19.6022 21.1285 19.3782 21.3281 19.27L21.3411 19.1931C21.3411 19.1931 21.1477 19.1481 21.1477 19.0331C21.1477 18.918 21.3089 18.8982 21.3089 18.8091C21.3089 18.7192 21.193 18.694 21.1607 18.6879C21.1285 18.6811 20.9542 18.675 20.8767 18.3931C20.7999 18.1112 20.5612 17.2289 20.5612 17.2289C20.5612 17.2289 20.6771 17.1329 20.684 16.9539ZM17.2701 13.0508C17.2701 13.0508 17.3668 13.0988 17.5119 13.0698C17.657 13.0416 17.8313 12.9647 17.8313 12.9647L17.9664 13.0416L17.5119 13.4828C17.5119 13.4828 17.406 13.6359 17.5219 13.6359C17.6378 13.6359 17.667 13.6748 17.6862 13.7228C17.7054 13.7708 17.8505 13.7898 17.928 13.7708C18.0048 13.7517 18.1598 13.8088 18.179 13.8668L18.9137 13.7708L18.9621 13.7037C18.9621 13.7037 18.8853 13.3677 18.9337 13.2428C18.982 13.1178 19.0979 13.2138 19.2139 13.0698C19.3298 12.9258 19.6299 12.6858 19.8326 12.6957C20.0361 12.7049 20.0936 12.8976 20.132 13.1948C20.132 13.1948 19.9685 12.9357 19.6683 12.9738C19.3682 13.0127 19.1171 13.0508 19.0204 13.6077C19.0204 13.6077 19.0304 13.7997 19.1172 13.9148C19.1172 13.9148 18.8269 14.0298 18.4792 14.0298C18.1307 14.0298 17.5894 13.9239 17.4344 13.8279C17.2801 13.7327 17.2025 13.5689 17.2117 13.5209C17.2217 13.4729 17.3284 13.2908 17.2701 13.0508ZM9.89187 19.9991C9.88189 20.1241 9.87268 20.7862 8.87622 20.8913C8.87622 20.8913 8.22291 20.8928 8.16303 20.4509C8.13156 20.2201 8.62519 19.6151 8.75032 19.5092C8.87622 19.4041 9.21476 19.0757 9.21476 19.0757C9.21476 19.0757 9.72067 19.3965 9.85425 19.6113C9.85425 19.6113 9.90108 19.8742 9.89187 19.9991ZM11.2261 18.5927C11.2023 18.627 10.9167 18.7512 10.8975 18.7656C10.8783 18.7809 10.8392 18.8091 10.9121 18.9005C10.9843 18.9912 11.0718 19.0727 11.0181 19.1161C10.9651 19.1595 10.9459 19.174 10.9459 19.174C10.9459 19.174 10.8108 19.1832 10.8446 19.2502C10.8783 19.318 10.9505 19.4232 10.9897 19.4666C11.028 19.5092 11.0326 19.5771 11.0181 19.6296C11.0035 19.6822 10.9797 19.7111 10.9751 19.7782C10.9697 19.8452 10.9459 20.0707 10.9459 20.0707C10.9459 20.0707 10.8591 19.4521 10.3363 18.7512C10.116 18.4556 9.87266 18.2811 9.87266 18.2811C9.87266 18.2811 9.88726 18.1996 9.9932 18.0792C10.0999 17.9596 10.8054 16.947 10.8975 16.7985C10.9897 16.6499 11.0764 16.4815 11.1585 16.4815C11.2169 16.4815 11.4103 16.6019 11.4587 16.6735C11.4587 16.6735 11.4779 17.0865 11.6038 17.2876C11.6038 17.2876 11.2507 18.5599 11.2261 18.5927ZM14.4227 6.84907C14.4427 6.84907 14.4496 6.86887 14.4696 6.88183C14.4496 6.90849 14.4296 6.94125 14.4358 6.97478C14.4964 7.02735 14.5563 7.06696 14.6362 7.07382C14.6891 7.15991 14.5694 7.28486 14.6891 7.34505C14.7628 7.32524 14.8626 7.27877 14.9355 7.33134C14.9294 7.38467 14.8557 7.39762 14.8158 7.43038C14.736 7.55 14.6223 7.62923 14.4834 7.60866C14.3897 7.5759 14.4227 7.50961 14.3966 7.44409L14.4227 6.84907ZM15.182 10.8467L15.0699 10.9282L14.9778 11.527C14.9778 11.527 14.8757 11.5164 14.8657 11.6383C14.8549 11.7602 14.8143 12.0748 14.7628 12.0946C14.7122 12.1152 14.63 12.1152 14.5794 12.1358C14.5279 12.1556 14.4673 12.186 14.4051 12.1457C14.4051 12.1457 14.3237 9.13242 14.4051 8.2494C14.4051 8.2494 14.8857 8.25931 14.9978 8.21893V8.28978C14.9978 8.28978 14.9371 8.32026 14.855 8.31035C14.7736 8.30045 14.6101 8.28978 14.5387 8.34083V8.929C14.5387 8.929 14.7229 8.93967 14.7935 9.041C14.8657 9.14233 14.9977 9.29394 15.1213 9.28404V9.40594C15.1213 9.40594 15.1413 9.49736 15.182 9.49736C15.2234 9.49736 15.2541 9.51717 15.2541 9.5987C15.2541 9.68022 15.182 10.8467 15.182 10.8467Z" fill="#231F20"/>
<path d="M16.434 3.24685L16.4471 3.52417C16.2544 3.50436 16.0279 3.47846 15.8276 3.42513C15.7876 3.30627 15.7746 3.16761 15.8414 3.06857C16.0479 3.10818 16.2812 3.12114 16.434 3.24685Z" fill="#00B6F1" stroke="#00B6F1" stroke-width="0.270487" stroke-miterlimit="3.864"/>
<path d="M15.1153 3.12119C15.1153 3.22023 15.1959 3.42518 15.0493 3.43889C14.8289 3.44499 14.6493 3.54403 14.4359 3.56384C14.3698 3.47851 14.4428 3.36575 14.4228 3.27356C14.4896 3.20728 14.5963 3.23395 14.6631 3.16766C14.8028 3.141 14.9625 3.05567 15.1153 3.12119Z" fill="#00B6F1" stroke="#00B6F1" stroke-width="0.270487" stroke-miterlimit="3.864"/>
<path d="M16.434 4.21218L16.4471 4.66779C16.2337 4.63502 16.0349 4.62131 15.8076 4.56874C15.7416 4.42322 15.8215 4.2579 15.7946 4.05981C15.8813 4.04 15.988 4.04 16.0748 4.05981C16.2076 4.07962 16.3212 4.13904 16.434 4.21218Z" fill="#00B6F1" stroke="#00B6F1" stroke-width="0.270487" stroke-miterlimit="3.864"/>
<path d="M15.1022 4.05986C15.169 4.23814 15.0953 4.37756 15.1153 4.5688C14.8827 4.62822 14.6424 4.66783 14.4098 4.74707V4.27775C14.6094 4.11319 14.8358 4.08653 15.1022 4.05986Z" fill="#00B6F1" stroke="#00B6F1" stroke-width="0.270487" stroke-miterlimit="3.864"/>
<path d="M15.641 3.12115C15.6947 3.27962 15.575 3.55771 15.7945 3.59047C16.021 3.6499 16.2613 3.63694 16.4471 3.78246L16.434 3.9935C16.1945 3.94093 15.9611 3.8617 15.7016 3.85484C15.6018 3.9737 15.6617 4.1855 15.641 4.31731L15.6149 4.55577C15.4752 4.50244 15.1888 4.68148 15.2556 4.4034C15.2418 4.24493 15.3823 3.98741 15.175 3.86855C14.9224 3.90817 14.656 3.94094 14.4227 4.03312V3.78246C14.676 3.67656 14.9355 3.59733 15.2287 3.59047L15.2687 3.55085V3.09525C15.3615 3.02211 15.5013 3.06858 15.6149 3.05563L15.641 3.12115Z" fill="#EF3E2E"/>
<path d="M20.8828 3.99351L21.1623 3.9478V3.9737C20.6564 4.60835 19.9171 4.74016 19.1908 4.87272C18.2788 5.01824 17.4597 4.79349 16.6007 4.69445C16.5477 4.5954 16.5807 4.50931 16.5738 4.39046C16.5738 4.04685 16.5607 3.75581 16.5868 3.34592L16.6268 3.28649C17.9195 3.88152 19.3973 4.29827 20.8828 3.99351Z" fill="#EF3E2E"/>
<path d="M9.79435 9.67105C10.1544 10.1206 10.8 10.4245 10.82 11.0325C10.7332 11.092 10.6273 11.204 10.4868 11.1453C10.3601 11.0592 10.2404 10.8344 10.0477 10.9205C9.94788 10.98 9.88801 11.0988 9.93407 11.2108C9.97399 11.2512 9.974 11.3038 9.98782 11.3495C9.88111 11.3297 9.84118 11.2177 9.82813 11.1316C9.85423 11.0592 9.78744 10.9464 9.71451 10.8939C9.62776 10.8802 9.54179 10.8672 9.475 10.8146C9.38826 10.7156 9.60781 10.5106 9.39516 10.5373C9.25544 10.6821 9.23472 10.9998 8.96219 10.9205C8.88235 10.788 8.72266 10.9731 8.66201 10.788C8.56912 10.8146 8.46933 10.7948 8.39563 10.7423C8.26896 10.6097 8.249 10.4375 8.16302 10.292H8.13614C8.14305 10.6028 8.28277 10.9205 8.58908 11.0988L8.60213 11.1453C8.54225 11.2177 8.39563 11.1118 8.38258 11.2108C8.50234 11.2771 8.64206 11.3167 8.78254 11.2771C8.75568 11.3693 8.5292 11.3297 8.66201 11.4295C8.78253 11.4424 8.88847 11.3632 9.009 11.3891V11.4295C8.98213 11.4295 8.96831 11.4622 8.94912 11.4752C8.94912 11.495 8.97524 11.5087 8.9952 11.5278C9.08886 11.5415 9.16869 11.3891 9.25544 11.5019C10.1275 11.8653 10.9405 12.7049 11.1132 13.6298C11.3727 13.9079 11.4057 14.2911 11.4595 14.6347C11.4733 14.8922 11.4456 15.1307 11.3796 15.3486C11.3466 15.117 11.4326 14.8198 11.3796 14.5951C11.3597 14.5021 11.3658 14.3703 11.266 14.3307C11.1601 14.4168 11.246 14.4892 11.2399 14.5951C11.2192 14.7932 11.2929 15.0507 11.1132 15.1566C10.9996 15.1566 11.0134 15.0377 10.9735 14.9654C10.9797 14.7139 11.0534 14.2911 10.8069 14.1258C10.7601 14.1921 10.833 14.2781 10.8468 14.3437C10.853 14.5821 10.8399 14.8069 10.8069 15.0179C10.8131 15.1307 10.8929 15.2031 10.9597 15.2823C11.3328 15.6457 11.8057 16.0617 12.0982 16.5051C12.3454 16.9874 11.9654 17.4704 12.1519 17.9794C12.1588 18.1973 12.0982 18.4281 12.0391 18.6399C12.0391 18.9835 12.1987 19.5717 11.8195 19.7964C11.9454 19.4986 12.0191 19.142 11.9853 18.8182C11.9592 18.8113 11.9385 18.7656 11.9185 18.8052C11.8525 18.9241 11.8256 19.0628 11.7788 19.1885C11.7658 19.0231 11.9454 18.8913 11.8195 18.7321C11.7589 18.7321 11.7059 18.7321 11.666 18.7786C11.6729 18.7854 11.6591 18.7191 11.6253 18.7062C11.5255 18.726 11.4733 18.8578 11.3796 18.8845C11.3197 18.8845 11.2798 18.9439 11.2261 18.9439C11.3727 18.7854 11.5792 18.6666 11.679 18.4746C11.7458 18.4814 11.8326 18.4685 11.8195 18.3885C11.7857 18.2963 11.7727 18.1904 11.7258 18.1043C11.8456 17.7409 12.0321 17.2982 11.7788 16.9348C11.8456 16.4586 11.3466 16.2933 11.0334 16.1211C10.8668 16.1021 10.7002 16.016 10.5597 15.9032L10.5006 15.9695C10.4338 15.9368 10.3939 15.8377 10.3072 15.8309C10.2404 15.6457 10.1344 15.421 9.93407 15.3486C9.70147 15.4012 9.50109 15.2823 9.31455 15.1833C9.26848 15.2099 9.28153 15.2686 9.29459 15.296C9.39515 15.5863 9.76134 15.3882 9.86728 15.6792C10.0277 15.9497 10.2273 16.1547 10.5336 16.2339C10.6534 16.3063 10.8069 16.3131 10.9336 16.3794C10.6672 16.5775 10.2941 16.6103 9.974 16.5447C9.6746 16.5447 9.36137 16.4586 9.07502 16.3665C9.00209 16.3131 8.89539 16.3131 8.8286 16.2468C8.66202 16.128 8.42251 16.0091 8.40946 15.7775C8.37644 15.613 8.45626 15.5002 8.50923 15.3486C8.79558 15.6792 9.22856 15.7981 9.67459 15.8309C9.6815 15.8179 9.70837 15.811 9.70146 15.7912C9.52105 15.6724 9.28153 15.6922 9.08884 15.613C8.87542 15.5269 8.61595 15.3753 8.53611 15.1307C8.5292 14.9387 8.59599 14.7734 8.58908 14.5821C8.9353 14.6545 9.30842 14.5555 9.49496 14.2515C9.5748 14.0465 9.53488 13.7555 9.36829 13.5772C9.25544 13.5048 9.14181 13.4386 9.009 13.4248C9.12185 13.3852 9.25544 13.4119 9.36829 13.4782C9.52106 13.5048 9.52795 13.8744 9.66076 13.6168C9.68149 13.4713 9.63468 13.3258 9.54794 13.2069C9.69456 13.1605 9.55482 13.0287 9.56173 12.9426C9.47499 12.8367 9.32146 12.7711 9.36829 12.6256C9.24853 12.394 8.98905 12.2089 8.74262 12.2287C8.79559 12.2028 8.86853 12.2355 8.90845 12.1761C8.78255 11.8721 8.38258 12.1494 8.22981 11.8455C7.6433 11.3038 7.65712 10.583 7.8429 9.86305C7.93656 9.63143 8.13616 9.42649 8.35648 9.26116C8.50925 9.21545 8.73572 9.26116 8.84243 9.06307C9.11496 8.94421 9.34218 9.19487 9.56173 9.32744C9.62085 9.44629 9.77439 9.53239 9.79435 9.67105Z" fill="#BBBDBF"/>
<path d="M13.3172 12.5464C13.5974 12.7049 13.6903 12.989 13.9836 13.0942C14.1632 13.2001 14.3567 13.3395 14.4964 13.4911C14.4296 13.5109 14.3966 13.5772 14.3298 13.5772C14.21 13.3852 14.0235 13.2336 13.8439 13.1208C13.817 13.2603 14.0166 13.3326 14.0634 13.4515L14.1502 13.5902C14.1033 13.6039 13.9905 13.7098 13.9836 13.5772C13.8968 13.3989 13.817 13.2138 13.6504 13.0683C13.6174 13.0683 13.5706 13.0683 13.5637 13.1079L13.7303 13.6435L13.7034 13.6763C13.6036 13.4911 13.6635 13.181 13.4569 13.0546C13.384 13.1544 13.4639 13.2664 13.4976 13.3593C13.5168 13.4584 13.5368 13.5643 13.5637 13.6564C13.5306 13.7159 13.4639 13.6625 13.4101 13.6564C13.4308 13.4187 13.384 13.1742 13.2044 13.002C13.0048 13.0424 12.984 12.7772 12.8044 12.698C12.5918 12.5723 12.3116 12.407 12.0721 12.5723C11.9792 12.698 11.6989 12.6454 11.8057 12.8763L11.8724 13.0546C11.7726 13.5307 11.7988 14.0069 11.6391 14.4564C11.5923 14.2972 11.5661 14.1128 11.4994 13.9475C11.4794 13.7486 11.2998 13.5643 11.4057 13.3593C11.5124 13.0546 11.5723 12.7247 11.6659 12.407C11.692 12.2355 11.8655 12.103 12.0252 12.0634C12.5112 12.0969 12.8643 12.4405 13.3172 12.5464Z" fill="#BBBDBF"/>
<path d="M20.3239 12.1662C20.3247 12.1791 20.3178 12.1989 20.3377 12.205C20.3446 12.1989 20.3515 12.1921 20.3508 12.1784C20.5488 12.4466 20.5419 12.8229 20.7008 13.1178C20.717 13.2831 20.8459 13.4461 20.7622 13.5993C20.6271 13.8591 20.5987 14.1577 20.5442 14.4427C20.3891 13.9894 20.36 13.4606 20.2725 12.9928C20.3239 12.8999 20.3884 12.7795 20.3201 12.6751C20.2924 12.6424 20.2525 12.6302 20.2057 12.637C20.0506 12.5342 19.8694 12.445 19.6637 12.5083C19.3996 12.605 19.1962 12.7871 19.0334 13.0149C19.0135 12.9883 18.9666 13.0027 18.9398 13.0027C18.7701 13.1711 18.721 13.4103 18.7586 13.6343C18.7125 13.6747 18.6588 13.6884 18.6058 13.6831C18.5882 13.4583 18.7187 13.2976 18.7348 13.0858L18.688 13.0469C18.5106 13.2023 18.5421 13.4591 18.4653 13.6656C18.4523 13.6656 18.4454 13.6793 18.4392 13.6861C18.4423 13.4941 18.559 13.3075 18.582 13.1018C18.5621 13.069 18.5283 13.0759 18.4953 13.0766C18.3379 13.2382 18.2289 13.4446 18.1452 13.6442C18.1122 13.6648 18.0516 13.6336 18.0186 13.6069C18.0569 13.5406 18.1022 13.4675 18.1414 13.4004C18.1659 13.3136 18.3648 13.2442 18.2895 13.1338C18.1191 13.2747 17.9218 13.4172 17.812 13.6107C17.7644 13.5856 17.7238 13.546 17.67 13.5338C17.7284 13.4141 17.8535 13.3456 17.9456 13.2519C18.0316 13.2435 18.0508 13.1635 18.1229 13.1231C18.3149 13.0408 18.4784 12.8984 18.602 12.7178C18.681 12.6637 18.7862 12.589 18.8584 12.522C19.3697 12.4466 19.7781 11.8249 20.3101 12.1266L20.3239 12.1662Z" fill="#BBBDBF"/>
<path d="M15.9082 13.0813C15.9351 13.1872 15.988 13.2801 15.9942 13.399C16.008 13.5445 15.9681 13.6626 15.9212 13.7822C15.7685 14.2378 15.2618 14.5418 14.8426 14.7071C14.1164 14.9388 13.2712 14.9784 12.5849 14.6348C12.3116 14.4435 11.9991 14.199 12.0391 13.8218C11.9991 13.6626 12.112 13.5643 12.1389 13.4249C12.1918 13.3198 12.3185 13.22 12.4452 13.207C12.5849 13.1674 12.6778 13.2733 12.7776 13.3129C12.8712 13.3921 12.8843 13.5049 12.9181 13.6039C12.971 13.7822 12.5718 14.0131 12.9181 14.1129C12.9841 14.1258 13.0509 14.1388 13.1238 14.1525C13.2912 14.218 13.4908 14.199 13.6773 14.2249C14.2231 14.1853 14.8357 14.0992 15.162 13.6039C15.2557 13.4516 15.0423 13.3457 15.076 13.207C15.0553 13.1011 15.1021 13.0287 15.149 12.9297C15.2419 12.791 15.4084 12.7773 15.562 12.804C15.6886 12.8703 15.8414 12.9426 15.9082 13.0813Z" fill="#F0B83D"/>
<path d="M17.0735 13.0286C17.0735 13.1673 17.0866 13.3456 16.9737 13.4515C16.933 13.6564 17.1334 13.7821 17.2662 13.9078C17.8458 14.2309 18.7379 14.3436 19.3574 14.0335C19.3904 13.901 19.3113 13.8545 19.2637 13.7555C19.2576 13.5833 19.2177 13.4644 19.3443 13.3258C19.471 13.2069 19.6576 13.1543 19.8303 13.2199C20.0898 13.3989 20.1497 13.7357 20.0898 14.0335C19.9769 14.3962 19.6176 14.6347 19.2637 14.7474C19.2046 14.7474 19.1248 14.787 19.0511 14.813C18.0124 14.9981 16.867 14.7794 16.2675 13.9208C16.1078 13.6496 16.1477 13.2199 16.3404 12.9692C16.474 12.8366 16.6674 12.7711 16.8532 12.8168C16.9269 12.8763 17.0336 12.9296 17.0735 13.0286Z" fill="#F0B83D"/>
<path d="M16.2276 12.7513V12.8039C15.8814 12.89 15.615 12.5989 15.4353 12.3544C15.5351 12.2683 15.6687 12.3414 15.7816 12.3414C15.9681 12.407 16.1409 12.5723 16.2276 12.7513Z" fill="#F0B83D"/>
<path d="M16.7933 12.5723C16.6805 12.586 16.5607 12.6584 16.434 12.6713L16.2137 12.407C16.3074 12.3544 16.454 12.2881 16.5738 12.3544C16.6736 12.394 16.7404 12.487 16.7933 12.5723Z" fill="#F0B83D"/>
<path d="M15.3417 12.5861C15.202 12.5861 15.149 12.6913 15.0223 12.7111L14.703 12.3812L14.716 12.3415C14.9755 12.2951 15.202 12.3873 15.3417 12.5861Z" fill="#F0B83D"/>
<path d="M18.2659 12.5069C18.3058 12.5655 18.3058 12.6783 18.2659 12.7377C18.1922 12.791 18.1193 12.8764 18.0256 12.8169C17.846 12.7248 17.793 12.5594 17.6794 12.407C17.8129 12.3415 17.9327 12.3545 18.0724 12.3545C18.1323 12.401 18.2252 12.4208 18.2659 12.5069Z" fill="#F0B83D"/>
<path d="M17.5733 12.599C17.5733 12.6714 17.6923 12.698 17.6662 12.7773C17.5395 12.8633 17.373 12.8504 17.2401 12.791C17.0866 12.7178 16.9937 12.5395 16.92 12.394C17.0605 12.3079 17.1334 12.3872 17.2931 12.3811C17.3998 12.4268 17.4996 12.4999 17.5733 12.599Z" fill="#F0B83D"/>
<path d="M14.7559 12.7109V12.7513C14.5034 12.8108 14.1832 12.8435 14.0236 12.6127C13.9967 12.5464 14.0166 12.4671 14.0496 12.407C14.3368 12.2683 14.5824 12.4801 14.7559 12.7109Z" fill="#F0B83D"/>
<path d="M15.2418 8.5146C15.2817 8.58697 15.2157 8.69973 15.2956 8.7523C15.4614 8.73249 15.7416 8.86506 15.8076 8.6403V8.52755C15.9281 8.48793 16.0747 8.50164 16.2006 8.5146C16.2544 8.58697 16.1876 8.74621 16.3074 8.7523C16.4471 8.69287 16.7004 8.82544 16.7534 8.6403V8.5146C16.9138 8.44831 17.0996 8.52754 17.2662 8.50164C17.3 8.55421 17.3261 8.62049 17.2931 8.67992C17.2201 8.70582 17.1134 8.67992 17.0865 8.77897C17.0865 8.89097 17.0067 8.99001 16.92 9.03648C16.847 9.10277 16.6804 9.01667 16.6874 9.16219C16.6735 9.21553 16.7073 9.28104 16.6536 9.31457C16.2475 9.36028 15.7945 9.33438 15.4084 9.30086C15.3554 9.23533 15.4153 9.08981 15.2817 9.05019C15.1689 9.01667 15.0153 9.03648 14.9493 8.91763C14.9294 8.85135 14.9424 8.77897 14.8695 8.73249C14.8288 8.69973 14.7559 8.7523 14.729 8.69287C14.6561 8.36907 15.0821 8.5146 15.2418 8.5146Z" fill="#BBBDBF"/>
<path d="M16.6405 9.58499C16.6136 9.67108 16.7203 9.87602 16.5476 9.8364L15.4813 9.82345C15.4153 9.74346 15.4751 9.64441 15.4813 9.55908C15.8275 9.53927 16.2405 9.53927 16.6136 9.55908L16.6405 9.58499Z" fill="#BBBDBF"/>
<path d="M16.6537 10.0284L16.6875 10.9929C16.3405 11.0059 15.8683 10.9929 15.4215 10.98C15.4353 10.6623 15.3885 10.2661 15.4614 9.97505L15.5083 9.94839L16.6138 9.9621L16.6537 10.0284Z" fill="#BBBDBF"/>
<path d="M16.7804 11.1316C16.8471 11.2375 16.8003 11.396 16.8333 11.5148L16.7804 11.5415L15.2688 11.5278C15.2419 11.4028 15.2688 11.2642 15.2957 11.1453C15.8215 11.0859 16.2745 11.1385 16.7804 11.1316Z" fill="#BBBDBF"/>
<path d="M16.9868 11.7594C17.0268 11.8326 17.0268 11.9583 16.9868 12.0238C16.3811 11.991 15.7079 12.0375 15.0891 11.9842C15.0553 11.9179 15.0891 11.8196 15.1152 11.7465C15.7547 11.7267 16.3942 11.7267 16.9868 11.7594Z" fill="#BBBDBF"/>
<path d="M15.162 7.01429C15.0553 7.13314 15.3086 7.29847 15.1021 7.30457C15.0492 7.04095 14.6561 7.33123 14.7559 7.00057C14.729 6.948 14.6093 6.95487 14.6361 6.89544C14.7029 6.87563 14.7759 6.82229 14.8158 6.75601C14.7429 6.61735 14.6024 6.81544 14.5233 6.73011C14.5433 6.73011 14.7029 6.74306 14.7429 6.65697C14.729 6.50535 14.5294 6.61735 14.4358 6.56478L14.4097 6.6044C14.3628 6.3926 14.4895 6.22727 14.4695 6.04289C14.4158 5.97661 14.4964 5.93013 14.5095 5.87756C14.6423 6.2806 15.2887 6.51831 15.162 7.01429Z" fill="#F0B83D"/>
<path d="M18.0722 6.94804C18.086 7.00747 18.0522 7.0867 17.9993 7.14004C17.8857 7.23908 17.6722 7.21241 17.6392 7.37088C17.7598 7.46993 17.8457 7.32517 17.9594 7.31831C18.0522 7.32517 18.1451 7.31145 18.225 7.26498C18.3317 7.17279 18.3655 7.05394 18.4184 6.93509C18.4515 6.90842 18.4983 6.92137 18.5382 6.92137C18.3716 7.11337 18.5981 7.48974 18.3056 7.60859C18.2119 7.64897 18.0722 7.62916 17.9855 7.55602C17.9256 7.49659 17.8726 7.42422 17.7928 7.43031C17.7129 7.56973 17.9655 7.64211 17.9456 7.78763C17.9655 7.91944 17.9056 8.03905 17.7928 8.10458H17.5993C17.6661 8.06496 17.779 8.052 17.8189 7.95296C17.8788 7.82039 17.7728 7.72135 17.7529 7.60859C17.6523 7.48364 17.4857 7.43031 17.3659 7.45698C17.1802 7.50345 16.9468 7.60249 16.9069 7.81354C16.88 7.96591 16.88 8.17086 16.867 8.29657C16.7533 8.09772 16.7672 7.79373 16.9069 7.59564C16.9936 7.43717 17.2132 7.48364 17.2531 7.29165C17.4727 7.0867 17.8857 7.21241 17.9855 6.86195C18.0384 6.86195 18.0384 6.92138 18.0722 6.94804Z" fill="#F0B83D"/>
<path d="M15.4353 7.40449C15.4153 7.49668 15.3554 7.62924 15.4353 7.71457C15.5351 7.72829 15.575 7.60257 15.6618 7.56981L15.9611 7.50963C15.8276 7.59572 15.7017 7.72829 15.562 7.80066C15.5151 7.82733 15.5013 7.76104 15.4614 7.76104C15.3823 7.80752 15.4023 7.93323 15.2956 7.96599C15.3286 7.90657 15.3616 7.83419 15.3416 7.774C15.3217 7.76105 15.3086 7.73438 15.2818 7.74809C15.2088 7.81362 15.2088 7.90657 15.129 7.96599C15.109 7.92638 15.129 7.84714 15.0622 7.81361C14.9493 7.82733 15.0085 8.11837 14.8695 7.93933C14.7958 7.93323 14.7628 8.02542 14.7029 8.04523C14.729 8.02542 14.729 7.91342 14.6492 7.89971L14.5095 8.00561L14.4964 7.8799C14.3897 7.83419 14.3229 7.96599 14.2431 8.00561C14.2032 7.93323 14.4834 7.88676 14.3298 7.78771C14.2431 7.774 14.2032 7.8799 14.1233 7.8799C14.1632 7.75419 14.3168 7.80066 14.3567 7.68867C14.4757 7.76104 14.6561 7.73438 14.7689 7.662C14.9424 7.46391 15.2019 7.41058 15.4353 7.40449Z" fill="#F0B83D"/>
<path d="M16.1876 7.68867C16.1477 7.83419 16.1347 8.06504 16.2007 8.21056V8.30961C16.0211 8.34237 15.7746 8.29666 15.641 8.34922C15.608 8.44217 15.6549 8.51455 15.6019 8.60065L15.4353 8.58693C15.3823 8.5016 15.4952 8.34237 15.3417 8.30961C15.3086 8.32256 15.2557 8.32256 15.2288 8.28294C15.2158 8.16409 15.3286 8.13742 15.4084 8.09171C15.5351 7.93324 15.7347 7.87991 15.8683 7.73439C15.9742 7.71458 16.0679 7.62925 16.1278 7.52335C16.2613 7.51649 16.1477 7.62924 16.1876 7.68867Z" fill="#F0B83D"/>
<path d="M16.7134 5.36874C16.7603 5.34208 16.7534 5.2697 16.8202 5.2956C16.9537 5.3817 16.88 5.67959 17.1134 5.5996C17.1932 5.73826 16.8271 5.71235 16.9737 5.87768C17.0197 5.86397 17.0865 5.85102 17.0996 5.9173C17.0934 5.98358 17.1134 6.07577 17.0336 6.09558H16.9998C16.9998 6.04301 17.0735 5.97673 16.9867 5.94321C16.9269 5.93026 16.9069 5.97673 16.88 5.9173C16.887 5.88378 16.9468 5.85101 16.9069 5.80454C16.8332 5.79159 16.7672 5.66588 16.6873 5.75197C16.6405 5.7253 16.6674 5.64607 16.6006 5.65293C16.5476 5.63921 16.4878 5.67959 16.4471 5.72531C16.4271 5.55388 16.414 5.41446 16.4609 5.22932C16.5607 5.24989 16.6136 5.36189 16.7134 5.36874Z" fill="#F0B83D"/>
<path d="M14.4358 5.62623C14.2761 5.68566 14.4696 5.86394 14.3298 5.94318C14.3368 6.05594 14.3698 6.14812 14.303 6.24792C14.2032 6.18164 14.1564 6.06279 14.1095 5.95689C14.1502 5.82432 14.1832 5.67271 14.2692 5.57366L14.303 5.47385C14.3698 5.49443 14.3897 5.57976 14.4358 5.62623Z" fill="#F0B83D"/>
<path d="M16.1546 5.68564C16.1546 5.70545 16.1546 5.75802 16.2007 5.77783H16.2406C16.2544 5.81821 16.2007 5.81135 16.2007 5.84411C16.1945 5.91039 16.2475 5.96982 16.3074 5.98353C16.3542 5.98963 16.3872 5.98353 16.4202 5.95687C16.3673 5.97668 16.2943 6.0361 16.2275 6.00944C16.1277 5.96373 16.2544 5.79154 16.1147 5.77783C16.021 5.85782 16.0748 6.00944 16.008 6.08258C15.9811 6.19458 15.8744 6.29362 15.935 6.42619C15.9013 6.55799 15.7815 6.5717 15.6748 6.61742C15.555 6.64408 15.4284 6.64409 15.3286 6.69666C15.3754 6.41933 15.7815 6.53818 15.8544 6.2479C15.7616 6.17476 15.6886 6.31343 15.6019 6.34009L15.4614 6.38657C15.4483 6.32028 15.5082 6.26086 15.5481 6.20753C15.628 6.18163 15.7216 6.08867 15.8076 6.1481C15.8813 6.14201 15.8475 6.04906 15.8414 6.00944C15.7685 5.94315 15.7946 5.85782 15.8276 5.77783L15.8544 5.75192C15.8882 5.80449 15.9412 5.85782 16.008 5.86392C16.0878 5.78468 15.9542 5.64602 16.0609 5.55993C16.1147 5.59954 16.2137 5.57974 16.1546 5.68564Z" fill="#F0B83D"/>
<path d="M16.1746 6.65705C16.0679 6.79647 15.9742 6.90847 15.9742 7.0738C16.0011 7.10656 16.0349 7.12027 16.0748 7.11342C15.9811 7.32522 15.7347 7.2917 15.5881 7.43036C15.595 7.23913 15.8944 7.15303 15.9082 6.93514C15.8882 6.90847 15.8683 6.90162 15.8414 6.90847C15.7286 7.04104 15.5819 7.17284 15.4813 7.31836C15.4023 7.14617 15.7815 7.01437 15.7286 6.75609C15.8944 6.7759 16.021 6.40639 16.1746 6.65705Z" fill="#F0B83D"/>
<path d="M15.575 6.78284C15.6219 6.97484 15.3555 7.04722 15.3148 7.20569C15.2488 7.12036 15.2618 7.04721 15.2956 6.93522C15.3355 6.8156 15.4614 6.7897 15.575 6.78284Z" fill="#F0B83D"/>
<path d="M16.4202 6.31346C16.4141 6.34698 16.3811 6.35993 16.3673 6.3866H16.3074C16.2943 6.34698 16.3342 6.32641 16.3404 6.3005C16.3672 6.3066 16.4003 6.29365 16.4202 6.31346Z" fill="#F0B83D"/>
<path d="M16.9331 6.45216C16.9538 6.49178 16.907 6.49178 16.8939 6.50549C16.8202 6.50549 16.8141 6.42625 16.7934 6.37292C16.7934 6.34702 16.8003 6.30055 16.8333 6.3135C16.8333 6.37293 16.8801 6.43235 16.9331 6.45216Z" fill="#F0B83D"/>
<path d="M16.7273 6.55187C16.7872 6.60444 16.8402 6.65701 16.8333 6.7431C16.8271 6.73624 16.8202 6.72329 16.8072 6.73015C16.8003 6.76976 16.8333 6.80938 16.7803 6.849C16.7074 6.77586 16.7603 6.59072 16.6268 6.55187C16.5408 6.61053 16.6206 6.70348 16.6137 6.78272C16.5538 6.71643 16.4203 6.68367 16.474 6.57777C16.5408 6.53816 16.5677 6.43225 16.6536 6.41244L16.7273 6.55187Z" fill="#F0B83D"/>
<path d="M16.5069 7.00061C16.4409 6.94118 16.4609 6.849 16.381 6.79643C16.447 6.82919 16.5138 6.91528 16.5069 7.00061Z" fill="#F0B83D"/>
<path d="M16.3811 7.20553L16.3404 7.29163C16.3742 7.15296 16.1078 7.04097 16.3212 6.93506C16.3603 7.02039 16.4202 7.11335 16.3811 7.20553Z" fill="#F0B83D"/>
<path d="M16.2068 6.25397L16.1454 6.20826C16.1454 6.20826 16.1293 6.26159 16.16 6.30044C16.1914 6.33854 16.2068 6.25397 16.2068 6.25397Z" fill="#F0B83D"/>
<path fill-rule="evenodd" clip-rule="evenodd" d="M16.56 6.1991C16.56 6.1991 16.6398 6.13967 16.7028 6.13814C16.6805 6.14043 16.6145 6.14271 16.6145 6.14271C16.6145 6.14271 16.583 6.09243 16.583 5.99644C16.5638 6.10081 16.5324 6.16557 16.5324 6.16557L16.56 6.1991Z" fill="#F0B83D"/>
<path d="M23.6396 9.21542C23.926 9.30075 24.1923 9.59864 24.2921 9.87597C24.4856 10.6165 24.4188 11.4493 23.7663 11.9376C23.5736 11.9841 23.3141 11.9376 23.2266 12.1494C23.2465 12.2355 23.3402 12.1494 23.3801 12.2157C23.1537 12.189 22.9602 12.3475 22.8075 12.5197C22.7936 12.5921 22.7276 12.6652 22.7537 12.7376C22.6209 12.8504 22.5142 12.9761 22.5341 13.1475C22.548 13.1741 22.574 13.181 22.6009 13.181C22.5011 13.3197 22.4343 13.5109 22.5211 13.6564C22.5341 13.6762 22.548 13.696 22.5741 13.6892C22.6608 13.5376 22.7675 13.4317 22.9334 13.3852H23.1399C22.9602 13.4385 22.7407 13.5109 22.6739 13.7158C22.5879 13.8743 22.5879 14.0793 22.6739 14.2377C22.8335 14.4625 23.1007 14.608 23.407 14.5821L23.546 14.5417C23.5598 14.8 23.7064 15.1169 23.473 15.3089C23.2136 15.6061 22.8405 15.6457 22.4881 15.7249C22.4743 15.7379 22.4474 15.7516 22.4474 15.7775C22.548 15.8575 22.667 15.7447 22.7936 15.7645C23.1007 15.6724 23.407 15.5863 23.6396 15.3219C23.7125 15.4941 23.7932 15.7249 23.6795 15.9032C23.546 16.0556 23.3602 16.2072 23.1667 16.2735C22.7007 16.4921 22.135 16.6041 21.5884 16.518H21.5484C21.5223 16.4853 21.4555 16.4853 21.4087 16.4655C21.3619 16.3992 21.2222 16.4457 21.2291 16.3398C21.6751 16.2407 22.1281 16.0091 22.3415 15.5863C22.4674 15.3813 22.8405 15.507 22.8673 15.1832C22.7936 15.1307 22.7276 15.2297 22.6539 15.2556C22.4942 15.296 22.3675 15.3547 22.201 15.3219C22.0014 15.4011 21.9016 15.6198 21.8555 15.8042C21.7688 15.811 21.7281 15.9101 21.6621 15.9428C21.5623 15.7981 21.4617 16.0358 21.3557 16.0556C21.2552 16.0822 21.1953 16.0617 21.1024 16.1089C20.8491 16.2605 20.4829 16.3794 20.3969 16.71C20.423 17.0011 20.1835 17.2388 20.2764 17.4963C20.3032 17.7744 20.5765 18.0578 20.3562 18.3359C20.3301 18.3953 20.3969 18.441 20.4368 18.4479C20.5228 18.4151 20.5297 18.5012 20.5635 18.5408C20.6764 18.6726 20.836 18.7785 20.9696 18.8974C20.8161 18.9104 20.6694 18.7854 20.5766 18.6795C20.5566 18.6993 20.509 18.6993 20.509 18.7321C20.6096 18.9043 20.6894 19.1351 20.8959 19.2014C20.9228 19.2212 20.9028 19.2608 20.9358 19.2677C20.9496 19.1953 21.0356 19.241 21.0763 19.241C21.0894 19.2608 21.1093 19.2677 21.1024 19.2875C20.7892 19.3736 20.6763 19.0361 20.5228 18.8448C20.5297 18.7854 20.5029 18.7321 20.4568 18.7062C20.3969 18.7062 20.3301 18.7062 20.3163 18.7587C20.3831 19.0894 20.476 19.4399 20.7692 19.6844C20.3969 19.5183 20.4299 19.0757 20.2564 18.7785C20.2165 18.7587 20.1835 18.8052 20.1766 18.8311C20.1904 19.1686 20.2303 19.4985 20.3831 19.7766C20.1697 19.737 20.1566 19.4924 20.1098 19.3271C20.0768 18.9439 20.1973 18.5736 20.0369 18.2369C20.0438 17.8338 20.0898 17.3576 19.9969 16.9477C20.0307 16.7695 20.0238 16.5714 20.1098 16.4121C20.2633 16.2141 20.4169 16.0228 20.6027 15.8575L20.6234 15.8704L20.6763 15.7645L21.3158 15.1307C21.3488 14.8594 21.2552 14.5356 21.3289 14.2515C21.3289 14.205 21.4087 14.1524 21.3419 14.1128C21.2291 14.1585 21.2153 14.2911 21.1761 14.3901C21.1485 14.6476 21.2291 14.899 21.1024 15.1169C21.0026 15.1634 20.9627 15.1101 20.9358 15.0179C20.9358 14.813 20.8759 14.6278 20.9358 14.4434C20.9427 14.3962 20.9289 14.3566 20.8959 14.317C20.7562 14.3505 20.823 14.5158 20.7892 14.608V15.3348C20.6295 14.7269 20.6764 14.0793 21.0625 13.5505C21.2153 12.7444 21.8685 11.9582 22.6408 11.6207C22.7875 11.5681 22.9333 11.3494 23.1007 11.5018C23.1268 11.5018 23.1536 11.495 23.1667 11.4752C23.1797 11.4157 23.1137 11.4294 23.1007 11.3891C23.2005 11.2969 23.3333 11.4622 23.4869 11.4028C23.513 11.3959 23.4999 11.3693 23.4999 11.3494C23.4531 11.3098 23.3932 11.3167 23.3463 11.2641C23.493 11.3098 23.6596 11.2573 23.7394 11.1582C23.6665 11.1117 23.5936 11.191 23.5337 11.1315C23.5736 11.0462 23.6795 10.9533 23.7663 10.8801C23.853 10.6889 24.0457 10.5038 23.9728 10.279C23.8661 10.3118 23.886 10.4443 23.8461 10.5236C23.7793 10.6097 23.7732 10.7483 23.6396 10.7681C23.5268 10.7681 23.4331 10.7613 23.3463 10.8672C23.2404 10.7811 23.1598 10.9799 23.047 10.9068C22.8336 10.8611 22.8604 10.5967 22.6877 10.5106C22.594 10.6097 22.7537 10.8276 22.548 10.8542C22.4474 10.874 22.3346 10.9136 22.2939 11.0196C22.3008 11.1453 22.3077 11.2839 22.1749 11.3365L22.128 11.3235C22.1749 11.2375 22.2478 11.1453 22.201 11.0325C22.1879 10.9601 22.1012 10.9266 22.0482 10.8938C21.7688 10.8611 21.6022 11.3693 21.3289 11.0462C21.2828 10.2859 22.2279 10.0482 22.4612 9.42646C22.6739 9.22837 22.9203 9.00362 23.2266 9.02343C23.3532 9.10266 23.46 9.24132 23.6396 9.21542Z" fill="#BBBDBF"/>
<path d="M23.906 16.5318C23.4401 17.0339 22.7937 17.2388 22.1281 17.1923C21.9615 17.1596 21.8479 17.1131 21.6882 17.0537C21.5155 16.9676 21.4556 16.7824 21.3689 16.6301C22.0882 16.7824 22.8206 16.6369 23.4071 16.2864C23.5399 16.1745 23.6796 16.0686 23.8193 15.9566C23.8861 16.1348 24.0389 16.3398 23.906 16.5318Z" fill="#BBBDBF"/>
<path d="M24.1654 16.7695C24.2192 16.8617 24.2122 16.9943 24.1923 17.1002C23.9727 17.5032 23.506 17.6678 23.0738 17.7409C22.6009 17.7341 21.9813 17.8468 21.7817 17.2785L21.7687 17.2648C21.8954 17.2518 22.0681 17.3509 22.2408 17.331C22.9271 17.3844 23.5935 17.1002 24.0257 16.5913C24.1324 16.6042 24.1055 16.717 24.1654 16.7695Z" fill="#BBBDBF"/>
<path d="M24.4456 17.4438C24.4986 17.6419 24.332 17.7539 24.2522 17.8933C23.7662 18.2567 23.0201 18.5013 22.4474 18.1577C22.3744 18.0518 22.2877 17.9527 22.2278 17.84C22.541 17.8666 22.954 17.9725 23.2933 17.8537C23.5997 17.7874 23.8591 17.6289 24.1125 17.4301C24.1793 17.3577 24.246 17.2449 24.332 17.219L24.4456 17.4438Z" fill="#BBBDBF"/>
<path d="M24.6652 18.0052C24.6122 18.3557 24.2123 18.6399 23.8929 18.7321C23.5735 18.825 23.1467 18.8776 22.8811 18.6399L22.7145 18.4479C22.9801 18.441 23.3532 18.4746 23.6265 18.3626C23.8391 18.3161 24.0525 18.1706 24.2521 18.0578C24.3658 17.9588 24.4257 17.8071 24.5585 17.7279C24.6184 17.8071 24.6122 17.9191 24.6652 18.0052Z" fill="#BBBDBF"/>
<path d="M24.8056 18.4151C24.8586 18.5667 24.8317 18.7587 24.7181 18.8715C24.4525 19.2281 23.9995 19.334 23.5597 19.2547C23.38 19.2014 23.2664 19.1023 23.1536 18.9568C23.7531 19.0231 24.4318 18.8182 24.7051 18.2368C24.7718 18.2627 24.7649 18.3626 24.8056 18.4151Z" fill="#BBBDBF"/>
<path d="M24.8848 19.3401C24.6322 19.6639 24.1655 19.6975 23.8062 19.6312C23.7064 19.5916 23.6396 19.4925 23.5866 19.4064C24.0787 19.4796 24.6253 19.3074 24.9055 18.8449C24.9784 18.9897 24.9915 19.2015 24.8848 19.3401Z" fill="#BBBDBF"/>
<path d="M24.9853 19.8627C24.7181 20.0478 24.319 20.1004 24.0126 19.9747C23.9397 19.948 23.9328 19.8627 23.8929 19.8094C24.2859 19.8231 24.7389 19.7766 24.9984 19.4063C25.0582 19.5389 25.0713 19.7439 24.9853 19.8627Z" fill="#BBBDBF"/>
<path d="M24.9446 20.358C24.7389 20.4837 24.4126 20.4707 24.1793 20.3717C24.1393 20.3115 24.0725 20.246 24.0994 20.1797C24.4257 20.2391 24.7581 20.153 25.0252 19.9877C24.9984 20.0806 25.0851 20.2856 24.9446 20.358Z" fill="#BBBDBF"/>
<path d="M24.9177 20.7152C24.7319 20.8668 24.4387 20.834 24.2391 20.7418C24.1593 20.6817 24.1861 20.6291 24.1792 20.5361C24.4057 20.6024 24.7389 20.6557 24.9584 20.4965C24.9646 20.5628 24.9515 20.6489 24.9177 20.7152Z" fill="#BBBDBF"/>
<path d="M24.8449 20.9065C24.8119 21.039 24.7389 21.151 24.6652 21.2638C24.5125 21.2905 24.332 21.2965 24.2261 21.1708C24.1862 21.0718 24.1324 20.9994 24.1923 20.8935C24.3988 20.9598 24.6391 21.0055 24.8449 20.9065Z" fill="#BBBDBF"/>
<path d="M24.4057 21.4025C24.4587 21.3629 24.5317 21.3758 24.5854 21.3888C24.299 21.7788 23.906 22.0767 23.46 22.156C23.1467 22.1491 22.8404 22.268 22.6278 22.0105C22.5879 21.9114 22.6339 21.8124 22.7007 21.7331C23.06 21.4688 23.4868 21.4688 23.893 21.3034L23.906 21.3232C23.8131 21.5084 23.6066 21.6668 23.4331 21.7728V21.8124C23.6197 21.8718 23.7325 21.6669 23.906 21.6333C23.9259 21.7461 24.0526 21.7461 24.1263 21.759C24.1393 21.7461 24.1655 21.7331 24.1655 21.7065C24.0933 21.6539 24.0058 21.6272 23.9858 21.5282C24.0196 21.4291 24.0326 21.3232 24.1263 21.2501C24.1862 21.343 24.299 21.3827 24.4057 21.4025Z" fill="#BBBDBF"/>
<path d="M23.0001 8.66691L22.9202 8.58691L22.8811 8.64024C22.9003 8.65319 22.8872 8.67986 22.8941 8.69281C22.8473 8.57396 22.8074 8.4353 22.8204 8.30959C22.9141 8.41549 22.987 8.52748 23.0001 8.66691Z" fill="#BBBDBF"/>
<path d="M22.6877 8.79181C22.7008 8.81848 22.6071 8.73924 22.5879 8.81848V8.88477C22.528 8.81848 22.4674 8.73238 22.5081 8.6402C22.581 8.65315 22.6539 8.71944 22.6877 8.79181Z" fill="#BBBDBF"/>
<path d="M20.3432 14.4435C20.3831 14.7407 20.5297 14.9913 20.5896 15.2824C20.4568 15.3951 20.2833 15.2161 20.1904 15.3951C19.9708 15.6656 20.2971 16.1151 19.957 16.3398C19.7636 16.7566 19.8972 17.2846 19.9102 17.6884C19.8641 17.9924 19.8703 18.3421 19.9709 18.6666C19.6638 17.4499 19.0711 16.1547 19.6239 14.8991C19.7705 14.6614 20.0039 14.4031 20.3033 14.4031L20.3432 14.4435Z" fill="#F0B83D"/>
<path d="M23.6395 8.50155C23.6794 8.63336 23.5059 8.75221 23.6264 8.83145C23.7731 8.72631 23.7662 8.44822 23.9996 8.43527C23.9996 8.58688 23.9059 8.73241 23.879 8.88478L23.9059 8.91754C24.0725 8.8185 24.0725 8.6006 24.279 8.56708C24.2921 8.73926 24.1654 8.88478 24.1124 9.0364C24.2191 9.08287 24.2521 8.94421 24.3458 8.89773C24.4057 8.87792 24.4525 8.82535 24.5254 8.84516C24.4724 8.98383 24.2859 9.08287 24.3189 9.22839C24.4525 9.22839 24.5124 9.01049 24.6651 9.02344C24.5984 9.16896 24.3857 9.2482 24.4456 9.40667C24.5914 9.38 24.6651 9.18192 24.8317 9.21544C24.7918 9.3541 24.5055 9.44629 24.5984 9.61847C24.6989 9.59181 24.765 9.4661 24.8847 9.49276C24.7849 9.572 24.5853 9.65809 24.6252 9.8097C24.7718 9.77009 24.8916 9.59181 25.0513 9.65809C25.0321 9.7038 24.9446 9.72437 24.9584 9.79675C24.9715 9.86913 25.0513 9.84932 25.0981 9.88894C24.9853 9.82951 24.8647 9.88284 24.778 9.94837C24.8056 10.0543 24.9315 9.96208 24.9853 10.0284C24.9515 10.0413 24.9054 10.0284 24.8847 10.068C24.9177 10.167 25.0451 10.1929 25.1511 10.1929C25.2647 10.2463 25.3177 10.3583 25.3714 10.4573C25.1849 10.4573 25.105 10.292 24.9315 10.279C24.8916 10.279 24.8716 10.3385 24.9054 10.3583C25.0582 10.5167 25.3514 10.6165 25.3576 10.8672C25.191 10.788 25.0452 10.6554 24.8448 10.6493C24.7918 10.7811 24.9715 10.788 25.0383 10.8542C25.1311 10.9403 25.2109 11.0325 25.2317 11.1453C25.1112 11.0264 24.9515 10.8801 24.778 10.8939C24.7519 10.9137 24.7649 10.9533 24.7649 10.98C24.7849 11.0394 24.8517 11.0059 24.8847 11.0325C25.1711 11.2177 25.125 11.5681 25.2516 11.8325C24.9714 11.7403 24.9852 11.3959 24.7181 11.2969C24.6252 11.3891 24.8187 11.4752 24.8448 11.5681C24.9784 11.8058 25.0651 12.1365 24.9315 12.394C24.5584 12.7643 23.9927 12.9365 23.879 13.4782C23.7125 13.8545 23.1336 13.789 23.1536 14.2644C23.0599 14.1852 23.1198 14.0526 23.1398 13.9604C23.2864 13.6831 23.6863 13.7951 23.7662 13.4911C23.7462 13.4584 23.7124 13.4644 23.6794 13.4644C23.433 13.6625 22.9939 13.7098 22.9471 14.0991C22.9333 14.1989 23 14.2713 23.02 14.3635C22.8941 14.304 22.8004 14.1524 22.7805 14.0199C22.7935 13.8347 22.881 13.6762 23.0599 13.5902C23.3194 13.5239 23.6265 13.4713 23.846 13.2603C23.8529 13.2336 23.846 13.2069 23.8192 13.194C23.6464 13.2534 23.4399 13.3128 23.2534 13.2466C23.0538 13.1673 22.8273 13.2664 22.6538 13.3723C22.6538 13.2664 22.7536 13.1871 22.8335 13.1208C23.1735 12.9959 23.5059 13.2267 23.879 13.1673C23.9197 13.1277 23.9589 13.0744 23.9458 13.002C24.0126 12.9761 24.0993 12.9426 24.1262 12.8763C24.0594 12.8435 23.9328 12.8763 23.846 12.8504C23.6134 12.7643 23.6334 12.4405 23.3462 12.4336H23.1006C23.1866 12.3544 23.3194 12.3544 23.433 12.3811C23.7393 12.487 23.8061 12.9692 24.2053 12.7909C24.2521 12.7574 24.3258 12.7772 24.3588 12.7109L24.3059 12.6584C24.1723 12.6386 24.0126 12.6911 23.9059 12.6127C23.7792 12.4534 23.7662 12.2355 23.5735 12.1167C23.6733 12.103 23.7792 12.1433 23.879 12.1891C24.0656 12.4009 24.2721 12.6523 24.5853 12.5464C24.6252 12.5197 24.6851 12.5197 24.7181 12.4603L24.7051 12.4207C24.5124 12.394 24.2122 12.4603 24.1124 12.2157C24.0787 12.1692 24.1124 12.1235 24.1262 12.0763C24.2652 12.2226 24.4786 12.4138 24.7388 12.3414C24.8056 12.282 24.9515 12.3018 24.9584 12.1761C24.8717 12.0633 24.7987 12.2089 24.7051 12.2028C24.5914 12.2089 24.4786 12.2028 24.4057 12.1167C24.2652 11.7594 24.6989 11.5346 24.6521 11.1582C24.7918 10.4245 24.6183 9.52552 23.9197 9.06306C23.7393 8.96401 23.5458 8.87792 23.3462 8.81849C23.2933 8.71259 23.4399 8.64022 23.4868 8.56708C23.506 8.4947 23.5597 8.42842 23.5459 8.33623C23.5934 8.36899 23.6196 8.44213 23.6395 8.50155Z" fill="#F0B83D"/>
<path d="M23.6795 13.002C23.4001 13.0812 23.1667 12.6386 22.8335 12.8169C22.9602 12.6782 23.1536 12.6911 23.3195 12.7247C23.4668 12.7772 23.5129 12.989 23.6795 13.002Z" fill="#F0B83D"/>
<path d="M24.1523 14.6743C24.1055 14.8723 23.9996 15.1634 24.1393 15.3615C24.1992 15.494 24.3189 15.5862 24.4187 15.6792C24.3128 15.8575 24.2191 16.0754 24.3588 16.2605C24.4456 16.419 24.7719 16.4258 24.5723 16.6437C24.5185 16.7626 24.5254 16.8616 24.5254 17.001C24.1592 16.2011 23.813 15.3348 23.8591 14.4167C23.9458 14.5089 24.0387 14.6346 24.1523 14.6743Z" fill="#F0B83D"/>
<path d="M24.9584 17.4963C24.9316 17.6548 24.778 17.7935 24.8717 17.9656C24.9446 18.0975 25.0651 18.2171 25.191 18.2826C25.1312 18.3953 25.0981 18.5272 25.0513 18.6536C24.8786 18.1774 24.7919 17.6617 24.5984 17.1923C24.699 17.318 24.8387 17.3973 24.9584 17.4963Z" fill="#F0B83D"/>
<path d="M25.3047 19.1885L25.165 19.3401C25.1312 19.2083 25.1251 19.0628 25.1112 18.9242C25.1588 19.043 25.2648 19.0628 25.3047 19.1885Z" fill="#F0B83D"/>
<path fill-rule="evenodd" clip-rule="evenodd" d="M20.1981 14.2126C20.1551 14.2256 20.2472 14.1464 20.2534 14.0976C20.2595 14.0481 20.2841 14.2073 20.2841 14.2073C20.2841 14.2073 20.2411 14.2012 20.1981 14.2126Z" fill="#231F20"/>
<path d="M22.7276 13.0424L22.7805 13.002H22.8204L22.7276 13.0424Z" fill="#BBBDBF"/>
<path d="M23.5129 14.086C23.5659 14.1782 23.5336 14.2971 23.5459 14.403C23.506 14.4624 23.4469 14.403 23.407 14.403C23.3264 14.3504 23.2803 14.2582 23.3195 14.1653C23.3533 14.1188 23.3671 14.0464 23.42 14.0197C23.4868 13.9931 23.4799 14.0792 23.5129 14.086Z" fill="#F0B83D"/>
<path d="M23.0601 9.51949C23.1338 9.49283 23.2205 9.51263 23.2804 9.55911C23.3141 9.63148 23.2266 9.63834 23.2005 9.6711C22.9203 9.73739 22.7008 10.0284 22.3814 9.87605C22.3945 9.80291 22.4544 9.74348 22.4881 9.6711C22.5411 9.59873 22.614 9.53244 22.7008 9.50577C22.8205 9.51263 22.9541 9.68406 23.0601 9.51949Z" fill="#231F20"/>
<path d="M25.0251 17.827C24.9714 17.648 25.4581 17.3905 25.0251 17.3577C24.9445 17.3044 24.8447 17.2518 24.8056 17.1528C25.0651 17.0933 25.3307 17.0537 25.6109 17.0271C25.6508 17.0537 25.7107 17.0408 25.7437 17.0865C25.8236 17.1261 25.8036 17.2449 25.7905 17.3181C25.7176 17.3905 25.637 17.4834 25.5641 17.523C25.5641 17.5497 25.5111 17.5893 25.5641 17.6091C25.4029 17.7066 25.0781 17.8141 25.0251 17.827Z" fill="#BBBDBF"/>
<path d="M25.9841 13.7296C26.1107 13.8545 26.1967 14.0199 26.3702 14.0991C26.4101 14.093 26.4301 14.0526 26.4431 14.0199C26.6235 14.2248 26.6964 14.509 26.8032 14.7604C26.83 14.7604 26.863 14.7673 26.883 14.7337C26.9559 14.925 26.9099 15.0972 26.9222 15.3219C27.0557 15.5398 26.9698 15.8377 26.8961 16.0556C26.8492 16.2407 26.6235 16.2804 26.5767 16.4655C26.6435 16.5447 26.6965 16.4655 26.7694 16.4518C26.9291 16.4259 27.0496 16.4853 27.1624 16.5646C27.1095 16.7299 27.0028 16.9082 26.83 16.9874C26.7901 17.0011 26.7763 17.0407 26.7901 17.0864C26.9222 17.1862 27.1164 17.1459 27.2293 17.3043C27.369 17.4499 27.4219 17.6289 27.4956 17.8003C27.3628 17.8666 27.5025 17.9855 27.4826 18.0845C27.4618 18.2369 27.6684 18.4281 27.4956 18.5538C27.4488 18.726 27.3889 18.8913 27.3958 19.0757C27.2492 19.2479 27.2024 19.4597 26.9828 19.5587C26.863 19.6311 26.7495 19.7568 26.6635 19.8627C26.5967 19.7302 26.7233 19.5854 26.7164 19.433C26.8162 19.1153 27.0158 18.8052 26.883 18.435C26.7962 18.0914 26.503 17.827 26.1637 17.7409C25.8305 17.7013 25.4843 17.7013 25.191 17.7874C25.1381 17.8003 25.0782 17.814 25.0252 17.827C25.2847 17.7318 25.3991 17.6799 25.5641 17.6091C25.7108 17.5093 25.9242 17.4171 25.9572 17.219C25.9372 17.139 25.9303 17.0468 25.8843 16.9744C25.7177 16.8221 25.5311 16.9211 25.3308 16.8883L25.0383 16.9211C25.5641 16.5714 25.9641 15.9962 26.0639 15.3615C26.1299 14.8267 26.0101 14.2515 25.9572 13.7296H25.9841Z" fill="#F0B83D"/>
<path d="M26.2305 14.1387C26.4769 14.8656 26.3901 15.6991 26.0907 16.3665C26.0639 16.4191 26.004 16.4853 25.9441 16.4389C25.8973 16.333 25.9971 16.221 26.0501 16.1212C26.2504 15.5863 26.3833 14.9715 26.2036 14.3902C26.1706 14.2972 26.1437 14.1989 26.1767 14.0991C26.1967 14.0991 26.2166 14.1258 26.2305 14.1387Z" fill="#231F20"/>
<path d="M26.7038 15.1958V15.2428H26.6634V15.1696C26.6828 15.1696 26.7038 15.1758 26.7038 15.1958Z" fill="#231F20"/>
<path d="M26.5369 16.1615C26.4371 16.2865 26.3903 16.4922 26.2037 16.5181C26.1239 16.3466 26.3772 16.2735 26.4102 16.1089C26.5568 15.8834 26.5899 15.613 26.6497 15.3486L26.6897 15.3219C26.7035 15.613 26.6236 15.8971 26.5369 16.1615Z" fill="#231F20"/>
<path d="M27.1365 17.7013C27.2831 17.9398 27.356 18.2628 27.2831 18.5409C27.2293 18.4685 27.2754 18.4022 27.2424 18.323C27.1825 17.9855 27.0229 17.6678 26.7035 17.4438C26.6966 17.3973 26.7235 17.3379 26.7903 17.3577C26.9223 17.4499 27.0359 17.5695 27.1365 17.7013Z" fill="#231F20"/>
<path d="M27.0757 18.7588C27.0158 19.0628 26.9368 19.3935 26.7694 19.6708C26.7495 19.6578 26.7425 19.6243 26.7425 19.5854C26.7694 19.5184 26.8101 19.4529 26.8162 19.3668C26.883 19.1291 26.9698 18.8975 26.9966 18.64C26.9828 18.3421 26.8362 18.0716 26.6236 17.84C26.6097 17.8072 26.6236 17.7676 26.6635 17.7607C26.9967 17.9794 27.1233 18.4022 27.0757 18.7588Z" fill="#231F20"/>
<path d="M28.1414 21.2236C28.1951 21.6602 27.769 22.0502 27.4489 22.2819L27.2025 22.4335C27.0697 22.1363 26.956 21.7988 26.8693 21.4689C27.1364 21.2442 27.4758 21.1847 27.8151 21.0987C27.9357 21.1581 28.0685 21.0788 28.1414 21.2236Z" fill="#00B6F1" stroke="white" stroke-width="0.270487" stroke-miterlimit="3.864"/>
<path d="M28.9474 21.8321C29.094 22.453 29.507 23.0085 29.3934 23.7155C28.9543 24.6473 27.9217 25.077 27.0627 25.4739C26.9629 25.4998 26.8692 25.5394 26.7564 25.5394C26.5031 24.8591 26.3104 24.1581 26.1238 23.4511C26.2106 23.4054 26.3564 23.4184 26.457 23.3521C27.369 23.0481 28.4215 22.5788 28.8076 21.5807C28.8737 21.6272 28.9013 21.746 28.9474 21.8321Z" fill="#00B6F1" stroke="white" stroke-width="0.270487" stroke-miterlimit="3.864"/>
<path d="M25.2916 23.3522C25.2778 23.4116 25.211 23.4642 25.1649 23.4909C25.0582 23.5571 24.9584 23.6234 24.8448 23.6691C24.9116 23.564 25.1181 23.4055 25.2916 23.3522Z" fill="#00B6F1" stroke="#00B6F1" stroke-width="0.270487" stroke-miterlimit="3.864"/>
<path d="M8.38253 24.8264C9.50105 25.1502 10.6073 25.487 11.7657 25.7049C12.6846 25.9494 13.7034 26.0226 14.7029 26.1216C16.1607 26.3068 17.6393 26.082 19.0242 25.9426C20.1036 25.791 21.1484 25.5464 22.1748 25.2561C23.3869 24.9186 24.6183 24.6344 25.677 23.9343L25.9441 23.6295L25.9971 23.6829C26.1967 24.4691 26.457 25.2295 26.7295 25.983C26.7963 26.2534 26.8631 26.6108 26.6235 26.8089C24.7987 27.8397 22.8073 28.3219 20.743 28.7715C20.3231 28.8179 19.8702 28.904 19.4572 28.9634C17.9594 29.1486 16.3012 29.1874 14.7559 29.1486C14.2231 29.128 13.7371 29.0823 13.2174 29.0229C12.452 28.9901 11.7327 28.8309 10.9996 28.7052C9.07498 28.296 7.13733 27.8008 5.4323 26.8485C5.21889 26.6969 5.17284 26.4721 5.21276 26.2405C5.41236 25.5137 5.69869 24.8264 5.9052 24.0988C5.95202 23.9274 5.98504 23.7552 6.07179 23.6036C6.71127 24.2977 7.56341 24.5354 8.38253 24.8264Z" fill="#00B6F1" stroke="white" stroke-width="0.270487" stroke-miterlimit="3.864"/>
<path d="M23.7532 23.6691C23.5129 23.8085 23.2603 23.8672 22.987 23.8481C22.9602 23.7689 23.0868 23.7948 23.1267 23.7422C23.3401 23.6828 23.5198 23.6828 23.7532 23.6691Z" fill="#00B6F1" stroke="#00B6F1" stroke-width="0.270487" stroke-miterlimit="3.864"/>
<path d="M22.8335 24.4431C22.7675 24.4759 22.6209 24.5223 22.4881 24.5223C22.4543 24.4827 22.4612 24.4027 22.4612 24.357L22.8335 24.4431Z" fill="#00B6F1" stroke="#00B6F1" stroke-width="0.270487" stroke-miterlimit="3.864"/>
<path d="M28.575 20.8798C28.8207 21.4291 28.4744 21.951 28.0883 22.3213C27.5885 22.7571 26.9828 23.0085 26.3702 23.2066L26.0769 23.2462C26.1038 23.1807 26.024 23.1472 26.0501 23.0809C26.9099 22.8036 27.8019 22.4401 28.2948 21.5678C28.3547 21.4223 28.3685 21.244 28.2948 21.0985C28.1413 20.8935 27.9217 20.953 27.7021 20.9598C27.3559 21.0589 27.0097 21.1449 26.7164 21.3628L26.6765 21.455C26.8101 21.8055 26.9099 22.1628 27.0227 22.5194C26.9559 22.5659 26.863 22.5986 26.7901 22.6382C26.6435 22.4272 26.6166 22.1362 26.4968 21.8985C26.4838 21.647 26.1237 21.3232 26.4569 21.1381C26.9559 20.8798 27.5025 20.6817 28.0752 20.6292C28.2549 20.636 28.4545 20.7084 28.575 20.8798Z" fill="#F0B83D"/>
<path d="M8.589 23.9739C8.82852 24.0264 9.13483 24.0721 9.31447 23.8809C9.36821 23.7422 9.20161 23.676 9.12868 23.6165C8.75559 23.4383 8.28271 23.4581 7.85664 23.4383C7.78985 23.3849 7.72305 23.3453 7.66317 23.2729C8.1829 23.2135 8.73563 23.3057 9.22849 23.4116C9.38817 23.5236 9.64764 23.5571 9.68833 23.7948C9.72134 23.9472 9.64151 24.0858 9.52098 24.1392C9.13484 24.2977 8.80243 24.2047 8.39555 24.1521C7.99636 24.079 7.65704 23.8542 7.35688 23.5373C7.1235 23.3125 6.87092 23.0284 6.55157 23.1343C6.49169 23.1937 6.48401 23.2927 6.51164 23.372L6.58458 23.4908C7.11044 23.9007 7.71001 24.1255 8.31648 24.3304C8.53604 24.3967 8.77554 24.5018 9.02197 24.5681C10.5067 24.9582 11.9123 25.4146 13.4976 25.573C14.1563 25.685 14.9224 25.7117 15.588 25.7772L15.6149 25.7513C17.5732 25.7574 19.3243 25.5334 21.1484 25.09C21.5414 24.9849 21.8815 24.879 22.2807 24.786C23.1597 24.5681 24.0387 24.2641 24.8716 23.8809C25.118 23.6958 25.5979 23.6165 25.5249 23.2066C25.4712 23.1007 25.3307 23.1205 25.2317 23.1343C24.692 23.372 24.3788 24.0599 23.7792 24.1392C23.3002 24.1918 22.7206 24.4295 22.3675 23.9868C22.3613 23.874 22.3613 23.7552 22.4342 23.6691C22.7536 23.3659 23.2004 23.359 23.6264 23.2859H24.3926C24.2652 23.6234 23.8728 23.3918 23.6525 23.4779C23.36 23.5236 23.02 23.5304 22.7804 23.7422C22.7536 23.7948 22.7075 23.8672 22.7674 23.9205C23.0937 24.1651 23.5397 23.9472 23.879 23.8344C24.4786 23.5304 24.9177 22.6848 25.7038 22.956C25.8036 22.9948 25.8704 23.1076 25.8842 23.2066C25.8773 23.4581 25.7038 23.676 25.4973 23.8085C25.0451 24.1582 24.5123 24.3502 23.9857 24.5552C22.1809 25.1571 20.2563 25.6058 18.3056 25.8572C17.7391 25.8839 17.1664 25.9692 16.5868 25.9959C15.2157 26.0088 13.8638 25.9037 12.5249 25.6652C12.4182 25.6919 12.3184 25.6195 12.2056 25.6256C10.4606 25.2355 8.72258 24.8592 7.09739 24.1392C6.71738 23.9205 6.07867 23.6561 6.16465 23.1076C6.24449 22.956 6.39112 22.8958 6.55157 22.863C7.37683 22.8897 7.80289 23.8344 8.589 23.9739Z" fill="#F0B83D"/>
<path d="M5.17984 21.4421L4.84664 22.3937C4.43363 22.1956 4.04749 21.8459 3.8809 21.4025C3.87399 21.3103 3.87399 21.2105 3.93387 21.1381C4.19411 21.0124 4.48047 21.1381 4.72613 21.1975C4.88658 21.2638 5.04626 21.356 5.17984 21.4421Z" fill="#00B6F1" stroke="white" stroke-width="0.270487" stroke-miterlimit="3.864"/>
<path d="M3.56073 22.156C4.1603 22.8897 5.0531 23.1472 5.89219 23.4253C5.87223 23.6691 5.75862 23.9076 5.70565 24.1521C5.58589 24.5422 5.45921 24.9247 5.33254 25.3087C5.2527 25.3681 5.33256 25.6058 5.15292 25.5136C4.3599 25.2561 3.60756 24.879 2.9819 24.2512C2.7086 23.9472 2.45527 23.5708 2.6019 23.1602C2.74238 22.6383 2.98805 22.156 3.14158 21.6334L3.20144 21.5282C3.28128 21.753 3.40796 21.9709 3.56073 22.156Z" fill="#00B6F1" stroke="white" stroke-width="0.270487" stroke-miterlimit="3.864"/>
<path d="M7.20429 23.6561C7.0377 23.5906 6.82428 23.4778 6.7644 23.3255C6.9379 23.3788 7.07762 23.5304 7.20429 23.6561Z" fill="#00B6F1" stroke="#00B6F1" stroke-width="0.270487" stroke-miterlimit="3.864"/>
<path d="M9.062 23.7948C9.062 23.874 8.96222 23.8146 8.9223 23.8481C8.73575 23.8085 8.48932 23.7887 8.32887 23.6561C8.58912 23.669 8.84935 23.669 9.062 23.7948Z" fill="#00B6F1" stroke="#00B6F1" stroke-width="0.270487" stroke-miterlimit="3.864"/>
<path d="M9.6016 24.3433C9.57473 24.4027 9.6016 24.4957 9.53481 24.5223L9.21469 24.4294C9.34213 24.3898 9.47494 24.3768 9.6016 24.3433Z" fill="#00B6F1" stroke="#00B6F1" stroke-width="0.270487" stroke-miterlimit="3.864"/>
<path d="M5.12604 20.8935C5.33255 20.9994 5.56593 21.052 5.73866 21.2371C5.69183 21.5282 5.54595 21.7728 5.47226 22.0501C5.37937 22.2284 5.37247 22.4402 5.26576 22.6123C5.17978 22.5986 5.09303 22.5392 5.03315 22.4996C5.05311 22.3343 5.13295 22.143 5.16596 21.9777C5.23966 21.8124 5.31948 21.647 5.3594 21.4688C5.39932 21.3301 5.23966 21.2768 5.15291 21.2234C4.79287 21.0193 4.34683 20.8798 3.93381 20.9202C3.83402 20.9469 3.73421 21.0322 3.7012 21.1252C3.62136 21.7331 4.20021 22.156 4.6401 22.4729C5.05925 22.7243 5.49912 22.9026 5.9582 23.055C5.99198 23.1007 5.9582 23.1807 5.9321 23.2333C5.39242 23.1274 4.88651 22.9224 4.41976 22.6382C3.83401 22.3144 3.28128 21.7194 3.38108 21.0459C3.421 20.8273 3.63441 20.6421 3.85397 20.6025C4.3 20.5964 4.73298 20.7549 5.12604 20.8935Z" fill="#F0B83D"/>
<path d="M6.08335 26.341C6.20004 26.373 6.25683 26.3806 6.30673 26.2595L6.66141 25.3879C6.60921 25.2195 6.58156 25.202 6.55776 25.1921L6.5762 25.1464L6.96693 25.3033L7.29014 26.3463L7.29399 26.3471L7.52121 25.7902C7.56574 25.6797 7.56805 25.6104 7.42296 25.5387L7.44137 25.4938L7.83981 25.653L7.82137 25.6987C7.68089 25.6622 7.65248 25.7003 7.6164 25.7886L7.17575 26.8713L7.12355 26.8499L6.70517 25.5227L6.70133 25.5212L6.40192 26.2572C6.34818 26.3898 6.37275 26.4401 6.50402 26.5101L6.48561 26.5559L6.06491 26.3875L6.08335 26.341Z" fill="#231F20"/>
<path d="M7.85528 25.6652L8.95155 26.0187L8.82794 26.3982L8.78036 26.3829C8.82412 26.1003 8.70512 26.0104 8.44871 25.9273C8.34354 25.8938 8.30746 25.8908 8.28059 25.9707L8.13703 26.4088C8.31897 26.469 8.43259 26.4515 8.53776 26.2267L8.58689 26.2427L8.37808 26.8804L8.32818 26.8644C8.38268 26.6214 8.30438 26.5338 8.11629 26.4728L7.96736 26.9292C7.93973 27.0122 7.96891 27.0465 8.09174 27.0861C8.27829 27.1463 8.48785 27.16 8.70127 26.914L8.75424 26.9307L8.55004 27.2987L7.43843 26.9406L7.45378 26.8934C7.56586 26.917 7.62652 26.93 7.66491 26.8126L7.96352 25.9007C8.00421 25.7757 7.92592 25.746 7.83994 25.7125L7.85528 25.6652Z" fill="#231F20"/>
<path d="M10.8553 26.527C10.7862 26.517 10.7324 26.5536 10.6918 26.6199L10.0323 27.6942L9.98011 27.6812L9.86264 26.7022L9.8496 26.6999L9.28458 27.5227L9.23009 27.5098L9.08805 26.2519C9.07653 26.1513 9.06118 26.1285 8.98288 26.098L8.99363 26.0493L9.56633 26.1803L9.5548 26.2291C9.48341 26.2184 9.42815 26.21 9.41126 26.2816C9.40665 26.3022 9.40742 26.3251 9.41049 26.3487L9.47958 27.0991L9.48342 27.0999L9.84885 26.5628L9.8235 26.3616C9.80814 26.3136 9.79126 26.287 9.69914 26.2618L9.70989 26.2138L10.3179 26.3525L10.3064 26.4012C10.2212 26.3875 10.1644 26.3769 10.149 26.4424C10.1436 26.4652 10.149 26.5155 10.1513 26.5551L10.2104 27.2454L10.2143 27.2469L10.5827 26.6397C10.5935 26.6214 10.6065 26.6024 10.6158 26.5612C10.6342 26.482 10.5666 26.4645 10.5006 26.4454L10.5121 26.3974L10.8668 26.479L10.8553 26.527Z" fill="#231F20"/>
<path d="M11.9162 27.7458C11.7466 27.8853 11.5731 27.9843 11.3205 27.9447C10.8607 27.8723 10.6634 27.5119 10.7217 27.1462C10.7854 26.7485 11.1178 26.488 11.5324 26.5527C11.7097 26.5809 11.8471 26.7005 11.8978 26.7089C11.9508 26.7173 11.9754 26.6792 12.003 26.6327L12.0567 26.6411L11.983 27.0998L11.9339 27.0914C11.8917 26.9108 11.7627 26.6556 11.5378 26.6198C11.2499 26.5748 11.1248 26.8621 11.0718 27.1927C11.0534 27.3108 11.0357 27.5005 11.0879 27.6369C11.1485 27.7916 11.2998 27.8449 11.3612 27.8548C11.5147 27.8792 11.6721 27.8434 11.8648 27.6872L11.9162 27.7458Z" fill="#231F20"/>
<path d="M13.1715 28.1657L12.5289 28.0865L12.5351 28.0377C12.6594 28.043 12.6955 28.0453 12.7032 27.9806C12.7093 27.928 12.664 27.7741 12.6441 27.7078L12.1981 27.6537C12.1251 27.7886 12.0837 27.8648 12.0791 27.8968C12.0699 27.9714 12.1643 27.989 12.2318 28.0004L12.2249 28.0499L11.8226 28.0011L11.8288 27.9516C11.9386 27.9493 11.9739 27.8861 12.0514 27.7459L12.6256 26.7204L12.6809 26.7273L12.9949 27.8168C13.0579 28.0377 13.0817 28.1086 13.1769 28.1162L13.1715 28.1657ZM12.6241 27.6271L12.4829 27.125L12.2372 27.5806L12.6241 27.6271Z" fill="#231F20"/>
<path d="M14.1532 27.2796C14.1271 27.1386 14.0235 26.9032 13.7886 26.8864C13.6842 26.8796 13.5706 26.9314 13.5613 27.0594C13.5537 27.1668 13.589 27.2125 13.7509 27.3078L14.0335 27.4723C14.0987 27.5104 14.2423 27.6354 14.2269 27.8518C14.2146 28.0247 14.0703 28.2556 13.7034 28.2304C13.5137 28.2167 13.4293 28.1436 13.3671 28.139C13.3256 28.1359 13.3126 28.171 13.3026 28.2022L13.245 28.1984L13.2796 27.71L13.3372 27.7139C13.3633 27.9165 13.4631 28.1474 13.7156 28.1656C13.9552 28.1816 13.979 27.9874 13.9805 27.9615C13.9905 27.8289 13.8999 27.7748 13.7747 27.7047L13.6458 27.6323C13.3157 27.4457 13.3279 27.2758 13.3341 27.1851C13.3433 27.0647 13.4239 26.7996 13.8024 26.8263C13.9621 26.8369 14.0511 26.9085 14.1087 26.9124C14.1547 26.9162 14.1663 26.8872 14.1793 26.8499L14.2392 26.8544L14.2093 27.2834L14.1532 27.2796Z" fill="#231F20"/>
<path d="M15.2487 28.2754L14.5363 28.2502L14.5379 28.2007C14.6845 28.1939 14.7321 28.1916 14.7382 28.0247L14.7751 26.981C14.6354 26.984 14.4288 26.987 14.3774 27.3025L14.3198 27.3002L14.3398 26.9025L15.5381 26.9444L15.5282 27.3428L15.4698 27.3406C15.4414 27.0221 15.2357 27.0046 15.0983 26.9924L15.0614 28.0369C15.0553 28.2045 15.1036 28.2106 15.251 28.2251L15.2487 28.2754Z" fill="#231F20"/>
<path d="M16.7495 28.2884H15.5949V28.2389C15.707 28.2252 15.7669 28.2191 15.7669 28.0987V27.1387C15.7669 27.0077 15.6847 27.0039 15.5949 26.9985V26.9482H16.292V26.9985C16.1523 27.0039 16.0908 27.0061 16.0908 27.1806V28.1154C16.0908 28.2107 16.1346 28.2267 16.2682 28.2267C16.5699 28.2267 16.682 28.0621 16.7733 27.8389H16.8317L16.7495 28.2884Z" fill="#231F20"/>
<path d="M16.791 26.9452L17.9418 26.8858L17.9633 27.2835L17.9134 27.2865C17.8527 27.0069 17.7077 26.965 17.439 26.9787C17.3292 26.9848 17.2939 26.9947 17.2977 27.0801L17.3223 27.5387C17.5142 27.5311 17.6132 27.4747 17.6301 27.2271L17.6815 27.2248L17.7169 27.8938L17.6654 27.896C17.6286 27.65 17.5234 27.5959 17.3261 27.6065L17.3514 28.085C17.356 28.1726 17.3952 28.1947 17.5242 28.1871C17.7199 28.1779 17.9211 28.1155 18.0309 27.81L18.0869 27.8069L18.0286 28.2229L16.8617 28.2831L16.8586 28.2343C16.9722 28.216 17.0336 28.2069 17.0275 28.0842L16.9761 27.1265C16.9699 26.9955 16.8855 26.9963 16.7933 26.9947L16.791 26.9452Z" fill="#231F20"/>
<path d="M19.7964 26.7677C19.689 26.7943 19.6452 26.821 19.659 26.9513L19.7258 27.5806C19.7381 27.6964 19.7289 27.8755 19.6552 27.9722C19.5669 28.0895 19.398 28.1452 19.2783 28.1566C19.1915 28.1657 19.0034 28.1734 18.8622 28.0751C18.7693 28.0088 18.7102 27.9455 18.6872 27.733L18.6173 27.074C18.5996 26.9079 18.5482 26.9094 18.4354 26.9094L18.43 26.8606L19.1017 26.7905L19.1071 26.8393C18.9766 26.8591 18.9151 26.8675 18.9336 27.0412L19.0034 27.6995C19.0149 27.8122 19.0441 28.0834 19.3297 28.0537C19.6798 28.0179 19.6521 27.7155 19.6383 27.5897L19.5746 26.9879C19.5623 26.8675 19.5316 26.8035 19.3596 26.8126L19.3543 26.7639L19.7911 26.7189L19.7964 26.7677Z" fill="#231F20"/>
<path d="M19.9969 27.9829C20.1128 27.9502 20.1658 27.9281 20.1458 27.7985L19.9969 26.8706C19.8649 26.7525 19.8326 26.7517 19.8073 26.7563L19.7988 26.7068L20.2157 26.6412L21.034 27.3704L21.0371 27.3696L20.9427 26.7761C20.9243 26.6588 20.8897 26.5978 20.7285 26.6108L20.7208 26.562L21.1446 26.4957L21.1523 26.5445C21.0133 26.5841 21.0087 26.6313 21.0241 26.7251L21.2075 27.8785L21.1523 27.8869L20.1051 26.9643L20.1013 26.965L20.2264 27.7475C20.2487 27.8892 20.2963 27.9197 20.4445 27.9121L20.4521 27.9616L20.0046 28.0317L19.9969 27.9829Z" fill="#231F20"/>
<path d="M22.1173 27.6424L21.4333 27.7871L21.4225 27.7383C21.5262 27.7063 21.6006 27.682 21.5753 27.5624L21.3742 26.6237C21.3465 26.4957 21.2536 26.511 21.1623 26.5239L21.1523 26.4759L21.8363 26.3312L21.8463 26.3799C21.7557 26.4028 21.662 26.4249 21.6905 26.5567L21.8916 27.4953C21.9185 27.6195 21.9975 27.6088 22.1065 27.5936L22.1173 27.6424Z" fill="#231F20"/>
<path d="M23.1452 27.3764L22.4558 27.56L22.4436 27.512C22.581 27.4625 22.6263 27.4465 22.5833 27.2857L22.31 26.2762C22.1772 26.3197 21.9806 26.3829 22.0252 26.6991L21.9691 26.7135L21.8716 26.3273L23.0293 26.0195L23.1367 26.4035L23.0807 26.4187C22.9594 26.1223 22.7583 26.1658 22.6232 26.1932L22.8957 27.2027C22.9395 27.3657 22.9871 27.3566 23.1322 27.3284L23.1452 27.3764Z" fill="#231F20"/>
<path d="M23.1098 25.996L24.1991 25.6242L24.3304 26.0013L24.2836 26.0165C24.1469 25.7659 23.9972 25.7644 23.7423 25.8512C23.6379 25.887 23.6065 25.9061 23.6341 25.9868L23.7854 26.4219C23.9673 26.3617 24.0471 26.2801 23.9949 26.0379L24.044 26.0211L24.2636 26.655L24.2145 26.6718C24.1101 26.4455 23.9949 26.4219 23.8076 26.4859L23.965 26.9392C23.9934 27.0222 24.0371 27.0321 24.16 26.9902C24.345 26.927 24.5216 26.8119 24.5423 26.4881L24.5945 26.4706L24.6544 26.8866L23.5489 27.2637L23.5336 27.2173C23.6364 27.1693 23.6932 27.1434 23.6533 27.0268L23.3385 26.1194C23.2955 25.996 23.2142 26.0196 23.1259 26.0432L23.1098 25.996Z" fill="#231F20"/>
<path d="M24.8257 26.7593C24.9408 26.7082 24.9531 26.6397 24.9232 26.5734L24.5225 25.6797C24.4733 25.5692 24.3912 25.6012 24.3167 25.6256L24.296 25.5799L24.8533 25.3346C25.3646 25.1083 25.6717 25.3498 25.7968 25.6286C25.9457 25.9624 25.8759 26.3319 25.4229 26.5498L24.8456 26.805L24.8257 26.7593ZM25.2172 26.4385C25.2502 26.5109 25.2809 26.536 25.3684 26.498C25.5726 26.4073 25.6816 26.2206 25.4874 25.7879C25.4129 25.6226 25.1988 25.2553 24.8848 25.394C24.7673 25.4458 24.7896 25.49 24.8095 25.5296L25.2172 26.4385Z" fill="#231F20"/>
<path d="M9.2554 9.58498C9.32833 9.5126 9.43504 9.5126 9.52102 9.55907C9.62082 9.63831 9.69451 9.77697 9.75439 9.88896C9.60776 9.88287 9.40126 9.97506 9.26845 9.86306C9.14869 9.74345 9.00207 9.70383 8.85544 9.6444C8.8493 9.62459 8.82857 9.59183 8.85544 9.57202C8.89536 9.51945 8.96213 9.51946 9.03506 9.51946C9.10876 9.54536 9.16865 9.6444 9.2554 9.58498Z" fill="#231F20"/>
<path d="M10.5006 10.5899C10.4937 10.6097 10.4668 10.6166 10.4737 10.6364C10.5336 10.6295 10.6134 10.6425 10.6672 10.676C10.7401 10.7484 10.6871 10.8345 10.6871 10.9206C10.6472 10.9663 10.5735 10.9533 10.5336 10.9335C10.4668 10.9007 10.4737 10.8276 10.4207 10.788C10.3939 10.8146 10.4138 10.8939 10.354 10.8802C10.2941 10.788 10.2342 10.6958 10.2004 10.5899C10.2342 10.5968 10.301 10.6425 10.354 10.6028C10.387 10.5632 10.4338 10.5305 10.4868 10.5236C10.5136 10.5373 10.5006 10.5701 10.5006 10.5899Z" fill="#231F20"/>
<path d="M9.57868 9.82958L9.44127 9.84634C9.40366 9.85091 9.35913 9.83949 9.32151 9.80063C9.30999 9.79073 9.30078 9.77321 9.28543 9.76406C9.30309 9.76178 9.3146 9.75873 9.32842 9.74273C9.32842 9.74273 9.34299 9.81816 9.4259 9.81816C9.48425 9.81816 9.51189 9.7572 9.51189 9.7572L9.57868 9.82958Z" fill="white"/>
<path d="M21.8955 10.5769H21.9346C21.9085 10.6623 21.8218 10.7552 21.7949 10.8543C21.7281 10.8741 21.7281 10.7948 21.7151 10.7552C21.669 10.8147 21.6552 10.9007 21.5753 10.9335C21.5224 10.9465 21.4755 10.9335 21.4356 10.8939C21.4617 10.8078 21.3757 10.6623 21.5086 10.6364C21.5416 10.6295 21.5753 10.6166 21.6153 10.6227L21.6483 10.6493C21.669 10.6166 21.6222 10.5701 21.6283 10.5236C21.7481 10.471 21.7888 10.6889 21.8955 10.5769Z" fill="#231F20"/>
<path d="M22.5111 9.82192C22.5111 9.82192 22.5703 9.85315 22.6148 9.85163C22.6578 9.85011 22.73 9.83944 22.7691 9.80211C22.7814 9.79296 22.7914 9.7762 22.8067 9.7663C22.789 9.76325 22.7775 9.76021 22.7645 9.74421C22.7645 9.74421 22.7476 9.81887 22.6639 9.81659C22.6064 9.8143 22.5803 9.75182 22.5803 9.75182L22.5111 9.82192Z" fill="white"/>
<path d="M9.47504 13.1209C9.41516 13.0615 9.3284 13.0287 9.26852 12.9822C9.34836 13.0158 9.42821 13.0615 9.47504 13.1209Z" fill="#BBBDBF"/>
<path d="M8.78255 8.75222V8.8185C8.27664 8.95716 7.71622 9.3541 7.56345 9.88894C7.33699 10.5236 7.36387 11.3761 7.75692 11.9376C7.77688 12.0634 7.73695 12.1433 7.65021 12.2028C7.52354 12.2485 7.35005 12.2355 7.24411 12.1632C7.2111 12.1563 7.16349 12.1632 7.16349 12.2028C7.18422 12.3544 7.36385 12.3475 7.48361 12.3811C7.69703 12.3811 7.88972 12.2553 7.99642 12.0763C8.04325 12.1433 8.00257 12.2028 7.99642 12.2683C7.88281 12.5068 7.57038 12.3872 7.39688 12.4732C7.47672 12.6454 7.68322 12.5654 7.8168 12.5723C8.10929 12.4999 8.20293 12.0634 8.54916 12.1494C8.26281 12.2752 8.40253 12.7178 8.0233 12.7109C7.92964 12.7109 7.82985 12.6454 7.75692 12.7247C7.85672 12.8237 8.01639 12.8763 8.17607 12.8367C8.46318 12.7445 8.54918 12.2683 8.93532 12.407C8.96833 12.4207 8.99518 12.4473 9.0351 12.4473C8.88233 12.4473 8.71575 12.4473 8.57603 12.5464C8.44936 12.6584 8.4225 12.9098 8.20294 12.89C8.13001 12.9228 8.01638 12.8169 7.99642 12.9296C8.04939 13.0287 8.26282 12.9822 8.18989 13.1346C8.34957 13.2664 8.596 13.1871 8.76873 13.1475L8.78255 13.1673C8.87544 13.1406 8.96217 13.101 9.06197 13.0942C9.21474 13.1277 9.40131 13.1544 9.47501 13.3258L9.49497 13.3989C9.28846 13.2664 8.97523 13.1871 8.75568 13.2999C8.57604 13.306 8.46319 13.2664 8.30274 13.2199C8.26282 13.2336 8.26283 13.2801 8.28969 13.2999C8.60214 13.6961 9.4681 13.4248 9.34219 14.1524C9.2946 14.2446 9.22857 14.3505 9.12877 14.3901C9.18865 14.2842 9.2017 14.1524 9.1756 14.0336C9.05507 13.6892 8.67584 13.6961 8.43556 13.4911C8.40946 13.4911 8.3895 13.498 8.36954 13.5239C8.34267 13.6298 8.47546 13.6694 8.53611 13.7159C8.7027 13.802 8.94221 13.802 9.02205 14.0336C9.02896 14.106 9.06199 14.2179 8.9952 14.2781C8.98906 14.1128 8.84242 13.9208 8.66201 13.8218C8.40944 13.7486 8.21599 13.5376 8.16302 13.2732C7.96342 12.8306 7.43065 12.7841 7.16349 12.394C6.9969 12.0237 7.20417 11.6801 7.43064 11.4028C7.43064 11.3693 7.42375 11.3236 7.38383 11.3236C7.13049 11.4295 7.13738 11.786 6.85794 11.8584C6.99075 11.575 6.95085 11.1255 7.33009 11.0325C7.34391 11.0059 7.36387 10.986 7.35696 10.9464C7.24411 10.8611 7.11743 10.9929 7.01072 11.0462C6.95698 11.0859 6.91782 11.1582 6.85794 11.1712C6.92397 11.0196 7.06447 10.8344 7.23106 10.788C7.26407 10.7682 7.27712 10.7285 7.29017 10.7019C7.22414 10.6424 7.15044 10.7019 7.07751 10.7019L6.7643 10.8939C6.74434 10.6295 7.08443 10.5434 7.21723 10.3324C7.11053 10.2859 6.99692 10.4047 6.88407 10.4444L6.73129 10.484C6.73743 10.4177 6.82416 10.3453 6.87099 10.279C6.9777 10.2135 7.10438 10.1868 7.21723 10.1404C7.23105 10.1007 7.19727 10.0809 7.17731 10.0543H7.11052C7.1704 10.0078 7.29708 10.0413 7.33009 9.97504C7.24411 9.90876 7.13739 9.86914 7.02454 9.90266C7.02454 9.8958 7.17731 9.88285 7.15044 9.78304C7.11743 9.75714 7.09056 9.71066 7.05064 9.69771V9.67105C7.21723 9.63143 7.35003 9.77694 7.48361 9.83637C7.50357 9.82342 7.51048 9.79675 7.51048 9.77009C7.45674 9.64438 7.32394 9.59181 7.21723 9.51943C7.31703 9.47905 7.41068 9.59181 7.51048 9.63143C7.59723 9.44629 7.337 9.41353 7.27712 9.26115C7.43065 9.17506 7.53045 9.39982 7.66326 9.43943C7.71623 9.41963 7.68322 9.3602 7.67708 9.32744C7.61643 9.21544 7.51048 9.16211 7.44369 9.05011C7.58341 9.01659 7.65021 9.20858 7.78993 9.26115C7.8168 9.22154 7.78993 9.1423 7.75692 9.09582C7.67708 9.0364 7.63639 8.93735 7.57728 8.85812C7.75 8.84517 7.84289 9.02345 7.98337 9.07602C7.99028 8.91069 7.79684 8.78574 7.82985 8.58689C8.04327 8.59374 8.05631 8.85126 8.21599 8.93126C8.24286 8.76593 8.1231 8.6265 8.10314 8.46118C8.16916 8.42156 8.24287 8.51451 8.31657 8.54118C8.39564 8.63336 8.36261 8.87793 8.53611 8.80555C8.48237 8.66003 8.44936 8.46804 8.56221 8.33623C8.59599 8.48175 8.64897 8.65317 8.78255 8.75222Z" fill="#F0B83D"/>
<path d="M9.28156 12.8366C9.28847 12.8503 9.24854 12.8305 9.20171 12.8366C9.07505 12.8038 8.92843 12.8564 8.80253 12.9166C8.69582 12.9692 8.59602 13.0614 8.48241 13.0286C8.68277 12.9166 8.82862 12.6126 9.16179 12.7513L9.28156 12.8366Z" fill="#F0B83D"/>
<path d="M8.81558 14.1654C8.83553 14.2583 8.83553 14.3764 8.74264 14.4168C8.70272 14.4496 8.66203 14.4625 8.60215 14.4564C8.57605 14.3109 8.58911 14.1387 8.70272 14.0465C8.7626 14.0526 8.78871 14.1189 8.81558 14.1654Z" fill="#F0B83D"/>
<path d="M8.71572 16.2865C9.05504 16.5052 9.43504 16.6834 9.8542 16.6834C10.1544 16.7756 10.5067 16.6903 10.7938 16.6568C10.7063 16.928 10.4668 17.1261 10.2004 17.1924C9.63463 17.2785 9.05503 17.1992 8.58904 16.8884C8.39559 16.717 8.10925 16.5516 8.2029 16.2469C8.26278 16.1745 8.25588 15.9833 8.38255 16.0229C8.48235 16.1349 8.58905 16.2339 8.71572 16.2865Z" fill="#BBBDBF"/>
<path d="M10.2005 17.3439L10.3801 17.2784C10.3801 17.3973 10.2273 17.4834 10.1736 17.5961C9.83426 17.8072 9.39515 17.8399 8.98213 17.7607C8.58217 17.6746 8.14305 17.5291 7.9565 17.139C7.88971 16.9546 7.99643 16.7756 8.10314 16.63C8.64896 17.2449 9.42816 17.4567 10.2005 17.3439Z" fill="#BBBDBF"/>
<path d="M9.60173 17.926C9.67466 17.8994 9.77447 17.9131 9.84126 17.9062C9.86122 17.8994 9.8474 17.8727 9.88118 17.8796H9.9211C9.80134 18.1638 9.53495 18.3489 9.22864 18.3626C8.72273 18.3824 8.24908 18.2369 7.86984 17.9062C7.80306 17.7805 7.64337 17.6678 7.70325 17.4963C7.76313 17.424 7.74394 17.3181 7.82992 17.2518C8.27672 17.7607 8.91542 18.0579 9.60173 17.926Z" fill="#BBBDBF"/>
<path d="M7.62329 17.7873C8.06317 18.3557 8.73567 18.5606 9.43504 18.4746C9.28841 18.7519 9.00896 18.8776 8.70266 18.8578C8.26277 18.8517 7.763 18.6536 7.53653 18.2368C7.40372 18.0784 7.56341 17.9527 7.59028 17.7873H7.62329Z" fill="#BBBDBF"/>
<path d="M8.99527 18.9964C8.86246 19.2212 8.65595 19.3004 8.42258 19.34C7.97655 19.3606 7.53666 19.1754 7.33016 18.7785C7.27719 18.6132 7.36392 18.441 7.41075 18.2825C7.7232 18.8646 8.35656 19.0627 8.99527 18.9964Z" fill="#BBBDBF"/>
<path d="M8.56223 19.4658C8.42251 19.7767 8.06325 19.7104 7.75694 19.6974C7.50361 19.6441 7.23722 19.4597 7.17734 19.2014C7.20421 19.1093 7.17734 18.9896 7.24413 18.9104C7.53662 19.3668 8.07629 19.5252 8.56223 19.4658Z" fill="#BBBDBF"/>
<path d="M8.25588 19.8627C8.22977 19.9419 8.16912 20.0341 8.07623 20.0539C7.84976 20.14 7.55652 20.1134 7.33005 20.041C7.25098 19.9876 7.14349 19.9282 7.11048 19.836C7.07747 19.7103 7.10435 19.5785 7.13736 19.4658C7.39683 19.8292 7.83672 19.8825 8.25588 19.8627Z" fill="#BBBDBF"/>
<path d="M8.06324 20.233C8.06324 20.3183 8.02332 20.3846 7.95653 20.4372C7.77689 20.4966 7.51666 20.5697 7.31706 20.4836C7.22417 20.4638 7.17733 20.3846 7.1236 20.3183V20.0539C7.38384 20.2391 7.74389 20.2787 8.06324 20.233Z" fill="#BBBDBF"/>
<path d="M7.9834 20.5896C7.99031 20.6818 7.9765 20.7747 7.88285 20.8144C7.67711 20.9065 7.43068 20.9401 7.24413 20.7816C7.17734 20.7283 7.20421 20.6361 7.17734 20.5629C7.41686 20.6749 7.73006 20.7084 7.9834 20.5896Z" fill="#BBBDBF"/>
<path d="M7.99637 21.0055C8.02938 21.0985 7.92958 21.1381 7.93649 21.2234C7.84974 21.2836 7.763 21.3629 7.65015 21.3499C7.60333 21.3362 7.53039 21.3301 7.47051 21.3232C7.41677 21.2044 7.33695 21.1046 7.31699 20.9728C7.52349 21.0787 7.75686 21.0254 7.97027 20.9598L7.99637 21.0055Z" fill="#BBBDBF"/>
<path d="M8.17611 21.5541C8.21603 21.7332 7.93659 21.6669 8.02334 21.8124C8.13004 21.8459 8.18993 21.7728 8.25595 21.7195V21.6936C8.42254 21.7263 8.5423 21.9046 8.71579 21.8848C8.74266 21.8718 8.72884 21.8391 8.72884 21.8124C8.59603 21.7393 8.44942 21.6539 8.35653 21.5145C8.32889 21.462 8.269 21.4223 8.269 21.3629C8.66896 21.5679 9.19484 21.4947 9.52111 21.8459C9.54183 21.9115 9.59478 22.0105 9.5349 22.0768C9.2286 22.3473 8.82249 22.2017 8.46936 22.1431C8.11622 22.0044 7.78305 21.7591 7.56349 21.4421C7.71626 21.4886 7.91663 21.4421 8.02334 21.3233C8.11623 21.356 8.12314 21.4757 8.17611 21.5541Z" fill="#BBBDBF"/>
<path d="M6.58466 17.6617L6.59771 17.648C6.52478 17.4765 6.23152 17.4103 6.34513 17.1794C6.48408 17.0209 6.6576 17.1459 6.84415 17.1261C6.99692 17.1726 7.17732 17.1527 7.33009 17.1924C7.26407 17.3706 7.0445 17.3905 6.93088 17.5093C6.94393 17.6548 7.16349 17.7082 7.11052 17.8796C7.01149 17.8369 6.69444 17.6967 6.58466 17.6617Z" fill="#BBBDBF"/>
<path d="M9.31453 8.3363C9.30839 8.46811 9.28152 8.56715 9.2416 8.66696C9.22855 8.69286 9.26846 8.60067 9.21473 8.61362C9.17557 8.59381 9.1418 8.64029 9.12875 8.66696C9.09497 8.5542 9.23469 8.4483 9.28152 8.3363H9.31453Z" fill="#BBBDBF"/>
<path d="M9.61477 8.6532C9.64778 8.74615 9.59481 8.83148 9.53493 8.89777V8.80558H9.43515C9.48121 8.75225 9.53493 8.66006 9.61477 8.6532Z" fill="#BBBDBF"/>
<path d="M6.03877 14.7071C6.00499 15.3684 6.09174 15.9962 6.55158 16.4922C6.7174 16.6636 6.88399 16.8221 7.07745 16.9608C6.8172 16.9806 6.50476 16.8556 6.25143 17.0141C6.17159 17.1002 6.17158 17.2389 6.19154 17.344C6.29134 17.5032 6.42415 17.5962 6.58459 17.6617C6.65829 17.667 6.98302 17.7973 7.11046 17.8796C6.66443 17.7539 6.05182 17.6945 5.63881 17.9398C5.27262 18.1577 5.19279 18.5737 5.2258 18.944C5.28568 19.2876 5.48604 19.5786 5.48604 19.942C5.27876 19.6373 4.80664 19.5253 4.72603 19.1222C4.73294 18.8975 4.67306 18.6994 4.56021 18.5272C4.60013 18.3489 4.64006 18.1638 4.67997 17.9794C4.68688 17.9329 4.67306 17.8933 4.64005 17.8667H4.62623V17.827C4.73294 17.5291 4.94636 17.1992 5.30564 17.1794C5.4254 17.0339 5.15977 17.0271 5.11295 16.9212C5.03311 16.8358 5.01314 16.7299 4.9594 16.6301C5.07993 16.5318 5.25265 16.4724 5.40542 16.5318C5.43229 16.5448 5.45917 16.5715 5.49909 16.5646C5.56587 16.5318 5.52595 16.4785 5.51213 16.4389C5.18587 16.2339 5.09298 15.818 5.126 15.4606C5.26571 15.2892 5.126 15.018 5.21275 14.8001C5.2258 14.7734 5.25881 14.8397 5.30564 14.813C5.3993 14.5616 5.50523 14.311 5.63881 14.0725L5.67873 14.0595C5.67873 14.0931 5.69178 14.119 5.72556 14.1388H5.77853L6.13857 13.7685C6.19845 14.0725 6.03186 14.3765 6.03877 14.7071Z" fill="#F0B83D"/>
<path d="M7.6901 16.8617L7.62331 17.027C7.6901 16.7954 7.29705 16.5051 7.67705 16.3992C7.76994 16.3398 7.81678 16.2407 7.8567 16.1478C7.94268 15.9299 7.53043 15.7249 7.8567 15.5992C8.0563 15.4141 8.11616 15.104 8.02327 14.8724C7.98335 14.8396 7.9964 14.7794 7.95648 14.7474C8.08314 14.6613 8.18296 14.5486 8.28967 14.4297C8.30272 15.3287 8.03633 16.115 7.6901 16.8617Z" fill="#F0B83D"/>
<path d="M5.94517 14.1524C5.92521 14.5951 5.73866 15.0446 5.8922 15.5139C5.92521 15.8438 6.05879 16.128 6.20465 16.4122C6.21847 16.4587 6.1916 16.4983 6.15168 16.5051C6.04497 16.5181 6.03192 16.3992 5.98509 16.3398C5.68569 15.6724 5.65882 14.8595 5.90524 14.1524H5.94517Z" fill="#231F20"/>
<path d="M5.4593 15.2556V15.296C5.43934 15.296 5.41246 15.3089 5.40555 15.2823C5.39941 15.2556 5.40555 15.2297 5.43242 15.216C5.43933 15.2358 5.4662 15.2228 5.4593 15.2556Z" fill="#231F20"/>
<path d="M5.47239 15.408C5.54608 15.8042 5.65202 16.1882 5.95833 16.4922C5.97215 16.5318 5.93223 16.5646 5.90536 16.5775C5.77869 16.5646 5.71882 16.4259 5.65203 16.3398C5.48621 16.0617 5.43246 15.7318 5.40559 15.3951C5.43246 15.3684 5.44629 15.3951 5.47239 15.408Z" fill="#231F20"/>
<path d="M5.43231 17.4567C5.43231 17.5626 5.32562 17.5497 5.27879 17.635C4.9863 17.8864 4.89954 18.2499 4.84657 18.6133H4.8197C4.74677 18.1112 4.95327 17.6746 5.34556 17.4171C5.38548 17.4042 5.40544 17.4369 5.43231 17.4567Z" fill="#231F20"/>
<path d="M5.33247 18.131C4.94632 18.64 5.27873 19.2152 5.3793 19.7371C5.3056 19.7241 5.29256 19.6312 5.2657 19.5717C5.08606 19.1024 4.85345 18.4221 5.2657 17.9794C5.33248 17.9261 5.3793 17.84 5.45914 17.8141C5.59886 17.9459 5.35933 18.0183 5.33247 18.131Z" fill="#231F20"/>
<path d="M13.8968 13.6891C13.8768 13.6693 13.83 13.6236 13.8438 13.5771C13.8638 13.6099 13.8899 13.6495 13.8968 13.6891Z" fill="#BBBDBF"/>
<path d="M18.2788 13.6891C18.2458 13.6693 18.2719 13.6168 18.3056 13.5901C18.2987 13.6236 18.2918 13.6625 18.2788 13.6891Z" fill="#BBBDBF"/>
<path d="M9.86736 18.6133C9.91419 18.8251 10.0009 19.0628 9.94798 19.2875C9.96794 19.3005 9.98098 19.3203 10.0071 19.3142C10.1476 19.1352 10.0808 18.8716 10.0608 18.6796C10.3073 18.9767 10.3341 19.3934 10.3541 19.7767C10.3671 19.8094 10.394 19.8094 10.4209 19.7965C10.5598 19.6372 10.4339 19.4133 10.4738 19.2152C10.6734 19.5054 10.6673 19.9283 10.6404 20.2589C10.6604 20.2727 10.6734 20.2986 10.7003 20.2856C10.7471 20.2391 10.774 20.1797 10.7801 20.1073C10.8469 20.4441 10.794 20.8273 10.6673 21.158C10.7264 20.233 10.0946 19.446 9.34227 18.9439C9.35532 18.8517 9.44821 18.739 9.54801 18.6925C9.56797 18.7984 9.49502 18.9439 9.58791 19.0102C9.74836 18.8578 9.54186 18.5142 9.76756 18.4152L9.86736 18.6133Z" fill="#BBBDBF"/>
<path d="M22.6009 18.9705C22.6738 18.8715 22.5741 18.7587 22.6278 18.6536C22.7145 18.7122 22.8005 18.7854 22.8335 18.8844C22.0812 19.4132 21.4486 20.1796 21.5085 21.1251C21.3818 20.8402 21.3289 20.431 21.3956 20.041C21.4087 20.1202 21.4218 20.2063 21.4954 20.2459C21.6083 20.1796 21.4486 20.0143 21.5223 19.8886C21.5223 19.6372 21.5415 19.3606 21.715 19.1618C21.715 19.3736 21.6421 19.6113 21.7687 19.7636C21.8017 19.7766 21.8286 19.7499 21.8417 19.724C21.7948 19.3537 21.8816 18.9637 22.1012 18.6665C22.1142 18.8776 22.0013 19.129 22.2009 19.2677L22.2278 19.241C22.2079 18.937 22.2278 18.6063 22.4213 18.3755C22.6278 18.5203 22.4143 18.8311 22.6009 18.9705Z" fill="#BBBDBF"/>
<path d="M11.1532 19.3271L11.0734 19.3142C11.1532 19.2479 11.286 19.2746 11.3797 19.2014C11.4933 19.1024 11.5324 18.9706 11.6391 18.8578C11.5255 19.0498 11.4058 19.3073 11.1532 19.3271Z" fill="white"/>
<path d="M11.4457 19.4658C11.3659 19.3805 11.5256 19.3401 11.5593 19.2548C11.5662 19.347 11.4664 19.3866 11.4457 19.4658Z" fill="white"/>
<path d="M11.4326 19.6974C11.5662 19.5717 11.6791 19.3934 11.7528 19.2151C11.7589 19.4063 11.5793 19.5785 11.4326 19.6974Z" fill="white"/>
<path d="M20.7431 19.4658C20.6894 19.3805 20.6233 19.3005 20.5896 19.2014C20.6233 19.3073 20.8291 19.3272 20.7431 19.4658Z" fill="white"/>
<path d="M20.9358 19.4925V19.5451C20.9158 19.552 20.9097 19.5322 20.8958 19.5184V19.4659C20.9158 19.4598 20.9227 19.4796 20.9358 19.4925Z" fill="white"/>
<path d="M11.2529 19.5854C11.2192 19.5717 11.2529 19.5321 11.266 19.5054H11.2929L11.2529 19.5854Z" fill="white"/>
<path fill-rule="evenodd" clip-rule="evenodd" d="M11.9906 14.2348C12.0313 14.2538 11.9545 14.1601 11.9568 14.1106C11.9591 14.0618 11.907 14.2135 11.907 14.2135C11.907 14.2135 11.9507 14.215 11.9906 14.2348Z" fill="#231F20"/>
<path fill-rule="evenodd" clip-rule="evenodd" d="M14.2693 6.38661C14.2762 6.75003 14.2631 7.16602 14.2562 7.50963C14.2432 7.5363 14.2163 7.52334 14.1902 7.52334C14.1702 7.10659 14.1702 6.73022 14.1902 6.34014C14.2232 6.34014 14.2693 6.347 14.2693 6.38661Z" fill="white"/>
<path fill-rule="evenodd" clip-rule="evenodd" d="M10.1007 11.2238C10.1007 11.2238 10.2658 11.2406 10.3233 11.3168C10.3817 11.3937 10.5375 11.6307 10.7402 11.5278C10.7402 11.5278 10.8008 11.6307 10.6135 11.6307C10.4331 11.6307 10.3303 11.4958 10.2788 11.4067C10.2274 11.3168 10.1629 11.2886 10.1145 11.2772L10.1007 11.2238Z" fill="white"/>
<path fill-rule="evenodd" clip-rule="evenodd" d="M22.0344 11.2108C22.0344 11.2108 21.9768 11.3243 21.8847 11.3624C21.7926 11.4005 21.8041 11.4607 21.7949 11.4752C21.7949 11.4752 21.6444 11.6237 21.5155 11.6237C21.3857 11.6237 21.4034 11.6054 21.3926 11.5605C21.3819 11.5148 21.4379 11.5026 21.4702 11.5216C21.5024 11.5407 21.5799 11.5856 21.6897 11.4386C21.7987 11.2915 21.9738 11.1948 22.0344 11.2108Z" fill="white"/>
<path d="M12.6517 15.1962C12.9779 16.4061 12.505 17.5428 12.2187 18.6536C12.2647 18.4083 12.3054 18.118 12.2916 17.8537C12.145 17.43 12.4521 17.0339 12.2647 16.6438C12.2786 16.4724 12.1857 16.3063 12.059 16.1745C12.0452 15.8773 12.0982 15.5467 11.9055 15.3219C11.7988 15.3349 11.6591 15.3684 11.5723 15.296C11.646 14.9913 11.7527 14.7071 11.8456 14.4168C12.2517 14.4625 12.545 14.8397 12.6517 15.1962Z" fill="#F0B83D"/>
<path fill-rule="evenodd" clip-rule="evenodd" d="M14.5495 2.76456C14.5963 2.82399 14.5825 2.92303 14.5633 2.98931C14.5295 3.02893 14.4965 3.04875 14.4558 3.0556C14.4758 2.96951 14.5364 2.89027 14.4965 2.79732C14.4228 2.71199 14.3368 2.59924 14.2163 2.59924C14.1034 2.61219 14.0036 2.68532 13.9438 2.77751C13.837 2.94284 14.0098 3.07541 14.0236 3.20721C13.9438 3.1676 13.8839 3.10817 13.8439 3.02893C13.8102 2.91008 13.8301 2.78437 13.8969 2.68533C14.0435 2.60609 14.2232 2.48038 14.3967 2.58628C14.4627 2.64571 14.5095 2.69828 14.5495 2.76456Z" fill="white"/>
<path fill-rule="evenodd" clip-rule="evenodd" d="M14.2899 2.91621L14.2561 3.09526C14.2692 3.83504 14.296 4.54893 14.2899 5.30853C14.2561 5.34205 14.25 5.41442 14.1901 5.40833C14.1832 4.4895 14.1364 3.69639 14.1763 2.86365C14.2231 2.86365 14.2899 2.85679 14.2899 2.91621Z" fill="white"/>
<path d="M7.09744 18.6926C7.04447 18.5737 7.03064 18.448 6.94389 18.349C7.11048 18.2697 7.29013 18.0975 7.29013 17.8934C7.30395 17.7676 7.2172 17.6747 7.17728 17.5627C7.28399 17.4499 7.44366 17.3776 7.53655 17.232C7.34386 17.7014 7.24407 18.2232 7.09744 18.6926Z" fill="#F0B83D"/>
<path d="M6.98385 19.3805C6.94393 19.3805 6.88407 19.2677 6.8311 19.2281C6.89789 19.1687 6.98386 19.0696 7.03759 18.9836C7.02454 19.1154 7.02454 19.2609 6.98385 19.3805Z" fill="#F0B83D"/>
<path d="M20.9496 19.8095C21.0095 19.8956 21.0095 20.0541 21.0095 20.1668C21.0962 21.2769 20.6233 22.2551 19.6775 22.8037C18.4915 23.6631 17.1066 24.185 16.1147 25.3613L16.0748 25.3743C15.5151 24.6611 14.696 24.2048 13.9706 23.7294C13.7034 23.6166 13.477 23.4383 13.2175 23.3126C13.0578 23.1938 12.8712 23.1206 12.7185 22.982C11.7658 22.4471 11.1462 21.6007 11.1662 20.5104C11.2192 20.3184 11.1201 20.048 11.2 19.8758C11.2798 19.8293 11.3996 19.9093 11.4994 19.8628L11.5593 19.8362C11.5723 19.8826 11.5124 19.968 11.5992 20.0144C11.7059 20.0213 11.7926 19.9878 11.8924 19.955C11.7727 21.0788 12.3315 22.0441 13.3042 22.5591C14.263 23.0879 15.2756 23.5503 16.0878 24.3899C16.2137 24.3968 16.2137 24.2513 16.2944 24.1918C17.2202 23.2997 18.4185 22.9294 19.4112 22.1759C20.0767 21.6007 20.383 20.7946 20.2763 19.9283C20.3969 19.9283 20.5427 20.0541 20.6364 19.9283L20.5896 19.7767C20.6894 19.8628 20.8429 19.8689 20.9496 19.8095Z" fill="#F0B83D"/>
<path d="M13.9706 15.117C13.9706 15.117 14.8972 14.9623 15.202 14.8001V23.3392C15.202 23.3392 15.1843 23.3903 15.0554 23.2882C14.9272 23.1853 13.9568 22.665 13.9568 22.665L13.9706 15.117Z" fill="white"/>
<path d="M16.9507 14.8001C16.9507 14.8001 17.4275 14.9829 17.6862 15.0218C17.9433 15.0599 18.156 15.0873 18.179 15.1566V22.6848C18.179 22.6848 17.0851 23.2905 16.9599 23.3849L16.9507 14.8001Z" fill="white"/>
<path d="M14.2423 8.19829L14.2522 11.8408L14.2108 12.1654C14.2108 12.1654 14.1701 11.6184 14.1701 11.3235C14.1701 11.0294 14.1701 8.28971 14.1701 8.28971C14.1701 8.28971 14.1701 8.19829 14.2423 8.19829Z" fill="white"/>
</svg>
