<svg width="32" height="32" viewBox="0 0 32 32" fill="none" xmlns="http://www.w3.org/2000/svg">
<g clip-path="url(#clip0_371_27127)">
<path fill-rule="evenodd" clip-rule="evenodd" d="M13.6542 0.799988C13.6588 0.799988 13.6787 0.844083 13.6971 0.897302C13.7154 0.95052 13.8242 1.26375 14.146 2.18975L14.8738 2.19432C15.3504 2.19736 15.6001 2.20192 15.5986 2.208C15.597 2.21408 15.3335 2.40719 14.4279 3.06254L14.6593 3.79239C14.7865 4.19382 14.8876 4.52529 14.883 4.52833C14.88 4.53289 14.6026 4.34587 14.2671 4.11323C13.933 3.88211 13.6557 3.69204 13.6511 3.69204C13.6465 3.69204 13.3707 3.88211 13.0367 4.11323C12.7026 4.34587 12.4268 4.53289 12.4238 4.52833C12.4192 4.52529 12.5188 4.19686 12.6444 3.79848C12.7701 3.40162 12.8727 3.07166 12.8727 3.0671C12.8727 3.06102 12.6092 2.86791 12.2874 2.63527C11.9656 2.40263 11.7036 2.20952 11.7067 2.20344C11.7097 2.19736 11.9626 2.19432 13.1577 2.19432L13.1715 2.15326C13.1792 2.13197 13.2849 1.82635 13.409 1.47358C13.5316 1.12082 13.6358 0.825837 13.6388 0.816714C13.6434 0.80759 13.6496 0.799988 13.6542 0.799988ZM18.2724 0.799988C18.2785 0.799988 18.375 1.06608 18.4884 1.38995C18.6003 1.71535 18.709 2.02858 18.7703 2.19432H19.492C19.9624 2.19432 20.2137 2.19736 20.2168 2.20344C20.2198 2.20952 19.9578 2.40415 19.6361 2.63831C19.3143 2.87095 19.0507 3.06558 19.0507 3.06862C19.0507 3.07318 19.1534 3.40162 19.279 3.79848C19.4062 4.19686 19.5058 4.52529 19.5012 4.52833C19.4966 4.53137 19.2193 4.34587 18.8837 4.11323C18.5497 3.88211 18.2708 3.69204 18.2662 3.69356C18.2601 3.69356 17.9843 3.88211 17.6518 4.11475C17.3193 4.34587 17.0435 4.53137 17.0389 4.52833C17.0358 4.52529 17.1354 4.19382 17.2611 3.79239C17.3882 3.39097 17.4878 3.0595 17.4832 3.05646C17.4786 3.0519 17.2151 2.86183 16.8979 2.63071C16.5792 2.40111 16.3218 2.20952 16.3233 2.20344C16.3264 2.19736 16.5777 2.19432 17.7713 2.19432L18.0119 1.50399C18.1452 1.12538 18.2555 0.810632 18.2586 0.80759C18.2601 0.803029 18.2662 0.799988 18.2724 0.799988ZM15.9004 5.90289C15.9816 5.90289 16.092 5.90593 16.1471 5.91202C16.2023 5.91658 16.2881 5.92874 16.3387 5.93635C16.3877 5.94395 16.4781 5.96371 16.5378 5.9774C16.5976 5.9926 16.6987 6.02302 16.7616 6.0443C16.8244 6.06559 16.9485 6.11881 17.0374 6.1629C17.1262 6.20548 17.2534 6.27694 17.3178 6.32104C17.3836 6.36361 17.4695 6.42596 17.5093 6.45637C17.5476 6.48678 17.6349 6.56585 17.7024 6.63123C17.7698 6.69661 17.8617 6.79545 17.9061 6.85018C17.9506 6.90492 18.0149 6.99311 18.113 7.13909L18.1896 7.12388C18.231 7.11476 18.3076 7.10259 18.3582 7.09803C18.4103 7.09195 18.5053 7.08739 18.5727 7.08739C18.6401 7.08739 18.7397 7.09347 18.7933 7.10107C18.8485 7.10868 18.9297 7.12236 18.9757 7.133C19.0201 7.14365 19.1028 7.16798 19.1611 7.18774C19.2177 7.20599 19.3081 7.24096 19.3602 7.26377C19.4123 7.2881 19.4936 7.32915 19.5411 7.35652C19.5886 7.38541 19.6636 7.43407 19.7081 7.46752C19.7525 7.49945 19.8322 7.5694 19.8843 7.62261C19.9379 7.67431 20.0084 7.7549 20.0406 7.799C20.0727 7.84309 20.1233 7.91912 20.1509 7.9693C20.1785 8.01947 20.2198 8.10158 20.2398 8.1548C20.2612 8.2065 20.2888 8.28709 20.3026 8.33422C20.3164 8.38136 20.3363 8.47107 20.3485 8.53341C20.3654 8.63073 20.3685 8.68243 20.3685 8.88922C20.37 9.07472 20.3654 9.15531 20.3531 9.23438C20.3439 9.29216 20.3256 9.38491 20.3133 9.43965C20.301 9.49439 20.2934 9.54153 20.2964 9.54457C20.2995 9.54761 20.3378 9.56129 20.3792 9.5765C20.4206 9.59018 20.5002 9.62516 20.5554 9.65252C20.6106 9.67989 20.6933 9.72855 20.7408 9.75896C20.7883 9.78937 20.8588 9.84107 20.8971 9.873C20.9369 9.90493 21.0166 9.97792 21.0748 10.0372C21.1315 10.0965 21.2066 10.1817 21.2403 10.2258C21.274 10.2699 21.3215 10.3383 21.346 10.3778C21.3706 10.4174 21.4089 10.4858 21.4303 10.5299C21.4533 10.574 21.4855 10.647 21.5039 10.6926C21.5207 10.7382 21.5468 10.8203 21.5606 10.8735C21.5805 10.9511 21.5866 11.0012 21.5897 11.1229C21.5927 11.2354 21.5912 11.2901 21.5805 11.3403C21.5728 11.3768 21.5667 11.4072 21.5682 11.4072C21.5682 11.4087 21.6096 11.43 21.6601 11.4544C21.7092 11.4787 21.7751 11.5167 21.8072 11.538C21.8379 11.5578 21.8961 11.6018 21.936 11.6353C21.9743 11.6688 22.0325 11.725 22.0647 11.7615C22.0953 11.7995 22.1443 11.8664 22.1735 11.912C22.2026 11.9577 22.2424 12.0337 22.2623 12.0793C22.2822 12.1264 22.3114 12.2116 22.3251 12.2694C22.3405 12.3271 22.3573 12.4184 22.3634 12.4731C22.3711 12.537 22.3742 12.6404 22.3711 12.762C22.368 12.8669 22.3589 12.9931 22.3512 13.0418C22.3435 13.092 22.3328 13.1497 22.3236 13.2091L22.3987 13.2638C22.4401 13.2957 22.5121 13.3535 22.5596 13.3946C22.6055 13.4341 22.6684 13.4919 22.6975 13.5223C22.7281 13.5527 22.7741 13.6059 22.8032 13.6394C22.8323 13.6743 22.8829 13.7412 22.9166 13.7914C22.9488 13.8416 22.9993 13.9267 23.0269 13.9815C23.0545 14.0362 23.0913 14.1259 23.1112 14.1807C23.1296 14.2354 23.1556 14.3312 23.1694 14.3935C23.1878 14.4833 23.1939 14.5456 23.1985 14.6931C23.2016 14.8071 23.2001 14.9136 23.1924 14.9713C23.1878 15.0246 23.1725 15.1158 23.1602 15.1766C23.148 15.2359 23.1188 15.3408 23.0959 15.4077C23.0729 15.4762 23.0284 15.5841 22.9963 15.6495C22.9641 15.7149 22.9074 15.8137 22.8706 15.8685C22.8354 15.9232 22.7726 16.0068 22.7327 16.0524C22.6944 16.0996 22.6193 16.1786 22.5672 16.2288C22.5151 16.279 22.4263 16.355 22.368 16.3976C22.3114 16.4402 22.2164 16.501 22.1597 16.5345C22.1014 16.5664 22.0003 16.615 21.936 16.6424C21.8701 16.6698 21.7613 16.7078 21.6923 16.726C21.6249 16.7443 21.5115 16.7686 21.441 16.7793C21.3476 16.7914 21.2618 16.7975 21.1285 16.7975C21.0181 16.7975 20.9017 16.7914 20.8343 16.7823C20.7714 16.7747 20.6749 16.758 20.6167 16.7458C20.5293 16.726 20.511 16.7245 20.5033 16.7352C20.4972 16.7428 20.465 16.7884 20.4313 16.837C20.3976 16.8857 20.3179 16.9769 20.2551 17.0423C20.1923 17.1077 20.1049 17.1883 20.0605 17.2248C20.016 17.2597 19.9364 17.3175 19.8843 17.3525C19.8322 17.3875 19.7219 17.4483 19.6406 17.4878C19.5594 17.5289 19.4506 17.5775 19.3986 17.5958C19.3465 17.6156 19.2606 17.6429 19.2086 17.6581C19.1565 17.6749 19.0676 17.6961 19.0124 17.7068C18.9573 17.7174 18.8791 17.7311 18.8362 17.7387C18.7887 17.7463 18.6692 17.7494 18.5175 17.7494C18.3045 17.7494 18.2632 17.7478 18.1804 17.7296C18.1283 17.7174 18.0349 17.6931 17.9751 17.6733C17.9153 17.6551 17.8173 17.6186 17.756 17.5927C17.6962 17.5669 17.6196 17.5304 17.5277 17.4802V20.2309L17.5583 20.2126C17.5752 20.202 17.6579 20.1564 17.7422 20.1107C17.8265 20.0651 18.0042 19.9739 18.1375 19.907C18.2708 19.8401 18.4363 19.761 18.5037 19.7291C18.5711 19.6987 18.6845 19.6485 18.7565 19.6181C18.827 19.5892 18.945 19.5405 19.017 19.5117C19.0906 19.4828 19.2254 19.4341 19.3173 19.4037C19.4093 19.3733 19.5564 19.3262 19.6468 19.3018C19.7356 19.276 19.8827 19.2395 19.9747 19.2212C20.0666 19.2015 20.206 19.1771 20.2842 19.168C20.3777 19.1543 20.5125 19.1467 20.6795 19.1422C20.8465 19.1391 20.9722 19.1406 21.0549 19.1482C21.1223 19.1543 21.2372 19.1711 21.3077 19.1832C21.3782 19.1954 21.4916 19.2212 21.559 19.241C21.628 19.2592 21.7352 19.2942 21.798 19.317C21.8609 19.3414 21.9574 19.3824 22.011 19.4113C22.0662 19.4387 22.1459 19.4843 22.1872 19.5117C22.2301 19.539 22.2991 19.5953 22.4217 19.7139V20.354C22.4217 20.7053 22.4186 20.9972 22.414 21.0003C22.4094 21.0048 22.3772 20.979 22.3405 20.944C22.3037 20.909 22.2409 20.8573 22.2026 20.8315C22.1627 20.8041 22.0892 20.76 22.0401 20.7342C21.9911 20.7083 21.9053 20.6673 21.8501 20.6445C21.795 20.6216 21.6939 20.5852 21.6264 20.5623C21.5575 20.5411 21.4502 20.5106 21.3874 20.4954C21.3246 20.4802 21.2112 20.4574 21.1361 20.4437C21.0595 20.4316 20.9415 20.4164 20.8741 20.4103C20.7975 20.4027 20.6657 20.4012 20.5309 20.4042C20.3976 20.4057 20.2735 20.4149 20.2122 20.424C20.157 20.4331 20.0544 20.4529 19.9839 20.4681C19.9134 20.4833 19.7831 20.5167 19.6943 20.5426C19.6039 20.5684 19.4675 20.6125 19.3894 20.6399C19.3112 20.6688 19.1902 20.7159 19.1227 20.7448C19.0538 20.7737 18.9404 20.8239 18.8699 20.8588C18.7994 20.8923 18.6432 20.9744 18.5221 21.0413C18.4026 21.1082 18.2111 21.207 18.0992 21.2633C17.9858 21.318 17.8173 21.3971 17.7238 21.4366C17.6288 21.4762 17.4894 21.5324 17.4143 21.5613C17.3377 21.5887 17.2151 21.6328 17.1431 21.6571C17.0695 21.6815 16.9408 21.7195 16.8566 21.7438C16.7723 21.7666 16.6451 21.7985 16.4383 21.8396L16.4352 18.7848C16.4337 17.1047 16.4352 15.7255 16.4383 15.7194C16.4413 15.7118 16.4812 15.7423 16.5409 15.7985C16.5945 15.8487 16.6849 15.9202 16.7432 15.9597C16.7999 15.9977 16.8918 16.0509 16.947 16.0798C17.0021 16.1072 17.0925 16.1482 17.1477 16.1695C17.2028 16.1908 17.2963 16.2227 17.3561 16.241C17.4174 16.2592 17.52 16.2851 17.5844 16.2988C17.6503 16.3109 17.7621 16.3292 17.8326 16.3368C17.9031 16.3459 18.0364 16.352 18.1283 16.352C18.2187 16.352 18.3505 16.3459 18.4179 16.3368C18.4853 16.3292 18.5819 16.314 18.6324 16.3049C18.6815 16.2942 18.7611 16.2744 18.8086 16.2623C18.8561 16.2486 18.9297 16.2243 18.9757 16.2075C19.0201 16.1923 19.0967 16.1604 19.1457 16.1361C19.1963 16.1133 19.2729 16.0722 19.3173 16.0464C19.3618 16.0205 19.4369 15.9688 19.4844 15.9338C19.5319 15.8989 19.6069 15.832 19.6529 15.7864C19.6989 15.7407 19.7617 15.6678 19.7939 15.6267C19.8245 15.5841 19.872 15.5081 19.8981 15.4564C19.9241 15.4032 19.9532 15.3332 19.964 15.2998C19.9747 15.2648 19.9885 15.2192 19.9931 15.1979C19.9992 15.1751 20.0069 15.1584 20.0114 15.1599C20.016 15.1599 20.0467 15.1964 20.0804 15.2374C20.1141 15.28 20.1785 15.3424 20.2229 15.3788C20.2719 15.4184 20.3424 15.4625 20.4083 15.4944C20.465 15.5218 20.5447 15.5537 20.583 15.5644C20.6228 15.575 20.6964 15.5887 20.7454 15.5932C20.8098 15.6008 20.8649 15.6008 20.9308 15.5932C20.9829 15.5887 21.058 15.575 21.0978 15.5644C21.1377 15.5537 21.2035 15.5279 21.2449 15.5096C21.2878 15.4898 21.3491 15.4549 21.3828 15.4321C21.4181 15.4093 21.4763 15.3606 21.5146 15.3241C21.5529 15.2861 21.6065 15.2253 21.6341 15.1857C21.6601 15.1462 21.6985 15.0808 21.7184 15.0382C21.7368 14.9972 21.7628 14.9257 21.7751 14.8816C21.795 14.8117 21.7965 14.7798 21.7965 14.6353C21.7965 14.4833 21.795 14.4635 21.7705 14.3844C21.7567 14.3373 21.7291 14.2673 21.7107 14.2278C21.6923 14.1883 21.6556 14.1275 21.631 14.0894C21.605 14.0529 21.5575 13.9967 21.5238 13.9632C21.4916 13.9298 21.438 13.8826 21.4073 13.8598C21.3751 13.837 21.3139 13.799 21.2694 13.7777C21.225 13.7549 21.1606 13.7291 21.1269 13.7169C21.0917 13.7063 21.0488 13.6956 21.0304 13.6911C21.0135 13.688 20.9875 13.6804 20.9553 13.6683L20.9875 13.6226C21.0043 13.5983 21.0365 13.5436 21.058 13.5025C21.0779 13.4599 21.1039 13.3991 21.1147 13.3641C21.1254 13.3307 21.1407 13.2775 21.1468 13.2455C21.153 13.2151 21.1591 13.1361 21.1576 13.0707C21.1576 12.9749 21.153 12.9338 21.1315 12.8578C21.1177 12.8046 21.0902 12.7301 21.0702 12.6921C21.0503 12.6525 21.0212 12.6008 21.0059 12.578C20.989 12.5537 20.9538 12.5096 20.9247 12.4792C20.8971 12.4473 20.8419 12.3986 20.8021 12.3697C20.7638 12.3408 20.6994 12.3013 20.6596 12.2815C20.6213 12.2633 20.5631 12.239 20.5309 12.2283C20.5002 12.2177 20.4405 12.2025 20.4006 12.1949C20.3593 12.1857 20.298 12.1797 20.2627 12.1797C20.2275 12.1797 20.1953 12.1766 20.1907 12.172C20.1877 12.169 20.1923 12.1538 20.2014 12.1416C20.2122 12.128 20.2352 12.0884 20.252 12.0519C20.2704 12.0154 20.2949 11.9577 20.3056 11.9257C20.3179 11.8938 20.3317 11.8467 20.3363 11.8238C20.3409 11.801 20.3501 11.7433 20.3547 11.6976C20.3593 11.6475 20.3593 11.5775 20.3547 11.5197C20.3501 11.468 20.3363 11.389 20.3225 11.3449C20.3102 11.3008 20.2857 11.2339 20.2689 11.1974C20.2535 11.1609 20.2152 11.0955 20.1861 11.0514C20.157 11.0043 20.0957 10.9313 20.0421 10.8796C19.9915 10.8294 19.9103 10.7625 19.8598 10.7291C19.8107 10.6971 19.7356 10.653 19.6943 10.6333C19.6514 10.6135 19.584 10.5861 19.5411 10.5724C19.4997 10.5572 19.4277 10.539 19.3817 10.5284C19.3357 10.5192 19.2484 10.5055 19.1871 10.501C19.1258 10.4949 19.0507 10.4934 19.0232 10.4979C18.994 10.501 18.9634 10.501 18.9542 10.4979C18.9389 10.4919 18.945 10.4812 18.9894 10.4234C19.017 10.3854 19.063 10.314 19.089 10.2638C19.1151 10.2151 19.1503 10.1285 19.1687 10.0737C19.1871 10.019 19.2086 9.93991 19.2177 9.89885C19.2254 9.8578 19.2361 9.77569 19.2407 9.71943C19.2438 9.66165 19.2438 9.56738 19.2407 9.50959C19.2377 9.45334 19.2269 9.36971 19.2177 9.32561C19.2086 9.28152 19.1886 9.20549 19.1733 9.15987C19.158 9.11274 19.1273 9.03519 19.1044 8.98805C19.0814 8.94092 19.0354 8.86337 19.0032 8.81319C18.9649 8.75693 18.9021 8.68395 18.8377 8.61856C18.778 8.55926 18.6968 8.49084 18.6508 8.46043C18.6064 8.43154 18.5405 8.392 18.5037 8.37376C18.4669 8.35551 18.4011 8.32814 18.3566 8.31294C18.3122 8.29773 18.2386 8.27644 18.1942 8.26732C18.1299 8.25211 18.0732 8.24907 17.9276 8.24907C17.7851 8.24907 17.7238 8.25364 17.661 8.2658C17.6165 8.27492 17.5415 8.29621 17.494 8.31142C17.448 8.32814 17.3852 8.35247 17.3561 8.36768C17.3285 8.38288 17.3009 8.39657 17.2963 8.39657C17.2932 8.39657 17.2856 8.36768 17.2795 8.33118C17.2749 8.29621 17.2549 8.22475 17.2381 8.17305C17.2212 8.12135 17.1921 8.04988 17.1753 8.01643C17.1584 7.98298 17.1216 7.91912 17.091 7.87502C17.0619 7.82941 16.9945 7.75034 16.9424 7.69864C16.8903 7.64542 16.8198 7.58308 16.7861 7.55875C16.7508 7.53594 16.6895 7.49641 16.6466 7.4736C16.6053 7.44927 16.5302 7.4143 16.4812 7.39606C16.4306 7.37629 16.3433 7.34892 16.285 7.33523C16.1916 7.31395 16.1609 7.31091 15.9862 7.31091C15.8315 7.31091 15.7733 7.31395 15.7104 7.32763C15.6645 7.33676 15.5909 7.35652 15.5434 7.37173C15.4959 7.38693 15.4162 7.42038 15.3672 7.44471C15.3166 7.47056 15.2446 7.51162 15.2048 7.53747C15.1665 7.56331 15.0837 7.63478 15.0225 7.69408C14.9489 7.76707 14.8937 7.83245 14.857 7.88871C14.8263 7.93584 14.785 8.00731 14.7666 8.04988C14.7467 8.09094 14.7191 8.16392 14.7053 8.21106C14.6915 8.2582 14.6777 8.31294 14.6746 8.3327C14.67 8.35247 14.6639 8.36768 14.6608 8.36768C14.6562 8.36768 14.6195 8.35399 14.5796 8.33879C14.5383 8.32206 14.4632 8.29773 14.4096 8.28557C14.3375 8.26732 14.2793 8.25972 14.1629 8.25668C14.0434 8.25212 13.9882 8.25516 13.91 8.26732C13.8549 8.27644 13.7675 8.29773 13.7154 8.31446C13.6634 8.3327 13.5883 8.36159 13.5484 8.38136C13.5101 8.40113 13.4427 8.43914 13.4013 8.46651C13.36 8.4954 13.2971 8.54102 13.2634 8.57143C13.2297 8.60032 13.1761 8.65354 13.1455 8.68851C13.1148 8.72348 13.0642 8.79038 13.0321 8.83752C13.0014 8.88314 12.9601 8.95612 12.9401 8.9987C12.9202 9.03975 12.8896 9.11578 12.8742 9.16596C12.8574 9.21765 12.8375 9.29824 12.8283 9.3469C12.8191 9.40164 12.813 9.48527 12.813 9.57194C12.813 9.65709 12.8191 9.74224 12.8283 9.79393C12.8359 9.84107 12.8543 9.91862 12.8681 9.96575C12.8819 10.0129 12.9126 10.0904 12.9355 10.1406C12.9601 10.1908 12.9922 10.2516 13.0091 10.2775C13.0244 10.3048 13.0658 10.3596 13.098 10.4021C13.1301 10.4432 13.1546 10.4797 13.1516 10.4843C13.147 10.4873 13.1056 10.4888 13.0581 10.4858C13.0106 10.4827 12.9217 10.4843 12.8589 10.4919C12.7961 10.4979 12.6965 10.5147 12.6398 10.5284C12.5816 10.5436 12.4942 10.5724 12.4452 10.5922C12.3947 10.6135 12.3242 10.6485 12.2874 10.6682C12.2506 10.6895 12.1863 10.7336 12.1449 10.764C12.102 10.796 12.0392 10.8507 12.0055 10.8857C11.9702 10.9222 11.9181 10.983 11.8905 11.0225C11.863 11.0621 11.8216 11.1305 11.8001 11.1746C11.7787 11.2187 11.7496 11.2917 11.7373 11.3358C11.7235 11.3799 11.7082 11.4604 11.7021 11.5152C11.6929 11.5897 11.6929 11.6399 11.7005 11.7098C11.7067 11.7615 11.7205 11.8391 11.7312 11.8801C11.7419 11.9227 11.771 11.9987 11.7955 12.0519C11.8216 12.1036 11.8645 12.1766 11.8905 12.2131C11.9181 12.2496 11.9396 12.2815 11.9396 12.2861C11.9396 12.2906 11.9089 12.2906 11.8706 12.2861C11.8323 12.2815 11.748 12.28 11.6822 12.28C11.604 12.2815 11.5305 12.2891 11.4646 12.3028C11.4094 12.3135 11.3313 12.3363 11.293 12.3499C11.2531 12.3652 11.1934 12.394 11.1597 12.4138C11.1244 12.4336 11.0601 12.4853 11.011 12.5355C10.9467 12.5993 10.9176 12.6373 10.89 12.6921C10.8701 12.7301 10.8456 12.797 10.8348 12.838C10.8226 12.8882 10.8164 12.946 10.8164 13.0068C10.8164 13.057 10.8226 13.1285 10.8302 13.1634C10.8379 13.1984 10.8501 13.2486 10.8593 13.2744C10.8685 13.3003 10.8931 13.3611 10.916 13.4067C10.939 13.4539 10.9819 13.5284 11.0126 13.5709C11.0432 13.6135 11.0999 13.6819 11.1382 13.7245C11.1811 13.7716 11.2026 13.8021 11.1949 13.8051C11.1888 13.8081 11.1443 13.8218 11.0968 13.834C11.0509 13.8477 10.9697 13.8796 10.916 13.9055C10.8639 13.9298 10.7873 13.9754 10.746 14.0073C10.7031 14.0377 10.6341 14.1001 10.5927 14.1442C10.5514 14.1898 10.4962 14.2597 10.4717 14.3008C10.4472 14.3418 10.4135 14.4042 10.3997 14.4407C10.3843 14.4772 10.3644 14.538 10.3537 14.5745C10.3399 14.6247 10.3368 14.6733 10.3368 14.7874C10.3368 14.8984 10.3399 14.9485 10.3537 14.9957C10.3629 15.0291 10.3905 15.1006 10.4165 15.1523C10.441 15.204 10.4855 15.277 10.5146 15.3135C10.5452 15.35 10.5912 15.3986 10.6188 15.4229C10.6464 15.4458 10.7061 15.4883 10.7506 15.5157C10.795 15.5431 10.8655 15.578 10.9068 15.5917C10.9482 15.6069 11.0172 15.6267 11.0601 15.6358C11.106 15.6465 11.1811 15.6525 11.2547 15.6525C11.3205 15.6541 11.4064 15.648 11.4447 15.6419C11.4845 15.6343 11.555 15.6161 11.6025 15.6008C11.6484 15.5856 11.7266 15.5537 11.7741 15.5279C11.8201 15.5035 11.8844 15.464 11.9166 15.4412C11.9472 15.4184 12.0009 15.3728 12.0346 15.3393C12.0698 15.3074 12.0989 15.28 12.102 15.28C12.1051 15.28 12.1204 15.3165 12.1372 15.3636C12.1541 15.4093 12.1924 15.4868 12.2215 15.537C12.2506 15.5856 12.2997 15.6556 12.3288 15.6921C12.3579 15.7286 12.4069 15.7833 12.4345 15.8122C12.4636 15.8411 12.5157 15.8867 12.5494 15.9156C12.5831 15.943 12.6567 15.9962 12.7103 16.0327C12.7655 16.0677 12.8666 16.1254 12.934 16.1574C13.003 16.1908 13.1225 16.2395 13.2006 16.2653C13.2803 16.2912 13.3937 16.3231 13.4534 16.3368C13.5132 16.3505 13.6143 16.3672 13.6771 16.3748C13.74 16.3839 13.8579 16.393 13.9392 16.3961C14.0234 16.3991 14.1445 16.3976 14.2196 16.3915C14.2931 16.3854 14.4065 16.3718 14.4724 16.3596C14.5383 16.3489 14.6409 16.3277 14.7007 16.3125C14.7604 16.2973 14.857 16.2668 14.9152 16.2456C14.9719 16.2243 15.0669 16.1847 15.1236 16.1574C15.1818 16.1285 15.2676 16.0829 15.3151 16.0524C15.3611 16.0236 15.4346 15.9719 15.476 15.9399C15.5189 15.9065 15.594 15.8365 15.6461 15.7848C15.6966 15.7316 15.7411 15.6906 15.7426 15.6951C15.7457 15.6997 15.7487 17.0788 15.7472 21.8229L15.712 21.8183C15.692 21.8137 15.6185 21.7985 15.548 21.7833C15.4775 21.7681 15.355 21.7362 15.2768 21.7134C15.1987 21.6906 15.0562 21.6465 14.9627 21.6146C14.8677 21.5826 14.7145 21.5248 14.6195 21.4868C14.526 21.4488 14.3927 21.3926 14.3253 21.3637C14.2563 21.3333 14.1154 21.2648 14.0112 21.2116C13.9054 21.1584 13.7446 21.0732 13.6542 21.0215C13.5622 20.9698 13.409 20.8908 13.3155 20.8452C13.2205 20.8011 13.0688 20.7342 12.9769 20.6977C12.8865 20.6612 12.7379 20.608 12.649 20.5791C12.5601 20.5502 12.41 20.5061 12.3165 20.4833C12.2215 20.4605 12.0928 20.4316 12.03 20.4209C11.9672 20.4103 11.8691 20.3966 11.8109 20.3905C11.7465 20.3829 11.6423 20.3814 11.5351 20.3844C11.4416 20.3875 11.3129 20.3966 11.2501 20.4057C11.1872 20.4133 11.0876 20.4285 11.031 20.4392C10.9727 20.4498 10.8747 20.4711 10.8118 20.4878C10.749 20.503 10.651 20.5319 10.5927 20.5502C10.536 20.5684 10.4456 20.6004 10.3935 20.6201C10.3399 20.6414 10.248 20.6825 10.1882 20.7129C10.1285 20.7418 10.0365 20.7935 9.98443 20.8284C9.9308 20.8634 9.86338 20.9151 9.8312 20.944C9.80056 20.9744 9.77145 20.9942 9.76685 20.9911C9.76225 20.9866 9.75919 20.6946 9.75919 19.6987L9.81895 19.6455C9.85266 19.6166 9.92467 19.5634 9.9783 19.5269C10.0335 19.4904 10.1346 19.4326 10.202 19.4007C10.271 19.3672 10.3828 19.3201 10.4502 19.2957C10.5177 19.2714 10.6387 19.2349 10.7168 19.2152C10.795 19.1954 10.9145 19.1695 10.9835 19.1574C11.0968 19.1376 11.1351 19.1346 11.4217 19.1346C11.6224 19.1346 11.771 19.1391 11.8354 19.1467C11.8905 19.1543 11.984 19.168 12.0453 19.1771C12.1051 19.1878 12.2123 19.2091 12.2828 19.2258C12.3533 19.241 12.4789 19.2729 12.5632 19.2973C12.6475 19.3216 12.7838 19.3642 12.8681 19.3931C12.9524 19.4219 13.1026 19.4767 13.2006 19.5162C13.3002 19.5558 13.455 19.6196 13.5438 19.6576C13.6327 19.6972 13.835 19.793 13.9913 19.8705C14.1491 19.9465 14.359 20.056 14.4601 20.1107C14.5613 20.1655 14.6455 20.2111 14.6486 20.2111C14.6501 20.2111 14.6532 19.5953 14.6532 17.4711L14.5505 17.5334C14.4938 17.5669 14.4096 17.614 14.3621 17.6368C14.3161 17.6596 14.2364 17.6931 14.1858 17.7129C14.1368 17.7311 14.0495 17.7585 13.9913 17.7737C13.9346 17.7889 13.8488 17.8087 13.8013 17.8178C13.7538 17.8254 13.6404 17.8345 13.5484 17.8375C13.4442 17.8406 13.3446 17.8391 13.2818 17.8315C13.2267 17.8254 13.1378 17.8117 13.0826 17.8011C13.0275 17.7904 12.9294 17.7646 12.8635 17.7433C12.7976 17.722 12.7011 17.687 12.649 17.6627C12.5969 17.6399 12.5004 17.5897 12.4345 17.5502C12.3701 17.5122 12.269 17.4422 12.2108 17.3951C12.1541 17.3495 12.0637 17.2674 12.0101 17.2141C11.958 17.1594 11.8798 17.0682 11.8369 17.0104C11.794 16.9541 11.7389 16.8705 11.7143 16.8264C11.6883 16.7838 11.6668 16.7458 11.6638 16.7443C11.6607 16.7428 11.6178 16.7549 11.5688 16.7732C11.5182 16.7899 11.4339 16.8158 11.3788 16.8294C11.3236 16.8431 11.2286 16.8614 11.1689 16.8705C11.0953 16.8811 11.0018 16.8857 10.8839 16.8872C10.7858 16.8872 10.6663 16.8811 10.6172 16.8751C10.5667 16.8675 10.4763 16.8522 10.4165 16.8386C10.3568 16.8249 10.2587 16.7975 10.1974 16.7777C10.1377 16.7565 10.0289 16.7108 9.95532 16.6743C9.88177 16.6394 9.7883 16.5877 9.7454 16.5603C9.70403 16.5329 9.63508 16.4843 9.59371 16.4523C9.5508 16.4204 9.47419 16.3535 9.42363 16.3049C9.37153 16.2547 9.29645 16.1741 9.25661 16.1239C9.21677 16.0753 9.16008 15.9977 9.13097 15.9536C9.10186 15.9095 9.05589 15.832 9.02984 15.7833C9.00226 15.7331 8.96242 15.6434 8.93791 15.5841C8.91339 15.5233 8.88428 15.4336 8.87049 15.3849C8.8567 15.3348 8.83678 15.2481 8.82605 15.1903C8.81226 15.1173 8.8046 15.0306 8.80154 14.9014C8.79847 14.7889 8.8 14.6779 8.80613 14.6216C8.81226 14.5684 8.82605 14.4817 8.83831 14.427C8.84903 14.3723 8.87662 14.2704 8.8996 14.1989C8.92258 14.129 8.96855 14.0165 9.00226 13.948C9.03597 13.8796 9.09266 13.7792 9.12944 13.7245C9.16468 13.6698 9.22137 13.5937 9.25355 13.5542C9.28419 13.5147 9.36081 13.4341 9.42363 13.3733C9.48492 13.3124 9.57992 13.2319 9.72701 13.1224L9.71016 13.0524C9.70096 13.0129 9.68871 12.9384 9.68258 12.8852C9.67645 12.832 9.67492 12.7483 9.67798 12.6921C9.68104 12.6373 9.69024 12.5552 9.69943 12.5111C9.70709 12.467 9.72701 12.3925 9.74233 12.3454C9.75766 12.2983 9.79137 12.2177 9.81741 12.166C9.845 12.1127 9.89403 12.0306 9.92927 11.9805C9.96451 11.9318 10.0335 11.8497 10.084 11.7995C10.1331 11.7493 10.2173 11.6764 10.2694 11.6383C10.3215 11.5988 10.4027 11.5471 10.4487 11.5197C10.4947 11.4939 10.5314 11.4726 10.5314 11.4726C10.5314 11.4726 10.5192 11.4361 10.5039 11.392C10.4885 11.3479 10.4671 11.2734 10.4564 11.2263C10.4456 11.1791 10.4318 11.094 10.4257 11.0362C10.4196 10.9754 10.4165 10.8918 10.4211 10.8325C10.4242 10.7777 10.4334 10.7017 10.441 10.6622C10.4487 10.6226 10.4656 10.5572 10.4793 10.5147C10.4931 10.4736 10.5192 10.4067 10.5376 10.3687C10.556 10.3292 10.5989 10.2547 10.6341 10.203C10.6709 10.1467 10.7337 10.0707 10.7873 10.0175C10.8379 9.96575 10.9176 9.90037 10.9697 9.86692C11.0187 9.83347 11.0922 9.79089 11.1305 9.77113C11.1704 9.75136 11.2317 9.72399 11.2685 9.71031C11.3052 9.69662 11.3849 9.67381 11.4447 9.65861C11.5044 9.6434 11.5841 9.62668 11.6193 9.62212C11.6714 9.61603 11.6822 9.61147 11.6776 9.60083C11.673 9.5917 11.6561 9.53697 11.6377 9.47766C11.6209 9.41684 11.5979 9.31649 11.5872 9.25415C11.578 9.1918 11.5672 9.09145 11.5642 9.03063C11.5596 8.97133 11.5626 8.86945 11.5688 8.80407C11.5734 8.73869 11.5887 8.63225 11.6025 8.56839C11.6147 8.50452 11.6408 8.40721 11.6607 8.35095C11.6791 8.29469 11.7159 8.20194 11.7434 8.14416C11.771 8.0879 11.817 8.00427 11.8446 7.96017C11.8722 7.91608 11.9181 7.84765 11.9488 7.80812C11.9779 7.77011 12.0376 7.70016 12.0821 7.65303C12.1265 7.60589 12.2016 7.53747 12.2491 7.49945C12.2966 7.46144 12.3732 7.4067 12.4207 7.37629C12.4682 7.34588 12.5617 7.29418 12.6306 7.26225C12.698 7.2288 12.8038 7.18774 12.8635 7.16798C12.9233 7.14973 13.0152 7.1254 13.0673 7.11476C13.1393 7.09955 13.2129 7.09347 13.363 7.09043C13.5009 7.08739 13.5913 7.09043 13.7476 7.11172L13.8104 7.02048C13.8442 6.97183 13.9009 6.89428 13.9361 6.85018C13.9713 6.80609 14.0556 6.71334 14.1246 6.64643C14.192 6.57801 14.2854 6.49286 14.3299 6.45789C14.3743 6.42292 14.4617 6.35905 14.5245 6.318C14.5873 6.27542 14.7053 6.20852 14.7865 6.16899C14.8677 6.12793 14.9765 6.07928 15.0286 6.06103C15.0807 6.04126 15.1757 6.01085 15.2385 5.99413C15.3013 5.97588 15.404 5.95155 15.4668 5.94091C15.5296 5.93026 15.62 5.91658 15.6675 5.91202C15.7135 5.90898 15.8192 5.90441 15.9004 5.90289ZM11.5596 20.8725C11.6347 20.8741 11.7557 20.8832 11.8262 20.8908C11.8967 20.8984 11.9993 20.9136 12.0545 20.9242C12.1097 20.9334 12.2062 20.9562 12.269 20.9714C12.3318 20.9866 12.4299 21.0155 12.4866 21.0337C12.5448 21.052 12.6521 21.09 12.7256 21.1189C12.7992 21.1477 12.9309 21.2055 13.0198 21.2496C13.1087 21.2937 13.2297 21.3561 13.2864 21.3895C13.3446 21.423 13.4534 21.4883 13.53 21.5355C13.6051 21.5826 13.7262 21.6526 13.7967 21.6936C13.8671 21.7332 14.0127 21.8077 14.12 21.8594C14.2272 21.9126 14.385 21.9825 14.4724 22.016C14.5582 22.0494 14.6915 22.0981 14.7666 22.1209C14.8432 22.1452 14.9719 22.1817 15.0531 22.203C15.1343 22.2228 15.2477 22.2486 15.3044 22.2577C15.3626 22.2684 15.4545 22.2836 15.5097 22.2912C15.5649 22.2988 15.6691 22.311 15.7426 22.317C15.8254 22.3231 15.9786 22.3262 16.1471 22.3231C16.3141 22.3201 16.4689 22.3125 16.547 22.3018C16.6175 22.2942 16.734 22.276 16.8045 22.2638C16.8749 22.2501 17.0021 22.2228 17.0849 22.203C17.1691 22.1817 17.3055 22.1437 17.3898 22.1163C17.4741 22.089 17.6165 22.0373 17.7085 22.0008C17.8004 21.9643 17.9567 21.8958 18.0563 21.8472C18.1559 21.8001 18.2907 21.7301 18.3566 21.6936C18.421 21.6571 18.5711 21.5674 18.6891 21.496C18.8071 21.4245 18.9726 21.3302 19.0553 21.2861C19.1396 21.2435 19.2698 21.1812 19.3465 21.1493C19.4215 21.1173 19.5533 21.0687 19.6361 21.0413C19.7203 21.0124 19.8429 20.9774 19.9073 20.9607C19.9731 20.9455 20.0789 20.9242 20.1417 20.9136C20.2045 20.9029 20.2934 20.8893 20.3409 20.8847C20.3884 20.8801 20.4926 20.8725 20.5738 20.8695C20.6596 20.8665 20.7806 20.868 20.8649 20.8741C20.9431 20.8801 21.061 20.8938 21.1269 20.9045C21.1913 20.9151 21.2878 20.9334 21.3399 20.947C21.3935 20.9607 21.4717 20.982 21.5161 20.9957C21.5606 21.0094 21.6418 21.0383 21.6969 21.0596C21.7521 21.0824 21.8379 21.1204 21.8885 21.1447C21.9375 21.169 22.0141 21.2116 22.0585 21.239C22.1045 21.2648 22.1719 21.3104 22.2118 21.3393C22.2501 21.3697 22.3114 21.4199 22.4125 21.5157L22.4109 22.8234L22.3527 22.7656C22.319 22.7337 22.2562 22.6774 22.2118 22.6394C22.1673 22.6014 22.08 22.536 22.0172 22.4934C21.9528 22.4524 21.8379 22.387 21.7597 22.349C21.6816 22.311 21.5667 22.2638 21.5069 22.2425C21.4472 22.2212 21.3414 22.1924 21.274 22.1756C21.2051 22.1589 21.1024 22.1391 21.0457 22.1315C20.9875 22.1224 20.8634 22.1118 20.7699 22.1072C20.6749 22.1011 20.5462 22.0996 20.4834 22.1026C20.4206 22.1057 20.3133 22.1148 20.2459 22.1239C20.1769 22.1315 20.0666 22.1483 19.9977 22.1604C19.9302 22.1741 19.8184 22.1984 19.751 22.2167C19.682 22.2349 19.5717 22.2684 19.5027 22.2912C19.4353 22.314 19.3388 22.349 19.2898 22.3687C19.2392 22.3885 19.1381 22.4326 19.0661 22.4676C18.9925 22.5025 18.8439 22.5816 18.7366 22.644C18.6294 22.7048 18.4608 22.7975 18.3612 22.8477C18.2616 22.8994 18.1207 22.9678 18.0471 22.9998C17.9736 23.0317 17.8449 23.0849 17.7606 23.1184C17.6778 23.1503 17.543 23.1989 17.4618 23.2248C17.3806 23.2506 17.2565 23.2871 17.1845 23.3054C17.114 23.3252 16.9945 23.3525 16.9194 23.3677C16.8428 23.3829 16.7202 23.4042 16.6466 23.4149C16.5746 23.4255 16.4566 23.4392 16.3862 23.4453C16.3141 23.4514 16.1548 23.4574 16.0291 23.4574C15.9035 23.4574 15.7472 23.4514 15.6813 23.4453C15.6154 23.4392 15.5066 23.427 15.4377 23.4164C15.3703 23.4057 15.2523 23.386 15.1772 23.3692C15.1006 23.354 14.978 23.3236 14.906 23.3039C14.8325 23.2826 14.7083 23.243 14.6287 23.2172C14.5505 23.1898 14.4142 23.1366 14.3253 23.0986C14.2349 23.0606 14.0679 22.983 13.9529 22.9253C13.838 22.8675 13.6511 22.7702 13.5392 22.7109C13.4274 22.65 13.268 22.571 13.1868 22.533C13.1056 22.4965 12.9723 22.4387 12.8926 22.4067C12.8114 22.3733 12.6643 22.3216 12.5678 22.2897C12.4713 22.2577 12.3211 22.2152 12.2353 22.1939C12.148 22.1726 12.0238 22.1467 11.9595 22.1361C11.8936 22.1255 11.7848 22.1133 11.7159 22.1072C11.627 22.0996 11.5381 22.0996 11.3972 22.1072C11.2899 22.1118 11.1566 22.1239 11.103 22.1315C11.0478 22.1407 10.9528 22.1574 10.8931 22.1711C10.8333 22.1848 10.7322 22.2121 10.6693 22.2334C10.6065 22.2547 10.5161 22.2881 10.4686 22.3094C10.4227 22.3292 10.3491 22.3642 10.3077 22.387C10.2648 22.4098 10.1867 22.4584 10.1315 22.4949C10.0764 22.5299 10.0028 22.5831 9.96911 22.609C9.9354 22.6364 9.87717 22.688 9.8404 22.7245C9.80362 22.761 9.77145 22.7869 9.76685 22.7838C9.76225 22.7793 9.75919 22.4858 9.75919 21.4868L9.83274 21.4245C9.87411 21.3895 9.9308 21.3454 9.95991 21.3241C9.98903 21.3028 10.0411 21.2694 10.0764 21.2466C10.1116 21.2253 10.1913 21.1812 10.2526 21.1508C10.3139 21.1204 10.4089 21.0763 10.464 21.055C10.5192 21.0337 10.6157 21.0018 10.6785 20.9835C10.7414 20.9653 10.844 20.9394 10.9068 20.9273C10.9697 20.9151 11.057 20.8999 11.103 20.8938C11.1474 20.8877 11.2363 20.8786 11.3022 20.8756C11.368 20.871 11.483 20.8695 11.5596 20.8725ZM20.5983 22.577C20.7653 22.5801 20.8588 22.5862 20.9507 22.5999C21.0181 22.6105 21.1131 22.6272 21.1591 22.6363C21.2066 22.647 21.2924 22.6698 21.3506 22.6865C21.4073 22.7033 21.5039 22.7352 21.5636 22.7595C21.6249 22.7823 21.7276 22.8295 21.795 22.8629C21.8624 22.8964 21.9559 22.9481 22.0049 22.9769C22.0524 23.0074 22.1336 23.0621 22.1826 23.1001C22.2332 23.1381 22.3052 23.1959 22.4109 23.2932L22.4125 24.7392L22.2516 24.5826C22.1643 24.496 22.0539 24.3941 22.0064 24.3546C21.9605 24.315 21.8869 24.2572 21.8455 24.2253C21.8026 24.1934 21.726 24.1402 21.6739 24.1067C21.6218 24.0717 21.533 24.02 21.4778 23.9911C21.4242 23.9623 21.3307 23.9197 21.274 23.8969C21.2158 23.8725 21.1285 23.8437 21.0794 23.83C21.0289 23.8163 20.9522 23.798 20.9078 23.7904C20.8634 23.7813 20.7485 23.7722 20.6504 23.7691C20.5447 23.7661 20.4236 23.7691 20.3455 23.7767C20.275 23.7828 20.1555 23.798 20.0789 23.8102C20.0038 23.8239 19.8873 23.8467 19.8215 23.8619C19.7571 23.8786 19.6544 23.906 19.5931 23.9242C19.5334 23.944 19.4215 23.982 19.3465 24.0109C19.2698 24.0398 19.1488 24.0915 19.0752 24.1265C19.0017 24.1614 18.8515 24.242 18.7412 24.3044C18.6324 24.3682 18.4715 24.4564 18.3842 24.5005C18.2984 24.5446 18.1697 24.6085 18.0992 24.6404C18.0287 24.6723 17.9153 24.721 17.8464 24.7484C17.779 24.7757 17.6732 24.8153 17.6135 24.8366C17.5537 24.8578 17.4541 24.8913 17.3944 24.9095C17.3346 24.9293 17.2289 24.9582 17.1615 24.9764C17.0941 24.9932 16.973 25.0205 16.8949 25.0373C16.8167 25.0525 16.688 25.0738 16.6099 25.0844C16.5302 25.0951 16.3938 25.1087 16.3049 25.1148C16.2054 25.1209 16.0598 25.1239 15.928 25.1194C15.8116 25.1163 15.6568 25.1072 15.5863 25.0996C15.5158 25.092 15.3979 25.0753 15.3243 25.0616C15.2508 25.0494 15.1435 25.0281 15.0868 25.0145C15.0286 25.0008 14.9167 24.9704 14.8386 24.9476C14.7604 24.9247 14.6256 24.8791 14.5383 24.8472C14.4525 24.8153 14.3253 24.7651 14.2579 24.7347C14.1904 24.7043 14.0587 24.6419 13.9683 24.5963C13.8763 24.5507 13.7246 24.4716 13.6296 24.4215C13.5362 24.3713 13.4075 24.3029 13.3446 24.2724C13.2818 24.2405 13.1746 24.1903 13.1056 24.1614C13.0382 24.131 12.9141 24.0793 12.8298 24.0474C12.7455 24.014 12.6214 23.9699 12.554 23.947C12.4866 23.9258 12.3579 23.8893 12.269 23.8665C12.1786 23.8437 12.0407 23.8148 11.9595 23.7996C11.8522 23.7813 11.7634 23.7737 11.6347 23.7691C11.5228 23.7661 11.4201 23.7691 11.3497 23.7767C11.2899 23.7828 11.1934 23.7996 11.1351 23.8148C11.0785 23.8284 10.9881 23.8573 10.936 23.8756C10.8839 23.8954 10.7873 23.9379 10.7214 23.9714C10.6556 24.0048 10.5514 24.0656 10.4885 24.1067C10.4257 24.1478 10.3307 24.2147 10.2786 24.2557C10.2265 24.2968 10.1361 24.3713 10.0794 24.4215C10.0212 24.4732 9.92927 24.5598 9.87411 24.6146C9.81895 24.6693 9.77145 24.7119 9.76685 24.7104C9.76379 24.7073 9.75919 24.3865 9.75919 23.2887L9.84193 23.2172C9.88637 23.1777 9.95838 23.1214 10.0013 23.091C10.0442 23.0606 10.1177 23.0119 10.1652 22.983C10.2112 22.9526 10.3185 22.8964 10.4027 22.8553C10.4885 22.8143 10.6234 22.7595 10.7122 22.7291C10.7981 22.7002 10.9176 22.6652 10.9789 22.6531C11.0386 22.6394 11.1443 22.6196 11.2118 22.609C11.2884 22.5968 11.411 22.5877 11.5305 22.5847C11.65 22.5816 11.7756 22.5831 11.8538 22.5907C11.9243 22.5968 12.0422 22.612 12.1158 22.6242C12.1893 22.6363 12.2951 22.6576 12.3487 22.6713C12.4038 22.685 12.5096 22.7169 12.5831 22.7397C12.6551 22.7641 12.767 22.8051 12.8298 22.831C12.8926 22.8568 13.0259 22.9192 13.1255 22.9693C13.2251 23.0195 13.3891 23.1123 13.4917 23.1761C13.5944 23.2385 13.7354 23.3221 13.8059 23.3616C13.8763 23.4012 14.0173 23.4742 14.12 23.5243C14.2226 23.573 14.3697 23.6384 14.4479 23.6703C14.5275 23.7022 14.6578 23.7494 14.739 23.7767C14.8202 23.8026 14.9612 23.8437 15.0531 23.8665C15.145 23.8893 15.2829 23.9182 15.3626 23.9318C15.4408 23.9455 15.5649 23.9638 15.6384 23.9714C15.712 23.979 15.8591 23.9881 15.9663 23.9911C16.0828 23.9942 16.2237 23.9927 16.3141 23.9866C16.3984 23.9805 16.5195 23.9683 16.5853 23.9607C16.6512 23.9531 16.7876 23.9303 16.8903 23.909C16.9929 23.8893 17.1354 23.8558 17.209 23.8345C17.2825 23.8132 17.4066 23.7752 17.4848 23.7479C17.5629 23.722 17.6855 23.6764 17.756 23.646C17.8265 23.6171 17.9582 23.5593 18.0471 23.5167C18.136 23.4742 18.2724 23.4027 18.352 23.3601C18.4302 23.316 18.5711 23.2324 18.6661 23.1746C18.7596 23.1168 18.8868 23.0408 18.9465 23.0089C19.0063 22.9754 19.1013 22.9268 19.1565 22.9024C19.2101 22.8766 19.3066 22.834 19.3694 22.8097C19.4323 22.7838 19.5319 22.7489 19.5885 22.7306C19.6468 22.7109 19.7341 22.685 19.7847 22.6728C19.8337 22.6592 19.9149 22.6409 19.9655 22.6303C20.0145 22.6196 20.1095 22.6059 20.1739 22.5968C20.2398 22.5892 20.3102 22.5801 20.3317 22.5786C20.3531 22.5755 20.4727 22.5755 20.5983 22.577ZM12.5494 25.7215C12.6046 25.7215 12.6873 25.7246 12.7348 25.7306C12.7823 25.7352 12.8574 25.7489 12.9018 25.7595C12.9463 25.7702 13.0152 25.7915 13.0535 25.8067C13.0934 25.8234 13.1546 25.8553 13.1899 25.8781C13.2251 25.9009 13.2742 25.9374 13.2971 25.9602C13.3217 25.9815 13.36 26.0241 13.383 26.053C13.4044 26.0819 13.4412 26.1381 13.4611 26.1807C13.4825 26.2218 13.5101 26.2932 13.5239 26.3373C13.5362 26.3814 13.553 26.4574 13.5622 26.5076C13.5699 26.5578 13.5806 26.6612 13.5867 26.7403C13.5913 26.8209 13.5959 27.3089 13.5959 27.8594C13.5959 28.4098 13.5913 28.8979 13.5867 28.9785C13.5806 29.056 13.5699 29.161 13.5622 29.2096C13.553 29.2598 13.5362 29.3358 13.5224 29.3814C13.5101 29.4255 13.4856 29.4909 13.4672 29.5274C13.4488 29.5639 13.4121 29.6247 13.3845 29.6612C13.3554 29.6977 13.3033 29.7524 13.2665 29.7829C13.2282 29.8148 13.1608 29.8574 13.1056 29.8847C13.052 29.9106 12.9692 29.941 12.9156 29.9547C12.8635 29.9684 12.7624 29.9836 12.6919 29.9896C12.5938 29.9972 12.5341 29.9972 12.4391 29.9896C12.3717 29.9836 12.2797 29.9699 12.2353 29.9592C12.1909 29.9486 12.1219 29.9258 12.0821 29.9106C12.0438 29.8954 11.9809 29.8619 11.9442 29.8391C11.9074 29.8148 11.8553 29.7737 11.8262 29.7464C11.7986 29.7205 11.7572 29.6734 11.7358 29.6414C11.7128 29.611 11.6822 29.5593 11.6653 29.5274C11.65 29.497 11.627 29.4346 11.6132 29.3906C11.5994 29.3465 11.581 29.272 11.5734 29.2248C11.5657 29.1777 11.555 29.0895 11.5504 29.0302C11.5443 28.9648 11.5397 28.4874 11.5397 27.8594C11.5397 27.2268 11.5443 26.7509 11.5504 26.6825C11.555 26.6201 11.5672 26.5244 11.578 26.4696C11.5887 26.4149 11.6071 26.3404 11.6193 26.3039C11.6316 26.2674 11.6607 26.202 11.6837 26.1579C11.7113 26.1062 11.7496 26.0515 11.7925 26.0058C11.8293 25.9678 11.8844 25.9177 11.9166 25.8948C11.9472 25.8736 12.0055 25.8401 12.0453 25.8219C12.0836 25.8036 12.1587 25.7778 12.2108 25.7641C12.2629 25.7504 12.338 25.7352 12.3778 25.7306C12.4176 25.7261 12.4942 25.723 12.5494 25.7215ZM12.5034 26.4848C12.4927 26.4863 12.4667 26.5031 12.4483 26.5198C12.4253 26.5396 12.41 26.5654 12.4008 26.5973C12.3885 26.6384 12.387 26.8345 12.3901 27.8776L12.3916 29.1108C12.4253 29.1731 12.4483 29.199 12.4651 29.2096C12.4835 29.2187 12.5142 29.2309 12.5356 29.2339C12.5555 29.2385 12.5908 29.2385 12.6138 29.2355C12.6383 29.2309 12.6659 29.2187 12.6842 29.202C12.7011 29.1868 12.7241 29.1564 12.7348 29.1336C12.7532 29.0925 12.7532 29.0682 12.7563 27.9111C12.7593 27.1006 12.7563 26.7068 12.7486 26.6551C12.744 26.6125 12.7302 26.5654 12.7195 26.5487C12.7103 26.5304 12.6858 26.5091 12.6659 26.5C12.6459 26.4894 12.6153 26.4803 12.5969 26.4772C12.5785 26.4742 12.5555 26.4742 12.5448 26.4757C12.5341 26.4787 12.5157 26.4818 12.5034 26.4848ZM17.1446 25.7306C17.2136 25.7306 17.3132 25.7352 17.3637 25.7398C17.4143 25.7458 17.497 25.761 17.5476 25.7732C17.5966 25.7869 17.6824 25.8188 17.7376 25.8447C17.8234 25.8872 17.8495 25.9055 17.9245 25.98C17.9981 26.0545 18.018 26.0804 18.0548 26.1564C18.0839 26.2157 18.1069 26.2841 18.1222 26.351C18.139 26.4225 18.1498 26.5091 18.1559 26.6262C18.162 26.7251 18.1651 27.0596 18.1605 28.0586L17.0037 28.0631L17.0067 28.5908C17.0082 29.0986 17.0098 29.1214 17.0282 29.1564C17.0389 29.1777 17.0603 29.2035 17.0757 29.2142C17.0971 29.2294 17.1186 29.2339 17.1676 29.2339C17.2182 29.2339 17.2366 29.2294 17.258 29.2142C17.2733 29.202 17.2932 29.1838 17.3024 29.1716C17.3101 29.1594 17.3224 29.1245 17.3285 29.0971C17.3331 29.0682 17.3377 28.9177 17.3377 28.4798H18.1651L18.162 28.8386C18.159 29.0347 18.1528 29.2263 18.1467 29.2628C18.1421 29.2993 18.1283 29.3601 18.1191 29.3997C18.1084 29.4392 18.0885 29.497 18.0747 29.5274C18.0609 29.5593 18.0333 29.608 18.0134 29.6369C17.9935 29.6658 17.9445 29.7205 17.9031 29.7585C17.8464 29.8117 17.805 29.8406 17.733 29.8756C17.6778 29.9015 17.5966 29.9319 17.5415 29.9455C17.4894 29.9577 17.3974 29.9744 17.3377 29.979C17.2764 29.9851 17.1676 29.9881 17.0895 29.9851C17.0144 29.982 16.9163 29.9729 16.8703 29.9653C16.8259 29.9562 16.7585 29.9395 16.7187 29.9258C16.6788 29.9121 16.6221 29.8878 16.5899 29.8726C16.5593 29.8558 16.5164 29.83 16.4949 29.8148C16.4735 29.7981 16.4383 29.7676 16.4153 29.7464C16.3938 29.7251 16.3601 29.6886 16.3433 29.6658C16.3249 29.6414 16.2958 29.5913 16.2758 29.5517C16.2559 29.5122 16.2299 29.4422 16.2191 29.3951C16.2069 29.348 16.1916 29.2613 16.1854 29.2005C16.1778 29.1214 16.1762 28.7276 16.1824 26.4742L16.2038 26.3799C16.2161 26.3282 16.2375 26.2522 16.2529 26.2142C16.2682 26.1746 16.2973 26.1168 16.3187 26.0849C16.3417 26.0545 16.377 26.0104 16.3984 25.9876C16.4199 25.9648 16.4643 25.9283 16.4949 25.9055C16.5271 25.8827 16.5838 25.8492 16.6237 25.831C16.6635 25.8112 16.7355 25.7869 16.7861 25.7732C16.8351 25.761 16.9087 25.7458 16.947 25.7413C16.9868 25.7367 17.0757 25.7322 17.1446 25.7306ZM17.045 26.5411C17.0343 26.5563 17.0205 26.5882 17.0144 26.6125C17.0082 26.6369 17.0052 26.7965 17.0052 26.9988L17.0037 27.3424H17.3377C17.3377 26.8391 17.3331 26.6673 17.3285 26.6353C17.3224 26.6049 17.3116 26.5684 17.3024 26.5563C17.2932 26.5441 17.2733 26.5243 17.258 26.5137C17.2411 26.5 17.2136 26.4924 17.1814 26.4909C17.1553 26.4894 17.1186 26.4939 17.1002 26.5C17.0818 26.5076 17.0573 26.5259 17.045 26.5411ZM19.4246 25.7413C19.4706 25.7398 19.5502 25.7443 19.6008 25.7504C19.6514 25.755 19.7341 25.7702 19.7847 25.7838C19.8337 25.796 19.918 25.8264 19.9701 25.8523C20.0222 25.8781 20.0942 25.9237 20.1294 25.9526C20.1647 25.9815 20.2198 26.0378 20.252 26.0788C20.2842 26.1184 20.324 26.1822 20.3409 26.2187C20.3593 26.2552 20.3823 26.3206 20.393 26.3647C20.4037 26.4103 20.416 26.4848 20.4221 26.532C20.4267 26.5776 20.4344 26.7387 20.4451 27.1615H19.6039L19.6008 26.8893C19.5977 26.6384 19.5962 26.6141 19.5794 26.5791C19.5686 26.5578 19.5456 26.5304 19.5273 26.5183C19.4981 26.5 19.4844 26.497 19.4292 26.5C19.3679 26.5031 19.3618 26.5046 19.3311 26.538C19.3127 26.5578 19.2944 26.5928 19.2882 26.6141C19.2821 26.6399 19.279 26.7387 19.2806 26.8862C19.2836 27.1037 19.2852 27.1219 19.3051 27.1615C19.3173 27.1858 19.3388 27.2192 19.3541 27.2375C19.3694 27.2557 19.4123 27.2953 19.4522 27.3242C19.4905 27.353 19.6054 27.4306 19.7081 27.4944C19.8107 27.5583 19.9256 27.6313 19.9655 27.6571C20.0038 27.6845 20.0712 27.7317 20.1126 27.7636C20.1539 27.797 20.2183 27.8548 20.2551 27.8944C20.2919 27.9339 20.3363 27.9886 20.3531 28.016C20.37 28.0449 20.3945 28.0951 20.4083 28.1285C20.4221 28.1635 20.4435 28.2319 20.4543 28.2806C20.4727 28.3642 20.4742 28.4007 20.4742 28.7793C20.4742 29.1381 20.4727 29.1959 20.4573 29.272C20.4466 29.3191 20.4267 29.3906 20.4114 29.4331C20.396 29.4742 20.3654 29.538 20.3439 29.5745C20.321 29.611 20.2735 29.6734 20.2367 29.7114C20.1999 29.7494 20.1402 29.8011 20.1034 29.8254C20.0666 29.8482 20.0038 29.8817 19.9655 29.8984C19.9256 29.9151 19.8567 29.9379 19.8123 29.9486C19.7678 29.9592 19.6912 29.9729 19.6406 29.979C19.5886 29.9851 19.4981 29.9881 19.4231 29.9851C19.3511 29.982 19.2591 29.9729 19.2177 29.9653C19.1764 29.9562 19.112 29.9395 19.0752 29.9273C19.0385 29.9151 18.9787 29.8893 18.9419 29.871C18.9052 29.8528 18.8485 29.8193 18.8178 29.795C18.7857 29.7722 18.7397 29.7296 18.7136 29.7023C18.6876 29.6734 18.6477 29.6217 18.6248 29.5852C18.6003 29.5487 18.5696 29.4848 18.5543 29.4453C18.539 29.4042 18.5206 29.3358 18.5129 29.2932C18.5007 29.2324 18.4961 29.1321 18.4899 28.4798H19.3173L19.3204 28.8006C19.3219 29.1077 19.3235 29.1214 19.3434 29.1579C19.3541 29.1792 19.3771 29.2035 19.3955 29.2142C19.4139 29.2248 19.4461 29.2324 19.4752 29.2324C19.5058 29.2339 19.5334 29.2263 19.5548 29.2142C19.5732 29.2035 19.5993 29.1762 19.6131 29.1533C19.6361 29.1108 19.6361 29.1077 19.6391 28.8599C19.6422 28.7018 19.6391 28.5847 19.6315 28.5467C19.6253 28.5132 19.6115 28.4676 19.5993 28.4463C19.587 28.4265 19.5533 28.387 19.5257 28.3612C19.4981 28.3338 19.4093 28.2699 19.3296 28.2182C19.2499 28.1665 19.1273 28.0875 19.0584 28.0434C18.9894 27.9993 18.8975 27.9384 18.8561 27.9065C18.8148 27.8761 18.7489 27.8214 18.709 27.7834C18.6707 27.7469 18.6217 27.6906 18.5987 27.6602C18.5757 27.6283 18.5436 27.5735 18.5282 27.5385C18.5114 27.5036 18.4899 27.4397 18.4807 27.3971C18.47 27.353 18.4562 27.2694 18.4516 27.2086C18.447 27.1493 18.4424 27.0018 18.4424 26.8817C18.4424 26.7616 18.447 26.6217 18.4516 26.57C18.4562 26.5167 18.47 26.4377 18.4807 26.3936C18.4915 26.3495 18.5206 26.2704 18.5466 26.2187C18.5711 26.1655 18.614 26.0986 18.6386 26.0667C18.6646 26.0363 18.7152 25.9861 18.7519 25.9557C18.7887 25.9237 18.8592 25.8796 18.9128 25.8523C18.968 25.8249 19.0477 25.796 19.1028 25.7823C19.1565 25.7686 19.23 25.755 19.2698 25.7504C19.3097 25.7458 19.3786 25.7413 19.4246 25.7413ZM13.884 25.7565L14.4984 25.761C15.0102 25.7641 15.1297 25.7671 15.2048 25.7808C15.2554 25.7884 15.3212 25.8021 15.3534 25.8112C15.3841 25.8188 15.4377 25.8371 15.4714 25.8508C15.5051 25.8644 15.5587 25.8918 15.5909 25.9101C15.6216 25.9298 15.6737 25.9739 15.7058 26.0058C15.7395 26.0423 15.7763 26.094 15.7978 26.1381C15.8177 26.1777 15.8422 26.2431 15.8545 26.2841C15.8744 26.3571 15.8759 26.3753 15.8759 26.7737C15.8759 27.1706 15.8744 27.1888 15.8545 27.2618C15.8422 27.3029 15.8177 27.3698 15.7993 27.4078C15.7733 27.4595 15.7441 27.499 15.6966 27.5477C15.6507 27.5933 15.6062 27.6252 15.5603 27.6495C15.522 27.6678 15.4591 27.6921 15.4224 27.7028C15.3841 27.7134 15.3243 27.7241 15.2891 27.7286C15.2523 27.7332 15.2247 27.7377 15.2247 27.7408C15.2247 27.7423 15.2661 27.7499 15.3166 27.7575C15.3687 27.7636 15.4362 27.7757 15.4668 27.7849C15.499 27.7925 15.5495 27.8107 15.5817 27.8244C15.6124 27.8396 15.6599 27.8685 15.6859 27.8883C15.712 27.9096 15.7503 27.9521 15.7717 27.9825C15.7916 28.013 15.8177 28.0662 15.8299 28.1011C15.8422 28.1346 15.8591 28.2045 15.8667 28.2578C15.8774 28.3338 15.8805 28.4554 15.8805 28.8812C15.8805 29.2035 15.8851 29.4377 15.8912 29.4833C15.8974 29.5228 15.9173 29.6034 15.9357 29.6612C15.9556 29.7205 15.9924 29.7996 16.0184 29.8452C16.0445 29.8893 16.0966 29.9562 16.1349 29.9957C16.1716 30.0353 16.2329 30.09 16.2728 30.1174C16.3111 30.1432 16.3693 30.1782 16.4015 30.1949C16.4352 30.2116 16.4888 30.2344 16.521 30.2466C16.5547 30.2603 16.6298 30.2816 16.6895 30.2937C16.7508 30.3074 16.8535 30.3242 16.9194 30.3302C16.9883 30.3363 17.0941 30.3378 17.3086 30.3287V31.1833L17.2687 31.1878C17.2457 31.1893 17.1324 31.1939 17.0144 31.1969C16.8428 31.203 16.7753 31.2 16.6803 31.1878C16.616 31.1787 16.5118 31.162 16.452 31.1483C16.3923 31.1346 16.2866 31.1042 16.2191 31.0814C16.1502 31.0571 16.0521 31.019 16 30.9932C15.9479 30.9689 15.8637 30.9248 15.8146 30.8944C15.7641 30.8639 15.689 30.8123 15.6476 30.7818C15.6062 30.7499 15.522 30.6754 15.4622 30.6146C15.4025 30.5538 15.3289 30.4701 15.2983 30.4291C15.2691 30.3865 15.2201 30.3074 15.1925 30.2527C15.1634 30.198 15.1251 30.1082 15.1067 30.0535C15.0883 29.9988 15.0638 29.9015 15.0516 29.8361C15.0317 29.722 15.0301 29.6931 15.024 29.0104C15.0194 28.4782 15.0148 28.2958 15.0056 28.2669C14.9995 28.2456 14.9842 28.2121 14.9719 28.1909C14.9596 28.1696 14.9382 28.1407 14.9229 28.127C14.9075 28.1133 14.8769 28.0935 14.8524 28.0829C14.8294 28.0723 14.7896 28.0616 14.7191 28.054V29.9592H13.8825L13.884 25.7565ZM14.7191 27.3424C14.9091 27.3424 14.9305 27.3394 14.9673 27.3211C14.9964 27.3059 15.0163 27.2861 15.0316 27.2618C15.0424 27.2405 15.0577 27.1934 15.0623 27.1569C15.07 27.1143 15.073 27.0124 15.07 26.8726C15.0669 26.6962 15.0623 26.646 15.0485 26.6125C15.0408 26.5882 15.024 26.5593 15.0117 26.5472C15.001 26.535 14.9765 26.5183 14.9596 26.5107C14.9397 26.5031 14.8922 26.4985 14.8248 26.4985H14.7191V27.3424ZM11.3451 25.7823L11.3497 26.4985H10.5973V27.3424H11.273L11.2685 28.0586L10.5973 28.0631V29.9501H9.75919L9.75766 27.87C9.75766 26.7266 9.76072 25.7869 9.76532 25.7838C9.76992 25.7808 10.1269 25.7778 11.3451 25.7823ZM20.5462 25.7778H22.4217V26.4985H21.8976V29.9501H21.0687V26.4985H20.5462V25.7778Z" fill="#DD0000"/>
</g>
<defs>
<clipPath id="clip0_371_27127">
<rect width="32" height="32" fill="white"/>
</clipPath>
</defs>
</svg>
