<svg width="32" height="32" viewBox="0 0 32 32" fill="none" xmlns="http://www.w3.org/2000/svg">
<path fill-rule="evenodd" clip-rule="evenodd" d="M5.60629 15.6017C5.60629 9.64119 10.4381 4.81006 16.3977 4.81006C22.3581 4.80981 27.1898 9.64119 27.1898 15.6017C27.1898 21.5623 22.3581 26.3934 16.3977 26.3934C10.4381 26.3934 5.60629 21.5623 5.60629 15.6017Z" fill="white"/>
<mask id="mask0_371_27121" style="mask-type:luminance" maskUnits="userSpaceOnUse" x="4" y="3" width="25" height="26">
<path d="M28.8 3.19995H4V28.0035H28.8V3.19995Z" fill="white"/>
</mask>
<g mask="url(#mask0_371_27121)">
<path d="M3.99673 15.6016C3.99673 12.1769 5.38488 9.07653 7.62907 6.83221C9.87338 4.58783 12.9739 3.19971 16.3982 3.19971H16.3986C19.8231 3.19971 22.9234 4.58777 25.1678 6.83203C27.4082 9.07234 28.7941 12.1724 28.7941 15.6012H28.8004V15.6016C28.8004 19.0263 27.4122 22.1266 25.1678 24.371C22.9234 26.6153 19.8228 28.0034 16.3982 28.0034C12.9739 28.0034 9.87338 26.6153 7.62907 24.3709C5.38488 22.1266 3.99673 19.0262 3.99673 15.6016ZM9.90587 9.10908C8.24452 10.7705 7.21692 13.0658 7.21692 15.6016C7.21692 18.1372 8.24452 20.4327 9.90587 22.094C11.5673 23.7555 13.8628 24.7831 16.3982 24.7831C18.934 24.7831 21.2296 23.7555 22.8911 22.0941C24.5526 20.4328 25.5802 18.1372 25.5802 15.6016V15.6012H25.5865C25.5865 13.0698 24.5564 10.7741 22.8911 9.10883C21.2296 7.44749 18.9342 6.41999 16.3986 6.41999H16.3982C13.8628 6.41999 11.5673 7.44762 9.90587 9.10908Z" fill="#EE2227"/>
</g>
<path fill-rule="evenodd" clip-rule="evenodd" d="M7.73628 15.6015C7.73628 10.8175 11.6138 6.93958 16.3977 6.93958C21.1816 6.93958 25.0592 10.8175 25.0592 15.6015C25.0592 20.3856 21.1816 24.2632 16.3977 24.2632C11.6138 24.2632 7.73628 20.3856 7.73628 15.6015Z" fill="#211E1F"/>
<path d="M7.73628 15.6015C7.73628 10.8175 11.6138 6.93958 16.3977 6.93958C21.1816 6.93958 25.0592 10.8175 25.0592 15.6015C25.0592 20.3856 21.1816 24.2632 16.3977 24.2632C11.6138 24.2632 7.73628 20.3856 7.73628 15.6015Z" stroke="#211E1F" stroke-width="0.334662" stroke-miterlimit="3.864"/>
<path fill-rule="evenodd" clip-rule="evenodd" d="M16.0104 8.65999C16.0104 8.65999 16.1187 8.65999 16.2092 8.51537C16.3167 8.34406 16.3543 8.20776 16.3543 8.20776C16.3543 8.20776 16.4289 8.40904 16.5531 8.53325C16.6773 8.65802 16.7517 8.67836 16.7517 8.67836C16.7517 8.67836 16.5932 8.69698 16.4689 8.7855C16.3447 8.87396 16.3447 8.96316 16.3447 8.96316C16.3447 8.96316 16.3447 8.90972 16.2555 8.80338C16.1671 8.69698 16.0104 8.65999 16.0104 8.65999Z" fill="white"/>
<path d="M16.0104 8.65999C16.0104 8.65999 16.1187 8.65999 16.2092 8.51537C16.3167 8.34406 16.3543 8.20776 16.3543 8.20776C16.3543 8.20776 16.4289 8.40904 16.5531 8.53325C16.6773 8.65802 16.7517 8.67836 16.7517 8.67836C16.7517 8.67836 16.5932 8.69698 16.4689 8.7855C16.3447 8.87396 16.3447 8.96316 16.3447 8.96316C16.3447 8.96316 16.3447 8.90972 16.2555 8.80338C16.1671 8.69698 16.0104 8.65999 16.0104 8.65999Z" stroke="white" stroke-width="0.166461" stroke-miterlimit="3.864"/>
<path fill-rule="evenodd" clip-rule="evenodd" d="M15.5811 11.1459C15.5811 10.8128 15.8519 10.5427 16.1851 10.5427C16.5182 10.5427 16.7883 10.8128 16.7883 11.1459C16.7883 11.4791 16.5182 11.7497 16.1851 11.7497C15.8519 11.7497 15.5811 11.4791 15.5811 11.1459Z" fill="white"/>
<path d="M15.5811 11.1459C15.5811 10.8128 15.8519 10.5427 16.1851 10.5427C16.5182 10.5427 16.7883 10.8128 16.7883 11.1459C16.7883 11.4791 16.5182 11.7497 16.1851 11.7497C15.8519 11.7497 15.5811 11.4791 15.5811 11.1459Z" stroke="white" stroke-width="0.166461" stroke-miterlimit="3.864"/>
<path fill-rule="evenodd" clip-rule="evenodd" d="M14.8181 9.105C15.2087 8.76811 15.4354 8.72095 15.6882 8.75023C15.9895 8.78599 16.2851 8.94269 16.2206 9.08786C16.1493 9.24709 16.1493 9.06999 15.8653 9.0523C15.5811 9.03442 15.6347 9.01654 15.5105 9.14076C15.3862 9.26497 15.4163 9.36749 15.2621 9.49608C15.0487 9.67319 15.0487 9.56679 14.836 9.63762C14.6397 9.70315 14.5162 9.81528 14.4984 9.95737C14.4812 10.0993 14.6054 10.454 14.6054 10.454C14.6054 10.454 14.3391 10.4362 14.2678 10.2235C14.1972 10.0108 14.1053 9.98838 14.2678 9.69106C14.4812 9.30054 14.4278 9.44263 14.8181 9.105Z" fill="white"/>
<path d="M14.8181 9.105C15.2087 8.76811 15.4354 8.72095 15.6882 8.75023C15.9895 8.78599 16.2851 8.94269 16.2206 9.08786C16.1493 9.24709 16.1493 9.06999 15.8653 9.0523C15.5811 9.03442 15.6347 9.01654 15.5105 9.14076C15.3862 9.26497 15.4163 9.36749 15.2621 9.49608C15.0487 9.67319 15.0487 9.56679 14.836 9.63762C14.6397 9.70315 14.5162 9.81528 14.4984 9.95737C14.4812 10.0993 14.6054 10.454 14.6054 10.454C14.6054 10.454 14.3391 10.4362 14.2678 10.2235C14.1972 10.0108 14.1053 9.98838 14.2678 9.69106C14.4812 9.30054 14.4278 9.44263 14.8181 9.105Z" stroke="white" stroke-width="0.166461" stroke-miterlimit="3.864"/>
<path fill-rule="evenodd" clip-rule="evenodd" d="M15.8295 9.15845C16.0608 9.22977 16.2206 9.21189 16.2027 9.63749C16.185 10.0636 16.1137 10.4189 16.1137 10.4189C16.1137 10.4189 15.9895 10.401 15.8124 10.5076C15.6347 10.6139 15.4926 10.7916 15.4926 10.7916C15.4926 10.7916 14.8538 10.6673 14.7296 10.436C14.6843 10.3521 14.6583 10.0813 14.7118 9.92149C14.7672 9.75517 15.1557 9.76226 15.315 9.65518C15.4748 9.54885 15.6347 9.15845 15.8295 9.15845Z" fill="white"/>
<path d="M15.8295 9.15845C16.0608 9.22977 16.2206 9.21189 16.2027 9.63749C16.185 10.0636 16.1137 10.4189 16.1137 10.4189C16.1137 10.4189 15.9895 10.401 15.8124 10.5076C15.6347 10.6139 15.4926 10.7916 15.4926 10.7916C15.4926 10.7916 14.8538 10.6673 14.7296 10.436C14.6843 10.3521 14.6583 10.0813 14.7118 9.92149C14.7672 9.75517 15.1557 9.76226 15.315 9.65518C15.4748 9.54885 15.6347 9.15845 15.8295 9.15845Z" stroke="white" stroke-width="0.166461" stroke-miterlimit="3.864"/>
<path fill-rule="evenodd" clip-rule="evenodd" d="M13.8213 11.8156C13.6213 11.3397 13.6462 11.1091 13.7526 10.8786C13.8793 10.6021 14.1194 10.3703 14.2379 10.4761C14.3679 10.5933 14.1991 10.5384 14.094 10.8027C13.9894 11.0677 13.9889 11.0111 14.069 11.1678C14.1487 11.3245 14.2552 11.3276 14.3296 11.5142C14.4328 11.7715 14.3316 11.7385 14.3333 11.9628C14.3348 12.1696 14.4034 12.3218 14.5329 12.3823C14.6622 12.4428 15.0386 12.4347 15.0386 12.4347C15.0386 12.4347 14.9391 12.6824 14.715 12.6844C14.49 12.6857 14.4412 12.7658 14.2079 12.5194C13.903 12.1963 14.0214 12.2906 13.8213 11.8156Z" fill="white"/>
<path d="M13.8213 11.8156C13.6213 11.3397 13.6462 11.1091 13.7526 10.8786C13.8793 10.6021 14.1194 10.3703 14.2379 10.4761C14.3679 10.5933 14.1991 10.5384 14.094 10.8027C13.9894 11.0677 13.9889 11.0111 14.069 11.1678C14.1487 11.3245 14.2552 11.3276 14.3296 11.5142C14.4328 11.7715 14.3333 11.7385 14.3333 11.9628C14.3333 12.1696 14.4034 12.3218 14.5329 12.3823C14.6622 12.4428 15.0386 12.4347 15.0386 12.4347C15.0386 12.4347 14.9391 12.6824 14.715 12.6844C14.49 12.6857 14.4412 12.7658 14.2079 12.5194C13.903 12.1963 14.0214 12.2906 13.8213 11.8156Z" stroke="white" stroke-width="0.166461" stroke-miterlimit="3.864"/>
<path fill-rule="evenodd" clip-rule="evenodd" d="M14.1844 10.8696C14.3232 10.6721 14.3558 10.5148 14.7556 10.6632C15.155 10.8116 15.471 10.9888 15.471 10.9888C15.471 10.9888 15.4155 11.1014 15.4621 11.3033C15.5086 11.5046 15.6334 11.6951 15.6334 11.6951C15.6334 11.6951 15.3175 12.2638 15.0602 12.3109C14.966 12.3281 14.7002 12.2689 14.5646 12.169C14.4233 12.0645 14.55 11.6976 14.4984 11.5122C14.4462 11.3275 14.1245 11.0548 14.1844 10.8696Z" fill="white"/>
<path d="M14.1844 10.8696C14.3232 10.6721 14.3558 10.5148 14.7556 10.6632C15.155 10.8116 15.471 10.9888 15.471 10.9888C15.471 10.9888 15.4155 11.1014 15.4621 11.3033C15.5086 11.5046 15.6334 11.6951 15.6334 11.6951C15.6334 11.6951 15.3175 12.2638 15.0602 12.3109C14.966 12.3281 14.7002 12.2689 14.5646 12.169C14.4233 12.0645 14.55 11.6976 14.4984 11.5122C14.4462 11.3275 14.1245 11.0548 14.1844 10.8696Z" stroke="white" stroke-width="0.166461" stroke-miterlimit="3.864"/>
<path fill-rule="evenodd" clip-rule="evenodd" d="M16.0907 13.601C15.5767 13.6443 15.3651 13.5493 15.1786 13.3767C14.9551 13.171 14.8085 12.8704 14.9461 12.7913C15.097 12.7034 14.9927 12.8475 15.2124 13.0284C15.4314 13.2099 15.378 13.1927 15.5518 13.1653C15.7251 13.1379 15.7607 13.0378 15.9613 13.0244C16.2377 13.006 16.1754 13.092 16.3893 13.1595C16.5868 13.222 16.7525 13.2041 16.8499 13.0998C16.948 12.9951 17.0556 12.6346 17.0556 12.6346C17.0556 12.6346 17.2607 12.806 17.1932 13.0201C17.1256 13.234 17.1861 13.3054 16.8805 13.4506C16.4785 13.641 16.6048 13.5576 16.0907 13.601Z" fill="white"/>
<path d="M16.0907 13.601C15.5767 13.6443 15.3651 13.5493 15.1786 13.3767C14.9551 13.171 14.8085 12.8704 14.9461 12.7913C15.097 12.7034 14.9927 12.8475 15.2124 13.0284C15.4314 13.2099 15.378 13.1927 15.5518 13.1653C15.7251 13.1379 15.7607 13.0378 15.9613 13.0244C16.2377 13.006 16.1754 13.092 16.3893 13.1595C16.5868 13.222 16.7525 13.2041 16.8499 13.0998C16.948 12.9951 17.0556 12.6346 17.0556 12.6346C17.0556 12.6346 17.2607 12.806 17.1932 13.0201C17.1256 13.234 17.1861 13.3054 16.8805 13.4506C16.4785 13.641 16.6048 13.5576 16.0907 13.601Z" stroke="white" stroke-width="0.166461" stroke-miterlimit="3.864"/>
<path fill-rule="evenodd" clip-rule="evenodd" d="M15.3035 12.9633C15.1588 12.7703 15.0188 12.6907 15.2838 12.3563C15.5486 12.022 15.8144 11.7766 15.8144 11.7766C15.8144 11.7766 15.9049 11.864 16.1112 11.8825C16.3169 11.9003 16.5361 11.8404 16.5361 11.8404C16.5361 11.8404 16.9799 12.3161 16.9448 12.5761C16.9322 12.6709 16.7939 12.9054 16.657 13.0027C16.5137 13.1053 16.2042 12.8716 16.0125 12.8639C15.82 12.8556 15.4615 13.078 15.3035 12.9633Z" fill="white"/>
<path d="M15.3035 12.9633C15.1588 12.7703 15.0188 12.6907 15.2838 12.3563C15.5486 12.022 15.8144 11.7766 15.8144 11.7766C15.8144 11.7766 15.9049 11.864 16.1112 11.8825C16.3169 11.9003 16.5361 11.8404 16.5361 11.8404C16.5361 11.8404 16.9799 12.3161 16.9448 12.5761C16.9322 12.6709 16.7939 12.9054 16.657 13.0027C16.5137 13.1053 16.2042 12.8716 16.0125 12.8639C15.82 12.8556 15.4615 13.078 15.3035 12.9633Z" stroke="white" stroke-width="0.166461" stroke-miterlimit="3.864"/>
<path fill-rule="evenodd" clip-rule="evenodd" d="M18.4901 11.9946C18.3729 12.4965 18.2167 12.6684 17.9952 12.7926C17.7302 12.9418 17.3996 12.9882 17.3666 12.8327C17.3303 12.6621 17.4341 12.8054 17.6742 12.6533C17.9143 12.5003 17.8818 12.5462 17.9092 12.3723C17.9373 12.1989 17.8524 12.1341 17.9016 11.9392C17.9698 11.6703 18.0321 11.7564 18.1633 11.5743C18.2838 11.4054 18.3175 11.2424 18.248 11.1174C18.1792 10.992 17.8698 10.778 17.8698 10.778C17.8698 10.778 18.0958 10.6359 18.278 10.7665C18.4609 10.8972 18.5474 10.8609 18.5914 11.1971C18.6486 11.6378 18.6078 11.4921 18.4901 11.9946Z" fill="white"/>
<path d="M18.4901 11.9946C18.3729 12.4965 18.2167 12.6684 17.9952 12.7926C17.7302 12.9418 17.3996 12.9882 17.3666 12.8327C17.3303 12.6621 17.4341 12.8054 17.6742 12.6533C17.9143 12.5003 17.8818 12.5462 17.9092 12.3723C17.9373 12.1989 17.8524 12.1341 17.9016 11.9392C17.9698 11.6703 18.0321 11.7564 18.1633 11.5743C18.2838 11.4054 18.3175 11.2424 18.248 11.1174C18.1792 10.992 17.8698 10.778 17.8698 10.778C17.8698 10.778 18.0958 10.6359 18.278 10.7665C18.4609 10.8972 18.5474 10.8609 18.5914 11.1971C18.6486 11.6378 18.6078 11.4921 18.4901 11.9946Z" stroke="white" stroke-width="0.166461" stroke-miterlimit="3.864"/>
<path fill-rule="evenodd" clip-rule="evenodd" d="M17.6404 12.546C17.4124 12.6236 17.2932 12.7319 17.0576 12.3771C16.8213 12.0218 16.6703 11.6931 16.6703 11.6931C16.6703 11.6931 16.7812 11.6346 16.8621 11.4441C16.943 11.2536 16.9538 11.0262 16.9538 11.0262C16.9538 11.0262 17.5434 10.7511 17.7797 10.865C17.8657 10.9064 18.0453 11.1102 18.0964 11.2707C18.1498 11.4383 17.8314 11.6612 17.7645 11.8409C17.6983 12.0211 17.7983 12.4306 17.6404 12.546Z" fill="white"/>
<path d="M17.6404 12.546C17.4124 12.6236 17.2932 12.7319 17.0576 12.3771C16.8213 12.0218 16.6703 11.6931 16.6703 11.6931C16.6703 11.6931 16.7812 11.6346 16.8621 11.4441C16.943 11.2536 16.9538 11.0262 16.9538 11.0262C16.9538 11.0262 17.5434 10.7511 17.7797 10.865C17.8657 10.9064 18.0453 11.1102 18.0964 11.2707C18.1498 11.4383 17.8314 11.6612 17.7645 11.8409C17.6983 12.0211 17.7983 12.4306 17.6404 12.546Z" stroke="white" stroke-width="0.166461" stroke-miterlimit="3.864"/>
<path fill-rule="evenodd" clip-rule="evenodd" d="M17.7039 9.21562C18.1454 9.48316 18.2608 9.68381 18.3104 9.93347C18.3696 10.2309 18.3117 10.5602 18.1537 10.5438C17.9798 10.5259 18.1486 10.4711 18.078 10.1953C18.0073 9.91942 18.0404 9.96473 17.8836 9.88508C17.7277 9.80544 17.6398 9.86542 17.4697 9.75834C17.2353 9.61045 17.3366 9.57815 17.2028 9.39722C17.0799 9.23097 16.9352 9.14811 16.7951 9.17555C16.6545 9.20224 16.3552 9.43026 16.3552 9.43026C16.3552 9.43026 16.2895 9.17098 16.4703 9.03795C16.6512 8.90492 16.6437 8.81122 16.9768 8.87367C17.4142 8.95504 17.2627 8.94875 17.7039 9.21562Z" fill="white"/>
<path d="M17.7039 9.21562C18.1454 9.48316 18.2608 9.68381 18.3104 9.93347C18.3696 10.2309 18.3117 10.5602 18.1537 10.5438C17.9798 10.5259 18.1486 10.4711 18.078 10.1953C18.0073 9.91942 18.0404 9.96473 17.8836 9.88508C17.7277 9.80544 17.6398 9.86542 17.4697 9.75834C17.2353 9.61045 17.3366 9.57815 17.2028 9.39722C17.0799 9.23097 16.9352 9.14811 16.7951 9.17555C16.6545 9.20224 16.3552 9.43026 16.3552 9.43026C16.3552 9.43026 16.2895 9.17098 16.4703 9.03795C16.6512 8.90492 16.6437 8.81122 16.9768 8.87367C17.4142 8.95504 17.2627 8.94875 17.7039 9.21562Z" stroke="white" stroke-width="0.166461" stroke-miterlimit="3.864"/>
<path fill-rule="evenodd" clip-rule="evenodd" d="M17.9657 10.1944C17.9696 10.4358 18.0358 10.5824 17.625 10.697C17.2149 10.8117 16.855 10.8538 16.855 10.8538C16.855 10.8538 16.8333 10.7301 16.6773 10.5945C16.5212 10.4581 16.3085 10.3778 16.3085 10.3778C16.3085 10.3778 16.2296 9.73196 16.4103 9.54296C16.4766 9.47342 16.7257 9.36511 16.8945 9.36634C17.0703 9.36764 17.1836 9.73905 17.334 9.85821C17.4849 9.97712 17.9052 10.0084 17.9657 10.1944Z" fill="white"/>
<path d="M17.9657 10.1944C17.9657 10.4358 18.0358 10.5824 17.625 10.697C17.2149 10.8117 16.855 10.8538 16.855 10.8538C16.855 10.8538 16.8333 10.7301 16.6773 10.5945C16.5212 10.4581 16.3085 10.3778 16.3085 10.3778C16.3085 10.3778 16.2296 9.73196 16.4103 9.54296C16.4766 9.47342 16.7257 9.36511 16.8945 9.36634C17.0703 9.36764 17.1836 9.73905 17.334 9.85821C17.4849 9.97712 17.9052 10.0084 17.9657 10.1944Z" stroke="white" stroke-width="0.166461" stroke-miterlimit="3.864"/>
<path fill-rule="evenodd" clip-rule="evenodd" d="M18.3258 10.6321C18.3258 10.6321 18.3945 10.5925 18.5065 10.4238C18.6334 10.234 18.581 10.1526 18.581 10.1526C18.581 10.1526 18.6345 10.2589 18.7588 10.3831C18.883 10.5074 19.0403 10.5233 19.0403 10.5233C19.0403 10.5233 18.9008 10.5958 18.7761 10.685C18.6518 10.7735 18.7232 11.0041 18.7232 11.0041C18.7232 11.0041 18.6403 10.8652 18.5519 10.7589C18.4633 10.6518 18.3258 10.6321 18.3258 10.6321Z" fill="white"/>
<path d="M18.3258 10.6321C18.3258 10.6321 18.3945 10.5925 18.5065 10.4238C18.6334 10.234 18.581 10.1526 18.581 10.1526C18.581 10.1526 18.6345 10.2589 18.7588 10.3831C18.883 10.5074 19.0403 10.5233 19.0403 10.5233C19.0403 10.5233 18.9008 10.5958 18.7761 10.685C18.6518 10.7735 18.7232 11.0041 18.7232 11.0041C18.7232 11.0041 18.6403 10.8652 18.5519 10.7589C18.4633 10.6518 18.3258 10.6321 18.3258 10.6321Z" stroke="white" stroke-width="0.166461" stroke-miterlimit="3.864"/>
<path fill-rule="evenodd" clip-rule="evenodd" d="M17.3264 13.0276C17.3264 13.0276 17.4091 13.1218 17.6117 13.1251C17.783 13.1282 17.9065 13.0639 17.9065 13.0639C17.9065 13.0639 17.8282 13.0447 17.8218 13.2206C17.8155 13.3965 17.8556 13.6346 17.8556 13.6346C17.8556 13.6346 17.7339 13.5199 17.5843 13.49C17.4346 13.4595 17.204 13.5621 17.204 13.5621C17.204 13.5621 17.3129 13.4716 17.392 13.306C17.4512 13.1811 17.3262 13.0276 17.3264 13.0276Z" fill="white"/>
<path d="M17.3264 13.0276C17.3264 13.0276 17.4091 13.1218 17.6117 13.1251C17.783 13.1282 17.9065 13.0639 17.9065 13.0639C17.9065 13.0639 17.8218 13.0447 17.8218 13.2206C17.8218 13.3965 17.8556 13.6346 17.8556 13.6346C17.8556 13.6346 17.7339 13.5199 17.5843 13.49C17.4346 13.4595 17.204 13.5621 17.204 13.5621C17.204 13.5621 17.3129 13.4716 17.392 13.306C17.4512 13.1811 17.3264 13.0276 17.3264 13.0276Z" stroke="white" stroke-width="0.166461" stroke-miterlimit="3.864"/>
<path fill-rule="evenodd" clip-rule="evenodd" d="M14.2907 12.7959C14.2907 12.7959 14.3736 12.8952 14.5761 12.894C14.7263 12.8935 14.8181 12.7615 14.8181 12.7615C14.8181 12.7615 14.7175 12.8698 14.7118 13.0457C14.7054 13.2213 14.8181 13.3297 14.8181 13.3297C14.8181 13.3297 14.7079 13.2551 14.5818 13.2551C14.429 13.2551 14.2499 13.4004 14.2499 13.4004C14.2499 13.4004 14.3468 13.2475 14.3645 13.11C14.3818 12.9724 14.2907 12.7959 14.2907 12.7959Z" fill="white"/>
<path d="M14.2907 12.7959C14.2907 12.7959 14.3736 12.8952 14.5761 12.894C14.7263 12.8935 14.8181 12.7615 14.8181 12.7615C14.8181 12.7615 14.7118 12.8698 14.7118 13.0457C14.7118 13.2213 14.8181 13.3297 14.8181 13.3297C14.8181 13.3297 14.7079 13.2551 14.5818 13.2551C14.429 13.2551 14.2499 13.4004 14.2499 13.4004C14.2499 13.4004 14.3468 13.2475 14.3645 13.11C14.3818 12.9724 14.2907 12.7959 14.2907 12.7959Z" stroke="white" stroke-width="0.166461" stroke-miterlimit="3.864"/>
<path fill-rule="evenodd" clip-rule="evenodd" d="M14.0543 9.80493C14.0543 9.80493 14.0206 9.84642 14.0168 10.049C14.013 10.2514 14.1569 10.2993 14.1569 10.2993C14.1569 10.2993 14.1111 10.2521 13.9301 10.361C13.7799 10.4515 13.7316 10.5782 13.7316 10.5782C13.7316 10.5782 13.7679 10.361 13.713 10.2521C13.6449 10.1159 13.5507 9.99918 13.5507 9.99918C13.5507 9.99918 13.6875 9.91959 13.8263 9.9178C13.9647 9.91577 14.0543 9.80493 14.0543 9.80493Z" fill="white"/>
<path d="M14.0543 9.80493C14.0543 9.80493 14.0168 9.84642 14.0168 10.049C14.0168 10.2514 14.1569 10.2993 14.1569 10.2993C14.1569 10.2993 14.1111 10.2521 13.9301 10.361C13.7799 10.4515 13.7316 10.5782 13.7316 10.5782C13.7316 10.5782 13.7679 10.361 13.713 10.2521C13.6449 10.1159 13.5507 9.99918 13.5507 9.99918C13.5507 9.99918 13.6875 9.91959 13.8263 9.9178C13.9647 9.91577 14.0543 9.80493 14.0543 9.80493Z" stroke="white" stroke-width="0.166461" stroke-miterlimit="3.864"/>
<path fill-rule="evenodd" clip-rule="evenodd" d="M18.7761 19.4175C19.06 19.4352 19.22 19.6131 19.1314 20.057C19.0422 20.5003 18.8116 20.6424 18.7411 21.1398C18.6697 21.6365 18.6735 21.5296 18.581 21.867C18.4747 22.2576 18.6339 22.783 18.2613 22.8079C17.9952 22.8258 17.9065 22.471 17.9243 22.1334C17.9441 21.7608 17.9422 21.7252 18.1021 21.317C18.3129 20.7774 18.5097 20.7138 18.4568 20.1811C18.4034 19.6487 18.5455 19.4175 18.7761 19.4175Z" fill="white"/>
<path fill-rule="evenodd" clip-rule="evenodd" d="M18.9894 21.1397C19.0423 21.3525 19.0423 21.5124 19.0423 21.5124C19.0423 21.5124 18.9539 21.6009 18.883 21.4232C18.8117 21.2461 18.9359 20.9264 18.9894 21.1397Z" fill="#FCEE23"/>
<path d="M18.9894 21.1397C19.0423 21.3525 19.0423 21.5124 19.0423 21.5124C19.0423 21.5124 18.9539 21.6009 18.883 21.4232C18.8117 21.2461 18.9359 20.9264 18.9894 21.1397Z" stroke="#FCEE23" stroke-width="0.341622" stroke-miterlimit="3.864"/>
<path fill-rule="evenodd" clip-rule="evenodd" d="M19.1135 20.962C19.1493 21.1397 19.2377 21.2281 19.2556 21.4057C19.2735 21.5829 19.4683 21.7785 19.4862 21.5829C19.504 21.3882 19.4683 21.281 19.3798 21.1397C19.2914 20.9976 19.0779 20.7841 19.1135 20.962Z" fill="#FCEE23"/>
<path d="M19.1135 20.962C19.1493 21.1397 19.2377 21.2281 19.2556 21.4057C19.2735 21.5829 19.4683 21.7785 19.4862 21.5829C19.504 21.3882 19.4683 21.281 19.3798 21.1397C19.2914 20.9976 19.0779 20.7841 19.1135 20.962Z" stroke="#FCEE23" stroke-width="0.341622" stroke-miterlimit="3.864"/>
<path fill-rule="evenodd" clip-rule="evenodd" d="M19.5575 20.9085C19.5575 21.0326 19.5398 20.962 19.5575 21.1218C19.5748 21.281 19.5888 21.2531 19.6638 21.4408C19.7346 21.6187 20.1078 21.8314 19.9659 21.5651C19.8239 21.2989 19.5575 20.7841 19.5575 20.9085Z" fill="#FCEE23"/>
<path d="M19.5575 20.9085C19.5575 21.0326 19.5398 20.962 19.5575 21.1218C19.5748 21.281 19.5888 21.2531 19.6638 21.4408C19.7346 21.6187 20.1078 21.8314 19.9659 21.5651C19.8239 21.2989 19.5575 20.7841 19.5575 20.9085Z" stroke="#FCEE23" stroke-width="0.341622" stroke-miterlimit="3.864"/>
<path fill-rule="evenodd" clip-rule="evenodd" d="M19.9479 20.9084C20.1784 21.0683 20.1963 21.2102 20.2491 21.3524C20.3026 21.4944 20.374 21.6185 20.3026 21.6362C20.2319 21.6542 20.1784 21.6542 20.0721 21.423C19.9658 21.1925 19.7524 20.8554 19.9479 20.9084Z" fill="#FCEE23"/>
<path d="M19.9479 20.9084C20.1784 21.0683 20.1963 21.2102 20.2491 21.3524C20.3026 21.4944 20.374 21.6185 20.3026 21.6362C20.2319 21.6542 20.1784 21.6542 20.0721 21.423C19.9658 21.1925 19.7524 20.8554 19.9479 20.9084Z" stroke="#FCEE23" stroke-width="0.341622" stroke-miterlimit="3.864"/>
<path fill-rule="evenodd" clip-rule="evenodd" d="M20.2848 20.9442C20.2848 20.9442 20.3912 20.9977 20.4982 21.1397C20.6046 21.2811 20.7255 21.4907 20.6403 21.5651C20.4982 21.6893 20.5511 21.5829 20.4091 21.3346C20.2669 21.0861 20.2141 21.0148 20.2141 20.9442C20.2141 20.8404 20.2848 20.9442 20.2848 20.9442Z" fill="#FCEE23"/>
<path d="M20.2848 20.9442C20.2848 20.9442 20.3912 20.9977 20.4982 21.1397C20.6046 21.2811 20.7255 21.4907 20.6403 21.5651C20.4982 21.6893 20.5511 21.5829 20.4091 21.3346C20.2669 21.0861 20.2141 21.0148 20.2141 20.9442C20.2141 20.8404 20.2848 20.9442 20.2848 20.9442Z" stroke="#FCEE23" stroke-width="0.341622" stroke-miterlimit="3.864"/>
<path fill-rule="evenodd" clip-rule="evenodd" d="M20.6224 20.9262C20.5332 20.9796 20.7109 21.1567 20.7993 21.3167C20.8885 21.4764 20.8885 21.6185 20.9592 21.5299C21.0306 21.4407 21.0835 21.3344 20.9414 21.1924C20.7995 21.0503 20.6752 20.784 20.6224 20.9262Z" fill="#FCEE23"/>
<path d="M20.6224 20.9262C20.5332 20.9796 20.7109 21.1567 20.7993 21.3167C20.8885 21.4764 20.8885 21.6185 20.9592 21.5299C21.0306 21.4407 21.0835 21.3344 20.9414 21.1924C20.7995 21.0503 20.6752 20.784 20.6224 20.9262Z" stroke="#FCEE23" stroke-width="0.341622" stroke-miterlimit="3.864"/>
<path fill-rule="evenodd" clip-rule="evenodd" d="M21.1015 20.9262C21.1015 20.9262 20.9236 20.8377 21.0658 21.0504C21.2079 21.2638 21.3497 21.2638 21.3497 21.2638C21.3497 21.2638 21.4389 21.2459 21.3497 21.1038C21.2613 20.9619 21.1015 20.9262 21.1015 20.9262Z" fill="#FCEE23"/>
<path d="M21.1015 20.9262C21.1015 20.9262 20.9236 20.8377 21.0658 21.0504C21.2079 21.2638 21.3497 21.2638 21.3497 21.2638C21.3497 21.2638 21.4389 21.2459 21.3497 21.1038C21.2613 20.9619 21.1015 20.9262 21.1015 20.9262Z" stroke="#FCEE23" stroke-width="0.341622" stroke-miterlimit="3.864"/>
<path fill-rule="evenodd" clip-rule="evenodd" d="M14.055 19.453C13.7708 19.4708 13.611 19.6485 13.6995 20.092C13.7887 20.5357 14.0192 20.6778 14.09 21.1747C14.1613 21.672 14.1581 21.565 14.2498 21.9027C14.3561 22.2932 14.1971 22.8186 14.5695 22.8436C14.8359 22.8612 14.9243 22.5059 14.9064 22.1691C14.8875 21.7964 14.8893 21.7607 14.7295 21.3525C14.5181 20.813 14.3211 20.7487 14.374 20.216C14.4277 19.6835 14.2855 19.453 14.055 19.453Z" fill="white"/>
<path fill-rule="evenodd" clip-rule="evenodd" d="M22.2548 12.6549L20.0186 13.8619C20.0186 13.8619 19.7595 16.0122 18.741 17.2345C17.4983 18.7255 17.2856 18.9027 16.5754 19.3995C15.8652 19.8969 14.6225 20.6778 14.6225 20.6778L14.9065 21.3881C14.9065 21.3881 18.6422 19.4822 19.9829 18.1217C22.4327 15.6371 22.2548 12.6549 22.2548 12.6549Z" fill="white"/>
<path fill-rule="evenodd" clip-rule="evenodd" d="M13.8417 21.1748C13.7888 21.3883 13.7888 21.5475 13.7888 21.5475C13.7888 21.5475 13.8775 21.6364 13.9488 21.4588C14.0194 21.2812 13.8952 20.9622 13.8417 21.1748Z" fill="#FCEE23"/>
<path d="M13.8417 21.1748C13.7888 21.3883 13.7888 21.5475 13.7888 21.5475C13.7888 21.5475 13.8775 21.6364 13.9488 21.4588C14.0194 21.2812 13.8952 20.9622 13.8417 21.1748Z" stroke="#FCEE23" stroke-width="0.341622" stroke-miterlimit="3.864"/>
<path fill-rule="evenodd" clip-rule="evenodd" d="M13.7174 20.9979C13.6824 21.1749 13.5932 21.264 13.5753 21.441C13.5577 21.6188 13.3627 21.8137 13.3448 21.6188C13.3271 21.4233 13.3627 21.317 13.4511 21.1749C13.5403 21.0328 13.7532 20.8201 13.7174 20.9979Z" fill="#FCEE23"/>
<path d="M13.7174 20.9979C13.6824 21.1749 13.5932 21.264 13.5753 21.441C13.5577 21.6188 13.3627 21.8137 13.3448 21.6188C13.3271 21.4233 13.3627 21.317 13.4511 21.1749C13.5403 21.0328 13.7532 20.8201 13.7174 20.9979Z" stroke="#FCEE23" stroke-width="0.341622" stroke-miterlimit="3.864"/>
<path fill-rule="evenodd" clip-rule="evenodd" d="M13.2742 20.9442C13.2742 21.0684 13.2913 20.9977 13.2742 21.1569C13.2563 21.3167 13.2422 21.2887 13.1671 21.4766C13.0965 21.6543 12.7238 21.8669 12.8658 21.6009C13.0078 21.3346 13.2742 20.8199 13.2742 20.9442Z" fill="#FCEE23"/>
<path d="M13.2742 20.9442C13.2742 21.0684 13.2913 20.9977 13.2742 21.1569C13.2563 21.3167 13.2422 21.2887 13.1671 21.4766C13.0965 21.6543 12.7238 21.8669 12.8658 21.6009C13.0078 21.3346 13.2742 20.8199 13.2742 20.9442Z" stroke="#FCEE23" stroke-width="0.341622" stroke-miterlimit="3.864"/>
<path fill-rule="evenodd" clip-rule="evenodd" d="M12.8838 20.9444C12.6527 21.1041 12.6348 21.2462 12.5818 21.3884C12.5284 21.5303 12.4577 21.6544 12.5284 21.6723C12.5997 21.6895 12.6527 21.6895 12.7589 21.4588C12.8659 21.2284 13.0787 20.8907 12.8838 20.9444Z" fill="#FCEE23"/>
<path d="M12.8838 20.9444C12.6527 21.1041 12.6348 21.2462 12.5818 21.3884C12.5284 21.5303 12.4577 21.6544 12.5284 21.6723C12.5997 21.6895 12.6527 21.6895 12.7589 21.4588C12.8659 21.2284 13.0787 20.8907 12.8838 20.9444Z" stroke="#FCEE23" stroke-width="0.341622" stroke-miterlimit="3.864"/>
<path fill-rule="evenodd" clip-rule="evenodd" d="M12.5461 20.9799C12.5461 20.9799 12.4398 21.0327 12.3334 21.1748C12.2266 21.3168 12.1054 21.5263 12.1913 21.6009C12.3334 21.7252 12.2799 21.6187 12.4221 21.3704C12.5639 21.1219 12.6169 21.0506 12.6169 20.9799C12.6169 20.876 12.5461 20.9799 12.5461 20.9799Z" fill="#FCEE23"/>
<path d="M12.5461 20.9799C12.5461 20.9799 12.4398 21.0327 12.3334 21.1748C12.2266 21.3168 12.1054 21.5263 12.1913 21.6009C12.3334 21.7252 12.2799 21.6187 12.4221 21.3704C12.5639 21.1219 12.6169 21.0506 12.6169 20.9799C12.6169 20.876 12.5461 20.9799 12.5461 20.9799Z" stroke="#FCEE23" stroke-width="0.341622" stroke-miterlimit="3.864"/>
<path fill-rule="evenodd" clip-rule="evenodd" d="M12.2092 20.9622C12.2978 21.0148 12.12 21.1927 12.0316 21.3526C11.9431 21.5125 11.9431 21.6544 11.8717 21.5652C11.801 21.4767 11.7475 21.3705 11.8894 21.2282C12.0316 21.0862 12.1557 20.82 12.2092 20.9622Z" fill="#FCEE23"/>
<path d="M12.2092 20.9622C12.2978 21.0148 12.12 21.1927 12.0316 21.3526C11.9431 21.5125 11.9431 21.6544 11.8717 21.5652C11.801 21.4767 11.7475 21.3705 11.8894 21.2282C12.0316 21.0862 12.1557 20.82 12.2092 20.9622Z" stroke="#FCEE23" stroke-width="0.341622" stroke-miterlimit="3.864"/>
<path fill-rule="evenodd" clip-rule="evenodd" d="M11.7296 20.9621C11.7296 20.9621 11.9073 20.8729 11.7652 21.0861C11.6233 21.299 11.4812 21.299 11.4812 21.299C11.4812 21.299 11.3927 21.2811 11.4812 21.1398C11.5696 20.9977 11.7296 20.9621 11.7296 20.9621Z" fill="#FCEE23"/>
<path d="M11.7296 20.9621C11.7296 20.9621 11.9073 20.8729 11.7652 21.0861C11.6233 21.299 11.4812 21.299 11.4812 21.299C11.4812 21.299 11.3927 21.2811 11.4812 21.1398C11.5696 20.9977 11.7296 20.9621 11.7296 20.9621Z" stroke="#FCEE23" stroke-width="0.341622" stroke-miterlimit="3.864"/>
<path fill-rule="evenodd" clip-rule="evenodd" d="M13.6037 25.5754L13.6629 25.299C13.7922 25.3207 13.8832 25.3315 13.9374 25.331C14.0228 25.3302 14.0966 25.3081 14.1596 25.2647C14.2024 25.2352 14.2399 25.1914 14.2712 25.1335C14.2889 25.0989 14.3004 25.0723 14.3042 25.0546L14.6418 25.1264L14.2024 27.1914L13.7871 27.1029L14.0895 25.6787L13.6037 25.5754Z" fill="white"/>
<path fill-rule="evenodd" clip-rule="evenodd" d="M15.1461 26.9491C15.1965 27.0095 15.2691 27.0432 15.3641 27.0503C15.4589 27.0567 15.5347 27.0337 15.5921 26.9803C15.6506 26.9267 15.6831 26.8483 15.6901 26.7445C15.6977 26.6369 15.6761 26.5543 15.6246 26.495C15.5743 26.435 15.5029 26.402 15.4099 26.395C15.317 26.3884 15.2411 26.4114 15.1819 26.4638C15.1232 26.5153 15.0907 26.5948 15.0831 26.7019C15.0761 26.8057 15.0972 26.8879 15.1461 26.9491ZM14.7538 26.3841C14.8143 26.2924 14.8985 26.2255 15.0055 26.1848C14.9086 26.1095 14.8475 26.0319 14.8221 25.951C14.7979 25.8694 14.7876 25.795 14.7927 25.7262C14.803 25.5726 14.8698 25.4466 14.9927 25.3473C15.1156 25.2472 15.2819 25.2039 15.4921 25.2186C15.7022 25.2331 15.8608 25.2987 15.9686 25.4153C16.0762 25.5313 16.1251 25.6657 16.1142 25.8185C16.1092 25.8872 16.0888 25.9598 16.0519 26.0369C16.0169 26.1133 15.9461 26.177 15.8405 26.228C15.9399 26.2937 16.0124 26.3758 16.0583 26.4759C16.1036 26.5752 16.122 26.6841 16.1142 26.802C16.1016 26.9791 16.0252 27.1255 15.8851 27.2414C15.7456 27.3561 15.5583 27.4052 15.3227 27.3886C15.0877 27.3727 14.9138 27.2981 14.8009 27.1657C14.6888 27.0326 14.6392 26.8771 14.6513 26.7002C14.6596 26.5814 14.694 26.4764 14.7538 26.3841ZM15.2411 25.9923C15.285 26.044 15.3488 26.0726 15.4322 26.0784C15.5163 26.0842 15.5825 26.0649 15.6315 26.0199C15.6813 25.9745 15.7093 25.9134 15.7144 25.837C15.7201 25.7535 15.7017 25.6872 15.6583 25.6375C15.6163 25.5867 15.5533 25.5587 15.4684 25.5529C15.3857 25.5472 15.3182 25.5663 15.2679 25.6102C15.2182 25.6535 15.1902 25.7168 15.1844 25.8001C15.1786 25.8764 15.1978 25.9407 15.2411 25.9923Z" fill="white"/>
<path fill-rule="evenodd" clip-rule="evenodd" d="M16.8393 26.9929C16.8972 27.0465 16.9737 27.07 17.0686 27.0629C17.1636 27.0566 17.2354 27.0228 17.2851 26.9616C17.3348 26.9012 17.3564 26.8185 17.3496 26.7151C17.3418 26.6076 17.3087 26.528 17.2495 26.4771C17.1916 26.4248 17.1157 26.402 17.0228 26.4082C16.9298 26.4146 16.8577 26.4478 16.8068 26.5076C16.7559 26.5668 16.7348 26.6502 16.7426 26.7573C16.7494 26.8611 16.7818 26.9395 16.8393 26.9929ZM16.3716 26.4884C16.4188 26.3892 16.4928 26.3115 16.5934 26.2554C16.487 26.1949 16.4158 26.1268 16.3788 26.0503C16.3432 25.9732 16.3234 25.9 16.3183 25.8312C16.3075 25.6784 16.3565 25.544 16.4642 25.4287C16.5718 25.3119 16.7305 25.2465 16.9406 25.2318C17.1508 25.2172 17.317 25.2598 17.4399 25.3599C17.5628 25.4599 17.629 25.586 17.6399 25.7388C17.6451 25.8076 17.6348 25.8827 17.6094 25.9643C17.5845 26.0444 17.5234 26.1177 17.4259 26.1827C17.5335 26.2337 17.617 26.305 17.6762 26.3975C17.7348 26.4897 17.7686 26.5948 17.7769 26.7127C17.789 26.8904 17.7341 27.0457 17.6112 27.1795C17.4891 27.3126 17.31 27.3879 17.075 27.4043C16.84 27.4201 16.6572 27.3713 16.5272 27.2554C16.398 27.1394 16.3266 26.9922 16.3146 26.8151C16.3061 26.6974 16.3252 26.5884 16.3716 26.4884ZM16.7998 26.0324C16.8501 26.0776 16.9176 26.0974 17.0003 26.0916C17.085 26.0852 17.1482 26.0566 17.1903 26.0051C17.2334 25.9534 17.252 25.8897 17.2469 25.8126C17.2411 25.7299 17.2132 25.6662 17.1634 25.6229C17.1144 25.579 17.0482 25.5599 16.9641 25.5656C16.8806 25.5712 16.8169 25.5999 16.7731 25.6503C16.7297 25.6999 16.7106 25.7668 16.7171 25.8502C16.7221 25.9267 16.7494 25.9872 16.7998 26.0324Z" fill="white"/>
<path fill-rule="evenodd" clip-rule="evenodd" d="M17.9175 25.3702C18.0169 25.2054 18.1679 25.1008 18.3722 25.0575C18.6862 24.9907 18.9314 25.0843 19.1073 25.3372C19.2073 25.4811 19.2849 25.6811 19.3398 25.9385C19.3927 26.1882 19.4053 26.4033 19.3766 26.5844C19.3232 26.9282 19.134 27.1347 18.8092 27.2035C18.6544 27.2366 18.5053 27.2205 18.3627 27.1558C18.2194 27.0895 18.1207 26.9711 18.0654 26.799L18.4698 26.7131C18.492 26.7715 18.5283 26.8157 18.5782 26.8449C18.6278 26.8741 18.6875 26.8811 18.7571 26.8665C18.8908 26.8378 18.9692 26.7437 18.9914 26.5844C19.0035 26.4964 18.9964 26.3737 18.971 26.215C18.9438 26.2697 18.9118 26.3137 18.8755 26.3468C18.8092 26.4087 18.7207 26.4513 18.6092 26.4748C18.4456 26.5098 18.2877 26.4844 18.136 26.3984C17.985 26.3118 17.8862 26.1615 17.8412 25.9475C17.794 25.7262 17.8194 25.534 17.9175 25.3702ZM18.7754 26.0435C18.855 25.9651 18.8792 25.853 18.8487 25.7079C18.8238 25.5912 18.7761 25.5048 18.7066 25.4481C18.6378 25.3913 18.5564 25.3727 18.4614 25.3927C18.392 25.4078 18.3367 25.4398 18.2958 25.4894C18.2308 25.5665 18.2136 25.678 18.2447 25.8232C18.2709 25.9455 18.315 26.0322 18.3772 26.0837C18.4403 26.134 18.5238 26.1474 18.6276 26.1257C18.6837 26.1136 18.7328 26.0862 18.7754 26.0435Z" fill="white"/>
<path fill-rule="evenodd" clip-rule="evenodd" d="M15.9882 11.1764C15.9882 11.0343 16.085 10.9197 16.2047 10.9197C16.3244 10.9197 16.4213 11.0343 16.4213 11.1764C16.4213 11.3183 16.3244 11.4337 16.2047 11.4337C16.085 11.4337 15.9882 11.3183 15.9882 11.1764Z" fill="white"/>
<path d="M15.9882 11.1764C15.9882 11.0343 16.085 10.9197 16.2047 10.9197C16.3244 10.9197 16.4213 11.0343 16.4213 11.1764C16.4213 11.3183 16.3244 11.4337 16.2047 11.4337C16.085 11.4337 15.9882 11.3183 15.9882 11.1764Z" stroke="#E8E7E7" stroke-width="0.508083" stroke-miterlimit="3.864"/>
<path d="M16.1239 11.3118C16.1239 11.1697 16.2206 11.0544 16.3403 11.0544C16.4595 11.0544 16.557 11.1697 16.557 11.3118C16.557 11.4538 16.4595 11.5691 16.3403 11.5691C16.2206 11.5691 16.1239 11.4538 16.1239 11.3118Z" stroke="#211E1F" stroke-width="1.01732" stroke-miterlimit="3.864"/>
<path d="M15.8258 11.284C15.8258 11.1421 15.9226 11.0275 16.0425 11.0275C16.1622 11.0275 16.2589 11.1421 16.2589 11.284C16.2589 11.4261 16.1622 11.5415 16.0425 11.5415C15.9226 11.5415 15.8258 11.4261 15.8258 11.284Z" stroke="#211E1F" stroke-width="1.01732" stroke-miterlimit="3.864"/>
<path d="M15.8532 11.0138C15.8532 10.8717 15.95 10.7571 16.0697 10.7571C16.1888 10.7571 16.2863 10.8717 16.2863 11.0138C16.2863 11.1559 16.1888 11.2711 16.0697 11.2711C15.95 11.2711 15.8532 11.1559 15.8532 11.0138Z" stroke="#211E1F" stroke-width="1.01732" stroke-miterlimit="3.864"/>
<path d="M16.1239 10.987C16.1239 10.845 16.2206 10.7297 16.3403 10.7297C16.4595 10.7297 16.557 10.845 16.557 10.987C16.557 11.1291 16.4595 11.2444 16.3403 11.2444C16.2206 11.2444 16.1239 11.1291 16.1239 10.987Z" stroke="#211E1F" stroke-width="1.01732" stroke-miterlimit="3.864"/>
<path fill-rule="evenodd" clip-rule="evenodd" d="M10.5762 12.6194L12.8124 13.8263C12.8124 13.8263 13.0717 15.9768 14.0901 17.1989C15.3328 18.69 15.546 18.8671 16.2556 19.3646C16.9658 19.8615 18.2084 20.6423 18.2084 20.6423L17.9244 21.3525C17.9244 21.3525 14.189 19.4468 12.8482 18.0863C10.3985 15.6015 10.5762 12.6194 10.5762 12.6194Z" fill="white"/>
<path d="M10.5762 12.6194L12.8124 13.8263C12.8124 13.8263 13.0717 15.9768 14.0901 17.1989C15.3328 18.69 15.546 18.8671 16.2556 19.3646C16.9658 19.8615 18.2084 20.6423 18.2084 20.6423L17.9244 21.3525C17.9244 21.3525 14.189 19.4468 12.8482 18.0863C10.3985 15.6015 10.5762 12.6194 10.5762 12.6194Z" stroke="#211E1F" stroke-width="0.508083" stroke-miterlimit="3.864"/>
<path fill-rule="evenodd" clip-rule="evenodd" d="M6.16921 17.0858C6.26611 17.0636 6.33675 17.0306 6.38132 16.9865C6.46294 16.9063 6.49598 16.7784 6.48063 16.6025C6.47126 16.4974 6.45264 16.4128 6.42342 16.3491C6.36801 16.228 6.28004 16.1726 6.1591 16.1834C6.08833 16.1898 6.03686 16.2254 6.00308 16.2903C5.97115 16.356 5.94643 16.456 5.92855 16.591L5.89797 16.8215C5.86678 17.0483 5.82598 17.207 5.77438 17.2975C5.68839 17.4496 5.54001 17.5355 5.33036 17.554C5.13865 17.5706 4.97382 17.5146 4.83493 17.3866C4.69618 17.2585 4.61524 17.0598 4.59101 16.7897C4.57116 16.5642 4.6145 16.3674 4.72083 16.198C4.82593 16.028 4.99163 15.9291 5.21768 15.9017L5.25528 16.3311C5.1278 16.3502 5.04132 16.4139 4.99601 16.5233C4.96679 16.5961 4.95594 16.6838 4.9655 16.7876C4.97505 16.903 5.0063 16.9927 5.05901 17.0572C5.11141 17.1214 5.17946 17.1502 5.26231 17.1432C5.33868 17.1361 5.39281 17.0978 5.42462 17.0265C5.44576 16.9806 5.4674 16.8851 5.48835 16.7405L5.54507 16.3641C5.56923 16.1992 5.61059 16.073 5.66798 15.9851C5.75774 15.8489 5.8973 15.7718 6.08777 15.7552C6.28331 15.7382 6.45215 15.7991 6.59473 15.9374C6.73682 16.0755 6.81954 16.2806 6.84321 16.5532C6.86738 16.8317 6.8233 17.0559 6.71068 17.2265C6.59726 17.3974 6.42916 17.4928 6.20693 17.512L6.16921 17.0858Z" fill="white"/>
<path fill-rule="evenodd" clip-rule="evenodd" d="M6.7033 15.3957L4.57266 15.1347L4.62685 14.694L5.43894 14.7932L5.54151 13.9607L4.72942 13.8614L4.78354 13.4187L6.91345 13.6805L6.85932 14.1225L5.90835 14.0061L5.80658 14.8384L6.75675 14.955L6.7033 15.3957Z" fill="white"/>
<path fill-rule="evenodd" clip-rule="evenodd" d="M5.8064 11.23L5.4554 12.3096L5.88851 12.4504L6.21078 11.4594L6.56486 11.5746L6.24327 12.5657L6.76816 12.7365L7.13482 11.6064L7.50172 11.7256L6.99926 13.2722L4.95856 12.609L5.44455 11.1122L5.8064 11.23Z" fill="white"/>
<path fill-rule="evenodd" clip-rule="evenodd" d="M5.7865 10.3998L6.524 9.0686L6.8541 9.25151L6.33229 10.1929L6.76416 10.4323L7.22094 9.60806L7.54697 9.78899L7.09044 10.6127L7.87689 11.0489L7.66095 11.4387L5.7865 10.3998Z" fill="white"/>
<path fill-rule="evenodd" clip-rule="evenodd" d="M6.93799 8.51672L7.91584 7.35107L8.20488 7.59377L7.51318 8.41797L7.89149 8.73519L8.49664 8.01351L8.78267 8.25313L8.1769 8.97481L8.86607 9.55304L8.58004 9.89456L6.93799 8.51672Z" fill="white"/>
<path fill-rule="evenodd" clip-rule="evenodd" d="M10.0933 8.28434L9.76217 8.58239L8.32649 6.98739L8.65758 6.68933L10.0933 8.28434Z" fill="white"/>
<path fill-rule="evenodd" clip-rule="evenodd" d="M10.7508 5.66148L9.79862 6.28009L10.0464 6.66216L10.9209 6.09466L11.124 6.40738L10.2494 6.97483L10.5501 7.43791L11.5463 6.79082L11.7565 7.11439L10.3928 8.00036L9.22417 6.20044L10.5438 5.34302L10.7508 5.66148Z" fill="white"/>
<path fill-rule="evenodd" clip-rule="evenodd" d="M11.2373 4.9654L11.6533 4.79797L12.3125 6.42985L13.2978 6.03174L13.4423 6.38959L12.0412 6.95525L11.2373 4.9654Z" fill="white"/>
<path fill-rule="evenodd" clip-rule="evenodd" d="M13.8016 4.46622L14.069 5.84079L14.4749 5.76243C14.6825 5.72163 14.8073 5.59106 14.8493 5.37006C14.8723 5.24893 14.869 5.11078 14.8385 4.95538C14.7972 4.74122 14.7309 4.58341 14.641 4.48212C14.5518 4.3801 14.4074 4.34835 14.2073 4.38719L13.8016 4.46622ZM14.5455 3.98902C14.7029 4.00887 14.8392 4.0752 14.9564 4.18654C15.0499 4.27703 15.122 4.38084 15.1721 4.49729C15.2225 4.61466 15.2588 4.72803 15.28 4.83868C15.3346 5.1191 15.3245 5.36686 15.25 5.58329C15.148 5.87506 14.9385 6.05149 14.6201 6.11326L13.7124 6.28981L13.3028 4.18327L14.2106 4.0069C14.3416 3.98342 14.4532 3.97768 14.5455 3.98902Z" fill="white"/>
<path fill-rule="evenodd" clip-rule="evenodd" d="M16.8888 3.78955L17.3411 3.84497L17.1806 5.15456C17.162 5.30097 17.1665 5.41002 17.1932 5.48184C17.2321 5.60808 17.3424 5.68194 17.5238 5.70431C17.704 5.72651 17.8282 5.68138 17.897 5.56802C17.9398 5.50477 17.9703 5.40046 17.9881 5.25381L18.1487 3.94428L18.6015 3.9997L18.4405 5.30923C18.413 5.53547 18.3556 5.70733 18.2704 5.82526C18.1104 6.04046 17.8468 6.12517 17.4774 6.08004C17.1086 6.03467 16.8723 5.88826 16.7685 5.64113C16.7137 5.50606 16.7004 5.32532 16.7284 5.09908L16.8888 3.78955Z" fill="white"/>
<path fill-rule="evenodd" clip-rule="evenodd" d="M19.4308 4.16467L19.8755 4.31755L20.1958 6.01243L20.683 4.59582L21.0786 4.73156L20.3799 6.7608L19.9556 6.61489L19.6233 4.88814L19.127 6.32965L18.7321 6.19336L19.4308 4.16467Z" fill="white"/>
<path fill-rule="evenodd" clip-rule="evenodd" d="M21.0829 7.16901L20.6893 6.9601L21.6969 5.06519L22.0899 5.2741L21.0829 7.16901Z" fill="white"/>
<path fill-rule="evenodd" clip-rule="evenodd" d="M24.0153 6.56004L23.7918 6.86771L23.2727 6.49001L22.2346 7.91925L21.869 7.65369L22.9071 6.22493L22.3855 5.846L22.609 5.53833L24.0153 6.56004Z" fill="white"/>
<path fill-rule="evenodd" clip-rule="evenodd" d="M25.3415 8.46262L24.5669 7.63208L24.2338 7.94302L24.9446 8.70526L24.672 8.95949L23.9611 8.19706L23.5574 8.57346L24.3683 9.44229L24.0854 9.70607L22.9765 8.51626L24.546 7.05249L25.6198 8.20353L25.3415 8.46262Z" fill="white"/>
<path fill-rule="evenodd" clip-rule="evenodd" d="M26.0192 9.43223L24.8185 10.1538L25.0311 10.5079C25.1401 10.6894 25.3055 10.7622 25.5273 10.7264C25.6491 10.706 25.7778 10.6558 25.9133 10.5741C26.1005 10.4615 26.2268 10.3456 26.2911 10.227C26.3566 10.108 26.3369 9.96139 26.2318 9.78625L26.0192 9.43223ZM26.7217 9.96792C26.7567 10.1227 26.7413 10.2736 26.6763 10.4213C26.6235 10.5404 26.5503 10.6437 26.4579 10.7309C26.3657 10.8181 26.2714 10.8907 26.1744 10.9486C25.9299 11.0958 25.6928 11.1716 25.4643 11.1754C25.1554 11.1792 24.9178 11.0429 24.751 10.7647L24.2745 9.97224L26.1139 8.86731L26.5904 9.65951C26.6572 9.77411 26.7013 9.87743 26.7217 9.96792Z" fill="white"/>
<path fill-rule="evenodd" clip-rule="evenodd" d="M27.6731 12.0801L28.0412 13.5565L27.6751 13.6475L27.4145 12.6035L26.9364 12.7227L27.1637 13.6368L26.8025 13.7271L26.5745 12.8131L25.7012 13.0303L25.5936 12.5985L27.6731 12.0801Z" fill="white"/>
<path fill-rule="evenodd" clip-rule="evenodd" d="M26.3407 13.9375L26.4019 14.3744L25.972 14.4349L25.9108 13.998L26.3407 13.9375Z" fill="white"/>
<path fill-rule="evenodd" clip-rule="evenodd" d="M27.9675 15.0798C28.1413 15.2577 28.2255 15.4812 28.2209 15.7513C28.2146 16.1124 28.0917 16.3741 27.8522 16.5367C27.7172 16.6264 27.5835 16.6735 27.4489 16.6786L27.4567 16.2303C27.5605 16.2029 27.6389 16.1666 27.6916 16.1219C27.7866 16.0423 27.8349 15.9219 27.8382 15.7621C27.8407 15.5991 27.777 15.4691 27.6465 15.3728C27.5172 15.276 27.3325 15.2257 27.0917 15.2219C26.851 15.2174 26.6694 15.264 26.5472 15.3607C26.4262 15.4589 26.3644 15.5844 26.3619 15.7372C26.3592 15.8947 26.4083 16.0155 26.5096 16.0996C26.5643 16.1462 26.6464 16.1856 26.7568 16.2174L26.749 16.6613C26.5159 16.6189 26.3274 16.5162 26.1835 16.3532C26.0396 16.1912 25.9701 15.9863 25.9746 15.7366C25.9796 15.4276 26.0828 15.1868 26.2841 15.0137C26.4859 14.8403 26.7605 14.7569 27.107 14.7633C27.4814 14.7696 27.7682 14.8754 27.9675 15.0798Z" fill="white"/>
<path fill-rule="evenodd" clip-rule="evenodd" d="M26.3841 16.9957L26.3152 17.4314L25.8866 17.3633L25.9554 16.9276L26.3841 16.9957Z" fill="white"/>
</svg>
