<svg width="32" height="32" viewBox="0 0 32 32" fill="none" xmlns="http://www.w3.org/2000/svg">
<g clip-path="url(#clip0_371_27129)">
<path d="M10.5126 26.4338C10.398 26.407 10.299 26.3406 10.2226 26.241C9.83518 26.7994 9.67181 27.2986 9.81427 27.7466C10.4103 29.6266 12.1858 31.0151 14.3123 31.2C12.28 30.6234 10.7759 28.645 10.5126 26.4338ZM10.0964 25.3228C9.96839 25.2376 9.85876 25.1577 9.78077 25.0881C9.64487 25.5558 9.58215 26.0506 9.6044 26.5605C9.60876 26.6635 9.61666 26.7655 9.62759 26.8666C9.70625 26.5653 9.86111 26.2506 10.0831 25.9295C10.0402 25.7417 10.0469 25.528 10.0964 25.3228ZM10.1966 25.0358C10.2503 24.9219 10.3176 24.8167 10.3976 24.7281C10.462 24.6571 10.5307 24.6008 10.6035 24.559C10.7969 23.7169 11.2008 22.9669 11.7912 22.4C10.9097 22.9856 10.234 23.8204 9.8788 24.7892C9.92597 24.8494 10.0513 24.9406 10.1966 25.0358ZM17.8228 29.3583C17.3827 29.3127 16.794 29.204 16.537 29.1209C16.2501 29.0282 15.9948 28.8043 15.8545 28.5214C15.7964 28.4044 15.7439 28.2489 15.7355 28.0603C15.7308 27.9476 15.7423 27.8233 15.7776 27.6887C14.1642 27.229 12.4552 26.5906 11.2655 25.9971C11.2236 26.0687 11.1757 26.1352 11.122 26.1946C11.0325 26.2935 10.932 26.3652 10.8286 26.4062C10.9403 27.331 11.284 28.2372 11.8314 29.0267C12.5575 30.074 13.5464 30.7918 14.6147 31.0178C14.9934 31.0975 15.4885 31.197 15.9313 31.1054C17.5733 30.7656 18.9118 29.7046 19.5661 28.3088C19.4894 28.3215 19.4033 28.3288 19.3107 28.3318C18.9362 29.3559 18.1482 29.3919 17.8228 29.3583ZM19.9956 26.1654C19.9722 25.6261 19.8558 25.111 19.661 24.6332C19.4215 24.0472 18.621 23.6316 17.5666 23.4084C15.6174 22.9968 13.0569 23.6768 11.4276 24.9574C11.4902 25.1909 11.4717 25.4696 11.3876 25.7236C12.5616 26.3133 14.269 26.9516 15.8798 27.4097C16.2589 26.5964 16.9847 26.4413 17.5508 26.5735C17.9564 26.668 18.217 26.7176 18.4073 26.7534L18.6167 26.7947C18.8858 26.8535 19.1219 27.0205 19.2634 27.2532C19.3637 27.4176 19.4559 27.6776 19.3931 28.0357C19.591 28.0249 19.6868 27.9939 19.709 27.9694C19.9204 27.4064 20.0233 26.7974 19.9956 26.1654ZM19.0719 28.0357C19.1367 27.7356 19.0665 27.5268 18.9885 27.3991C18.8907 27.2379 18.7286 27.1224 18.5452 27.0823L18.3446 27.0429C18.1621 27.0085 17.8868 26.9561 17.4743 26.86C16.9218 26.731 16.4477 26.9674 16.1859 27.4945C16.4551 27.5677 16.7201 27.6352 16.9785 27.6964C17.0201 27.5086 17.029 27.3784 17.029 27.3761C17.0343 27.2948 17.1091 27.2326 17.1963 27.2374C17.2834 27.2421 17.3499 27.3117 17.3447 27.3934C17.3442 27.404 17.334 27.5534 17.286 27.7665C17.3371 27.7777 17.3884 27.7889 17.4387 27.7995C17.4905 27.8105 17.5415 27.8211 17.5915 27.831C17.6365 27.6233 17.6656 27.4467 17.6664 27.4432C17.6794 27.3626 17.7601 27.3072 17.8462 27.3194C17.9328 27.3315 17.9921 27.4068 17.9792 27.4876C17.9769 27.5018 17.9476 27.6786 17.9012 27.8905C18.0072 27.9098 18.1077 27.9267 18.2031 27.9419C18.2381 27.7627 18.2467 27.6202 18.2467 27.6175C18.2509 27.5362 18.3253 27.4733 18.4125 27.4774C18.4999 27.4813 18.5672 27.5505 18.5627 27.6318C18.5621 27.6439 18.5535 27.7935 18.516 27.9861C18.7351 28.0139 18.9191 28.0291 19.0719 28.0357ZM16.1415 28.3969C16.265 28.646 16.4802 28.7901 16.6405 28.8416C16.8487 28.9091 17.3997 29.0172 17.8573 29.0641C18.3594 29.116 18.7518 28.8551 18.9756 28.3278C18.8076 28.3188 18.6277 28.3004 18.4416 28.2762C18.4067 28.3823 18.3622 28.4882 18.3049 28.5822C18.2618 28.6531 18.1654 28.6775 18.0895 28.6374C18.0136 28.5971 17.9871 28.5068 18.0303 28.4357C18.0683 28.3734 18.0997 28.3026 18.1257 28.2298C18.0275 28.2141 17.9288 28.1968 17.831 28.1791C17.7974 28.3016 17.759 28.418 17.7187 28.5051C17.6838 28.5798 17.5904 28.6138 17.5103 28.5814C17.4302 28.5489 17.3938 28.4618 17.4286 28.387C17.4612 28.317 17.4925 28.2221 17.5213 28.1193C17.47 28.1088 17.4192 28.0983 17.369 28.0877C17.3158 28.0765 17.2614 28.0645 17.2071 28.0523C17.1787 28.1379 17.1452 28.227 17.1044 28.3171C17.0706 28.3922 16.9773 28.4274 16.897 28.3957C16.8167 28.3641 16.7787 28.2773 16.8127 28.2023C16.8468 28.1279 16.8751 28.0538 16.8991 27.9824C16.6326 27.9193 16.3588 27.8491 16.0812 27.7734C16.0142 28.0455 16.0723 28.2582 16.1415 28.3969ZM10.9317 24.7155C10.8616 24.7035 10.7225 24.7045 10.5835 24.8456C10.3634 25.0685 10.2601 25.3706 10.276 25.7427C10.2804 25.8376 10.2946 25.8907 10.3233 25.9672C10.3747 26.1024 10.498 26.1918 10.588 26.2071C10.6951 26.2254 10.816 26.1669 10.9288 26.0422C11.1753 25.7689 11.2817 25.2679 11.1607 24.9481C11.1105 24.8149 11.0293 24.7322 10.9317 24.7155Z" fill="#001C58"/>
<path d="M12.5535 0C10.6354 0 10.1807 0.983326 10.1807 0.983326C10.1807 0.983326 12.3939 0.823412 12.3939 3.0089C12.3939 3.99247 11.8586 4.65913 11.292 5.36464C10.6337 6.18401 9.88795 7.11277 9.88795 8.67078C9.88795 11.2498 11.5451 12.4597 13.007 13.5271C14.2807 14.4573 15.4836 15.3356 15.4836 16.9895C15.4836 18.6525 14.7541 19.9418 14.4211 20.2746C13.8627 20.833 13.3595 20.9345 12.9555 21.0162C12.5405 21.0999 12.1484 21.1805 12.0661 21.7765C10.5304 22.6987 9.60001 24.3412 9.60001 26.1232C9.60001 26.1927 9.60146 26.2625 9.60423 26.3323C9.65944 27.6867 10.2388 28.9385 11.2355 29.8569C12.2321 30.7756 13.527 31.2509 14.8813 31.1957C16.2357 31.1405 17.4874 30.5611 18.4062 29.5649C19.325 28.5683 19.8005 27.2735 19.745 25.9196C19.6611 23.8522 18.3491 22.0604 16.4026 21.3549L16.4101 21.3577C16.4088 21.3571 16.3834 21.347 16.3834 21.347C16.3832 21.3467 16.3376 21.3309 16.3376 21.3309C16.0914 21.2459 15.8121 21.1494 15.8121 20.5163C15.8121 19.9028 16.0906 19.852 16.6449 19.7502C16.9744 19.6897 17.3775 19.6157 17.7729 19.3743C18.4766 18.9448 18.6087 18.4267 18.4805 18.2988C18.3062 18.1242 18.1139 18.4909 17.4057 18.7043C17.1504 18.7813 16.8934 18.8261 16.7198 18.8261C16.5754 18.8261 16.4677 18.814 16.3886 18.7996C16.7606 18.1028 17.1773 17.5324 17.1819 17.5264L17.2727 17.4029L17.1641 17.2944C17.0202 17.1505 16.9374 16.8513 16.9374 16.45C16.9374 15.9549 17.0633 15.3048 17.3556 14.5989C17.7013 13.7647 19.0737 11.0425 22.2213 11.0425H22.4V10.8638C22.4 9.7387 22.2972 8.70383 22.0946 7.78813L22.0552 7.61024C22.0552 7.61024 21.7495 7.69698 21.495 7.75375C21.4647 7.76044 21.2266 7.81891 21.2157 7.7687C21.2062 7.72429 21.3901 7.632 21.4536 7.60008C21.6926 7.48124 21.9906 7.35608 21.9906 7.35608L21.9495 7.21288C21.7249 6.4294 21.499 6.05501 21.4894 6.0393L21.4164 5.91995L21.2835 5.96203C18.6623 6.78765 18.1018 8.52682 17.7669 9.56572C17.604 10.0706 17.5032 10.3562 17.3209 10.3562C16.7799 10.3562 16.3323 9.90883 16.1852 9.76178C14.5511 8.12764 14.6762 6.94952 14.8659 5.16599C14.9331 4.53662 15.0091 3.82341 15.0091 3.0089C15.0089 0.956074 14.2287 0 12.5535 0Z" fill="white"/>
<path d="M15.6525 17.0172C15.6525 18.6938 14.9256 20.0573 14.5057 20.4704C13.2043 21.7509 12.131 20.8184 12.1193 22.103C11.5288 22.6292 11.1039 23.4292 10.8954 24.3429C10.9084 24.3442 10.9213 24.346 10.934 24.3483C11.0562 24.3702 11.1611 24.4389 11.2412 24.5474C12.8941 23.222 15.4389 22.5252 17.3841 22.9579C18.0025 23.0955 18.527 23.3201 18.9243 23.6638C18.327 22.7132 17.4138 21.9797 16.3344 21.599C16.0782 21.5086 15.6227 21.4051 15.6227 20.5872C15.6227 19.0608 17.3202 20.2476 18.4385 18.585C18.4933 18.5029 18.4145 18.4312 18.3488 18.4958C18.0106 18.8283 17.1798 19.0572 16.7404 19.0572C16.3005 19.0572 16.135 18.9586 16.135 18.9586C16.5503 18.1456 17.0675 17.4536 17.0675 17.4536C16.0293 16.4321 17.7766 10.8163 22.4 10.8163C22.4 9.51362 22.2601 8.49748 22.0902 7.74188C21.9802 7.76825 21.1094 7.97029 21.0694 7.79009C21.0342 7.63045 21.7109 7.28435 21.9439 7.17049C21.7167 6.39184 21.4904 6.0269 21.4904 6.0269C17.5276 7.25529 18.3241 10.4833 17.3587 10.4833C16.7303 10.4833 16.2368 10.0021 16.0605 9.82862C13.6936 7.50025 14.7967 5.95921 14.7967 2.86502C14.7967 0.780637 13.974 0 12.4545 0C10.9352 0 10.3923 0.647306 10.3923 0.647306C10.3923 0.647306 12.4741 0.713652 12.4741 2.86502C12.4741 5.11734 9.89613 5.73904 9.89613 8.59626C9.896 13.3528 15.6525 13.2635 15.6525 17.0172ZM12.9082 2.86527C12.9082 2.58916 12.878 2.3398 12.8232 2.11478C12.8232 2.11478 13.2763 2.09147 13.2763 1.54895C13.2763 1.1017 12.9731 0.796793 12.8918 0.796793C12.8262 0.796793 12.8099 0.86531 12.6679 0.86531C12.3218 0.86531 12.2965 0.43026 12.2965 0.43026C12.3477 0.428536 12.4003 0.42777 12.4543 0.42777C13.4451 0.42777 14.3622 0.722975 14.3622 2.8654C14.3622 3.65766 14.2859 4.36269 14.2187 4.98465C14.1521 5.59894 14.0905 6.17032 14.1082 6.72829C14.1082 6.72829 12.3828 6.52823 12.3828 5.25112C12.3828 4.42176 12.9082 4.21997 12.9082 2.86527ZM10.4839 26.3382C10.3729 26.3108 10.277 26.2431 10.2031 26.1415C9.82779 26.7111 9.66956 27.2203 9.80754 27.6773C10.3848 29.595 12.1046 31.0114 14.1642 31.2C12.1958 30.6118 10.739 28.5937 10.4839 26.3382ZM10.0808 25.2048C9.95681 25.1179 9.85063 25.0364 9.77509 24.9655C9.64346 25.4426 9.58272 25.9473 9.60426 26.4674C9.60848 26.5725 9.61614 26.6765 9.62672 26.7796C9.70292 26.4723 9.85291 26.1512 10.0679 25.8238C10.0263 25.6322 10.0329 25.4142 10.0808 25.2048ZM10.1779 24.9121C10.2299 24.7959 10.295 24.6886 10.3726 24.5982C10.435 24.5259 10.5014 24.4684 10.572 24.4257C10.7593 23.5668 11.1505 22.8018 11.7224 22.2235C10.8685 22.8208 10.2141 23.6723 9.87004 24.6605C9.91573 24.722 10.0372 24.815 10.1779 24.9121ZM17.5644 29.3214C17.1382 29.2748 16.5679 29.164 16.319 29.0792C16.0411 28.9846 15.7938 28.7562 15.658 28.4676C15.6017 28.3483 15.5508 28.1896 15.5427 27.9973C15.5381 27.8823 15.5493 27.7556 15.5835 27.6183C14.0208 27.1493 12.3655 26.4981 11.2131 25.8927C11.1726 25.9657 11.1262 26.0336 11.0742 26.0942C10.9875 26.195 10.8902 26.2682 10.79 26.31C10.8982 27.2533 11.2311 28.1777 11.7613 28.9831C12.4646 30.0514 13.4224 30.7836 14.4571 31.0141C14.8239 31.0954 15.3034 31.1969 15.7324 31.1034C17.3228 30.7569 18.6192 29.6745 19.2529 28.2508C19.1786 28.2638 19.0952 28.2712 19.0056 28.2743C18.6428 29.3189 17.8796 29.3557 17.5644 29.3214ZM19.3448 24.5014C19.1129 23.9036 18.3376 23.4797 17.3163 23.2521C15.4283 22.8322 12.9483 23.5259 11.3702 24.8322C11.4308 25.0704 11.4128 25.3546 11.3315 25.6138C12.4685 26.2153 14.1223 26.8664 15.6825 27.3337C16.0497 26.504 16.7527 26.3458 17.301 26.4807C17.6938 26.5771 17.9463 26.6277 18.1306 26.6641L18.3334 26.7063C18.5941 26.7662 18.8227 26.9366 18.9598 27.174C19.0569 27.3417 19.1462 27.6069 19.0854 27.9722C19.277 27.9612 19.3698 27.9296 19.3913 27.9046C19.5959 27.3303 19.6956 26.709 19.6687 26.0644C19.6463 25.5142 19.5335 24.9889 19.3448 24.5014ZM15.9359 28.3406C16.0556 28.5947 16.264 28.7417 16.4192 28.7943C16.6209 28.8631 17.1546 28.9734 17.5979 29.0212C18.0841 29.0742 18.4642 28.808 18.681 28.2702C18.5182 28.261 18.344 28.2422 18.1637 28.2176C18.1299 28.3258 18.0869 28.4338 18.0314 28.5296C17.9896 28.602 17.8963 28.6269 17.8228 28.586C17.7492 28.5449 17.7236 28.4528 17.7654 28.3802C17.8022 28.3167 17.8326 28.2445 17.8578 28.1702C17.7627 28.1542 17.667 28.1365 17.5724 28.1185C17.5398 28.2435 17.5027 28.3622 17.4636 28.451C17.4298 28.5273 17.3393 28.5619 17.2617 28.5288C17.1841 28.4956 17.1489 28.4068 17.1826 28.3306C17.2142 28.2592 17.2445 28.1624 17.2724 28.0575C17.2227 28.0467 17.1735 28.036 17.1249 28.0252C17.0734 28.0139 17.0207 28.0016 16.9681 27.9891C16.9405 28.0765 16.9081 28.1673 16.8686 28.2592C16.8358 28.3359 16.7455 28.3718 16.6677 28.3395C16.5899 28.3072 16.5531 28.2186 16.5861 28.1421C16.6191 28.0663 16.6465 27.9907 16.6698 27.9179C16.4116 27.8534 16.1464 27.7819 15.8776 27.7047C15.8127 27.9822 15.8689 28.1992 15.9359 28.3406ZM18.7742 27.9722C18.837 27.6661 18.769 27.4531 18.6935 27.3229C18.5987 27.1584 18.4417 27.0406 18.2641 26.9997L18.0698 26.9595C17.893 26.9243 17.6264 26.871 17.2269 26.7729C16.6917 26.6413 16.2326 26.8825 15.9789 27.4202C16.2396 27.4948 16.4964 27.5637 16.7466 27.6261C16.7869 27.4346 16.7955 27.3017 16.7955 27.2994C16.8007 27.2164 16.8732 27.153 16.9576 27.1579C17.042 27.1627 17.1064 27.2337 17.1014 27.3171C17.1008 27.3278 17.091 27.4802 17.0445 27.6976C17.094 27.709 17.1437 27.7205 17.1924 27.7312C17.2425 27.7425 17.292 27.7533 17.3404 27.7633C17.384 27.5515 17.4121 27.3714 17.4129 27.3678C17.4255 27.2856 17.5037 27.2291 17.5871 27.2416C17.671 27.2538 17.7284 27.3307 17.7159 27.4131C17.7137 27.4276 17.6853 27.6079 17.6404 27.8241C17.7431 27.8438 17.8404 27.861 17.9328 27.8765C17.9667 27.6937 17.975 27.5484 17.975 27.5457C17.979 27.4626 18.0511 27.3985 18.1356 27.4027C18.2202 27.4066 18.2854 27.4773 18.2811 27.5602C18.2804 27.5725 18.2722 27.7252 18.2359 27.9216C18.4481 27.9499 18.6263 27.9654 18.7742 27.9722ZM10.8899 24.5854C10.822 24.5732 10.6872 24.5741 10.5526 24.7181C10.3394 24.9455 10.2393 25.2536 10.2547 25.6332C10.259 25.73 10.2728 25.7842 10.3006 25.8622C10.3503 26.0002 10.4697 26.0913 10.557 26.1069C10.6607 26.1256 10.7778 26.0659 10.8871 25.9387C11.1258 25.6599 11.2288 25.1488 11.1117 24.8227C11.063 24.6868 10.9844 24.6024 10.8899 24.5854Z" fill="#001C58"/>
</g>
<defs>
<clipPath id="clip0_371_27129">
<rect width="32" height="32" fill="white"/>
</clipPath>
</defs>
</svg>
