<svg width="110" height="123" viewBox="0 0 110 123" fill="none" xmlns="http://www.w3.org/2000/svg">
<path d="M65.3472 52.7857C71.1984 41.9006 74.4558 29.9572 68.0617 21.7632C68.3633 23.8193 68.4236 25.573 68.4236 25.573C75.994 36.7907 61.5168 58.0469 61.5168 58.0469C62.9344 56.2327 64.2011 54.479 65.3472 52.7857Z" fill="white"/>
<path d="M70.0221 44.3194C77.4115 27.508 68.7554 19.3442 67.368 18.165C67.5188 18.8604 67.6394 19.4954 67.7601 20.1303C67.8506 20.4932 67.9109 20.856 67.9712 21.2188C74.7875 29.4129 71.4698 41.1446 67.0061 50.1551C67.2172 49.7922 67.549 49.2782 67.549 49.2782C81.5435 27.2056 66.7648 15.8065 66.7648 15.8065C66.9457 16.2601 67.0965 17.016 67.2473 17.53C68.7855 19.0116 78.1052 27.8104 70.0221 44.3194Z" fill="white"/>
<path d="M40.1328 21.7632C33.7387 29.9572 36.9961 41.8704 42.8473 52.7857C43.9632 54.479 45.23 56.2327 46.6777 58.0771C46.6777 58.0771 32.2005 36.8209 39.7709 25.6032C39.7407 25.6032 39.801 23.8193 40.1328 21.7632Z" fill="white"/>
<path d="M41.1583 50.1551C36.6945 41.1144 33.3768 29.4129 40.1931 21.2188C40.2535 20.856 40.3138 20.4932 40.4043 20.1303C40.5249 19.4954 40.6456 18.8604 40.7964 18.165C39.3788 19.3442 30.7227 27.508 38.1422 44.3194C30.0591 27.8104 39.409 19.0116 40.9472 17.53C41.098 17.016 41.2488 16.2298 41.4297 15.8065C41.4297 15.8065 26.651 27.2056 40.6456 49.2782C40.6456 49.2782 40.9472 49.7922 41.1583 50.1551Z" fill="white"/>
<path d="M48.6985 59.1513C42.8473 52.3482 42.4853 35.2948 42.4853 35.2948C44.1442 59.7561 52.4384 61.8726 54.0369 61.8726C55.6354 61.8726 63.9297 59.7561 65.5885 35.2948C65.5885 35.2948 65.2266 52.3482 59.3754 59.1513C63.9598 54.2531 67.187 43.2168 67.187 30.3965C67.187 20.6302 65.317 11.8012 62.3915 6.026H59.5262C62.2406 10.9243 64.0503 19.1486 64.0503 28.3102C64.0503 35.8693 62.9645 42.7027 61.1549 47.6313L61.6978 46.7847C60.0088 52.9529 56.9324 56.4301 54.0068 56.4301C51.1113 56.3998 48.0349 52.9529 46.3158 46.7847L46.8587 47.6313C45.049 42.7027 43.9632 35.8693 43.9632 28.3102C43.9632 19.1486 45.7729 10.9243 48.4873 6.026H45.6221C42.6965 11.8012 40.8265 20.5999 40.8265 30.3965C40.8868 43.2168 44.114 54.2531 48.6985 59.1513Z" fill="white"/>
<path d="M54.0068 56.2024H54.0369C56.9022 56.1722 59.8278 52.2112 61.0041 48.0386C59.3151 52.4531 56.872 55.1744 54.0068 55.2046C51.1415 55.2046 48.6985 52.4531 47.0095 48.0386C48.2159 52.2112 51.1717 56.1419 54.0068 56.2024Z" fill="white"/>
<path d="M21.7046 107.635C21.7046 107.635 19.8648 106.788 19.0504 106.213C18.7488 106.032 18.5679 105.79 18.6282 105.578C18.7488 105.216 19.2314 105.125 20.6188 105.125C21.0109 105.125 24.1778 105.337 24.1778 105.337V103.462C24.1778 103.462 21.6141 103.19 20.6188 103.19C17.7234 103.19 16.3661 104.006 16.3661 105.79C16.3661 107.181 17.3916 107.695 18.8393 108.451L20.4077 109.267C21.8554 110.023 22.157 110.416 22.1872 110.87C22.2173 111.263 22.0062 112.2 20.8902 112.382C19.9251 112.563 16.4868 112.23 16.4868 112.23V114.105C16.4868 114.105 19.1108 114.377 20.0457 114.377C24.5699 114.377 24.5095 111.354 24.5095 110.809C24.4794 109.509 23.7254 108.663 21.7046 107.635Z" fill="white"/>
<path d="M31.8386 104.913V109.539C31.8386 110.386 31.7783 110.991 31.6275 111.354C31.5068 111.686 31.2656 111.958 30.9338 112.14C30.8433 112.2 30.3909 112.442 29.5464 112.442C28.7019 112.442 28.2495 112.2 28.159 112.14C27.8272 111.958 27.6161 111.686 27.4653 111.354C27.3145 110.991 27.2542 110.356 27.2542 109.539V104.913C27.2542 104.067 26.5002 103.371 25.5652 103.341H25.2032V109.539C25.2032 110.658 25.3541 111.565 25.6255 112.23C25.8969 112.926 26.4097 113.47 27.0732 113.833C27.5859 114.105 28.2193 114.287 28.9432 114.347C29.1241 114.377 29.5162 114.377 29.5162 114.377C29.5162 114.377 29.9083 114.377 30.0893 114.347C30.8433 114.287 31.4767 114.105 31.9593 113.833C32.6228 113.47 33.1054 112.926 33.407 112.23C33.6784 111.565 33.8292 110.658 33.8292 109.539V103.341H33.4673C32.5926 103.371 31.8386 104.067 31.8386 104.913Z" fill="white"/>
<path d="M42.0933 103.976C41.7012 103.704 41.2488 103.522 40.7059 103.432C40.3439 103.371 39.801 103.341 39.1073 103.341H36.8453H36.3929C34.8848 103.341 34.8848 104.55 34.8848 105.185V114.196H36.9056V105.246H36.9961H39.1677C39.8915 105.246 40.1931 105.276 40.3138 105.337C40.5852 105.397 40.7964 105.578 40.9773 105.79C41.1583 106.032 41.2186 106.334 41.2186 106.667C41.2186 107.151 41.0678 107.514 40.7963 107.755C40.4947 108.028 39.801 108.149 38.8057 108.149C37.9009 108.149 37.358 108.904 37.2675 109.63L37.2374 110.023H39.1677C40.7059 110.023 41.7917 109.691 42.3949 109.025C42.9981 108.36 43.2997 107.544 43.2997 106.606C43.2997 106.062 43.1791 105.518 42.9679 105.064C42.787 104.611 42.4854 104.248 42.0933 103.976Z" fill="white"/>
<path d="M46.165 105.246H51.5034V103.341H45.984H45.6522C44.1442 103.341 44.1442 104.55 44.1442 105.185V112.351C44.1442 112.986 44.1442 114.196 45.6522 114.196H46.1951H51.5336V112.291H46.1951V109.449H51.5336V107.574H46.1951V105.246H46.165Z" fill="white"/>
<path d="M60.6421 112.291C59.858 112.17 57.8673 111.716 57.1736 110.053C58.5309 109.993 59.496 109.66 60.0389 109.056C60.6421 108.39 60.9437 107.574 60.9437 106.637C60.9437 106.092 60.8231 105.548 60.612 105.095C60.3707 104.611 60.0691 104.248 59.677 103.976C59.3151 103.704 58.8325 103.522 58.2896 103.432C57.9277 103.371 57.3848 103.341 56.6911 103.341H54.429H53.9766C52.4686 103.341 52.4686 104.55 52.4686 105.185V114.196H54.4893V105.246H54.5798H56.7514C57.4752 105.246 57.7769 105.276 57.8975 105.337C58.1689 105.397 58.3801 105.578 58.561 105.79C58.742 106.032 58.8023 106.334 58.8023 106.667C58.8023 107.151 58.6515 107.514 58.3801 107.755C57.7769 108.33 54.8513 108.209 54.8513 108.209C54.5798 110.386 56.1783 114.166 61.3057 114.166H62.4216L62.4819 113.924C62.6026 113.954 61.4565 113.531 60.6421 112.291Z" fill="white"/>
<path d="M65.0758 104.943C64.1408 106.032 63.6582 107.362 63.6582 108.904C63.6582 109.812 63.8392 110.658 64.2011 111.414C64.563 112.17 65.0154 112.744 65.5885 113.168C66.1615 113.591 66.9156 113.863 67.7601 114.014C68.3934 114.135 69.2983 114.166 70.4745 114.166H72.6159V112.291H70.2936C69.1776 112.291 68.4236 112.23 68.0315 112.109C67.368 111.928 66.8251 111.535 66.433 110.93C66.0409 110.326 65.8298 109.63 65.8298 108.814C65.8298 107.665 66.1615 106.788 66.8552 106.153C67.5188 105.548 68.5744 105.367 70.0523 105.337H71.0476C71.8921 105.337 72.5858 104.581 72.6159 103.643V103.28H70.0523C67.6696 103.341 66.0107 103.885 65.0758 104.943Z" fill="white"/>
<path d="M80.3069 104.913V109.539C80.3069 110.386 80.2466 110.991 80.0958 111.354C79.9752 111.686 79.7339 111.958 79.4021 112.14C79.3116 112.2 78.8592 112.442 78.0147 112.442C77.1702 112.442 76.7178 112.2 76.6273 112.14C76.2956 111.958 76.0844 111.686 75.9336 111.354C75.7828 110.991 75.7225 110.356 75.7225 109.539V104.913C75.7225 104.067 74.9685 103.371 74.0335 103.341H73.6716V109.539C73.6716 110.658 73.8224 111.565 74.0938 112.23C74.3653 112.926 74.878 113.47 75.5415 113.833C76.0543 114.105 76.6876 114.287 77.4115 114.347C77.5925 114.377 77.9846 114.377 77.9846 114.377C77.9846 114.377 78.3767 114.377 78.5576 114.347C79.3116 114.287 79.945 114.105 80.4276 113.833C81.0911 113.47 81.5737 112.926 81.8753 112.23C82.1467 111.565 82.2975 110.658 82.2975 109.539V103.341H81.9959C81.061 103.371 80.3069 104.067 80.3069 104.913Z" fill="white"/>
<path d="M91.4966 105.095C91.2553 104.611 90.9537 104.248 90.5616 103.976C90.1695 103.704 89.7171 103.522 89.1742 103.432C88.8123 103.371 88.2694 103.341 87.5757 103.341H85.3136H84.8612C83.3532 103.341 83.3532 104.55 83.3532 105.185V114.196H85.374V105.246H85.4644H87.636C88.3599 105.246 88.6615 105.276 88.7821 105.337C89.0536 105.397 89.2647 105.578 89.4457 105.79C89.6266 106.032 89.6869 106.334 89.6869 106.667C89.6869 107.151 89.5361 107.514 89.2647 107.755C88.9631 108.028 88.2694 108.149 87.2741 108.149C86.3693 108.149 85.8264 108.904 85.7359 109.63L85.7057 110.023H87.636C89.1742 110.023 90.26 109.691 90.8632 109.025C91.4664 108.36 91.768 107.544 91.768 106.606C91.8284 106.062 91.7077 105.548 91.4966 105.095Z" fill="white"/>
<path d="M91.8887 103.583V103.341H93.5174V103.583H92.8538V105.397H92.5824V103.583H91.8887Z" fill="white"/>
<path d="M94.1206 103.341L94.754 105.064L95.4175 103.341H95.7794V105.397H95.5381V103.704H95.508L94.8746 105.397H94.6635L94.0301 103.704H93.9999V105.397H93.7587V103.341H94.1206Z" fill="white"/>
<path d="M36.9659 91.337L36.2722 90.6718C40.7662 86.0457 47.0698 83.1732 54.0068 83.1732C60.9438 83.1732 67.2474 86.0457 71.7413 90.6718L71.0476 91.337C66.7346 86.8923 60.6723 84.1408 54.0068 84.1408C47.3111 84.1408 41.2789 86.8923 36.9659 91.337ZM43.7521 99.0171L43.0283 98.3821C45.7126 95.3282 49.6335 93.3931 54.0068 93.3931C58.3801 93.3931 62.3311 95.3282 64.9853 98.3821L64.2614 99.0171C61.7581 96.1446 58.0785 94.3607 54.0068 94.3607C49.9049 94.3607 46.2555 96.1446 43.7521 99.0171ZM67.6394 90.2183C67.9109 90.4299 67.9109 90.6718 67.8204 90.8835L66.0409 97.1122L65.0155 96.1749L65.3774 94.9654L64.171 94.0583L65.1964 93.3931L65.7092 93.7862L66.3425 91.6394L62.4518 94.1793L61.3057 93.5443L66.7045 90.0066C66.9156 89.8857 67.0965 89.795 67.3982 90.0369L67.6394 90.2183ZM42.6362 94.6933C42.1838 94.6328 41.9123 94.4514 41.4901 93.9374L39.3486 91.2766L38.3835 92.0627L40.736 94.9654C41.2186 95.5701 41.7917 95.9027 42.4552 95.9632C43.1791 96.0237 43.8426 95.812 44.5061 95.2678C45.1697 94.7235 45.5014 94.149 45.5919 93.3931C45.6824 92.7279 45.4713 92.1232 44.9887 91.5185L42.6362 88.6158L41.671 89.4019L43.8124 92.0627C44.2347 92.5767 44.3553 92.8791 44.3252 93.3326C44.295 93.6955 44.0839 94.0583 43.7521 94.3304C43.4203 94.6026 42.9981 94.7235 42.6362 94.6933ZM51.9257 86.8318L51.6844 85.6828L47.8841 86.469C47.6127 86.5295 47.4619 86.7411 47.5222 87.0132L48.3064 90.944C48.5778 92.2744 49.543 92.5767 50.6288 92.3651L52.9511 91.9115L52.7099 90.7625L50.478 91.2161C49.9049 91.337 49.6335 91.2161 49.5128 90.5811L49.3922 90.0066L52.1971 89.4321L51.9558 88.3134L49.1509 88.8879L48.8794 87.497L51.9257 86.8318ZM57.807 89.7647L60.5517 90.4904L60.8533 89.3717L58.1086 88.646L58.2594 88.0715C58.4404 87.4365 58.6817 87.3458 59.2548 87.497L61.4565 88.0715L61.7581 86.9528L59.4659 86.348C58.4102 86.0759 57.4149 86.3178 57.0832 87.6482L56.0879 91.5185C55.9974 91.7906 56.1482 92.0022 56.4196 92.093L57.1737 92.2744L57.807 89.7647Z" fill="white"/>
<path d="M71.0174 80.2101C67.0965 78.0935 64.5027 77.519 61.4565 77.3074C65.498 78.2145 72.1032 80.3613 75.1495 85.2898C73.7922 82.6895 72.9176 81.6009 71.0174 80.2101Z" fill="white"/>
<path d="M48.1556 75.0397C42.8775 76.4003 37.4485 78.275 31.4767 88.4344C31.4767 88.4344 32.9847 86.4388 35.9405 84.2315C39.8312 78.4866 45.1697 76.0375 48.1556 75.0397Z" fill="white"/>
<path d="M55.1529 72.5906C57.1133 72.1672 61.0644 70.6554 54.7306 65.3943C56.4498 67.1178 57.2038 68.6901 57.0229 70.0507C56.8721 71.3509 55.9069 72.1672 55.1529 72.5906Z" fill="white"/>
<path d="M75.4511 85.9247L75.2701 85.5619C72.2239 80.6636 65.1361 78.3051 61.3962 77.4585L59.7976 77.0352C59.6167 77.005 62.3613 77.1562 62.1803 77.1259C59.2547 76.5817 55.3037 75.856 52.8607 74.3744C51.805 73.7395 51.2018 72.8324 51.1113 71.7136C51.1113 71.5927 51.0812 71.4717 51.0812 71.3205C51.0812 69.7785 51.986 67.8131 53.8258 65.757C53.856 65.7873 53.8861 65.8478 53.9163 65.878C51.6844 68.569 49.9652 72.2881 53.0115 74.1325C57.9578 77.1259 64.3821 76.1584 70.565 79.696C64.0201 74.5861 55.3037 75.4025 53.4036 71.7438C52.3178 69.6273 52.921 67.6317 54.0068 66.0292C54.0369 66.0896 54.0973 66.1804 54.1274 66.2106C55.2735 68.055 55.8466 70.3227 54.3385 72.5602C54.3687 72.5905 54.429 72.6207 54.4592 72.6812C55.4846 72.2276 59.0738 70.232 54.6401 65.6663L54.4592 65.4849C54.4592 65.4849 54.4592 65.4849 54.429 65.4547C54.791 65.0011 55.1529 64.6081 55.5148 64.215C55.1227 64.5476 54.7306 64.9407 54.3687 65.364C54.3385 65.3337 54.3084 65.3035 54.2782 65.2733C55.2434 64.2755 56.4498 63.2777 57.8673 62.3101C56.3895 63.3079 55.1529 64.2452 54.0973 65.1221C53.1019 64.1848 51.805 63.1567 50.0859 62.038C50.0859 62.038 52.1368 63.4591 53.6448 65.5151C43.6918 74.1628 53.2829 77.4283 61.4866 79.0913C71.2587 81.0869 76.4162 88.2529 76.4162 88.2529C76.0543 87.1644 75.9336 86.8318 75.4511 85.9247Z" fill="white"/>
<path d="M50.2065 74.6466C50.1764 74.6163 50.1462 74.5861 50.116 74.5256C49.8747 74.5861 49.6033 74.6466 49.362 74.7071C45.8332 75.7956 40.2535 78.8494 36.6342 83.6873C37.9009 82.8104 39.3788 81.9033 41.0678 81.0869C45.5014 76.0374 49.2112 74.8885 50.2065 74.6466Z" fill="white"/>
<path d="M41.7012 80.845C43.2394 80.1496 44.8982 79.5449 46.7682 79.0913C49.2715 78.4866 51.7447 78.0331 53.8861 77.0957C52.4686 76.491 51.2621 75.7653 50.4478 74.9187C49.8446 75.0094 46.1951 75.9165 41.7012 80.845Z" fill="white"/>
<path d="M57.6864 74.2837C58.742 73.0743 59.1039 71.6229 58.4706 69.9297C58.4706 69.9902 58.5007 70.0809 58.5007 70.1413C58.5007 72.1672 55.9371 72.7719 54.8211 72.9533C55.545 73.4976 56.5403 73.9209 57.6864 74.2837Z" fill="white"/>
</svg>
