<svg width="32" height="32" viewBox="0 0 32 32" fill="none" xmlns="http://www.w3.org/2000/svg">
<g clip-path="url(#clip0_371_27130)">
<mask id="mask0_371_27130" style="mask-type:luminance" maskUnits="userSpaceOnUse" x="-12" y="-13" width="56" height="57">
<path d="M-12 44.0001H44V-12.9054H-12V44.0001Z" fill="white"/>
</mask>
<g mask="url(#mask0_371_27130)">
<path d="M26.3024 5.17952V5.1781C23.1902 4.69725 19.7193 4.42877 16.0589 4.42877C12.3986 4.42877 8.92764 4.69725 5.81551 5.1781V5.1952L5.81577 13.8645C5.81777 21.2063 10.0071 25.3353 15.8924 27.5305L16.0597 27.585L16.0602 27.5852L16.2272 27.5305C22.1126 25.3353 26.3015 21.2063 26.3037 13.8645V5.19702V5.17952H26.3024ZM16.0597 15.605L16.0575 15.6028L16.0708 15.6163L16.0597 15.605Z" fill="#2DAFE5"/>
<path d="M25.5949 5.89807V5.89672C22.6978 5.44913 19.4665 5.19917 16.059 5.19917C12.6515 5.19917 9.4202 5.44913 6.52306 5.89672V5.91267L6.52332 14.1283C6.52512 20.9631 10.4251 24.807 15.9039 26.8505L16.0597 26.9013L16.0601 26.9015L16.2156 26.8505C21.6946 24.807 25.5941 20.9631 25.5961 14.1283V5.91443V5.89807H25.5949Z" fill="#7C2C3B"/>
<path d="M20.7662 23.1304C20.9171 23.284 21.1588 23.1214 21.4066 22.8697C21.6542 22.618 21.8142 22.3725 21.6631 22.2188L12.2067 12.8512C12.0556 12.6975 11.7855 12.7232 11.6036 12.9082C11.4216 13.0931 11.3964 13.3674 11.5474 13.521L20.7662 23.1304Z" fill="#D6A93A"/>
<path d="M12.4998 12.7083L13.2733 11.7838C13.2733 11.7838 13.3463 11.685 13.2327 11.5445C12.9344 11.1755 12.3362 10.6372 12.3362 10.6372C12.2498 10.5714 12.191 10.5874 12.0953 10.6809C11.6217 11.1422 10.4168 12.3255 10.3443 12.4022C10.2531 12.4976 10.2114 12.5619 10.2405 12.7254C10.2698 12.8903 10.3562 13.1644 10.207 13.4303L9.39274 14.7325C9.29077 14.8914 9.26104 15.0319 9.338 15.1082C9.37917 15.1492 9.48261 15.1967 9.69287 15.0484C9.79351 14.9775 10.9006 14.2201 11.2534 13.9252C11.4601 13.7525 11.6178 13.5953 11.6178 13.5953L12.286 12.9295C12.286 12.9295 12.4266 12.7891 12.4998 12.7083Z" fill="#F8D742"/>
<path d="M9.69826 14.9647C9.46705 15.1239 9.46772 15.1472 9.49998 15.1428C9.551 15.1314 9.61452 15.1036 9.69301 15.0481C9.79352 14.9773 10.9007 14.22 11.2535 13.925C11.3992 13.8033 11.5203 13.6894 11.5792 13.6327C11.3971 13.672 11.165 13.762 11.0242 13.8815C10.8352 14.042 10.0291 14.7368 9.69826 14.9647Z" fill="#D6A93A"/>
<path d="M12.4997 12.7083L13.2732 11.7838C13.2732 11.7838 13.3181 11.7223 13.2819 11.6277C13.2819 11.6277 13.2182 11.5545 12.9952 11.8189C12.8077 12.041 12.7191 12.1278 12.5611 12.3197C12.4393 12.4678 12.349 12.7149 12.3126 12.9026C12.3569 12.8581 12.4462 12.7674 12.4997 12.7083Z" fill="#D6A93A"/>
<path d="M11.3736 23.1304C11.2228 23.284 10.9811 23.1214 10.7332 22.8697C10.4856 22.618 10.3257 22.3725 10.4767 22.2188L19.9368 12.8476C20.0878 12.694 20.3578 12.7196 20.5399 12.9045C20.7219 13.0895 20.747 13.3639 20.5959 13.5173L11.3736 23.1304Z" fill="#D6A93A"/>
<path d="M11.2817 23.0383L20.1081 13.8275C20.2592 13.674 20.2341 13.3996 20.0521 13.2148C19.9569 13.118 19.8378 13.0653 19.724 13.0586L10.4767 22.2192C10.3326 22.3657 10.4716 22.5959 10.6997 22.8353C10.9266 23.053 11.1427 23.1799 11.2817 23.0383Z" fill="#F8D742"/>
<path d="M19.6436 12.7046L18.8702 11.7801C18.8702 11.7801 18.7972 11.6812 18.9106 11.5408C19.209 11.1718 19.8072 10.6335 19.8072 10.6335C19.8936 10.5676 19.9525 10.5837 20.0481 10.6771C20.5217 11.1385 21.7266 12.3218 21.7991 12.3985C21.8903 12.4939 21.9321 12.5582 21.9028 12.7217C21.8736 12.8865 21.7872 13.1606 21.9364 13.4266L22.7507 14.7288C22.8526 14.8877 22.8824 15.0282 22.8055 15.1045C22.7642 15.1455 22.6609 15.1929 22.4505 15.0446C22.35 14.9738 21.2429 14.2164 20.89 13.9215C20.6833 13.7488 20.5256 13.5916 20.5256 13.5916L19.8575 12.9257C19.8575 12.9257 19.7168 12.7854 19.6436 12.7046Z" fill="#F8D742"/>
<path d="M22.4452 14.9612C22.6763 15.1204 22.6757 15.1437 22.6434 15.1393C22.5924 15.1279 22.5288 15.1 22.4504 15.0446C22.3499 14.9738 21.2427 14.2164 20.8899 13.9215C20.7442 13.7997 20.6231 13.6859 20.5643 13.6291C20.7463 13.6684 20.9783 13.7584 21.1192 13.8779C21.3081 14.0384 22.1142 14.7333 22.4452 14.9612Z" fill="#D6A93A"/>
<path d="M19.6434 12.7046L18.87 11.7801C18.87 11.7801 18.8251 11.7186 18.8613 11.624C18.8613 11.624 18.925 11.5509 19.1479 11.8152C19.3354 12.0374 19.4241 12.1241 19.582 12.3161C19.7039 12.4642 19.7942 12.7113 19.8307 12.899C19.7863 12.8544 19.697 12.7637 19.6434 12.7046Z" fill="#D6A93A"/>
<path d="M21.1332 12.9725C21.0603 13.0465 20.9422 13.0465 20.8693 12.9725L20.4731 12.5697C20.4002 12.4958 20.4002 12.3757 20.4732 12.3018C20.5461 12.2276 20.6641 12.2276 20.737 12.3016L21.1332 12.7043C21.2062 12.7782 21.2062 12.8984 21.1332 12.9725Z" fill="#D6A93A"/>
<path d="M20.5263 12.5698C20.4535 12.4959 20.4535 12.3758 20.5264 12.3018C20.556 12.2716 20.5932 12.254 20.6317 12.2484C20.5755 12.2402 20.5163 12.2578 20.4732 12.3018C20.4002 12.3758 20.4002 12.4959 20.4731 12.5698L20.8693 12.9726C20.9126 13.0166 20.9716 13.0342 21.0278 13.026C20.9893 13.0203 20.9522 13.0027 20.9225 12.9726L20.5263 12.5698Z" fill="#CDA938"/>
<path d="M20.7006 12.7175C20.6927 12.7254 20.68 12.7255 20.6721 12.7175C20.6642 12.7094 20.6642 12.6965 20.6721 12.6885L20.8537 12.5039C20.8617 12.4958 20.8744 12.4957 20.8822 12.5037C20.8901 12.5118 20.8901 12.5247 20.8822 12.5328L20.7006 12.7175Z" fill="#D6A93A"/>
<path d="M20.7602 12.7789C20.7526 12.7867 20.7403 12.7868 20.7325 12.7789C20.7248 12.7712 20.7249 12.7585 20.7325 12.7508C20.7401 12.7431 20.7526 12.743 20.7602 12.7508C20.7679 12.7586 20.7679 12.7712 20.7602 12.7789Z" fill="#D6A93A"/>
<path d="M20.6353 12.6523C20.6278 12.6599 20.6153 12.66 20.6077 12.6523C20.6001 12.6445 20.6001 12.6318 20.6076 12.6242C20.6153 12.6164 20.6278 12.6164 20.6353 12.6242C20.643 12.6318 20.643 12.6445 20.6353 12.6523Z" fill="#D6A93A"/>
<path d="M20.7823 12.4022L20.7201 12.3389C20.7121 12.3309 20.6993 12.331 20.6915 12.339C20.6835 12.3471 20.6835 12.36 20.6915 12.368L20.7014 12.3781C20.705 12.3819 20.7051 12.3877 20.7018 12.3917L20.5409 12.5552C20.533 12.5633 20.533 12.5763 20.5409 12.5842C20.5488 12.5922 20.5616 12.5922 20.5695 12.5843L20.7309 12.4202C20.7348 12.4174 20.7401 12.4177 20.7436 12.4211L20.7536 12.4313C20.7616 12.4393 20.7745 12.4392 20.7823 12.4313C20.7902 12.4232 20.7903 12.4104 20.7823 12.4022Z" fill="#D6A93A"/>
<path d="M21.1149 12.743C21.1085 12.7338 21.0957 12.7317 21.0866 12.7384L20.9813 12.816C20.977 12.8194 20.9708 12.8191 20.9668 12.8149C20.9634 12.8115 20.9627 12.8062 20.9648 12.802L20.9863 12.7581C20.9899 12.7509 20.9887 12.7423 20.9841 12.7363C20.9839 12.7362 20.9839 12.7361 20.9839 12.7361C20.9835 12.7357 20.9833 12.7352 20.9829 12.735C20.9827 12.7348 20.9825 12.7345 20.9824 12.7343C20.9821 12.7341 20.9819 12.7339 20.9818 12.7337C20.9815 12.7336 20.9812 12.7332 20.9807 12.7329C20.9807 12.7329 20.9805 12.7328 20.9805 12.7327C20.9745 12.728 20.9662 12.7268 20.959 12.7305L20.9159 12.7522C20.9117 12.7544 20.9064 12.7537 20.903 12.7502C20.8991 12.7461 20.8988 12.7398 20.902 12.7355L20.9784 12.6284C20.985 12.6191 20.9829 12.6064 20.974 12.5997C20.9648 12.593 20.9523 12.5951 20.9458 12.6043L20.795 12.8157C20.7892 12.8238 20.7902 12.8348 20.7967 12.8418C20.797 12.842 20.7973 12.8424 20.7976 12.8428C20.7976 12.8428 20.7978 12.8429 20.798 12.8429C20.8039 12.8485 20.8127 12.8502 20.8205 12.8462L20.8945 12.8088C20.8986 12.8069 20.9035 12.8076 20.9068 12.8111C20.9104 12.8147 20.911 12.8201 20.9086 12.8244L20.8723 12.8989C20.8684 12.9067 20.8701 12.9157 20.8754 12.9219C20.8755 12.922 20.8758 12.9222 20.8758 12.9222C20.876 12.9225 20.8764 12.9227 20.8766 12.923C20.8835 12.9298 20.8944 12.9307 20.9025 12.9247L21.1104 12.7715C21.1194 12.765 21.1215 12.7521 21.1149 12.743Z" fill="#D6A93A"/>
<path d="M12.4728 13.1152C12.358 13.1127 12.2339 13.1623 12.1367 13.2611C11.9675 13.433 11.9441 13.6881 12.0845 13.8308L15.8634 17.7657L16.5064 17.1123L12.4728 13.1152Z" fill="#F8D742"/>
<path d="M21.6629 22.2191L16.8959 17.498C16.821 17.5319 16.7509 17.5799 16.6895 17.6423C16.4414 17.8944 16.422 18.2909 16.6311 18.5657L20.8949 23.0082C21.0352 23.1511 21.2598 22.9998 21.4903 22.766C21.5292 22.7263 21.5657 22.687 21.5989 22.6481C21.7217 22.4796 21.7688 22.3268 21.6629 22.2191Z" fill="#F8D742"/>
<path d="M20.692 12.7087C20.6842 12.7166 20.6715 12.7167 20.6635 12.7087C20.6556 12.7006 20.6556 12.6876 20.6635 12.6797L20.8452 12.4951C20.8531 12.487 20.8658 12.487 20.8738 12.4949C20.8816 12.503 20.8816 12.5159 20.8738 12.524L20.692 12.7087Z" fill="#F8D742"/>
<path d="M20.7514 12.7701C20.7438 12.7778 20.7314 12.778 20.7237 12.7701C20.7161 12.7624 20.7162 12.7497 20.7237 12.7419C20.7314 12.7343 20.7438 12.7342 20.7514 12.7419C20.7591 12.7498 20.7591 12.7624 20.7514 12.7701Z" fill="#F8D742"/>
<path d="M20.6266 12.6435C20.6191 12.6511 20.6066 12.6512 20.599 12.6435C20.5914 12.6357 20.5915 12.6231 20.599 12.6153C20.6066 12.6076 20.6191 12.6076 20.6266 12.6153C20.6343 12.6231 20.6343 12.6357 20.6266 12.6435Z" fill="#F8D742"/>
<path d="M20.7738 12.3933L20.7116 12.33C20.7037 12.3221 20.6908 12.3222 20.683 12.3301C20.675 12.3383 20.675 12.3511 20.683 12.3591L20.6929 12.3693C20.6965 12.3731 20.6966 12.3789 20.6933 12.3829L20.5324 12.5464C20.5246 12.5544 20.5246 12.5675 20.5324 12.5754C20.5403 12.5833 20.5531 12.5833 20.561 12.5754L20.7224 12.4113C20.7263 12.4086 20.7316 12.4088 20.7352 12.4122L20.7452 12.4224C20.7531 12.4305 20.766 12.4303 20.7738 12.4224C20.7817 12.4144 20.7818 12.4015 20.7738 12.3933Z" fill="#F8D742"/>
<path d="M21.1062 12.7339C21.0998 12.7248 21.0871 12.7227 21.078 12.7294L20.9726 12.8069C20.9683 12.8104 20.9621 12.81 20.9582 12.8059C20.9547 12.8025 20.954 12.7972 20.9561 12.793L20.9776 12.7491C20.9812 12.7418 20.98 12.7333 20.9754 12.7273C20.9753 12.7272 20.9752 12.727 20.9752 12.727C20.9748 12.7266 20.9746 12.7262 20.9742 12.726C20.9741 12.7257 20.9739 12.7255 20.9737 12.7253C20.9734 12.7252 20.9733 12.725 20.9731 12.7247C20.9728 12.7245 20.9725 12.7241 20.972 12.7239C20.972 12.7239 20.9718 12.7238 20.9718 12.7237C20.9658 12.719 20.9575 12.7178 20.9503 12.7214L20.9072 12.7433C20.903 12.7455 20.8978 12.7447 20.8944 12.7412C20.8905 12.7371 20.8902 12.7308 20.8933 12.7266L20.9697 12.6194C20.9763 12.6102 20.9742 12.5973 20.9653 12.5906C20.9562 12.584 20.9436 12.586 20.9372 12.5952L20.7863 12.8067C20.7805 12.8148 20.7815 12.8258 20.788 12.8328C20.7883 12.833 20.7886 12.8334 20.7889 12.8338C20.7889 12.8338 20.7891 12.8338 20.7893 12.834C20.7952 12.8396 20.8041 12.8411 20.8118 12.8372L20.8858 12.7998C20.8899 12.798 20.8949 12.7987 20.8982 12.8021C20.9017 12.8057 20.9023 12.8111 20.9 12.8155L20.8636 12.8899C20.8598 12.8976 20.8614 12.9067 20.8668 12.9129C20.8669 12.9131 20.8671 12.9131 20.8671 12.9133C20.8673 12.9135 20.8677 12.9137 20.8679 12.914C20.8749 12.9208 20.8858 12.9217 20.8938 12.9158L21.1018 12.7626C21.1108 12.756 21.1128 12.7431 21.1062 12.7339Z" fill="#F8D742"/>
<path d="M11.67 12.3052C11.7428 12.3793 11.7428 12.4993 11.67 12.5734L11.2737 12.976C11.2009 13.0501 11.0827 13.0501 11.0099 12.9759C10.9369 12.9019 10.9369 12.7819 11.0098 12.7078L11.406 12.3052C11.4788 12.2311 11.597 12.2311 11.67 12.3052Z" fill="#D6A93A"/>
<path d="M11.0432 12.7417L11.4395 12.3391C11.5067 12.2708 11.6123 12.2656 11.6856 12.3234C11.6809 12.3171 11.6759 12.311 11.6702 12.3052C11.5972 12.2312 11.4791 12.2312 11.4062 12.3052L11.01 12.7079C10.9371 12.782 10.9371 12.902 11.0101 12.9761C11.0157 12.9818 11.0217 12.9868 11.0278 12.9917C10.9709 12.9173 10.976 12.81 11.0432 12.7417Z" fill="#CDA938"/>
<path d="M11.4105 12.7741C11.4184 12.7821 11.4184 12.7951 11.4105 12.8031C11.4027 12.8111 11.3898 12.8111 11.3819 12.803L11.2002 12.6184C11.1923 12.6104 11.1923 12.5974 11.2002 12.5894C11.2081 12.5814 11.2209 12.5814 11.2288 12.5894L11.4105 12.7741Z" fill="#D6A93A"/>
<path d="M11.4705 12.7136C11.478 12.7212 11.4782 12.7339 11.4705 12.7417C11.4628 12.7494 11.4503 12.7493 11.4429 12.7417C11.4352 12.7339 11.4352 12.7213 11.4428 12.7136C11.4505 12.7057 11.4629 12.7058 11.4705 12.7136Z" fill="#D6A93A"/>
<path d="M11.3457 12.8404C11.3532 12.8481 11.3534 12.8607 11.3457 12.8684C11.3381 12.8762 11.3256 12.8762 11.3181 12.8686C11.3105 12.8607 11.3105 12.8481 11.318 12.8404C11.3257 12.8325 11.3381 12.8327 11.3457 12.8404Z" fill="#D6A93A"/>
<path d="M11.1002 12.6911L11.0379 12.7542C11.03 12.7624 11.03 12.7753 11.038 12.7833C11.0459 12.7913 11.0586 12.7914 11.0665 12.7833L11.0765 12.7732C11.0802 12.7696 11.086 12.7695 11.09 12.7728L11.2508 12.9363C11.2587 12.9443 11.2715 12.9443 11.2793 12.9363C11.2872 12.9283 11.2873 12.9153 11.2794 12.9072L11.118 12.7432C11.1152 12.7393 11.1154 12.7338 11.1188 12.7303L11.1288 12.7201C11.1367 12.712 11.1367 12.699 11.1288 12.6911C11.121 12.6829 11.1082 12.6829 11.1002 12.6911Z" fill="#D6A93A"/>
<path d="M11.4356 12.3529C11.4265 12.3595 11.4245 12.3725 11.4311 12.3816L11.5075 12.4886C11.5107 12.4931 11.5104 12.4995 11.5065 12.5034C11.503 12.5069 11.4978 12.5075 11.4937 12.5054L11.4505 12.4837C11.4432 12.4799 11.435 12.4812 11.4291 12.4858C11.4289 12.4859 11.4288 12.4861 11.4287 12.4862C11.4284 12.4864 11.428 12.4866 11.4277 12.487C11.4275 12.4872 11.4273 12.4874 11.4271 12.4876C11.4269 12.4878 11.4267 12.488 11.4265 12.4882C11.4262 12.4885 11.4259 12.4889 11.4256 12.4893C11.4256 12.4893 11.4255 12.4895 11.4254 12.4896C11.4208 12.4956 11.4197 12.5039 11.4233 12.5113L11.4447 12.5552C11.4468 12.5594 11.4461 12.5647 11.4426 12.5682C11.4387 12.5723 11.4325 12.5725 11.4282 12.5693L11.3228 12.4916C11.3137 12.4849 11.3011 12.487 11.2946 12.496C11.288 12.5053 11.2901 12.5181 11.2991 12.5248L11.5071 12.6781C11.5151 12.6839 11.5259 12.683 11.5329 12.6763C11.5331 12.676 11.5335 12.6757 11.5336 12.6754C11.5336 12.6754 11.5339 12.6751 11.5341 12.6749C11.5394 12.669 11.541 12.6599 11.5372 12.6521L11.5004 12.5769C11.4986 12.5727 11.4992 12.5677 11.5026 12.5644C11.5062 12.5607 11.5116 12.5601 11.5157 12.5625L11.589 12.5993C11.5967 12.6033 11.6056 12.6017 11.6117 12.5963C11.6117 12.5961 11.6118 12.596 11.6119 12.5959C11.6123 12.5956 11.6125 12.5954 11.6128 12.595C11.6194 12.588 11.6204 12.5769 11.6146 12.5689L11.4637 12.3574C11.4573 12.3483 11.4446 12.3463 11.4356 12.3529Z" fill="#D6A93A"/>
<path d="M11.4105 12.7539C11.4184 12.7619 11.4184 12.7748 11.4105 12.783C11.4027 12.7909 11.3898 12.7909 11.3819 12.7828L11.2002 12.5983C11.1923 12.5902 11.1923 12.5771 11.2002 12.5692C11.2081 12.5613 11.2209 12.5613 11.2288 12.5692L11.4105 12.7539Z" fill="#F8D742"/>
<path d="M11.4705 12.6933C11.478 12.701 11.4782 12.7137 11.4705 12.7215C11.4628 12.7292 11.4503 12.7291 11.4429 12.7215C11.4352 12.7137 11.4352 12.7011 11.4428 12.6933C11.4505 12.6855 11.4629 12.6856 11.4705 12.6933Z" fill="#F8D742"/>
<path d="M11.3457 12.82C11.3532 12.8276 11.3534 12.8404 11.3457 12.8481C11.3381 12.8559 11.3256 12.8557 11.3181 12.8482C11.3105 12.8404 11.3105 12.8277 11.318 12.82C11.3257 12.8121 11.3381 12.8123 11.3457 12.82Z" fill="#F8D742"/>
<path d="M11.1002 12.6707L11.0379 12.7339C11.03 12.742 11.03 12.755 11.038 12.763C11.0459 12.771 11.0586 12.771 11.0665 12.763L11.0765 12.7529C11.0802 12.7493 11.086 12.7492 11.09 12.7525L11.2508 12.916C11.2587 12.924 11.2715 12.924 11.2793 12.916C11.2872 12.908 11.2873 12.895 11.2794 12.887L11.118 12.7229C11.1152 12.7191 11.1154 12.7136 11.1188 12.71L11.1288 12.6999C11.1367 12.6917 11.1367 12.6787 11.1288 12.6707C11.121 12.6626 11.1082 12.6626 11.1002 12.6707Z" fill="#F8D742"/>
<path d="M11.4356 12.3326C11.4265 12.3392 11.4245 12.3522 11.4311 12.3612L11.5075 12.4683C11.5107 12.4728 11.5104 12.4791 11.5065 12.4831C11.503 12.4866 11.4978 12.4872 11.4937 12.4851L11.4505 12.4633C11.4432 12.4596 11.435 12.4609 11.4291 12.4655C11.4289 12.4656 11.4288 12.4657 11.4287 12.4658C11.4284 12.466 11.428 12.4663 11.4277 12.4667C11.4275 12.4669 11.4273 12.467 11.4271 12.4672C11.4269 12.4674 11.4267 12.4676 11.4265 12.4679C11.4262 12.4682 11.4259 12.4686 11.4256 12.4689C11.4256 12.4689 11.4255 12.4692 11.4254 12.4693C11.4208 12.4753 11.4197 12.4836 11.4233 12.4909L11.4447 12.5348C11.4468 12.5391 11.4461 12.5443 11.4426 12.5479C11.4387 12.5519 11.4325 12.5521 11.4282 12.5491L11.3228 12.4713C11.3137 12.4646 11.3011 12.4667 11.2946 12.4757C11.288 12.485 11.2901 12.4978 11.2991 12.5044L11.5071 12.6577C11.5151 12.6636 11.5259 12.6626 11.5329 12.656C11.5331 12.6557 11.5335 12.6553 11.5336 12.6551C11.5338 12.655 11.5339 12.6549 11.5341 12.6547C11.5394 12.6487 11.541 12.6396 11.5372 12.6318L11.5004 12.5566C11.4986 12.5524 11.4992 12.5474 11.5026 12.5441C11.5062 12.5404 11.5116 12.5397 11.5157 12.5421L11.589 12.579C11.5967 12.583 11.6056 12.5814 11.6117 12.5759C11.6117 12.5758 11.6118 12.5756 11.6119 12.5756C11.6123 12.5753 11.6125 12.575 11.6128 12.5746C11.6194 12.5677 11.6204 12.5566 11.6146 12.5485L11.4637 12.3371C11.4573 12.328 11.4446 12.326 11.4356 12.3326Z" fill="#F8D742"/>
<path d="M12.3409 10.0002C11.9835 10.0346 11.6434 9.79099 11.6334 9.4093C11.6226 9.05782 11.6116 8.7064 11.6008 8.35499C11.763 8.34208 11.8443 8.33593 12.0066 8.32424C12.0165 8.67572 12.0264 9.0272 12.0362 9.37868C12.0411 9.55361 12.1563 9.63864 12.3288 9.62708C12.3528 9.62546 12.3647 9.62465 12.3887 9.62309C12.5612 9.61174 12.6717 9.51177 12.6675 9.33677C12.6592 8.98522 12.6508 8.63374 12.6425 8.28226C12.805 8.27246 12.8863 8.26786 13.0489 8.25928C13.0562 8.61076 13.0636 8.96231 13.0709 9.31386C13.0768 9.69744 12.7648 9.9789 12.4006 9.9962C12.3767 9.99783 12.3647 9.99857 12.3409 10.0002Z" fill="white"/>
<path d="M13.3594 8.2466C13.548 8.23747 13.6424 8.23335 13.8312 8.22585C14.0433 8.5726 14.2538 8.92029 14.463 9.26887C14.4648 9.26887 14.4658 9.2688 14.4676 9.26873C14.4642 8.91408 14.4607 8.55935 14.4573 8.20462C14.62 8.20003 14.7014 8.198 14.8642 8.19462C14.8689 8.75084 14.8735 9.30699 14.8781 9.86321C14.6923 9.86706 14.5995 9.86943 14.4138 9.8749C14.2046 9.52734 13.994 9.18066 13.7818 8.83492C13.78 8.83499 13.779 8.83506 13.7773 8.83513C13.7823 9.18904 13.7874 9.54296 13.7925 9.89687C13.6318 9.90349 13.5514 9.90708 13.3907 9.91492C13.3802 9.35883 13.3698 8.80268 13.3594 8.2466Z" fill="white"/>
<path d="M15.1633 8.18993C15.3261 8.1873 15.4075 8.18628 15.5703 8.18486C15.5722 8.74108 15.5741 9.2973 15.576 9.85352C15.4151 9.85487 15.3346 9.85588 15.1737 9.85852C15.1703 9.3023 15.1668 8.74615 15.1633 8.18993Z" fill="white"/>
<path d="M16.3892 8.53384C16.1797 8.53269 16.075 8.53262 15.8656 8.53343C15.8654 8.39345 15.8652 8.32342 15.865 8.18337C16.3508 8.18303 16.8362 8.18749 17.3218 8.19682C17.3206 8.3368 17.32 8.40683 17.3187 8.54688C17.1094 8.54215 17.0047 8.54032 16.7952 8.53755C16.793 8.97711 16.7907 9.41659 16.7885 9.85608C16.6276 9.85398 16.5472 9.85324 16.3862 9.85236C16.3872 9.41288 16.3882 8.97332 16.3892 8.53384Z" fill="white"/>
<path d="M17.6165 8.20311C17.9839 8.21433 18.351 8.22791 18.7183 8.24407C18.7157 8.38405 18.7144 8.45408 18.7118 8.59406C18.4346 8.58095 18.296 8.57527 18.0186 8.56567C18.0169 8.687 18.0161 8.7477 18.0145 8.86903C18.2403 8.87687 18.3533 8.88133 18.579 8.89154C18.5766 9.03152 18.5754 9.10155 18.5729 9.24153C18.3477 9.23139 18.2351 9.22686 18.0097 9.21909C18.008 9.34508 18.0072 9.40808 18.0055 9.53407C18.2939 9.54407 18.438 9.55009 18.7263 9.56395C18.7237 9.70393 18.7224 9.77396 18.7198 9.91394C18.3461 9.89725 17.9725 9.88312 17.5986 9.87163C17.6046 9.31548 17.6105 8.75926 17.6165 8.20311Z" fill="white"/>
<path d="M19.0273 8.2562C19.2875 8.26965 19.4175 8.27715 19.6775 8.29371C20.1496 8.31162 20.5207 8.70393 20.5078 9.18532C20.4951 9.65766 20.0972 10.007 19.6358 9.96176C19.3788 9.94533 19.2503 9.93783 18.9931 9.92445C19.0045 9.36836 19.0159 8.81228 19.0273 8.2562ZM19.6285 9.61082C19.9068 9.62853 20.0815 9.47327 20.0904 9.15369C20.0993 8.83641 19.9257 8.65999 19.6526 8.64262C19.5618 8.63688 19.5163 8.63411 19.4255 8.6287C19.418 8.95145 19.4105 9.27421 19.403 9.59696C19.4932 9.6023 19.5383 9.60507 19.6285 9.61082Z" fill="white"/>
<path d="M8.19708 6.30431C8.40861 6.27714 8.51444 6.26403 8.72616 6.23882C8.82114 6.7125 8.91606 7.18619 9.01105 7.65995C9.01331 7.65968 9.01451 7.65954 9.01677 7.65927C9.12546 7.16233 9.23415 6.66539 9.34297 6.16845C9.52536 6.14858 9.61662 6.13905 9.79908 6.1206C9.90511 6.59503 10.0111 7.06939 10.117 7.54382C10.1193 7.54355 10.1204 7.54349 10.1227 7.54322C10.2255 7.04885 10.3283 6.55447 10.4312 6.06017C10.6399 6.04131 10.7444 6.03232 10.9532 6.01536C10.779 6.72913 10.605 7.44304 10.4312 8.15696C10.1863 8.17906 10.0639 8.19075 9.81917 8.21536C9.73595 7.8144 9.65281 7.41344 9.56959 7.01241C9.56727 7.01268 9.56614 7.01282 9.56381 7.01302C9.48059 7.43149 9.39745 7.84988 9.31437 8.26835C9.06746 8.29539 8.94407 8.30951 8.69742 8.33905C8.53073 7.66076 8.36391 6.98254 8.19708 6.30431Z" fill="white"/>
<path d="M21.4875 6.04505C21.7147 6.06492 21.8283 6.07539 22.0554 6.09743C22.2054 6.54746 22.3553 6.99756 22.505 7.44779C22.5074 7.44799 22.5085 7.44813 22.5108 7.44833C22.6605 7.0296 22.8103 6.61086 22.9602 6.19219C23.1847 6.21741 23.2969 6.23059 23.5213 6.25796C23.6449 6.97235 23.7685 7.68673 23.892 8.40118C23.6838 8.37442 23.5797 8.36151 23.3715 8.33663C23.3105 7.87011 23.2495 7.40359 23.1885 6.937C23.1862 6.93673 23.185 6.93659 23.1827 6.93632C23.0351 7.37905 22.8876 7.82185 22.7402 8.26465C22.5578 8.24484 22.4667 8.23531 22.2841 8.21686C22.1337 7.74283 21.9832 7.26887 21.8325 6.79492C21.8302 6.79471 21.829 6.79465 21.8268 6.79438C21.7733 7.24887 21.7199 7.70329 21.6665 8.15778C21.4543 8.13859 21.3482 8.12946 21.1358 8.11216C21.253 7.42312 21.3702 6.73408 21.4875 6.04505Z" fill="white"/>
<path d="M11.1548 6.00331C11.619 5.96789 12.0835 5.93667 12.5484 5.90976C12.5383 6.08625 12.5333 6.17452 12.5232 6.35101C12.2353 6.36784 11.9475 6.38602 11.6598 6.40549C11.6598 6.55804 11.6598 6.63429 11.6598 6.78678C11.9415 6.7669 12.0825 6.75785 12.3644 6.74135V7.18125C12.0825 7.19774 11.9415 7.2068 11.6598 7.22667C11.6598 7.38497 11.6598 7.46419 11.6598 7.62256C11.9609 7.60133 12.2623 7.58241 12.5637 7.56585C12.5637 7.74179 12.5637 7.82973 12.5637 8.00567C12.0937 8.03284 11.6242 8.06427 11.1548 8.1001C11.1548 7.40119 11.1548 6.70222 11.1548 6.00331Z" fill="white"/>
<path d="M14.924 6.26706C14.663 6.27158 14.5325 6.27449 14.2715 6.28186C14.2715 6.10592 14.2715 6.01791 14.2715 5.84197C14.8752 5.82642 15.4787 5.81858 16.0826 5.81838C16.0826 5.99439 16.0826 6.08233 16.0826 6.25834C15.8216 6.25773 15.691 6.2582 15.43 6.2605C15.43 6.8128 15.43 7.3651 15.43 7.91739C15.2276 7.91915 15.1264 7.92044 14.924 7.92395C14.924 7.37165 14.924 6.81935 14.924 6.26706Z" fill="white"/>
<path d="M16.923 5.8228C17.1254 5.8253 17.2265 5.82699 17.429 5.83118V6.66987C17.7214 6.67676 18.0136 6.68494 18.306 6.6946V5.85592C18.5083 5.86308 18.6095 5.86707 18.8118 5.87599V7.97278C18.6095 7.96392 18.5083 7.95987 18.306 7.9527V7.13159C18.0136 7.12192 17.7214 7.11368 17.429 7.10685V7.92796C17.2265 7.92377 17.1254 7.92208 16.923 7.91958C16.923 7.22068 16.923 6.5217 16.923 5.8228Z" fill="white"/>
<path d="M20.3257 7.61714C20.0482 7.59794 19.9094 7.58922 19.6317 7.57327C19.582 7.74638 19.5572 7.83296 19.5075 8.00613C19.2995 7.99464 19.1955 7.98937 18.9874 7.97971C19.1962 7.29148 19.4051 6.60339 19.6142 5.91536C19.887 5.93091 20.0233 5.93949 20.2959 5.95815C20.5217 6.67375 20.7471 7.38942 20.9721 8.10522C20.7644 8.0886 20.6605 8.08076 20.4527 8.06595C20.4019 7.88636 20.3765 7.7966 20.3257 7.61714ZM19.9773 6.41521C19.9015 6.66665 19.8258 6.9181 19.7501 7.16961C19.933 7.18049 20.0244 7.18624 20.2074 7.19854C20.1326 6.9375 20.0579 6.67652 19.9831 6.41555C19.9807 6.41541 19.9796 6.41535 19.9773 6.41521Z" fill="white"/>
<path d="M13.5048 5.83023C13.1281 5.84382 12.701 6.07958 12.6982 6.51001C12.6939 7.16707 13.6649 6.99073 13.7248 7.34978C13.7415 7.44914 13.6313 7.53255 13.4919 7.53234C13.2322 7.53207 13.0274 7.48064 12.8152 7.36999C12.8049 7.55107 12.7964 7.6463 12.7895 7.81069C13.0085 7.95987 13.2348 7.99197 13.4793 7.99846C13.8425 8.00799 14.2793 7.75209 14.283 7.32051C14.2885 6.66851 13.3259 6.81607 13.2561 6.47702C13.2382 6.39017 13.3426 6.30466 13.4984 6.2956C13.7365 6.28182 13.9077 6.34177 14.0381 6.39625C14.0485 6.18773 14.0516 6.15792 14.0632 5.95494C13.9485 5.88809 13.7679 5.8207 13.5048 5.83023Z" fill="white"/>
</g>
<path d="M13.0722 23.1533L13.318 23.2624L12.9714 24.0687L13.3815 24.2508L13.2895 24.4649L12.6335 24.1738L13.0722 23.1533Z" fill="white"/>
<mask id="mask1_371_27130" style="mask-type:luminance" maskUnits="userSpaceOnUse" x="-12" y="-13" width="56" height="57">
<path d="M-12 44.0001H44V-12.9054H-12V44.0001Z" fill="white"/>
</mask>
<g mask="url(#mask1_371_27130)">
<path d="M14.2857 23.5937C14.6049 23.6828 14.7734 23.9882 14.6902 24.2961C14.605 24.6115 14.3049 24.7926 13.9857 24.7034C13.6665 24.6143 13.4995 24.3029 13.5848 23.9876C13.668 23.6797 13.9665 23.5046 14.2857 23.5937ZM14.0506 24.4632C14.2088 24.5073 14.3732 24.4047 14.4227 24.2214C14.4702 24.0457 14.3789 23.8781 14.2208 23.834C14.0626 23.7898 13.8998 23.8865 13.8522 24.0622C13.8028 24.2454 13.8925 24.4191 14.0506 24.4632Z" fill="white"/>
<path d="M14.9469 23.7771L15.2169 23.805L15.467 24.3538C15.5024 24.4311 15.5395 24.5524 15.5395 24.5524L15.5425 24.5527C15.5425 24.5527 15.5423 24.4321 15.5493 24.3623L15.6011 23.8448L15.868 23.8724L15.757 24.9803L15.4886 24.9526L15.2368 24.4052C15.2014 24.3279 15.1643 24.2067 15.1643 24.2067L15.1613 24.2063C15.1613 24.2063 15.1615 24.3269 15.1545 24.3967L15.1028 24.9127L14.8359 24.885L14.9469 23.7771Z" fill="white"/>
<path d="M16.0571 23.8757L16.4459 23.8544C16.7903 23.8356 17.0215 24.0272 17.0401 24.3772C17.0586 24.7272 16.8492 24.9476 16.5048 24.9665L16.1161 24.9877L16.0571 23.8757ZM16.4818 24.7338C16.667 24.7236 16.7743 24.6055 16.763 24.3924C16.7518 24.1809 16.6282 24.0784 16.4475 24.0883L16.3374 24.0944L16.3716 24.7398L16.4818 24.7338Z" fill="white"/>
<path d="M17.6128 23.679C17.9362 23.6068 18.2254 23.7973 18.2929 24.1091C18.362 24.4286 18.1795 24.7309 17.8561 24.8032C17.5328 24.8755 17.2423 24.6789 17.1731 24.3594C17.1056 24.0476 17.2895 23.7513 17.6128 23.679ZM17.8035 24.5598C17.9636 24.524 18.0621 24.3553 18.0219 24.1697C17.9834 23.9917 17.8257 23.8866 17.6655 23.9224C17.5053 23.9582 17.4056 24.1209 17.4441 24.2989C17.4842 24.4844 17.6433 24.5956 17.8035 24.5598Z" fill="white"/>
<path d="M18.2814 23.5295L18.5329 23.4263L19.0058 23.7933C19.0726 23.8449 19.161 23.9345 19.161 23.9345L19.1638 23.9333C19.1638 23.9333 19.1084 23.8268 19.0826 23.7618L18.8911 23.2795L19.1397 23.1775L19.5497 24.2101L19.2996 24.3126L18.8259 23.9477C18.7591 23.8962 18.6706 23.8065 18.6706 23.8065L18.6678 23.8076C18.6678 23.8076 18.7233 23.9141 18.7491 23.9792L18.9401 24.46L18.6914 24.562L18.2814 23.5295Z" fill="white"/>
</g>
</g>
<defs>
<clipPath id="clip0_371_27130">
<rect width="32" height="32" fill="white"/>
</clipPath>
</defs>
</svg>
