<svg width="32" height="32" viewBox="0 0 32 32" fill="none" xmlns="http://www.w3.org/2000/svg">
<path d="M9.00013 4L2.39999 15.8805L9.00013 27.76H22.2004L28.8 15.8805L22.2004 4H9.00013Z" fill="white"/>
<path d="M22.0582 4.25519C22.1281 4.38075 28.4468 15.7553 28.5167 15.8805C28.4469 16.0056 22.1281 27.3796 22.0582 27.5052H9.14175C9.07232 27.3795 2.75311 16.0055 2.68375 15.8804C2.75311 15.7553 9.07232 4.38075 9.14175 4.25519H22.0582Z" fill="black"/>
<path d="M10.2311 6.21698L4.86276 15.8804L10.2311 25.5429H20.968L26.3372 15.8804L20.968 6.21698H10.2311Z" fill="white"/>
<path d="M20.7792 6.55731C20.8712 6.72296 25.8671 15.7153 25.9587 15.8804C25.8671 16.0461 20.8712 25.0369 20.7792 25.2026H10.4199C10.3284 25.0369 5.33248 16.0461 5.24052 15.8804C5.33254 15.7152 10.3284 6.72296 10.4199 6.55731H20.7792Z" fill="#F6A800"/>
<path d="M14.0909 11.4607H17.098L18.7061 7.27032L23.0593 16.4548L18.352 19.3445L16.8431 24.4898H14.3568L12.8527 19.3365L8.14059 16.4548L12.4866 7.27032L14.0909 11.4607Z" fill="black"/>
<path d="M18.7098 14.8558V17.3276H16.486L18.7098 14.8558Z" fill="white"/>
<path d="M12.4902 17.3276V14.8558L14.7102 17.3276H12.4902Z" fill="white"/>
</svg>
