<svg width="18" height="16" viewBox="0 0 18 16" fill="none" xmlns="http://www.w3.org/2000/svg">
<mask id="path-1-inside-1_1306_50859" fill="white">
<path fill-rule="evenodd" clip-rule="evenodd" d="M12.6267 -0.391814C12.7887 0.268665 12.8746 0.959028 12.8746 1.66945C12.8746 6.43233 9.01349 10.2934 4.25061 10.2934C2.9064 10.2934 1.63402 9.98587 0.5 9.43731C1.424 13.2048 4.82361 16 8.87607 16C13.6389 16 17.5 12.1389 17.5 7.37604C17.5 3.95737 15.5108 1.00331 12.6267 -0.391814Z"/>
</mask>
<path d="M12.6267 -0.391814L13.0621 -1.29203L11.1493 -2.21729L11.6555 -0.153618L12.6267 -0.391814ZM0.5 9.43731L0.935455 8.5371L-0.977343 7.61183L-0.471218 9.67551L0.5 9.43731ZM11.6555 -0.153618C11.7985 0.429511 11.8746 1.03991 11.8746 1.66945L13.8746 1.66945C13.8746 0.878141 13.7788 0.107819 13.5979 -0.630009L11.6555 -0.153618ZM11.8746 1.66945C11.8746 5.88005 8.4612 9.29341 4.25061 9.29341L4.25061 11.2934C9.56577 11.2934 13.8746 6.98462 13.8746 1.66945L11.8746 1.66945ZM4.25061 9.29341C3.06045 9.29341 1.93665 9.02141 0.935455 8.5371L0.0645448 10.3375C1.3314 10.9503 2.75235 11.2934 4.25061 11.2934L4.25061 9.29341ZM8.87607 15C5.29485 15 2.28809 12.5299 1.47122 9.19912L-0.471218 9.67551C0.559915 13.8798 4.35238 17 8.87607 17L8.87607 15ZM16.5 7.37604C16.5 11.5866 13.0867 15 8.87607 15L8.87607 17C14.1912 17 18.5 12.6912 18.5 7.37604L16.5 7.37604ZM12.1912 0.508397C14.7433 1.74289 16.5 4.35528 16.5 7.37604L18.5 7.37604C18.5 3.55947 16.2783 0.263726 13.0621 -1.29203L12.1912 0.508397Z" fill="white" mask="url(#path-1-inside-1_1306_50859)"/>
</svg>
