<svg width="20" height="22" viewBox="0 0 20 22" fill="none" xmlns="http://www.w3.org/2000/svg">
<path d="M0.5 2C0.5 1.17157 1.17157 0.5 2 0.5H18C18.8284 0.5 19.5 1.17157 19.5 2V15.1679C19.5 15.7081 19.2095 16.2066 18.7395 16.4729L10.7395 21.0062C10.2808 21.2662 9.71923 21.2662 9.26048 21.0062L1.26048 16.4729C0.790482 16.2066 0.5 15.7081 0.5 15.1679V2Z" stroke="white"/>
<path d="M3.5 4C3.5 3.72386 3.72386 3.5 4 3.5H16C16.2761 3.5 16.5 3.72386 16.5 4V14.3071C16.5 14.4842 16.4063 14.6481 16.2537 14.738L10.2537 18.2704C10.0971 18.3626 9.90288 18.3626 9.74633 18.2704L3.74633 14.738L3.49265 15.1688L3.74633 14.738C3.5937 14.6481 3.5 14.4842 3.5 14.3071V4Z" stroke="white"/>
<path d="M14 10L9 7.11325V12.8868L14 10ZM0 10.5H9.5V9.5H0V10.5Z" fill="white"/>
</svg>
