<svg width="23" height="22" viewBox="0 0 23 22" fill="none" xmlns="http://www.w3.org/2000/svg">
<path d="M14.4484 7.47059L14.5621 7.81308H14.923H21.303C22.2769 7.81308 22.6762 9.06353 21.8826 9.62798L16.7487 13.2795L16.4475 13.4937L16.564 13.8444L18.542 19.804C18.8465 20.7216 17.8012 21.4943 17.0133 20.9339L11.7898 17.2187L11.5 17.0126L11.2102 17.2187L5.98669 20.9339C5.19885 21.4943 4.15346 20.7216 4.45801 19.804L6.43604 13.8444L6.55245 13.4937L6.25129 13.2795L1.11738 9.62798C0.323768 9.06353 0.723104 7.81308 1.69697 7.81308H8.07701H8.43788L8.55156 7.47059L10.5509 1.44675C10.854 0.533433 12.1459 0.533433 12.4491 1.44675L14.4484 7.47059Z" stroke="white"/>
</svg>
