<svg width="21" height="8" viewBox="0 0 21 8" fill="none" xmlns="http://www.w3.org/2000/svg">
<path d="M3.7323 2.75006C3.5994 2.75006 3.47502 2.81549 3.39973 2.925L2.31 4.51006L1.22027 2.925C1.14498 2.81549 1.0206 2.75006 0.887704 2.75006C0.5607 2.75006 0.369457 3.11859 0.557705 3.38597L1.837 5.20306L0.44818 7.17402C0.259783 7.44139 0.451007 7.81006 0.778083 7.81006C0.910771 7.81006 1.03498 7.74484 1.11031 7.63561L2.31 5.89606L3.50969 7.63561C3.58502 7.74484 3.70923 7.81006 3.84192 7.81006C4.16899 7.81006 4.36022 7.44139 4.17182 7.17402L2.783 5.20306L4.06229 3.38597C4.25054 3.11859 4.0593 2.75006 3.7323 2.75006Z" fill="#A266F4"/>
<path d="M5.27914 0.110061V7.34256C5.27914 7.60075 5.48845 7.81006 5.74664 7.81006C6.00483 7.81006 6.21414 7.60075 6.21414 7.34256V0.110061H5.27914ZM5.79614 0.990062H7.36914C7.86781 0.990062 8.27114 1.11106 8.57914 1.35306C8.89447 1.58773 9.05214 1.94339 9.05214 2.42006C9.05214 2.88939 8.89447 3.24506 8.57914 3.48706C8.27114 3.72906 7.86781 3.85006 7.36914 3.85006H5.79614V4.73006H7.36914C7.86781 4.73006 8.31147 4.63839 8.70014 4.45506C9.09614 4.26439 9.40781 3.99673 9.63514 3.65206C9.86981 3.30006 9.98714 2.88939 9.98714 2.42006C9.98714 1.94339 9.86981 1.53273 9.63514 1.18806C9.40781 0.843394 9.09614 0.579394 8.70014 0.396061C8.31147 0.205394 7.86781 0.110061 7.36914 0.110061H5.79614V0.990062Z" fill="#A266F4"/>
<path d="M9.9825 0.550061C9.9825 0.793067 10.1795 0.990062 10.4225 0.990062H11.9625V7.34256C11.9625 7.60076 12.1718 7.81006 12.43 7.81006C12.6882 7.81006 12.8975 7.60075 12.8975 7.34256V0.990062H14.4375C14.6805 0.990062 14.8775 0.793067 14.8775 0.550061C14.8775 0.307056 14.6805 0.110061 14.4375 0.110061H10.4225C10.1795 0.110061 9.9825 0.307056 9.9825 0.550061Z" fill="#A266F4"/>
<path d="M16.1939 5.90157C16.0439 5.67851 15.7418 5.60656 15.5192 5.75718C15.3272 5.88701 15.2591 6.14053 15.3819 6.33706C15.5124 6.54601 15.6627 6.74734 15.8328 6.94106C16.1041 7.23439 16.4158 7.47273 16.7678 7.65606C17.1271 7.83206 17.5158 7.92006 17.9338 7.92006C18.2418 7.92006 18.5351 7.86873 18.8138 7.76606C19.0998 7.66339 19.3528 7.51673 19.5728 7.32606C19.8001 7.13539 19.9761 6.90439 20.1008 6.63306C20.2328 6.36173 20.2988 6.05739 20.2988 5.72006C20.2988 5.36806 20.2364 5.06739 20.1118 4.81806C19.9871 4.56139 19.8258 4.34506 19.6278 4.16906C19.4371 3.98573 19.2281 3.83539 19.0008 3.71806C18.7734 3.60073 18.5571 3.50539 18.3518 3.43206C17.9044 3.27806 17.5488 3.12406 17.2848 2.97006C17.0281 2.80873 16.8448 2.64006 16.7348 2.46406C16.6248 2.28073 16.5698 2.08273 16.5698 1.87006C16.5698 1.62073 16.6651 1.39706 16.8558 1.19906C17.0464 0.993728 17.3508 0.891062 17.7688 0.891062C18.0694 0.891062 18.3224 0.949728 18.5278 1.06706C18.7404 1.18439 18.9201 1.33473 19.0668 1.51806C19.103 1.56333 19.1376 1.60881 19.1707 1.65453C19.3291 1.87337 19.6272 1.96549 19.8613 1.83077C20.0717 1.70971 20.1581 1.44568 20.0246 1.24297C19.935 1.1069 19.832 0.974934 19.7158 0.847061C19.4958 0.597728 19.2281 0.396061 18.9128 0.242062C18.6048 0.0807282 18.2418 6.10352e-05 17.8238 6.10352e-05C17.3911 6.10352e-05 17.0061 0.088061 16.6688 0.264061C16.3314 0.432728 16.0674 0.667395 15.8768 0.968061C15.6861 1.26873 15.5908 1.60973 15.5908 1.99106C15.5908 2.34306 15.6568 2.64006 15.7888 2.88206C15.9281 3.12406 16.1041 3.32939 16.3168 3.49806C16.5294 3.65939 16.7531 3.79506 16.9878 3.90506C17.2224 4.00773 17.4351 4.09206 17.6258 4.15806C17.9191 4.26073 18.1941 4.37806 18.4508 4.51006C18.7148 4.63473 18.9274 4.79973 19.0888 5.00506C19.2501 5.21039 19.3308 5.48539 19.3308 5.83006C19.3308 6.18206 19.2061 6.47173 18.9568 6.69906C18.7074 6.92639 18.3774 7.04006 17.9668 7.04006C17.6588 7.04006 17.3838 6.97406 17.1418 6.84206C16.8998 6.71006 16.6798 6.52673 16.4818 6.29206C16.3839 6.17157 16.2879 6.0414 16.1939 5.90157Z" fill="#A266F4"/>
</svg>
