<svg width="40" height="40" viewBox="0 0 40 40" fill="none" xmlns="http://www.w3.org/2000/svg">
<circle cx="20" cy="20" r="20" fill="#ED392F"/>
<path d="M20 0C15.7457 -5.07324e-08 11.6022 1.35661 8.17163 3.8727C4.74109 6.38879 2.20225 9.93326 0.924039 13.991C-0.354168 18.0488 -0.305139 22.4085 1.064 26.4365C2.43314 30.4645 5.05105 33.9509 8.53732 36.3892C12.0236 38.8275 16.1965 40.0906 20.4498 39.9949C24.703 39.8993 28.815 38.4498 32.1881 35.8572C35.5612 33.2646 38.0196 29.6639 39.2063 25.5784C40.3929 21.4929 40.2458 17.1355 38.7865 13.1393L20 20V0Z" fill="#B7A503"/>
<path d="M20 0C16.2832 -4.43228e-08 12.6399 1.03574 9.47888 2.991C6.3179 4.94626 3.76431 7.74368 2.10463 11.0694C0.444953 14.3951 -0.255148 18.1175 0.0828837 21.8189C0.420915 25.5204 1.7837 29.0544 4.01834 32.0244C6.25298 34.9945 9.27105 37.2831 12.7339 38.6334C16.1968 39.9838 19.9674 40.3424 23.6228 39.6692C27.2781 38.9959 30.6735 37.3173 33.4281 34.8219C36.1826 32.3264 38.1872 29.1127 39.217 25.5413L20 20V0Z" fill="#469A1F"/>
</svg>
