<svg width="40" height="40" viewBox="0 0 40 40" fill="none" xmlns="http://www.w3.org/2000/svg">
<circle cx="20" cy="20" r="20" fill="#E23123"/>
<path d="M20 0C15.7457 -5.07324e-08 11.6022 1.35661 8.17163 3.8727C4.74109 6.38879 2.20225 9.93326 0.924039 13.991C-0.354168 18.0488 -0.305139 22.4085 1.064 26.4365C2.43314 30.4645 5.05105 33.9509 8.53732 36.3892C12.0236 38.8275 16.1965 40.0906 20.4498 39.9949C24.703 39.8993 28.815 38.4498 32.1881 35.8572C35.5612 33.2646 38.0196 29.6639 39.2063 25.5784C40.3929 21.4929 40.2458 17.1355 38.7865 13.1393L20 20V0Z" fill="#B7A503"/>
<path d="M20 0C16.1485 -4.59288e-08 12.3789 1.11209 9.14415 3.20267C5.90939 5.29324 3.34708 8.27335 1.76506 11.785C0.183044 15.2966 -0.351375 19.1903 0.226015 22.9983C0.803404 26.8062 2.46804 30.3665 5.01992 33.2513L20 20V0Z" fill="#469A1F"/>
</svg>
