<svg width="38" height="38" viewBox="0 0 38 38" fill="none" xmlns="http://www.w3.org/2000/svg">
<circle cx="19.0002" cy="19" r="4.38889" stroke="white"/>
<path d="M19 8H21.3013C21.7477 8 22.1401 8.29598 22.2628 8.72528L23.0424 11.4539C23.1779 11.9281 23.6387 12.2327 24.128 12.1715L27.4199 11.76C27.8621 11.7047 28.2876 11.9487 28.4631 12.3584L29.7333 15.3222C29.8944 15.698 29.8104 16.134 29.5213 16.4232L27.6516 18.2929C27.261 18.6834 27.261 19.3166 27.6516 19.7071L29.4599 21.5155C29.7788 21.8343 29.8448 22.3272 29.6211 22.7187L27.8926 25.7434C27.6892 26.0995 27.2889 26.2952 26.883 26.2372L24.1411 25.8456C23.6464 25.7749 23.1755 26.0803 23.0382 26.5608L22.2628 29.2747C22.1401 29.704 21.7477 30 21.3013 30H19" stroke="white" stroke-linecap="round"/>
<path d="M19 8H16.6987C16.2523 8 15.8599 8.29598 15.7372 8.72528L14.9576 11.4539C14.8221 11.9281 14.3613 12.2327 13.872 12.1715L10.5801 11.76C10.1379 11.7047 9.71244 11.9487 9.53689 12.3584L8.2667 15.3222C8.10562 15.698 8.1896 16.134 8.47873 16.4232L10.3484 18.2929C10.739 18.6834 10.739 19.3166 10.3484 19.7071L8.54009 21.5155C8.22121 21.8343 8.15521 22.3272 8.37895 22.7187L10.1074 25.7434C10.3108 26.0995 10.7111 26.2952 11.117 26.2372L13.8589 25.8456C14.3536 25.7749 14.8245 26.0803 14.9618 26.5608L15.7372 29.2747C15.8599 29.704 16.2523 30 16.6987 30H19" stroke="white" stroke-linecap="round"/>
</svg>
