<svg width="24" height="24" viewBox="0 0 24 24" fill="none" xmlns="http://www.w3.org/2000/svg">
<circle cx="12.0002" cy="12" r="4.38889" stroke="white"/>
<path d="M12 1H14.3013C14.7477 1 15.1401 1.29598 15.2628 1.72528L16.0424 4.45395C16.1779 4.92806 16.6387 5.23266 17.128 5.17151L20.4199 4.76001C20.8621 4.70473 21.2876 4.94875 21.4631 5.35837L22.7333 8.32215C22.8944 8.698 22.8104 9.13404 22.5213 9.42318L20.6516 11.2929C20.261 11.6834 20.261 12.3166 20.6516 12.7071L22.4599 14.5155C22.7788 14.8343 22.8448 15.3272 22.6211 15.7187L20.8926 18.7434C20.6892 19.0995 20.2889 19.2952 19.883 19.2372L17.1411 18.8456C16.6464 18.7749 16.1755 19.0803 16.0382 19.5608L15.2628 22.2747C15.1401 22.704 14.7477 23 14.3013 23H12" stroke="white" stroke-linecap="round"/>
<path d="M12 1H9.69875C9.25226 1 8.85988 1.29598 8.73722 1.72528L7.9576 4.45395C7.82214 4.92806 7.36132 5.23266 6.87204 5.17151L3.58007 4.76001C3.13786 4.70473 2.71244 4.94875 2.53689 5.35837L1.2667 8.32215C1.10562 8.698 1.1896 9.13404 1.47873 9.42318L3.34845 11.2929C3.73897 11.6834 3.73897 12.3166 3.34845 12.7071L1.54009 14.5155C1.22121 14.8343 1.15521 15.3272 1.37895 15.7187L3.10736 18.7434C3.31083 19.0995 3.71106 19.2952 4.11703 19.2372L6.85887 18.8456C7.35358 18.7749 7.82452 19.0803 7.96181 19.5608L8.73722 22.2747C8.85988 22.704 9.25227 23 9.69875 23H12" stroke="white" stroke-linecap="round"/>
</svg>
