<svg width="38" height="38" viewBox="0 0 38 38" fill="none" xmlns="http://www.w3.org/2000/svg">
<rect x="8.5" y="11.5" width="22" height="16" rx="2.5" stroke="white"/>
<path d="M20.7131 17.6977C21.4022 18.0914 21.8684 18.3594 22.1695 18.5962C22.4674 18.8305 22.4844 18.9431 22.4844 19C22.4844 19.0569 22.4674 19.1695 22.1695 19.4038C21.8684 19.6407 21.4022 19.9086 20.7131 20.3024L19.7442 20.856C19.0642 21.2446 18.6034 21.5064 18.2513 21.6437C17.9036 21.7792 17.7985 21.738 17.749 21.7093C17.6996 21.6806 17.6116 21.6097 17.5568 21.2406C17.5013 20.8668 17.5 20.3369 17.5 19.5537L17.5 18.4464C17.5 17.6632 17.5013 17.1332 17.5568 16.7594C17.6116 16.3903 17.6996 16.3195 17.749 16.2907C17.7985 16.262 17.9036 16.2209 18.2513 16.3564C18.6034 16.4937 19.0642 16.7554 19.7442 17.144L20.7131 17.6977Z" stroke="white"/>
</svg>
