<svg width="23" height="17" viewBox="0 0 23 17" fill="none" xmlns="http://www.w3.org/2000/svg">
<rect x="0.5" y="0.5" width="22" height="16" rx="2.5" stroke="white"/>
<path d="M12.7131 6.69766C13.4022 7.09143 13.8684 7.3594 14.1695 7.5962C14.4674 7.83051 14.4844 7.94311 14.4844 8.00002C14.4844 8.05693 14.4674 8.16954 14.1695 8.40385C13.8684 8.64065 13.4022 8.90861 12.7131 9.30239L11.7442 9.85603C11.0642 10.2446 10.6034 10.5064 10.2513 10.6437C9.90365 10.7792 9.7985 10.738 9.74904 10.7093C9.69957 10.6806 9.61164 10.6097 9.55684 10.2406C9.50133 9.86684 9.5 9.33689 9.5 8.55366L9.5 7.44638C9.5 6.66316 9.50133 6.13321 9.55684 5.7594C9.61164 5.39031 9.69957 5.31945 9.74904 5.29075C9.7985 5.26204 9.90365 5.22085 10.2513 5.35639C10.6034 5.49366 11.0642 5.75543 11.7442 6.14402L12.7131 6.69766Z" stroke="white"/>
</svg>
