<svg width="23" height="20" viewBox="0 0 23 20" fill="none" xmlns="http://www.w3.org/2000/svg">
<rect x="0.696364" y="14.1228" width="22" height="6" rx="0.5" transform="rotate(-35 0.696364 14.1228)" stroke="#333333"/>
<path d="M4.17816 14.7367C4.33655 14.9629 4.64832 15.0179 4.87452 14.8595C5.10072 14.7011 5.1557 14.3893 4.99731 14.1631L4.17816 14.7367ZM2.45743 12.2793L4.17816 14.7367L4.99731 14.1631L3.27658 11.7057L2.45743 12.2793Z" fill="#333333"/>
<path d="M10.7314 10.1481C10.8898 10.3743 11.2015 10.4293 11.4277 10.2709C11.6539 10.1125 11.7089 9.80074 11.5505 9.57454L10.7314 10.1481ZM9.01065 7.69066L10.7314 10.1481L11.5505 9.57454L9.8298 7.11708L9.01065 7.69066Z" fill="#333333"/>
<path d="M8.02835 13.2616C8.18673 13.4878 8.49851 13.5428 8.72471 13.3844C8.95091 13.226 9.00589 12.9142 8.8475 12.688L8.02835 13.2616ZM5.73404 9.98497L8.02835 13.2616L8.8475 12.688L6.55319 9.41139L5.73404 9.98497Z" fill="#333333"/>
<path d="M14.5816 8.67295C14.74 8.89916 15.0517 8.95413 15.2779 8.79574C15.5041 8.63735 15.5591 8.32558 15.4007 8.09938L14.5816 8.67295ZM12.2873 5.39635L14.5816 8.67295L15.4007 8.09938L13.1064 4.82277L12.2873 5.39635Z" fill="#333333"/>
<path d="M17.2846 5.55949C17.443 5.78569 17.7548 5.84067 17.981 5.68228C18.2072 5.52389 18.2621 5.21212 18.1038 4.98591L17.2846 5.55949ZM15.5639 3.10203L17.2846 5.55949L18.1038 4.98591L16.383 2.52846L15.5639 3.10203Z" fill="#333333"/>
</svg>
