<svg width="40" height="40" viewBox="0 0 40 40" fill="none" xmlns="http://www.w3.org/2000/svg">
<path d="M30.7141 20.4948C30.7141 14.8653 26.1239 10.1885 20.4077 10.1885C14.7782 10.1885 10.1881 14.7786 10.1881 20.4948C10.1881 26.1243 14.7782 30.7144 20.4944 30.7144C22.7462 30.7144 24.8248 30.0216 26.4703 28.8092L23.6122 25.951C22.6595 26.4706 21.6202 26.8172 20.4943 26.8172C17.03 26.8172 14.1719 24.0458 14.1719 20.4948C14.1719 17.0306 16.9433 14.1725 20.4943 14.1725C23.3524 14.1725 25.7772 16.1645 26.5568 18.7626H16.5104L19.7149 22.0538H30.5408C30.7141 21.534 30.7141 21.0144 30.7141 20.4948Z" fill="#D5D6E9" fill-opacity="0.6"/>
<path d="M28.7222 31.0607C26.4704 32.8795 23.6123 33.9188 20.4946 33.9188C13.0464 33.9188 7.07054 27.943 7.07054 20.4948C7.07054 17.3769 8.1099 14.5189 9.92864 12.2672L6.984 9.32251C4.47241 12.3537 3 16.2512 3 20.495C3 30.1084 10.7947 37.9897 20.4946 37.9897C24.7384 37.9897 28.6357 36.5173 31.667 34.0057L28.7222 31.0607Z" fill="#D5D6E9" fill-opacity="0.6"/>
<path d="M12.1805 9.92865C14.4323 8.1099 17.2904 7.07054 20.4081 7.07054C27.8563 7.07054 33.8324 13.0464 33.8324 20.4946C33.8324 23.6125 32.793 26.4704 30.9742 28.7222L33.8324 31.5803C36.3439 28.5491 37.8162 24.6519 37.8162 20.4079C37.9029 10.7946 30.1081 3 20.4946 3C16.2509 3 12.3536 4.47241 9.32239 6.984L12.1805 9.92865Z" fill="#D5D6E9" fill-opacity="0.6"/>
</svg>
