<svg width="40" height="40" viewBox="0 0 40 40" fill="none" xmlns="http://www.w3.org/2000/svg">
<path d="M15.3446 16.9433C16.0593 15.91 17.1451 15.2006 18.3188 14.7957C18.096 14.9607 17.9058 15.1616 17.7187 15.3636C18.3638 15.3051 19.0294 15.3461 19.6265 15.6188C19.6981 16.1949 19.7461 16.7741 19.833 17.3482C19.9455 16.7752 19.9762 16.1908 20.057 15.6137C20.654 15.3482 21.3156 15.3051 21.9587 15.3636C21.7848 15.1821 21.6131 14.9986 21.4331 14.8244C22.5782 15.2262 23.6293 15.9335 24.3276 16.9402C24.1211 16.8408 23.9186 16.7383 23.7152 16.6337C23.9657 17.2283 24.1241 17.8731 24.0689 18.523C23.5485 18.769 23.0025 18.9689 22.5077 19.2672C23.0741 19.1791 23.6313 19.0437 24.1937 18.9341C24.6282 19.4282 24.8552 20.0463 25.0504 20.6645C25.1547 20.4502 25.2559 20.2349 25.3633 20.0227C25.3408 21.2518 24.9666 22.4717 24.2305 23.462C24.2795 23.2242 24.3256 22.9863 24.3716 22.7485C23.8726 23.1668 23.3123 23.5327 22.6662 23.667C22.2787 23.2477 21.9208 22.7977 21.4955 22.4154C21.7347 22.9341 22.0466 23.4159 22.3185 23.9171C21.9924 24.4943 21.472 24.9146 20.9229 25.2652C21.1581 25.3 21.3943 25.3328 21.6294 25.3677C21.0579 25.5112 20.4761 25.6486 19.8831 25.6486C19.2595 25.6609 18.646 25.5215 18.0459 25.3656C18.2831 25.3308 18.5203 25.299 18.7575 25.2642C18.2054 24.9156 17.6809 24.4943 17.3588 23.9141C17.6338 23.4138 17.9426 22.933 18.1808 22.4133C17.7565 22.7967 17.3987 23.2457 17.0122 23.666C16.365 23.5348 15.8037 23.1678 15.3058 22.7485C15.3518 22.9894 15.3978 23.2303 15.4499 23.4702C14.7138 22.4738 14.3243 21.2488 14.3171 20.0104C14.4132 20.236 14.5226 20.4553 14.6341 20.6727C14.8079 20.0453 15.0543 19.4312 15.4837 18.933C16.044 19.0407 16.5991 19.175 17.1625 19.2652C16.6738 18.9628 16.1278 18.769 15.6094 18.5209C15.5501 17.872 15.7127 17.2283 15.9612 16.6337C15.7567 16.7383 15.5512 16.8428 15.3446 16.9433ZM17.412 19.3133C17.6839 20.2872 18.0336 21.2385 18.3281 22.2052C19.3372 22.2083 20.3463 22.2134 21.3544 22.2032C21.6519 21.2457 21.9689 20.2954 22.2787 19.342C21.4802 18.728 20.651 18.158 19.8463 17.5532C19.0284 18.1314 18.2309 18.7372 17.412 19.3133Z" fill="#D5D6E9" fill-opacity="0.6"/>
<path d="M17.0275 2.16642C17.5203 2.01675 18.0294 1.92141 18.5468 1.95422C18.9925 4.30686 19.422 6.66155 19.8616 9.01522C19.9005 9.18232 19.9301 9.44885 19.6827 9.4427C17.5213 9.84352 15.5306 11.127 14.317 12.9712C14.1626 13.1905 14.0563 13.4489 13.8569 13.6334C13.6054 13.5811 13.3969 13.4202 13.176 13.2982C11.4757 12.3028 9.77239 11.3125 8.07006 10.3202C7.81343 10.1675 7.54045 10.0383 7.31143 9.84454C7.30836 9.73281 7.33903 9.62824 7.40344 9.53291C9.47895 5.93475 13.0196 3.22741 17.0275 2.16642Z" fill="#D5D6E9" fill-opacity="0.6"/>
<path d="M20.2953 3.84137C24.8614 3.09406 29.7169 4.5159 33.1828 7.58305C33.3004 7.67018 33.3168 7.83215 33.1972 7.92544C31.6738 9.70607 30.133 11.4713 28.6065 13.2499C28.493 13.4026 28.2773 13.5769 28.1229 13.3668C26.6465 12.0802 24.707 11.3432 22.7501 11.3473C22.2328 11.3299 21.7236 11.4426 21.2073 11.4354C20.8402 9.03154 20.4967 6.62354 20.1378 4.21861C20.1051 4.08022 20.099 3.84342 20.2953 3.84137Z" fill="#D5D6E9" fill-opacity="0.6"/>
<path d="M4.70238 9.88764C4.84245 9.87226 4.9631 9.97682 5.08681 10.0281C7.12142 11.1332 9.16626 12.2177 11.1998 13.3238C11.3951 13.3833 11.3972 13.5934 11.2908 13.7349C10.2377 15.698 10.0251 18.0988 10.7449 20.2106C10.8093 20.4105 10.9023 20.6052 10.9238 20.8174C10.8737 20.9599 10.7029 20.9763 10.5874 21.0399C8.43829 21.862 6.29429 22.6965 4.14823 23.5248C4.01634 23.5648 3.80879 23.6591 3.76278 23.4622C2.02876 19.1947 2.34469 14.1726 4.51119 10.1173C4.55444 10.0257 4.62024 9.94666 4.70238 9.88764Z" fill="#D5D6E9" fill-opacity="0.6"/>
<path d="M32.6684 10.358C32.7798 10.2319 32.9383 10.2935 33.0293 10.4072C36.392 13.5667 38.2651 18.2566 37.9696 22.8696C37.987 23.09 37.715 23.0398 37.579 23.0459C35.2275 22.925 32.8739 22.8214 30.5233 22.6974C30.2841 22.7128 30.3127 22.4165 30.3158 22.2566C30.3669 20.9916 30.1041 19.7194 29.5817 18.5672C29.1185 17.5062 28.3793 16.601 27.5624 15.7932C27.6984 15.623 27.8344 15.4539 27.9836 15.296C29.552 13.6558 31.0979 11.9941 32.6684 10.358Z" fill="#D5D6E9" fill-opacity="0.6"/>
<path d="M18.7085 14.2197C19.9252 13.9901 21.2155 14.1366 22.3402 14.6615C23.8032 15.3319 24.9739 16.6164 25.4994 18.1418C26.0372 19.6661 25.9258 21.4109 25.1855 22.8491C24.5179 24.1756 23.3401 25.2366 21.9506 25.7564C20.7718 26.2054 19.4508 26.2628 18.2372 25.9245C16.6749 25.498 15.3141 24.4011 14.5524 22.9701C13.8459 21.6702 13.6598 20.1018 14.0177 18.6666C14.5514 16.4401 16.4602 14.6277 18.7085 14.2197ZM15.3448 16.9434C15.5513 16.843 15.7568 16.7384 15.9613 16.6338C15.7129 17.2284 15.5503 17.8722 15.6096 18.5211C16.128 18.7692 16.6739 18.9629 17.1626 19.2653C16.5993 19.1751 16.0441 19.0408 15.4838 18.9332C15.0544 19.4314 14.808 20.0454 14.6342 20.6728C14.5228 20.4555 14.4134 20.2361 14.3173 20.0106C14.3244 21.2489 14.714 22.4739 15.4501 23.4703C15.3979 23.2305 15.3519 22.9896 15.3059 22.7487C15.8038 23.1679 16.3652 23.5349 17.0123 23.6661C17.3988 23.2458 17.7567 22.7968 18.181 22.4134C17.9427 22.9332 17.634 23.414 17.3589 23.9142C17.681 24.4944 18.2055 24.9158 18.7576 25.2643C18.5204 25.2992 18.2832 25.3309 18.046 25.3658C18.6462 25.5216 19.2596 25.661 19.8833 25.6487C20.4763 25.6487 21.0581 25.5113 21.6296 25.3678C21.3944 25.333 21.1582 25.3002 20.9231 25.2653C21.4721 24.9147 21.9925 24.4944 22.3187 23.9173C22.0467 23.416 21.7349 22.9342 21.4956 22.4155C21.921 22.7979 22.2788 23.2479 22.6663 23.6672C23.3125 23.5329 23.8728 23.1669 24.3717 22.7487C24.3257 22.9865 24.2797 23.2243 24.2306 23.4621C24.9668 22.4719 25.341 21.252 25.3634 20.0229C25.2561 20.2351 25.1549 20.4503 25.0506 20.6646C24.8553 20.0464 24.6283 19.4283 24.1938 18.9342C23.6315 19.0439 23.0743 19.1792 22.5078 19.2674C23.0027 18.969 23.5487 18.7692 24.0691 18.5231C24.1243 17.8732 23.9658 17.2284 23.7153 16.6338C23.9188 16.7384 24.1212 16.8409 24.3277 16.9403C23.6294 15.9337 22.5784 15.2263 21.4333 14.8245C21.6132 14.9988 21.785 15.1823 21.9588 15.3637C21.3157 15.3053 20.6542 15.3483 20.0571 15.6138C19.9763 16.191 19.9457 16.7753 19.8332 17.3483C19.7463 16.7743 19.6982 16.1951 19.6267 15.619C19.0296 15.3463 18.364 15.3053 17.7188 15.3637C17.9059 15.1618 18.0961 14.9608 18.319 14.7958C17.1453 15.2007 16.0595 15.9101 15.3448 16.9434Z" fill="#0D0C0E"/>
<path d="M17.4112 19.3133C18.2301 18.7372 19.0276 18.1314 19.8456 17.5532C20.6502 18.158 21.4794 18.728 22.2779 19.3421C21.9681 20.2954 21.6512 21.2457 21.3536 22.2032C20.3455 22.2134 19.3364 22.2083 18.3273 22.2052C18.0328 21.2385 17.6832 20.2872 17.4112 19.3133Z" fill="#0D0C0E"/>
<path d="M8.54664 22.8676C8.7777 22.7641 9.01081 22.6595 9.26028 22.6062C9.45045 22.8287 9.54758 23.1116 9.68152 23.3689C10.706 25.3904 12.6199 26.8881 14.7813 27.5145C14.7364 27.7297 14.6914 27.946 14.63 28.1572C14.037 30.0342 13.4594 31.9153 12.8735 33.7943C12.7743 34.107 12.7028 34.4309 12.5617 34.7282C12.4574 34.8748 12.2856 34.7713 12.1496 34.7456C7.75835 33.3689 4.04391 29.9737 2.30273 25.701V25.6088C4.36188 24.6482 6.47113 23.7943 8.54664 22.8676Z" fill="#D5D6E9" fill-opacity="0.6"/>
<path d="M28.0794 23.5934C28.2308 23.5165 28.4046 23.5585 28.5671 23.5616C30.9259 23.7605 33.2876 23.9173 35.6453 24.1254C35.6576 24.2494 35.6648 24.3745 35.6678 24.5006C35.3314 29.0675 32.8817 33.4242 29.1734 36.0947C29.0088 36.2556 28.8391 36.0598 28.7491 35.9265C27.3709 34.025 25.9702 32.1377 24.5961 30.233C24.4274 30.0659 24.6104 29.8958 24.7484 29.7994C26.416 28.5693 27.5703 26.6728 27.923 24.6287C27.9895 24.2853 27.9721 23.9275 28.0794 23.5934Z" fill="#D5D6E9" fill-opacity="0.6"/>
<path d="M22.2548 28.7424C22.3877 28.6512 22.4797 28.8316 22.5523 28.9136C23.8416 30.8306 25.1206 32.7557 26.4099 34.6727C26.4712 34.7629 26.5244 34.8583 26.5724 34.9567C26.5786 35.1104 26.4191 35.1781 26.3199 35.2611C24.3272 36.5835 22.037 37.4518 19.6691 37.7706C19.2683 37.8516 18.8603 37.8803 18.4524 37.8332C17.6334 37.8403 16.8114 37.7942 15.9976 37.8885C15.0508 37.6948 14.0744 37.6138 13.1573 37.2919C12.9896 37.2458 13.0765 37.0325 13.096 36.9126C13.7217 34.6625 14.3341 32.4072 14.9588 30.156C14.9639 29.9223 15.196 29.8413 15.3841 29.9356C16.8871 30.3488 18.5066 30.3098 19.9922 29.8393C20.8029 29.6015 21.537 29.1771 22.2548 28.7424Z" fill="#D5D6E9" fill-opacity="0.6"/>
</svg>
