<svg width="40" height="40" viewBox="0 0 40 40" fill="none" xmlns="http://www.w3.org/2000/svg">
<g clip-path="url(#clip0_5_5064)">
<path d="M4.3186 16.6946C4.87345 14.9145 5.74154 13.4542 6.91073 13.3235C9.15076 13.072 11.7647 16.8546 12.2225 21.2989C12.645 25.4087 11.6895 29.9079 9.44943 30.1607C8.08235 30.3133 6.81603 29.7517 5.83867 27.6186C6.98013 27.8349 8.15673 27.7691 9.26732 27.4269C9.72738 25.3583 9.95423 23.244 9.94358 21.1243C9.27778 19.1593 8.28735 17.3212 7.01393 15.6873C6.07778 15.9106 5.17253 16.2489 4.3186 16.6946Z" fill="#D5D6E9" fill-opacity="0.6"/>
<path d="M6.11436 25.3321C5.23049 25.4408 4.35026 24.1184 4.14265 22.3834C3.93261 20.6484 4.48139 19.1576 5.36162 19.0514C6.24306 18.9452 7.12693 20.2638 7.33333 21.9988C7.53973 23.735 6.99459 25.2258 6.11436 25.3321Z" fill="#D5D6E9" fill-opacity="0.6"/>
<path d="M26.2349 16.8061C26.2899 17.376 26.1762 17.9496 25.9082 18.4548C25.6401 18.96 25.2296 19.3744 24.7283 19.6458C24.2269 19.9172 23.657 20.0337 23.09 19.9805C22.5231 19.9273 21.9844 19.7069 21.5415 19.3469C21.0987 18.9869 20.7715 18.5034 20.601 17.957C20.4305 17.4107 20.4243 16.8259 20.5831 16.276C20.7419 15.7261 21.0588 15.2356 21.4938 14.8662C21.9289 14.4967 22.4627 14.2648 23.0284 14.1994C23.4092 14.1587 23.7942 14.1939 24.1614 14.3029C24.5286 14.4119 24.8709 14.5926 25.1687 14.8347C25.4665 15.0767 25.7139 15.3754 25.8968 15.7137C26.0798 16.052 26.1947 16.4232 26.2349 16.8061Z" fill="#D5D6E9" fill-opacity="0.6"/>
<path d="M31.5093 16.2218C31.3111 13.914 30.2103 11.7795 28.4487 10.287C26.6871 8.79448 24.4086 8.06587 22.1133 8.26112C19.8337 8.59344 17.7784 9.82196 16.3987 11.6769C15.019 13.5319 14.4277 15.8616 14.7546 18.1546C14.9418 20.1301 15.7805 21.9858 17.1372 23.4268C18.494 24.8677 20.2908 25.8111 22.242 26.1068C22.242 26.1068 22.1704 25.2558 22.0672 24.4097C21.9725 23.5684 21.8572 22.7382 21.8572 22.7382L20.8543 22.8444C20.1016 22.1063 19.4135 21.3044 18.7976 20.4476C18.241 19.6292 17.7617 18.7601 17.3662 17.8518C17.3662 17.8518 17.7923 16.3305 18.3532 14.9264C18.9299 13.5015 19.6378 12.1951 19.6378 12.1951C20.5427 11.9869 21.4577 11.8259 22.3792 11.7128C23.8689 11.5419 25.4072 11.5297 25.4072 11.5297C26.0995 12.2351 26.7367 12.9932 27.3134 13.797C27.9049 14.6684 28.4359 15.5798 28.9026 16.5246C28.7526 17.4824 28.4989 18.4208 28.1462 19.3231C27.7224 20.3182 27.2129 21.2742 26.6237 22.1802L25.7205 22.3291C25.7205 22.3291 25.8431 23.1301 25.9026 23.9518C25.9693 24.8162 26.0094 25.6709 26.0094 25.6709C27.8427 24.9383 29.3798 23.6103 30.3763 21.8982C31.3729 20.1861 31.7717 18.1881 31.5093 16.2218Z" fill="#D5D6E9" fill-opacity="0.6"/>
<path d="M29.8233 8.84176C27.6925 6.91385 25.9333 5.40351 25.9563 5.30957C26.435 5.45756 26.8938 5.66424 27.3222 5.92494C28.4349 6.51009 29.4718 7.23058 30.4097 8.07018C31.7706 9.22818 32.8993 10.6367 33.7351 12.2203C32.3618 11.178 31.0553 10.0495 29.8233 8.84176Z" fill="#D5D6E9" fill-opacity="0.6"/>
<path d="M14.5478 4.98099C13.4979 5.35732 12.488 5.83833 11.5332 6.41684C13.541 6.06444 15.4676 5.34522 17.2177 4.2948C16.3091 4.44257 15.4155 4.67222 14.5478 4.98099Z" fill="#D5D6E9" fill-opacity="0.6"/>
<path d="M22.3453 4.47176C21.2652 4.03051 20.0841 3.90112 18.9349 4.09814C19.3009 4.15279 19.6544 4.27226 19.979 4.451L15.8365 6.32397L10.8817 7.62919C10.642 7.58772 10.423 7.46646 10.2601 7.28487C8.97553 8.27142 8.15722 9.15784 8.18028 9.37029C8.22642 9.79519 11.6053 9.00888 15.5159 7.65483C19.4314 6.30314 22.4862 4.8772 22.3453 4.47176Z" fill="#D5D6E9" fill-opacity="0.6"/>
<path d="M33.484 21.9922C33.9951 18.3391 34.7309 15.3525 35.089 15.4759C35.9181 17.6873 36.14 20.0824 35.7313 22.4097C35.2918 25.4719 33.8506 28.7356 33.2399 28.699C32.8636 28.6758 32.9765 25.6416 33.484 21.9922Z" fill="#D5D6E9" fill-opacity="0.6"/>
<path d="M17.1835 35.7496C15.3624 35.376 14.4481 34.6593 14.1968 33.6642C13.6359 31.4689 17.1835 29.4409 21.575 28.7669C25.5888 28.1503 29.0405 29.4458 29.4036 30.9464C29.6852 32.1124 29.1462 33.0513 27.6103 34.0708C27.772 33.2388 27.7954 32.3856 27.6795 31.5459C25.7705 31.1052 23.8346 30.7916 21.8846 30.6069C19.9438 31.2745 18.1012 32.2018 16.4065 33.3639C16.5093 34.2023 16.7732 35.0125 17.1835 35.7496Z" fill="#D5D6E9" fill-opacity="0.6"/>
<path d="M25.5108 33.8288C25.6395 34.609 24.3513 35.4673 22.6333 35.7433C20.9129 36.0205 19.4244 35.6115 19.3018 34.8276C19.1731 34.0462 20.4649 33.1866 22.1817 32.9119C23.8936 32.636 25.3881 33.0461 25.5108 33.8288Z" fill="#D5D6E9" fill-opacity="0.6"/>
<path d="M4.3186 16.6946C4.87345 14.9145 5.74154 13.4542 6.91073 13.3235C9.15076 13.072 11.7647 16.8546 12.2225 21.2989C12.645 25.4087 11.6895 29.9079 9.44943 30.1607C8.08235 30.3133 6.81603 29.7517 5.83867 27.6186C6.98013 27.8349 8.15673 27.7691 9.26732 27.4269C9.72738 25.3583 9.95423 23.244 9.94358 21.1243C9.27778 19.1593 8.28735 17.3212 7.01393 15.6873C6.07778 15.9106 5.17253 16.2489 4.3186 16.6946Z" fill="#D5D6E9" fill-opacity="0.6"/>
<path d="M6.11436 25.3321C5.23049 25.4408 4.35026 24.1184 4.14265 22.3834C3.93261 20.6484 4.48139 19.1576 5.36162 19.0514C6.24306 18.9452 7.12693 20.2638 7.33333 21.9988C7.53973 23.735 6.99459 25.2258 6.11436 25.3321Z" fill="#D5D6E9" fill-opacity="0.6"/>
<path d="M26.2349 16.8061C26.2899 17.376 26.1762 17.9496 25.9082 18.4548C25.6401 18.96 25.2296 19.3744 24.7283 19.6458C24.2269 19.9172 23.657 20.0337 23.09 19.9805C22.5231 19.9273 21.9844 19.7069 21.5415 19.3469C21.0987 18.9869 20.7715 18.5034 20.601 17.957C20.4305 17.4107 20.4243 16.8259 20.5831 16.276C20.7419 15.7261 21.0588 15.2356 21.4938 14.8662C21.9289 14.4967 22.4627 14.2648 23.0284 14.1994C23.4092 14.1587 23.7942 14.1939 24.1614 14.3029C24.5286 14.4119 24.8709 14.5926 25.1687 14.8347C25.4665 15.0767 25.7139 15.3754 25.8968 15.7137C26.0798 16.052 26.1947 16.4232 26.2349 16.8061Z" fill="#D5D6E9" fill-opacity="0.6"/>
<path d="M31.5093 16.2218C31.3111 13.914 30.2103 11.7795 28.4487 10.287C26.6871 8.79448 24.4086 8.06587 22.1133 8.26112C19.8337 8.59344 17.7784 9.82196 16.3987 11.6769C15.019 13.5319 14.4277 15.8616 14.7546 18.1546C14.9418 20.1301 15.7805 21.9858 17.1372 23.4268C18.494 24.8677 20.2908 25.8111 22.242 26.1068C22.242 26.1068 22.1704 25.2558 22.0672 24.4097C21.9725 23.5684 21.8572 22.7382 21.8572 22.7382L20.8543 22.8444C20.1016 22.1063 19.4135 21.3044 18.7976 20.4476C18.241 19.6292 17.7617 18.7601 17.3662 17.8518C17.3662 17.8518 17.7923 16.3305 18.3532 14.9264C18.9299 13.5015 19.6378 12.1951 19.6378 12.1951C20.5427 11.9869 21.4577 11.8259 22.3792 11.7128C23.8689 11.5419 25.4072 11.5297 25.4072 11.5297C26.0995 12.2351 26.7367 12.9932 27.3134 13.797C27.9049 14.6684 28.4359 15.5798 28.9026 16.5246C28.7526 17.4824 28.4989 18.4208 28.1462 19.3231C27.7224 20.3182 27.2129 21.2742 26.6237 22.1802L25.7205 22.3291C25.7205 22.3291 25.8431 23.1301 25.9026 23.9518C25.9693 24.8162 26.0094 25.6709 26.0094 25.6709C27.8427 24.9383 29.3798 23.6103 30.3763 21.8982C31.3729 20.1861 31.7717 18.1881 31.5093 16.2218Z" fill="#D5D6E9" fill-opacity="0.6"/>
<path d="M29.8233 8.84176C27.6925 6.91385 25.9333 5.40351 25.9563 5.30957C26.435 5.45756 26.8938 5.66424 27.3222 5.92494C28.4349 6.51009 29.4718 7.23058 30.4097 8.07018C31.7706 9.22818 32.8993 10.6367 33.7351 12.2203C32.3618 11.178 31.0553 10.0495 29.8233 8.84176Z" fill="#D5D6E9" fill-opacity="0.6"/>
<path d="M14.5478 4.98099C13.4979 5.35732 12.488 5.83833 11.5332 6.41684C13.541 6.06444 15.4676 5.34522 17.2177 4.2948C16.3091 4.44257 15.4155 4.67222 14.5478 4.98099Z" fill="#D5D6E9" fill-opacity="0.6"/>
<path d="M22.3453 4.47176C21.2652 4.03051 20.0841 3.90112 18.9349 4.09814C19.3009 4.15279 19.6544 4.27226 19.979 4.451L15.8365 6.32397L10.8817 7.62919C10.642 7.58772 10.423 7.46646 10.2601 7.28487C8.97553 8.27142 8.15722 9.15784 8.18028 9.37029C8.22642 9.79519 11.6053 9.00888 15.5159 7.65483C19.4314 6.30314 22.4862 4.8772 22.3453 4.47176Z" fill="#D5D6E9" fill-opacity="0.6"/>
<path d="M33.484 21.9922C33.9951 18.3391 34.7309 15.3525 35.089 15.4759C35.9181 17.6873 36.14 20.0824 35.7313 22.4097C35.2918 25.4719 33.8506 28.7356 33.2399 28.699C32.8636 28.6758 32.9765 25.6416 33.484 21.9922Z" fill="#D5D6E9" fill-opacity="0.6"/>
<path d="M17.1835 35.7496C15.3624 35.376 14.4481 34.6593 14.1968 33.6642C13.6359 31.4689 17.1835 29.4409 21.575 28.7669C25.5888 28.1503 29.0405 29.4458 29.4036 30.9464C29.6852 32.1124 29.1462 33.0513 27.6103 34.0708C27.772 33.2388 27.7954 32.3856 27.6795 31.5459C25.7705 31.1052 23.8346 30.7916 21.8846 30.6069C19.9438 31.2745 18.1012 32.2018 16.4065 33.3639C16.5093 34.2023 16.7732 35.0125 17.1835 35.7496Z" fill="#D5D6E9" fill-opacity="0.6"/>
<path d="M25.5108 33.8288C25.6395 34.609 24.3513 35.4673 22.6333 35.7433C20.9129 36.0205 19.4244 35.6115 19.3018 34.8276C19.1731 34.0462 20.4649 33.1866 22.1817 32.9119C23.8936 32.636 25.3881 33.0461 25.5108 33.8288Z" fill="#D5D6E9" fill-opacity="0.6"/>
</g>
<defs>
<clipPath id="clip0_5_5064">
<rect width="32" height="32" fill="white" transform="translate(4 4)"/>
</clipPath>
</defs>
</svg>
