<svg width="40" height="40" viewBox="0 0 40 40" fill="none" xmlns="http://www.w3.org/2000/svg">
<path fill-rule="evenodd" clip-rule="evenodd" d="M20.4881 2C22.1684 5.88319 29.1136 8.94518 34.9761 4.83775V30.3408C34.9761 34.3362 31.6528 34.9338 29.8975 34.9338C23.774 34.9338 21.4961 37.4726 20.4507 38.593C19.4052 37.4726 17.2019 34.9338 11.0783 34.9338C9.3233 34.9338 6 34.3364 6 30.3408V4.83795C11.8625 8.94518 18.8076 5.8834 20.4881 2Z" fill="#D5D6E9" fill-opacity="0.6"/>
<path fill-rule="evenodd" clip-rule="evenodd" d="M6.88678 8.47166H7.90224L8.21435 7.51367L8.52667 8.47166H9.53942L8.71948 9.06653L9.03305 10.0297L8.2131 9.43361L7.39711 10.027L7.70943 9.06778L6.88678 8.47166ZM10.3594 8.47166H11.3748L11.6871 7.51367L11.9993 8.47166H13.012L12.1921 9.06653L12.5056 10.0297L11.6857 9.43361L10.8699 10.027L11.182 9.06778L10.3594 8.47166Z" fill="#0D0C0E"/>
<path fill-rule="evenodd" clip-rule="evenodd" d="M10.3594 8.47166H11.3748L11.6871 7.51367L11.9993 8.47166H13.012L12.1921 9.06653L12.5056 10.0297L11.6857 9.43361L10.8699 10.027L11.182 9.06778L10.3594 8.47166ZM13.832 8.47166H14.8474L15.1597 7.51367L15.4719 8.47166H16.4848L15.6649 9.06653L15.9782 10.0297L15.1585 9.43361L14.3425 10.027L14.6546 9.06778L13.832 8.47166ZM6.88678 11.7202H7.90224L8.21435 10.7622L8.52667 11.7202H9.53942L8.71948 12.3151L9.03305 13.2783L8.2131 12.6822L7.39711 13.2758L7.70943 12.3163L6.88678 11.7202ZM10.3594 11.7202H11.3748L11.6871 10.7622L11.9993 11.7202H13.012L12.1921 12.3151L12.5056 13.2783L11.6857 12.6822L10.8699 13.2758L11.182 12.3163L10.3594 11.7202Z" fill="#0D0C0E"/>
<path fill-rule="evenodd" clip-rule="evenodd" d="M10.3594 11.7202H11.3748L11.6871 10.7622L11.9993 11.7202H13.012L12.1921 12.3151L12.5056 13.2783L11.6857 12.6821L10.8699 13.2758L11.182 12.3163L10.3594 11.7202ZM6.88678 14.9315H7.90224L8.21435 13.9735L8.52667 14.9315H9.53942L8.71948 15.5263L9.03305 16.4895L8.2131 15.8934L7.39711 16.487L7.70943 15.5276L6.88678 14.9315ZM10.3594 14.9315H11.3748L11.6871 13.9735L11.9993 14.9315H13.012L12.1921 15.5263L12.5056 16.4895L11.6857 15.8934L10.8699 16.487L11.182 15.5276L10.3594 14.9315Z" fill="#0D0C0E"/>
<path fill-rule="evenodd" clip-rule="evenodd" d="M10.359 14.9315H11.3744L11.6868 13.9735L11.9989 14.9315H13.0116L12.1917 15.5264L12.5052 16.4896L11.6853 15.8934L10.8695 16.4871L11.1816 15.5276L10.359 14.9315ZM33.5569 17.384V30.0051C33.5569 32.7307 32.1007 33.515 29.4491 33.515C24.2962 33.5525 21.72 35.3446 20.4877 36.502C19.2555 35.3446 16.6791 33.5525 11.526 33.515C8.87483 33.515 7.41858 32.7304 7.41858 30.0051V17.384H33.5569ZM34.0893 8.47166H33.0739L32.7615 7.51367L32.4496 8.47166H31.4367L32.2564 9.06653L31.9428 10.0297L32.7632 9.43361L33.579 10.027L33.2667 9.06778L34.0893 8.47166ZM30.6167 8.47166H29.6013L29.2889 7.51367L28.977 8.47166H27.9641L28.7838 9.06653L28.4705 10.0297L29.2902 9.43361L30.1064 10.027L29.7941 9.06778L30.6167 8.47166Z" fill="#0D0C0E"/>
<path fill-rule="evenodd" clip-rule="evenodd" d="M30.6168 8.47166H29.6013L29.289 7.51367L28.9771 8.47166H27.9641L28.7838 9.06653L28.4705 10.0297L29.2902 9.43361L30.1064 10.027L29.7941 9.06778L30.6168 8.47166ZM34.0893 11.7202H33.0739L32.7616 10.7622L32.4497 11.7202H31.4367L32.2564 12.3151L31.9429 13.2783L32.7632 12.6822L33.579 13.2758L33.2667 12.3163L34.0893 11.7202ZM30.6168 11.7202H29.6013L29.289 10.7622L28.9771 11.7202H27.9641L28.7838 12.3151L28.4705 13.2783L29.2902 12.6822L30.1064 13.2758L29.7941 12.3163L30.6168 11.7202Z" fill="#0D0C0E"/>
<path fill-rule="evenodd" clip-rule="evenodd" d="M30.6168 11.7202H29.6013L29.289 10.7622L28.9771 11.7202H27.9641L28.7838 12.3151L28.4705 13.2783L29.2902 12.6821L30.1064 13.2758L29.7941 12.3163L30.6168 11.7202ZM34.0893 14.9315H33.0739L32.7616 13.9735L32.4497 14.9315H31.4367L32.2564 15.5263L31.9429 16.4895L32.7632 15.8934L33.579 16.487L33.2667 15.5276L34.0893 14.9315ZM30.6168 14.9315H29.6013L29.289 13.9735L28.9771 14.9315H27.9641L28.7838 15.5263L28.4705 16.4895L29.2902 15.8934L30.1064 16.487L29.7941 15.5276L30.6168 14.9315Z" fill="#0D0C0E"/>
<path fill-rule="evenodd" clip-rule="evenodd" d="M30.617 14.9316H29.6015L29.2892 13.9736L28.9773 14.9316H27.9643L28.7841 15.5265L28.4707 16.4897L29.2905 15.8935L30.1066 16.4872L29.7943 15.5277L30.617 14.9316ZM27.1444 14.9316H26.1289L25.8166 13.9736L25.5043 14.9316H24.4917L25.3117 15.5265L24.9981 16.4897L25.8179 15.8935L26.6341 16.4872L26.3217 15.5277L27.1444 14.9316ZM19.2462 5.26048H20.2617L20.5738 4.30249L20.8859 5.26048H21.8989L21.0791 5.85535L21.3921 6.81855L20.5725 6.22243L19.7565 6.81584L20.0687 5.8566L19.2462 5.26048Z" fill="#0D0C0E"/>
<path fill-rule="evenodd" clip-rule="evenodd" d="M18.2849 31.2374C18.2849 31.4797 18.2849 32.0588 17.9116 32.2455C17.5382 32.4323 17.4635 32.6749 17.5008 32.8242C17.538 32.9735 17.7061 33.1417 18.0048 33.235C18.3036 33.3285 18.8637 33.5152 20.5253 34.7287C20.8238 34.9153 21.1228 34.803 21.2159 34.6912C21.3094 34.5794 21.3469 34.2619 21.1041 33.9816C20.8395 33.6766 20.5627 33.1975 20.5627 32.4883V25.5242H22.2616C22.6724 25.5242 23.083 25.6364 23.2139 26.3456C23.3257 26.8124 23.9793 26.8874 23.9793 26.3831V22.6304C23.9793 22.2196 23.251 22.2571 23.1579 22.6679C23.0644 23.0787 23.0457 23.8071 22.4856 23.8071H20.5627V20.0353H22.6536C22.9712 20.0353 23.2885 20.1473 23.475 20.4086C23.662 20.6701 24.2408 21.361 24.6329 21.1927C24.8195 21.1184 24.9127 20.9312 24.8195 20.5766L23.9418 18.2057H17.9116C17.5382 18.2057 17.3515 18.3364 17.314 18.5045C17.2767 18.6725 17.3887 18.99 17.65 19.1206C17.9114 19.2513 18.2849 19.5126 18.2849 20.1102V31.2374Z" fill="#D5D6E9" fill-opacity="0.6"/>
<path fill-rule="evenodd" clip-rule="evenodd" d="M25.7902 29.6501C25.7902 29.9116 25.7902 30.5465 25.4168 30.8453C25.0435 31.1439 24.1284 32.0027 24.5205 32.5251C24.6702 32.7304 25.0808 32.6748 25.6034 32.4881C26.1264 32.3015 27.657 32.2453 28.2171 32.264C28.7774 32.2828 31.4286 32.7679 32.474 29.6312C33.1649 27.4658 32.1938 24.9076 30.2524 24.8704C29.1507 24.8516 28.6094 25.4121 28.5159 26.2148C28.4224 27.0175 29.0758 28.2124 30.4764 27.9884C30.8685 27.914 30.9616 28.0446 30.9616 28.3621C30.9616 28.6792 30.8498 30.6025 29.0202 30.6025C28.7212 30.6025 28.2731 30.6212 28.0678 30.6212V20.3711C28.0678 19.8857 28.6464 19.2136 29.0389 18.9523C29.3375 18.7657 29.3188 18.2054 28.9642 18.2054H24.9688C24.7072 18.2054 24.4461 18.5042 24.8195 18.8963C25.1928 19.2884 25.7902 19.5869 25.7902 20.4458V29.6501ZM8.63251 18.2054C8.35247 18.2054 8.07242 18.3362 8.01641 18.5788C7.96935 18.7824 8.01641 19.1016 8.31519 19.2324C8.61398 19.3631 9.06206 19.6244 9.06206 20.3153V28.642C9.06206 28.9595 9.02458 29.4073 8.59524 29.3515C8.16591 29.2953 8.05368 29.5008 8.03515 29.6314C8.01641 29.7624 8.09116 30.64 9.32337 31.4426C9.73417 31.7037 10.8916 32.4695 11.3584 32.0958C11.5825 31.9278 11.3397 31.1251 11.1157 30.864C10.8916 30.6025 10.7423 30.285 10.7423 29.8367V23.3023L13.9536 31.6854C14.1777 32.2453 14.887 32.7867 15.4099 32.6186C15.9327 32.4506 16.0074 32.04 16.0074 31.7035V20.11C16.0074 19.7739 16.026 19.4751 16.6796 19.1203C17.0156 18.971 17.1464 18.2054 16.549 18.2054H13.2072C12.8151 18.2054 12.5536 18.6908 12.9271 18.9896C13.3005 19.2884 14.0661 19.6617 14.0661 20.278V25.6737L11.5635 19.1578C11.3582 18.6537 11.0034 18.2057 10.6114 18.2057L8.63251 18.2054Z" fill="#D5D6E9" fill-opacity="0.6"/>
<path fill-rule="evenodd" clip-rule="evenodd" d="M17.949 13.0153L18.1356 13.4634L15.5031 14.5276C16.5486 15.9278 19.6666 16.2079 21.8695 15.0504C23.9853 13.9388 25.3981 12.53 25.6783 10.4389L23.0642 11.4752L22.8962 11.0459L25.4728 9.99104C25.1178 9.43095 22.3923 8.12399 19.2556 9.41221C16.3803 10.4391 15.2416 13.0156 15.2976 14.0797L17.949 13.0153Z" fill="#0D0C0E"/>
<path fill-rule="evenodd" clip-rule="evenodd" d="M18.7472 13.4897C18.7869 13.4736 18.8185 13.4425 18.8352 13.4031C18.8519 13.3637 18.8523 13.3193 18.8363 13.2796L18.5981 12.6908C18.5902 12.6712 18.5785 12.6533 18.5636 12.6382C18.5488 12.623 18.5311 12.611 18.5116 12.6027C18.4921 12.5945 18.4711 12.5901 18.4499 12.5899C18.4287 12.5897 18.4077 12.5937 18.3881 12.6017L18.352 12.6106C18.3124 12.6267 18.2808 12.6579 18.264 12.6973C18.2473 12.7366 18.2469 12.781 18.2629 12.8207L18.5011 13.4098C18.5172 13.4494 18.5483 13.481 18.5876 13.4977C18.627 13.5144 18.6713 13.5149 18.711 13.4989L18.7472 13.4897ZM19.3167 13.2657C19.3363 13.2578 19.3542 13.246 19.3693 13.2312C19.3844 13.2164 19.3965 13.1987 19.4047 13.1792C19.413 13.1597 19.4174 13.1388 19.4176 13.1176C19.4177 13.0964 19.4137 13.0754 19.4058 13.0558L19.1676 12.4668C19.1516 12.4271 19.1205 12.3955 19.0811 12.3788C19.0418 12.3621 18.9974 12.3617 18.9577 12.3777L18.9215 12.3866C18.9019 12.3945 18.884 12.4063 18.8689 12.4211C18.8537 12.436 18.8417 12.4537 18.8334 12.4732C18.8252 12.4927 18.8208 12.5136 18.8206 12.5348C18.8204 12.556 18.8244 12.577 18.8324 12.5967L19.0706 13.1857C19.0785 13.2054 19.0903 13.2233 19.1051 13.2384C19.12 13.2535 19.1377 13.2655 19.1572 13.2738C19.1767 13.2821 19.1976 13.2864 19.2188 13.2866C19.24 13.2868 19.261 13.2828 19.2807 13.2748L19.3167 13.2657ZM19.8862 13.0416C19.9258 13.0256 19.9574 12.9945 19.9741 12.9551C19.9908 12.9158 19.9913 12.8714 19.9753 12.8318L19.7371 12.2427C19.721 12.2031 19.6898 12.1714 19.6505 12.1547C19.6111 12.138 19.5667 12.1376 19.527 12.1536L19.491 12.1626C19.4713 12.1705 19.4534 12.1822 19.4383 12.197C19.4232 12.2119 19.4112 12.2295 19.4029 12.249C19.3946 12.2685 19.3903 12.2895 19.3901 12.3106C19.3899 12.3318 19.3939 12.3528 19.4019 12.3724L19.64 12.9615C19.6561 13.0011 19.6872 13.0327 19.7266 13.0495C19.7659 13.0662 19.8103 13.0666 19.8499 13.0506L19.8862 13.0416ZM20.4554 12.8176C20.495 12.8016 20.5267 12.7705 20.5434 12.7311C20.5601 12.6918 20.5605 12.6474 20.5445 12.6077L20.3065 12.0187C20.2905 11.9791 20.2594 11.9474 20.22 11.9307C20.1807 11.914 20.1363 11.9136 20.0967 11.9296L20.0606 11.9385C20.041 11.9465 20.0231 11.9582 20.008 11.9731C19.9929 11.9879 19.9808 12.0056 19.9726 12.0251C19.9643 12.0446 19.9599 12.0656 19.9598 12.0868C19.9596 12.108 19.9636 12.129 19.9715 12.1486L20.2097 12.7377C20.2258 12.7773 20.257 12.8089 20.2963 12.8256C20.3357 12.8423 20.3801 12.8428 20.4198 12.8268L20.4554 12.8176ZM21.0247 12.5936C21.0444 12.5857 21.0623 12.574 21.0774 12.5591C21.0926 12.5443 21.1047 12.5266 21.113 12.5071C21.1213 12.4876 21.1257 12.4666 21.1259 12.4454C21.1261 12.4242 21.1221 12.4032 21.1142 12.3835L20.8758 11.7944C20.8598 11.7548 20.8286 11.7232 20.7893 11.7065C20.7499 11.6898 20.7056 11.6894 20.6659 11.7053L20.6299 11.7145C20.6103 11.7224 20.5924 11.7341 20.5773 11.749C20.5622 11.7638 20.5501 11.7815 20.5418 11.801C20.5336 11.8205 20.5292 11.8414 20.529 11.8626C20.5289 11.8837 20.5328 11.9047 20.5408 11.9244L20.7792 12.5134C20.7952 12.5531 20.8263 12.5848 20.8656 12.6015C20.905 12.6183 20.9494 12.6187 20.9891 12.6027L21.0247 12.5936ZM21.5943 12.3695C21.634 12.3534 21.6656 12.3223 21.6823 12.2829C21.699 12.2435 21.6994 12.1991 21.6835 12.1594L21.4451 11.5704C21.429 11.5308 21.3979 11.4991 21.3585 11.4824C21.3192 11.4657 21.2748 11.4653 21.2352 11.4813L21.1989 11.4902C21.1593 11.5063 21.1277 11.5374 21.111 11.5767C21.0943 11.6161 21.0939 11.6605 21.1098 11.7001L21.3482 12.2892C21.3561 12.3088 21.3678 12.3267 21.3827 12.3419C21.3975 12.357 21.4152 12.369 21.4347 12.3773C21.4541 12.3856 21.4751 12.39 21.4963 12.3902C21.5175 12.3904 21.5385 12.3864 21.5581 12.3785L21.5943 12.3695ZM22.1638 12.1455C22.2034 12.1294 22.2351 12.0983 22.2518 12.0589C22.2685 12.0195 22.2689 11.9751 22.2529 11.9354L22.0149 11.3464C21.9988 11.3067 21.9676 11.2751 21.9282 11.2584C21.8888 11.2417 21.8444 11.2413 21.8046 11.2573L21.7688 11.2662C21.7491 11.2741 21.7312 11.2858 21.7161 11.3007C21.7009 11.3155 21.6888 11.3332 21.6805 11.3527C21.6722 11.3722 21.6678 11.3932 21.6676 11.4144C21.6674 11.4356 21.6714 11.4566 21.6793 11.4763L21.9177 12.0653C21.9256 12.085 21.9373 12.1029 21.9522 12.118C21.967 12.1331 21.9847 12.1451 22.0042 12.1534C22.0237 12.1617 22.0446 12.166 22.0658 12.1662C22.0869 12.1664 22.1079 12.1624 22.1276 12.1544L22.1638 12.1455ZM22.7331 11.9215C22.7528 11.9136 22.7707 11.9019 22.7859 11.887C22.801 11.8722 22.8131 11.8545 22.8214 11.835C22.8297 11.8154 22.834 11.7945 22.8341 11.7732C22.8343 11.752 22.8302 11.731 22.8222 11.7114L22.5842 11.1225C22.5682 11.0829 22.537 11.0513 22.4977 11.0346C22.4583 11.0179 22.414 11.0174 22.3743 11.0334L22.3381 11.0424C22.2985 11.0584 22.2668 11.0895 22.2501 11.1289C22.2334 11.1682 22.233 11.2126 22.249 11.2523L22.487 11.8413C22.4949 11.861 22.5066 11.8789 22.5215 11.894C22.5364 11.9091 22.5541 11.9212 22.5736 11.9295C22.5932 11.9377 22.6141 11.9421 22.6353 11.9422C22.6566 11.9424 22.6776 11.9384 22.6973 11.9304L22.7331 11.9215Z" fill="#D5D6E9" fill-opacity="0.6"/>
<path fill-rule="evenodd" clip-rule="evenodd" d="M25.6463 9.54813L25.8179 9.4334L26.6341 10.027L26.3218 9.06778L27.1444 8.47166H26.129L25.8167 7.51367L25.5043 8.47166H24.4918L25.3117 9.06653L25.2589 9.27662C25.3861 9.35449 25.5214 9.45735 25.6463 9.54813ZM22.0193 8.45771L22.3443 7.51388L22.6843 8.48124C22.4631 8.4633 22.2412 8.45545 22.0193 8.45771ZM17.9676 9.5677L18.1271 9.06799L17.3045 8.47187H18.3199L18.6322 7.51388L18.9444 8.47187H19.9571L19.1559 9.02947C18.5721 9.2406 18.1265 9.47317 17.9676 9.5677ZM15.6806 11.7296L15.4718 11.7202L15.1597 10.7622L14.8473 11.7202H13.8319L14.6545 12.3163L14.3424 13.2756L15.1863 12.6913C15.3087 12.3915 15.4686 12.0559 15.6806 11.7296ZM15.8301 15.41L15.6648 15.5264L15.9781 16.4896L15.1582 15.8934L14.3422 16.4871L14.6543 15.5278L13.8317 14.9317H14.8471L14.9616 14.5278C15.1486 14.9756 15.4847 15.1809 15.8301 15.41ZM19.3581 16.1364L19.4509 16.4896L18.9787 16.1608C19.0797 16.1543 19.2581 16.1466 19.3581 16.1364ZM18.2943 16.1643L17.815 16.4871L17.9308 16.1304C18.0549 16.1416 18.1696 16.1602 18.2943 16.1643ZM21.8354 15.5016L21.8392 15.5264L21.5256 16.4896L22.3455 15.8934L23.1613 16.4871L22.8494 15.5278L23.6716 14.9317L22.8417 14.9261C22.8259 14.9365 22.7538 14.9935 22.738 15.004C22.451 15.1938 22.1491 15.3602 21.8354 15.5016ZM25.9274 11.106L26.1292 11.7202H27.1446L26.322 12.3163L26.6343 13.2756L25.8181 12.682L24.9982 13.2781L25.0998 12.9308C25.5474 12.2405 25.8371 11.6244 25.9274 11.106Z" fill="#0D0C0E"/>
</svg>
