<svg width="31" height="30" viewBox="0 0 31 30" fill="none" xmlns="http://www.w3.org/2000/svg">
<path d="M11.6169 17.1879L8.76524 19.2421C9.15191 20.0476 9.69163 20.7888 10.3844 21.4654C11.0772 22.1421 11.8908 22.6818 12.8252 23.0846C13.7758 23.4713 14.7989 23.6646 15.8944 23.6646C16.6839 23.6646 17.4491 23.5438 18.1902 23.3021C18.9475 23.0765 19.6161 22.7382 20.1961 22.2871C20.7922 21.836 21.2594 21.2801 21.5977 20.6196C21.9522 19.9429 22.1294 19.1776 22.1294 18.3238C22.1294 17.6149 22.0166 16.9865 21.7911 16.4388C21.5655 15.891 21.2514 15.4076 20.8486 14.9888C20.4619 14.5699 20.0108 14.2154 19.4952 13.9254C18.9797 13.6193 18.4239 13.3535 17.8277 13.1279C17.0383 12.854 16.3616 12.5963 15.7977 12.3546C15.25 12.1129 14.823 11.8471 14.5169 11.5571C14.2269 11.2671 14.0819 10.9288 14.0819 10.5421C14.0819 10.1715 14.235 9.86542 14.5411 9.62376C14.8472 9.36598 15.2902 9.23709 15.8702 9.23709C16.3052 9.23709 16.708 9.3257 17.0786 9.50292C17.4652 9.66404 17.8116 9.89765 18.1177 10.2038C18.44 10.4938 18.7219 10.8401 18.9636 11.2429L22.0811 9.50292C21.7911 8.92292 21.3722 8.35098 20.8244 7.78709C20.2766 7.2232 19.5839 6.75598 18.7461 6.38542C17.9244 6.01487 16.9497 5.82959 15.8219 5.82959C14.7264 5.82959 13.7275 6.02292 12.8252 6.40959C11.9391 6.78015 11.2302 7.32792 10.6986 8.05292C10.183 8.77792 9.92524 9.63987 9.92524 10.6388C9.92524 11.4765 10.0783 12.1935 10.3844 12.7896C10.6905 13.3696 11.0772 13.869 11.5444 14.2879C12.0116 14.6907 12.503 15.021 13.0186 15.2788C13.5502 15.5365 14.0175 15.7379 14.4202 15.8829C15.2419 16.189 15.9025 16.4629 16.4019 16.7046C16.9014 16.9463 17.2639 17.204 17.4894 17.4779C17.715 17.7357 17.8277 18.0821 17.8277 18.5171C17.8277 19.0326 17.6344 19.4435 17.2477 19.7496C16.8611 20.0396 16.3697 20.1846 15.7736 20.1846C15.2097 20.1846 14.67 20.0638 14.1544 19.8221C13.655 19.5804 13.1877 19.234 12.7527 18.7829C12.3339 18.3318 11.9552 17.8001 11.6169 17.1879Z" fill="#469A1F"/>
<circle cx="15.4336" cy="14.9958" r="13" stroke="#A266F4" stroke-width="4"/>
</svg>
