<svg width="51" height="53" viewBox="0 0 51 53" fill="none" xmlns="http://www.w3.org/2000/svg">
<path d="M15 33.9995C15 37.8041 18.1838 40.8884 22.1111 40.8884H29.2222C33.1496 40.8884 36.3333 37.8041 36.3333 33.9995H29.2222H22.1111H15Z" fill="#A266F4"/>
<rect x="5" y="9.33398" width="41.3333" height="41.3333" rx="5" stroke="#A266F4" stroke-width="4"/>
<rect x="1" y="21.6665" width="3.33333" height="15.3333" rx="1.66667" fill="#A266F4" stroke="#A266F4" stroke-width="2"/>
<rect x="46.6667" y="21.6665" width="3.33333" height="15.3333" rx="1.66667" fill="#A266F4" stroke="#A266F4" stroke-width="2"/>
<path d="M27.6667 2.00033C27.6667 0.895756 26.7713 0.000325155 25.6667 0.000325203C24.5622 0.000325251 23.6667 0.895756 23.6667 2.00033L27.6667 2.00033ZM27.6667 8.66699L27.6667 2.00033L23.6667 2.00033L23.6667 8.66699L27.6667 8.66699Z" fill="#A266F4"/>
<circle cx="17.6667" cy="24.667" r="4" fill="#A266F4"/>
<circle cx="33.6667" cy="24.667" r="4" fill="#A266F4"/>
</svg>
