<svg width="21" height="19" viewBox="0 0 21 19" fill="none" xmlns="http://www.w3.org/2000/svg">
<path d="M5.59424 14.5769H3C1.61929 14.5769 0.5 13.4576 0.5 12.0769V3C0.5 1.61929 1.61929 0.5 3 0.5H18C19.3807 0.5 20.5 1.61929 20.5 3V12.0769C20.5 13.4576 19.3807 14.5769 18 14.5769H12.6998C12.3921 14.5769 12.0918 14.6716 11.8396 14.8481L8.04653 17.5033C7.7411 17.7171 7.31754 17.5334 7.26482 17.1644L7.07917 15.8648C6.9736 15.1258 6.34072 14.5769 5.59424 14.5769Z" stroke="#A266F4"/>
<rect x="4" y="5" width="13" height="1" rx="0.5" fill="#A266F4"/>
<rect x="4" y="9" width="8" height="1" rx="0.5" fill="#A266F4"/>
</svg>
